<svg width="135" height="136" viewBox="0 0 135 136" fill="none" xmlns="http://www.w3.org/2000/svg">
<path d="M70.3554 135.219C66.2007 135.219 62.0447 135.22 57.89 135.213C57.6874 135.213 57.486 135.137 57.2834 135.096C57.3807 134.892 57.4327 134.648 57.5794 134.492C60.342 131.528 62.5954 128.183 64.73 124.767C66.9367 121.235 68.1207 117.301 68.75 113.203C69.2087 110.212 69.3394 107.193 69.19 104.176C69.102 102.381 68.854 100.587 68.5474 98.8148C68.3367 97.5948 67.6567 96.5788 66.6527 95.7962C65.894 95.2055 65.1007 95.0215 64.166 95.3188C61.718 96.0975 59.4927 97.3228 57.4687 98.8588C55.042 100.7 52.7007 102.656 50.374 104.623C47.646 106.929 44.846 109.123 41.6434 110.744C39.8047 111.673 37.8754 112.377 35.8807 112.891C33.9514 113.385 32.0114 113.836 30.086 114.344C28.618 114.732 27.1967 114.507 25.75 114.209C20.9927 113.236 16.5727 111.467 12.5967 108.663C6.43404 104.316 2.43004 98.5308 0.908705 91.0801C0.404705 88.6135 0.187372 86.1375 0.334038 83.6335C0.372705 82.9801 0.630036 82.3401 0.774036 81.6921C1.2447 79.5681 1.55137 77.3921 2.21004 75.3295C3.35004 71.7601 5.15937 68.5121 7.5847 65.6308C10.7567 61.8628 14.5794 58.9428 19.1234 57.0482C21.1554 56.2015 23.314 55.6641 25.3847 54.9041C26.4794 54.5015 27.5287 54.5508 28.6314 54.7748C32.366 55.5308 35.966 56.7401 39.5114 58.0975C43.826 59.7495 48.0927 61.5295 52.4007 63.2015C53.8767 63.7748 55.4287 64.1521 56.9207 64.6908C58.078 65.1095 58.7754 64.8161 59.6287 63.8335C61.0447 62.2028 61.19 59.1948 58.9967 57.4562C57.4487 56.2295 55.734 55.2935 54.014 54.3495C51.1514 52.7775 48.1967 51.3402 45.4767 49.5482C40.4567 46.2428 36.5287 41.8681 34.0154 36.3681C31.3247 30.4788 31.13 24.4961 33.814 18.5175C35.0687 15.7215 36.926 13.3628 39.166 11.2922C42.794 7.93615 47.0967 5.74948 51.6767 4.02281C54.722 2.87615 57.8834 2.19082 61.0674 1.61348C63.2367 1.22148 65.4274 0.897482 67.6234 0.706815C69.6194 0.533482 71.6314 0.600157 73.6247 0.932157C76.186 1.35882 78.7794 1.63082 81.3127 2.17882C87.158 3.44415 92.594 5.71616 97.39 9.34282C100.591 11.7655 103.265 14.6681 104.961 18.3721C106.033 20.7148 106.689 23.1588 106.854 25.7401C107.251 31.9868 105.155 37.4201 101.455 42.3161C98.4754 46.2615 94.7234 49.3295 90.3927 51.6908C87.238 53.4108 84.0447 55.0615 80.8887 56.7815C78.3754 58.1508 77.5687 61.1282 79.106 63.4015C79.4674 63.9361 80.0167 64.3828 80.5647 64.7375C80.8607 64.9281 81.3567 64.9282 81.73 64.8548C82.5954 64.6815 83.4474 64.4268 84.298 64.1788C88.8074 62.8655 93.082 60.9441 97.3967 59.1242C101.394 57.4375 105.543 56.2428 109.754 55.2135C110.983 54.9135 112.07 55.0295 113.214 55.3668C116.598 56.3681 119.794 57.7641 122.61 59.9255C127.071 63.3495 130.09 67.8215 132.046 73.0495C133.075 75.7988 133.813 78.6268 134.155 81.5468C134.809 87.1241 134.222 92.5295 131.913 97.7055C130.33 101.255 128.127 104.348 125.246 106.948C122.466 109.457 119.319 111.383 115.793 112.652C114.419 113.147 113.002 113.523 111.602 113.944C110.931 114.147 110.261 114.12 109.577 113.949C104.137 112.592 99.0754 110.369 94.3714 107.321C90.774 104.989 87.4954 102.233 84.0967 99.6361C82.4434 98.3735 80.7407 97.1695 79.0274 95.9881C78.5514 95.6588 77.97 95.4561 77.41 95.2748C75.7074 94.7255 74.254 95.3362 73.2034 96.9815C72.3354 98.3401 71.894 99.8628 71.774 101.431C71.5834 103.908 71.4354 106.401 71.4887 108.883C71.6527 116.717 74.2127 123.728 79.0687 129.879C80.222 131.341 81.502 132.704 82.714 134.121C82.9714 134.423 83.1847 134.76 83.418 135.081C83.0474 135.127 82.6767 135.212 82.3074 135.213C78.3234 135.223 74.3394 135.219 70.3554 135.219Z" fill="#EAEB81"/>
</svg>
