<svg width="128" height="131" viewBox="0 0 128 131" fill="none" xmlns="http://www.w3.org/2000/svg">
<path d="M28.539 56.6549C28.5363 53.1323 29.151 49.7029 30.0457 46.3149C30.615 44.1656 31.331 42.0643 32.1843 40.0123C32.335 39.6483 32.2883 39.3816 32.0523 39.0789C30.487 37.0696 28.8537 35.1189 27.0817 33.2896C24.683 30.8123 22.263 28.3549 19.8523 25.8909C18.2897 24.2923 16.7203 22.7016 15.167 21.0949C14.519 20.4256 13.911 19.7176 13.275 19.0363C12.8123 18.5403 12.415 18.5469 11.9883 19.0803C11.7217 19.4149 11.5057 19.7896 11.2777 20.1523C11.103 20.4269 10.9763 20.7363 10.7737 20.9869C10.455 21.3816 10.3897 21.8203 10.4897 22.2829C10.587 22.7296 10.479 23.1043 10.203 23.4416C9.80032 23.9336 9.40965 24.4389 8.97099 24.8963C8.74165 25.1349 8.43765 25.3203 8.13499 25.4643C7.66832 25.6869 7.30299 25.5523 7.05899 25.0883C6.92965 24.8429 6.80565 24.5696 6.77899 24.3003C6.62432 22.7283 7.17099 21.2283 8.97899 20.7256C9.14965 20.6776 9.33099 20.5643 9.44165 20.4283C9.83765 19.9496 10.215 19.4563 10.5777 18.9523C10.811 18.6296 11.039 18.2963 11.211 17.9403C11.475 17.3949 11.3963 16.8589 10.9737 16.4189C10.6057 16.0376 10.2257 15.6549 9.79765 15.3456C9.24432 14.9469 8.66699 15.0149 8.18299 15.4909C7.47899 16.1869 6.98565 17.0336 6.60032 17.9336C6.49365 18.1856 6.49499 18.5203 6.55099 18.7963C6.64699 19.2683 6.57632 19.6976 6.29899 20.0603C5.87765 20.6109 5.44032 21.1589 4.94832 21.6429C4.35899 22.2229 3.50832 21.9949 3.24299 21.2043C2.92432 20.2496 3.06032 19.3056 3.41765 18.3843C3.63232 17.8269 3.98432 17.4189 4.54165 17.1349C5.88299 16.4509 6.79765 15.3443 7.45899 14.0096C7.60032 13.7243 7.60432 13.4496 7.50565 13.1523C7.10965 11.9723 5.55099 10.7589 4.30965 10.7069C4.08699 10.6976 3.85099 10.7949 3.63632 10.8816C3.30832 11.0136 3.00432 11.2069 2.67232 11.3269C2.22699 11.4869 1.80832 11.4016 1.52432 10.9989C1.22565 10.5776 0.958986 10.1323 0.68832 9.69227C0.545653 9.4616 0.600321 9.22694 0.745655 9.02427C1.03099 8.62294 1.09365 8.20293 0.989653 7.72026C0.885653 7.2296 0.993652 6.7496 1.24032 6.3056C1.56299 5.72427 1.53765 5.54426 1.07365 5.0536C0.365652 4.3016 0.353654 4.11626 0.99232 3.33093C1.30965 2.94026 1.63632 2.5576 1.96699 2.17893C2.06299 2.0696 2.18032 1.97226 2.30032 1.88693C2.58299 1.68693 2.68432 1.69893 2.98432 1.88027C3.23499 2.03227 3.48965 2.1856 3.76165 2.2896C4.03632 2.39493 4.31365 2.34559 4.55499 2.14959C4.65765 2.06559 4.77232 1.99494 4.88699 1.92827C5.15632 1.7736 5.43632 1.75894 5.67499 1.9656C5.94832 2.2016 6.21099 2.16427 6.49099 2.00694C6.68432 1.89894 6.88699 1.80293 7.07232 1.6816C7.55232 1.3656 7.99632 1.45894 8.42299 1.78427C8.86699 2.1216 9.11899 2.54693 9.01099 3.12693C8.91365 3.65093 8.77365 4.17093 8.72965 4.6976C8.69365 5.13227 8.71765 5.58826 8.81232 6.0136C8.95632 6.6656 9.43232 6.89093 10.063 6.6576C10.7323 6.41093 11.251 5.94427 11.727 5.43227C12.039 5.0976 12.3257 4.7376 12.6203 4.3856C12.951 3.99093 12.9523 3.81226 12.7137 3.35359C12.6483 3.22826 12.631 3.03093 12.683 2.90426C12.7817 2.66026 12.9123 2.4136 13.087 2.22293C13.8977 1.33893 14.891 0.840265 16.115 0.920265C16.8403 0.966932 17.311 1.4456 17.2883 2.1696C17.2483 3.4296 16.6577 4.40427 15.5923 5.06427C15.3697 5.20293 15.055 5.25627 14.7857 5.2456C13.8057 5.21094 13.1097 5.63494 12.6377 6.4696C12.3617 6.95894 12.0937 7.4536 11.8123 7.94026C11.687 8.15626 11.6777 8.37226 11.8043 8.57093C11.9697 8.83093 12.151 9.08559 12.3563 9.31493C12.5537 9.53226 12.7883 9.71894 13.0123 9.91094C13.359 10.2056 13.7843 10.2629 14.1617 10.0069C14.4523 9.81093 14.7163 9.56293 14.951 9.30293C15.327 8.88427 15.6937 8.45493 16.0163 7.99626C16.2443 7.6736 16.4097 7.30293 16.575 6.9416C16.8083 6.4296 16.9963 5.8976 17.239 5.39227C17.6137 4.61094 18.235 4.10693 19.087 3.93493C19.547 3.84293 20.0257 3.76027 20.491 3.78294C21.3617 3.8256 21.7163 4.38293 21.471 5.2216C21.227 6.0536 20.7657 6.76293 20.1243 7.3256C19.8363 7.5776 19.4377 7.74427 19.0617 7.84293C17.579 8.22693 16.6723 9.27626 15.967 10.5203C15.4443 11.4429 15.683 12.2749 16.4923 12.9723C17.951 14.2256 19.3937 15.4976 20.847 16.7576C22.4577 18.1523 24.075 19.5389 25.687 20.9309C26.907 21.9856 28.1243 23.0429 29.3417 24.1003C30.615 25.2069 31.891 26.3109 33.159 27.4216C34.2723 28.3963 35.379 29.3789 36.4857 30.3603C37.0937 30.9003 37.695 31.4483 38.303 31.9896C38.6817 32.3269 38.9177 32.3523 39.331 32.0523C39.9043 31.6349 40.455 31.1829 41.031 30.7683C44.119 28.5509 47.4523 26.8123 51.0763 25.6456C52.7563 25.1043 54.475 24.7056 56.2363 24.5629C58.1777 24.4056 60.1083 24.4869 61.9897 25.0749C64.0483 25.7203 65.775 26.8589 67.1763 28.5043C68.2457 29.7616 68.9843 31.1976 69.6043 32.7149C69.9057 33.4523 70.2697 34.1669 70.6403 34.8736C71.487 36.4803 72.8177 37.5429 74.4897 38.1909C75.123 38.4376 75.775 38.6376 76.4217 38.8509C76.8377 38.9883 76.851 39.0376 76.5777 39.3803C75.7763 40.3856 74.9657 41.3856 74.1937 42.4136C73.9403 42.7509 73.7603 43.1549 73.6003 43.5496C73.1617 44.6309 73.1763 45.7309 73.6537 46.7869C73.927 47.3896 74.2977 47.9496 74.6563 48.5083C74.8617 48.8283 74.9497 48.8136 75.2443 48.5363C76.1497 47.6843 77.059 46.8363 77.9563 45.9776C79.0897 44.8936 80.2123 43.7976 81.343 42.7096C82.8363 41.2736 84.3323 39.8403 85.8283 38.4083C87.111 37.1803 88.395 35.9536 89.679 34.7269C91.711 32.7843 93.743 30.8416 95.779 28.9016C96.8603 27.8709 97.9457 26.8429 99.0323 25.8189C101.058 23.9109 103.082 22.0029 105.111 20.1003C106.352 18.9363 107.596 17.7763 108.85 16.6256C110.736 14.8963 112.63 13.1749 114.524 11.4536C115.848 10.2483 117.171 9.04293 118.508 7.85226C119.922 6.59226 121.339 5.33493 122.783 4.11093C123.183 3.77226 123.659 3.49893 124.142 3.28827C125.267 2.7976 126.32 3.13893 127.015 4.14959C127.376 4.67493 127.57 5.26426 127.65 5.8856C127.826 7.26026 127.603 8.5416 126.699 9.6456C126.212 10.2403 125.55 10.5763 124.85 10.8243C124.43 10.9723 124.027 10.8416 123.738 10.4763C123.516 10.1976 123.303 9.9136 123.092 9.62826C122.504 8.83493 121.687 8.85626 121.042 9.46426C119.386 11.0283 117.687 12.5469 116.007 14.0869C115.179 14.8469 114.354 15.6109 113.528 16.3736C111.658 18.1003 109.787 19.8243 107.919 21.5523C107.007 22.3963 106.096 23.2416 105.191 24.0936C102.93 26.2243 100.67 28.3576 98.411 30.4909C97.315 31.5269 96.2163 32.5629 95.127 33.6083C93.355 35.3096 91.591 37.0176 89.823 38.7229C89.2363 39.2883 88.6417 39.8429 88.063 40.4163C84.9083 43.5403 81.7563 46.6669 78.607 49.7976C78.2497 50.1523 77.911 50.5243 77.5697 50.8923C77.355 51.1229 77.3537 51.1656 77.615 51.3323C79.935 52.8029 82.311 54.1523 85.019 54.7949C86.039 55.0363 87.071 55.0936 88.1043 54.9483C89.4897 54.7549 90.6243 54.0456 91.6683 53.1589C92.2217 52.6909 92.7737 52.2203 93.3563 51.7909C94.3097 51.0869 95.327 51.0763 96.3697 51.5989C97.0177 51.9243 97.5297 52.3483 97.8683 53.0363C98.4843 54.2856 99.2457 55.4549 100.21 56.4749C101.004 57.3149 101.928 57.9909 103.038 58.3309C104.196 58.6869 105.374 58.9909 106.558 59.2509C109.283 59.8496 111.85 60.8429 114.292 62.1843C116.115 63.1856 117.84 64.3243 119.432 65.6603C121.515 67.4083 123.248 69.4496 124.606 71.8109C125.859 73.9923 126.684 76.3283 127.103 78.7989C127.282 79.8603 127.374 80.9416 127.43 82.0176C127.667 86.5616 126.687 90.8963 125.096 95.1149C123.423 99.5509 121.078 103.618 118.286 107.434C116.64 109.682 114.842 111.799 112.918 113.815C109.51 117.388 105.739 120.518 101.582 123.176C98.163 125.363 94.5483 127.148 90.6803 128.403C88.3643 129.154 85.999 129.698 83.5763 129.931C81.1243 130.167 78.6697 130.162 76.235 129.708C75.963 129.658 75.6883 129.567 75.4417 129.442C73.5723 128.491 71.859 127.315 70.2963 125.911C67.835 123.696 65.9057 121.078 64.3083 118.198C62.3043 114.584 60.963 110.723 60.023 106.711C59.899 106.179 59.7603 105.647 59.5723 105.135C59.2417 104.24 58.6737 103.508 57.9257 102.916C57.3443 102.458 56.7537 102.011 56.1977 101.524C55.8683 101.234 55.5603 100.902 55.3097 100.542C54.8377 99.8616 54.9057 99.2496 55.4937 98.6656C56.351 97.8123 57.0723 96.8656 57.5897 95.7669C58.171 94.5296 58.4683 93.2309 58.5203 91.8669C58.6137 89.4429 58.0083 87.1709 57.0243 84.9869C55.9003 82.4936 54.3523 80.2843 52.415 78.3509C52.3417 78.2776 52.2697 78.2029 52.203 78.1243C51.8417 77.6949 51.535 77.5896 51.0403 77.8429C50.583 78.0776 50.115 78.3363 49.7403 78.6789C48.735 79.5976 47.739 80.5296 46.8123 81.5243C45.675 82.7469 44.6043 84.0336 43.519 85.3043C42.3363 86.6883 41.1777 88.0909 39.999 89.4776C39.1363 90.4909 38.291 91.5189 37.275 92.3936C36.9883 92.6403 36.803 93.0016 36.5363 93.2763C35.543 94.2909 34.5403 95.2963 33.531 96.2949C33.0683 96.7523 32.5763 97.1803 32.1057 97.6296C30.703 98.9669 29.2777 100.282 27.9123 101.658C26.6523 102.928 25.4363 104.247 24.4603 105.762C23.9683 106.523 23.5337 107.312 23.3763 108.223C23.3043 108.638 23.2923 109.06 23.459 109.448C23.6883 109.978 23.575 110.458 23.3483 110.942C22.943 111.808 22.3803 112.574 21.7483 113.279C20.859 114.271 19.9683 115.266 19.0083 116.184C17.363 117.759 15.6657 119.282 13.9843 120.818C12.651 122.034 11.3057 123.236 9.96965 124.451C9.30165 125.058 8.62032 125.652 7.98699 126.294C7.32165 126.966 6.67899 127.663 6.07632 128.392C5.22165 129.427 4.16432 130.068 2.82432 130.175C1.56699 130.274 0.716321 129.563 0.440321 128.492C0.300321 127.946 0.325653 127.416 0.493653 126.876C0.993653 125.276 1.88432 123.915 2.97099 122.659C4.16965 121.275 5.60299 120.151 6.98032 118.962C8.08832 118.006 9.20165 117.052 10.283 116.064C12.247 114.267 14.207 112.463 16.135 110.627C17.539 109.291 18.9043 107.911 20.2617 106.527C22.2097 104.54 24.147 102.543 26.0657 100.53C27.739 98.7723 29.3857 96.9896 31.035 95.2109C32.775 93.3336 34.5043 91.4456 36.239 89.5643C37.6323 88.0509 39.019 86.5336 40.423 85.0309C42.3217 82.9976 44.231 80.9749 46.1403 78.9523C46.8003 78.2523 47.471 77.5629 48.1377 76.8696C48.199 76.8056 48.267 76.7456 48.319 76.6763C48.4403 76.5163 48.411 76.4336 48.2137 76.4136C47.7563 76.3683 47.3363 76.4909 46.939 76.7149C46.3803 77.0309 46.003 77.5243 45.6417 78.0323C45.2457 78.5869 44.8737 79.1576 44.4617 79.6989C44.2483 79.9789 43.9843 80.2256 43.7177 80.4563C43.491 80.6509 43.4203 80.6163 43.315 80.3269C43.0523 79.6043 42.8243 78.8669 42.5283 78.1576C41.8177 76.4563 40.6857 75.1469 38.9577 74.3909C37.431 73.7229 36.019 72.8576 34.739 71.7869C32.7737 70.1429 31.2843 68.1443 30.267 65.7936C29.3417 63.6523 28.827 61.4123 28.663 59.0909C28.607 58.2803 28.579 57.4669 28.539 56.6549Z" fill="#56A7DA"/>
</svg>
