<svg width="135" height="134" viewBox="0 0 135 134" fill="none" xmlns="http://www.w3.org/2000/svg">
<path d="M87.9037 25.1844C88.2663 25.1871 88.305 25.1177 88.1623 24.8377C88.1037 24.7217 88.0397 24.6084 87.9743 24.4951C87.7117 24.0351 87.7103 24.035 87.3717 24.4457C87.125 24.7444 87.1797 24.9697 87.545 25.1031C87.681 25.1537 87.829 25.1684 87.9037 25.1844ZM34.661 36.483C34.585 36.287 34.5197 36.0857 34.4317 35.8964C33.9077 34.7657 33.2277 33.7204 32.6263 32.6324C31.7517 31.0484 30.7343 29.5684 29.6717 28.1111C29.405 27.7457 29.1343 27.623 28.6743 27.7257C27.0757 28.0844 25.4677 28.4004 23.8623 28.7257C23.2263 28.855 23.1943 28.9311 23.605 29.4604C24.613 30.7604 25.8223 31.8737 26.961 33.0524C27.8197 33.9417 28.8343 34.5897 29.965 35.0617C31.265 35.6031 32.577 36.1191 33.8863 36.6404C34.0357 36.6991 34.1997 36.7257 34.3597 36.7484C34.5423 36.7751 34.641 36.6937 34.661 36.483ZM75.869 48.8777C75.941 49.0004 76.0183 49.2057 76.1637 49.3417C76.2063 49.3817 76.445 49.2471 76.5717 49.1591C76.705 49.0671 76.8117 48.9377 76.929 48.8231C77.7023 48.0644 78.481 47.3124 79.2477 46.5471C79.9103 45.8871 80.569 45.223 81.2077 44.5404C82.0037 43.6897 82.777 42.8177 83.5597 41.9551C84.069 41.3937 84.037 41.2391 83.3077 41.0711C82.037 40.7777 80.8437 40.2817 79.6623 39.7484C79.3637 39.6137 79.065 39.4724 78.7863 39.3031C78.1917 38.9404 77.793 38.4324 77.8023 37.7057C77.8117 37.0577 77.9543 36.4324 78.3223 35.8844C78.5503 35.5457 78.8037 35.2217 79.0623 34.9044C80.0077 33.7484 80.969 32.6057 81.9023 31.4417C82.1877 31.0857 82.4237 30.6871 82.6463 30.2871C82.7357 30.1271 82.7437 29.9137 82.7623 29.723C82.7783 29.563 82.6743 29.5084 82.5463 29.5964C82.333 29.7417 82.101 29.8791 81.933 30.0711C81.4917 30.5777 81.0863 31.115 80.6557 31.6324C79.7623 32.703 78.8663 33.7724 77.9637 34.835C77.6503 35.203 77.4183 35.6084 77.2823 36.0737C77.033 36.9324 76.909 37.8057 76.9757 38.6977C77.0463 39.6217 76.9557 40.5297 76.813 41.4417C76.625 42.6377 76.3703 43.831 76.4757 45.0577C76.489 45.219 76.4623 45.3857 76.4357 45.5471C76.3277 46.2097 76.2143 46.8724 76.101 47.5351C76.029 47.9551 75.9557 48.3751 75.869 48.8777ZM51.713 60.4097C52.225 60.4177 52.385 60.1657 52.173 59.7751C51.6063 58.7364 50.9837 57.7364 50.1983 56.8417C47.817 54.1257 45.4637 51.3857 43.0557 48.6937C41.5557 47.0164 40.041 45.3551 38.6623 43.5751C38.6023 43.4977 38.5397 43.4204 38.4703 43.3524C38.1717 43.0564 37.9837 43.0604 37.6663 43.3337C37.4437 43.5257 37.2157 43.7151 36.973 43.8804C36.4717 44.2217 35.9543 44.5404 35.4517 44.8804C35.2063 45.0471 35.209 45.1484 35.4357 45.3311C35.537 45.4137 35.653 45.4791 35.7597 45.5564C36.253 45.9084 36.7823 46.2231 37.233 46.6244C38.557 47.8044 39.901 48.9671 41.1423 50.2311C43.3997 52.5271 45.4663 54.9951 47.4383 57.5417C47.6663 57.8364 47.9317 58.1284 48.2397 58.3284C49.2863 59.0057 50.3583 59.6431 51.425 60.2897C51.533 60.3564 51.6623 60.3884 51.713 60.4097ZM91.789 46.0457C91.785 46.0457 91.781 46.0457 91.777 46.0457C91.793 46.2257 91.8117 46.4057 91.8223 46.5857C91.8543 47.0817 91.853 47.5857 91.649 48.0404C91.1823 49.0804 90.989 50.2017 90.6343 51.2751C90.5437 51.5497 90.5863 51.5951 90.8637 51.5831C90.9943 51.5764 91.125 51.5631 91.257 51.5604C91.9877 51.5404 92.5797 51.2284 93.0757 50.7044C94.2063 49.5137 95.321 48.3084 96.4797 47.1457C97.1037 46.5204 97.7877 45.9511 98.4757 45.3951C99.089 44.9017 99.7463 44.4631 100.382 43.9991C100.489 43.9217 100.6 43.8484 100.692 43.7564C100.848 43.5991 100.841 43.4817 100.681 43.3404C100.62 43.2857 100.544 43.2497 100.477 43.2017C99.853 42.7484 99.2183 42.3111 98.613 41.8337C98.293 41.5817 98.005 41.2817 97.7437 40.9697C97.2517 40.3831 97.1877 40.3671 96.5477 40.8257C95.301 41.7164 93.9143 42.2497 92.381 42.2777C90.973 42.3031 89.5557 42.3684 88.1637 42.0471C87.793 41.9617 87.4957 42.0737 87.237 42.3564C85.153 44.6337 83.0543 46.8937 80.7397 48.9457C79.245 50.2711 77.9557 51.7751 76.9343 53.5017C76.6343 54.0097 76.309 54.5031 75.9957 55.0031C75.9437 55.0871 75.885 55.1671 75.8437 55.2564C75.7797 55.3937 75.8557 55.5311 76.0023 55.5324C76.1143 55.5337 76.229 55.5031 76.3397 55.4764C77.0197 55.3137 77.6503 55.0297 78.205 54.6151C79.0063 54.0164 79.8277 53.4297 80.549 52.7431C82.465 50.9204 84.4143 49.135 86.4517 47.4497C87.1823 46.8444 87.9623 46.2924 88.749 45.7604C89.513 45.2444 90.357 44.871 91.2303 44.5764C91.6503 44.435 91.773 44.5244 91.7863 44.9617C91.7983 45.3231 91.789 45.6844 91.789 46.0457ZM64.7517 0.379055H65.8357C66.0757 0.425722 66.3157 0.472382 66.5543 0.519049C67.5383 0.713716 68.509 0.951046 69.4437 1.32038C70.4437 1.71638 71.4423 1.75238 72.469 1.37238C73.789 0.883048 75.1663 0.647053 76.573 0.660386C77.7383 0.672386 78.9037 0.732389 80.0663 0.804389C81.0717 0.867055 82.0463 1.10705 82.9757 1.49505C83.2917 1.62705 83.5917 1.80572 83.8757 1.99772C84.125 2.16438 84.121 2.28838 83.8637 2.43105C83.521 2.62171 83.1597 2.77772 82.8023 2.94305C82.669 3.00438 82.5183 3.02972 82.3903 3.09906C82.1143 3.24972 82.1037 3.48438 82.3583 3.67238C82.761 3.97105 83.1903 4.15506 83.7183 4.15639C84.389 4.15772 85.0677 4.19638 85.7263 4.31372C86.5477 4.46038 87.353 4.70039 88.165 4.90305C88.2917 4.93505 88.4343 4.95772 88.5343 5.03105C88.9103 5.30439 88.9783 5.55772 88.597 5.84705C88.4797 5.93639 88.3557 6.01772 88.225 6.08839C87.777 6.32839 87.329 6.56838 86.8743 6.79505C86.2343 7.11505 85.6277 7.49105 85.2463 8.10972C84.9223 8.63638 84.645 9.19905 84.3997 9.76839C84.1503 10.3497 84.085 10.9697 84.1717 11.6044C84.205 11.8471 84.2157 12.0964 84.1957 12.3391C84.1077 13.4071 84.0717 14.4844 84.2983 15.5297C84.5063 16.4897 84.437 17.3897 84.2143 18.3377C83.9183 19.6017 83.2277 20.5004 82.0943 21.075C81.6423 21.3044 81.1677 21.4964 80.689 21.6657C79.1223 22.2151 77.4877 22.387 75.8437 22.4297C74.005 22.4764 72.165 22.4471 70.3263 22.4511C69.5357 22.4524 69.3623 22.5737 69.117 23.3257C68.7757 24.3697 68.453 25.4204 68.0983 26.4591C67.9037 27.0324 67.6063 27.5751 67.449 28.1564C67.0863 29.4897 66.5423 30.7551 66.0837 32.0524C66.0517 32.1431 66.0183 32.2404 66.017 32.335C66.013 32.6604 66.2077 32.7964 66.4877 32.635C66.7103 32.507 66.9063 32.3257 67.0957 32.1484C67.5503 31.7231 67.9677 31.2551 68.4463 30.8591C70.0023 29.5684 71.661 28.4164 73.3663 27.3311C74.501 26.6071 75.6503 25.9017 76.5797 24.9017C76.7037 24.7684 76.909 24.6871 77.0917 24.6391C77.317 24.5777 77.4357 24.6631 77.4663 24.9004C77.517 25.2897 77.5623 25.683 77.5637 26.075C77.5677 27.0444 77.5463 28.0137 77.5357 28.9817C77.5343 29.1137 77.525 29.2484 77.5517 29.375C77.6077 29.6457 77.8037 29.7191 78.0237 29.5524C78.1397 29.4644 78.2383 29.3511 78.337 29.2404C79.5517 27.8817 80.765 26.5217 81.9757 25.1604C82.1343 24.9831 82.229 24.7951 82.1397 24.5337C82.0383 24.2377 82.097 24.1084 82.3797 24.0897C82.961 24.0537 83.3503 23.7177 83.7063 23.3217C84.6557 22.2657 85.7557 21.3831 86.8983 20.5484C87.3223 20.2391 87.749 19.9311 88.165 19.6111C88.549 19.3151 88.5463 19.1751 88.1557 18.9151C87.8823 18.7324 87.601 18.5617 87.3117 18.4071C86.1637 17.7951 85.3863 16.8497 84.825 15.6964C84.701 15.4391 84.685 15.2004 84.7637 14.9391C85.0877 13.8724 85.693 13.0284 86.685 12.4857C87.073 12.2737 87.4677 12.0697 87.8543 11.855C89.5517 10.9177 91.2783 10.0444 93.129 9.44305C93.253 9.40172 93.3743 9.34972 93.497 9.30439C95.281 8.65106 96.681 7.51772 97.7823 5.97239C98.8117 4.52972 99.8943 3.12438 100.962 1.70971C101.324 1.22971 101.662 1.26038 101.924 1.79238C102.146 2.24705 102.341 2.71772 102.544 3.18305C102.716 3.57772 102.824 3.62838 103.224 3.48305C103.286 3.46038 103.346 3.43638 103.408 3.41105C104.546 2.94305 105.685 2.47905 106.821 2.00438C107.029 1.91638 107.228 1.79772 107.414 1.66705C107.95 1.29372 108.392 1.29238 108.974 1.61105C109.512 1.90438 109.898 2.34038 110.257 2.81238C110.97 3.75372 110.898 4.38572 110.001 5.14572C109.889 5.24172 109.769 5.32839 109.652 5.41772C109.586 5.46839 109.514 5.51105 109.457 5.56839C109.42 5.60972 109.404 5.67105 109.377 5.72305C109.436 5.74572 109.497 5.78972 109.554 5.78572C109.649 5.77772 109.742 5.74039 109.836 5.71639C110.105 5.64705 110.37 5.56439 110.642 5.50972C111.302 5.38039 111.968 5.27639 112.625 5.13772C114.046 4.83906 115.458 4.80972 116.865 5.21772C117.168 5.30439 117.457 5.41371 117.68 5.65105C118.009 6.00038 118.108 6.49505 117.781 6.90039C117.492 7.25772 117.216 7.62572 116.932 7.98706C116.689 8.29772 116.444 8.60572 116.201 8.91639C116.09 9.05905 116.12 9.16172 116.302 9.18705C116.725 9.24305 117.148 9.31238 117.573 9.33505C119.238 9.42172 120.746 9.96305 122.15 10.8444C122.438 11.0257 122.464 11.215 122.142 11.3564C121.557 11.6124 121.002 11.9417 120.412 12.1857C119.397 12.6044 118.358 12.9671 117.342 13.3857C116.938 13.5524 116.561 13.7924 116.185 14.023C116.034 14.115 116.064 14.2457 116.241 14.299C116.649 14.4217 117.062 14.5257 117.473 14.6417C117.598 14.6764 117.729 14.7111 117.841 14.7737C118.002 14.8657 117.998 15.0177 117.845 15.1257C117.792 15.1617 117.729 15.187 117.668 15.2084C116.74 15.5404 115.805 15.8364 114.817 15.9524C113.108 16.1551 111.394 16.3057 109.697 16.6324C107.829 16.9924 106.278 17.8204 105.05 19.2697C104.808 19.5564 104.548 19.8377 104.254 20.0711C102.576 21.4031 100.664 22.0964 98.5157 22.0831C97.909 22.0791 97.301 22.0351 96.6997 21.9591C95.153 21.7644 93.5983 21.5964 92.1783 20.8724C92.1343 20.8497 92.085 20.839 92.0423 20.815C91.7223 20.6457 91.4463 20.7204 91.189 20.9537C90.5303 21.5471 89.865 22.1324 89.2103 22.7311C88.9583 22.9604 88.993 23.0897 89.3157 23.2204C90.289 23.6137 91.2623 24.0071 92.237 24.3964C92.5263 24.5124 92.821 24.6137 93.113 24.723C93.5543 24.8884 93.9957 24.9737 94.4543 24.7817C94.573 24.7324 94.7103 24.711 94.8397 24.707C96.0197 24.6657 97.201 24.6177 98.3823 24.6044C98.7557 24.5991 99.141 24.6511 99.501 24.7511C100.654 25.0737 101.805 25.4084 102.94 25.7884C103.266 25.8977 103.554 26.1564 103.83 26.3831C104.054 26.5697 104.018 26.747 103.753 26.875C103.577 26.9604 103.384 27.0097 103.196 27.0671C102.96 27.1377 102.713 27.1791 102.488 27.2724C102.365 27.3231 102.266 27.4457 102.181 27.5564C102.154 27.5897 102.186 27.7271 102.226 27.7484C102.589 27.9351 102.942 28.1884 103.329 28.2671C104.269 28.4577 105.169 28.7537 106.044 29.131C106.309 29.2457 106.554 29.4244 106.78 29.6097C107.037 29.8217 107.024 29.9284 106.737 30.0777C106.462 30.2204 106.174 30.3471 105.88 30.4444C105.352 30.6204 104.81 30.7617 104.28 30.9337C103.841 31.0764 103.402 31.2417 103.073 31.5777C101.96 32.719 100.842 33.8604 100.35 35.4404C100.324 35.5271 100.312 35.6204 100.292 35.7097C100.401 35.7031 100.514 35.7111 100.617 35.6831C100.71 35.6591 100.793 35.5964 100.878 35.5471C101.86 34.9831 102.833 34.4017 103.824 33.855C106.237 32.523 108.33 30.7991 110.145 28.7324C111.072 27.6791 112.156 26.7977 113.217 25.8924C113.71 25.471 114.11 25.5831 114.338 26.1911C114.505 26.6364 114.65 27.0897 114.812 27.5364C114.938 27.8884 115.061 27.943 115.406 27.819C115.452 27.8017 115.497 27.783 115.542 27.763C116.74 27.2257 117.934 26.683 119.136 26.1524C119.51 25.987 119.897 25.8484 120.285 25.7164C120.684 25.5791 121.077 25.631 121.404 25.8937C121.825 26.231 122.25 26.5737 122.617 26.967C123.364 27.7684 123.002 28.8777 122.36 29.3591C122.202 29.4764 122.03 29.5777 121.881 29.7044C121.788 29.7817 121.722 29.8937 121.644 29.9897C121.77 30.0017 121.896 30.0151 122.021 30.0257C122.036 30.0271 122.053 30.0164 122.068 30.0111C123.172 29.6097 124.325 29.4497 125.481 29.2964C126.578 29.1511 127.673 29.0857 128.76 29.3631C129.013 29.4284 129.273 29.4937 129.504 29.6111C130.208 29.9684 130.396 30.695 129.964 31.3537C129.801 31.6004 129.609 31.8257 129.424 32.0564C129.177 32.363 128.916 32.6591 128.676 32.9711C128.425 33.2964 128.466 33.4297 128.864 33.4964C129.429 33.5911 130 33.6844 130.572 33.7137C131.814 33.7751 132.942 34.1991 134.042 34.7297C134.248 34.8284 134.476 34.9537 134.445 35.2324C134.413 35.5191 134.29 35.7431 133.985 35.8644C133.009 36.2524 132.045 36.6697 131.073 37.0671C130.436 37.3284 129.79 37.5724 129.153 37.8337C128.988 37.9004 128.82 37.983 128.684 38.095C128.458 38.283 128.485 38.4017 128.749 38.5057C128.856 38.5484 128.966 38.5804 129.076 38.6177C129.37 38.7177 129.666 38.8151 129.961 38.9204C130.113 38.9751 130.32 39.0257 130.29 39.2217C130.274 39.3271 130.114 39.4431 129.994 39.4951C129.725 39.6097 129.444 39.7111 129.157 39.7737C128.613 39.8937 128.062 39.9871 127.512 40.0831C126.865 40.1951 126.221 40.3417 125.569 40.3951C123.868 40.5337 122.172 40.6364 120.542 41.2417C119.773 41.5271 119.062 41.8724 118.458 42.4164C117.861 42.9537 117.264 43.4977 116.721 44.0897C115.753 45.1457 114.56 45.7777 113.188 46.1124C111.778 46.4564 110.36 46.4191 108.928 46.2884C107.588 46.1671 106.306 45.8684 105.085 45.3084C104.921 45.2337 104.749 45.1777 104.581 45.1111C104.11 44.9297 103.708 44.9804 103.32 45.3484C101.808 46.7857 100.277 48.2031 98.7557 49.6297C98.6837 49.6964 98.6037 49.7631 98.5597 49.8471C98.5183 49.9244 98.4757 50.0524 98.5117 50.1084C98.5543 50.1724 98.6783 50.1977 98.7703 50.2071C98.8477 50.2151 98.929 50.1724 99.009 50.1591C99.2517 50.1164 99.4917 50.0684 99.7357 50.0377C100.729 49.9177 101.726 49.8164 102.718 49.6831C103.969 49.5137 105.212 49.2724 106.468 49.1471C108.61 48.9337 110.73 48.599 112.828 48.115C113.628 47.9297 114.437 47.7911 115.242 47.6364C115.577 47.5724 115.789 47.6777 115.792 47.9377C115.8 48.6364 115.945 49.3551 115.54 50.0071C115.481 50.1004 115.456 50.2217 115.438 50.3351C115.277 51.4257 114.676 52.2751 113.941 53.0471C113.293 53.7284 112.554 54.3071 111.745 54.7844C111.282 55.0564 110.798 55.3324 110.288 55.4777C109.265 55.7684 108.224 56.0057 107.178 56.2004C105.792 56.4591 104.394 56.6631 103 56.8751C102.253 56.9884 101.5 57.0551 100.754 57.1751C100.124 57.2764 99.501 57.4231 98.8743 57.5537C97.9437 57.7471 96.989 57.8684 96.089 58.1591C94.7477 58.5897 93.441 59.1284 92.129 59.6471C91.3623 59.9497 90.6503 60.3617 89.993 60.8604C89.209 61.4564 88.4277 62.0577 87.661 62.6751C87.381 62.9004 87.1397 63.1751 86.8917 63.4377C86.8037 63.5311 86.7343 63.6471 86.6797 63.7644C86.5797 63.9804 86.6143 64.0457 86.857 64.1057C86.9677 64.1337 87.0837 64.1391 87.1983 64.1417C87.477 64.1497 87.757 64.1511 88.0357 64.1537C89.8583 64.1711 91.6823 64.1844 93.505 64.2057C94.2597 64.2151 94.2983 64.2604 94.3037 65.0351C94.3063 65.4124 94.3103 65.7911 94.3063 66.1684C94.2877 68.0084 94.265 69.8471 94.2477 71.6857C94.241 72.4697 94.4063 72.667 95.157 72.8364C97.6223 73.391 100.073 73.9804 102.481 74.7697C106.62 76.1284 110.692 77.6257 114.581 79.6044C117.057 80.8644 119.497 82.1777 121.709 83.8724C122.778 84.6911 123.842 85.5177 124.878 86.3751C126.058 87.3511 127.136 88.4311 128.074 89.6471C129.553 91.5591 130.924 93.5431 131.932 95.7497C132.284 96.5217 132.628 97.3217 132.801 98.1457C133.038 99.2817 133.152 100.45 133.245 101.61C133.337 102.74 133.217 103.868 133.056 104.994C132.781 106.918 132.422 108.803 131.488 110.547C130.969 111.512 130.542 112.526 129.942 113.454C129.001 114.907 127.914 116.239 126.698 117.47C124.998 119.191 123.194 120.79 121.149 122.095C120.568 122.466 119.958 122.791 119.373 123.155C116.218 125.11 112.829 126.568 109.358 127.842C107.512 128.52 105.625 129.087 103.752 129.692C103.19 129.874 102.622 130.043 102.048 130.172C98.557 130.958 95.0663 131.74 91.537 132.339C90.0157 132.596 88.4997 132.862 86.957 132.976C85.517 133.083 84.081 133.254 82.645 133.407C80.9957 133.583 79.349 133.762 77.6863 133.762C76.7517 133.763 75.8183 133.874 74.8837 133.898C73.309 133.94 71.7303 134 70.1557 133.966C67.8583 133.915 65.5623 133.79 63.265 133.694C62.0677 133.643 60.869 133.606 59.673 133.528C58.3143 133.442 56.9557 133.331 55.5997 133.204C54.669 133.116 53.7383 133.007 52.8143 132.867C51.0943 132.606 49.377 132.326 47.6623 132.035C45.7863 131.716 43.9063 131.408 42.041 131.036C40.6743 130.763 39.325 130.399 37.9703 130.067C35.409 129.439 32.837 128.859 30.397 127.811C28.2423 126.886 26.0343 126.08 23.8917 125.127C20.8277 123.763 17.8677 122.199 15.217 120.112C14.2237 119.331 13.205 118.574 12.2703 117.726C10.785 116.375 9.47167 114.867 8.33567 113.202C7.39967 111.828 6.565 110.406 5.953 108.859C5.629 108.036 5.36634 107.199 5.18901 106.324C5.00634 105.42 4.83834 104.522 4.81567 103.6C4.81434 103.551 4.801 103.502 4.797 103.454C4.75034 102.766 4.677 102.079 4.66367 101.392C4.63967 100.203 4.87167 99.0391 5.09034 97.8791C5.21167 97.2377 5.349 96.5831 5.60234 95.9857C6.14634 94.7031 6.81301 93.4791 7.53167 92.2804C8.33701 90.9377 9.27967 89.7004 10.233 88.4671C10.4437 88.1964 10.681 87.9404 10.9357 87.7097C12.069 86.6857 13.2063 85.6657 14.3557 84.6617C14.713 84.3484 15.097 84.0591 15.4997 83.8071C16.9157 82.9164 18.321 82.0017 19.7757 81.1751C23.7437 78.9231 27.9503 77.2057 32.273 75.7777C33.9063 75.2391 35.5863 74.8377 37.2463 74.3777C38.273 74.0924 39.297 73.7977 40.3303 73.5364C41.2997 73.2911 42.281 73.0884 43.2543 72.8564C43.7103 72.7471 43.7503 72.6711 43.713 72.2031C43.693 71.9591 43.6783 71.7124 43.6797 71.4671C43.681 70.2017 43.689 68.9364 43.693 67.6724C43.6957 66.7524 43.6877 65.8324 43.697 64.9124C43.701 64.3871 43.8503 64.2417 44.3677 64.2097C44.4503 64.2044 44.5317 64.2057 44.6143 64.2044C45.2717 64.1911 45.9277 64.1831 46.585 64.1604C46.733 64.1564 46.957 64.2444 46.993 64.0337C47.005 63.9604 46.781 63.8244 46.6463 63.7551C46.5183 63.6897 46.3623 63.6791 46.221 63.6337C45.925 63.5377 45.6183 63.4617 45.3397 63.3284C43.0143 62.2164 40.5597 61.4177 38.229 60.3111C36.1103 59.3057 33.917 58.4617 31.765 57.5271C30.6063 57.0231 29.4823 56.4377 28.317 55.9537C25.7037 54.8684 23.233 53.5031 20.7677 52.1351C18.5397 50.8991 16.3903 49.5324 14.5263 47.7697C14.4077 47.6577 14.2877 47.5444 14.1837 47.4204C14.0663 47.2831 14.113 47.1564 14.2823 47.1417C14.557 47.1164 14.8383 47.1084 15.113 47.135C16.257 47.2457 17.401 47.3577 18.541 47.4964C19.909 47.6631 21.2757 47.8457 22.641 48.0404C25.6263 48.4644 28.497 49.3591 31.3583 50.2631C33.705 51.0044 35.9797 51.9537 38.2277 52.9591C38.4223 53.0457 38.6183 53.1377 38.8223 53.1924C38.9223 53.2191 39.0423 53.1684 39.1543 53.1524C39.113 53.0537 39.097 52.9337 39.029 52.8617C38.773 52.5844 38.497 52.3271 38.233 52.0564C36.673 50.4577 35.0877 48.8844 33.3783 47.4404C33.1783 47.2711 32.977 47.0977 32.8077 46.9004C32.525 46.5751 32.2223 46.4897 31.801 46.6364C31.0583 46.8951 30.301 47.1137 29.545 47.335C27.8623 47.8257 26.1623 48.1097 24.3943 47.9137C22.3477 47.6871 20.5543 46.9564 19.101 45.4684C18.8703 45.2337 18.6383 45.0004 18.4063 44.7684C17.265 43.6244 15.8837 42.8804 14.3397 42.4657C13.3597 42.2017 12.3503 42.0471 11.349 41.8671C10.6717 41.7457 9.98767 41.6604 9.30367 41.5711C8.88367 41.5177 8.453 41.5191 8.037 41.4391C7.11967 41.2617 6.20634 41.0551 5.29434 40.8457C5.03567 40.7871 4.74101 40.7804 4.56634 40.5191C4.80101 40.3764 5.02501 40.2164 5.27034 40.0977C5.44501 40.0137 5.64634 39.9857 5.83567 39.9324C5.91567 39.9097 6.00634 39.9057 6.07034 39.8631C6.15967 39.8031 6.27834 39.7204 6.29167 39.6337C6.30367 39.5617 6.197 39.4511 6.117 39.3871C6.017 39.3057 5.89034 39.2564 5.777 39.1911C4.441 38.4351 2.99034 37.9551 1.557 37.4311C1.26634 37.3244 0.975668 37.2031 0.706335 37.0511C0.313002 36.8324 0.291673 36.5924 0.605007 36.2804C0.67434 36.211 0.751669 36.1444 0.835669 36.0977C1.74367 35.5884 2.68234 35.1657 3.73034 35.0444C4.497 34.9564 5.26367 34.875 6.02901 34.783C6.15567 34.7684 6.28634 34.7311 6.39834 34.6724C6.53967 34.5991 6.57034 34.4737 6.45167 34.3497C6.349 34.2431 6.23567 34.1471 6.129 34.0457C5.517 33.4711 5.06234 32.8004 4.889 31.9657C4.76767 31.383 5.069 30.8897 5.621 30.7697C6.97967 30.4751 8.34634 30.4031 9.73301 30.5644C10.5517 30.6604 11.353 30.7977 12.1277 31.0831C12.3277 31.1564 12.5383 31.2004 12.7437 31.2551C12.8223 31.2751 12.9063 31.3084 12.9823 31.299C13.057 31.2897 13.1543 31.2511 13.189 31.1937C13.213 31.1511 13.173 31.0351 13.125 30.9911C12.9557 30.8377 12.7703 30.7017 12.5917 30.5564C11.9463 30.035 11.7863 29.2964 12.2143 28.5897C12.4077 28.2737 12.6677 27.9884 12.9383 27.7297C13.197 27.4817 13.5277 27.3084 13.7903 27.0644C14.1197 26.7617 14.4357 26.7351 14.8103 26.9617C15.049 27.1057 15.3077 27.2151 15.565 27.3244C16.893 27.8897 18.2237 28.4497 19.553 29.0097C19.757 29.0951 19.9703 29.1577 20.1477 28.9711C20.3317 28.7777 20.3023 28.5431 20.1957 28.3284C20.1317 28.2004 20.033 28.0804 19.925 27.9857C19.7157 27.8004 19.4957 27.6257 19.2677 27.4657C18.3077 26.7884 17.4823 25.9724 16.7383 25.0657C15.977 24.1391 15.2223 23.2071 14.4223 22.315C14.009 21.855 13.5277 21.4444 13.0317 21.075C12.5063 20.6844 11.925 20.3684 11.3703 20.019C10.613 19.5417 9.80101 19.2071 8.92901 18.9977C7.92501 18.7564 6.929 18.475 5.93167 18.2044C5.69434 18.1404 5.45834 18.0657 5.23167 17.9737C4.97834 17.8724 4.949 17.667 5.14634 17.4844C5.181 17.451 5.225 17.4244 5.26767 17.4017C5.85967 17.0844 6.43834 16.7404 7.04767 16.4604C7.55167 16.2271 8.09167 16.0684 8.61434 15.8764C8.82901 15.7977 9.13834 15.7244 9.11834 15.4897C9.101 15.2617 8.78367 15.2244 8.56234 15.1591C8.34367 15.0951 8.11034 15.0457 7.91967 14.9284C7.56101 14.7084 7.55434 14.3964 7.88234 14.1324C8.15967 13.9097 8.49434 13.8231 8.84234 13.7911C9.29967 13.7471 9.76101 13.731 10.2157 13.671C10.8503 13.5884 11.4877 13.5111 12.109 13.3697C12.8317 13.2057 13.441 12.8257 13.9077 12.2337C14.0397 12.0671 14.1837 11.9084 14.329 11.7524C15.1557 10.8631 16.1317 10.2351 17.341 9.99639C17.7103 9.92439 18.093 9.85372 18.429 9.69639C19.3517 9.26305 20.3063 9.13506 21.3063 9.24839C21.4197 9.26039 21.537 9.24305 21.6503 9.25372C21.7477 9.26305 21.8463 9.28038 21.9357 9.31638C22.2023 9.42305 22.2503 9.57772 22.0917 9.81505C22.001 9.94972 21.877 10.0657 21.7957 10.2057C21.597 10.5444 21.7383 10.7897 22.125 10.7951C22.2063 10.7964 22.289 10.7817 22.369 10.7644C23.2663 10.5751 24.165 10.3844 25.061 10.1897C25.653 10.0617 26.241 9.91105 26.837 9.79905C27.253 9.72038 27.657 9.80572 28.0157 10.0377C28.257 10.1937 28.289 10.3177 28.1743 10.5777C28.069 10.8177 27.937 11.0484 27.849 11.2937C27.5837 12.0351 27.697 12.7044 28.2317 13.3071C28.5903 13.7124 28.9157 14.1471 29.253 14.5711C29.6543 15.0751 30.1023 15.5217 30.6463 15.8791C32.1343 16.8564 33.4663 18.0284 34.753 19.2511C35.565 20.0231 36.1103 20.9697 36.409 22.0577C36.5197 22.459 36.5077 22.8297 36.269 23.187C36.1223 23.4044 35.9957 23.6351 35.8717 23.8657C35.673 24.2364 35.4077 24.543 35.0503 24.7644C34.605 25.0404 34.1543 25.3097 33.7037 25.579C33.4077 25.7564 33.0957 25.9084 32.817 26.1084C32.417 26.3937 32.3877 26.6137 32.669 27.0177C33.017 27.5151 33.377 28.0044 33.737 28.4937C34.8103 29.9511 35.6597 31.5457 36.5583 33.1097C37.3343 34.4604 38.1223 35.8044 38.7437 37.2377C38.913 37.6271 39.1303 37.9977 39.3437 38.3657C40.037 39.5564 40.7383 40.7417 41.4397 41.9271C41.5823 42.1671 41.7357 42.4004 41.8903 42.6324C42.873 44.1164 44.0063 45.4764 45.2623 46.7364C46.305 47.7844 47.3463 48.8324 48.3877 49.8817C48.669 50.1657 48.9837 50.3977 49.3663 50.5231C49.4197 50.5404 49.5117 50.5311 49.5437 50.4964C49.5703 50.4671 49.5557 50.3711 49.5263 50.3231C49.4077 50.1284 49.2863 49.9311 49.1477 49.7497C48.1863 48.4977 47.341 47.1684 46.549 45.8057C46.0303 44.9137 45.5623 43.9964 45.253 43.0004C44.821 41.6071 44.3557 40.2244 43.8823 38.8444C43.617 38.0697 43.3023 37.3137 43.0197 36.5444C42.9117 36.2524 42.8477 35.9444 42.7383 35.6524C42.2037 34.239 41.7623 32.7977 41.4437 31.3177C41.2437 30.3884 41.0183 29.4644 40.773 28.5457C40.6103 27.9364 40.5623 27.3177 40.5357 26.6951C40.5317 26.5817 40.5397 26.4617 40.5717 26.355C40.681 25.987 40.8637 25.895 41.2317 26.019C41.3543 26.0617 41.4757 26.1177 41.585 26.1884C42.969 27.0724 44.3703 27.9297 45.581 29.0564C45.953 29.4017 46.3463 29.7284 46.7423 30.0484C48.933 31.8151 50.897 33.8231 52.881 35.8097C53.013 35.9417 53.2023 36.0444 53.3823 36.0937C53.6023 36.1537 53.761 35.9417 53.677 35.7284C53.613 35.5604 53.521 35.4044 53.4437 35.2404C52.465 33.1591 51.8383 30.9431 50.9997 28.8084C50.609 27.8137 50.4677 27.6711 49.3917 27.6471C48.4397 27.6244 47.489 27.5844 46.5517 27.3844C45.525 27.1657 44.489 26.9844 43.5077 26.5911C42.4957 26.1857 41.7877 25.475 41.3677 24.467C41.1703 23.9937 41.1597 23.5537 41.449 23.1097C41.5637 22.9351 41.637 22.7284 41.701 22.5257C41.8757 21.9684 41.689 21.4564 41.4623 20.9577C40.9317 19.7951 40.021 18.9511 38.9877 18.2751C37.6223 17.3817 36.3703 16.3511 35.0983 15.3391C34.997 15.2577 34.8917 15.1751 34.8023 15.0804C34.6637 14.9297 34.7143 14.7577 34.9117 14.7177C35.0037 14.6991 35.1063 14.7177 35.2023 14.7284C35.5783 14.7697 35.9517 14.827 36.329 14.855C36.7237 14.8844 36.8423 14.7444 36.761 14.3617C36.7383 14.2524 36.6877 14.1444 36.6303 14.0457C36.465 13.7631 36.2957 13.4817 36.1197 13.2057C35.7477 12.6244 35.3677 12.0497 34.9997 11.467C34.8263 11.191 34.853 11.1164 35.1357 10.9737C35.569 10.7537 36.0237 10.6404 36.5143 10.6844C36.7597 10.7057 37.0077 10.7297 37.2517 10.7124C38.1517 10.6524 39.0117 10.8017 39.8623 11.0937C40.637 11.3604 40.7757 11.2724 41.0863 10.5111C41.337 9.89772 41.693 9.34571 42.1343 8.85638C42.493 8.45505 42.9397 8.23905 43.4997 8.36838C44.7743 8.66572 45.9863 9.10172 47.009 9.95772C47.2103 10.1271 47.4223 10.2817 47.6343 10.4364C47.7397 10.5137 47.849 10.5897 47.9663 10.6457C48.2463 10.7791 48.3143 10.7537 48.3797 10.463C48.4303 10.2404 48.4543 10.011 48.473 9.78171C48.4863 9.60705 48.5343 9.46305 48.6837 9.36172C49.2543 8.96972 49.849 8.62972 50.5277 8.45372C50.9543 8.34172 51.3797 8.22039 51.7997 8.08705C52.1943 7.96039 52.461 8.02305 52.7157 8.34572C52.7957 8.44839 52.865 8.56172 52.9303 8.67506C53.2983 9.31506 53.6597 9.95905 54.0317 10.595C54.3677 11.171 54.7117 11.2657 55.3023 10.9551C55.709 10.7417 56.1117 10.5217 56.5183 10.3071C56.721 10.2004 56.9357 10.0591 57.1623 10.2151C57.381 10.3644 57.277 10.6057 57.2597 10.8044C57.1757 11.7857 57.0797 12.7657 56.9797 13.7457C56.9623 13.923 56.9157 14.1004 56.8623 14.2724C56.581 15.1644 56.5063 16.0617 56.6663 16.9937C56.8623 18.1284 57.2183 19.1844 57.9197 20.1111C58.1877 20.4644 58.4277 20.8377 58.6903 21.1937C59.1637 21.8337 59.4663 22.5604 59.7583 23.2924C59.9077 23.6671 59.9503 24.0457 59.8637 24.4484C59.661 25.387 59.1303 26.0524 58.2437 26.4124C56.8823 26.9644 55.4823 27.3591 53.997 27.3804C53.4157 27.3897 53.265 27.6004 53.4197 28.1591C53.581 28.7431 53.7837 29.319 53.9157 29.9097C54.365 31.9124 54.9237 33.8804 55.577 35.8271C56.1237 37.4577 56.5703 39.1217 57.0663 40.7697C57.1503 41.0524 57.225 41.3444 57.3583 41.6044C58.0597 42.9764 58.7757 44.3404 59.4943 45.7044C59.569 45.8457 59.6837 45.9684 59.793 46.0884C59.8757 46.1791 59.957 46.1524 60.0397 46.0617C60.197 45.8897 60.2103 45.6844 60.2263 45.4684C60.2717 44.8631 60.2877 44.2524 60.3983 43.6591C60.6837 42.1284 60.993 40.6004 61.333 39.0804C61.8943 36.5671 62.5343 34.0751 63.501 31.6791C63.721 31.1324 63.8743 30.559 64.073 30.0044C64.513 28.7697 64.9623 27.5377 65.4077 26.3057C65.8583 25.0577 66.305 23.8097 66.757 22.5631C66.821 22.3844 66.7477 22.2711 66.589 22.2164C66.4663 22.1751 66.333 22.1657 66.2037 22.1484C65.5037 22.0537 64.7903 22.0217 64.109 21.8564C62.897 21.5644 61.6997 21.2124 60.5077 20.8497C59.857 20.6497 59.293 20.2791 58.821 19.7764C58.4023 19.3324 58.0623 18.8617 58.2037 18.2004C58.2103 18.1684 58.2037 18.1351 58.2023 18.1017C58.1223 16.3297 58.0823 16.6097 58.8317 14.9844C58.8597 14.9244 58.8877 14.8657 58.9157 14.8071C59.6877 13.1137 60.2517 11.3524 60.6597 9.53905C60.8543 8.67105 60.8597 7.81505 60.4223 6.99905C60.245 6.66705 60.0863 6.32305 59.9503 5.97239C59.7943 5.56972 59.593 5.19772 59.2957 4.88439C58.7517 4.31372 58.2023 3.74839 57.661 3.17506C57.5143 3.02172 57.3863 2.85105 57.2503 2.68705C57.153 2.56838 57.2063 2.49372 57.3103 2.40438C57.5343 2.21105 57.7983 2.24305 58.0597 2.24571C59.8997 2.27238 61.7383 2.30039 63.5783 2.32572C63.725 2.32705 63.8757 2.33505 64.0197 2.31105C64.265 2.26972 64.3623 2.10305 64.2477 1.88172C64.1663 1.72839 64.0237 1.60438 63.8997 1.47772C63.5877 1.15505 63.5997 0.921722 63.9917 0.693722C64.2263 0.556388 64.497 0.481722 64.7517 0.379055Z" fill="#FDD7A7"/>
</svg>
