<svg width="137" height="136" viewBox="0 0 137 136" fill="none" xmlns="http://www.w3.org/2000/svg">
<path d="M136.454 30.121C136.454 30.669 136.453 31.2157 136.454 31.7637C136.456 32.0437 136.48 32.321 136.514 32.601C136.566 33.0157 136.585 33.4384 136.488 33.8597C136.422 34.1464 136.389 34.4437 136.369 34.7384C136.289 35.8997 135.982 37.0144 135.644 38.1171C135.453 38.7424 135.194 39.3504 134.924 39.9464C134.425 41.0437 133.801 42.0717 133.152 43.0864C132.494 44.113 131.785 45.1024 131.046 46.069C130.564 46.6997 130.058 47.3157 129.537 47.9184C128.904 48.6517 128.272 49.3837 127.566 50.0477C127.134 50.453 126.681 50.8344 126.23 51.2197C125.838 51.5544 125.445 51.885 125.042 52.205C124.406 52.709 123.768 53.2077 123.121 53.6984C122.352 54.2837 121.564 54.8464 120.8 55.4397C120.17 55.929 119.582 56.4717 119.058 57.073C118.346 57.8904 117.785 58.8064 117.378 59.817C117.144 60.3984 116.941 60.9877 116.818 61.6024C116.75 61.9384 116.725 62.2824 116.642 62.6144C116.513 63.1344 116.616 63.6757 116.477 64.1944C116.446 64.3117 116.466 64.4424 116.464 64.5677C116.457 64.833 116.465 65.097 116.394 65.3597C116.358 65.4917 116.376 65.6384 116.37 65.7797C116.36 66.1224 116.364 66.4624 116.298 66.805C116.244 67.093 116.278 67.397 116.273 67.6944C116.269 67.9437 116.281 68.193 116.208 68.4384C116.177 68.541 116.189 68.6557 116.185 68.765C116.165 69.2944 116.201 69.8237 116.104 70.353C116.05 70.641 116.09 70.9464 116.085 71.2437C116.081 71.5397 116.068 71.8317 116.021 72.129C115.97 72.465 115.998 72.8144 115.992 73.1584C115.986 73.4384 116.006 73.721 115.922 73.9957C115.896 74.0837 115.906 74.1824 115.904 74.2757C115.882 74.8837 115.918 75.4904 115.822 76.0984C115.762 76.481 115.812 76.8797 115.801 77.2704C115.794 77.4717 115.764 77.673 115.745 77.8744C115.733 77.9984 115.718 78.1224 115.717 78.2477C115.712 78.5917 115.718 78.9357 115.706 79.2797C115.698 79.5117 115.662 79.7437 115.642 79.9757C115.632 80.0997 115.624 80.225 115.622 80.3504C115.618 80.757 115.621 81.1637 115.612 81.5704C115.608 81.741 115.577 81.9104 115.561 82.081C115.549 82.2197 115.532 82.3597 115.529 82.4997C115.524 82.8904 115.525 83.2824 115.521 83.673C115.518 83.9544 115.53 84.2344 115.454 84.5117C115.421 84.6277 115.436 84.7597 115.434 84.885C115.43 85.4317 115.43 85.9797 115.426 86.5264C115.425 86.7917 115.432 87.0557 115.362 87.3184C115.326 87.4504 115.342 87.5984 115.341 87.7384C115.337 88.4584 115.337 89.177 115.332 89.897C115.33 90.2397 115.352 90.5824 115.262 90.9224C115.226 91.0544 115.248 91.2024 115.248 91.3424C115.244 92.657 115.244 93.9704 115.236 95.2837C115.234 95.4864 115.198 95.6864 115.184 95.889C115.17 96.0597 115.156 96.2304 115.154 96.4024C115.149 97.8877 115.15 99.3744 115.142 100.86C115.14 101.092 115.098 101.324 115.08 101.557C115.068 101.712 115.061 101.868 115.06 102.025C115.056 103.166 115.057 104.308 115.048 105.449C115.046 105.682 115.006 105.914 114.988 106.146C114.976 106.286 114.966 106.428 114.966 106.568C114.965 108.35 114.964 110.133 114.968 111.916C114.968 112.102 115.001 112.288 115.018 112.474C115.03 112.613 115.048 112.753 115.049 112.893C115.056 113.346 115.05 113.801 115.058 114.254C115.064 114.644 115.061 115.03 115.125 115.421C115.185 115.788 115.142 116.169 115.15 116.545C115.158 116.918 115.122 117.294 115.225 117.664C115.254 117.766 115.238 117.881 115.238 117.99C115.242 118.445 115.244 118.898 115.246 119.352C115.248 119.461 115.229 119.576 115.257 119.678C115.366 120.08 115.332 120.486 115.333 120.892C115.337 122.314 115.338 123.738 115.333 125.161C115.332 125.393 115.29 125.625 115.266 125.857C115.262 125.904 115.249 125.95 115.25 125.997C115.266 126.344 115.202 126.681 115.148 127.02C115.057 127.59 114.95 128.157 114.78 128.709C114.461 129.741 113.865 130.589 113.048 131.278C112.614 131.644 112.098 131.878 111.568 132.073C110.716 132.384 109.838 132.609 108.958 132.826C107.882 133.093 106.813 133.384 105.744 133.677C105.48 133.749 105.217 133.748 104.953 133.733C104.694 133.72 104.468 133.598 104.286 133.422C104.073 133.218 103.884 132.989 103.685 132.768C103.434 132.489 103.204 132.197 102.996 131.882C102.25 130.752 102.37 129.38 103.217 128.362C103.681 127.804 104.228 127.345 104.806 126.924C105.742 126.24 106.633 125.505 107.409 124.644C108.234 123.725 108.837 122.68 109.152 121.473C109.45 120.325 109.732 119.173 109.938 118.005C109.996 117.682 110.046 117.36 110.088 117.036C110.153 116.51 110.21 115.984 110.266 115.458C110.278 115.334 110.276 115.208 110.276 115.082C110.276 113.706 110.276 112.33 110.272 110.954C110.27 110.784 110.238 110.613 110.222 110.444C110.209 110.304 110.193 110.164 110.19 110.024C110.184 109.696 110.186 109.366 110.182 109.038C110.18 108.758 110.201 108.474 110.11 108.201C110.1 108.173 110.097 108.14 110.1 108.109C110.141 107.497 110.005 106.897 109.989 106.288C109.98 105.9 109.924 105.512 109.878 105.125C109.83 104.724 109.772 104.322 109.714 103.922C109.645 103.444 109.584 102.965 109.501 102.489C109.286 101.244 109.021 100.009 108.692 98.7877C108.305 97.353 107.858 95.9424 107.264 94.577C106.738 93.369 106.124 92.213 105.36 91.1397C104.944 90.5557 104.522 89.977 104.044 89.4384C103.753 89.1117 103.466 88.781 103.152 88.4784C102.532 87.8837 101.873 87.333 101.18 86.8264C100.152 86.0784 99.0424 85.469 97.885 84.9504C97.1877 84.6384 96.4744 84.3597 95.729 84.1677C95.413 84.0864 95.1117 83.949 94.809 83.8224C94.6464 83.7544 94.4837 83.7264 94.309 83.7184C93.6464 83.689 93.005 83.8224 92.3637 83.9597C91.9064 84.0584 91.4477 84.1584 91.001 84.2984C90.405 84.4837 89.8197 84.689 89.313 85.0837C88.6984 85.565 88.0544 86.005 87.429 86.4717C86.6864 87.025 86.025 87.6757 85.425 88.3717C84.569 89.365 83.8157 90.4397 83.1584 91.5797C82.5477 92.6384 82.0277 93.7397 81.5797 94.873C81.2304 95.7597 80.9144 96.6584 80.5944 97.5557C80.205 98.645 79.9064 99.7624 79.6104 100.88C79.3557 101.845 79.1144 102.814 78.893 103.789C78.6864 104.701 78.4917 105.616 78.353 106.541C78.2837 107.004 78.1864 107.461 78.1104 107.922C78.0704 108.168 78.0424 108.416 78.017 108.664C77.973 109.098 77.9184 109.532 77.8984 109.966C77.877 110.42 77.901 110.874 77.8877 111.328C77.8477 112.681 78.0624 114 78.3944 115.306C78.6144 116.172 78.937 117.002 79.277 117.825C79.5504 118.489 79.7837 119.169 80.1184 119.808C80.3824 120.309 80.7157 120.761 81.069 121.198C81.3717 121.573 81.689 121.938 82.001 122.308C82.021 122.332 82.041 122.356 82.0624 122.378C82.509 122.858 82.961 123.334 83.3997 123.821C83.745 124.202 84.0744 124.598 84.4104 124.988C84.6544 125.272 84.9064 125.549 85.1397 125.841C85.461 126.244 85.777 126.65 86.0784 127.068C86.621 127.818 86.9037 128.666 87.013 129.585C87.053 129.928 87.0917 130.266 87.089 130.61C87.0824 131.478 86.853 132.284 86.3384 132.982C85.9477 133.51 85.4744 133.965 84.909 134.318C84.145 134.796 83.3037 135.077 82.449 135.33C82.045 135.449 81.6424 135.578 81.249 135.729C80.9677 135.837 80.6864 135.885 80.3851 135.902C79.6544 135.944 78.9571 135.816 78.2651 135.6C77.0584 135.221 75.8464 134.858 74.6384 134.485C73.4384 134.116 72.4091 133.449 71.4331 132.68C70.8637 132.233 70.3637 131.717 69.8744 131.193C69.2997 130.574 68.8104 129.885 68.3837 129.156C68.053 128.589 67.7397 128.013 67.4277 127.436C67.109 126.845 66.7917 126.252 66.4904 125.652C66.1664 125.008 65.9077 124.334 65.7624 123.629C65.625 122.957 65.525 122.278 65.421 121.601C65.325 120.986 65.245 120.368 65.161 119.752C65.1464 119.644 65.1504 119.533 65.1397 119.424C65.1224 119.238 65.0957 119.053 65.0784 118.868C65.0637 118.713 65.0597 118.556 65.0451 118.401C65.0291 118.216 65.0064 118.029 64.985 117.844C64.977 117.766 64.9597 117.689 64.9584 117.612C64.9517 117.3 64.9184 116.992 64.8784 116.681C64.8091 116.141 64.7984 115.593 64.7637 115.049C64.7597 115.002 64.7677 114.954 64.7597 114.909C64.6037 114.056 64.6957 113.194 64.6717 112.337C64.6517 111.598 64.5344 110.876 64.2984 110.178C64.133 109.689 63.9184 109.216 63.4997 108.876C63.4157 108.808 63.3317 108.734 63.2384 108.68C62.7491 108.393 62.521 108.416 62.1317 108.83C61.3544 109.657 60.9064 110.622 60.9051 111.78C60.9051 112.344 60.9797 112.897 61.069 113.452C61.117 113.76 61.157 114.069 61.1864 114.38C61.249 115.046 61.3997 115.704 61.3877 116.377C61.5171 116.853 61.4877 117.341 61.4624 117.821C61.4011 118.95 61.189 120.049 60.6784 121.074C59.9864 122.464 59.1464 123.761 58.2197 125.001C57.7917 125.574 57.3051 126.105 56.8237 126.638C56.3211 127.196 55.8197 127.757 55.261 128.254C54.0917 129.296 53.0517 130.466 51.9024 131.525C50.857 132.488 49.6864 133.253 48.2691 133.568C48.1477 133.594 48.0291 133.64 47.9104 133.68C47.6584 133.762 47.4051 133.842 47.1544 133.93C46.4517 134.18 45.7277 134.262 44.9864 134.208C44.8784 134.2 44.7677 134.186 44.665 134.154C43.4984 133.801 42.3344 133.441 41.1691 133.089C40.4851 132.881 39.8757 132.534 39.3344 132.077C38.9477 131.749 38.6824 131.32 38.5091 130.844C38.3757 130.476 38.2957 130.097 38.2957 129.698C38.2944 129.057 38.3184 128.421 38.477 127.794C38.633 127.182 38.8824 126.612 39.197 126.069C39.605 125.362 40.1144 124.728 40.7104 124.174C41.1557 123.761 41.6331 123.38 42.1197 123.017C43.1864 122.224 44.3437 121.572 45.4904 120.902C46.3397 120.408 47.1797 119.893 48.0051 119.36C48.4371 119.081 48.8597 118.776 49.2357 118.428C49.9104 117.804 50.4384 117.068 50.6464 116.152C50.725 115.805 50.7504 115.444 50.7757 115.086C50.797 114.79 50.777 114.493 50.789 114.196C50.7957 113.994 50.829 113.793 50.8477 113.592C50.8597 113.452 50.8717 113.312 50.8717 113.172C50.8744 112.374 50.8784 111.577 50.8744 110.778C50.8731 110.405 50.9051 110.028 50.7971 109.66C50.7757 109.588 50.7864 109.505 50.7864 109.426C50.7731 108.594 50.6157 107.786 50.3917 106.986C50.1637 106.172 49.8317 105.397 49.5397 104.606C49.3024 103.961 49.0584 103.32 48.8971 102.649C48.7704 102.126 48.5131 101.661 48.2117 101.22C48.0571 100.993 47.8291 100.848 47.5984 100.721C47.3104 100.565 47.0091 100.432 46.7051 100.31C45.8184 99.9597 44.9424 99.597 44.109 99.1237C43.0637 98.5304 42.0157 97.9397 40.9864 97.3184C40.0784 96.7677 39.1877 96.1917 38.3384 95.5504C37.9651 95.2677 37.5744 95.0077 37.2064 94.7197C36.7291 94.3437 36.273 93.9384 35.793 93.5677C35.2584 93.1544 34.7957 92.6664 34.3304 92.1824C33.593 91.4157 32.9304 90.5864 32.401 89.6597C32.021 88.9957 31.6691 88.3157 31.2971 87.6477C30.7731 86.7064 30.2424 85.769 29.7131 84.829C29.5597 84.557 29.4104 84.2837 29.2491 84.0157C29.0957 83.7624 28.9397 83.5104 28.7691 83.269C28.5624 82.9784 28.2757 82.7877 27.9331 82.6957C27.0891 82.469 26.2424 82.2517 25.3971 82.0344C25.1397 81.9677 24.8797 81.9117 24.6224 81.8504C23.8784 81.6717 23.1344 81.4984 22.3917 81.3144C21.3291 81.049 20.293 80.7024 19.273 80.305C17.9477 79.7877 16.6437 79.221 15.3864 78.553C14.6837 78.1784 13.9877 77.7917 13.313 77.3664C12.7717 77.0237 12.2517 76.6517 11.753 76.253C11.4117 75.9797 11.0891 75.6837 10.7717 75.3837C10.4531 75.0837 10.1384 74.7784 9.84372 74.4544C9.32772 73.8904 8.81838 73.3197 8.32772 72.7344C7.77705 72.0744 7.29572 71.3624 6.83706 70.6357C6.17572 69.589 5.61705 68.4904 5.19572 67.325C4.85572 66.385 4.50505 65.4477 4.19705 64.497C3.72105 63.0264 3.31706 61.5344 3.00372 60.0184C2.87039 59.377 2.74105 58.7357 2.61972 58.093C2.52372 57.5864 2.50505 57.0704 2.43439 56.5637C2.35305 55.969 2.37438 55.3797 2.36372 54.7877C2.35572 54.2717 2.44506 53.7637 2.52106 53.2557C2.57039 52.9317 2.62372 52.6077 2.69039 52.2877C2.82239 51.6597 3.02371 51.0517 3.27838 50.4624C3.30238 50.405 3.33171 50.349 3.35171 50.2904C3.42505 50.0797 3.39706 49.889 3.22639 49.733C3.13439 49.649 3.03705 49.5704 2.94505 49.4864C2.75971 49.3197 2.55705 49.1677 2.39572 48.9797C2.03839 48.5664 1.71706 48.1237 1.48239 47.625C1.20906 47.0437 0.986386 46.445 0.879719 45.809C0.874386 45.7784 0.867716 45.7464 0.867716 45.7157C0.855716 45.061 0.725057 44.413 0.761057 43.7544C0.775723 43.505 0.770384 43.2557 0.698384 43.009C0.66505 42.893 0.674387 42.761 0.674387 42.637C0.673053 41.589 0.674387 40.541 0.674387 39.493C0.674387 39.4144 0.665049 39.333 0.682382 39.2597C0.821049 38.673 0.749051 38.0757 0.770385 37.4851C0.777051 37.3291 0.773051 37.169 0.807718 37.0197C0.903718 36.6144 1.12372 36.445 1.53972 36.4357C1.90639 36.4277 2.27572 36.4931 2.58105 36.6717C3.07172 36.9584 3.60372 37.137 4.12238 37.3504C5.53705 37.9357 6.95839 38.4997 8.37839 39.073C8.69572 39.2024 9.01438 39.3304 9.33171 39.4637C9.56771 39.5637 9.76905 39.5344 9.99039 39.389C10.8677 38.817 11.7397 38.2357 12.5304 37.5504C13.0757 37.0797 13.625 36.6197 14.2397 36.2451C14.9997 35.7824 15.7677 35.333 16.5357 34.8837C16.9664 34.6304 17.3984 34.377 17.8384 34.1424C18.9024 33.577 20.0157 33.121 21.141 32.6944C22.6317 32.129 24.1344 31.601 25.645 31.093C26.8304 30.6957 28.0064 30.2717 29.185 29.8571C29.3024 29.8157 29.4131 29.753 29.5277 29.7037C29.7491 29.609 29.9211 29.4677 30.0491 29.2557C30.3957 28.6797 30.761 28.1171 31.1077 27.5424C31.4637 26.9504 31.8611 26.3917 32.3597 25.9131C32.9331 25.3597 33.5051 24.8064 34.0984 24.2744C34.6557 23.7757 35.2424 23.3104 35.809 22.8211C36.1757 22.5051 36.5317 22.177 36.8864 21.849C37.1544 21.6024 37.4437 21.3984 37.7971 21.2917C38.0491 21.2144 38.2891 21.217 38.5224 21.3464C38.8091 21.505 39.0797 21.6717 39.2837 21.9504C39.5211 22.2771 39.8157 22.5624 40.0771 22.8731C40.4984 23.3731 40.9064 23.8864 41.3344 24.381C41.8464 24.9757 42.2704 25.6317 42.6944 26.2864C43.3784 27.3411 43.8957 28.4717 44.2357 29.6864C44.3624 30.1384 44.4384 30.5997 44.5517 31.053C44.5624 31.0984 44.573 31.1451 44.5717 31.1917C44.565 31.8144 44.6317 32.4371 44.4984 33.0597C44.389 33.5704 44.1824 34.0384 43.9917 34.517C43.8931 34.7624 43.7984 35.0104 43.7091 35.2597C43.5384 35.733 43.7357 36.1117 44.0251 36.465C44.3837 36.6584 44.5611 37.0264 44.8211 37.313C45.1037 37.6237 45.3611 37.9584 45.6317 38.2811C45.9624 38.6744 46.2944 39.0677 46.6317 39.4557C46.8771 39.7384 47.1264 40.0184 47.385 40.289C47.5957 40.5104 48.041 40.5504 48.349 40.369C48.537 40.2597 48.7171 40.1264 48.8717 39.9757C50.1971 38.693 51.5184 37.4077 52.8344 36.1144C53.7037 35.2597 54.557 34.3877 55.4264 33.5317C56.061 32.9077 56.7171 32.3064 57.3971 31.733C57.6824 31.4917 57.9544 31.233 58.2424 30.9944C59.133 30.2557 60.065 29.5744 61.0664 28.993C61.933 28.4917 62.8251 28.041 63.7464 27.649C63.8331 27.6117 63.9144 27.5664 63.9997 27.5264C65.1357 27.0037 66.2691 26.4784 67.4064 25.9624C68.345 25.5357 69.281 25.1024 70.2317 24.7024C71.253 24.2717 72.289 23.8757 73.3184 23.4664C74.5384 22.9824 75.7731 22.5344 77.0251 22.1424C78.0531 21.821 79.089 21.5224 80.1237 21.2251C80.829 21.0224 81.5384 20.837 82.2477 20.6464C83.0997 20.4184 83.9677 20.3397 84.8464 20.401C85.2957 20.4317 85.741 20.5277 86.1904 20.557C86.909 20.605 87.609 20.7611 88.3157 20.8771C88.9304 20.9784 89.5357 21.1384 90.1384 21.3011C91.1944 21.5877 92.2317 21.9331 93.2397 22.3611C93.8437 22.6184 94.4477 22.8744 95.0437 23.1464C95.6984 23.445 96.345 23.7597 96.9917 24.0717C98.2917 24.6997 99.4837 25.5024 100.621 26.385C101.149 26.7957 101.637 27.2584 102.145 27.697C102.546 28.0424 102.95 28.3877 103.352 28.733C103.388 28.7637 103.421 28.7957 103.456 28.8277C103.881 29.2184 104.296 29.621 104.734 29.997C105.316 30.4944 105.874 31.017 106.453 31.5157C107.178 32.1397 107.846 32.8184 108.5 33.5104C109.098 34.145 109.645 34.8304 110.145 35.5477C110.921 36.6624 111.696 37.7784 112.444 38.9117C113.004 39.7597 113.505 40.6424 113.889 41.5877C114.053 41.993 114.254 42.3837 114.43 42.7837C114.713 43.4264 114.986 44.0744 115.269 44.717C115.338 44.8744 115.412 45.0317 115.51 45.1717C115.664 45.3877 115.88 45.4051 116.072 45.2264C116.15 45.1531 116.222 45.0664 116.278 44.9744C116.437 44.705 116.586 44.4317 116.738 44.1584C117.048 43.5984 117.373 43.045 117.662 42.4744C118.101 41.6104 118.544 40.7464 118.932 39.8597C119.352 38.9024 119.724 37.9237 120.093 36.945C120.276 36.4637 120.421 35.9664 120.554 35.4691C120.749 34.7464 120.934 34.0197 121.094 33.289C121.197 32.8184 121.26 32.337 121.258 31.8517C121.257 31.6957 121.254 31.5384 121.26 31.3824C121.286 30.5944 121.157 29.825 120.941 29.073C120.678 28.153 120.318 27.269 119.776 26.4744C119.416 25.9464 119.049 25.421 118.582 24.9757C118.321 24.7277 118.069 24.4704 117.818 24.213C117.153 23.5277 116.398 22.9477 115.646 22.3624C114.856 21.7477 114.022 21.1944 113.149 20.7091C112.549 20.3757 111.965 20.0131 111.318 19.7637C110.838 19.5797 110.385 19.325 109.91 19.1224C109.121 18.785 108.33 18.4491 107.53 18.1384C106.466 17.7277 105.397 17.3331 104.324 16.9491C103.176 16.5384 102.013 16.177 100.809 15.9637C100.181 15.8517 99.5544 15.7224 98.925 15.6211C98.3864 15.5344 97.8437 15.477 97.3037 15.4024C96.9344 15.3517 96.565 15.2917 96.1944 15.2424C95.8704 15.1984 95.545 15.165 95.221 15.1264C94.757 15.0704 94.2944 15.0117 93.8304 14.957C93.4904 14.917 93.149 14.885 92.8077 14.845C92.329 14.789 91.8504 14.7264 91.3704 14.6744C90.9677 14.6304 90.5637 14.6037 90.161 14.5597C89.7437 14.5144 89.3264 14.4584 88.9104 14.405C88.6317 14.3704 88.3557 14.3264 88.077 14.297C87.6744 14.2544 87.269 14.225 86.8664 14.1824C86.4184 14.1357 85.9704 14.0797 85.5224 14.0277C85.4757 14.0211 85.429 14.0104 85.3837 14.0064C84.917 13.9704 84.4504 13.9451 83.985 13.8984C83.5824 13.8584 83.1837 13.7771 82.781 13.7451C82.2824 13.7051 81.7944 13.609 81.301 13.533C80.5144 13.4104 79.7384 13.241 78.9704 13.0344C78.137 12.809 77.3397 12.4917 76.5544 12.145C75.6157 11.729 74.7837 11.1504 74.121 10.3571C73.765 9.93172 73.5277 9.43172 73.4157 8.89305C73.2077 7.88372 73.2237 6.86905 73.5344 5.88238C73.7837 5.08638 74.1957 4.37038 74.777 3.75571C75.333 3.16905 75.9824 2.70639 76.7091 2.37439C77.2891 2.11039 77.9077 1.92639 78.5157 1.72639C79.2731 1.47705 80.0597 1.34372 80.841 1.19438C81.1917 1.12638 81.5504 1.09971 81.9064 1.05838C82.385 1.00238 82.865 0.946387 83.3437 0.894387C83.4677 0.881053 83.5944 0.877053 83.7184 0.877053C84.7664 0.875719 85.8144 0.877052 86.8624 0.878385C86.925 0.878385 86.989 0.86905 87.049 0.882383C87.7464 1.02638 88.4517 0.942379 89.153 0.963712C89.481 0.974379 89.8104 0.966386 90.1384 0.969053C90.4197 0.97172 90.7024 0.951721 90.9757 1.04105C91.0197 1.05572 91.069 1.05571 91.1157 1.05571C91.901 1.05038 92.665 1.21705 93.4304 1.35572C94.689 1.58639 95.9384 1.85972 97.1757 2.18105C98.0824 2.41705 98.9837 2.67172 99.8837 2.93305C100.498 3.11172 101.11 3.30372 101.716 3.51038C102.456 3.76238 103.178 4.05571 103.888 4.38505C104.796 4.80371 105.709 5.20905 106.621 5.61705C107.492 6.00639 108.361 6.39705 109.234 6.77571C109.993 7.10638 110.764 7.41039 111.518 7.74772C112.704 8.27839 113.936 8.68638 115.146 9.14638C115.817 9.40238 116.472 9.70105 117.134 9.97705C118.116 10.385 119.093 10.8011 120.08 11.1931C121.545 11.7757 123.024 12.3237 124.485 12.9184C125.628 13.3837 126.768 13.8611 127.854 14.4504C128.638 14.8757 129.377 15.3677 130.074 15.925C130.836 16.533 131.504 17.2371 132.16 17.9464C132.71 18.5397 133.19 19.2024 133.617 19.8931C134.002 20.5184 134.378 21.1504 134.68 21.8211C135.084 22.7197 135.464 23.6264 135.713 24.5824C135.885 25.2464 136.076 25.9077 136.209 26.5811C136.342 27.2517 136.485 27.9251 136.454 28.6197C136.432 29.1197 136.449 29.621 136.449 30.121H136.454Z" fill="#FDD7A7"/>
</svg>
