<svg width="141" height="139" viewBox="0 0 141 139" fill="none" xmlns="http://www.w3.org/2000/svg">
<path d="M89.3242 108.574C89.3162 106.376 89.6069 104.208 90.0136 102.06C90.3029 100.529 90.6656 99.0088 91.0549 97.5008C91.4829 95.8488 91.8589 94.1888 92.1696 92.5128C92.2842 91.8968 92.4162 91.2782 92.6216 90.6888C92.9816 89.6595 92.7442 88.7955 92.0349 88.0195C92.0242 88.0075 92.0136 87.9955 92.0029 87.9835C90.9136 86.8235 89.8269 85.6608 88.7336 84.5048C88.5922 84.3555 88.4242 84.2208 88.2456 84.1208C88.0376 84.0035 87.9069 84.0542 87.8336 84.2822C87.7669 84.4928 87.7322 84.7208 87.7256 84.9422C87.6376 87.8222 87.1589 90.6342 86.2602 93.3702C85.4776 95.7528 84.3576 97.9728 82.9416 100.042C82.4576 100.749 81.9909 100.885 81.2042 100.546C80.4522 100.224 79.7029 99.8875 78.9482 99.5675C77.9429 99.1382 77.1002 98.4622 76.2642 97.7848C75.2149 96.9368 74.1856 96.0608 73.1749 95.1675C72.8042 94.8408 72.5109 94.4275 72.1816 94.0542C72.0536 93.9102 71.9349 93.7542 71.7896 93.6315C71.5909 93.4622 71.4149 93.5142 71.3616 93.7662C71.2922 94.0955 71.2642 94.4342 71.2229 94.7688C71.0682 96.0608 70.9162 97.3528 70.7629 98.6448C70.6949 99.2195 70.6282 99.7928 70.5589 100.368C70.4922 100.922 70.7242 101.344 71.1616 101.65C71.5429 101.918 71.9469 102.153 72.3402 102.404C74.1829 103.581 76.0322 104.748 77.8656 105.941C79.4082 106.945 80.8016 108.134 82.0402 109.496C82.8869 110.425 83.6362 111.432 84.2482 112.533C85.0469 113.969 85.7496 115.45 86.2202 117.03C86.3856 117.585 86.5069 118.152 86.6682 118.708C86.8189 119.226 86.6322 119.63 86.2576 119.957C85.7842 120.37 85.2296 120.582 84.5882 120.618C82.6029 120.729 80.7242 120.289 78.8949 119.565C76.2109 118.502 73.7616 117.045 71.5602 115.177C71.0336 114.729 70.5402 114.242 70.0296 113.777C69.8882 113.648 69.7456 113.513 69.5856 113.41C69.3602 113.268 69.1856 113.324 69.0749 113.558C69.0282 113.658 69.0069 113.773 68.9856 113.882C68.7922 114.861 68.6069 115.84 68.4096 116.817C68.3496 117.116 68.2642 117.409 68.1829 117.704C68.0936 118.032 68.1696 118.318 68.4202 118.537C68.7109 118.789 69.0122 119.032 69.3296 119.249C70.0709 119.758 70.8309 120.244 71.5749 120.75C72.8322 121.609 73.8869 122.696 74.9082 123.809C75.6909 124.664 76.3802 125.593 76.9696 126.597C77.7002 127.837 78.2229 129.169 78.7136 130.513C79.3149 132.161 79.8122 133.842 80.1722 135.561C80.2189 135.781 80.2736 136 80.3309 136.217C80.4576 136.698 80.4482 136.721 80.0016 136.968C79.2216 137.397 78.3802 137.512 77.5242 137.341C76.8656 137.21 76.2136 137.01 75.5869 136.768C74.6896 136.42 73.8042 136.032 72.9389 135.61C71.8136 135.064 70.8949 134.222 69.9789 133.389C69.4069 132.87 68.8456 132.341 68.3002 131.796C67.9949 131.49 67.7336 131.14 67.4469 130.814C67.3096 130.657 67.1749 130.494 67.0149 130.362C66.8629 130.237 66.7042 130.272 66.6149 130.448C66.5429 130.589 66.5042 130.749 66.4749 130.905C66.1362 132.673 65.7909 134.441 65.4709 136.213C65.3682 136.784 65.0989 137.241 64.6749 137.605C64.0069 138.178 63.2549 138.6 62.3829 138.786C61.7242 138.928 61.1269 138.809 60.6389 138.337C59.9456 137.668 59.2749 136.976 58.5936 136.296C58.4202 136.124 58.3829 135.941 58.5162 135.733C59.0496 134.904 59.1429 133.956 59.2536 133.013C59.3082 132.55 59.3389 132.085 59.3842 131.622C59.4002 131.46 59.4389 131.286 59.2709 131.186C59.0896 131.078 58.9256 131.178 58.7842 131.288C58.5682 131.453 58.3496 131.621 58.1536 131.81C56.7656 133.14 55.2309 134.278 53.6109 135.304C52.3789 136.084 51.0656 136.674 49.6256 136.962C48.4042 137.206 47.2269 137.118 46.1122 136.521C45.9709 136.446 45.8322 136.362 45.6989 136.273C44.9016 135.733 44.6856 135.085 45.0149 134.184C45.3122 133.369 45.6109 132.553 45.9336 131.746C46.3562 130.686 46.7616 129.617 47.2442 128.584C48.5056 125.881 50.2469 123.556 52.8202 121.966C53.6776 121.438 54.6162 121.032 55.5416 120.625C57.0869 119.945 58.6482 119.301 60.2109 118.662C60.6136 118.497 60.8336 118.228 60.9056 117.816C61.0989 116.708 61.2922 115.6 61.4816 114.49C61.5709 113.968 61.6682 113.445 61.7282 112.918C61.7522 112.704 61.7109 112.474 61.6629 112.26C61.6216 112.069 61.4696 112.012 61.2869 112.085C61.1082 112.157 60.9322 112.237 60.7602 112.324C59.1269 113.156 57.5002 114.002 55.8589 114.818C54.3602 115.565 52.7989 116.166 51.1949 116.649C49.8429 117.057 48.4562 117.216 47.0469 117.118C46.5682 117.086 46.0869 117.009 45.6202 116.897C44.6656 116.669 44.0282 116.033 43.5709 115.193C43.4802 115.026 43.4722 114.864 43.5536 114.686C44.4176 112.82 45.1456 110.888 46.1989 109.112C46.9949 107.769 48.0109 106.618 49.2349 105.652C50.9456 104.301 52.8589 103.326 54.9122 102.625C55.9922 102.257 57.0896 101.936 58.1749 101.584C59.6442 101.106 61.0936 100.581 62.5029 99.9422C63.0042 99.7155 63.3042 99.3635 63.4029 98.8368C63.5736 97.9368 63.7389 97.0355 63.8922 96.1342C63.9469 95.8182 63.9762 95.4955 63.9936 95.1755C64.0016 95.0368 63.9682 94.8888 63.9256 94.7542C63.8802 94.6115 63.7602 94.5542 63.6162 94.6088C63.4669 94.6662 63.3189 94.7315 63.1776 94.8062C61.9682 95.4435 60.7642 96.0902 59.5509 96.7195C58.3856 97.3235 57.1562 97.7542 55.8442 97.8782C55.1736 97.9408 54.4922 97.9488 53.8216 97.9048C53.1509 97.8622 52.4802 97.7488 51.8176 97.6222C50.5162 97.3755 49.6242 96.6235 49.1282 95.3862C48.6842 94.2742 48.4349 93.1102 48.1842 91.9488C47.9562 90.8968 47.7816 89.8328 47.6256 88.7675C47.5042 87.9355 47.5936 87.1008 47.7229 86.2702C47.8562 85.4128 47.9696 84.5528 48.0922 83.6942C48.1029 83.6142 48.1229 83.5342 48.1229 83.4555C48.1229 83.1728 47.9816 83.0408 47.6949 83.0755C47.5709 83.0915 47.4429 83.1328 47.3309 83.1915C45.8496 83.9662 44.3696 84.7448 42.8896 85.5222C42.4576 85.7488 42.2176 86.1102 42.1416 86.5848C42.1109 86.7742 42.0922 86.9675 42.0856 87.1595C42.0749 87.4808 42.0802 87.8022 42.0749 88.1235C42.0402 90.1168 42.0509 92.1115 41.9589 94.1022C41.8296 96.9355 41.4669 99.7382 40.5802 102.45C39.8109 104.8 38.6856 106.952 37.0242 108.801C36.4309 109.461 35.7722 110.052 35.0456 110.561C33.7682 111.456 32.3042 111.13 31.5562 109.764C31.2722 109.245 31.0482 108.684 30.8762 108.118C30.4096 106.59 30.1362 105.025 30.1109 103.422C30.1042 103.021 30.0229 102.618 30.0429 102.22C30.1069 100.937 30.1962 99.6555 30.2896 98.3742C30.3496 97.5582 30.4229 96.7408 30.5136 95.9275C30.6122 95.0328 30.7416 94.1435 30.8482 93.2502C30.8816 92.9795 30.9029 92.7035 30.8896 92.4328C30.8749 92.1235 30.7136 92.0022 30.4069 92.0555C30.2522 92.0822 30.0976 92.1448 29.9576 92.2195C28.0069 93.2408 26.0576 94.2688 24.1082 95.2942C23.6962 95.5115 23.4536 95.8542 23.3589 96.3035C23.3189 96.4928 23.2829 96.6835 23.2736 96.8755C23.2309 97.7902 23.1936 98.7062 23.1629 99.6208C23.1216 100.842 23.1296 102.065 23.0469 103.284C22.8056 106.824 21.9429 110.198 20.2322 113.329C19.4749 114.714 18.6016 116.029 17.5442 117.205C16.8029 118.029 16.0109 118.808 15.2416 119.605C15.1856 119.662 15.1242 119.716 15.0602 119.765C14.1482 120.485 13.1816 120.341 12.5336 119.378C12.1082 118.746 11.8509 118.032 11.6069 117.317C11.0589 115.71 10.9016 114.046 11.0402 112.368C11.1309 111.281 11.3322 110.202 11.5136 109.125C11.7989 107.429 12.0922 105.733 12.4149 104.045C12.5456 103.368 12.7682 102.709 12.9389 102.04C12.9829 101.872 13.0202 101.69 13.0042 101.521C12.9816 101.277 12.8296 101.192 12.5922 101.265C12.4389 101.313 12.2949 101.388 12.1522 101.461C9.81091 102.674 7.47091 103.892 5.12958 105.104C4.90158 105.222 4.66291 105.32 4.42824 105.426C3.90957 105.661 3.45091 105.55 3.06024 105.161C2.84424 104.948 2.63357 104.72 2.46024 104.47C1.99491 103.797 1.54824 103.109 1.09891 102.424C0.854911 102.049 0.82691 101.641 0.95091 101.218C1.20158 100.363 1.67224 99.7022 2.49491 99.2862C4.72024 98.1635 6.93224 97.0128 9.14824 95.8728C9.24824 95.8208 9.34557 95.7662 9.43891 95.7022C9.81624 95.4462 9.86291 95.1742 9.56291 94.8195C9.35624 94.5755 9.11891 94.3542 8.88558 94.1342C7.52291 92.8462 6.32957 91.4182 5.32824 89.8328C3.72691 87.2982 2.51624 84.5942 1.9069 81.6435C1.8229 81.2368 1.76157 80.8168 1.75757 80.4035C1.75224 79.6075 2.25225 78.9702 3.02025 78.7822C3.99625 78.5422 4.99224 78.4742 5.99091 78.5768C8.46824 78.8315 10.7202 79.7555 12.8629 80.9715C13.3056 81.2222 13.7189 81.5488 14.0922 81.8968C15.3642 83.0848 16.5522 84.3475 17.5016 85.8182C18.2949 87.0475 19.0922 88.2742 19.8896 89.5022C19.9682 89.6235 20.0456 89.7475 20.1362 89.8595C20.4162 90.2062 20.8056 90.3022 21.2149 90.1355C21.2736 90.1115 21.3309 90.0822 21.3882 90.0528C23.4749 88.9755 25.5602 87.8995 27.6469 86.8208C27.7322 86.7768 27.8176 86.7288 27.8922 86.6688C28.1549 86.4568 28.2002 86.2422 28.0322 85.9502C27.9616 85.8262 27.8656 85.7142 27.7696 85.6075C26.2229 83.8928 24.9082 82.0102 23.7629 80.0088C22.5122 77.8248 21.5176 75.5275 20.7376 73.1328C20.3149 71.8328 19.8536 70.5462 19.3989 69.2568C19.0322 68.2182 19.4616 67.2368 20.4856 66.8142C21.0296 66.5915 21.6082 66.5328 22.1842 66.4902C23.6616 66.3808 25.0616 66.6915 26.3949 67.3248C28.5696 68.3568 30.3749 69.8435 31.8776 71.7195C33.2816 73.4702 34.4229 75.3915 35.5789 77.3035C36.6442 79.0648 37.7056 80.8275 38.7909 82.5755C39.2989 83.3928 39.4216 83.4088 40.2642 82.9795C41.7696 82.2128 43.2709 81.4422 44.7749 80.6728C44.8456 80.6355 44.9189 80.6008 44.9869 80.5582C45.4336 80.2728 45.4789 79.9568 45.1082 79.5782C44.6576 79.1182 44.1936 78.6742 43.7362 78.2208C42.2042 76.7048 40.9736 74.9662 39.9282 73.0862C38.8909 71.2195 38.1842 69.2208 37.5229 67.2022C37.4096 66.8582 37.4349 66.5502 37.6616 66.2475C38.5949 64.9995 39.4416 63.6768 40.4629 62.5048C42.2309 60.4755 44.3029 58.8035 46.8096 57.7315C46.9269 57.6822 47.0442 57.6262 47.1522 57.5568C47.5469 57.3035 47.5962 57.0048 47.3082 56.6248C47.2509 56.5488 47.1802 56.4808 47.1149 56.4102C46.7336 55.9982 46.3496 55.5862 45.9696 55.1715C45.2629 54.4022 44.5589 53.6315 43.8509 52.8622C43.4202 52.3968 43.1096 52.3542 42.5949 52.7475C41.4949 53.5862 40.4122 54.4462 39.3189 55.2928C38.0602 56.2662 36.8096 57.2502 35.5336 58.2022C34.1256 59.2515 32.6336 60.1728 31.0282 60.8942C29.8282 61.4342 28.5669 61.7222 27.2442 61.7475C26.0602 61.7702 24.9016 61.6422 23.7776 61.2542C22.2682 60.7315 20.9949 59.8542 19.9496 58.6555C19.3882 58.0115 19.1882 57.2608 19.4096 56.4075C19.6069 55.6502 19.9696 54.9702 20.3429 54.2955C21.1269 52.8782 22.1282 51.6195 23.2949 50.5022C24.2122 49.6235 25.2069 48.8275 26.2629 48.1195C27.8922 47.0288 29.5376 45.9582 31.1842 44.8928C31.6162 44.6142 32.0816 44.3902 32.5309 44.1395C32.6856 44.0542 32.8442 43.9742 32.9922 43.8768C33.3496 43.6382 33.4149 43.3728 33.1469 43.0262C32.8042 42.5822 32.4376 42.1528 32.0549 41.7422C30.9402 40.5408 29.8109 39.3515 28.6896 38.1555C28.5029 37.9568 28.3402 37.7328 28.1456 37.5422C27.6429 37.0488 27.2642 37.0182 26.6922 37.4368C25.6682 38.1875 24.6589 38.9582 23.6296 39.7035C22.6016 40.4502 21.5682 41.1888 20.4176 41.7462C19.1762 42.3488 17.8776 42.7222 16.4962 42.8475C14.7762 43.0008 13.1336 42.7088 11.5309 42.1262C10.2576 41.6635 9.07091 41.0182 7.88424 40.3702C6.52024 39.6262 6.02024 38.3035 6.45624 36.8022C6.90291 35.2675 7.69224 33.9115 8.73624 32.7022C9.91224 31.3422 11.3589 30.3488 12.9602 29.5555C14.3749 28.8542 15.8042 28.1982 17.3442 27.8142C17.5776 27.7568 17.8189 27.7222 18.0496 27.6568C18.4349 27.5475 18.5336 27.3088 18.3416 26.9635C18.2789 26.8515 18.2016 26.7462 18.1149 26.6515C17.3922 25.8542 16.6656 25.0595 15.9389 24.2635C14.9976 23.2315 14.0576 22.1955 13.1122 21.1662C12.8069 20.8342 12.5002 20.5035 12.1709 20.1982C11.6122 19.6795 11.4989 19.0915 11.7082 18.3608C12.2416 16.4928 13.3629 15.1555 15.1469 14.3822C15.3642 14.2888 15.6016 14.2182 15.8362 14.1808C16.2749 14.1128 16.6562 14.2355 16.9669 14.5755C17.6602 15.3355 18.3642 16.0862 19.0616 16.8422C19.4642 17.2795 19.8616 17.7222 20.2629 18.1608C21.0029 18.9662 21.7402 19.7715 22.4856 20.5715C22.6269 20.7222 22.7882 20.8608 22.9602 20.9755C23.1882 21.1288 23.3136 21.0942 23.3922 20.8275C23.4789 20.5382 23.5336 20.2328 23.5496 19.9315C23.7682 16.0022 24.6029 12.2302 26.3882 8.69817C27.0309 7.4275 27.8749 6.29283 28.7456 5.17549C28.8736 5.01149 29.0002 4.84216 29.1429 4.69149C29.7269 4.07416 30.5589 4.14749 31.0296 4.85683C31.1082 4.97549 31.1736 5.10883 31.2256 5.24216C31.9896 7.22216 32.7949 9.1875 33.4202 11.2195C33.9282 12.8688 34.2789 14.5515 34.4322 16.2702C34.6256 18.4435 34.4789 20.6035 34.0256 22.7395C33.6149 24.6728 33.2016 26.6075 32.7842 28.5408C32.7429 28.7275 32.6656 28.9075 32.5936 29.0848C32.2096 30.0208 32.2722 30.9088 32.8749 31.7355C33.1109 32.0595 33.3549 32.3808 33.6256 32.6768C34.2456 33.3502 34.8882 34.0035 35.5149 34.6728C36.2722 35.4835 37.0176 36.3048 37.7776 37.1115C37.9522 37.2968 38.1589 37.4542 38.3616 37.6102C38.4856 37.7048 38.6269 37.6675 38.6856 37.5302C38.8042 37.2515 38.9296 36.9688 38.9896 36.6755C39.1496 35.8875 39.2816 35.0942 39.4162 34.3022C39.6282 33.0608 39.9989 31.8608 40.4069 30.6755C41.1602 28.4862 41.9509 26.3102 42.7336 24.1315C43.2642 22.6568 43.9802 21.2715 44.8536 19.9728C45.2842 19.3342 45.7469 18.7128 46.2389 18.1195C46.5002 17.8022 46.8282 17.5208 47.1749 17.2995C47.7416 16.9368 48.3136 17.0275 48.8109 17.4822C49.3082 17.9355 49.6216 18.5208 49.9349 19.0995C50.8429 20.7715 51.3909 22.5635 51.6256 24.4488C51.7589 25.5168 51.9056 26.5848 51.9802 27.6582C52.0296 28.3755 51.9856 29.1022 51.9429 29.8235C51.8989 30.5768 51.8136 31.3275 51.7336 32.0782C51.5509 33.7915 51.2322 35.4835 50.7989 37.1488C50.0589 39.9955 49.2749 42.8328 48.5029 45.6715C48.3936 46.0742 48.2469 46.4675 48.1122 46.8635C47.9016 47.4822 48.0202 48.0395 48.4269 48.5355C48.6816 48.8462 48.9536 49.1422 49.2242 49.4395C50.2202 50.5315 51.2189 51.6222 52.2189 52.7115C52.4136 52.9248 52.6122 53.1382 52.8269 53.3302C52.9922 53.4795 53.1242 53.4395 53.1776 53.2208C53.2336 52.9888 53.2629 52.7475 53.2736 52.5075C53.4122 49.2288 53.9442 46.0195 54.9842 42.9035C55.3562 41.7888 55.8322 40.7168 56.3442 39.6582C56.8922 38.5248 57.9016 38.0928 59.0362 38.2342C61.7442 38.5728 64.1202 39.6715 66.2376 41.3715C67.5496 42.4235 68.6802 43.6488 69.7562 44.9315C69.8669 45.0635 70.0002 45.1902 70.1482 45.2768C70.3189 45.3782 70.4562 45.3168 70.5349 45.1315C70.5856 45.0142 70.6189 44.8848 70.6322 44.7595C70.7402 43.7208 70.8416 42.6822 70.9442 41.6435C71.0322 40.7635 71.1029 39.8835 71.2109 39.0062C71.2949 38.3302 71.0709 37.8342 70.5189 37.4302C68.1856 35.7168 65.8576 33.9982 63.5456 32.2568C62.2722 31.2982 61.0922 30.2275 60.0162 29.0488C58.7256 27.6355 57.6922 26.0515 56.9909 24.2648C56.4736 22.9475 55.9829 21.6195 55.4762 20.2982C55.3616 19.9982 55.3869 19.7355 55.6202 19.5008C55.9122 19.2048 56.1696 18.8635 56.4962 18.6155C57.0709 18.1795 57.7549 18.1822 58.4402 18.2675C59.1976 18.3608 59.9149 18.5928 60.6056 18.9088C62.3842 19.7208 64.0269 20.7555 65.5562 21.9728C66.7256 22.9048 67.8509 23.8875 68.9202 24.9355C69.5976 25.5982 70.2909 26.2475 70.9642 26.9142C71.2842 27.2288 71.5749 27.5755 71.8829 27.9022C72.0842 28.1142 72.3296 28.3782 72.6109 28.3022C72.9202 28.2208 72.9082 27.8355 72.9536 27.5608C73.2069 25.9902 73.4469 24.4168 73.6882 22.8448C73.7682 22.3262 73.5962 21.8782 73.2056 21.5502C72.1336 20.6515 71.0349 19.7862 69.9656 18.8848C69.0922 18.1515 68.2149 17.4168 67.3989 16.6222C66.8602 16.0995 66.3976 15.4902 65.9522 14.8822C64.1002 12.3542 62.8669 9.5475 62.2322 6.47683C62.0576 5.6275 61.8856 4.77683 61.7229 3.9235C61.6096 3.32483 61.6842 2.7715 62.1656 2.33017C62.4002 2.11417 62.6789 2.00483 62.9816 1.9395C64.1442 1.68617 65.2522 1.87817 66.3176 2.3675C67.2776 2.8075 68.0922 3.46617 68.8749 4.16083C70.6682 5.7475 72.1469 7.60749 73.5136 9.56083C73.8629 10.0622 74.1802 10.5848 74.5189 11.0928C74.6309 11.2622 74.7309 11.5182 74.9629 11.4768C75.2229 11.4315 75.2389 11.1515 75.2722 10.9315C75.5909 8.81816 75.9096 6.70483 76.2202 4.59017C76.2802 4.17683 76.2856 3.75684 76.3496 3.3435C76.4616 2.60617 76.8256 2.0115 77.4669 1.62084C78.1429 1.21017 78.8536 0.884831 79.6456 0.739498C80.1869 0.639498 80.6656 0.750162 81.1216 1.02216C81.7389 1.39016 82.1909 1.94217 82.6736 2.45817C82.7282 2.51683 82.7656 2.59283 82.8256 2.64483C83.2869 3.04883 83.3576 3.54083 83.1469 4.09017C82.7416 5.1435 82.6976 6.25549 82.6029 7.35949C82.5856 7.55149 82.5496 7.74216 82.5429 7.93416C82.5269 8.32216 82.7642 8.46883 83.0962 8.28083C83.1936 8.22616 83.2789 8.1515 83.3696 8.08483C84.8856 6.97417 86.5042 6.0635 88.3189 5.53283C89.2309 5.26483 90.1576 5.07416 91.1082 5.0035C91.5082 4.97416 91.9082 4.9315 92.3096 4.9195C93.3002 4.88617 94.2616 5.06749 95.2082 5.34083C95.4389 5.40749 95.6576 5.51417 95.8802 5.6075C96.7642 5.9835 97.0976 6.8115 96.7962 7.72216C96.4882 8.65283 96.1602 9.58083 95.7682 10.4782C95.0042 12.2195 94.0949 13.8835 92.9442 15.4062C92.0869 16.5395 91.1442 17.5942 90.0362 18.4835C88.6429 19.5995 87.0789 20.4208 85.3962 21.0062C84.3949 21.3555 83.3762 21.6568 82.3656 21.9822C82.2136 22.0315 82.0602 22.0835 81.9109 22.1435C81.4096 22.3422 81.1056 22.7102 80.9922 23.2382C80.7136 24.5435 80.4336 25.8475 80.1576 27.1528C80.1282 27.2928 80.1016 27.4395 80.1069 27.5808C80.1162 27.8675 80.2469 28.0022 80.5349 27.9728C80.7709 27.9488 81.0069 27.8755 81.2309 27.7942C82.7842 27.2208 84.3296 26.6235 85.8896 26.0675C87.0296 25.6608 88.2122 25.4182 89.4242 25.3662C90.3869 25.3248 91.3522 25.2635 92.3136 25.2942C93.6816 25.3355 95.0416 25.4822 96.3122 26.0622C96.8749 26.3195 97.3882 26.6395 97.7962 27.1128C98.2069 27.5902 98.2402 27.8862 97.8816 28.4088C97.5482 28.8928 97.3362 29.4302 97.1522 29.9782C96.7322 31.2342 96.0136 32.3182 95.2096 33.3475C92.9736 36.2088 90.0496 38.0555 86.5869 39.0488C84.4856 39.6502 82.3536 40.1488 80.2362 40.6955C79.9722 40.7635 79.7042 40.8275 79.4469 40.9168C78.9256 41.0968 78.5709 41.4302 78.4656 42.0008C78.2496 43.1702 78.0122 44.3368 77.8042 45.5075C77.7709 45.7008 77.7669 45.9808 77.8789 46.0982C78.0549 46.2822 78.3082 46.1062 78.4936 45.9995C79.2322 45.5755 79.9576 45.1288 80.6922 44.6955C82.3002 43.7462 84.0202 43.0875 85.8656 42.7808C86.9189 42.6048 87.9749 42.6035 89.0296 42.8128C89.3896 42.8848 89.7616 42.9208 90.1282 42.9328C90.8402 42.9542 91.3416 43.2515 91.6522 43.9115C92.2562 45.2035 92.6656 46.5542 92.9162 47.9515C93.1069 49.0102 93.2522 50.0782 93.3936 51.1448C93.4682 51.7062 93.3989 52.2648 93.2842 52.8222C93.1269 53.5768 92.9882 54.3355 92.8656 55.0968C92.7336 55.9115 93.0509 56.1635 93.8109 55.8342C94.3122 55.6168 94.7869 55.3422 95.2722 55.0902C96.2429 54.5862 97.2056 54.0675 98.1842 53.5822C98.7136 53.3195 98.9509 52.9142 98.9269 52.3462C98.8776 51.1915 98.8096 50.0368 98.7616 48.8808C98.7162 47.7568 98.5962 46.6275 98.6669 45.5102C98.8282 42.9422 99.1362 40.3862 99.8056 37.8942C100.318 35.9902 101.058 34.1782 102.158 32.5262C102.786 31.5808 103.546 30.7542 104.387 30.0035C104.631 29.7862 104.948 29.6302 105.258 29.5115C105.746 29.3248 106.191 29.4848 106.523 29.8608C106.754 30.1208 106.95 30.4288 107.099 30.7435C107.99 32.6275 108.636 34.5915 109.043 36.6382C109.436 38.6262 109.734 40.6288 109.975 42.6395C110.012 42.9555 109.988 43.2808 109.979 43.6022C109.959 44.2435 109.928 44.8862 109.906 45.5275C109.903 45.6235 109.911 45.7222 109.931 45.8155C109.98 46.0515 110.072 46.1142 110.307 46.0582C110.446 46.0248 110.586 45.9755 110.714 45.9102C112.796 44.8275 114.876 43.7395 116.962 42.6608C117.432 42.4168 117.692 42.0408 117.759 41.5288C117.858 40.7648 117.962 39.9995 118.027 39.2328C118.191 37.2902 118.435 35.3635 119.043 33.5008C119.648 31.6435 120.462 29.8822 121.474 28.2088C122.326 26.8008 123.336 25.5128 124.408 24.2688C124.684 23.9475 125.011 23.6875 125.399 23.5142C125.899 23.2915 126.339 23.3742 126.614 23.8488C126.958 24.4448 127.27 25.0688 127.504 25.7142C128.002 27.0742 128.351 28.4808 128.659 29.8968C128.715 30.1502 128.678 30.3782 128.566 30.5955C128.294 31.1275 128.25 31.7048 128.219 32.2835C128.202 32.5982 128.407 32.7568 128.716 32.6768C128.854 32.6408 128.986 32.5702 129.112 32.5035C130.511 31.7768 131.91 31.0502 133.304 30.3182C133.874 30.0195 134.431 29.6968 135.003 29.4035C135.447 29.1768 135.904 28.9795 136.356 28.7702C136.59 28.6608 136.834 28.6515 137.055 28.7755C137.36 28.9488 137.686 29.1128 137.939 29.3488C138.974 30.3142 139.747 31.4568 139.956 32.8822C140.05 33.5102 140.011 34.1648 139.97 34.8022C139.938 35.3128 139.807 35.8168 139.73 36.3262C139.602 37.1688 139.154 37.7595 138.391 38.1475C136.142 39.2942 133.902 40.4582 131.659 41.6182C131.388 41.7582 131.116 41.9008 130.859 42.0648C130.512 42.2862 130.471 42.5582 130.743 42.8688C130.912 43.0608 131.103 43.2368 131.3 43.4008C132.452 44.3542 133.622 45.2862 134.762 46.2528C136.53 47.7528 138.059 49.4555 139.083 51.5622C139.534 52.4915 139.912 53.4462 140.05 54.4808C140.076 54.6862 140.119 54.9048 140.219 55.0808C140.476 55.5342 140.4 56.0168 140.4 56.4942C140.4 56.5422 140.396 56.5955 140.375 56.6355C139.936 57.4728 139.476 58.2648 138.419 58.4635C136.971 58.7355 135.52 58.8262 134.054 58.6888C133.17 58.6062 132.303 58.4555 131.451 58.2035C129.836 57.7262 128.416 56.9022 127.123 55.8368C125.643 54.6155 124.512 53.0942 123.418 51.5408C122.779 50.6342 122.148 49.7222 121.502 48.8208C121.192 48.3902 120.856 47.9782 120.532 47.5595C120.334 47.3008 120.064 47.2155 119.76 47.2968C119.544 47.3528 119.334 47.4435 119.135 47.5462C117.478 48.4008 115.822 49.2608 114.167 50.1208C113.824 50.2995 113.483 50.4795 113.148 50.6702C112.622 50.9675 112.558 51.3422 112.964 51.8062C113.324 52.2168 113.7 52.6142 114.075 53.0115C115.626 54.6475 117.059 56.3822 118.378 58.2075C119.802 60.1768 121.148 62.1968 122.199 64.3982C122.762 65.5782 123.196 66.8022 123.471 68.0835C123.595 68.6648 123.514 69.2035 123.195 69.7022C122.78 70.3515 122.26 70.8622 121.519 71.1608C119.375 72.0275 117.251 71.9728 115.134 71.0982C113.492 70.4208 112.07 69.4222 110.796 68.1862C109.45 66.8768 108.324 65.3968 107.278 63.8488C105.81 61.6782 104.352 59.4982 102.888 57.3235C102.556 56.8302 102.218 56.3408 101.878 55.8528C101.522 55.3422 101.191 55.2435 100.642 55.5235C99.7816 55.9608 98.9336 56.4222 98.0789 56.8702C97.5669 57.1395 97.0522 57.4035 96.5389 57.6715C96.3816 57.7528 96.2216 57.8288 96.0696 57.9195C95.4762 58.2742 95.4429 58.5115 95.9202 58.9982C96.2362 59.3195 96.5576 59.6342 96.8802 59.9475C97.7136 60.7555 98.4589 61.6382 99.1682 62.5555C100.387 64.1342 101.306 65.8782 102.074 67.7102C102.471 68.6595 102.855 69.6142 103.271 70.5555C103.446 70.9488 103.436 71.2568 103.158 71.6128C102.415 72.5622 101.752 73.5755 100.982 74.4982C100.428 75.1608 99.7776 75.7502 99.1216 76.3142C98.3056 77.0142 97.4349 77.6528 96.5909 78.3222C95.9042 78.8662 95.1282 79.2528 94.3282 79.5955C93.9429 79.7595 93.5522 79.9102 93.1722 80.0835C92.6656 80.3128 92.5989 80.5955 92.9642 81.0168C93.4682 81.6008 93.9842 82.1755 94.5029 82.7448C95.3042 83.6248 96.1122 84.4968 96.9176 85.3715C97.0162 85.4782 97.1189 85.5808 97.2256 85.6782C97.6282 86.0448 97.9122 86.0662 98.3336 85.7275C98.7842 85.3635 99.2269 84.9902 99.6576 84.6048C101.454 82.9968 103.222 81.3568 105.152 79.9062C106.767 78.6928 108.466 77.6288 110.42 77.0355C111.756 76.6288 113.122 76.4182 114.514 76.5328C116.044 76.6582 117.483 77.1142 118.734 78.0302C119.115 78.3102 119.426 78.6955 119.743 79.0542C119.978 79.3208 119.974 79.6275 119.824 79.9555C118.767 82.2795 117.47 84.4488 115.823 86.4115C114.744 87.6968 113.576 88.8915 112.347 90.0235C110.915 91.3448 109.342 92.4915 107.67 93.4995C106.875 93.9795 106.844 94.2675 107.468 94.9582C108.848 96.4848 110.219 98.0182 111.594 99.5475C111.97 99.9662 112.342 100.39 112.731 100.796C113.188 101.27 113.506 101.295 114.034 100.885C114.616 100.43 115.178 99.9488 115.755 99.4875C116.95 98.5342 118.14 97.5768 119.47 96.8128C120.74 96.0835 122.098 95.6155 123.552 95.4208C124.971 95.2315 126.372 95.3288 127.77 95.6115C129.227 95.9075 130.639 96.3302 131.938 97.0755C132.203 97.2275 132.463 97.3875 132.711 97.5662C133.318 98.0022 133.532 98.5435 133.279 99.2528C132.992 100.053 132.679 100.853 132.279 101.6C131.172 103.669 129.618 105.376 127.848 106.898C126.458 108.096 124.891 108.998 123.202 109.701C122.979 109.793 122.755 109.886 122.547 110.008C122.232 110.192 122.199 110.397 122.426 110.678C122.607 110.904 122.799 111.121 122.994 111.334C123.774 112.19 124.559 113.038 125.336 113.896C126.438 115.11 127.528 116.333 128.631 117.546C129.108 118.072 129.218 118.674 129.052 119.341C128.932 119.824 128.818 120.31 128.66 120.781C128.407 121.544 127.902 122.129 127.222 122.536C126.644 122.881 126.032 123.172 125.428 123.472C124.915 123.726 124.459 123.592 124.062 123.212C123.852 123.012 123.648 122.805 123.454 122.592C122.119 121.133 120.787 119.673 119.458 118.21C118.916 117.616 118.384 117.013 117.848 116.416C117.794 116.356 117.739 116.297 117.68 116.242C117.54 116.116 117.41 115.901 117.202 115.98C116.954 116.074 116.964 116.342 116.974 116.565C116.99 116.95 117.06 117.336 117.048 117.718C117.007 119.052 116.942 120.382 116.88 121.714C116.847 122.437 116.815 123.158 116.766 123.88C116.639 125.789 116.468 127.692 115.916 129.54C115.463 131.06 114.704 132.408 113.722 133.637C113.591 133.8 113.439 133.948 113.28 134.082C112.688 134.581 111.803 134.629 111.168 134.192C111.04 134.104 110.927 133.976 110.848 133.841C109.57 131.658 108.384 129.433 107.688 126.981C107.204 125.277 106.77 123.564 106.634 121.792C106.556 120.784 106.45 119.769 106.482 118.762C106.531 117.157 106.678 115.557 107.012 113.978C107.394 112.185 107.74 110.386 108.11 108.59C108.187 108.213 108.3 107.844 108.392 107.469C108.592 106.661 108.368 105.941 107.92 105.276C107.76 105.037 107.567 104.816 107.368 104.606C106.495 103.685 105.608 102.776 104.738 101.852C104.131 101.209 103.543 100.549 102.944 99.8982C102.858 99.8035 102.771 99.7062 102.671 99.6248C102.395 99.4022 102.147 99.4662 102.048 99.8115C101.975 100.073 101.932 100.348 101.92 100.62C101.867 101.794 101.711 102.956 101.516 104.113C101.107 106.537 100.712 108.965 100.258 111.381C99.8722 113.422 99.3136 115.42 98.5362 117.352C98.0242 118.626 97.3829 119.829 96.5042 120.894C96.3309 121.104 96.1496 121.312 95.9469 121.493C95.3216 122.052 94.5989 122.106 93.9136 121.633C93.6642 121.461 93.4322 121.252 93.2349 121.022C92.1349 119.74 91.3229 118.282 90.7282 116.706C90.0309 114.86 89.6256 112.944 89.4629 110.978C89.3962 110.18 89.3696 109.376 89.3242 108.574Z" fill="#56A7DA"/>
</svg>
