<svg width="143" height="141" viewBox="0 0 143 141" fill="none" xmlns="http://www.w3.org/2000/svg">
<path d="M122.803 79.6042C121.497 79.6176 120.223 79.4256 118.948 79.1842C118.097 79.0242 117.231 78.9429 116.368 78.8749C115.455 78.8029 114.536 78.7962 113.621 78.7482C111.988 78.6642 110.355 78.5722 108.72 78.4829C108.001 78.4429 107.283 78.3829 106.564 78.3669C105.713 78.3496 105.436 78.6389 105.491 79.4962C105.539 80.2642 105.648 81.0269 105.709 81.7936C105.837 83.3922 105.957 84.9909 106.069 86.5896C106.113 87.2096 106.139 87.8322 106.151 88.4536C106.209 91.3722 105.807 94.2309 105.043 97.0442C104.597 98.6869 104.167 100.334 103.732 101.979C103.697 102.106 103.661 102.234 103.648 102.363C103.616 102.688 103.756 102.899 104.068 102.992C104.176 103.026 104.293 103.04 104.407 103.042C107.115 103.09 109.813 103.074 112.412 102.134C112.901 101.956 113.42 101.847 113.933 101.747C115.307 101.48 116.616 101.012 117.917 100.514C119.349 99.9642 120.817 99.6309 122.363 99.5829C123.839 99.5362 125.305 99.5976 126.773 99.7202C128.093 99.8309 129.271 100.372 130.4 101.016C133.12 102.567 135.364 104.643 137.108 107.242C138.235 108.923 138.792 110.812 138.992 112.818C139.039 113.288 139.115 113.76 139.22 114.222C139.444 115.207 139.488 116.175 139.299 117.186C138.781 119.955 138.269 122.723 137.42 125.416C136.853 127.212 135.908 128.779 134.636 130.164C133.305 131.614 131.772 132.811 130.084 133.798C127.555 135.276 125.004 136.72 122.441 138.14C120.74 139.083 118.885 139.528 116.952 139.696C115.747 139.8 114.54 139.928 113.344 140.108C110.549 140.527 107.929 140.059 105.369 138.867C103.325 137.916 101.675 136.518 100.192 134.883C98.3468 132.848 96.3415 131 94.0682 129.455C93.2442 128.894 92.3962 128.363 91.5415 127.848C90.3482 127.13 89.0522 126.699 87.6682 126.516C87.1508 126.447 86.6308 126.335 86.1402 126.162C85.1682 125.819 84.1575 125.736 83.1495 125.636C81.7495 125.498 80.3482 125.379 78.9455 125.266C78.2282 125.208 77.5082 125.178 76.7895 125.144C75.1708 125.068 73.5522 124.994 71.9335 124.927C70.4628 124.866 68.9895 124.755 67.5188 124.779C65.9988 124.804 64.4802 124.942 62.9655 125.078C61.6962 125.191 60.4242 125.33 59.1668 125.539C58.1682 125.704 57.1828 125.96 56.2068 126.234C55.1988 126.516 54.1842 126.807 53.2202 127.207C51.9535 127.734 50.6962 128.307 49.5055 128.984C48.7775 129.398 48.1615 130.023 47.5295 130.591C45.3375 132.56 43.1708 134.556 40.9735 136.522C40.1095 137.295 39.2362 138.064 38.1895 138.606C36.9375 139.254 35.6095 139.66 34.2202 139.83C32.7108 140.014 31.1948 140.16 29.6775 140.252C27.9575 140.356 26.2962 139.988 24.6548 139.487C21.7655 138.606 18.9922 137.436 16.2655 136.147C15.0095 135.554 13.8828 134.768 12.8562 133.846C11.4202 132.555 10.0202 131.224 8.59616 129.919C6.87616 128.344 5.72015 126.422 4.95882 124.227C4.58149 123.138 4.29883 122.038 4.16416 120.892C4.03883 119.82 3.89749 118.748 3.71216 117.684C3.44682 116.163 3.50416 114.656 3.78949 113.147C4.11749 111.402 4.58416 109.703 5.37349 108.102C6.39883 106.018 7.82149 104.27 9.72949 102.939C11.2775 101.862 12.9295 100.95 14.6442 100.171C16.1175 99.5002 17.7028 99.3589 19.3068 99.4882C20.2695 99.5656 21.2322 99.6469 22.1882 99.7709C23.5175 99.9456 24.7188 100.542 25.9708 100.972C27.3482 101.444 28.7228 101.95 30.1348 102.28C31.2255 102.535 32.3722 102.56 33.4962 102.656C35.0935 102.792 36.6935 102.899 38.2922 103.016C38.4055 103.026 38.5215 103.039 38.6348 103.03C39.2028 102.988 39.4415 102.698 39.2988 102.143C39.0948 101.351 38.8535 100.568 38.6188 99.7842C37.8668 97.2722 37.1842 94.7442 36.7802 92.1482C36.7375 91.8749 36.7228 91.5949 36.7228 91.3176C36.7175 89.6149 36.7108 87.9109 36.7268 86.2069C36.7375 85.0296 36.7322 83.8469 36.8348 82.6749C36.8962 81.9669 37.1402 81.2736 37.3215 80.5776C37.4082 80.2456 37.5575 79.9309 37.6428 79.5976C37.8015 78.9776 37.5562 78.5869 36.9295 78.4269C36.8348 78.4029 36.7375 78.3736 36.6415 78.3749C35.4802 78.3909 34.3202 78.4122 33.1588 78.4296C32.8482 78.4349 32.5348 78.4602 32.2268 78.4336C30.4188 78.2736 28.6295 78.4562 26.8468 78.7189C25.2255 78.9576 23.5962 79.0936 21.9588 79.1482C19.8495 79.2202 17.7402 79.3016 15.6295 79.3589C14.6655 79.3856 13.7015 79.3869 12.7375 79.3616C11.8575 79.3362 11.0415 79.0402 10.2455 78.6736C8.90416 78.0549 7.57082 77.4136 6.43749 76.4549C5.84149 75.9509 5.26416 75.3922 4.80816 74.7656C3.52282 72.9989 2.48816 71.0829 1.62149 69.0762C1.10816 67.8896 0.877491 66.6376 0.750824 65.3616C0.536157 63.2149 0.653496 61.0762 0.944163 58.9469C1.25483 56.6762 2.19216 54.6896 3.74549 52.9962C5.36683 51.2282 7.34682 50.0269 9.60549 49.2682C10.7535 48.8816 11.8828 48.4349 13.0935 48.2629C14.5282 48.0576 15.9655 48.0722 17.4042 48.1749C18.3015 48.2402 19.1975 48.3296 20.0935 48.4082C21.4108 48.5256 22.6762 48.8229 23.8548 49.4456C24.9988 50.0509 26.1628 50.6136 27.3908 51.0376C28.1082 51.2842 28.7348 51.6949 29.3375 52.1616C29.8388 52.5496 30.3948 52.8762 30.9535 53.1789C32.8122 54.1842 34.6708 55.1896 36.5548 56.1429C37.2348 56.4869 37.9748 56.7442 38.7148 56.9309C39.8962 57.2282 41.0255 57.6536 42.1535 58.0976C42.4375 58.2109 42.7468 58.2909 43.0508 58.3216C44.7762 58.4949 46.5028 58.6496 48.2295 58.8069C48.5882 58.8402 48.9468 58.8696 49.3068 58.8882C49.7135 58.9096 49.9535 58.6922 49.9815 58.2829C50.0135 57.7949 49.9268 57.3602 49.5748 56.9696C48.5882 55.8762 47.6215 54.7629 46.6642 53.6429C45.2868 52.0309 44.1495 50.2509 43.0682 48.4336C42.3815 47.2802 41.7028 46.1189 41.0882 44.9269C40.6615 44.1016 40.3295 43.2242 39.9908 42.3562C39.6562 41.5042 39.3615 40.6349 39.0588 39.7696C38.8722 39.2362 38.5028 38.8749 37.9882 38.6909C37.1722 38.4016 36.3495 38.1269 35.5175 37.8936C35.0682 37.7669 34.6562 37.6109 34.2828 37.3229C32.8055 36.1816 31.3522 35.0149 29.9922 33.7309C28.4788 32.3042 27.5122 30.5749 26.9908 28.5802C26.6135 27.1389 26.2188 25.6922 26.1548 24.1989C26.1175 23.3056 26.1735 22.3949 26.3068 21.5109C26.6002 19.5696 26.9295 17.6269 27.5628 15.7602C28.4082 13.2682 29.8468 11.1709 31.8628 9.47357C32.0242 9.33757 32.2015 9.21357 32.3828 9.10557C33.1442 8.65623 33.9002 8.19624 34.6788 7.77624C35.5535 7.30424 36.5015 7.01891 37.4908 6.96291C39.3935 6.85491 41.2948 6.92824 43.1388 7.4549C44.0962 7.72824 45.0348 8.09091 45.9495 8.48557C47.5962 9.19491 49.1215 8.92424 50.5762 8.00557C51.6975 7.29624 52.7655 6.50291 53.9002 5.81891C57.2748 3.78557 60.9242 2.46424 64.7922 1.74424C66.8202 1.36691 68.8655 1.11357 70.9308 1.03357C71.5188 1.0109 72.1068 0.981575 72.6948 0.945575C74.8282 0.816242 76.9015 1.20024 78.9655 1.67624C81.0655 2.16024 83.0815 2.86557 84.9962 3.86424C85.8082 4.28824 86.6575 4.64291 87.5015 5.00157C88.8202 5.56024 90.0562 6.25624 91.1855 7.14157C91.4562 7.35224 91.7482 7.53623 92.0282 7.73623C93.0468 8.46423 94.1842 8.56024 95.4002 8.48824C96.6055 8.41624 97.6828 7.93757 98.8015 7.59757C100.209 7.16824 101.639 6.91357 103.104 6.96023C104.312 7.00023 105.519 7.12024 106.724 7.22957C107.419 7.29224 108.051 7.5509 108.649 7.9149C110.299 8.91757 111.796 10.1056 113.069 11.5562C114.532 13.2202 115.383 15.1922 115.861 17.3336C116.124 18.5002 116.333 19.6776 116.591 20.8442C116.919 22.3362 116.96 23.8336 116.659 25.3282C116.409 26.5642 116.151 27.8002 115.825 29.0162C115.317 30.9216 114.288 32.5389 112.975 33.9989C111.644 35.4789 110.064 36.5736 108.225 37.3149C107.376 37.6576 106.547 38.0522 105.689 38.3709C104.611 38.7722 103.915 39.4749 103.601 40.5989C103.209 42.0016 102.755 43.3816 102.191 44.7322C101.343 46.7629 100.225 48.6136 98.8162 50.2949C97.5122 51.8509 96.2135 53.4122 94.8975 54.9562C94.5148 55.4042 94.0682 55.7949 93.6695 56.2282C93.4602 56.4549 93.2548 56.6989 93.1082 56.9682C92.6362 57.8322 93.0255 58.6362 93.9935 58.8096C94.3775 58.8776 94.7735 58.9002 95.1642 58.9242C97.4268 59.0616 99.5842 58.5229 101.729 57.8989C103.072 57.5069 104.32 56.8882 105.588 56.3149C105.737 56.2482 105.883 56.1682 106.037 56.1162C108.056 55.4389 109.881 54.3856 111.68 53.2669C113 52.4469 114.349 51.6722 115.712 50.9242C116.311 50.5949 116.969 50.3749 117.608 50.1216C118.672 49.6976 119.741 49.2869 120.809 48.8709C120.9 48.8349 120.989 48.7869 121.084 48.7656C122.504 48.4482 123.912 48.0989 125.377 47.9976C126.987 47.8869 128.585 47.9696 130.179 48.1336C130.821 48.1989 131.481 48.3616 132.069 48.6229C133.623 49.3176 135.187 50.0096 136.661 50.8509C138.788 52.0629 140.365 53.8296 141.173 56.1696C141.547 57.2469 141.785 58.3802 141.979 59.5069C142.196 60.7776 142.309 62.0682 142.435 63.3536C142.515 64.1762 142.395 64.9882 142.145 65.7776C141.632 67.4002 141.16 69.0389 140.593 70.6429C139.925 72.5349 138.875 74.2096 137.441 75.6256C137.105 75.9576 136.741 76.2762 136.347 76.5336C134.82 77.5296 133.241 78.4362 131.449 78.8642C130.673 79.0509 129.871 79.1616 129.073 79.2202C126.985 79.3736 124.893 79.4789 122.803 79.6042Z" fill="#BC9AC8"/>
</svg>
