<svg width="138" height="137" viewBox="0 0 138 137" fill="none" xmlns="http://www.w3.org/2000/svg">
<path d="M137.81 108.334C136.291 108.77 134.772 109.201 133.256 109.642C132.079 109.985 130.904 110.341 129.73 110.692C129.6 110.729 129.47 110.762 129.342 110.805C129.092 110.886 128.912 110.782 128.78 110.582C128.708 110.472 128.656 110.345 128.603 110.221C127.155 106.852 125.71 103.481 124.264 100.11C124.244 100.064 124.228 100.016 124.211 99.969C124.032 99.5037 124.076 99.3077 124.47 99.0077C125.208 98.445 125.954 97.893 126.696 97.3357C127.156 96.9917 127.203 96.8277 126.95 96.317C125.798 93.993 124.65 91.6663 123.479 89.3517C123.324 89.0437 123.086 88.7557 122.824 88.529C121.919 87.745 120.986 86.993 120.064 86.225C117.615 84.1823 115.136 82.1717 112.73 80.0783C111.406 78.9277 110.204 77.6383 108.951 76.4077C105.59 73.1063 102.234 69.7983 98.8657 66.5037C96.859 64.541 94.9977 62.4463 93.155 60.333C91.2564 58.1583 89.371 55.9717 87.4804 53.789C85.3804 51.365 83.2764 48.9437 81.183 46.513C79.3324 44.3637 77.491 42.2063 75.655 40.045C75.0764 39.3637 74.5284 38.6557 73.967 37.9583C73.903 37.8797 73.8457 37.7957 73.7804 37.7183C73.3364 37.197 73.0897 37.2343 72.847 37.8677C71.111 42.4063 69.403 46.9557 67.6364 51.4823C64.6537 59.1277 61.6377 66.761 58.6297 74.3957C54.795 84.1277 50.9577 93.8583 47.1164 103.588C43.695 112.253 40.267 120.917 36.839 129.58C35.9604 131.801 35.067 134.016 34.1777 136.232C33.935 136.837 33.8884 136.85 33.4577 136.394C32.7404 135.633 32.0364 134.857 31.327 134.089C31.1204 133.866 30.9137 133.642 30.703 133.424C26.7884 129.364 22.867 125.309 18.959 121.241C16.2324 118.404 13.5097 115.564 10.811 112.7C7.71903 109.418 4.65637 106.109 1.57904 102.813C1.29104 102.504 0.999031 102.2 0.707031 101.894C0.288365 101.456 0.281704 101.372 0.677704 100.93C1.35504 100.177 2.03637 99.4277 2.71637 98.6757C5.16304 95.9703 7.60703 93.2637 10.0577 90.5623C10.4324 90.149 10.823 89.7517 11.2177 89.3583C11.6457 88.929 12.147 88.7743 12.739 88.9903C13.6537 89.3263 14.5657 89.673 15.4897 89.9837C17.6404 90.7077 19.7964 91.4143 21.951 92.1237C22.8924 92.4343 23.835 92.7383 24.7804 93.0397C25.355 93.2237 25.3657 93.221 25.6524 92.7023C27.451 89.4423 29.2497 86.1823 31.0444 82.921C36.343 73.2997 41.6404 63.677 46.9364 54.0543C51.567 45.6423 56.1977 37.2303 60.8284 28.8183C61.8364 26.9877 62.839 25.1557 63.8617 23.3343C64.0657 22.9717 64.059 22.645 63.9164 22.277C63.2257 20.489 62.5457 18.697 61.8604 16.9063C61.6924 16.4663 61.5297 16.025 61.3457 15.5917C61.255 15.377 61.183 15.3757 61.0124 15.5317C60.975 15.5663 60.939 15.6023 60.9084 15.6423C60.215 16.4997 59.2924 16.997 58.2657 17.3383C56.767 17.837 55.2684 18.333 53.775 18.8463C53.351 18.9917 53.003 18.997 52.6897 18.6143C52.4657 18.341 52.135 18.4117 51.8377 18.4837C51.3644 18.5997 50.8964 18.7317 50.427 18.861C48.7537 19.3223 47.4177 18.6957 46.275 17.5343C45.8697 17.1223 45.6764 16.601 45.8897 16.001C46.0644 15.5117 46.4284 15.2437 46.9044 15.0983C47.659 14.8677 48.4124 14.629 49.171 14.4103C51.3177 13.7903 53.467 13.1797 55.615 12.5663C56.2004 12.3997 56.2737 12.2957 56.3337 11.6917C56.4177 10.8543 56.5257 10.0197 56.6177 9.18366C56.663 8.76499 56.703 8.34499 56.7364 7.92366C56.787 7.27966 57.035 6.94233 57.6724 6.77166C58.239 6.61966 58.819 6.51566 59.3937 6.39166C59.5577 6.35566 59.7217 6.317 59.887 6.289C60.1017 6.25433 60.223 6.121 60.2457 5.921C60.2684 5.71566 60.1564 5.56632 59.9684 5.48499C59.7217 5.37699 59.467 5.28499 59.2257 5.16633C58.6977 4.90899 58.1537 4.67166 57.655 4.36633C56.687 3.773 56.1684 2.87833 56.0404 1.753C56.0057 1.453 55.9617 1.15299 55.9164 0.852993C55.8497 0.419659 55.895 0.323656 56.2697 0.136989C56.359 0.0929893 56.447 0.0489914 56.5364 0.00365804H57.651C57.9537 0.0903247 58.2564 0.174324 58.5577 0.26499C59.791 0.638324 60.9297 1.22766 62.0324 1.87566C62.459 2.12632 62.839 2.49299 63.1697 2.86899C63.7884 3.57166 64.067 4.39966 63.8844 5.349C63.8657 5.44233 63.8697 5.54899 63.8964 5.63965C64.023 6.07832 64.2004 6.49033 64.503 6.84766C64.9937 7.42366 65.6057 7.83566 66.2564 8.19966C67.0497 8.64366 67.8497 9.07966 68.6444 9.52099C69.9497 10.2477 71.1404 11.1183 72.1524 12.2317C72.651 12.7797 73.2164 13.2677 73.7497 13.785C74.039 14.0677 74.3297 14.3517 74.611 14.6423C75.7737 15.849 76.7964 17.169 77.775 18.525C80.6284 22.477 83.1924 26.6237 85.9177 30.661C86.2937 31.2183 86.087 31.853 85.467 32.1183C85.103 32.2743 84.7484 32.253 84.391 32.0943C83.3964 31.6543 82.5964 30.9663 81.9044 30.1437C81.1857 29.2877 80.607 28.337 80.0497 27.373C78.723 25.0837 77.4017 22.7917 76.0617 20.5103C75.8684 20.181 75.6177 19.8677 75.3364 19.6103C74.6284 18.9597 73.887 18.345 73.1577 17.717C72.7617 17.3757 72.3617 17.0383 71.9657 16.697C71.819 16.5703 71.6524 16.449 71.4777 16.569C71.4297 16.6037 71.487 16.8463 71.5444 16.9703C72.3737 18.7757 73.2124 20.5757 74.043 22.3783C74.2084 22.7383 74.447 23.0303 74.7297 23.3063C75.3684 23.9303 75.9977 24.5663 76.6097 25.217C77.5777 26.245 78.2004 27.4597 78.5257 28.8357C78.7764 29.8983 79.2377 30.8743 79.935 31.7143C80.343 32.2063 80.819 32.6423 81.275 33.093C84.7004 36.473 88.1364 39.8437 91.5564 43.2303C96.4524 48.0783 101.338 52.937 106.224 57.7943C110.646 62.1877 115.06 66.585 119.482 70.977C121.314 72.7983 123.139 74.6277 125.003 76.417C125.652 77.0423 126.131 77.741 126.451 78.5757C130.13 88.1863 133.814 97.7943 137.499 107.401C137.583 107.618 137.706 107.821 137.81 108.03V108.334Z" fill="#5EC0AF"/>
</svg>
