<svg width="135" height="139" viewBox="0 0 135 139" fill="none" xmlns="http://www.w3.org/2000/svg">
<path d="M73.5398 74.5389C73.6105 74.7349 73.6625 74.8775 73.7145 75.0202C73.8438 74.9482 73.9745 74.8762 74.1025 74.8042C74.1158 74.7962 74.1252 74.7829 74.1372 74.7722C74.6798 74.3229 75.2052 73.8495 75.7705 73.4309C76.9452 72.5602 78.2212 72.0402 79.7238 72.4069C80.0465 72.4855 80.3625 72.3975 80.6172 72.2082C80.9158 71.9882 81.2065 71.7389 81.4438 71.4549C81.7438 71.0949 81.9892 70.6895 82.2518 70.3002C82.5785 69.8149 82.9638 69.3975 83.4532 69.0602C83.9012 68.7509 84.3132 68.3815 84.7172 68.0135C84.8838 67.8629 85.0798 67.6495 84.9518 67.4002C84.8278 67.1602 84.5518 67.1735 84.3185 67.2042C83.9625 67.2509 83.6052 67.3095 83.2558 67.3975C82.0358 67.7002 80.8652 68.1269 79.7558 68.7362C78.2838 69.5429 76.8198 70.3575 75.5212 71.4335C74.8532 71.9869 74.2478 72.6055 73.8865 73.4069C73.7212 73.7722 73.6478 74.1775 73.5398 74.5389ZM67.9865 138.512C65.5598 138.487 63.1598 138.274 60.7865 137.78C58.8745 137.383 57.0238 136.794 55.2718 135.923C54.2025 135.391 53.1812 134.778 52.2385 134.038C52.0412 133.883 51.9358 133.712 51.8905 133.46C51.4865 131.222 51.1265 128.975 50.6398 126.755C49.9398 123.57 49.1438 120.404 48.3932 117.23C47.8905 115.108 47.3812 112.99 46.9012 110.863C46.6398 109.714 46.5118 108.542 46.5078 107.364C46.5038 106.342 46.5945 105.331 47.0478 104.382C47.5105 103.416 48.2065 102.679 49.1065 102.116C49.9105 101.612 50.7798 101.254 51.6785 100.971C53.2092 100.49 54.7785 100.183 56.3665 99.9682C57.5918 99.8015 58.8212 99.6469 60.0518 99.5215C61.0332 99.4215 62.0198 99.3695 63.0052 99.3002C64.2558 99.2122 65.5052 99.1242 66.7572 99.0469C67.1945 99.0189 67.6345 99.0295 68.0732 99.0109C68.4985 98.9935 68.5572 98.9535 68.6172 98.5255C68.7132 97.8429 68.7838 97.1575 68.8598 96.4722C68.9745 95.4442 69.0892 94.4162 69.1932 93.3869C69.2772 92.5602 69.3518 91.7335 69.4212 90.9055C69.5118 89.8442 69.5985 88.7815 69.6785 87.7202C69.7252 87.0949 69.7745 86.4682 69.7878 85.8429C69.8345 83.6002 69.8865 81.3575 69.8945 79.1162C69.8998 77.7522 69.8372 76.3882 69.7852 75.0255C69.7625 74.4469 69.6678 73.8709 69.6425 73.2922C69.6105 72.5722 69.6212 71.8509 69.6065 71.1295C69.5825 69.9149 69.4225 68.7202 68.9945 67.5762C68.1945 65.4402 66.7572 63.9029 64.6518 63.0042C63.5158 62.5189 62.3318 62.2335 61.0958 62.1829C59.0852 62.1002 57.1118 61.7335 55.1358 61.3895C53.6678 61.1362 52.1932 60.9149 50.6945 60.9735C50.0492 60.9989 49.4145 61.0935 48.8025 61.3095C47.3438 61.8255 46.6505 62.9135 46.5358 64.4069C46.5065 64.7855 46.4358 65.1455 46.3372 65.5109C46.1718 66.1149 46.0172 66.7255 45.9185 67.3429C45.7612 68.3269 46.0745 69.1375 46.9345 69.6962C47.5785 70.1149 48.2412 70.5069 48.8638 70.9562C49.2932 71.2669 49.6705 71.6509 50.0625 72.0095C50.3145 72.2375 50.4745 72.5309 50.5278 72.8629C50.6185 73.4189 50.7625 73.9829 50.7372 74.5375C50.6905 75.5189 51.0105 76.3535 51.5358 77.1402C51.8132 77.5575 52.1225 77.9549 52.3905 78.3775C52.5305 78.5989 52.6545 78.8455 52.7105 79.0975C52.8065 79.5255 52.6038 79.8442 52.1825 79.9589C51.9292 80.0295 51.6598 80.0629 51.3958 80.0709C50.8625 80.0882 50.3292 80.0655 49.7958 80.0815C49.5798 80.0869 49.3545 80.1202 49.1532 80.1935C48.7798 80.3309 48.6558 80.5962 48.7625 80.9802C48.8865 81.4255 49.1145 81.8202 49.4092 82.1709C50.2425 83.1602 50.5665 84.3069 50.4718 85.5815C50.4598 85.7522 50.4185 85.9229 50.3692 86.0882C50.0945 86.9962 49.3172 87.3229 48.3852 87.0655C48.2798 87.0375 48.1852 86.9735 48.0825 86.9375C47.4678 86.7229 46.9225 87.0109 46.7132 87.6295C46.4132 88.5202 46.1145 89.4135 45.7745 90.2895C45.5038 90.9855 45.0492 91.5655 44.4905 92.0669C43.8385 92.6522 43.0838 92.7095 42.2865 92.5109C41.8478 92.4015 41.5438 92.0962 41.3932 91.6762C41.2892 91.3842 41.2132 91.0709 41.1905 90.7629C41.1372 90.0122 41.1438 89.2575 41.0825 88.5082C41.0465 88.0749 40.9625 87.6389 40.8372 87.2229C40.6625 86.6455 40.2532 86.2589 39.6692 86.0949C39.3692 86.0095 39.0478 85.9082 38.7492 85.9375C37.9118 86.0202 37.3518 85.0695 37.4558 84.3735C37.5292 83.8789 37.7212 83.4495 38.1052 83.1042C38.4612 82.7829 38.4825 82.6055 38.2198 82.2149C38.0465 81.9562 37.8252 81.7282 37.6305 81.4829C37.4558 81.2629 37.2638 81.0509 37.1212 80.8095C36.7985 80.2655 36.8772 79.6362 37.2878 79.1495C37.4678 78.9349 37.6598 78.7202 37.7905 78.4749C38.0718 77.9482 37.9718 77.5189 37.4972 77.1469C37.2518 76.9535 36.9745 76.8015 36.7145 76.6255C36.3265 76.3615 35.9225 76.1162 35.5572 75.8242C34.9092 75.3055 34.7852 74.5935 35.1012 73.8242C35.7398 72.2669 36.8412 71.1869 38.5132 70.7949C39.1518 70.6455 39.8118 70.5882 40.4625 70.5002C41.1918 70.4015 41.9305 70.3522 42.6518 70.2162C44.0958 69.9415 44.9545 69.0282 45.3305 67.6295C45.5438 66.8349 45.6425 66.0282 45.6092 65.2082C45.5865 64.6482 45.6865 64.1175 45.8745 63.5949C45.9652 63.3442 46.0425 63.0882 46.0985 62.8282C46.2252 62.2415 45.9692 61.9402 45.3692 62.0122C44.8732 62.0722 44.3812 62.1842 43.8905 62.2869C41.9252 62.6989 39.9678 63.1482 38.0692 63.8149C36.7785 64.2695 35.5198 64.7935 34.4305 65.6522C33.4745 66.4055 32.9598 67.3709 32.9572 68.6109C32.9558 69.4335 33.0958 70.2349 33.2132 71.0402C33.3705 72.1335 33.4438 73.2242 33.1545 74.3082C32.8052 75.6162 32.1598 76.7389 31.1078 77.6095C30.9878 77.7095 30.8825 77.8269 30.7758 77.9429C30.5305 78.2069 30.2865 78.4722 30.0478 78.7429C29.4318 79.4415 28.7038 79.6749 27.8092 79.3255C27.4812 79.1975 27.3745 79.2402 27.1905 79.5549C27.0332 79.8242 26.8838 80.1109 26.8038 80.4082C26.5518 81.3469 26.3465 82.2975 26.0985 83.2375C25.9412 83.8269 25.7385 84.4042 25.5545 84.9869C25.5358 85.0469 25.5105 85.1055 25.4825 85.1602C24.9038 86.2655 24.1772 86.6669 22.8852 86.2389C22.7065 86.1802 22.5358 86.1002 22.3652 86.0189C22.2025 85.9415 22.0492 85.9522 21.9412 86.0922C21.7412 86.3495 21.5225 86.6042 21.3772 86.8922C21.0692 87.5042 21.0065 88.1842 20.9238 88.8522C20.8225 89.6615 20.7452 90.4735 20.6278 91.2789C20.5345 91.9175 20.3478 92.5322 20.0265 93.1015C19.6958 93.6869 19.2332 94.0949 18.5892 94.3149C17.4878 94.6909 16.3932 94.6842 15.3225 94.2495C14.2118 93.7989 13.4385 93.0149 13.1918 91.8042C13.1305 91.5002 13.1452 91.1815 13.1318 90.8682C13.1212 90.6029 13.1478 90.3322 13.1145 90.0695C13.0478 89.5615 12.7318 89.3935 12.3292 89.7002C11.8972 90.0295 11.4838 90.4069 11.1425 90.8282C9.9985 92.2415 8.89049 93.6842 7.76649 95.1149C6.92383 96.1895 6.0545 97.2389 5.05716 98.1775C4.43716 98.7602 3.73716 99.1175 2.86383 99.0909C1.78116 99.0575 1.05849 98.4909 0.810494 97.4349C0.639828 96.7082 0.662494 95.9682 0.754494 95.2362C0.975828 93.4455 1.56916 91.7615 2.27449 90.1109C2.68116 89.1562 3.14516 88.2309 3.7305 87.3735C3.94116 87.0682 4.2225 86.8122 4.47316 86.5335C4.4825 86.5229 4.49583 86.5135 4.50783 86.5029C5.14383 85.9402 5.1745 85.5455 4.62383 84.9029C4.4105 84.6522 4.1905 84.4055 3.9745 84.1575C3.45983 83.5682 3.34916 82.9335 3.5385 82.1509C3.85183 80.8629 4.61583 79.9429 5.64249 79.1922C6.17316 78.8029 6.72116 78.4349 7.27183 78.0749C7.52116 77.9135 7.68116 77.7109 7.79316 77.4362C8.08516 76.7162 8.47049 76.0575 9.10783 75.5775C9.47716 75.2989 9.88383 75.1095 10.3372 75.0149C10.5518 74.9695 10.7732 74.9309 10.9705 74.8429C11.3598 74.6695 11.4198 74.3269 11.1438 74.0055C10.9198 73.7429 10.6292 73.6095 10.2945 73.5402C9.6265 73.4015 9.00916 73.1402 8.45316 72.7402C8.4145 72.7122 8.37449 72.6869 8.33716 72.6589C7.58116 72.0922 7.46916 71.2895 8.10649 70.5882C8.43983 70.2215 8.8305 69.8842 9.2505 69.6229C10.5212 68.8335 11.9212 68.4082 13.4065 68.2215C14.3278 68.1055 15.2198 68.1415 16.0958 68.4535C16.1985 68.4895 16.3092 68.5122 16.4172 68.5162C16.8985 68.5335 17.1185 68.2575 16.9798 67.8002C16.9118 67.5762 16.8278 67.3535 16.7225 67.1442C16.4772 66.6549 16.5585 66.2242 16.8652 65.7815C17.5438 64.8029 18.4985 64.3029 19.6425 64.1029C20.8532 63.8909 22.0492 64.0322 23.2412 64.2482C24.9132 64.5509 26.5238 65.0802 28.1438 65.5735C28.9692 65.8242 29.8038 66.0469 30.6238 66.3109C31.1185 66.4695 31.5918 66.4242 32.0452 66.2295C32.5772 66.0015 33.1172 65.7695 33.5985 65.4562C34.6492 64.7709 35.6665 64.0335 36.6918 63.3122C36.9305 63.1442 36.9225 63.0535 36.6545 62.9149C34.9132 62.0215 33.1052 61.3162 31.1465 61.0842C30.6665 61.0282 30.1745 61.0495 29.6905 61.0775C29.4812 61.0895 29.2705 61.1949 29.0745 61.2869C28.2932 61.6509 27.5278 62.0535 26.7358 62.3922C25.6878 62.8389 24.5905 63.0895 23.4385 63.0402C22.6812 63.0069 21.9465 62.8522 21.2198 62.6509C20.8425 62.5469 20.4665 62.4335 20.0985 62.3002C19.8412 62.2069 19.6225 62.2375 19.3812 62.3575C18.5812 62.7549 17.7825 63.1589 16.9625 63.5109C16.0198 63.9149 15.0292 64.1735 14.0038 64.2349C12.5652 64.3189 11.3572 63.8282 10.4598 62.6669C10.2345 62.3749 10.1612 62.0522 10.2705 61.6922C10.3612 61.3922 10.4532 61.0909 10.5278 60.7869C10.6385 60.3375 10.5678 60.1589 10.1652 59.9309C9.70116 59.6682 9.21716 59.4389 8.75983 59.1669C8.46516 58.9922 8.18783 58.7829 7.92783 58.5602C7.46783 58.1655 7.29183 57.6362 7.30383 57.0455C7.3105 56.7442 7.28516 56.4615 7.1865 56.1709C6.96916 55.5349 7.1385 55.0415 7.67716 54.6389C8.0865 54.3335 8.56116 54.1655 9.0465 54.0309C10.1225 53.7295 11.2305 53.6149 12.3332 53.4629C12.8305 53.3949 13.3305 53.3415 13.8212 53.2429C14.1092 53.1855 14.4118 53.1002 14.6572 52.9455C15.3078 52.5362 15.9985 52.5202 16.6985 52.6909C17.1985 52.8135 17.6758 53.0269 18.1638 53.1975C18.6958 53.3842 19.2225 53.5882 19.7625 53.7495C20.4025 53.9389 20.9972 53.8149 21.5492 53.4295C22.0705 53.0669 22.6345 52.8202 23.2892 52.7882C24.1505 52.7469 24.8838 53.0482 25.5652 53.5375C26.3412 54.0962 26.9425 54.8202 27.4652 55.6055C27.8278 56.1535 28.1612 56.7255 28.4545 57.3135C28.7305 57.8709 29.0638 58.3509 29.5438 58.7602C30.3118 59.4162 31.1132 60.0109 32.0212 60.4562C33.3452 61.1042 34.7452 61.4922 36.2065 61.6549C36.8918 61.7309 37.5798 61.8055 38.2678 61.8135C39.0665 61.8229 39.8678 61.7949 40.6625 61.7202C41.9265 61.6002 43.1865 61.4442 44.4438 61.2709C46.0265 61.0522 47.6025 60.7722 49.1878 60.5709C50.4145 60.4149 51.6532 60.3549 52.8838 60.2229C53.6998 60.1362 54.5105 60.1975 55.3238 60.2389C55.5585 60.2509 55.7905 60.2962 56.0252 60.3055C56.1585 60.3109 56.2932 60.2775 56.4278 60.2615C56.3665 60.1442 56.3278 60.0055 56.2398 59.9149C55.7492 59.4069 55.2625 58.8949 54.7438 58.4162C53.8798 57.6175 52.9852 56.8535 51.9545 56.2669C51.4185 55.9615 50.8585 55.7282 50.2558 55.5935C49.1852 55.3522 48.2078 55.5642 47.4145 56.3162C46.7892 56.9082 46.0478 57.1362 45.2412 57.1975C44.2852 57.2709 43.3305 57.2109 42.3798 57.0669C41.9158 56.9962 41.4465 56.9655 40.9785 56.9175C40.6718 56.8869 40.3932 56.9602 40.1225 57.1122C39.7945 57.2962 39.4492 57.4495 39.1185 57.6282C37.9812 58.2455 36.7652 58.3335 35.5078 58.1962C34.4838 58.0842 33.5478 57.7669 32.7625 57.0815C31.4212 55.9122 31.1478 53.9882 32.1572 52.6829C32.5612 52.1615 33.0852 51.7962 33.6772 51.5269C33.9478 51.4042 34.2332 51.3135 34.5145 51.2149C34.8278 51.1029 34.8372 51.0802 34.7118 50.7842C34.6025 50.5269 34.4785 50.2695 34.4038 50.0002C34.2532 49.4549 34.4118 48.9669 34.8025 48.5775C35.0425 48.3375 35.3198 48.1149 35.6172 47.9535C36.6705 47.3802 37.8278 47.1735 39.0052 47.0629C39.2012 47.0442 39.4238 47.0629 39.6012 47.1402C40.7038 47.6242 41.8772 47.8469 43.0412 48.0936C44.9438 48.4962 46.8612 48.8362 48.7198 49.4175C49.5452 49.6749 50.3585 49.9682 51.0665 50.4816C51.2558 50.6189 51.4385 50.7722 51.5972 50.9429C52.0985 51.4802 52.1465 52.2722 51.7492 52.8975C51.5985 53.1349 51.4625 53.3855 51.3598 53.6455C51.1665 54.1335 51.2238 54.6175 51.5452 55.0269C51.7838 55.3322 52.0518 55.6375 52.3678 55.8535C53.0918 56.3469 53.8558 56.7842 54.6012 57.2482C54.9332 57.4562 55.2612 57.6709 55.5865 57.8895C56.0892 58.2269 56.4798 58.6642 56.7972 59.1829C57.3972 60.1642 58.3278 60.7055 59.4092 60.9709C60.2598 61.1802 61.1292 61.3162 61.9958 61.4535C63.0385 61.6202 64.0558 61.8415 65.0025 62.3442C65.4838 62.6015 65.9878 62.8295 66.5425 62.9082C67.0958 62.9869 67.3998 62.7269 67.3358 62.1749C67.3025 61.8815 67.2238 61.5882 67.1238 61.3095C66.5438 59.7015 65.9838 58.0855 65.3585 56.4949C64.1958 53.5375 62.5412 50.8629 60.5518 48.3909C59.5078 47.0935 58.3812 45.8709 57.1612 44.7389C55.8278 43.5015 54.4212 42.3469 52.9332 41.2949C51.1878 40.0615 49.3585 38.9642 47.4492 38.0082C45.9065 37.2335 44.3185 36.5589 42.6905 35.9802C42.2918 35.8389 41.9012 35.6696 41.5225 35.4842C40.1985 34.8349 38.8865 34.1616 37.5585 33.5189C36.2425 32.8829 34.8892 32.3402 33.4612 32.0056C32.2132 31.7136 30.9585 31.5949 29.6852 31.8576C28.3985 32.1229 27.2598 32.6842 26.2465 33.5175C26.0372 33.6895 25.9572 33.8802 26.0532 34.1349C26.2078 34.5456 26.3745 34.9522 26.5225 35.3642C26.6825 35.8069 26.8385 36.2509 26.9705 36.7015C27.0278 36.8922 27.0332 37.1029 27.0385 37.3055C27.0532 37.8255 26.8145 38.2109 26.3638 38.4589C25.4172 38.9815 24.4665 39.4962 23.5158 40.0122C22.6145 40.5029 21.6652 40.6869 20.6545 40.4429C20.3932 40.3802 20.1652 40.4495 19.9225 40.5322C19.0332 40.8375 18.1438 41.1442 17.2438 41.4149C16.8412 41.5362 16.4158 41.6122 15.9972 41.6402C15.6438 41.6642 15.2745 41.6282 14.9292 41.5469C14.4972 41.4469 14.2918 41.1389 14.2558 40.6909C14.2145 40.1789 14.3265 39.6935 14.5078 39.2189C14.8905 38.2162 15.4332 37.2976 15.9998 36.3936C16.4678 35.6496 16.9332 34.9042 17.4425 34.1882C17.7478 33.7576 18.1038 33.3495 18.4932 32.9922C19.0798 32.4535 19.8185 32.2376 20.6065 32.1896C21.3665 32.1416 22.1065 32.2909 22.8465 32.4269C23.6318 32.5722 24.4158 32.7309 25.2038 32.8655C25.3638 32.8922 25.5572 32.8775 25.7038 32.8109C26.6732 32.3695 27.6372 31.9135 28.5972 31.4535C28.7652 31.3722 28.9212 31.2589 29.0638 31.1375C29.4185 30.8335 29.4105 30.5109 29.0158 30.2535C28.7425 30.0749 28.4398 29.9295 28.1318 29.8189C27.4678 29.5815 26.7945 29.3642 26.1198 29.1602C25.6225 29.0109 25.1385 28.8482 24.6812 28.5922C23.8892 28.1469 23.0252 27.8989 22.1225 27.8682C21.3505 27.8415 20.5785 27.9709 19.8732 28.2909C19.0745 28.6522 18.2892 29.0509 17.5318 29.4909C16.5838 30.0429 15.6812 30.6722 14.7385 31.2335C13.7225 31.8375 12.6558 32.3389 11.4652 32.4869C10.7478 32.5762 10.0385 32.6135 9.33583 32.3242C8.68116 32.0562 7.97716 32.1149 7.29183 32.2175C6.27583 32.3695 5.3225 32.7362 4.37316 33.1082C3.86116 33.3095 3.3585 33.5295 2.84116 33.7135C2.47316 33.8442 2.09449 33.9616 1.71049 34.0229C1.29716 34.0896 1.08916 33.8882 1.08383 33.4669C1.0745 32.8536 1.22383 32.2789 1.61849 31.7976C1.93716 31.4109 2.2985 31.0602 2.61983 30.6762C2.8505 30.4015 3.05983 30.1069 3.25183 29.8042C3.4065 29.5602 3.43583 29.2909 3.37716 28.9922C3.23183 28.2602 3.4145 27.8709 4.0545 27.4975C4.35183 27.3242 4.67316 27.1922 4.98116 27.0375C5.42916 26.8135 5.8625 26.5549 6.32516 26.3682C7.07983 26.0615 7.83716 25.7482 8.61983 25.5335C10.2185 25.0935 11.8612 24.9549 13.5145 25.0509C15.4465 25.1629 17.3398 25.5242 19.2038 26.0389C21.6572 26.7149 24.0412 27.5936 26.4398 28.4322C27.4905 28.8002 28.5492 29.1469 29.6052 29.5029C29.6638 29.5229 29.7238 29.5469 29.7852 29.5549C29.8438 29.5629 29.9492 29.5695 29.9572 29.5482C29.9798 29.4855 29.9905 29.3962 29.9625 29.3376C29.6758 28.7536 29.2772 28.2469 28.8118 27.8015C28.0358 27.0589 27.1412 26.4829 26.1905 25.9855C24.4905 25.0935 22.6918 24.4362 20.9012 23.7642C19.3145 23.1695 17.7172 22.6002 16.2172 21.8015C15.7078 21.5295 15.2265 21.2002 14.7452 20.8789C14.5932 20.7762 14.4572 20.6322 14.3518 20.4802C14.0998 20.1202 14.1692 19.8469 14.5798 19.7069C14.9172 19.5909 15.2785 19.5069 15.6332 19.4895C16.9825 19.4189 18.3278 19.5002 19.6665 19.6975C21.4838 19.9655 23.2798 20.3362 25.0292 20.9029C26.1052 21.2509 27.1625 21.6442 28.0905 22.3202C28.5465 22.6522 28.8398 23.0495 28.8665 23.6429C28.8865 24.1109 28.9598 24.5802 29.0585 25.0389C29.4612 26.9069 30.4772 28.3989 31.9198 29.6215C33.3238 30.8122 34.9345 31.6642 36.6185 32.3615C38.7038 33.2255 40.8252 34.0055 42.9292 34.8255C43.2358 34.9442 43.5385 35.0762 43.8425 35.2042C44.3038 35.3975 44.7558 35.5776 45.2798 35.5976C45.8625 35.6202 46.3972 35.8922 46.9225 36.1415C48.2158 36.7575 49.4145 37.5309 50.5852 38.3495C53.0172 40.0482 55.3172 41.9202 57.6692 43.7242C58.6132 44.4495 59.5998 45.1202 60.5745 45.8042C60.7372 45.9189 60.9358 45.9975 61.1292 46.0522C61.3865 46.1242 61.5398 45.9842 61.4772 45.7256C61.4198 45.4856 61.3158 45.2522 61.2092 45.0269C60.9118 44.4029 60.5812 43.7962 60.3025 43.1655C59.4625 41.2695 58.8145 39.3029 58.1292 37.3482C57.3665 35.1735 56.5918 33.0002 55.7732 30.8455C55.1705 29.2615 54.4358 27.7322 53.5292 26.2935C52.8585 25.2295 52.1078 24.2295 51.1225 23.4229C50.1078 22.5895 48.9625 22.0895 47.6505 22.0175C46.8265 21.9722 46.0292 22.1575 45.2518 22.4175C44.0158 22.8282 42.9252 23.5042 41.8825 24.2669C41.5412 24.5162 41.2185 24.7909 40.8852 25.0522C40.4132 25.4215 39.9132 25.7442 39.3358 25.9269C38.6958 26.1282 38.0612 26.1282 37.4665 25.7962C37.0438 25.5602 36.6452 25.2789 36.2412 25.0109C35.9532 24.8202 35.6798 24.6082 35.3918 24.4189C34.8358 24.0522 34.2345 23.8056 33.5772 23.6682C32.7332 23.4922 31.8905 23.3002 31.1118 22.9069C30.9585 22.8296 30.8105 22.7402 30.6625 22.6509C29.9625 22.2242 29.9198 21.5136 30.2225 20.9296C30.3932 20.6002 30.6332 20.2975 30.8825 20.0202C31.7172 19.1002 32.6812 18.3175 33.6225 17.5135C33.7425 17.4109 33.8625 17.3109 33.9812 17.2082C34.5518 16.7082 35.1852 16.6189 35.8532 16.9709C36.1838 17.1442 36.4852 17.3762 36.7932 17.5922C37.1532 17.8429 37.4932 18.1242 37.8625 18.3602C38.3745 18.6869 38.8385 18.7189 39.2905 18.2069C39.3918 18.0909 39.5278 18.0015 39.6558 17.9135C40.1358 17.5855 40.6412 17.5469 41.1745 17.7776C41.6852 17.9989 42.1172 18.3295 42.5252 18.7042C43.1038 19.2335 43.6838 19.7602 44.2825 20.2669C44.7425 20.6575 45.2758 20.9229 45.8812 21.0202C45.9732 21.0362 46.0705 21.0642 46.1598 21.0482C46.7358 20.9455 47.2865 21.1002 47.8265 21.2456C48.6598 21.4682 49.4758 21.7522 50.3038 21.9935C50.6318 22.0895 50.9705 22.1789 51.3105 22.2069C51.7412 22.2429 51.9092 22.0575 51.9105 21.6215C51.9118 21.4655 51.8905 21.3082 51.8572 21.1549C51.6105 20.0149 51.1678 18.9389 50.7145 17.8722C50.5052 17.3816 50.0838 17.0402 49.6092 16.8216C49.0838 16.5789 48.5425 16.3336 47.9825 16.2202C47.0012 16.0216 46.0052 15.8722 45.0078 15.7922C43.6185 15.6802 42.2212 15.6682 40.8292 15.5789C39.8918 15.5189 38.9585 15.4095 38.0252 15.2962C37.7665 15.2655 37.5038 15.1722 37.2678 15.0562C36.7985 14.8242 36.6918 14.4162 37.0238 14.0109C37.3198 13.6495 37.6478 13.2949 38.0238 13.0216C38.8212 12.4429 39.6558 11.9122 40.4838 11.3749C40.8038 11.1682 40.8905 10.9922 40.7465 10.6322C40.6718 10.4442 40.5572 10.2709 40.4692 10.0869C40.2692 9.66821 40.3105 9.48022 40.6585 9.18822C41.0438 8.86689 41.0105 8.56288 40.5505 8.33621C40.3838 8.25354 40.1932 8.22155 40.0185 8.15355C39.6092 7.99489 39.1772 7.87488 38.8025 7.65755C38.0052 7.19888 37.9825 6.60022 38.7025 6.02822C39.5012 5.39355 40.4358 5.02421 41.3798 4.67888C41.7038 4.56022 42.0305 4.44155 42.3652 4.35888C42.6252 4.29488 42.7558 4.14688 42.8518 3.90821C43.1212 3.23888 43.3985 2.57355 43.6972 1.91755C43.8132 1.66422 43.9758 1.42421 44.1558 1.20954C44.4772 0.826875 44.8065 0.765555 45.2412 1.01889C45.5785 1.21489 45.8998 1.44421 46.2065 1.68688C47.1345 2.42288 48.1278 3.04421 49.2412 3.45888C50.2052 3.81621 51.2038 4.00554 52.2292 4.04021C52.6998 4.05621 53.1705 4.04155 53.6412 4.04555C54.2798 4.04955 54.7252 4.36956 54.8865 4.98155C54.9532 5.23489 54.9785 5.50822 54.9692 5.77088C54.9545 6.16155 54.8905 6.54955 54.8492 6.93888C54.8065 7.32821 54.8372 7.39754 55.2078 7.53754C55.6932 7.71888 56.0958 8.00689 56.3945 8.42689C56.7652 8.95222 57.2772 9.09887 57.8812 9.00554C58.1132 8.96954 58.3425 8.91488 58.5732 8.86421C58.7732 8.82155 58.9492 8.85354 59.0812 9.02021C59.3865 9.40021 59.6838 9.78822 59.8265 10.2629C59.9825 10.7842 59.9172 11.2655 59.4892 11.6389C59.2665 11.8335 59.0345 12.0375 58.7718 12.1602C57.9625 12.5375 57.1292 12.8655 56.3172 13.2375C55.5918 13.5709 54.8652 13.9082 54.1678 14.2949C53.5158 14.6549 52.9732 15.1589 52.5958 15.8149C52.0852 16.7042 52.0225 17.6509 52.2305 18.6375C52.4705 19.7749 52.9705 20.8029 53.5532 21.7922C53.9265 22.4255 54.3518 23.0309 54.7718 23.6362C54.9705 23.9229 55.0812 23.9242 55.2305 23.6002C55.5705 22.8602 55.9078 22.1149 56.1798 21.3482C56.8518 19.4535 57.3118 17.4976 57.7518 15.5389C57.7852 15.3856 57.8145 15.2309 57.8572 15.0802C58.0238 14.5109 58.3518 14.2255 58.9465 14.2215C59.3825 14.2175 59.8198 14.2829 60.2545 14.3389C61.0385 14.4389 61.4332 14.2509 61.7838 13.5495C62.2905 12.5362 62.8785 11.5749 63.5972 10.6962C64.0172 10.1842 64.4932 9.73222 65.0718 9.39755C66.1172 8.79355 67.2638 8.87222 68.1798 9.64556C68.4278 9.85489 68.6505 9.94155 68.9812 9.89222C70.0398 9.73489 71.1065 9.70556 72.1665 9.88689C72.5798 9.95622 72.9825 10.1016 73.3865 10.2202C73.4758 10.2469 73.5585 10.2989 73.6372 10.3496C74.2572 10.7336 74.3358 11.1896 73.8745 11.7482C73.4665 12.2416 72.9572 12.6029 72.3625 12.8376C71.7065 13.0962 71.0412 13.3349 70.3892 13.6029C70.0718 13.7322 69.7558 13.8815 69.4692 14.0682C68.9425 14.4109 68.8172 14.8815 69.0665 15.4575C69.1412 15.6295 69.2372 15.7962 69.3492 15.9455C69.5172 16.1682 69.5012 16.3562 69.3372 16.5816C68.8998 17.1776 68.3358 17.6136 67.6972 17.9669C66.4878 18.6376 65.1585 18.9455 63.8318 19.2709C62.5372 19.5869 61.2412 19.9029 59.9665 20.2855C58.9052 20.6042 57.9252 21.1229 57.1692 21.9589C56.0812 23.1642 55.6198 24.5895 55.8038 26.2095C55.9625 27.6175 56.4878 28.9095 57.0678 30.1842C57.5678 31.2829 58.0612 32.3855 58.5732 33.4789C59.6265 35.7269 60.4252 38.0722 61.2812 40.3962C61.7745 41.7362 62.2918 43.0682 63.0385 44.2949C63.1692 44.5082 63.3145 44.7149 63.4732 44.9082C63.5905 45.0522 63.7278 45.1895 63.8798 45.2962C64.3545 45.6269 64.8478 45.4509 65.0145 44.8936C65.4212 43.5336 65.9678 42.2349 66.6905 41.0149C67.2025 40.1522 67.7372 39.3015 68.2758 38.4549C68.6038 37.9389 68.9372 37.4229 69.3065 36.9362C69.5692 36.5922 69.6492 36.2135 69.7038 35.8042C69.8545 34.6549 69.9852 33.5002 70.1932 32.3615C70.4358 31.0309 70.8452 29.7429 71.4745 28.5375C72.3532 26.8549 73.6012 25.5335 75.2585 24.5829C76.0185 24.1482 76.7332 23.6309 77.4412 23.1136C77.7385 22.8949 77.9865 22.5962 78.2198 22.3055C78.5345 21.9135 78.7092 21.4495 78.6412 20.9455C78.5492 20.2682 78.8665 19.8656 79.4505 19.6309C80.0198 19.4016 80.5185 19.0922 80.9852 18.6789C81.8225 17.9389 82.8638 17.5562 83.9118 17.2175C85.6505 16.6549 87.4438 16.3735 89.2558 16.1669C91.1798 15.9469 93.1078 15.9495 95.0345 16.0122C96.3492 16.0549 97.6652 16.1949 98.9345 16.5775C99.4412 16.7295 99.9412 16.9349 100.402 17.1922C101.038 17.5456 101.122 18.1682 100.661 18.7402C100.322 19.1616 99.8785 19.4629 99.4225 19.7415C98.4812 20.3162 97.4652 20.7335 96.4452 21.1402C96.3158 21.1922 96.1718 21.2309 96.0345 21.2282C95.0452 21.2096 94.1572 21.5642 93.2918 21.9802C92.7265 22.2509 92.1852 22.5682 91.6345 22.8709C90.7665 23.3469 89.8918 23.8175 88.9052 23.9935C87.9185 24.1682 86.9345 24.1615 85.9932 23.7535C84.7705 23.2215 83.4905 22.9082 82.1638 22.8696C80.3105 22.8149 78.5492 23.2336 76.9265 24.1482C74.3092 25.6242 72.6145 27.8375 71.7718 30.7069C71.5972 31.3055 71.5078 31.9322 71.4078 32.5495C71.3798 32.7242 71.4305 32.9255 71.4905 33.0989C71.6305 33.4989 71.9358 33.6869 72.3398 33.5549C72.7532 33.4202 73.1652 33.2402 73.5278 33.0029C74.1425 32.6002 74.7252 32.1442 75.3105 31.6989C76.3345 30.9189 77.3198 30.0909 78.4345 29.4375C79.0358 29.0842 79.6705 28.8322 80.3812 28.7989C80.5332 28.7922 80.6905 28.7415 80.8305 28.6789C82.5318 27.9082 84.3252 27.4695 86.1625 27.1989C87.5905 26.9882 89.0265 26.8735 90.4678 26.8082C92.1118 26.7349 93.7572 26.6615 95.3945 26.5122C96.6412 26.3989 97.8785 26.1789 99.1158 25.9802C99.5305 25.9122 99.9385 25.7829 100.339 25.6469C103.4 24.6082 106.478 23.6322 109.616 22.8442C111.7 22.3215 113.801 21.8695 115.932 21.5815C117.064 21.4282 118.207 21.3442 119.347 21.2629C120.143 21.2056 120.945 21.1589 121.742 21.1895C123.802 21.2669 125.84 21.5055 127.765 22.3135C129.312 22.9615 130.657 23.8802 131.662 25.2495C131.764 25.3869 131.887 25.5122 132.009 25.6322C132.793 26.3935 133.414 27.2789 133.928 28.2362C134.125 28.6069 134.25 29.0175 134.388 29.4162C134.437 29.5602 134.445 29.7269 134.436 29.8802C134.413 30.2322 134.232 30.4282 133.879 30.4682C133.372 30.5229 132.868 30.4869 132.41 30.2429C131.648 29.8349 130.84 29.6615 129.978 29.5949C129.097 29.5282 128.226 29.6535 127.349 29.6242C126.24 29.5895 125.16 29.4749 124.176 28.8989C124.055 28.8282 123.869 28.8082 123.729 28.8376C123.238 28.9376 122.755 29.0722 122.268 29.1895C121.765 29.3109 121.264 29.4362 120.758 29.5402C120.121 29.6722 119.513 29.5309 118.921 29.2976C118.776 29.2402 118.628 29.1722 118.476 29.1575C117.308 29.0495 116.569 28.3495 116.029 27.3882C115.739 26.8682 115.504 26.3176 115.218 25.7949C115.001 25.3962 114.756 25.0122 114.502 24.6362C114.258 24.2762 113.911 24.0242 113.509 23.8722C113.297 23.7922 113.052 23.7509 112.828 23.7695C111.36 23.8922 109.893 24.0215 108.428 24.1762C106.76 24.3522 105.091 24.5309 103.473 25.0149C102.567 25.2855 101.688 25.6202 100.951 26.2375C100.761 26.3962 100.588 26.5842 100.437 26.7815C100.295 26.9709 100.335 27.0429 100.563 27.1042C101.063 27.2389 101.57 27.3455 102.06 27.5095C103.12 27.8669 104.094 28.4095 105.06 28.9655C106.078 29.5509 107.145 30.0616 108.048 30.8322C108.513 31.2296 108.985 31.6202 109.42 32.0482C110.605 33.2149 111.78 34.3922 112.946 35.5775C113.62 36.2629 114.404 36.7282 115.321 37.0349C117.332 37.7082 119.381 38.2349 121.426 38.7842C123.169 39.2522 124.901 39.7589 126.557 40.4882C128.277 41.2442 129.889 42.1735 131.199 43.5522C131.344 43.7042 131.501 43.8949 131.541 44.0909C131.705 44.8989 132.165 45.5216 132.709 46.0962C133.065 46.4722 133.445 46.8255 133.802 47.2002C134.006 47.4149 134.201 47.6442 134.374 47.8855C134.702 48.3429 134.909 48.8482 134.836 49.4242C134.812 49.6215 134.773 49.8322 134.677 50.0002C134.197 50.8335 133.943 51.7309 133.88 52.6829C133.835 53.3869 133.83 54.0922 133.778 54.7949C133.7 55.8882 133.752 56.9935 133.512 58.0722C133.404 58.5602 133.251 59.0402 133.103 59.5189C133.005 59.8322 132.883 60.1389 132.769 60.4482C132.72 60.5802 132.68 60.7175 132.612 60.8402C132.361 61.2975 131.995 61.4655 131.508 61.2762C131.147 61.1362 130.796 60.9402 130.485 60.7095C129.629 60.0749 128.805 59.3962 127.952 58.7575C127.108 58.1255 126.216 57.5669 125.19 57.2709C124.86 57.1749 124.521 57.1069 124.181 57.0535C123.944 57.0162 123.78 56.9242 123.67 56.7002C123.333 56.0082 122.765 55.6055 122.029 55.3989C121.519 55.2562 121.018 55.0695 120.514 54.8975C120.19 54.7869 120.084 54.5575 120.069 54.2135C120.037 53.4949 119.996 52.7722 119.881 52.0629C119.684 50.8309 119.282 50.5029 118.037 50.4282C116.89 50.3602 115.819 50.0482 114.821 49.4709C114.559 49.3175 114.402 49.1162 114.301 48.8362C113.964 47.9095 113.97 46.9522 114.097 46.0002C114.25 44.8509 114.483 43.7122 114.656 42.5655C114.803 41.6015 114.845 40.6349 114.63 39.6682C114.434 38.7856 114.041 38.0095 113.425 37.3615C112.345 36.2242 111.261 35.0895 110.14 33.9922C109.043 32.9189 107.913 31.8735 106.665 30.9695C105.632 30.2215 104.557 29.5495 103.323 29.1749C102.777 29.0095 102.222 28.9229 101.652 28.9642C101.373 28.9856 101.329 29.0535 101.397 29.3295C101.745 30.7455 102.085 32.1629 102.448 33.5749C102.572 34.0589 102.732 34.5376 102.91 35.0056C103.232 35.8522 103.72 36.5989 104.364 37.2362C104.576 37.4455 104.682 37.6709 104.724 37.9709C104.78 38.3882 104.921 38.7935 104.997 39.2095C105.06 39.5482 105.106 39.8935 105.106 40.2349C105.106 40.4629 105.045 40.7042 104.953 40.9149C104.795 41.2829 104.832 41.6189 105.024 41.9496C105.125 42.1256 105.241 42.2949 105.352 42.4655C105.777 43.1229 105.732 43.8135 105.226 44.4162C104.922 44.7762 104.541 45.0162 104.087 45.1229C103.583 45.2415 103.073 45.3295 102.567 45.4389C102.184 45.5202 101.802 45.6095 101.422 45.7042C100.817 45.8522 100.409 46.2349 100.132 46.7842C99.9492 47.1482 99.7438 47.5016 99.5425 47.8549C99.3692 48.1589 99.1012 48.3522 98.7598 48.4042C98.6225 48.4242 98.4225 48.3935 98.3318 48.3029C97.4212 47.3975 96.2532 46.9829 95.0905 46.5455C94.6958 46.3975 94.3092 46.2202 93.9345 46.0242C93.4185 45.7562 92.9972 45.3695 92.8158 44.8042C92.5492 43.9709 92.2132 43.1576 92.0798 42.2802C91.8838 40.9936 92.2558 39.8949 93.1118 38.9429C93.5998 38.4002 94.1825 37.9735 94.8078 37.6082C95.9185 36.9615 97.0545 36.3549 98.1518 35.6856C98.6958 35.3522 99.2145 34.9562 99.6798 34.5216C100.657 33.6082 101.018 32.4695 100.761 31.1442C100.621 30.4282 100.34 29.7669 100.028 29.1136C99.9198 28.8856 99.7252 28.7655 99.5078 28.6615C98.3972 28.1282 97.2292 27.7762 96.0198 27.5562C95.0158 27.3749 94.0052 27.2749 92.9812 27.2535C87.9012 27.1469 83.1705 28.4322 78.7212 30.8229C76.8025 31.8535 75.0798 33.1562 73.6145 34.7842C73.1132 35.3429 73.1092 35.3322 73.7785 35.6856C74.9385 36.2949 75.9878 37.0562 76.9385 37.9589C77.9198 38.8909 78.8132 39.9002 79.5812 41.0135C79.8598 41.4162 80.2238 41.6642 80.6758 41.7655C81.1478 41.8709 81.6332 41.9562 82.1145 41.9695C83.1812 41.9975 84.2478 41.9722 85.3145 41.9762C85.8678 41.9789 86.4078 42.0735 86.9252 42.2762C88.0105 42.7029 88.5465 43.5722 88.7612 44.6602C88.8145 44.9242 88.7465 45.2242 88.6812 45.4949C88.5332 46.1095 88.6438 46.6389 89.0825 47.1069C89.1812 47.2122 89.2585 47.3749 89.2718 47.5189C89.3465 48.3669 89.7518 49.0642 90.2252 49.7402C90.5852 50.2535 90.9545 50.7629 91.2732 51.3002C91.6225 51.8896 91.7532 52.5242 91.4612 53.1909C91.2958 53.5709 91.0545 53.8282 90.6238 53.9362C89.8158 54.1402 89.1438 54.6042 88.5372 55.1655C87.9012 55.7549 87.3678 56.4322 86.8518 57.1242C86.5145 57.5775 86.1878 58.0389 85.8372 58.4802C85.6518 58.7109 85.4438 58.9322 85.2118 59.1149C84.7572 59.4749 84.3838 59.4229 84.0478 58.9535C83.8585 58.6882 83.6812 58.3989 83.5678 58.0935C83.3238 57.4335 83.0825 56.7655 82.9238 56.0802C82.8265 55.6562 82.5998 55.4615 82.2252 55.3615C82.1038 55.3295 81.9718 55.3362 81.8558 55.2949C81.6812 55.2335 81.4812 55.1829 81.3545 55.0629C80.8998 54.6229 80.3438 54.3829 79.7625 54.1815C79.4065 54.0589 79.0478 53.9455 78.6905 53.8242C78.5278 53.7682 78.3652 53.7095 78.2065 53.6429C77.3945 53.3029 77.0025 52.6775 76.9652 51.8122C76.9345 51.1229 76.8678 51.0175 76.2198 50.8109C75.8465 50.6909 75.4585 50.6202 75.0812 50.5162C74.7945 50.4362 74.5052 50.3562 74.2318 50.2415C73.7158 50.0255 73.4185 49.6202 73.4798 49.0602C73.5625 48.3015 73.6225 47.5295 73.9572 46.8215C74.1945 46.3215 74.5025 45.8682 74.8945 45.4762C75.5385 44.8335 76.1945 44.2029 76.8252 43.5469C77.1065 43.2549 77.3665 42.9335 77.5878 42.5949C77.7638 42.3229 77.8852 42.0095 78.0012 41.7042C78.1625 41.2762 78.0918 40.8989 77.7865 40.5269C77.0612 39.6415 76.3692 38.7269 75.5225 37.9482C74.9665 37.4362 74.3612 36.9909 73.6598 36.6922C72.9998 36.4122 72.3238 36.3389 71.6452 36.5962C71.4358 36.6749 71.2118 36.8109 71.0785 36.9855C69.6678 38.8335 68.3558 40.7495 67.3318 42.8429C66.7158 44.0989 66.2158 45.4029 65.9705 46.7895C65.8105 47.6909 65.7692 48.5922 65.9052 49.5042C66.0012 50.1362 66.2278 50.7109 66.5318 51.2655C67.4665 52.9775 68.1905 54.7815 68.8478 56.6135C69.8932 59.5269 70.6772 62.5149 71.4612 65.5042C71.9598 67.4002 72.4798 69.2909 72.9932 71.1829C73.1438 71.7362 73.1905 71.7415 73.6585 71.3762C77.0558 68.7269 80.8345 66.8975 85.0878 66.1189C86.0252 65.9469 86.9838 65.8922 87.9332 65.7842C87.9798 65.7789 88.0265 65.7815 88.0732 65.7749C88.7905 65.6855 88.7052 65.6482 88.7412 65.0722C88.7985 64.1655 88.8292 63.2469 89.2265 62.4042C89.3985 62.0375 89.5745 61.6495 89.8412 61.3562C90.5438 60.5815 90.7425 59.6575 90.7865 58.6642C90.8118 58.0855 90.8238 57.5055 90.8745 56.9295C90.9798 55.7589 91.6692 54.9842 92.6358 54.4135C93.3932 53.9655 94.2345 53.7615 95.0945 53.6642C95.5545 53.6135 95.8705 53.4362 96.1332 53.0549C96.7585 52.1455 97.5038 51.3335 98.4065 50.6935C98.8878 50.3509 99.4158 50.0575 99.9572 49.8189C100.544 49.5615 101.16 49.3615 101.78 49.1935C103.152 48.8242 104.452 49.0415 105.67 49.7669C106.322 50.1562 106.902 50.6376 107.402 51.2056C107.682 51.5256 107.976 51.6202 108.397 51.5309C109.585 51.2749 110.794 51.2309 112.002 51.3082C112.981 51.3695 113.932 51.5909 114.767 52.1389C115.091 52.3522 115.374 52.6282 115.664 52.8909C115.893 53.0989 115.935 53.3735 115.879 53.6709C115.763 54.2895 115.384 54.7229 114.849 55.0002C114.393 55.2362 113.9 55.4055 113.419 55.5922C113.185 55.6829 112.937 55.7349 112.702 55.8242C112.396 55.9402 112.302 56.0682 112.33 56.3949C112.349 56.6095 112.41 56.8269 112.486 57.0295C112.596 57.3229 112.737 57.6042 112.861 57.8922C112.923 58.0362 112.984 58.1815 113.027 58.3322C113.213 58.9989 113.02 59.3855 112.374 59.6269C111.618 59.9109 110.852 60.0629 110.028 59.9642C109.065 59.8482 108.093 59.8069 107.124 59.7455C106.923 59.7335 106.716 59.7629 106.517 59.8042C106.054 59.9002 105.728 60.1642 105.567 60.6215C105.301 61.3722 104.77 61.8589 104.013 62.0669C103.594 62.1829 103.154 62.2602 102.721 62.2842C101.153 62.3722 99.6332 62.0495 98.1198 61.6829C97.4652 61.5242 96.8092 61.3682 96.1545 61.2042C95.9732 61.1589 95.7918 61.1029 95.6198 61.0309C94.2398 60.4455 92.9238 60.6042 91.6572 61.3575C91.0505 61.7189 90.5852 62.2095 90.2532 62.8415C89.8678 63.5762 89.8425 64.3375 89.9972 65.1282C90.0625 65.4655 90.2292 65.7029 90.5585 65.8202C91.1638 66.0349 91.7612 66.2722 92.3745 66.4615C93.1532 66.7015 93.9465 66.8949 94.7292 67.1229C95.4118 67.3215 96.0438 67.6335 96.6492 68.0029C97.2798 68.3882 97.9972 68.5069 98.7105 68.6109C100.14 68.8175 101.581 68.8775 103.024 68.9002C104.309 68.9215 105.596 68.9295 106.879 69.0109C108.351 69.1042 109.813 69.2829 111.2 69.8495C113.12 70.6349 114.05 72.0402 114.096 74.1122C114.109 74.7535 114.228 75.2149 114.768 75.6282C115.588 76.2549 116.084 77.1375 116.316 78.1469C116.597 79.3709 116.392 80.4802 115.482 81.4082C115.198 81.6989 114.866 81.8842 114.465 81.9522C114.11 82.0135 113.752 82.0669 113.405 82.1615C112.824 82.3189 112.736 82.5202 112.768 83.1162C112.835 84.3215 112.909 85.5322 112.6 86.7202C112.449 87.3015 112.217 87.8442 111.868 88.3402C111.134 89.3789 110.12 89.6669 108.929 89.4389C107.842 89.2309 106.959 88.6535 106.251 87.8082C105.84 87.3189 105.57 87.2069 104.978 87.4509C104.505 87.6469 104.071 87.9389 103.621 88.1909C103.348 88.3442 103.087 88.5215 102.807 88.6602C101.919 89.1002 101.045 89.0415 100.208 88.5255C99.8478 88.3042 99.5025 88.0562 99.1652 87.8015C98.4278 87.2402 97.9932 86.5122 97.9492 85.5669C97.9252 85.0642 97.7732 84.9095 97.2772 84.8202C97.1385 84.7962 96.9945 84.7829 96.8558 84.7909C96.1678 84.8295 95.4732 84.8335 94.7945 84.9362C94.0852 85.0429 93.4705 84.9189 92.8758 84.5215C92.0652 83.9789 91.4945 83.2802 91.3732 82.2962C91.2812 81.5602 91.3518 80.8282 91.5732 80.1095C91.9478 78.9015 92.4905 77.7695 93.1772 76.7162C94.1252 75.2562 95.1238 73.8295 96.0958 72.3842C96.5238 71.7469 96.9465 71.1055 97.3518 70.4522C97.5785 70.0882 97.5585 70.0789 97.2745 69.7669C96.0332 68.4002 94.4625 67.6415 92.6758 67.2869C90.5652 66.8682 88.5185 67.0855 86.5692 68.0015C85.9932 68.2709 85.4545 68.6429 84.9465 69.0309C84.3758 69.4682 83.8558 69.9722 83.3212 70.4562C83.1825 70.5815 83.0598 70.7282 82.9505 70.8802C82.4385 71.5882 82.4532 72.1415 83.0585 72.7802C83.4332 73.1775 83.8385 73.5615 84.2838 73.8735C85.2772 74.5709 85.5358 76.1122 84.8412 77.0135C84.6812 77.2189 84.6852 77.4295 84.7718 77.6322C84.9865 78.1362 85.2225 78.6295 85.4612 79.1229C85.5772 79.3629 85.7185 79.5895 85.8438 79.8255C86.1545 80.4055 86.3078 81.0175 86.2638 81.6815C86.2412 82.0242 86.2585 82.3709 86.2585 82.7162C86.2598 83.4349 85.9638 84.0095 85.3425 84.3575C84.8798 84.6149 84.3718 84.7909 83.8798 84.9949C83.5905 85.1135 83.2958 85.2202 82.9985 85.3215C82.7252 85.4135 82.6052 85.5935 82.5905 85.8815C82.5292 87.1015 82.1132 88.2122 81.4798 89.2402C81.2518 89.6095 80.9665 89.9602 80.6452 90.2495C79.6212 91.1749 78.4558 90.6762 77.8785 89.6935C77.8052 89.5695 77.8132 89.3935 77.7958 89.2389C77.7612 88.9122 77.7425 88.5842 77.7052 88.2575C77.6385 87.6882 77.3545 87.2309 76.8545 86.9735C75.8852 86.4762 75.4225 85.6469 75.2198 84.6335C75.1198 84.1269 75.0478 83.6135 74.9838 83.1002C74.9572 82.8895 74.9065 82.7082 74.7572 82.5495C74.4012 82.1709 74.3372 81.7175 74.4785 81.2349C74.5665 80.9349 74.6892 80.6455 74.7918 80.3495C74.9052 80.0229 75.0305 79.7002 75.1158 79.3669C75.2092 79.0095 75.1278 78.6722 74.8412 78.4242C74.5918 78.2109 74.3345 77.9975 74.0505 77.8389C73.6505 77.6149 73.3972 77.7335 73.2612 78.1695C73.1078 78.6602 73.1278 79.1709 73.2038 79.6629C73.6358 82.4682 73.5798 85.2922 73.5265 88.1135C73.5025 89.3975 73.4198 90.6815 73.3398 91.9642C73.2278 93.7335 73.1492 95.5029 73.1812 97.2749C73.1892 97.7295 73.2292 98.1829 73.2678 98.6362C73.2905 98.9149 73.3638 98.9749 73.6518 99.0095C73.6985 99.0149 73.7452 99.0149 73.7932 99.0162C74.9518 99.0509 76.1132 99.0655 77.2718 99.1269C78.5385 99.1935 79.8038 99.2962 81.0692 99.3962C82.3678 99.4975 83.6532 99.6935 84.9252 99.9775C85.9998 100.216 87.0465 100.542 88.0452 101.012C90.0238 101.946 91.4252 103.378 91.9345 105.562C92.1932 106.675 92.1585 107.808 92.0332 108.932C91.8598 110.484 91.3545 111.954 90.8825 113.435C90.5452 114.491 90.3132 115.59 90.1345 116.686C89.8678 118.324 89.6905 119.978 89.4705 121.624C89.2465 123.303 89.0518 124.986 88.7798 126.655C88.4398 128.736 87.8932 130.763 86.9398 132.662C86.4665 133.608 85.8572 134.46 85.1585 135.251C84.9012 135.542 84.5985 135.719 84.2212 135.838C81.8238 136.591 79.3865 137.183 76.9145 137.628C75.3092 137.918 73.6972 138.159 72.0678 138.267C70.7078 138.356 69.3478 138.431 67.9865 138.512Z" fill="#5EC0AF"/>
</svg>
