<svg width="126" height="126" viewBox="0 0 126 126" fill="none" xmlns="http://www.w3.org/2000/svg">
<path d="M82.8096 12.8637C82.8056 12.8144 82.8082 12.7984 82.8042 12.7851C82.7376 12.5544 82.2189 12.2597 81.9869 12.3211C81.8602 12.3531 81.7936 12.5264 81.8976 12.5864C82.1429 12.729 82.4082 12.8424 82.6709 12.9517C82.7029 12.9651 82.7722 12.889 82.8096 12.8637ZM96.1816 33.5264C96.0149 33.5197 95.9389 33.5984 95.9082 33.7251C95.8602 33.9277 95.9162 34.1197 96.0562 34.253C96.3509 34.5344 96.6589 34.8051 96.9829 35.0517C97.1602 35.1877 97.3776 35.0584 97.3829 34.8331C97.3856 34.7357 97.3656 34.6224 97.3162 34.5411C97.0722 34.1317 96.7389 33.8091 96.3216 33.5757C96.2722 33.5477 96.2136 33.537 96.1816 33.5264ZM90.3149 71.209C93.1936 71.1624 95.9389 71.5757 98.6069 72.4611C100.908 73.2264 103.036 74.3304 104.956 75.8224C105.003 75.8584 105.047 75.8984 105.098 75.9277C105.208 75.9944 105.303 75.9757 105.335 75.8437C105.395 75.6024 105.447 75.3584 105.49 75.1131C105.662 74.1464 105.515 73.1824 105.456 72.2184C105.402 71.2957 105.342 70.3797 105.602 69.4664C105.691 69.1544 105.672 68.7957 105.63 68.4677C105.58 68.0797 105.591 67.7144 105.7 67.3384C105.782 67.0597 105.82 66.7664 105.856 66.477C105.883 66.2624 105.788 66.0824 105.642 65.921C105.276 65.517 104.822 65.3157 104.282 65.2971C103.856 65.2824 103.419 65.3264 103.01 65.2397C102.455 65.1224 101.916 64.9171 101.378 64.7251C100.978 64.5824 100.582 64.4211 100.202 64.2331C99.8882 64.0784 99.5722 63.9077 99.3056 63.6864C98.5376 63.0517 97.7549 62.429 97.0789 61.6904C96.8909 61.485 96.7082 61.2744 96.5416 61.0517C96.4469 60.925 96.3616 60.7757 96.3242 60.625C96.1282 59.8424 95.7322 59.1597 95.2896 58.4984C94.9136 57.9384 94.5056 57.3944 94.2669 56.757C94.1656 56.4864 94.0682 56.1917 94.0669 55.9091C94.0642 55.2704 93.8882 54.6864 93.5989 54.1384C92.9416 52.8957 92.0282 51.8784 90.8309 51.1277C90.3922 50.8517 89.9189 50.6664 89.4042 50.573C88.9016 50.4824 88.4429 50.5811 88.0189 50.8531C87.8202 50.9797 87.6296 51.117 87.4349 51.2464C86.9802 51.5477 86.5349 51.5491 86.0856 51.2237C85.7496 50.9797 85.4589 50.6984 85.2189 50.357C84.8602 49.8491 84.8642 49.0544 85.3869 48.545C85.7736 48.1677 86.2162 47.8944 86.7162 47.7091C87.9549 47.2491 89.2216 47.0904 90.5149 47.441C90.8349 47.529 91.1456 47.6784 91.4336 47.8464C91.6789 47.9891 91.9242 48.1011 92.2002 48.1611C92.7469 48.2797 93.2709 48.461 93.7789 48.701C94.7082 49.1397 95.3856 49.8317 95.8202 50.7464C96.0842 51.301 96.2882 51.8864 96.4909 52.4664C96.7922 53.3251 97.0282 54.2104 97.4722 55.0104C98.2336 56.3811 98.9202 57.7971 99.9136 59.0277C100.663 59.9544 101.49 60.8051 102.399 61.5757C102.478 61.6411 102.558 61.7131 102.65 61.7517C103.324 62.0451 104.011 62.3104 104.746 62.3957C105.919 62.533 106.383 61.8677 106.363 60.8944C106.351 60.3064 106.227 59.7277 106.042 59.1691C105.998 59.0357 105.91 58.9051 105.81 58.8051C105.468 58.4664 105.242 58.0611 105.063 57.6224C104.882 57.1744 104.719 56.7157 104.504 56.2837C104.368 56.0144 104.17 55.7691 103.966 55.5411C103.263 54.7544 102.542 53.9837 101.836 53.1984C101.287 52.5877 100.758 51.9597 100.208 51.349C99.3856 50.433 98.5709 49.5077 97.7176 48.6184C96.9162 47.7837 96.0842 46.9744 95.2376 46.1837C94.4882 45.4837 93.7162 44.8037 92.9229 44.1544C92.2189 43.5784 91.4776 43.0504 90.7416 42.5157C90.5802 42.397 90.3776 42.3304 90.1869 42.2544C89.3416 41.9184 88.4909 41.5957 87.6496 41.2517C86.9402 40.9624 86.2749 40.589 85.6442 40.1557C84.9456 39.6744 84.7789 39.0237 85.1936 38.2824C85.5109 37.7157 85.9909 37.345 86.6549 37.2704C87.0216 37.229 87.3696 37.3344 87.6349 37.581C88.1749 38.085 88.8362 38.217 89.5336 38.2864C89.8976 38.3237 90.2602 38.3824 90.6176 38.4611C90.9669 38.5384 91.2629 38.7237 91.5269 38.973C91.7269 39.1637 91.9442 39.3437 92.1749 39.4957C93.7189 40.5144 95.2776 41.5091 96.8122 42.5397C97.9949 43.3344 99.1042 44.2237 100.1 45.2504C100.624 45.7891 101.092 46.3704 101.528 46.9784C101.639 47.1317 101.7 47.3171 101.791 47.4837C102.031 47.9197 102.251 48.3691 102.526 48.7824C102.667 48.9931 102.886 49.1744 103.107 49.3037C103.404 49.4784 103.631 49.3384 103.647 48.9957C103.655 48.7931 103.638 48.5824 103.587 48.3877C103.508 48.0904 103.414 47.793 103.284 47.5157C102.66 46.1877 102.04 44.857 101.383 43.5464C101.108 42.9984 100.762 42.4824 100.412 41.9757C99.8709 41.1877 99.1269 40.6277 98.3136 40.1344C96.2496 38.8811 94.6709 37.193 93.7816 34.9157C93.7069 34.7264 93.6469 34.5264 93.6189 34.325C93.5896 34.117 93.5029 33.9597 93.3282 33.8597C93.0349 33.693 92.7456 33.5131 92.4349 33.3891C91.7522 33.1171 91.0562 32.8837 90.3282 32.7611C90.2282 32.7437 90.1256 32.7237 90.0242 32.7197C89.2776 32.6864 88.5296 32.6677 87.7829 32.6251C87.4042 32.6024 87.0229 32.5597 86.6482 32.4971C85.6096 32.3224 84.8949 31.6624 84.2762 30.8704C84.1496 30.7091 84.0496 30.5277 83.9256 30.3637C83.3949 29.6624 83.6389 28.9477 84.3709 28.5131C84.7362 28.2957 85.1202 28.2544 85.4936 28.4997C85.6882 28.6277 85.8789 28.7664 86.0536 28.9211C86.3936 29.2224 86.7296 29.5291 87.0496 29.8517C87.3629 30.1677 87.7389 30.261 88.1402 30.141C88.6269 29.9957 89.0922 30.0304 89.5696 30.1531C90.0576 30.2784 90.5402 30.3251 91.0376 30.1317C91.3429 30.0131 91.6802 30.0584 91.9696 30.2424C92.1802 30.3744 92.3829 30.5211 92.5749 30.6797C93.0816 31.0984 93.6656 31.3011 94.3176 31.3184C94.6256 31.3277 94.9336 31.3277 95.2416 31.3117C95.4842 31.2984 95.5402 31.2237 95.5576 30.9797C95.5776 30.6877 95.4842 30.425 95.3176 30.1957C95.0842 29.8757 94.8362 29.5677 94.5869 29.2597C94.4002 29.0291 94.2336 28.8024 94.2122 28.4851C94.1909 28.1917 94.0122 28.0037 93.7136 27.9477C93.5549 27.9184 93.3962 27.8904 93.2376 27.8624C93.0189 27.825 92.8762 27.7091 92.7816 27.4984C92.4936 26.8584 92.1989 26.6984 91.5002 26.7944C90.9629 26.8691 90.4282 26.9611 89.8922 27.0437C89.3789 27.1237 88.9109 27.0144 88.4536 26.7664C87.7296 26.3744 87.0109 25.9757 86.4002 25.417C85.9349 24.9917 85.4882 24.545 85.0402 24.1024C84.9589 24.021 84.9029 23.9131 84.8442 23.8117C84.3176 22.9144 83.5336 22.361 82.5309 22.1237C81.8162 21.9544 81.2029 22.1211 80.7269 22.7251C80.3656 23.1851 79.7149 23.1237 79.3989 22.6237C79.0482 22.069 79.1442 21.497 79.6869 21.1197C79.9362 20.9464 80.2162 20.7971 80.5042 20.6997C81.6069 20.3251 82.7309 20.2157 83.8816 20.4757C84.3016 20.5704 84.6389 20.7677 84.9122 21.0997C85.2749 21.5424 85.6616 21.9637 86.0242 22.4064C86.9136 23.4931 87.9856 24.3451 89.2669 24.9144C89.7202 25.1157 90.2029 25.2624 90.6842 25.3771C90.9136 25.4317 91.1869 25.3997 91.4162 25.3291C91.8709 25.1904 92.1149 24.6784 91.9616 24.2291C91.7722 23.6704 91.4842 23.1891 90.8816 22.9784C90.7616 22.9357 90.6536 22.8451 90.5576 22.7571C89.4509 21.7571 88.2136 20.9477 86.8962 20.2571C85.3202 19.4304 83.6696 18.7797 81.9962 18.1811C81.7482 18.0917 81.5029 17.985 81.2482 17.9197C80.9522 17.8437 80.6496 17.7717 80.3456 17.7557C79.8482 17.7277 79.3482 17.7597 78.8496 17.7397C78.5736 17.7291 78.2976 17.6744 78.0256 17.6184C77.8042 17.5731 77.6256 17.4424 77.4869 17.2611C77.2776 16.9851 77.2682 16.6971 77.4576 16.4051C77.6522 16.1051 77.9402 15.945 78.2722 15.8424C78.8882 15.6544 79.4976 15.7651 80.1002 15.8917C80.9469 16.0691 81.7842 16.2864 82.6309 16.4664C82.9442 16.5331 83.2722 16.5317 83.5896 16.5797C84.6002 16.7291 85.4842 17.1811 86.3282 17.7277C86.8829 18.0864 87.4349 18.4504 87.9936 18.8011C88.0949 18.8637 88.2296 18.8744 88.3482 18.9104C88.3322 18.7864 88.3456 18.6477 88.2949 18.5411C88.0442 18.0131 87.6549 17.5931 87.1989 17.2384C86.6669 16.8251 86.0989 16.4531 85.5856 16.0171C85.1189 15.6211 84.6362 15.3397 84.0162 15.2264C83.3189 15.0984 82.7189 14.6931 82.1109 14.3344C81.6149 14.0424 81.1456 13.7237 80.8162 13.2344C80.6762 13.0264 80.4709 12.9197 80.2189 12.917C79.8069 12.9144 79.3936 12.8851 78.9869 12.9224C78.6842 12.9504 78.3869 13.0531 78.0949 13.1451C77.8429 13.2237 77.6042 13.3397 77.3549 13.4291C76.5042 13.7344 75.6776 13.3384 75.2202 12.7837C75.1842 12.7384 75.1509 12.6891 75.1242 12.6371C75.0189 12.4317 74.9642 12.2091 75.0882 12.0064C75.2189 11.7957 75.4576 11.7637 75.6789 11.8011C75.9362 11.8464 76.1989 11.9104 76.4389 12.013C76.7869 12.161 77.1376 12.1891 77.4616 12.0211C78.3389 11.5691 79.2669 11.4491 80.2362 11.5037C80.4322 11.5144 80.6469 11.4557 80.8296 11.3757C81.1322 11.2411 81.1736 11.0237 80.9496 10.7851C80.7189 10.5397 80.4656 10.3157 80.2162 10.0891C79.5309 9.46906 78.8309 8.86505 78.1629 8.22772C77.8682 7.94639 77.6229 7.60906 77.3842 7.27706C77.2589 7.10239 77.1696 6.89039 77.1109 6.68106C76.9909 6.25439 77.2856 5.88106 77.7336 5.88506C77.8909 5.88639 78.0522 5.92906 78.2042 5.97839C78.8562 6.18906 79.4216 6.56772 79.9522 6.98239C81.0269 7.82105 82.0749 8.69439 83.1442 9.54239C83.7176 9.99839 84.3056 10.4384 84.8989 10.8664C85.0736 10.9931 85.2842 11.0837 85.4922 11.1424C85.7416 11.2117 85.8949 11.1131 85.9376 10.8544C86.0496 10.1851 86.4056 9.62505 86.7082 9.04105C86.8629 8.74239 87.0189 8.44106 87.1402 8.12772C87.3522 7.58106 87.3309 7.03038 87.0576 6.50772C86.8456 6.10638 86.6122 5.71572 86.3789 5.32638C86.1296 4.91038 85.8682 4.50239 85.6122 4.09172C85.3762 3.71439 85.2322 3.29972 85.1322 2.86906C84.9842 2.23706 85.1549 1.67706 85.5162 1.16372C85.6829 0.929057 85.9016 0.762382 86.2149 0.771716C86.6029 0.783716 86.9096 1.05172 86.8816 1.43705C86.8096 2.43305 87.1389 3.31305 87.5869 4.16905C87.9122 4.79439 88.2456 5.41572 88.5362 6.05705C88.7096 6.44105 88.8362 6.85305 88.9296 7.26372C89.1149 8.08372 88.8816 8.82638 88.3122 9.41572C87.4576 10.3024 87.2789 11.3531 87.4496 12.5064C87.5202 12.9891 87.7576 13.3891 88.1869 13.6544C88.6296 13.9277 89.0629 13.8397 89.3122 13.3891C89.5749 12.9104 89.7456 12.4157 89.6696 11.8371C89.5096 10.6384 89.8669 9.53972 90.4509 8.51038C90.7696 7.95038 91.1349 7.41706 91.4776 6.86906C91.6976 6.51839 92.0082 6.30106 92.3989 6.16239C93.1176 5.90639 93.8536 5.82239 94.6082 5.87172C94.8109 5.88505 95.0162 5.92905 95.2109 5.99172C95.7842 6.17305 96.0869 6.76905 95.9242 7.36372C95.7482 8.00372 95.2029 8.34772 94.5842 8.19438C94.3576 8.13838 94.1402 8.04238 93.9162 7.97438C93.0936 7.72638 92.4762 7.97305 92.1616 8.76772C91.9589 9.27972 91.8562 9.83705 91.7509 10.381C91.6109 11.1157 91.5189 11.8584 91.3936 12.5957C91.3256 12.9891 91.1722 13.3491 90.9736 13.6997C90.7949 14.0171 90.6642 14.3624 90.5216 14.6997C90.3896 15.0131 90.4456 15.3144 90.6509 15.5704C90.8616 15.8331 91.0776 16.0997 91.3349 16.3131C91.9496 16.8251 92.4282 17.4557 92.9282 18.0677C93.1602 18.3517 93.3976 18.6317 93.6496 18.8984C93.7949 19.053 93.8829 19.053 94.0122 18.8837C94.1616 18.689 94.3189 18.4771 94.3869 18.2477C94.5349 17.7424 94.6789 17.2277 94.7309 16.7064C94.7802 16.2171 94.8629 15.7251 94.7882 15.2184C94.7282 14.8091 94.9442 14.4491 95.2296 14.1544C95.5149 13.8584 95.8176 13.5797 96.1056 13.2877C96.6176 12.769 96.6122 12.5037 96.0789 12.0077C95.8002 11.7491 95.5016 11.5104 95.2322 11.2397C94.8416 10.8464 94.9056 10.6091 95.4282 10.4117C95.6389 10.3317 95.8456 10.3077 96.0722 10.3624C96.7509 10.5277 97.3282 10.8517 97.7642 11.4024C98.1882 11.937 98.2802 12.5451 98.0936 13.1904C97.9522 13.6811 97.6682 14.0944 97.2842 14.4251C97.0976 14.5851 96.9709 14.7677 96.8856 14.9917C96.3962 16.2677 95.9589 17.5571 95.7469 18.9144C95.6029 19.8357 95.5536 20.7517 95.8029 21.6637C95.9282 22.1237 96.1309 22.5437 96.4309 22.9131C96.6736 23.2104 96.7442 23.2011 96.9122 22.8691C97.0856 22.5291 97.2389 22.1784 97.4256 21.8464C97.7296 21.309 98.0442 20.7731 98.5642 20.4104C98.7789 20.2611 99.0082 20.1224 99.2482 20.0184C99.5829 19.8744 99.9269 19.7397 100.28 19.6544C100.515 19.5971 100.78 19.5904 101.019 19.6331C101.451 19.7117 101.636 20.1984 101.384 20.5571C101.188 20.8371 100.93 21.0544 100.615 21.197C100.28 21.349 99.9429 21.4931 99.6136 21.6557C99.4442 21.7384 99.2802 21.8397 99.1296 21.9557C98.8202 22.1944 98.6549 22.5117 98.6936 22.9117C98.7629 23.6144 98.6202 24.2797 98.3869 24.9397C98.1522 25.6051 98.2002 26.2637 98.5136 26.9037C98.8669 27.6277 99.3976 28.2157 99.9349 28.7984C100.443 29.3504 100.94 29.9117 101.267 30.5931C101.508 31.0944 101.714 31.6131 101.923 32.1304C102.151 32.6891 102.388 33.241 102.774 33.713C102.884 33.849 103.004 33.9824 103.142 34.0877C103.395 34.2811 103.591 34.2504 103.788 34.0064C103.863 33.9157 103.922 33.813 103.986 33.7144C104.602 32.7744 105.372 31.9731 106.206 31.2251C106.532 30.9317 106.844 30.6197 107.166 30.3184C107.411 30.0877 107.663 29.8637 107.908 29.6331C108.555 29.0251 108.975 28.3104 108.936 27.3891C108.922 27.0371 108.895 26.6864 108.88 26.3357C108.876 26.2197 108.88 26.1011 108.903 25.9877C108.986 25.5704 108.948 25.1704 108.766 24.7851C108.691 24.6264 108.626 24.4624 108.548 24.3037C108.39 23.9824 108.336 23.645 108.3 23.2877C108.238 22.677 108.124 22.0704 108.004 21.4664C107.868 20.7891 107.719 20.1117 107.788 19.4184C107.84 18.909 107.89 18.3904 108.034 17.9037C108.266 17.1211 108.823 16.5797 109.524 16.1837C109.94 15.9491 110.379 15.7997 110.866 15.8224C111.384 15.8477 111.724 16.0891 111.88 16.5811C112.022 17.0251 112.048 17.4624 111.858 17.9131C111.628 18.4517 111.414 19.0011 111.246 19.5624C111.108 20.0237 111.004 20.5037 110.971 20.9824C110.944 21.3544 111.015 21.7437 111.1 22.1117C111.384 23.3424 111.6 24.5824 111.75 25.8357C111.843 26.6277 111.844 27.4184 111.815 28.2091C111.78 29.0944 111.602 29.9517 111.194 30.7544C110.936 31.2624 110.583 31.685 110.155 32.049C110.034 32.1517 109.891 32.2397 109.744 32.2984C108.672 32.7251 107.848 33.4571 107.176 34.3731C106.392 35.4437 105.844 36.617 105.703 37.953C105.678 38.185 105.664 38.4224 105.68 38.6544C105.69 38.7944 105.734 38.9544 105.818 39.0624C106.162 39.4984 106.502 39.9437 106.892 40.3384C107.375 40.8291 107.932 40.769 108.375 40.249C108.708 39.857 109.05 39.4757 109.394 39.0944C109.734 38.7157 109.978 38.3117 110.007 37.7717C110.047 37.0184 110.399 36.3611 110.8 35.7424C111.135 35.2264 111.524 34.745 111.866 34.233C112.688 33.0024 113.743 31.9824 114.798 30.9637C115.49 30.2944 116.306 29.8064 117.207 29.4557C117.847 29.2064 118.484 29.1584 119.144 29.3584C119.495 29.4637 119.851 29.5597 120.211 29.6304C120.511 29.6891 120.822 29.7517 121.123 29.733C121.944 29.6824 122.632 29.973 123.195 30.5304C123.62 30.9517 123.995 31.4264 124.36 31.9024C124.603 32.2197 124.552 32.6051 124.434 32.9597C124.123 33.8944 122.896 34.7544 121.918 34.749C121.598 34.7477 121.32 34.6597 121.071 34.4464C120.604 34.0451 120.131 33.6491 119.642 33.2744C119.4 33.0891 119.13 32.929 118.85 32.8064C118.464 32.637 118.076 32.6757 117.722 32.9264C117.674 32.9597 117.62 32.9877 117.579 33.029C116.936 33.6504 116.278 34.2557 115.659 34.901C115.264 35.3117 114.911 35.7664 114.574 36.2264C114.251 36.6677 114.039 37.1557 114.004 37.7264C113.975 38.2131 113.783 38.6744 113.508 39.0771C113.212 39.5117 112.899 39.941 112.539 40.3237C111.878 41.0304 111.171 41.6957 110.496 42.389C110.272 42.6197 110.063 42.8704 109.89 43.1397C109.502 43.7384 109.466 44.4077 109.568 45.0931C109.651 45.6491 109.851 46.1717 110.092 46.6757C110.352 47.217 110.651 47.7411 110.914 48.2824C111.227 48.9277 111.555 49.5717 111.807 50.2411C111.966 50.6597 112.031 51.121 112.074 51.5704C112.115 52.013 112.242 52.4077 112.531 52.7344C112.651 52.8704 112.823 52.985 112.994 53.0464C113.256 53.1397 113.486 53.0157 113.612 52.765C113.644 52.6997 113.668 52.6291 113.69 52.5584C113.895 51.8837 114.288 51.3211 114.756 50.8064C115.08 50.4477 115.414 50.0957 115.735 49.7344C116.142 49.2784 116.407 48.7397 116.622 48.1744C116.847 47.585 117.056 46.9891 117.304 46.4091C117.562 45.8091 117.922 45.2784 118.471 44.8944C118.692 44.7397 118.927 44.6584 119.198 44.6144C119.703 44.5331 120.202 44.4117 120.698 44.285C120.864 44.2437 121.023 44.1504 121.17 44.0557C121.624 43.765 121.808 43.3237 121.655 42.8024C121.57 42.5104 121.443 42.2197 121.276 41.9664C121.011 41.5624 120.706 41.1851 120.403 40.8077C120.219 40.5784 120.035 40.357 119.942 40.0677C119.651 39.1544 120.596 38.2931 121.398 38.5344C121.578 38.5891 121.776 38.6451 121.918 38.7597C122.899 39.5611 123.803 40.4317 124.442 41.5491C124.916 42.3771 125.032 43.261 124.927 44.185C124.874 44.6517 124.619 45.0344 124.308 45.3784C123.879 45.8544 123.347 46.1931 122.784 46.4837C122.25 46.7597 121.708 47.0224 121.166 47.2824C120.922 47.3997 120.712 47.5517 120.567 47.7824C120.331 48.1544 120.078 48.5157 119.867 48.8997C119.29 49.9491 118.554 50.877 117.752 51.7584C117.367 52.1824 116.995 52.6197 116.758 53.1477C116.66 53.361 116.564 53.5797 116.512 53.8064C116.286 54.8144 115.815 55.7011 115.202 56.5211C115.062 56.7077 114.926 56.9011 114.806 57.1024C114.586 57.4744 114.462 57.8744 114.45 58.3131C114.436 58.8744 114.472 59.429 114.631 59.969C114.81 60.573 114.992 61.177 115.192 61.7757C115.288 62.0624 115.402 62.0944 115.652 61.9317C116.012 61.6997 116.322 61.4117 116.594 61.0784C117.094 60.465 117.59 59.8464 118.118 59.2584C118.476 58.8571 118.944 58.6051 119.478 58.4931C119.564 58.4744 119.654 58.4491 119.739 58.4557C120.44 58.5117 121.102 58.289 121.78 58.173C122.286 58.0864 122.792 57.9704 123.302 57.9544C124.248 57.9237 125.114 58.1397 125.66 59.0237C125.924 59.4504 125.898 59.8637 125.568 60.2357C125.412 60.4104 125.244 60.577 125.072 60.7357C124.796 60.989 124.472 61.1117 124.1 61.0117C123.427 60.8304 122.768 60.8917 122.103 61.0704C121.738 61.169 121.351 61.1851 120.979 61.2611C120.65 61.3291 120.316 61.3971 120.007 61.5211C119.332 61.7891 118.968 62.3317 118.872 63.0291C118.766 63.8091 118.467 64.493 117.986 65.1064C117.724 65.441 117.476 65.7877 117.206 66.1157C116.618 66.825 116.275 67.6357 116.147 68.5451C116.046 69.2717 115.959 69.9971 115.952 70.7331C115.946 71.6424 115.926 72.553 115.859 73.4584C115.784 74.457 115.603 75.4384 115.156 76.3504C114.994 76.6797 114.808 76.9877 114.556 77.265C113.878 78.0117 113.426 78.9011 112.994 79.8037C112.578 80.6771 112.116 81.5291 111.674 82.3891C111.594 82.5451 111.5 82.6957 111.427 82.8557C111.264 83.2064 111.256 83.5517 111.424 83.9144C111.932 85.013 112.278 86.1637 112.472 87.3584C112.69 88.6944 112.747 90.0331 112.643 91.3891C112.439 94.0664 111.578 96.5491 110.494 98.9704C109.456 101.288 108.079 103.398 106.476 105.361C105.38 106.705 104.167 107.936 102.88 109.1C100.768 111.009 98.4496 112.625 95.9589 113.99C93.5976 115.285 91.1336 116.345 88.5496 117.116C87.1269 117.54 85.6922 117.902 84.2189 118.094C83.4789 118.192 82.7336 118.265 81.9869 118.309C81.1096 118.36 80.2296 118.384 79.3509 118.392C78.2042 118.402 77.0682 118.253 75.9349 118.105C75.5309 118.052 75.1389 117.904 74.7456 117.789C74.1122 117.604 73.4896 117.373 72.8469 117.229C72.0722 117.057 71.3002 117.102 70.5816 117.501C70.2482 117.685 69.9109 117.865 69.5776 118.049C68.2149 118.805 66.7989 119.446 65.3682 120.058C61.9989 121.497 58.5176 122.594 54.9549 123.433C52.6109 123.984 50.2469 124.424 47.8616 124.746C46.5682 124.921 45.2749 125.092 43.9789 125.241C43.1789 125.333 42.3736 125.382 41.5696 125.448C40.5762 125.529 39.5842 125.612 38.5896 125.685C38.0202 125.726 37.4482 125.758 36.8776 125.781C35.8962 125.821 34.9136 125.845 33.9322 125.884C30.8376 126.001 27.7416 125.996 24.6456 125.96C23.7976 125.95 22.9482 125.877 22.1002 125.809C21.1522 125.733 20.2029 125.644 19.2562 125.533C17.3016 125.302 15.3736 124.932 13.4816 124.381C11.8976 123.921 10.3696 123.326 8.91224 122.552C5.86691 120.93 3.52558 118.622 2.02958 115.492C1.28291 113.932 0.825574 112.282 0.532241 110.582C0.202907 108.665 0.12024 106.732 0.20024 104.794C0.265573 103.198 0.39891 101.604 0.676243 100.028C0.902909 98.7277 1.12957 97.4264 1.39491 96.1344C1.73091 94.493 2.23757 92.8984 2.79091 91.3184C3.42291 89.517 4.14824 87.7531 4.96424 86.0277C5.76691 84.3304 6.58291 82.6384 7.42424 80.9597C8.40957 78.9917 9.40158 77.025 10.4442 75.0877C11.1042 73.8624 11.8576 72.6864 12.5816 71.4957C13.5029 69.9784 14.4696 68.4877 15.3576 66.9504C16.4016 65.141 17.2589 63.2424 17.7589 61.201C17.8536 60.817 17.9309 60.4277 18.0042 60.0397C18.2589 58.6957 18.6536 57.3904 19.0829 56.0944C19.5682 54.6317 20.0562 53.1704 20.5176 51.6997C20.8482 50.649 21.0629 49.5677 21.2109 48.4757C21.3749 47.2597 21.3136 46.0504 21.1256 44.8397C20.9669 43.8264 20.8402 42.8077 20.7069 41.7904C20.5469 40.5691 20.4069 39.3451 20.2322 38.1264C20.0229 36.6597 19.8002 35.1957 19.5549 33.7357C18.9909 30.3904 18.2616 27.0837 17.2589 23.8397C16.4549 21.2384 15.4482 18.7211 14.1656 16.3197C13.1122 14.3464 11.8682 12.5024 10.3869 10.8171C8.73491 8.93839 6.83357 7.36905 4.69357 6.07972C4.4069 5.90772 4.12824 5.70638 3.89224 5.47172C3.56824 5.15038 3.62024 4.74505 4.00958 4.50772C4.26958 4.34905 4.55891 4.22238 4.85224 4.13838C5.74158 3.88105 6.65357 3.72505 7.57891 3.67305C8.41224 3.62505 9.24557 3.59039 10.0802 3.57572C11.7256 3.54772 13.3202 3.85439 14.8856 4.33439C17.2896 5.07306 19.4216 6.30905 21.3576 7.90238C23.2989 9.49971 24.9189 11.3877 26.3482 13.4437C28.1242 15.9971 29.5269 18.7517 30.7082 21.6237C31.4016 23.3077 32.0069 25.0224 32.5389 26.7637C32.7256 27.3744 32.7389 27.3637 33.2256 26.937C34.2989 25.997 35.4509 25.1651 36.6749 24.4304C39.6056 22.6691 42.7736 21.5677 46.1376 21.0117C47.2229 20.833 48.3136 20.693 49.4149 20.6584C49.9856 20.641 50.5562 20.5957 51.1282 20.585C52.6256 20.5557 54.1149 20.6677 55.6042 20.8277C57.4162 21.0224 59.2029 21.357 60.9656 21.8064C63.5736 22.4717 66.1082 23.3504 68.5416 24.5077C69.0576 24.7544 69.5696 25.0091 70.0896 25.2477C70.2882 25.3397 70.5016 25.3984 70.7109 25.4664C71.0589 25.5811 71.2136 25.7397 71.2176 25.9944C71.2229 26.277 71.0309 26.5517 70.7189 26.6464C70.5402 26.7011 70.3376 26.7437 70.1589 26.713C69.1989 26.553 68.2562 26.6904 67.3149 26.8384C65.5176 27.1211 63.7242 27.4144 61.9269 27.6957C58.0269 28.3037 54.1482 29.0237 50.3309 30.045C46.5056 31.0704 42.7989 32.4064 39.3069 34.2931C37.4696 35.2851 35.7242 36.4184 34.1082 37.7477C33.8029 37.9984 33.5042 38.2584 33.1962 38.5064C32.9456 38.7077 32.8069 38.953 32.7282 39.273C32.0402 42.0797 31.4082 44.9024 30.4402 47.6331C30.0376 48.7677 29.5842 49.881 29.0496 50.9624C28.7576 51.553 28.4802 52.1531 28.2016 52.7517C27.4816 54.2997 26.5656 55.7331 25.6269 57.1557C24.7056 58.5517 23.7949 59.9544 22.9056 61.3704C22.5549 61.9277 22.2709 62.5277 21.9669 63.1131C21.8802 63.2811 21.8176 63.4651 21.7642 63.6464C21.3149 65.1864 20.7269 66.6717 20.0362 68.117C18.7856 70.733 17.2656 73.1891 15.6109 75.5637C14.6389 76.9611 13.6429 78.3424 12.6856 79.7491C12.2322 80.4144 11.8096 81.1051 11.4296 81.8157C9.57891 85.2811 8.08557 88.8984 6.89624 92.6424C6.10024 95.1477 5.44957 97.6917 5.03891 100.29C4.83358 101.593 4.66291 102.902 4.64424 104.226C4.63757 104.709 4.56957 105.193 4.58557 105.676C4.65091 107.586 4.82291 109.482 5.47491 111.301C6.01491 112.812 6.77091 114.192 7.94957 115.308C8.96424 116.27 10.1122 117.017 11.4669 117.409C13.2002 117.912 14.9282 118.43 16.6722 118.892C18.4882 119.373 20.3349 119.722 22.1962 119.974C23.2416 120.116 24.2962 120.18 25.3469 120.27C25.7696 120.308 26.1962 120.353 26.6189 120.341C27.2629 120.322 27.9056 120.26 28.5469 120.21C28.9562 120.18 29.3642 120.129 29.7736 120.104C30.4469 120.061 31.1202 120.021 31.7936 119.998C32.9362 119.957 34.0816 119.954 35.2229 119.892C37.5256 119.765 39.8296 119.828 42.1322 119.832C43.3362 119.834 44.4962 119.64 45.6456 119.321C47.6696 118.76 49.5402 117.86 51.3069 116.73C52.8922 115.716 54.3629 114.55 55.7789 113.313C57.7696 111.573 59.5936 109.661 61.4709 107.804C61.6682 107.608 61.8909 107.437 62.0856 107.238C62.3309 106.989 62.5856 106.741 62.7896 106.457C63.2149 105.865 63.2789 105.2 63.0096 104.532C62.8242 104.072 62.5842 103.629 62.3349 103.2C61.7896 102.261 61.2002 101.346 60.7949 100.333C60.3389 99.1957 60.0549 98.0224 59.9589 96.7944C59.7669 94.3757 60.2402 92.0584 61.0229 89.801C61.6269 88.0597 62.5429 86.465 63.5829 84.9464C64.5802 83.489 65.7162 82.1464 66.9696 80.9037C68.2216 79.661 69.5789 78.541 71.0189 77.525C72.5576 76.4397 74.1709 75.4824 75.8669 74.6637C78.8576 73.2197 81.9816 72.1877 85.2602 71.6371C86.9562 71.3517 88.6589 71.1744 90.3149 71.209Z" fill="#F17171"/>
</svg>
