<svg width="136" height="139" viewBox="0 0 136 139" fill="none" xmlns="http://www.w3.org/2000/svg">
<path d="M73.7566 74.1694C73.8273 74.3654 73.8793 74.5081 73.9313 74.6508C74.0606 74.5788 74.1913 74.5068 74.3193 74.4348C74.3326 74.4268 74.342 74.4134 74.354 74.4028C74.8966 73.9534 75.422 73.4801 75.9873 73.0614C77.162 72.1908 78.438 71.6708 79.9406 72.0374C80.2633 72.1161 80.5793 72.0281 80.834 71.8388C81.1326 71.6188 81.4233 71.3694 81.6606 71.0854C81.9606 70.7254 82.2046 70.3201 82.4686 69.9308C82.7953 69.4454 83.1806 69.0281 83.67 68.6908C84.118 68.3814 84.53 68.0121 84.934 67.6441C85.1006 67.4934 85.2966 67.2801 85.1686 67.0308C85.0446 66.7908 84.7686 66.8041 84.5353 66.8348C84.1793 66.8814 83.822 66.9401 83.4726 67.0281C82.2526 67.3308 81.082 67.7574 79.9726 68.3668C78.5006 69.1734 77.0366 69.9881 75.738 71.0641C75.07 71.6174 74.4646 72.2361 74.1033 73.0374C73.938 73.4028 73.8646 73.8081 73.7566 74.1694ZM68.2033 138.143C65.7766 138.117 63.3766 137.904 61.0033 137.411C59.0913 137.013 57.2406 136.424 55.4886 135.553C54.4193 135.021 53.398 134.408 52.4553 133.668C52.258 133.513 52.1526 133.343 52.1073 133.091C51.7033 130.852 51.3433 128.605 50.8566 126.385C50.1566 123.2 49.3606 120.035 48.61 116.86C48.1073 114.739 47.598 112.62 47.118 110.493C46.8566 109.344 46.7286 108.172 46.7246 106.995C46.7206 105.972 46.8113 104.961 47.2646 104.012C47.7273 103.047 48.4233 102.309 49.3233 101.747C50.1273 101.243 50.9966 100.885 51.8953 100.601C53.426 100.12 54.9953 99.8134 56.582 99.5988C57.8086 99.4321 59.038 99.2774 60.2686 99.1521C61.25 99.0521 62.2366 99.0001 63.222 98.9308C64.4726 98.8428 65.722 98.7548 66.974 98.6774C67.4113 98.6494 67.8513 98.6601 68.29 98.6414C68.7153 98.6241 68.774 98.5841 68.834 98.1561C68.93 97.4734 69.0006 96.7881 69.0766 96.1028C69.1913 95.0748 69.306 94.0468 69.41 93.0174C69.494 92.1908 69.5686 91.3641 69.638 90.5361C69.7286 89.4748 69.8153 88.4134 69.8953 87.3508C69.942 86.7254 69.9913 86.0988 70.0046 85.4734C70.0513 83.2308 70.1033 80.9881 70.1113 78.7468C70.1166 77.3828 70.054 76.0188 70.002 74.6561C69.9793 74.0774 69.8846 73.5014 69.8593 72.9228C69.8273 72.2028 69.838 71.4814 69.8233 70.7601C69.7993 69.5454 69.6393 68.3508 69.2113 67.2068C68.4113 65.0708 66.974 63.5334 64.8686 62.6348C63.7326 62.1494 62.5486 61.8641 61.3126 61.8134C59.302 61.7308 57.3286 61.3641 55.3526 61.0201C53.8846 60.7668 52.41 60.5454 50.9113 60.6041C50.266 60.6294 49.6313 60.7241 49.0193 60.9401C47.5606 61.4561 46.8673 62.5441 46.7526 64.0374C46.7233 64.4161 46.6526 64.7761 46.554 65.1414C46.3886 65.7454 46.234 66.3561 46.1353 66.9734C45.978 67.9574 46.2913 68.7681 47.1513 69.3268C47.7953 69.7454 48.458 70.1374 49.0806 70.5868C49.51 70.8974 49.8873 71.2814 50.2793 71.6401C50.5313 71.8681 50.6913 72.1614 50.7446 72.4934C50.8353 73.0494 50.9793 73.6134 50.954 74.1681C50.9073 75.1494 51.2273 75.9841 51.7526 76.7708C52.03 77.1881 52.3393 77.5854 52.6073 78.0081C52.7473 78.2294 52.8713 78.4761 52.9273 78.7281C53.0233 79.1561 52.8206 79.4748 52.3993 79.5894C52.146 79.6601 51.8766 79.6934 51.6126 79.7014C51.0793 79.7188 50.546 79.6961 50.0126 79.7121C49.7966 79.7174 49.5713 79.7508 49.37 79.8241C48.9966 79.9614 48.8726 80.2268 48.9793 80.6108C49.1033 81.0561 49.3313 81.4508 49.626 81.8014C50.4593 82.7908 50.7833 83.9374 50.6886 85.2121C50.6766 85.3828 50.6353 85.5534 50.586 85.7188C50.3113 86.6268 49.534 86.9534 48.602 86.6961C48.4966 86.6681 48.402 86.6041 48.2993 86.5681C47.6846 86.3534 47.1393 86.6414 46.93 87.2601C46.63 88.1508 46.3313 89.0441 45.9913 89.9201C45.7206 90.6161 45.266 91.1961 44.7073 91.6974C44.0553 92.2828 43.3006 92.3401 42.5033 92.1414C42.0646 92.0321 41.7606 91.7268 41.61 91.3068C41.506 91.0148 41.43 90.7014 41.4073 90.3934C41.354 89.6428 41.3606 88.8881 41.2993 88.1388C41.2633 87.7054 41.1793 87.2694 41.054 86.8534C40.8793 86.2761 40.47 85.8894 39.886 85.7254C39.586 85.6414 39.2646 85.5388 38.966 85.5681C38.1286 85.6508 37.5686 84.7001 37.6713 84.0041C37.746 83.5094 37.938 83.0801 38.322 82.7348C38.678 82.4134 38.6993 82.2361 38.4366 81.8454C38.2633 81.5868 38.042 81.3588 37.8473 81.1134C37.6726 80.8934 37.4806 80.6814 37.338 80.4414C37.0153 79.8961 37.094 79.2668 37.5046 78.7801C37.6846 78.5654 37.8766 78.3508 38.0073 78.1054C38.2886 77.5788 38.1886 77.1494 37.714 76.7774C37.4686 76.5841 37.1913 76.4321 36.9313 76.2561C36.5433 75.9921 36.1393 75.7468 35.774 75.4548C35.126 74.9361 35.002 74.2241 35.318 73.4548C35.9566 71.8974 37.058 70.8174 38.73 70.4254C39.3686 70.2761 40.0286 70.2188 40.6793 70.1308C41.4086 70.0321 42.1473 69.9828 42.8686 69.8468C44.3126 69.5721 45.1713 68.6588 45.5473 67.2601C45.7606 66.4654 45.8593 65.6588 45.826 64.8388C45.8033 64.2788 45.9033 63.7481 46.0913 63.2254C46.182 62.9748 46.2593 62.7188 46.3153 62.4588C46.442 61.8721 46.186 61.5708 45.586 61.6428C45.09 61.7028 44.598 61.8148 44.1073 61.9174C42.142 62.3294 40.1846 62.7788 38.286 63.4454C36.9953 63.9001 35.7366 64.4241 34.6473 65.2828C33.6913 66.0361 33.1766 67.0014 33.174 68.2414C33.1726 69.0641 33.3126 69.8654 33.43 70.6708C33.5873 71.7641 33.6606 72.8548 33.3713 73.9388C33.022 75.2468 32.3766 76.3694 31.3246 77.2401C31.2046 77.3401 31.0993 77.4574 30.9926 77.5734C30.7473 77.8374 30.5033 78.1028 30.2646 78.3734C29.6486 79.0721 28.9206 79.3054 28.026 78.9561C27.698 78.8281 27.5913 78.8708 27.4073 79.1854C27.25 79.4548 27.1006 79.7414 27.0206 80.0388C26.7686 80.9774 26.5633 81.9281 26.3153 82.8681C26.158 83.4574 25.9553 84.0348 25.7713 84.6174C25.7526 84.6774 25.7273 84.7361 25.6993 84.7908C25.1206 85.8961 24.394 86.2974 23.102 85.8694C22.9233 85.8108 22.7526 85.7308 22.582 85.6494C22.4193 85.5721 22.266 85.5828 22.158 85.7228C21.958 85.9801 21.7393 86.2348 21.594 86.5228C21.286 87.1348 21.2233 87.8148 21.1406 88.4828C21.0393 89.2921 20.962 90.1041 20.8446 90.9094C20.7513 91.5481 20.5646 92.1628 20.2433 92.7321C19.9126 93.3174 19.45 93.7254 18.806 93.9454C17.7046 94.3214 16.61 94.3148 15.5393 93.8801C14.4286 93.4294 13.6553 92.6454 13.4086 91.4348C13.3473 91.1308 13.362 90.8121 13.3486 90.4988C13.338 90.2334 13.3646 89.9628 13.3313 89.7001C13.2646 89.1921 12.9486 89.0241 12.546 89.3308C12.114 89.6601 11.7006 90.0374 11.3593 90.4588C10.2153 91.8721 9.10729 93.3148 7.98329 94.7454C7.14062 95.8201 6.27129 96.8694 5.27396 97.8081C4.65396 98.3908 3.95396 98.7481 3.08063 98.7214C1.99796 98.6881 1.27529 98.1214 1.02729 97.0654C0.856624 96.3388 0.879291 95.5988 0.971291 94.8668C1.19262 93.0761 1.78596 91.3921 2.49129 89.7414C2.89796 88.7868 3.36063 87.8614 3.94729 87.0041C4.15796 86.6988 4.43929 86.4428 4.68996 86.1641C4.69929 86.1534 4.71263 86.1441 4.72463 86.1334C5.36063 85.5708 5.38996 85.1761 4.84063 84.5334C4.62729 84.2828 4.40729 84.0361 4.19129 83.7881C3.67663 83.2001 3.56596 82.5641 3.75529 81.7814C4.06863 80.4934 4.83263 79.5734 5.85929 78.8228C6.38996 78.4334 6.93796 78.0654 7.48863 77.7054C7.73796 77.5441 7.89796 77.3414 8.00996 77.0668C8.30196 76.3468 8.68729 75.6881 9.32462 75.2081C9.69396 74.9294 10.1006 74.7401 10.554 74.6454C10.7686 74.6001 10.99 74.5614 11.1873 74.4734C11.5766 74.3001 11.6366 73.9574 11.3606 73.6361C11.1366 73.3734 10.846 73.2401 10.5113 73.1708C9.84329 73.0321 9.22596 72.7708 8.66996 72.3708C8.63129 72.3428 8.59129 72.3174 8.55396 72.2894C7.79796 71.7228 7.68596 70.9201 8.32329 70.2188C8.65662 69.8521 9.04729 69.5148 9.46729 69.2534C10.738 68.4641 12.138 68.0388 13.6233 67.8521C14.5446 67.7361 15.4366 67.7721 16.3126 68.0841C16.4153 68.1201 16.526 68.1428 16.634 68.1468C17.1153 68.1641 17.3353 67.8881 17.1966 67.4308C17.1286 67.2068 17.0446 66.9841 16.9393 66.7748C16.694 66.2854 16.7753 65.8548 17.082 65.4121C17.7606 64.4334 18.7153 63.9334 19.8593 63.7334C21.07 63.5214 22.266 63.6628 23.458 63.8788C25.13 64.1814 26.7406 64.7108 28.3606 65.2041C29.186 65.4548 30.0206 65.6774 30.8406 65.9414C31.3353 66.1001 31.8086 66.0561 32.262 65.8601C32.794 65.6321 33.334 65.4001 33.8153 65.0868C34.866 64.4014 35.8833 63.6641 36.9086 62.9428C37.1473 62.7748 37.1393 62.6841 36.8713 62.5454C35.13 61.6521 33.322 60.9468 31.3633 60.7148C30.8833 60.6588 30.3913 60.6801 29.9073 60.7081C29.698 60.7201 29.4873 60.8254 29.2913 60.9174C28.51 61.2814 27.7446 61.6841 26.9526 62.0228C25.9046 62.4694 24.8073 62.7201 23.6553 62.6708C22.898 62.6374 22.1633 62.4828 21.4366 62.2814C21.0593 62.1774 20.6833 62.0641 20.3153 61.9308C20.058 61.8374 19.8393 61.8681 19.598 61.9881C18.798 62.3854 17.9993 62.7894 17.1793 63.1414C16.2366 63.5454 15.246 63.8041 14.2206 63.8654C12.782 63.9494 11.574 63.4588 10.6766 62.2974C10.4513 62.0054 10.378 61.6828 10.4873 61.3228C10.578 61.0228 10.67 60.7214 10.7446 60.4174C10.8553 59.9681 10.7846 59.7894 10.382 59.5614C9.91796 59.2988 9.43396 59.0694 8.97663 58.7974C8.68196 58.6228 8.40463 58.4134 8.14463 58.1908C7.68463 57.7961 7.50863 57.2668 7.52063 56.6761C7.52729 56.3748 7.50196 56.0921 7.40329 55.8014C7.18596 55.1654 7.35529 54.6721 7.89396 54.2694C8.30329 53.9641 8.77796 53.7961 9.26196 53.6614C10.3393 53.3601 11.4473 53.2454 12.55 53.0934C13.0473 53.0254 13.5473 52.9721 14.038 52.8734C14.326 52.8161 14.6286 52.7308 14.874 52.5761C15.5246 52.1668 16.2153 52.1508 16.9153 52.3214C17.4153 52.4441 17.8926 52.6574 18.3806 52.8281C18.9126 53.0148 19.4393 53.2188 19.9793 53.3801C20.6193 53.5694 21.214 53.4454 21.766 53.0614C22.2873 52.6974 22.8513 52.4508 23.506 52.4188C24.3673 52.3774 25.1006 52.6788 25.782 53.1681C26.558 53.7268 27.1593 54.4508 27.682 55.2361C28.0446 55.7841 28.378 56.3561 28.6713 56.9441C28.9473 57.5014 29.2806 57.9814 29.7606 58.3908C30.5286 59.0468 31.33 59.6414 32.238 60.0868C33.562 60.7348 34.962 61.1228 36.4233 61.2854C37.1086 61.3614 37.7966 61.4361 38.4846 61.4441C39.2833 61.4534 40.0846 61.4254 40.8793 61.3508C42.1433 61.2308 43.4033 61.0748 44.6606 60.9014C46.2433 60.6828 47.8193 60.4028 49.4046 60.2014C50.6313 60.0454 51.87 59.9854 53.1006 59.8534C53.9166 59.7668 54.7273 59.8281 55.5406 59.8694C55.7753 59.8814 56.0073 59.9268 56.242 59.9361C56.3753 59.9414 56.51 59.9081 56.6446 59.8921C56.5833 59.7748 56.5446 59.6361 56.4566 59.5454C55.966 59.0374 55.4793 58.5254 54.9606 58.0468C54.0966 57.2481 53.202 56.4841 52.1713 55.8974C51.6353 55.5921 51.0753 55.3588 50.4726 55.2241C49.402 54.9828 48.4246 55.1948 47.6313 55.9468C47.006 56.5388 46.2646 56.7668 45.458 56.8281C44.502 56.9014 43.5473 56.8414 42.5966 56.6974C42.1326 56.6268 41.6633 56.5961 41.1953 56.5481C40.8886 56.5174 40.6086 56.5908 40.3393 56.7428C40.0113 56.9268 39.666 57.0801 39.3353 57.2588C38.198 57.8761 36.982 57.9641 35.7233 57.8268C34.7006 57.7148 33.7646 57.3974 32.9793 56.7121C31.638 55.5428 31.3646 53.6188 32.374 52.3134C32.778 51.7921 33.302 51.4268 33.894 51.1574C34.1646 51.0348 34.45 50.9441 34.7313 50.8454C35.0446 50.7334 35.054 50.7108 34.9286 50.4148C34.8193 50.1574 34.6953 49.9001 34.6206 49.6308C34.47 49.0854 34.6286 48.5974 35.0193 48.2081C35.2593 47.9681 35.5366 47.7454 35.834 47.5841C36.8873 47.0108 38.0446 46.8041 39.222 46.6934C39.418 46.6748 39.6406 46.6934 39.818 46.7708C40.9206 47.2548 42.094 47.4774 43.258 47.7241C45.1606 48.1268 47.078 48.4668 48.9366 49.0481C49.762 49.3054 50.5753 49.5988 51.2833 50.1121C51.4726 50.2494 51.6553 50.4028 51.814 50.5734C52.3153 51.1108 52.3633 51.9028 51.966 52.5281C51.8153 52.7654 51.6793 53.0161 51.5766 53.2761C51.3833 53.7641 51.4406 54.2481 51.762 54.6574C52.0006 54.9628 52.2673 55.2681 52.5846 55.4841C53.3086 55.9774 54.0726 56.4148 54.818 56.8788C55.15 57.0868 55.478 57.3014 55.8033 57.5201C56.306 57.8574 56.6966 58.2948 57.014 58.8134C57.614 59.7948 58.5446 60.3361 59.626 60.6014C60.4766 60.8108 61.346 60.9468 62.2126 61.0841C63.2553 61.2508 64.2726 61.4721 65.2193 61.9748C65.7006 62.2321 66.2046 62.4601 66.7593 62.5388C67.3126 62.6174 67.6166 62.3574 67.5526 61.8054C67.5193 61.5121 67.4406 61.2188 67.3406 60.9401C66.7606 59.3321 66.2006 57.7161 65.5753 56.1254C64.4126 53.1681 62.758 50.4934 60.7686 48.0214C59.7246 46.7241 58.598 45.5014 57.378 44.3694C56.0446 43.1321 54.638 41.9774 53.15 40.9254C51.4046 39.6921 49.5753 38.5948 47.666 37.6388C46.1233 36.8641 44.5353 36.1894 42.9073 35.6108C42.5086 35.4694 42.118 35.3001 41.7393 35.1148C40.4153 34.4654 39.1033 33.7921 37.7753 33.1494C36.4593 32.5134 35.106 31.9708 33.678 31.6361C32.43 31.3441 31.1753 31.2254 29.902 31.4881C28.6153 31.7534 27.4766 32.3148 26.4633 33.1481C26.254 33.3201 26.174 33.5108 26.27 33.7654C26.4246 34.1761 26.5913 34.5828 26.7393 34.9948C26.8993 35.4374 27.0553 35.8814 27.1873 36.3321C27.2446 36.5228 27.25 36.7334 27.2553 36.9361C27.27 37.4561 27.0313 37.8414 26.5806 38.0894C25.634 38.6121 24.6833 39.1268 23.7326 39.6428C22.8313 40.1334 21.882 40.3174 20.8713 40.0734C20.61 40.0108 20.382 40.0801 20.1393 40.1628C19.25 40.4681 18.3606 40.7748 17.4606 41.0454C17.058 41.1668 16.6326 41.2428 16.214 41.2708C15.8606 41.2948 15.4913 41.2588 15.146 41.1774C14.714 41.0774 14.5086 40.7694 14.4726 40.3214C14.4313 39.8094 14.5433 39.3241 14.7246 38.8494C15.1073 37.8468 15.65 36.9281 16.2166 36.0241C16.6846 35.2801 17.15 34.5348 17.6593 33.8188C17.9646 33.3881 18.3206 32.9801 18.71 32.6228C19.2966 32.0841 20.0353 31.8681 20.8233 31.8201C21.5833 31.7721 22.3233 31.9214 23.0633 32.0574C23.8486 32.2028 24.6326 32.3614 25.4206 32.4961C25.5806 32.5228 25.774 32.5081 25.9206 32.4414C26.89 32.0001 27.854 31.5441 28.814 31.0841C28.982 31.0028 29.138 30.8894 29.2806 30.7681C29.6353 30.4641 29.6273 30.1414 29.2326 29.8841C28.9593 29.7054 28.6566 29.5601 28.3486 29.4494C27.6846 29.2121 27.0113 28.9948 26.3366 28.7908C25.8393 28.6414 25.3553 28.4788 24.898 28.2228C24.106 27.7774 23.242 27.5294 22.3393 27.4988C21.5673 27.4721 20.7953 27.6014 20.09 27.9214C19.2913 28.2828 18.506 28.6814 17.7486 29.1214C16.8006 29.6734 15.898 30.3028 14.9553 30.8641C13.9393 31.4681 12.8726 31.9694 11.682 32.1174C10.9646 32.2068 10.2553 32.2441 9.55263 31.9548C8.89796 31.6868 8.19396 31.7454 7.50862 31.8481C6.49262 32.0001 5.53929 32.3668 4.58996 32.7388C4.07796 32.9401 3.57529 33.1601 3.05796 33.3441C2.68996 33.4748 2.31129 33.5921 1.92729 33.6534C1.51396 33.7201 1.30596 33.5188 1.30063 33.0974C1.29129 32.4841 1.44062 31.9094 1.83529 31.4281C2.15396 31.0414 2.51529 30.6908 2.83663 30.3068C3.06729 30.0321 3.27663 29.7374 3.46863 29.4348C3.62329 29.1908 3.65262 28.9214 3.59396 28.6228C3.44862 27.8908 3.63129 27.5014 4.27129 27.1281C4.56863 26.9548 4.88996 26.8228 5.19796 26.6681C5.64596 26.4441 6.07929 26.1854 6.54196 25.9988C7.29663 25.6921 8.05396 25.3788 8.83663 25.1641C10.4353 24.7241 12.078 24.5854 13.7313 24.6814C15.6633 24.7934 17.5566 25.1548 19.4206 25.6694C21.874 26.3454 24.258 27.2241 26.6566 28.0628C27.7073 28.4308 28.766 28.7774 29.822 29.1334C29.8806 29.1534 29.9406 29.1774 30.002 29.1854C30.0606 29.1934 30.166 29.2001 30.174 29.1788C30.1966 29.1161 30.2073 29.0268 30.1793 28.9681C29.8926 28.3841 29.494 27.8774 29.0286 27.4321C28.2526 26.6894 27.358 26.1134 26.4073 25.6161C24.706 24.7241 22.9086 24.0681 21.118 23.3948C19.5313 22.8001 17.934 22.2308 16.434 21.4321C15.9246 21.1601 15.4433 20.8308 14.962 20.5094C14.81 20.4068 14.674 20.2628 14.5686 20.1108C14.3166 19.7508 14.386 19.4774 14.7966 19.3374C15.134 19.2214 15.4953 19.1374 15.85 19.1201C17.1993 19.0494 18.5446 19.1308 19.8833 19.3281C21.7006 19.5961 23.4966 19.9668 25.246 20.5334C26.322 20.8814 27.3793 21.2748 28.3073 21.9508C28.7633 22.2828 29.0566 22.6801 29.0833 23.2734C29.1033 23.7414 29.1766 24.2108 29.2753 24.6694C29.678 26.5374 30.694 28.0294 32.1366 29.2521C33.5406 30.4428 35.1513 31.2948 36.8353 31.9921C38.9206 32.8561 41.042 33.6361 43.146 34.4561C43.4526 34.5748 43.7553 34.7068 44.0593 34.8348C44.5206 35.0281 44.9726 35.2081 45.4966 35.2281C46.0793 35.2508 46.614 35.5228 47.1393 35.7721C48.4326 36.3881 49.6313 37.1614 50.802 37.9801C53.234 39.6788 55.534 41.5508 57.886 43.3548C58.83 44.0801 59.8166 44.7508 60.7913 45.4348C60.954 45.5494 61.1526 45.6281 61.346 45.6828C61.6033 45.7548 61.7566 45.6148 61.694 45.3561C61.6366 45.1161 61.5326 44.8828 61.426 44.6574C61.1286 44.0334 60.798 43.4268 60.5193 42.7961C59.6793 40.9001 59.0313 38.9334 58.346 36.9788C57.5833 34.8041 56.8086 32.6308 55.9886 30.4761C55.3873 28.8921 54.6526 27.3628 53.746 25.9241C53.0753 24.8601 52.3246 23.8601 51.3393 23.0534C50.3246 22.2201 49.1793 21.7201 47.8673 21.6481C47.0433 21.6028 46.246 21.7881 45.4686 22.0481C44.2326 22.4588 43.142 23.1348 42.0993 23.8974C41.758 24.1468 41.4353 24.4214 41.102 24.6828C40.63 25.0521 40.13 25.3748 39.5526 25.5574C38.9126 25.7588 38.278 25.7588 37.6833 25.4268C37.2606 25.1908 36.862 24.9094 36.458 24.6414C36.17 24.4508 35.8966 24.2388 35.6086 24.0494C35.0526 23.6828 34.4513 23.4361 33.794 23.2988C32.95 23.1228 32.1073 22.9308 31.3286 22.5374C31.1753 22.4601 31.0273 22.3708 30.8793 22.2814C30.1793 21.8548 30.1366 21.1441 30.4393 20.5601C30.61 20.2308 30.85 19.9281 31.0993 19.6508C31.934 18.7308 32.898 17.9481 33.8393 17.1441C33.9593 17.0414 34.0793 16.9414 34.198 16.8388C34.7686 16.3388 35.402 16.2494 36.07 16.6014C36.4006 16.7748 36.702 17.0068 37.01 17.2228C37.37 17.4734 37.71 17.7548 38.0793 17.9908C38.5913 18.3174 39.0553 18.3508 39.5073 17.8374C39.6086 17.7214 39.7446 17.6321 39.8726 17.5441C40.3526 17.2161 40.858 17.1774 41.3913 17.4081C41.902 17.6294 42.334 17.9601 42.742 18.3348C43.3206 18.8641 43.9006 19.3908 44.4993 19.8974C44.9593 20.2881 45.4926 20.5534 46.098 20.6508C46.19 20.6668 46.2873 20.6948 46.3766 20.6788C46.9526 20.5761 47.5033 20.7308 48.0433 20.8761C48.8766 21.0988 49.6926 21.3828 50.5206 21.6241C50.8486 21.7201 51.1873 21.8094 51.5273 21.8374C51.958 21.8734 52.126 21.6881 52.1273 21.2521C52.1286 21.0961 52.1073 20.9388 52.074 20.7854C51.8273 19.6454 51.3846 18.5694 50.9313 17.5028C50.722 17.0121 50.3006 16.6708 49.826 16.4521C49.3006 16.2094 48.7593 15.9641 48.1993 15.8508C47.218 15.6521 46.222 15.5028 45.2246 15.4228C43.8353 15.3108 42.438 15.2988 41.046 15.2094C40.1086 15.1494 39.1753 15.0401 38.242 14.9268C37.9833 14.8961 37.7206 14.8028 37.4846 14.6868C37.0153 14.4548 36.9086 14.0468 37.2406 13.6414C37.5366 13.2801 37.8646 12.9254 38.2406 12.6521C39.038 12.0734 39.8726 11.5428 40.7006 11.0054C41.0206 10.7988 41.1073 10.6228 40.9633 10.2628C40.8886 10.0748 40.774 9.90144 40.686 9.71744C40.486 9.29877 40.5273 9.11077 40.8753 8.81877C41.2606 8.49744 41.2273 8.19343 40.7673 7.96676C40.6006 7.8841 40.41 7.85211 40.2353 7.78411C39.826 7.62544 39.394 7.50544 39.0193 7.2881C38.222 6.82944 38.1993 6.23077 38.9193 5.65877C39.718 5.0241 40.6526 4.65477 41.5966 4.30944C41.9206 4.19077 42.2473 4.07211 42.582 3.98944C42.842 3.92544 42.9726 3.77743 43.0686 3.53877C43.338 2.86943 43.6153 2.2041 43.914 1.5481C44.03 1.29477 44.1926 1.05476 44.3726 0.840096C44.694 0.457429 45.0233 0.396109 45.458 0.649443C45.7953 0.845443 46.1166 1.07477 46.4233 1.31743C47.3513 2.05343 48.3446 2.67477 49.458 3.08943C50.422 3.44677 51.4206 3.6361 52.446 3.67076C52.9166 3.68676 53.3873 3.6721 53.858 3.6761C54.4966 3.6801 54.942 4.00011 55.1033 4.61211C55.17 4.86544 55.1953 5.13877 55.186 5.40144C55.1713 5.7921 55.1073 6.1801 55.066 6.56944C55.0233 6.95877 55.054 7.0281 55.4246 7.1681C55.91 7.34943 56.3126 7.63744 56.6113 8.05744C56.982 8.58278 57.494 8.72943 58.098 8.6361C58.33 8.6001 58.5593 8.54544 58.79 8.49477C58.99 8.4521 59.166 8.4841 59.298 8.65076C59.6033 9.03076 59.9006 9.41877 60.0433 9.89344C60.1993 10.4148 60.134 10.8961 59.706 11.2694C59.4833 11.4641 59.2513 11.6681 58.9886 11.7908C58.1793 12.1681 57.346 12.4961 56.534 12.8681C55.8086 13.2014 55.082 13.5388 54.3846 13.9254C53.7326 14.2854 53.19 14.7894 52.8126 15.4454C52.302 16.3348 52.2393 17.2814 52.4473 18.2681C52.6873 19.4054 53.1873 20.4334 53.77 21.4228C54.1433 22.0561 54.5686 22.6614 54.9886 23.2668C55.1873 23.5534 55.298 23.5548 55.4473 23.2308C55.7873 22.4908 56.1246 21.7454 56.3966 20.9788C57.0686 19.0841 57.5286 17.1281 57.9686 15.1694C58.002 15.0161 58.0313 14.8614 58.074 14.7108C58.2406 14.1414 58.5686 13.8561 59.1633 13.8521C59.5993 13.8481 60.0366 13.9134 60.4713 13.9694C61.2553 14.0694 61.65 13.8814 62.0006 13.1801C62.5073 12.1668 63.0953 11.2054 63.814 10.3268C64.234 9.81477 64.71 9.36277 65.2886 9.0281C66.334 8.4241 67.4806 8.50278 68.3966 9.27611C68.6446 9.48544 68.8673 9.57211 69.198 9.52277C70.2566 9.36544 71.3233 9.33611 72.3833 9.51744C72.7966 9.58678 73.1993 9.73211 73.6033 9.85078C73.6926 9.87744 73.7753 9.92944 73.854 9.98011C74.474 10.3641 74.5526 10.8201 74.0913 11.3788C73.6833 11.8721 73.174 12.2334 72.5793 12.4681C71.9233 12.7268 71.258 12.9654 70.606 13.2334C70.2886 13.3628 69.9726 13.5121 69.686 13.6988C69.1593 14.0414 69.034 14.5121 69.2833 15.0881C69.358 15.2601 69.454 15.4268 69.566 15.5761C69.734 15.7988 69.718 15.9868 69.554 16.2121C69.1166 16.8081 68.5526 17.2441 67.914 17.5974C66.7046 18.2681 65.3753 18.5761 64.0486 18.9014C62.754 19.2174 61.458 19.5334 60.1833 19.9161C59.122 20.2361 58.142 20.7534 57.386 21.5894C56.298 22.7948 55.8366 24.2201 56.0206 25.8401C56.1793 27.2481 56.7046 28.5401 57.2846 29.8148C57.7846 30.9134 58.278 32.0161 58.79 33.1094C59.8433 35.3574 60.642 37.7028 61.498 40.0268C61.9913 41.3668 62.5086 42.6988 63.2553 43.9254C63.3846 44.1388 63.5313 44.3454 63.69 44.5388C63.8073 44.6828 63.9446 44.8201 64.0966 44.9268C64.5713 45.2574 65.0646 45.0814 65.2313 44.5241C65.638 43.1641 66.1846 41.8654 66.9073 40.6454C67.4193 39.7828 67.954 38.9321 68.4926 38.0854C68.8206 37.5694 69.154 37.0534 69.5233 36.5681C69.786 36.2228 69.866 35.8441 69.9206 35.4348C70.0713 34.2854 70.202 33.1308 70.41 31.9921C70.6526 30.6614 71.062 29.3734 71.6913 28.1681C72.57 26.4854 73.818 25.1641 75.4753 24.2134C76.2353 23.7788 76.95 23.2614 77.658 22.7441C77.9553 22.5254 78.2033 22.2281 78.4366 21.9361C78.7513 21.5441 78.926 21.0801 78.858 20.5761C78.766 19.8988 79.0833 19.4961 79.6673 19.2614C80.2366 19.0321 80.7353 18.7228 81.202 18.3094C82.0393 17.5694 83.0806 17.1868 84.1286 16.8481C85.8673 16.2854 87.6606 16.0041 89.4726 15.7974C91.3966 15.5774 93.3246 15.5801 95.2513 15.6428C96.566 15.6854 97.882 15.8254 99.1513 16.2081C99.6566 16.3601 100.158 16.5654 100.619 16.8228C101.255 17.1761 101.339 17.7988 100.878 18.3708C100.539 18.7921 100.095 19.0934 99.6393 19.3721C98.698 19.9468 97.682 20.3641 96.662 20.7708C96.5326 20.8228 96.3886 20.8614 96.2513 20.8588C95.262 20.8401 94.374 21.1948 93.5086 21.6108C92.9433 21.8814 92.402 22.1988 91.8513 22.5014C90.9833 22.9774 90.1086 23.4481 89.122 23.6241C88.1353 23.7988 87.1513 23.7921 86.21 23.3841C84.9873 22.8521 83.7073 22.5388 82.3806 22.5001C80.5273 22.4454 78.766 22.8641 77.1433 23.7788C74.526 25.2548 72.8313 27.4681 71.9886 30.3374C71.814 30.9361 71.7246 31.5628 71.6246 32.1801C71.5966 32.3548 71.6473 32.5561 71.7073 32.7294C71.8473 33.1294 72.1526 33.3174 72.5566 33.1854C72.97 33.0508 73.382 32.8708 73.7446 32.6334C74.3593 32.2308 74.942 31.7748 75.5273 31.3294C76.55 30.5494 77.5366 29.7214 78.6513 29.0681C79.2526 28.7148 79.8873 28.4628 80.598 28.4294C80.75 28.4228 80.9073 28.3721 81.0473 28.3094C82.7473 27.5388 84.542 27.1001 86.3793 26.8294C87.8073 26.6188 89.2433 26.5041 90.6846 26.4388C92.3286 26.3654 93.974 26.2921 95.6113 26.1428C96.858 26.0294 98.0953 25.8094 99.3326 25.6108C99.7473 25.5428 100.155 25.4134 100.555 25.2774C103.617 24.2388 106.695 23.2628 109.833 22.4748C111.917 21.9521 114.018 21.5001 116.149 21.2121C117.281 21.0588 118.423 20.9748 119.563 20.8934C120.359 20.8361 121.162 20.7894 121.959 20.8201C124.019 20.8974 126.057 21.1361 127.982 21.9441C129.529 22.5921 130.874 23.5108 131.879 24.8801C131.981 25.0174 132.103 25.1428 132.226 25.2628C133.01 26.0241 133.631 26.9094 134.145 27.8668C134.342 28.2374 134.467 28.6481 134.605 29.0468C134.654 29.1908 134.662 29.3574 134.653 29.5108C134.63 29.8628 134.449 30.0588 134.095 30.0988C133.589 30.1534 133.085 30.1174 132.627 29.8734C131.865 29.4654 131.057 29.2921 130.195 29.2254C129.314 29.1588 128.443 29.2841 127.566 29.2548C126.457 29.2201 125.377 29.1054 124.393 28.5294C124.271 28.4588 124.086 28.4388 123.946 28.4681C123.455 28.5681 122.971 28.7028 122.485 28.8201C121.982 28.9414 121.481 29.0668 120.975 29.1708C120.338 29.3028 119.73 29.1614 119.138 28.9281C118.993 28.8708 118.843 28.8028 118.693 28.7881C117.525 28.6801 116.786 27.9801 116.246 27.0188C115.955 26.4988 115.721 25.9481 115.435 25.4254C115.218 25.0268 114.973 24.6428 114.719 24.2668C114.475 23.9068 114.127 23.6548 113.726 23.5028C113.514 23.4228 113.269 23.3814 113.045 23.4001C111.577 23.5228 110.11 23.6521 108.645 23.8068C106.977 23.9828 105.307 24.1614 103.69 24.6454C102.783 24.9161 101.905 25.2508 101.167 25.8681C100.978 26.0268 100.805 26.2148 100.654 26.4121C100.511 26.6014 100.551 26.6734 100.779 26.7361C101.279 26.8694 101.787 26.9761 102.277 27.1401C103.337 27.4974 104.311 28.0401 105.277 28.5961C106.295 29.1814 107.362 29.6921 108.265 30.4628C108.73 30.8601 109.202 31.2508 109.637 31.6788C110.822 32.8454 111.997 34.0228 113.163 35.2081C113.837 35.8934 114.621 36.3588 115.538 36.6654C117.549 37.3388 119.598 37.8654 121.643 38.4148C123.386 38.8828 125.118 39.3894 126.774 40.1188C128.494 40.8748 130.106 41.8041 131.415 43.1828C131.561 43.3348 131.718 43.5254 131.758 43.7214C131.922 44.5294 132.382 45.1521 132.926 45.7268C133.282 46.1028 133.662 46.4561 134.019 46.8308C134.223 47.0454 134.418 47.2748 134.591 47.5161C134.919 47.9734 135.126 48.4788 135.053 49.0561C135.029 49.2521 134.99 49.4641 134.894 49.6308C134.414 50.4641 134.159 51.3614 134.097 52.3134C134.051 53.0174 134.047 53.7228 133.995 54.4254C133.917 55.5188 133.969 56.6241 133.729 57.7028C133.621 58.1908 133.467 58.6708 133.319 59.1494C133.222 59.4628 133.099 59.7694 132.986 60.0788C132.937 60.2108 132.897 60.3481 132.829 60.4708C132.578 60.9281 132.211 61.0961 131.725 60.9068C131.363 60.7668 131.013 60.5708 130.702 60.3401C129.846 59.7054 129.022 59.0268 128.169 58.3881C127.325 57.7561 126.433 57.1974 125.407 56.9014C125.077 56.8054 124.738 56.7374 124.398 56.6841C124.161 56.6468 123.997 56.5548 123.887 56.3308C123.55 55.6388 122.982 55.2361 122.246 55.0294C121.735 54.8868 121.235 54.7001 120.731 54.5281C120.407 54.4174 120.301 54.1881 120.286 53.8441C120.254 53.1254 120.213 52.4028 120.098 51.6934C119.901 50.4614 119.499 50.1334 118.254 50.0588C117.107 49.9908 116.035 49.6788 115.038 49.1014C114.775 48.9481 114.619 48.7468 114.518 48.4668C114.181 47.5401 114.187 46.5828 114.314 45.6308C114.467 44.4814 114.699 43.3428 114.873 42.1961C115.019 41.2321 115.062 40.2654 114.847 39.2988C114.651 38.4161 114.258 37.6401 113.642 36.9921C112.562 35.8548 111.478 34.7201 110.357 33.6228C109.259 32.5494 108.13 31.5041 106.882 30.6001C105.849 29.8521 104.774 29.1801 103.539 28.8054C102.994 28.6401 102.439 28.5534 101.869 28.5948C101.59 28.6161 101.546 28.6841 101.614 28.9601C101.962 30.3761 102.302 31.7934 102.665 33.2054C102.789 33.6894 102.949 34.1681 103.127 34.6361C103.449 35.4828 103.937 36.2294 104.581 36.8668C104.793 37.0761 104.899 37.3014 104.941 37.6014C104.997 38.0188 105.138 38.4241 105.214 38.8401C105.275 39.1788 105.323 39.5241 105.323 39.8654C105.323 40.0934 105.262 40.3348 105.17 40.5454C105.011 40.9134 105.049 41.2494 105.241 41.5801C105.342 41.7561 105.458 41.9254 105.569 42.0961C105.994 42.7534 105.949 43.4441 105.443 44.0468C105.139 44.4068 104.758 44.6468 104.303 44.7534C103.799 44.8721 103.29 44.9601 102.783 45.0694C102.401 45.1508 102.019 45.2401 101.639 45.3348C101.034 45.4828 100.626 45.8654 100.349 46.4148C100.166 46.7788 99.9606 47.1321 99.7593 47.4854C99.586 47.7894 99.318 47.9828 98.9766 48.0348C98.8393 48.0548 98.6393 48.0241 98.5486 47.9334C97.638 47.0281 96.47 46.6134 95.3073 46.1761C94.9126 46.0281 94.526 45.8508 94.1513 45.6548C93.6353 45.3868 93.214 45.0001 93.0326 44.4348C92.766 43.6014 92.43 42.7881 92.2966 41.9108C92.1006 40.6241 92.4726 39.5254 93.3286 38.5734C93.8166 38.0308 94.3993 37.6041 95.0246 37.2388C96.1353 36.5921 97.2713 35.9854 98.3686 35.3161C98.9126 34.9828 99.4313 34.5868 99.8966 34.1521C100.874 33.2388 101.235 32.1001 100.978 30.7748C100.838 30.0588 100.557 29.3974 100.245 28.7441C100.137 28.5161 99.942 28.3961 99.7246 28.2921C98.614 27.7588 97.446 27.4068 96.2366 27.1868C95.2326 27.0054 94.222 26.9054 93.198 26.8841C88.118 26.7774 83.3873 28.0628 78.938 30.4534C77.0193 31.4841 75.2966 32.7868 73.8313 34.4148C73.33 34.9734 73.326 34.9628 73.9953 35.3161C75.1553 35.9254 76.2046 36.6868 77.1553 37.5894C78.1366 38.5214 79.03 39.5308 79.798 40.6441C80.0766 41.0468 80.4406 41.2948 80.8926 41.3961C81.3646 41.5014 81.85 41.5868 82.3313 41.6001C83.398 41.6281 84.4646 41.6028 85.5313 41.6068C86.0846 41.6094 86.6246 41.7041 87.142 41.9068C88.2273 42.3334 88.7633 43.2028 88.978 44.2908C89.0313 44.5548 88.9633 44.8548 88.898 45.1254C88.75 45.7401 88.8606 46.2694 89.2993 46.7374C89.398 46.8428 89.4753 47.0054 89.4886 47.1494C89.5633 47.9974 89.9686 48.6948 90.442 49.3708C90.802 49.8841 91.1713 50.3934 91.49 50.9308C91.8393 51.5201 91.97 52.1548 91.678 52.8214C91.5126 53.2014 91.2713 53.4588 90.8406 53.5668C90.0326 53.7708 89.3606 54.2348 88.754 54.7961C88.118 55.3854 87.5846 56.0628 87.0686 56.7548C86.7313 57.2081 86.4046 57.6694 86.054 58.1108C85.8686 58.3414 85.6606 58.5628 85.4286 58.7454C84.974 59.1054 84.6006 59.0534 84.2646 58.5841C84.0753 58.3188 83.8966 58.0294 83.7846 57.7241C83.5406 57.0641 83.2993 56.3961 83.1406 55.7108C83.0433 55.2868 82.8166 55.0921 82.442 54.9921C82.3206 54.9601 82.1886 54.9668 82.0726 54.9254C81.898 54.8641 81.698 54.8148 81.5713 54.6934C81.1166 54.2534 80.5606 54.0134 79.9793 53.8121C79.6233 53.6894 79.2646 53.5761 78.9073 53.4548C78.7446 53.3988 78.582 53.3401 78.4233 53.2734C77.6113 52.9334 77.2193 52.3081 77.182 51.4428C77.1513 50.7534 77.0846 50.6481 76.4366 50.4414C76.0633 50.3214 75.6753 50.2521 75.298 50.1468C75.0113 50.0668 74.722 49.9868 74.4486 49.8721C73.9326 49.6561 73.6353 49.2508 73.6966 48.6908C73.7793 47.9321 73.8393 47.1601 74.174 46.4521C74.4113 45.9521 74.718 45.4988 75.1113 45.1068C75.7553 44.4641 76.4113 43.8334 77.042 43.1774C77.3233 42.8854 77.5833 42.5641 77.8033 42.2254C77.9806 41.9534 78.102 41.6401 78.218 41.3348C78.3793 40.9068 78.3086 40.5294 78.0033 40.1574C77.278 39.2721 76.586 38.3574 75.7393 37.5788C75.1833 37.0668 74.578 36.6214 73.8766 36.3228C73.2166 36.0428 72.5406 35.9694 71.862 36.2268C71.6526 36.3054 71.4286 36.4414 71.2953 36.6161C69.8846 38.4641 68.5726 40.3801 67.5486 42.4734C66.9326 43.7294 66.4326 45.0334 66.1873 46.4201C66.0273 47.3214 65.986 48.2228 66.122 49.1348C66.218 49.7668 66.4446 50.3414 66.7486 50.8961C67.6833 52.6081 68.4073 54.4121 69.0646 56.2441C70.11 59.1574 70.894 62.1454 71.678 65.1348C72.1766 67.0308 72.6966 68.9214 73.21 70.8134C73.3606 71.3668 73.4073 71.3721 73.8753 71.0068C77.2726 68.3574 81.0513 66.5281 85.3046 65.7494C86.242 65.5774 87.2006 65.5228 88.15 65.4148C88.1966 65.4094 88.2433 65.4121 88.29 65.4054C89.0073 65.3161 88.922 65.2788 88.958 64.7028C89.0153 63.7961 89.046 62.8774 89.4433 62.0348C89.6153 61.6681 89.7913 61.2801 90.058 60.9868C90.7606 60.2121 90.9593 59.2881 91.0033 58.2948C91.0286 57.7161 91.0393 57.1361 91.0913 56.5601C91.1966 55.3894 91.886 54.6148 92.8526 54.0441C93.61 53.5961 94.4513 53.3921 95.3113 53.2948C95.7713 53.2441 96.0873 53.0668 96.35 52.6854C96.9753 51.7761 97.7206 50.9641 98.6233 50.3241C99.1046 49.9814 99.6326 49.6881 100.174 49.4494C100.761 49.1921 101.377 48.9921 101.997 48.8241C103.369 48.4548 104.669 48.6721 105.887 49.3974C106.539 49.7868 107.119 50.2681 107.619 50.8361C107.899 51.1561 108.193 51.2508 108.614 51.1614C109.802 50.9054 111.011 50.8614 112.219 50.9388C113.198 51.0001 114.149 51.2214 114.983 51.7694C115.307 51.9828 115.591 52.2588 115.881 52.5214C116.11 52.7294 116.151 53.0041 116.095 53.3014C115.979 53.9201 115.601 54.3534 115.066 54.6308C114.61 54.8681 114.117 55.0361 113.635 55.2228C113.402 55.3134 113.154 55.3654 112.919 55.4548C112.613 55.5708 112.519 55.6988 112.547 56.0254C112.566 56.2401 112.627 56.4574 112.703 56.6601C112.813 56.9534 112.954 57.2348 113.078 57.5228C113.139 57.6668 113.201 57.8121 113.243 57.9628C113.43 58.6294 113.237 59.0161 112.591 59.2574C111.835 59.5414 111.069 59.6934 110.245 59.5948C109.282 59.4788 108.309 59.4374 107.341 59.3761C107.139 59.3641 106.933 59.3934 106.734 59.4348C106.271 59.5308 105.945 59.7948 105.783 60.2521C105.518 61.0028 104.987 61.4894 104.23 61.6974C103.811 61.8134 103.371 61.8908 102.938 61.9148C101.37 62.0028 99.85 61.6801 98.3366 61.3134C97.682 61.1548 97.026 60.9988 96.3713 60.8348C96.19 60.7894 96.0086 60.7334 95.8366 60.6614C94.4566 60.0761 93.1406 60.2348 91.874 60.9881C91.2673 61.3494 90.802 61.8401 90.47 62.4721C90.0846 63.2068 90.0593 63.9681 90.214 64.7588C90.2793 65.0961 90.446 65.3334 90.7753 65.4508C91.3806 65.6654 91.978 65.9028 92.5913 66.0921C93.37 66.3321 94.1633 66.5254 94.946 66.7534C95.6286 66.9521 96.2606 67.2641 96.866 67.6334C97.4966 68.0188 98.214 68.1374 98.9273 68.2414C100.357 68.4481 101.797 68.5081 103.241 68.5308C104.526 68.5521 105.813 68.5601 107.095 68.6414C108.567 68.7348 110.03 68.9134 111.417 69.4801C113.337 70.2654 114.267 71.6708 114.313 73.7428C114.326 74.3841 114.445 74.8454 114.985 75.2588C115.805 75.8854 116.301 76.7681 116.533 77.7774C116.814 79.0014 116.609 80.1108 115.699 81.0388C115.415 81.3294 115.083 81.5148 114.682 81.5828C114.327 81.6441 113.969 81.6974 113.622 81.7921C113.041 81.9494 112.953 82.1508 112.985 82.7468C113.051 83.9521 113.126 85.1628 112.817 86.3508C112.666 86.9321 112.434 87.4748 112.085 87.9708C111.351 89.0094 110.337 89.2974 109.146 89.0694C108.059 88.8614 107.175 88.2841 106.467 87.4388C106.057 86.9494 105.787 86.8374 105.195 87.0814C104.722 87.2774 104.287 87.5694 103.838 87.8214C103.565 87.9748 103.303 88.1521 103.023 88.2908C102.135 88.7308 101.262 88.6721 100.425 88.1561C100.065 87.9348 99.7193 87.6868 99.382 87.4321C98.6446 86.8708 98.21 86.1428 98.166 85.1974C98.142 84.6948 97.99 84.5401 97.494 84.4508C97.3553 84.4268 97.2113 84.4134 97.0726 84.4214C96.3846 84.4601 95.69 84.4641 95.0113 84.5668C94.302 84.6734 93.6873 84.5494 93.0926 84.1521C92.282 83.6094 91.7113 82.9108 91.59 81.9268C91.498 81.1908 91.5686 80.4588 91.79 79.7401C92.1646 78.5321 92.7073 77.4001 93.394 76.3468C94.342 74.8868 95.3406 73.4601 96.3126 72.0148C96.7406 71.3774 97.1633 70.7361 97.5686 70.0828C97.7953 69.7188 97.7753 69.7094 97.4913 69.3974C96.25 68.0308 94.6793 67.2721 92.8926 66.9174C90.782 66.4988 88.7353 66.7161 86.786 67.6321C86.21 67.9014 85.6713 68.2734 85.1633 68.6614C84.5926 69.0988 84.0726 69.6028 83.538 70.0868C83.3993 70.2121 83.2766 70.3588 83.1673 70.5108C82.6553 71.2188 82.67 71.7721 83.2753 72.4108C83.65 72.8081 84.0553 73.1921 84.5006 73.5041C85.494 74.2014 85.7526 75.7428 85.058 76.6441C84.898 76.8494 84.902 77.0601 84.9886 77.2628C85.2033 77.7668 85.4393 78.2601 85.678 78.7534C85.794 78.9934 85.9353 79.2201 86.0606 79.4561C86.3713 80.0361 86.5246 80.6481 86.4806 81.3121C86.458 81.6548 86.4753 82.0014 86.4753 82.3468C86.4766 83.0654 86.1806 83.6401 85.5593 83.9881C85.0966 84.2454 84.5886 84.4214 84.0966 84.6254C83.8073 84.7441 83.5126 84.8508 83.2153 84.9521C82.942 85.0441 82.822 85.2241 82.8073 85.5121C82.746 86.7321 82.33 87.8428 81.6966 88.8708C81.4686 89.2401 81.1833 89.5908 80.862 89.8801C79.838 90.8054 78.6726 90.3068 78.0953 89.3241C78.022 89.2001 78.03 89.0241 78.0126 88.8694C77.978 88.5428 77.9593 88.2148 77.922 87.8881C77.8553 87.3188 77.5713 86.8614 77.0713 86.6041C76.102 86.1068 75.6393 85.2774 75.4366 84.2641C75.3366 83.7574 75.2646 83.2441 75.2006 82.7308C75.174 82.5201 75.1233 82.3388 74.974 82.1801C74.618 81.8014 74.554 81.3481 74.6953 80.8654C74.7833 80.5654 74.906 80.2761 75.0086 79.9801C75.122 79.6534 75.2473 79.3308 75.3326 78.9974C75.426 78.6401 75.3446 78.3028 75.058 78.0548C74.8086 77.8414 74.5513 77.6281 74.2673 77.4694C73.8673 77.2454 73.614 77.3641 73.478 77.8001C73.3246 78.2908 73.3446 78.8014 73.4206 79.2934C73.8526 82.0988 73.7966 84.9228 73.7433 87.7441C73.7193 89.0281 73.6366 90.3121 73.5566 91.5948C73.4446 93.3641 73.366 95.1334 73.398 96.9054C73.406 97.3601 73.446 97.8134 73.4846 98.2668C73.5073 98.5454 73.5806 98.6054 73.8686 98.6401C73.9153 98.6454 73.962 98.6454 74.01 98.6468C75.1686 98.6814 76.33 98.6961 77.4886 98.7574C78.7553 98.8241 80.0206 98.9268 81.286 99.0268C82.5846 99.1281 83.87 99.3241 85.142 99.6081C86.2166 99.8468 87.2633 100.172 88.262 100.643C90.2406 101.576 91.642 103.008 92.1513 105.192C92.41 106.305 92.3753 107.439 92.25 108.563C92.0766 110.115 91.5713 111.584 91.0993 113.065C90.762 114.121 90.53 115.22 90.3513 116.316C90.0846 117.955 89.9073 119.608 89.6873 121.255C89.4633 122.933 89.2686 124.616 88.9966 126.285C88.6566 128.367 88.11 130.393 87.1566 132.292C86.6833 133.239 86.074 134.091 85.3753 134.881C85.118 135.172 84.8153 135.349 84.438 135.468C82.0406 136.221 79.6033 136.813 77.1313 137.259C75.526 137.548 73.914 137.789 72.2846 137.897C70.9246 137.987 69.5646 138.061 68.2033 138.143Z" fill="#5EC0AF"/>
</svg>
