<svg width="134" height="132" viewBox="0 0 134 132" fill="none" xmlns="http://www.w3.org/2000/svg">
<path d="M26.8168 128.963C26.8021 127.915 27.0488 127.028 27.2341 126.135C28.2021 121.465 29.1955 116.803 30.1528 112.132C30.7328 109.297 31.2808 106.456 31.8128 103.612C32.0795 102.181 32.3768 100.76 32.7701 99.3572C33.2208 97.7505 33.4381 96.0972 33.6541 94.4478C33.7915 93.4012 34.0288 92.3825 34.3515 91.3838C34.7168 90.2505 34.9155 89.0825 35.0941 87.9118C35.3541 86.1918 35.6488 84.4825 36.0715 82.7905C36.4168 81.4105 36.6501 80.0025 36.9501 78.6105C37.3301 76.8372 37.7341 75.0692 38.1155 73.2958C38.2595 72.6212 38.3781 71.9412 38.4875 71.2612C38.6501 70.2518 38.3355 69.4758 37.4715 68.8545C35.4875 67.4265 33.5501 65.9372 31.5901 64.4758C29.1381 62.6465 26.6808 60.8265 24.2328 58.9905C22.1808 57.4532 20.1475 55.8905 18.0941 54.3572C16.4968 53.1638 14.8701 52.0078 13.2728 50.8145C10.8328 48.9945 8.40213 47.1638 5.97946 45.3225C4.90613 44.5052 3.84479 43.6705 2.80879 42.8065C1.86746 42.0238 1.21146 41.0265 0.818125 39.8625C0.695459 39.5012 0.724792 39.1638 0.910126 38.8225C1.32479 38.0612 1.92346 37.5892 2.80346 37.4678C4.37679 37.2492 5.94613 37.0012 7.51679 36.7705C9.29679 36.5092 11.0755 36.2452 12.8568 35.9998C14.1621 35.8185 15.4715 35.6625 16.7795 35.4998C18.0888 35.3372 19.3981 35.1852 20.7061 35.0225C22.0141 34.8598 23.3221 34.6985 24.6288 34.5185C26.1875 34.3052 27.7435 34.0705 29.3008 33.8465C31.0955 33.5878 32.8901 33.3292 34.6848 33.0758C36.4808 32.8212 38.2755 32.5665 40.0715 32.3212C41.6008 32.1118 43.1341 31.9292 44.6608 31.7105C46.2928 31.4772 47.9195 31.2158 49.5488 30.9665C50.5701 30.8105 51.5888 30.6198 52.6155 30.5052C53.6675 30.3852 54.3208 29.7985 54.7861 28.8998C55.2008 28.1025 55.6488 27.3212 56.0955 26.5398C57.4021 24.2478 58.7101 21.9558 60.0301 19.6718C60.5115 18.8412 61.0475 18.0438 61.5248 17.2118C62.5635 15.4038 63.5741 13.5812 64.6075 11.7718C65.9088 9.49318 67.2261 7.22384 68.5248 4.94251C69.2448 3.67984 69.9475 2.40651 70.6435 1.12918C70.9995 0.477177 71.5221 0.131844 72.2715 0.129177C72.6381 0.12651 72.9235 0.282513 73.0955 0.586513C73.8608 1.93718 74.8755 3.10651 75.8075 4.33584C77.6808 6.80918 79.5981 9.25051 81.4568 11.7358C83.8448 14.9305 86.1875 18.1585 88.5581 21.3665C90.0021 23.3198 91.4635 25.2598 92.9128 27.2092C93.3501 27.7998 93.7701 28.4025 94.2088 28.9932C94.9381 29.9758 95.9248 30.4305 97.1475 30.4678C98.0581 30.4945 98.9688 30.5998 99.8781 30.6812C101.011 30.7838 102.143 30.8998 103.277 31.0065C104.171 31.0905 105.067 31.1612 105.961 31.2492C107.541 31.4052 109.118 31.5918 110.699 31.7252C111.818 31.8198 112.943 31.8385 114.063 31.9105C114.841 31.9598 115.615 32.0438 116.391 32.1118C117.271 32.1905 118.151 32.2652 119.031 32.3492C120.09 32.4505 121.147 32.5585 122.206 32.6652C123.234 32.7705 124.259 32.8985 125.29 32.9785C126.379 33.0652 127.474 33.0878 128.563 33.1758C129.489 33.2492 130.41 33.3772 131.333 33.4812C131.69 33.5198 132.047 33.5478 132.403 33.5945C133.078 33.6838 133.455 34.1052 133.674 34.7198C133.773 34.9998 133.759 35.2292 133.574 35.4732C133.237 35.9145 132.923 36.3718 132.607 36.8278C131.555 38.3438 130.526 39.8745 129.447 41.3705C128.889 42.1478 128.243 42.8638 127.639 43.6078C127.526 43.7478 127.414 43.8905 127.317 44.0398C125.59 46.6945 123.695 49.2292 121.813 51.7718C120.618 53.3865 119.363 54.9558 118.135 56.5465C118.081 56.6172 118.017 56.6852 117.978 56.7638C117.293 58.1292 116.262 59.2558 115.418 60.5118C115.017 61.1078 114.589 61.6892 114.15 62.2585C113.811 62.6998 113.775 63.1278 114.001 63.6398C114.795 65.4532 115.505 67.2985 116.137 69.1785C116.555 70.4252 117.126 71.6225 117.629 72.8425C118.222 74.2838 118.863 75.7078 119.394 77.1718C120.147 79.2452 120.957 81.2932 121.774 83.3412C122.514 85.1918 123.173 87.0758 123.877 88.9412C124.417 90.3732 124.994 91.7878 125.694 93.1532C126.039 93.8278 126.303 94.5558 126.521 95.2852C127.022 96.9558 127.674 98.5665 128.327 100.179C129.07 102.013 129.845 103.836 130.567 105.679C130.982 106.739 131.321 107.829 131.695 108.905C131.849 109.344 131.881 109.781 131.721 110.227C131.586 110.6 131.463 110.705 131.067 110.727C130.154 110.775 129.283 110.637 128.453 110.215C127.974 109.972 127.462 109.777 126.945 109.636C125.453 109.224 124.019 108.648 122.569 108.119C119.962 107.169 117.354 106.227 114.742 105.292C114.221 105.105 113.682 104.963 113.147 104.815C111.51 104.361 109.961 103.667 108.371 103.081C106.557 102.415 104.713 101.824 102.887 101.184C99.4501 99.9772 96.0141 98.7625 92.5808 97.5425C90.1088 96.6638 87.6408 95.7718 85.1701 94.8865C84.0408 94.4812 82.9075 94.0892 81.7835 93.6692C81.4141 93.5305 81.0848 93.5265 80.7608 93.7505C79.8635 94.3758 78.9515 94.9825 78.0701 95.6305C74.5328 98.2345 70.9995 100.845 67.4755 103.469C66.6341 104.095 65.8448 104.791 65.0168 105.433C64.2115 106.057 63.3941 106.669 62.5661 107.263C59.6048 109.384 56.6221 111.479 53.6728 113.617C50.9781 115.572 48.3168 117.572 45.6381 119.548C43.1635 121.372 40.6915 123.199 38.2088 125.009C36.0528 126.581 33.8795 128.132 31.7195 129.699C31.1128 130.139 30.5208 130.6 29.9301 131.06C29.6821 131.253 29.4208 131.353 29.1008 131.34C28.6821 131.323 28.2595 131.317 27.8421 131.341C27.4981 131.36 27.3275 131.215 27.2155 130.901C26.9755 130.233 26.7768 129.561 26.8168 128.963Z" fill="#EAEB81"/>
</svg>
