<svg width="131" height="133" viewBox="0 0 131 133" fill="none" xmlns="http://www.w3.org/2000/svg">
<path d="M56.1174 77.683C56.1907 78.291 56.228 78.6989 56.292 79.1029C56.644 81.2883 58.136 82.6776 59.7547 83.9443C62.7 86.2496 66.3054 87.1376 69.7027 88.4643C69.9427 88.5576 70.3627 88.3176 70.632 88.1323C70.7107 88.0776 70.6267 87.631 70.4974 87.4523C69.9454 86.6936 69.312 85.9909 68.772 85.2229C66.1 81.4243 63.4814 77.5869 60.756 73.8269C60.272 73.1589 59.3534 72.367 58.6627 72.3923C57.6587 72.427 57.044 73.4896 56.6427 74.467C56.6147 74.5376 56.5827 74.6096 56.572 74.683C56.4094 75.7456 56.2494 76.8083 56.1174 77.683ZM84.7054 75.5736C84.008 75.619 83.3094 75.6443 82.616 75.7136C79.884 75.9856 77.416 76.7843 75.6814 79.1163C74.6254 80.535 74.6174 82.035 75.696 83.423C77.0547 85.1723 78.3934 86.9389 79.7307 88.7056C80.2227 89.3576 80.8347 89.735 81.6747 89.6683C82.0987 89.635 82.524 89.6123 82.9467 89.5736C86.6854 89.231 90.1574 88.1883 93.0987 85.7323C94.588 84.4883 94.944 82.727 95.0214 80.9763C95.0854 79.5176 94.0694 78.5003 92.8387 77.7776C90.3294 76.3043 87.616 75.587 84.7054 75.5736ZM48.068 27.3043C47.952 23.2056 46.048 19.7376 43.5534 16.7789C39.364 11.8109 33.888 8.61895 27.6907 6.60962C24.5147 5.57895 21.2574 5.24428 17.976 4.96295C17.7054 4.94028 17.312 5.14162 17.1587 5.36428C17.0667 5.49895 17.2707 5.92028 17.44 6.13628C17.832 6.63494 18.3227 7.05894 18.704 7.56428C20.664 10.1563 22.596 12.7696 24.5494 15.367C28.344 20.4163 32.1507 25.4576 35.9454 30.5083C37.156 32.1203 38.3987 33.7123 39.5134 35.3896C40.1187 36.3016 40.984 36.6523 41.9107 36.0229C42.7267 35.4696 43.5347 34.8989 44.316 34.2976C46.604 32.5323 48.116 30.3416 48.068 27.3043ZM85.1854 63.7896C83.4854 63.7896 81.7694 63.6416 80.088 63.8163C74.9707 64.3496 70.0054 65.5629 65.224 67.4936C64.4067 67.8229 64.296 68.1389 64.8174 68.8443C66.0387 70.4936 67.2734 72.131 68.4787 73.791C69.3254 74.9563 69.8347 74.9896 71.112 74.2869C72.5654 73.4856 74.0547 72.6616 75.6294 72.1869C79.04 71.1603 82.584 71.0056 86.108 71.3603C91.2694 71.8803 96.1067 73.3016 100.105 76.8723C102.951 79.4149 103.537 83.131 101.357 86.2496C99.0174 89.5963 95.8494 91.815 91.8667 92.8336C89.82 93.3563 87.7774 93.8936 85.74 94.4456C84.6627 94.7376 84.5427 95.0243 85.1467 95.9336C86.0267 97.2616 86.912 98.5923 87.8667 99.867C88.488 100.698 89.296 101.431 90.44 101.19C91.7294 100.918 93.0467 100.623 94.244 100.095C98.3587 98.2843 102.48 96.4723 106.499 94.463C111.08 92.171 114.981 89.1189 117.287 84.2989C118.18 82.4283 118.848 80.5283 118.352 78.6056C117.813 76.519 116.629 74.5856 114.937 73.1616C111.857 70.5696 108.335 68.6229 104.656 67.0736C98.4534 64.4629 91.9174 63.4269 85.1854 63.7896ZM22.8867 74.8989C22.8867 75.1269 22.8774 75.355 22.8894 75.5816C22.9014 75.8096 22.9414 76.0349 22.956 76.2616C23.2774 81.4723 25.148 86.0589 29.0094 89.5749C31.1787 91.5496 33.7107 93.1723 36.228 94.707C40.008 97.0123 44.2534 98.279 48.4907 99.403C56.8854 101.63 65.408 103.072 74.1494 102.806C76.132 102.744 78.12 102.824 80.1054 102.784C80.3854 102.779 80.7534 102.518 80.9 102.268C80.988 102.12 80.768 101.731 80.6067 101.507C79.4814 99.943 78.2494 98.4483 77.224 96.8216C76.4427 95.5816 75.4907 94.8483 74.024 94.7523C71.7987 94.607 69.5547 94.5643 67.356 94.2296C61.6414 93.363 56.2294 91.5323 51 89.043C47.756 87.5003 44.9627 85.483 42.7174 82.7163C42.1094 81.967 41.6774 81.0563 41.26 80.175C40.8334 79.2736 40.5454 78.3083 40.1614 77.3856C39.7827 76.4776 40.6294 72.8896 40.836 71.9923C41.0787 70.9336 43 68.6056 43.2734 68.231C44.6654 66.3283 46.4067 64.8589 48.52 63.8149C49.4734 63.3443 50.412 62.8416 51.3454 62.3336C52.096 61.9243 52.1147 61.6616 51.516 61.071C51.1827 60.7416 50.8427 60.4083 50.572 60.0296C48.3627 56.9416 46.1707 53.8403 43.9694 50.7443C43.1307 49.5656 42.1854 49.475 41.092 50.4243C40.3347 51.0816 39.592 51.767 38.768 52.3296C33.3254 56.047 28.9147 60.7403 25.4747 66.3456C23.8707 68.9603 23.2014 71.8843 22.8867 74.8989ZM0.0813691 76.9096C0.0813691 76.4229 0.121368 75.9323 0.0733685 75.451C-0.113298 73.5843 0.316036 71.8963 1.4507 70.3923C1.5867 70.211 1.71604 70.0083 1.78137 69.7963C2.97737 65.9349 5.9427 63.3189 8.44404 60.3923C12.592 55.5376 17.828 51.9416 22.9707 48.2816C26.7787 45.5696 30.808 43.1696 34.7374 40.6296C35.9227 39.8629 35.9787 39.4883 35.132 38.3403C29.5774 30.8096 24.016 23.2843 18.48 15.7416C15.1174 11.1603 11.792 6.55095 8.4627 1.94695C8.32404 1.75628 8.18404 1.43228 8.25737 1.26295C8.32804 1.10028 8.67071 0.984277 8.90137 0.970943C20.8267 0.29361 32.3134 2.08561 42.9467 7.69228C47.0774 9.87094 50.9014 12.6723 54.6907 15.4283C56.0054 16.3856 56.7947 18.0656 57.824 19.4149C59.3987 21.4789 60.6307 23.7256 60.8027 26.3523C60.9147 28.0683 60.7627 29.8083 60.6374 31.531C60.5654 32.5083 60.472 33.5403 60.104 34.4296C58.08 39.3083 54.0387 42.1843 49.6667 44.7043C49.3254 44.9016 48.9787 45.0936 48.6467 45.3083C47.8267 45.8376 47.7174 46.395 48.324 47.163C50.5267 49.9523 52.7534 52.723 54.9507 55.5163C55.4574 56.159 55.932 56.835 56.3414 57.5416C57.1734 58.9776 57.9707 59.3416 59.5907 58.9696C62.876 58.2136 66.152 57.4069 69.4574 56.7429C73.608 55.9109 77.8027 55.5563 82.0507 55.8016C85.3387 55.991 88.668 55.7589 91.924 56.1603C99.832 57.1349 107.611 58.743 114.841 62.3016C117.293 63.5083 119.869 64.5576 122.101 66.0976C124.505 67.755 126.685 69.787 128.744 71.8736C130.231 73.3803 130.512 75.6083 130.741 77.599C131 79.851 130.771 82.179 130.573 84.459C130.375 86.7656 129.057 88.5656 127.6 90.3043C124.32 94.215 119.96 96.6003 115.573 98.927C110.563 101.584 105.439 104.012 99.96 105.583C98.1654 106.098 96.3387 106.506 94.5347 106.99C93.4547 107.279 93.428 107.562 94.0614 108.45C95.4347 110.376 98.8147 119.827 98.872 120.628C98.948 121.714 98.6147 122.606 98.0867 123.578C96.9907 125.592 95.1374 126.554 93.3387 127.723C89.3987 130.282 84.9774 131.199 80.4507 131.768C71.7307 132.864 63.452 131.098 55.508 127.586C53.076 126.512 50.7894 125.107 49.0574 123.002C47.4454 121.04 47.6067 118.522 49.32 116.667C51.404 114.411 54.1334 113.528 56.9707 112.702C60.38 111.708 63.8 111.792 67.2694 112.031C69.6614 112.195 72.0187 112.411 74.256 113.366C75.4934 113.892 76.6067 114.556 77.436 115.647C78.1174 116.542 78.0067 117.726 77.2014 118.52C74.4947 121.194 71.356 121.887 67.776 120.635C67.6894 120.606 67.6014 120.583 67.5134 120.559C65.82 120.078 65.1294 120.283 64.62 121.422C63.9987 122.81 64.3854 124.22 65.644 125.014C67.676 126.295 69.9534 126.871 72.288 127.274C76.4827 127.998 80.5867 127.73 84.556 126.128C86.86 125.199 88.3147 123.507 88.628 121.014C88.7214 120.266 88.5787 119.414 88.2974 118.707C87.4654 116.619 86.5614 114.558 85.5814 112.535C85.136 111.618 84.5 110.776 83.8534 109.979C83.064 109.004 81.912 109.091 80.8134 109.191C74.616 109.751 68.4134 109.854 62.1987 109.556C53.5587 109.143 45.0267 107.952 36.5707 106.162C28.7934 104.515 21.3227 101.988 14.3827 98.0963C10.5107 95.9243 6.85737 93.375 3.91204 89.9776C2.54804 88.4043 1.19603 84.303 1.14803 84.2123C-0.0852985 81.9056 0.0187025 79.4043 0.0813691 76.9096Z" fill="#5EC0AF"/>
</svg>
