<svg width="132" height="138" viewBox="0 0 132 138" fill="none" xmlns="http://www.w3.org/2000/svg">
<path d="M35.9987 114.592C36.2187 119.426 35.5134 124.016 34.5347 128.573C34.0054 131.041 31.7721 133.192 29.3881 133.557C27.9241 133.781 26.4614 133.66 25.0027 133.416C21.4414 132.822 17.8734 132.268 14.3147 131.66C11.6387 131.201 8.95207 130.764 6.35873 129.933C5.46407 129.646 4.5814 129.292 3.7454 128.866C1.21073 127.576 -0.089265 125.152 0.404068 122.356C0.893402 119.59 1.56807 116.857 2.15873 114.109C2.54673 112.308 3.34673 110.693 4.2414 109.088C6.03073 105.877 7.6614 102.58 8.96807 99.1356C10.5787 94.8916 12.2734 90.6769 13.7681 86.3942C14.8841 83.1982 15.7561 79.9169 16.7121 76.6676C18.6121 70.2129 20.4601 63.7436 22.3961 57.2996C23.7721 52.7249 25.1961 48.1622 26.7187 43.6342C27.5667 41.1089 28.6494 38.6596 29.6467 36.1849C31.0521 32.7022 32.4974 29.2342 33.8827 25.7449C34.8467 23.3196 36.4827 21.4089 38.3174 19.6222C39.4947 18.4742 40.6654 17.3129 41.7614 16.0889C42.9454 14.7662 42.3974 12.6662 40.7441 11.9742C40.6001 11.9142 40.3827 11.9142 40.2454 11.9809C39.9467 12.1236 39.6547 12.3009 39.4001 12.5129C37.5481 14.0569 35.7441 15.6636 33.8481 17.1502C32.1641 18.4702 30.3667 19.6449 28.6454 20.9182C27.3601 21.8676 26.1041 22.8569 24.8547 23.8529C24.0827 24.4676 23.4894 25.2356 23.0534 26.1276C22.8281 26.5862 22.5774 27.0329 22.3147 27.4702C21.8761 28.1996 20.6147 28.7676 19.7854 28.6342C19.4601 28.5822 19.2707 28.3956 19.2214 28.0729C19.2054 27.9636 19.2214 27.8489 19.2041 27.7382C19.1707 27.5316 19.1241 27.3262 19.0841 27.1209C18.8521 27.1996 18.5761 27.2222 18.3961 27.3649C17.1747 28.3369 15.9041 29.2102 14.3841 29.6569C13.8721 29.8076 13.3801 29.8276 12.9134 29.5142C12.4521 29.2022 12.3761 28.8782 12.5667 28.3622C13.2094 26.6276 14.5014 25.4636 15.9707 24.4622C16.6561 23.9942 17.3761 23.5742 18.1001 23.1662C19.7907 22.2089 21.2094 20.9249 22.5134 19.5102C24.6094 17.2382 26.8227 15.1022 29.3094 13.2516C30.7187 12.2022 32.0801 11.0876 33.4481 9.9849C34.3827 9.23023 35.4361 8.72357 36.5641 8.33157C38.7734 7.56223 41.0601 7.2409 43.3787 7.0849C45.3067 6.95557 47.2361 6.84356 49.1627 6.7089C49.4134 6.69156 49.6734 6.62623 49.9001 6.5209C50.3294 6.3209 50.4041 5.9449 50.0387 5.65423C49.6574 5.3489 49.2147 5.11556 48.7827 4.87823C48.0281 4.46489 47.2321 4.11957 46.5081 3.65957C45.2654 2.87024 45.7494 1.98224 46.7534 1.52757C47.7201 1.09157 48.7574 0.931568 49.7881 0.902235C51.5747 0.851568 53.3694 0.847566 55.1494 0.979566C56.2027 1.05823 57.2427 1.40224 58.2681 1.6969C58.6307 1.80224 58.9734 2.0729 59.2574 2.33956C59.8587 2.90356 59.8147 3.66757 59.1467 4.14757C58.7227 4.4529 58.2307 4.66224 57.7721 4.91957C57.4387 5.1049 57.0814 5.26357 56.7841 5.4969C56.2747 5.89423 56.3147 6.41823 56.8867 6.72756C57.2174 6.90623 57.5974 7.03557 57.9681 7.08624C59.7561 7.33024 61.5534 7.50757 63.3387 7.77423C64.9801 8.01957 66.6307 8.2649 68.2401 8.65824C70.4387 9.19557 72.5694 9.96757 74.3227 11.4716C75.3521 12.3542 76.3027 13.3302 77.2747 14.2782C79.2521 16.2062 80.8214 18.4662 82.4614 20.6702C82.5561 20.7982 82.6401 20.9356 82.7094 21.0796C82.8987 21.4649 82.8401 21.7516 82.4881 21.9996C82.2827 22.1449 82.0467 22.2556 81.8107 22.3489C80.9787 22.6769 80.1427 22.9982 79.3041 23.3062C79.0201 23.4089 78.7214 23.4742 78.4281 23.5449C78.0734 23.6316 77.7681 23.5276 77.4961 23.2916C74.6201 20.7796 71.7334 18.2796 68.8721 15.7502C68.3494 15.2889 67.9081 14.7289 67.4707 14.1809C67.0521 13.6596 66.5227 13.3196 65.9081 13.1236C65.7454 13.0716 65.4347 13.1569 65.3334 13.2876C64.1627 14.8089 63.8641 16.4276 65.0881 18.0462C66.6014 20.0462 68.2321 21.9556 69.7721 23.9356C70.8307 25.2969 71.8227 26.7102 72.8374 28.1062C73.1374 28.5196 73.4001 28.9622 73.7081 29.3702C74.5507 30.4889 75.1054 31.7596 75.7161 33.0102C76.4921 34.6022 77.3841 36.1382 78.2214 37.7009C78.6827 38.5582 79.1294 39.4249 79.5907 40.2822C80.8161 42.5622 82.0321 44.8462 83.2774 47.1156C84.5614 49.4556 85.9547 51.7382 87.1561 54.1196C88.5294 56.8422 89.7561 59.6396 91.0227 62.4156C91.7254 63.9569 94.5001 72.0649 95.1961 73.7009C96.2854 76.2582 103.876 91.2636 106.155 94.3849C107.312 95.9702 108.612 97.4542 109.895 98.9436C110.924 100.14 112 101.301 113.1 102.434C115.907 105.321 118.299 108.54 120.687 111.764C123.535 115.608 126.135 119.617 128.463 123.794C129.403 125.481 130.205 127.245 131.036 128.99C131.477 129.917 131.461 130.881 131.056 131.828C130.885 132.225 130.695 132.612 130.524 133.009C130.12 133.949 129.425 134.588 128.456 134.873C126.791 135.362 125.14 135.85 123.352 135.84C121.488 135.829 119.624 136.074 117.759 136.196C115.256 136.358 112.753 136.528 110.248 136.66C107.536 136.804 104.821 136.884 102.109 137.034C97.2534 137.302 93.2747 135.489 90.0747 131.924C88.8174 130.524 87.6761 129.012 86.5627 127.493C86.0987 126.861 85.7774 126.1 85.5081 125.356C84.6467 122.966 83.7547 120.584 83.0427 118.149C82.6387 116.766 82.4521 115.296 82.3614 113.853C82.1654 110.758 81.6401 107.729 80.8321 104.745C79.6281 100.304 78.3907 95.8702 77.1934 91.4262C76.3547 88.3182 75.1601 85.3342 74.1001 82.3036C73.5281 80.6662 72.7681 79.1236 72.0721 77.5462C71.2201 75.6156 70.4441 73.6542 69.6081 71.7169C68.5574 69.2809 67.4507 66.8689 66.4227 64.4236C65.2667 61.6676 64.0641 58.9249 63.0747 56.1076C61.7507 52.3356 59.9041 48.7756 58.6747 44.9716C58.3414 43.9382 58.0361 42.8956 57.7467 41.8502C57.0801 39.4489 56.4441 37.0396 55.7681 34.6409C55.4307 33.4422 55.0681 32.2476 54.6494 31.0742C54.4827 30.6102 54.1827 30.1676 53.8547 29.7929C53.4947 29.3822 53.1947 29.4542 52.9987 29.9702C52.3667 31.6422 51.6854 33.3022 51.1654 35.0102C50.0947 38.5249 49.2174 42.1009 48.0774 45.5929C45.6774 52.9489 43.7787 60.4529 41.4574 67.8316C39.6694 73.5182 37.8321 79.1902 35.7574 84.7796C34.8654 87.1809 34.2881 89.6369 34.2561 92.2116C34.2454 93.1062 34.1587 93.9982 34.0881 94.8902C33.9227 96.9676 34.2721 98.9996 34.5961 101.037C35.0347 103.798 35.4761 106.56 35.8387 109.332C35.9934 110.514 35.9587 111.722 35.9961 112.92C36.0134 113.526 35.9987 114.134 35.9987 114.592Z" fill="#DB4C97"/>
</svg>
