<svg width="137" height="136" viewBox="0 0 137 136" fill="none" xmlns="http://www.w3.org/2000/svg">
<path d="M136.074 30.1705C136.074 30.7185 136.072 31.2652 136.074 31.8132C136.075 32.0932 136.099 32.3705 136.134 32.6505C136.186 33.0652 136.204 33.4879 136.107 33.9092C136.042 34.1959 136.008 34.4932 135.988 34.7879C135.908 35.9492 135.602 37.0639 135.263 38.1666C135.072 38.7919 134.814 39.3999 134.543 39.9959C134.044 41.0932 133.42 42.1212 132.771 43.1359C132.112 44.1625 131.404 45.1519 130.666 46.1185C130.183 46.7492 129.678 47.3652 129.156 47.9679C128.523 48.7012 127.891 49.4332 127.186 50.0972C126.754 50.5025 126.299 50.8839 125.85 51.2692C125.458 51.6025 125.064 51.9345 124.662 52.2545C124.026 52.7585 123.387 53.2572 122.74 53.7479C121.971 54.3332 121.183 54.8959 120.419 55.4892C119.79 55.9785 119.202 56.5212 118.678 57.1225C117.966 57.9399 117.404 58.8559 116.998 59.8665C116.763 60.4479 116.56 61.0372 116.438 61.6519C116.37 61.9879 116.344 62.3319 116.262 62.6639C116.132 63.1839 116.235 63.7252 116.096 64.2439C116.066 64.3612 116.086 64.4919 116.083 64.6172C116.076 64.8825 116.084 65.1465 116.014 65.4092C115.976 65.5412 115.995 65.6879 115.99 65.8292C115.979 66.1719 115.983 66.5119 115.918 66.8545C115.863 67.1425 115.898 67.4465 115.892 67.7439C115.888 67.9932 115.9 68.2425 115.827 68.4879C115.796 68.5905 115.808 68.7052 115.804 68.8145C115.784 69.3439 115.82 69.8732 115.723 70.4025C115.67 70.6905 115.71 70.9959 115.704 71.2932C115.7 71.5892 115.687 71.8812 115.64 72.1785C115.59 72.5145 115.618 72.8639 115.611 73.2079C115.606 73.4879 115.626 73.7705 115.542 74.0452C115.515 74.1332 115.526 74.2319 115.523 74.3252C115.502 74.9332 115.538 75.5399 115.442 76.1479C115.382 76.5305 115.431 76.9292 115.42 77.3199C115.414 77.5212 115.383 77.7225 115.364 77.9239C115.352 78.0479 115.338 78.1719 115.336 78.2972C115.331 78.6412 115.338 78.9852 115.326 79.3292C115.318 79.5612 115.282 79.7932 115.262 80.0252C115.251 80.1492 115.243 80.2745 115.242 80.3999C115.238 80.8065 115.24 81.2132 115.231 81.6199C115.227 81.7905 115.196 81.9599 115.18 82.1305C115.168 82.2692 115.151 82.4092 115.148 82.5492C115.143 82.9399 115.144 83.3319 115.14 83.7225C115.138 84.0025 115.15 84.2839 115.074 84.5612C115.04 84.6772 115.055 84.8092 115.054 84.9345C115.05 85.4812 115.05 86.0292 115.046 86.5759C115.044 86.8412 115.051 87.1052 114.982 87.3679C114.946 87.4999 114.962 87.6479 114.96 87.7879C114.956 88.5079 114.956 89.2265 114.951 89.9465C114.95 90.2892 114.971 90.6319 114.882 90.9719C114.846 91.1039 114.867 91.2519 114.867 91.3919C114.863 92.7065 114.863 94.0199 114.855 95.3332C114.854 95.5345 114.818 95.7359 114.803 95.9385C114.79 96.1092 114.775 96.2799 114.774 96.4519C114.768 97.9372 114.77 99.4239 114.76 100.909C114.759 101.141 114.718 101.373 114.699 101.607C114.687 101.761 114.68 101.917 114.679 102.075C114.675 103.216 114.676 104.357 114.667 105.499C114.666 105.732 114.626 105.964 114.607 106.196C114.595 106.336 114.586 106.477 114.586 106.617C114.584 108.4 114.583 110.183 114.587 111.965C114.587 112.152 114.62 112.337 114.636 112.524C114.65 112.663 114.667 112.803 114.668 112.943C114.675 113.396 114.67 113.851 114.678 114.304C114.683 114.693 114.68 115.08 114.744 115.471C114.804 115.837 114.762 116.219 114.77 116.595C114.778 116.968 114.742 117.344 114.844 117.713C114.874 117.816 114.858 117.931 114.858 118.04C114.862 118.495 114.863 118.948 114.866 119.401C114.867 119.511 114.848 119.625 114.876 119.728C114.986 120.129 114.951 120.536 114.952 120.941C114.956 122.364 114.958 123.788 114.952 125.211C114.951 125.443 114.91 125.675 114.886 125.907C114.882 125.953 114.868 126 114.87 126.047C114.886 126.393 114.822 126.731 114.767 127.069C114.676 127.64 114.57 128.207 114.399 128.759C114.08 129.791 113.484 130.639 112.667 131.328C112.234 131.693 111.718 131.928 111.187 132.121C110.334 132.433 109.458 132.659 108.578 132.876C107.502 133.143 106.432 133.433 105.363 133.727C105.099 133.799 104.836 133.796 104.572 133.783C104.314 133.769 104.087 133.648 103.906 133.472C103.692 133.268 103.503 133.039 103.304 132.817C103.054 132.539 102.823 132.247 102.615 131.932C101.87 130.801 101.99 129.429 102.836 128.412C103.3 127.853 103.847 127.395 104.426 126.973C105.362 126.289 106.252 125.555 107.028 124.693C107.854 123.775 108.456 122.729 108.771 121.523C109.07 120.375 109.351 119.223 109.558 118.055C109.615 117.732 109.666 117.409 109.707 117.085C109.772 116.56 109.83 116.033 109.886 115.508C109.898 115.384 109.895 115.257 109.895 115.132C109.895 113.756 109.895 112.38 109.891 111.004C109.89 110.833 109.858 110.663 109.842 110.493C109.828 110.353 109.812 110.213 109.81 110.073C109.803 109.745 109.806 109.416 109.802 109.088C109.799 108.808 109.82 108.524 109.73 108.251C109.719 108.223 109.716 108.189 109.719 108.159C109.76 107.547 109.624 106.947 109.608 106.337C109.599 105.949 109.543 105.561 109.498 105.175C109.45 104.773 109.391 104.372 109.334 103.972C109.264 103.493 109.203 103.015 109.12 102.539C108.906 101.293 108.64 100.059 108.311 98.8372C107.924 97.4025 107.478 95.9919 106.883 94.6265C106.358 93.4185 105.743 92.2625 104.979 91.1892C104.563 90.6052 104.142 90.0265 103.663 89.4879C103.372 89.1599 103.086 88.8305 102.771 88.5279C102.151 87.9332 101.492 87.3825 100.799 86.8759C99.7709 86.1279 98.6615 85.5185 97.5042 84.9999C96.8069 84.6879 96.0935 84.4092 95.3482 84.2172C95.0322 84.1359 94.7295 83.9985 94.4282 83.8719C94.2655 83.8039 94.1029 83.7759 93.9282 83.7679C93.2655 83.7385 92.6242 83.8719 91.9829 84.0092C91.5255 84.1079 91.0668 84.2079 90.6202 84.3479C90.0242 84.5332 89.4389 84.7372 88.9322 85.1332C88.3175 85.6145 87.6735 86.0545 87.0482 86.5212C86.3055 87.0745 85.6442 87.7239 85.0442 88.4212C84.1882 89.4145 83.4349 90.4892 82.7775 91.6292C82.1669 92.6879 81.6469 93.7892 81.1989 94.9225C80.8495 95.8092 80.5335 96.7079 80.2135 97.6052C79.8242 98.6945 79.5255 99.8119 79.2295 100.929C78.9749 101.895 78.7335 102.864 78.5122 103.839C78.3055 104.751 78.1109 105.665 77.9722 106.591C77.9029 107.053 77.8055 107.511 77.7295 107.972C77.6895 108.217 77.6615 108.465 77.6362 108.713C77.5922 109.148 77.5375 109.581 77.5175 110.016C77.4962 110.469 77.5202 110.924 77.5069 111.377C77.4669 112.731 77.6815 114.049 78.0135 115.356C78.2335 116.221 78.5562 117.052 78.8949 117.875C79.1695 118.539 79.4029 119.219 79.7375 119.857C80.0015 120.359 80.3349 120.811 80.6882 121.247C80.9909 121.623 81.3082 121.988 81.6202 122.357C81.6402 122.381 81.6602 122.405 81.6815 122.428C82.1282 122.908 82.5802 123.384 83.0189 123.871C83.3642 124.252 83.6935 124.648 84.0295 125.037C84.2735 125.321 84.5255 125.599 84.7589 125.891C85.0802 126.293 85.3962 126.7 85.6975 127.117C86.2402 127.868 86.5229 128.716 86.6322 129.635C86.6722 129.977 86.7109 130.316 86.7082 130.66C86.7015 131.528 86.4722 132.333 85.9575 133.032C85.5668 133.56 85.0935 134.015 84.5282 134.368C83.7642 134.845 82.9229 135.127 82.0682 135.38C81.6642 135.499 81.2615 135.628 80.8682 135.779C80.5869 135.887 80.3055 135.935 80.0042 135.952C79.2735 135.993 78.5762 135.865 77.8842 135.649C76.6775 135.271 75.4655 134.908 74.2575 134.535C73.0575 134.165 72.0282 133.499 71.0522 132.729C70.4829 132.283 69.9829 131.767 69.4935 131.243C68.9189 130.624 68.4295 129.935 68.0029 129.205C67.6722 128.639 67.3589 128.063 67.0469 127.485C66.7269 126.895 66.4109 126.301 66.1095 125.701C65.7855 125.057 65.5269 124.384 65.3815 123.679C65.2442 123.007 65.1442 122.328 65.0402 121.651C64.9442 121.036 64.8642 120.417 64.7802 119.801C64.7655 119.693 64.7695 119.583 64.7589 119.473C64.7415 119.288 64.7149 119.103 64.6975 118.917C64.6829 118.763 64.6789 118.605 64.6642 118.451C64.6482 118.264 64.6255 118.079 64.6042 117.893C64.5962 117.816 64.5789 117.739 64.5775 117.661C64.5709 117.349 64.5375 117.041 64.4975 116.731C64.4282 116.191 64.4175 115.643 64.3829 115.099C64.3789 115.052 64.3869 115.004 64.3789 114.959C64.2229 114.105 64.3149 113.244 64.2909 112.385C64.2709 111.648 64.1535 110.925 63.9175 110.228C63.7522 109.739 63.5375 109.265 63.1189 108.925C63.0349 108.856 62.9509 108.784 62.8575 108.729C62.3682 108.443 62.1402 108.465 61.7509 108.88C60.9735 109.707 60.5255 110.672 60.5242 111.829C60.5242 112.393 60.5989 112.947 60.6882 113.501C60.7362 113.809 60.7762 114.119 60.8055 114.428C60.8682 115.096 61.0189 115.753 61.0069 116.427C61.1362 116.903 61.1069 117.391 61.0815 117.871C61.0202 119 60.8082 120.099 60.2975 121.124C59.6055 122.513 58.7642 123.811 57.8389 125.051C57.4109 125.624 56.9242 126.155 56.4429 126.688C55.9402 127.245 55.4389 127.807 54.8802 128.304C53.7109 129.345 52.6709 130.516 51.5215 131.575C50.4762 132.537 49.3055 133.303 47.8882 133.617C47.7669 133.644 47.6482 133.689 47.5295 133.728C47.2775 133.812 47.0242 133.892 46.7735 133.98C46.0709 134.229 45.3469 134.312 44.6055 134.257C44.4975 134.249 44.3869 134.236 44.2842 134.204C43.1175 133.851 41.9535 133.491 40.7882 133.139C40.1042 132.931 39.4949 132.584 38.9535 132.127C38.5669 131.799 38.3015 131.369 38.1282 130.893C37.9949 130.525 37.9149 130.147 37.9149 129.748C37.9135 129.107 37.9375 128.471 38.0962 127.844C38.2522 127.232 38.5015 126.661 38.8162 126.119C39.2242 125.412 39.7335 124.777 40.3295 124.224C40.7749 123.811 41.2522 123.429 41.7389 123.067C42.8055 122.273 43.9629 121.621 45.1095 120.952C45.9589 120.457 46.7989 119.943 47.6242 119.409C48.0562 119.131 48.4789 118.825 48.8549 118.477C49.5295 117.853 50.0575 117.117 50.2655 116.201C50.3442 115.855 50.3695 115.493 50.3949 115.136C50.4162 114.84 50.3962 114.543 50.4069 114.245C50.4149 114.044 50.4482 113.843 50.4669 113.641C50.4789 113.501 50.4909 113.361 50.4909 113.221C50.4935 112.424 50.4975 111.627 50.4935 110.828C50.4922 110.455 50.5242 110.077 50.4162 109.709C50.3949 109.637 50.4055 109.555 50.4055 109.476C50.3922 108.644 50.2349 107.836 50.0109 107.036C49.7829 106.221 49.4509 105.447 49.1589 104.656C48.9215 104.011 48.6775 103.369 48.5162 102.699C48.3895 102.176 48.1322 101.711 47.8309 101.269C47.6762 101.043 47.4482 100.897 47.2175 100.771C46.9295 100.615 46.6282 100.481 46.3242 100.36C45.4375 100.009 44.5615 99.6465 43.7282 99.1732C42.6829 98.5799 41.6349 97.9892 40.6055 97.3679C39.6962 96.8172 38.8069 96.2412 37.9575 95.5999C37.5842 95.3172 37.1935 95.0572 36.8255 94.7692C36.3482 94.3932 35.8922 93.9879 35.4122 93.6172C34.8775 93.2039 34.4149 92.7159 33.9495 92.2319C33.2122 91.4652 32.5495 90.6359 32.0202 89.7092C31.6402 89.0452 31.2882 88.3652 30.9162 87.6972C30.3922 86.7559 29.8615 85.8185 29.3322 84.8785C29.1789 84.6065 29.0295 84.3332 28.8682 84.0652C28.7149 83.8119 28.5589 83.5599 28.3882 83.3185C28.1815 83.0279 27.8949 82.8372 27.5522 82.7452C26.7082 82.5185 25.8615 82.3012 25.0149 82.0839C24.7589 82.0172 24.4989 81.9612 24.2415 81.8999C23.4975 81.7212 22.7535 81.5479 22.0109 81.3639C20.9482 81.0985 19.9122 80.7519 18.8922 80.3545C17.5669 79.8372 16.2629 79.2705 15.0055 78.6025C14.3029 78.2279 13.6069 77.8412 12.9322 77.4159C12.3895 77.0732 11.8709 76.7012 11.3722 76.3025C11.0309 76.0292 10.7082 75.7332 10.3909 75.4332C10.0722 75.1332 9.75753 74.8279 9.46286 74.5039C8.94686 73.9399 8.43752 73.3692 7.94686 72.7839C7.39619 72.1239 6.91486 71.4119 6.4562 70.6852C5.79486 69.6385 5.23619 68.5399 4.81486 67.3745C4.47486 66.4345 4.12419 65.4972 3.81619 64.5465C3.34019 63.0759 2.9362 61.5839 2.62286 60.0679C2.48953 59.4265 2.36019 58.7852 2.23886 58.1425C2.14286 57.6359 2.12419 57.1199 2.05353 56.6132C1.97219 56.0185 1.99352 55.4292 1.98286 54.8372C1.97486 54.3199 2.0642 53.8132 2.1402 53.3052C2.18953 52.9812 2.24286 52.6572 2.30953 52.3372C2.44153 51.7092 2.64285 51.1012 2.89752 50.5119C2.92152 50.4545 2.95085 50.3985 2.97085 50.3399C3.04419 50.1292 3.0162 49.9385 2.84553 49.7825C2.75353 49.6985 2.65619 49.6199 2.56419 49.5359C2.37885 49.3692 2.17619 49.2172 2.01486 49.0292C1.65619 48.6159 1.3362 48.1732 1.10153 47.6745C0.828198 47.0932 0.605526 46.4945 0.49886 45.8585C0.493526 45.8279 0.486856 45.7959 0.486856 45.7652C0.474856 45.1105 0.344197 44.4625 0.380197 43.8039C0.394864 43.5545 0.389524 43.3052 0.317524 43.0585C0.284191 42.9425 0.293527 42.8105 0.293527 42.6865C0.292194 41.6385 0.293527 40.5905 0.293527 39.5425C0.293527 39.4639 0.28419 39.3825 0.301523 39.3092C0.44019 38.7225 0.368192 38.1252 0.389525 37.5346C0.394859 37.3786 0.390859 37.2185 0.426859 37.0692C0.522859 36.6639 0.742863 36.4945 1.15886 36.4852C1.52553 36.4772 1.89486 36.5426 2.20019 36.7212C2.69086 37.0079 3.22286 37.1865 3.74153 37.3999C5.15619 37.9852 6.57753 38.5492 7.99753 39.1225C8.31486 39.2519 8.63352 39.3799 8.95086 39.5132C9.18686 39.6132 9.38819 39.5839 9.60953 39.4385C10.4869 38.8665 11.3589 38.2852 12.1495 37.5999C12.6949 37.1292 13.2442 36.6692 13.8589 36.2946C14.6189 35.8319 15.3869 35.3825 16.1549 34.9332C16.5855 34.6799 17.0175 34.4265 17.4575 34.1919C18.5215 33.6265 19.6349 33.1705 20.7602 32.7439C22.2509 32.1785 23.7535 31.6492 25.2642 31.1425C26.4495 30.7452 27.6255 30.3212 28.8042 29.9066C28.9215 29.8652 29.0322 29.8025 29.1469 29.7532C29.3682 29.6585 29.5402 29.5172 29.6682 29.3052C30.0149 28.7292 30.3802 28.1666 30.7269 27.5919C31.0829 26.9999 31.4802 26.4412 31.9789 25.9626C32.5522 25.4092 33.1242 24.8559 33.7175 24.3239C34.2749 23.8252 34.8615 23.3586 35.4282 22.8706C35.7949 22.5546 36.1495 22.2265 36.5055 21.8985C36.7735 21.6519 37.0629 21.4479 37.4162 21.3412C37.6682 21.2639 37.9082 21.2665 38.1415 21.3959C38.4282 21.5545 38.6989 21.7212 38.9029 21.9999C39.1402 22.3266 39.4349 22.6119 39.6962 22.9226C40.1175 23.4226 40.5255 23.9359 40.9535 24.4305C41.4655 25.0252 41.8895 25.6812 42.3135 26.3359C42.9975 27.3905 43.5149 28.5212 43.8549 29.7359C43.9802 30.1879 44.0575 30.6492 44.1709 31.1025C44.1815 31.1479 44.1922 31.1946 44.1909 31.2412C44.1842 31.8639 44.2509 32.4866 44.1175 33.1092C44.0082 33.6199 43.8015 34.0879 43.6109 34.5665C43.5122 34.8119 43.4175 35.0599 43.3282 35.3092C43.1575 35.7825 43.3549 36.1612 43.6442 36.5145C44.0029 36.7079 44.1802 37.0759 44.4402 37.3625C44.7229 37.6732 44.9802 38.0079 45.2509 38.3306C45.5815 38.7239 45.9135 39.1172 46.2509 39.5052C46.4962 39.7879 46.7455 40.0679 47.0042 40.3385C47.2149 40.5599 47.6602 40.5999 47.9682 40.4185C48.1562 40.3092 48.3362 40.1759 48.4909 40.0252C49.8162 38.7425 51.1375 37.4572 52.4535 36.1639C53.3229 35.3092 54.1762 34.4372 55.0455 33.5812C55.6802 32.9572 56.3362 32.3559 57.0162 31.7825C57.3015 31.5412 57.5735 31.2825 57.8615 31.0439C58.7522 30.3052 59.6842 29.6239 60.6855 29.0425C61.5522 28.5412 62.4442 28.0905 63.3655 27.6985C63.4522 27.6612 63.5335 27.6159 63.6189 27.5759C64.7549 27.0532 65.8882 26.5279 67.0255 26.0119C67.9642 25.5852 68.9002 25.1519 69.8509 24.7519C70.8722 24.3212 71.9069 23.9252 72.9375 23.5159C74.1575 23.0319 75.3922 22.5839 76.6442 22.1919C77.6722 21.8705 78.7082 21.5719 79.7429 21.2746C80.4482 21.0719 81.1575 20.8865 81.8669 20.6959C82.7189 20.4679 83.5869 20.3892 84.4655 20.4505C84.9149 20.4812 85.3602 20.5772 85.8095 20.6065C86.5282 20.6545 87.2282 20.8106 87.9348 20.9266C88.5495 21.0279 89.1549 21.1879 89.7575 21.3506C90.8135 21.6372 91.8509 21.9825 92.8589 22.4105C93.4629 22.6679 94.0669 22.9239 94.6629 23.1959C95.3175 23.4945 95.9642 23.8092 96.6109 24.1212C97.9109 24.7492 99.1029 25.5519 100.24 26.4345C100.768 26.8452 101.256 27.3079 101.764 27.7465C102.166 28.0919 102.57 28.4372 102.971 28.7825C103.007 28.8132 103.04 28.8452 103.075 28.8772C103.5 29.2679 103.915 29.6705 104.354 30.0465C104.935 30.5439 105.494 31.0665 106.072 31.5652C106.798 32.1892 107.466 32.8679 108.119 33.5599C108.716 34.1945 109.264 34.8799 109.764 35.5972C110.54 36.7119 111.315 37.8279 112.063 38.9612C112.623 39.8092 113.124 40.6919 113.508 41.6372C113.672 42.0425 113.874 42.4332 114.05 42.8332C114.332 43.4759 114.606 44.1239 114.888 44.7665C114.958 44.9239 115.031 45.0812 115.13 45.2212C115.283 45.4372 115.499 45.4546 115.691 45.2759C115.77 45.2026 115.842 45.1159 115.898 45.0239C116.056 44.7545 116.206 44.4812 116.358 44.2079C116.667 43.6479 116.992 43.0945 117.282 42.5239C117.72 41.6599 118.163 40.7959 118.551 39.9092C118.971 38.9519 119.343 37.9732 119.712 36.9945C119.895 36.5132 120.04 36.0159 120.174 35.5186C120.368 34.7959 120.554 34.0692 120.714 33.3385C120.816 32.8679 120.879 32.3865 120.878 31.9012C120.876 31.7452 120.874 31.5879 120.879 31.4319C120.906 30.6439 120.776 29.8745 120.56 29.1225C120.298 28.2025 119.938 27.3185 119.395 26.5239C119.035 25.9959 118.668 25.4705 118.202 25.0252C117.94 24.7772 117.688 24.5199 117.438 24.2625C116.772 23.5772 116.018 22.9972 115.266 22.4119C114.475 21.7972 113.642 21.2439 112.768 20.7586C112.168 20.4252 111.584 20.0626 110.938 19.8132C110.456 19.6292 110.004 19.3745 109.53 19.1719C108.74 18.8345 107.95 18.4986 107.15 18.1879C106.086 17.7772 105.016 17.3826 103.943 16.9986C102.795 16.5879 101.632 16.2265 100.428 16.0132C99.8002 15.9012 99.1735 15.7719 98.5442 15.6705C98.0055 15.5839 97.4629 15.5265 96.9229 15.4519C96.5535 15.4012 96.1842 15.3412 95.8135 15.2919C95.4895 15.2479 95.1642 15.2145 94.8402 15.1759C94.3762 15.1199 93.9135 15.0612 93.4495 15.0065C93.1095 14.9665 92.7682 14.9345 92.4269 14.8945C91.9482 14.8385 91.4695 14.7759 90.9895 14.7239C90.5869 14.6799 90.1829 14.6532 89.7802 14.6092C89.3629 14.5639 88.9455 14.5079 88.5295 14.4545C88.2508 14.4199 87.9748 14.3759 87.6962 14.3465C87.2922 14.3039 86.8882 14.2745 86.4855 14.2319C86.0375 14.1852 85.5895 14.1292 85.1415 14.0759C85.0949 14.0706 85.0482 14.0599 85.0029 14.0559C84.5362 14.0199 84.0695 13.9945 83.6042 13.9479C83.2015 13.9079 82.8029 13.8266 82.4002 13.7946C81.9015 13.7546 81.4122 13.6585 80.9202 13.5825C80.1335 13.4599 79.3575 13.2905 78.5895 13.0839C77.7562 12.8585 76.9589 12.5412 76.1735 12.1945C75.2349 11.7785 74.4029 11.1999 73.7402 10.4066C73.3842 9.98122 73.1469 9.48122 73.0349 8.94255C72.8269 7.93322 72.8429 6.91855 73.1535 5.93188C73.4029 5.13588 73.8149 4.41988 74.3962 3.80521C74.9522 3.21855 75.6015 2.75589 76.3282 2.42389C76.9082 2.15989 77.5269 1.97589 78.1349 1.77589C78.8922 1.52655 79.6789 1.39322 80.4602 1.24388C80.8109 1.17588 81.1695 1.14921 81.5255 1.10788C82.0042 1.05188 82.4842 0.995886 82.9629 0.943886C83.0869 0.930553 83.2135 0.926552 83.3375 0.926552C84.3855 0.925219 85.4335 0.926552 86.4815 0.926552C86.5442 0.927886 86.6082 0.918549 86.6682 0.931883C87.3655 1.07588 88.0708 0.991879 88.7722 1.01321C89.1002 1.02388 89.4295 1.01589 89.7575 1.01855C90.0389 1.02122 90.3215 1.00122 90.5949 1.09055C90.6389 1.10522 90.6882 1.10521 90.7348 1.10521C91.5202 1.09988 92.2842 1.26655 93.0495 1.40522C94.3082 1.63589 95.5575 1.90921 96.7949 2.23055C97.7015 2.46655 98.6029 2.72122 99.5029 2.98255C100.118 3.16122 100.73 3.35322 101.335 3.55988C102.075 3.81188 102.798 4.10521 103.507 4.43455C104.415 4.85321 105.328 5.25855 106.24 5.66655C107.111 6.05589 107.98 6.44521 108.854 6.82521C109.612 7.15588 110.383 7.45989 111.138 7.79722C112.323 8.32788 113.555 8.73588 114.766 9.19588C115.436 9.45188 116.091 9.75055 116.754 10.0265C117.735 10.4345 118.712 10.8506 119.699 11.2426C121.164 11.8252 122.643 12.3732 124.104 12.9679C125.247 13.4332 126.387 13.9106 127.474 14.4999C128.258 14.9252 128.996 15.4172 129.694 15.9745C130.455 16.5825 131.123 17.2866 131.779 17.9959C132.33 18.5892 132.81 19.2519 133.236 19.9426C133.622 20.5679 133.998 21.1999 134.299 21.8706C134.703 22.7692 135.083 23.6759 135.332 24.6319C135.504 25.2959 135.695 25.9572 135.828 26.6306C135.962 27.3012 136.104 27.9745 136.074 28.6692C136.051 29.1692 136.068 29.6705 136.068 30.1705H136.074Z" fill="#FDD7A7"/>
</svg>
