<svg width="143" height="141" viewBox="0 0 143 141" fill="none" xmlns="http://www.w3.org/2000/svg">
<path d="M122.498 79.6248C121.193 79.6381 119.919 79.4461 118.643 79.2048C117.794 79.0448 116.926 78.9635 116.063 78.8955C115.15 78.8235 114.231 78.8168 113.317 78.7688C111.683 78.6848 110.05 78.5928 108.415 78.5035C107.697 78.4635 106.978 78.4035 106.259 78.3875C105.409 78.3701 105.131 78.6595 105.186 79.5168C105.235 80.2848 105.343 81.0475 105.405 81.8141C105.533 83.4128 105.653 85.0115 105.765 86.6101C105.809 87.2301 105.834 87.8528 105.846 88.4741C105.906 91.3928 105.502 94.2515 104.738 97.0648C104.293 98.7075 103.862 100.354 103.427 101.999C103.393 102.126 103.357 102.254 103.343 102.383C103.311 102.709 103.451 102.919 103.763 103.013C103.871 103.046 103.989 103.061 104.102 103.062C106.81 103.11 109.509 103.094 112.107 102.154C112.597 101.977 113.115 101.867 113.629 101.767C115.002 101.501 116.311 101.033 117.613 100.534C119.045 99.9848 120.513 99.6515 122.058 99.6035C123.534 99.5568 125.001 99.6181 126.469 99.7408C127.789 99.8515 128.966 100.393 130.095 101.037C132.815 102.587 135.059 104.663 136.803 107.262C137.93 108.943 138.487 110.833 138.687 112.838C138.734 113.309 138.811 113.781 138.915 114.242C139.139 115.227 139.183 116.195 138.994 117.206C138.477 119.975 137.965 122.743 137.115 125.437C136.549 127.233 135.603 128.799 134.331 130.185C133.001 131.634 131.467 132.831 129.779 133.818C127.25 135.297 124.699 136.741 122.137 138.161C120.435 139.103 118.581 139.549 116.647 139.717C115.442 139.821 114.235 139.949 113.039 140.129C110.246 140.547 107.625 140.079 105.065 138.887C103.021 137.937 101.37 136.538 99.8875 134.903C98.0421 132.869 96.0368 131.021 93.7635 129.475C92.9395 128.914 92.0915 128.383 91.2368 127.869C90.0435 127.15 88.7475 126.719 87.3635 126.537C86.8461 126.467 86.3261 126.355 85.8355 126.182C84.8635 125.839 83.8528 125.757 82.8448 125.657C81.4448 125.518 80.0435 125.399 78.6408 125.286C77.9235 125.229 77.2035 125.198 76.4848 125.165C74.8661 125.089 73.2475 125.014 71.6288 124.947C70.1581 124.886 68.6848 124.775 67.2141 124.799C65.6941 124.825 64.1755 124.962 62.6608 125.098C61.3915 125.211 60.1195 125.35 58.8621 125.559C57.8635 125.725 56.8781 125.981 55.9021 126.254C54.8941 126.537 53.8795 126.827 52.9155 127.227C51.6488 127.754 50.3915 128.327 49.2008 129.005C48.4728 129.418 47.8568 130.043 47.2248 130.611C45.0328 132.581 42.8661 134.577 40.6688 136.542C39.8048 137.315 38.9315 138.085 37.8848 138.626C36.6328 139.274 35.3048 139.681 33.9155 139.85C32.4061 140.034 30.8901 140.181 29.3728 140.273C27.6528 140.377 25.9915 140.009 24.3501 139.507C21.4608 138.626 18.6875 137.457 15.9608 136.167C14.7048 135.574 13.5781 134.789 12.5515 133.866C11.1155 132.575 9.71547 131.245 8.29147 129.939C6.57147 128.365 5.41547 126.442 4.65413 124.247C4.2768 123.158 3.99414 122.058 3.85948 120.913C3.73414 119.841 3.5928 118.769 3.40747 117.705C3.14214 116.183 3.2008 114.677 3.4848 113.167C3.8128 111.422 4.27947 109.723 5.06881 108.122C6.09414 106.038 7.5168 104.29 9.4248 102.959C10.9728 101.882 12.6248 100.97 14.3395 100.191C15.8128 99.5208 17.3981 99.3795 19.0035 99.5088C19.9648 99.5861 20.9275 99.6675 21.8835 99.7915C23.2128 99.9661 24.4141 100.562 25.6661 100.993C27.0435 101.465 28.4181 101.97 29.8301 102.301C30.9208 102.555 32.0675 102.581 33.1915 102.677C34.7888 102.813 36.3888 102.919 37.9875 103.037C38.1008 103.046 38.2168 103.059 38.3301 103.05C38.8981 103.009 39.1368 102.718 38.9941 102.163C38.7901 101.371 38.5488 100.589 38.3141 99.8048C37.5621 97.2928 36.8795 94.7648 36.4755 92.1688C36.4328 91.8955 36.4181 91.6155 36.4181 91.3381C36.4128 89.6355 36.4061 87.9315 36.4221 86.2275C36.4328 85.0501 36.4275 83.8675 36.5301 82.6955C36.5915 81.9875 36.8368 81.2941 37.0168 80.5981C37.1035 80.2661 37.2528 79.9515 37.3381 79.6181C37.4968 78.9981 37.2515 78.6075 36.6248 78.4475C36.5301 78.4235 36.4328 78.3941 36.3368 78.3955C35.1755 78.4115 34.0155 78.4328 32.8541 78.4501C32.5435 78.4555 32.2301 78.4808 31.9221 78.4541C30.1141 78.2941 28.3248 78.4768 26.5421 78.7395C24.9208 78.9781 23.2915 79.1141 21.6555 79.1688C19.5448 79.2408 17.4355 79.3221 15.3248 79.3795C14.3608 79.4061 13.3968 79.4075 12.4328 79.3821C11.5528 79.3568 10.7368 79.0608 9.94081 78.6941C8.59947 78.0755 7.26614 77.4341 6.1328 76.4755C5.5368 75.9715 4.9608 75.4128 4.50347 74.7861C3.21814 73.0195 2.18347 71.1035 1.3168 69.0968C0.80347 67.9101 0.572803 66.6581 0.446137 65.3821C0.23147 63.2355 0.348809 61.0968 0.639476 58.9675C0.950142 56.6968 1.88747 54.7101 3.44081 53.0168C5.06214 51.2488 7.04213 50.0475 9.3008 49.2888C10.4488 48.9021 11.5781 48.4555 12.7888 48.2835C14.2235 48.0781 15.6608 48.0928 17.0995 48.1955C17.9968 48.2608 18.8928 48.3501 19.7888 48.4288C21.1061 48.5461 22.3715 48.8435 23.5501 49.4661C24.6941 50.0715 25.8581 50.6341 27.0861 51.0581C27.8035 51.3048 28.4301 51.7155 29.0328 52.1821C29.5341 52.5701 30.0901 52.8968 30.6488 53.1995C32.5075 54.2048 34.3661 55.2101 36.2501 56.1635C36.9301 56.5075 37.6701 56.7648 38.4101 56.9515C39.5915 57.2488 40.7208 57.6741 41.8488 58.1181C42.1328 58.2315 42.4421 58.3115 42.7461 58.3421C44.4715 58.5155 46.1981 58.6701 47.9248 58.8275C48.2835 58.8608 48.6421 58.8901 49.0021 58.9088C49.4088 58.9301 49.6488 58.7128 49.6768 58.3035C49.7088 57.8155 49.6221 57.3808 49.2701 56.9901C48.2835 55.8968 47.3168 54.7835 46.3595 53.6635C44.9821 52.0515 43.8448 50.2715 42.7635 48.4541C42.0768 47.3008 41.3981 46.1395 40.7835 44.9475C40.3568 44.1221 40.0248 43.2448 39.6861 42.3768C39.3515 41.5248 39.0568 40.6555 38.7541 39.7901C38.5675 39.2568 38.1981 38.8955 37.6835 38.7115C36.8675 38.4221 36.0448 38.1475 35.2128 37.9141C34.7635 37.7875 34.3515 37.6315 33.9781 37.3435C32.5008 36.2021 31.0475 35.0355 29.6875 33.7515C28.1741 32.3248 27.2075 30.5955 26.6861 28.6008C26.3088 27.1595 25.9141 25.7128 25.8501 24.2195C25.8128 23.3261 25.8688 22.4155 26.0021 21.5315C26.2955 19.5901 26.6248 17.6475 27.2581 15.7808C28.1035 13.2888 29.5421 11.1915 31.5581 9.49414C31.7195 9.35814 31.8968 9.23414 32.0781 9.12614C32.8395 8.6768 33.5955 8.21681 34.3741 7.79681C35.2488 7.32481 36.1968 7.03948 37.1861 6.98348C39.0888 6.87548 40.9901 6.94881 42.8341 7.47547C43.7915 7.74881 44.7301 8.11148 45.6448 8.50614C47.2915 9.21414 48.8168 8.94481 50.2715 8.02614C51.3928 7.31681 52.4608 6.52348 53.5955 5.83948C56.9701 3.80614 60.6195 2.48481 64.4875 1.76481C66.5155 1.38748 68.5608 1.13414 70.6261 1.05414C71.2141 1.03147 71.8021 1.00214 72.3901 0.966144C74.5235 0.836811 76.5968 1.22081 78.6608 1.69681C80.7608 2.18081 82.7768 2.88614 84.6915 3.8848C85.5035 4.3088 86.3528 4.66348 87.1968 5.02214C88.5155 5.58081 89.7515 6.2768 90.8808 7.16214C91.1515 7.3728 91.4435 7.5568 91.7235 7.7568C92.7421 8.4848 93.8795 8.58081 95.0955 8.50881C96.3008 8.43681 97.3781 7.95814 98.4968 7.61814C99.9048 7.18881 101.334 6.93414 102.799 6.9808C104.007 7.0208 105.214 7.14081 106.419 7.25014C107.114 7.31281 107.746 7.57147 108.346 7.93547C109.994 8.93814 111.491 10.1261 112.765 11.5768C114.227 13.2408 115.078 15.2128 115.558 17.3541C115.819 18.5208 116.029 19.6981 116.286 20.8648C116.614 22.3568 116.655 23.8541 116.354 25.3488C116.105 26.5848 115.846 27.8208 115.521 29.0368C115.013 30.9421 113.983 32.5595 112.67 34.0195C111.339 35.4995 109.759 36.5941 107.921 37.3355C107.071 37.6781 106.242 38.0728 105.385 38.3915C104.306 38.7928 103.61 39.4955 103.297 40.6195C102.905 42.0221 102.45 43.4021 101.886 44.7528C101.038 46.7835 99.9208 48.6341 98.5115 50.3155C97.2075 51.8715 95.9088 53.4328 94.5928 54.9768C94.2115 55.4248 93.7635 55.8155 93.3648 56.2488C93.1555 56.4768 92.9501 56.7195 92.8035 56.9888C92.3315 57.8528 92.7208 58.6568 93.6888 58.8301C94.0728 58.8981 94.4688 58.9208 94.8595 58.9448C97.1221 59.0821 99.2795 58.5435 101.425 57.9195C102.767 57.5275 104.015 56.9088 105.283 56.3355C105.433 56.2688 105.578 56.1888 105.733 56.1368C107.751 55.4595 109.577 54.4061 111.375 53.2875C112.695 52.4675 114.045 51.6928 115.407 50.9448C116.006 50.6155 116.665 50.3955 117.303 50.1408C118.367 49.7181 119.437 49.3075 120.505 48.8915C120.595 48.8555 120.685 48.8075 120.779 48.7861C122.199 48.4688 123.607 48.1195 125.073 48.0181C126.682 47.9075 128.281 47.9901 129.874 48.1541C130.517 48.2195 131.177 48.3821 131.765 48.6435C133.318 49.3381 134.882 50.0301 136.357 50.8715C138.483 52.0835 140.061 53.8501 140.87 56.1901C141.242 57.2675 141.481 58.4008 141.674 59.5275C141.891 60.7981 142.005 62.0888 142.13 63.3741C142.21 64.1968 142.09 65.0088 141.841 65.7981C141.327 67.4208 140.855 69.0595 140.289 70.6635C139.621 72.5555 138.57 74.2301 137.137 75.6461C136.801 75.9781 136.437 76.2968 136.042 76.5541C134.515 77.5501 132.937 78.4568 131.145 78.8848C130.369 79.0701 129.566 79.1821 128.769 79.2408C126.681 79.3941 124.589 79.4995 122.498 79.6248Z" fill="#BC9AC8"/>
</svg>
