<svg width="132" height="132" viewBox="0 0 132 132" fill="none" xmlns="http://www.w3.org/2000/svg">
<path d="M81.8072 77.0913V77.1313C81.0072 77.1313 80.2085 77.134 79.4085 77.1273C79.2405 77.126 79.0725 77.0846 78.9032 77.062C78.9872 76.9153 79.0539 76.7553 79.1552 76.6233C80.4432 74.9726 81.7352 73.3246 83.0259 71.6753C83.0699 71.6193 83.0939 71.5486 83.1285 71.4846C83.0539 71.4966 82.9765 71.498 82.9059 71.5206C81.7352 71.898 80.5645 72.2726 79.3965 72.6566C77.0459 73.4313 74.6979 74.2126 72.2552 74.6633C72.0365 74.7033 71.8219 74.778 71.6152 74.8606C70.9979 75.11 70.5059 75.49 70.3139 76.1686C70.2845 76.2753 70.2245 76.374 70.1712 76.4726C69.4552 77.79 68.7899 79.1393 68.0125 80.4206C63.4912 87.8766 58.9445 95.3166 54.4085 102.765C54.0165 103.41 53.5739 104.013 53.0325 104.541C52.7192 104.846 52.4792 105.203 52.3312 105.615C52.1339 106.167 52.1379 106.697 52.4672 107.221C52.9085 107.923 53.2979 108.658 53.7285 109.369C54.3912 110.459 54.9925 111.593 55.8619 112.546C56.0112 112.71 56.1579 112.877 56.3072 113.042C56.4285 112.842 56.5739 112.651 56.6685 112.439C57.3672 110.881 58.0472 109.314 58.7499 107.758C59.3739 106.377 60.0192 105.005 60.6605 103.631C60.7819 103.371 60.9165 103.114 61.0752 102.877C61.3912 102.403 61.8219 102.355 62.2552 102.726C62.3165 102.778 62.3792 102.833 62.4232 102.897C62.7152 103.334 63.0659 103.745 63.2805 104.217C64.6445 107.209 65.9779 110.214 67.3192 113.215C67.3965 113.39 67.4685 113.57 67.5192 113.754C67.7459 114.579 67.4405 115.257 66.6619 115.609C66.3885 115.733 66.0912 115.83 65.7952 115.874C64.6112 116.049 63.4232 116.203 62.2352 116.355C61.1739 116.49 60.1085 116.601 59.0485 116.741C58.7992 116.774 58.5459 116.853 58.3205 116.965C57.8232 117.214 57.6259 117.669 57.7712 118.206C57.8339 118.434 57.9285 118.662 58.0552 118.861C58.9232 120.219 59.7899 121.581 60.6885 122.921C60.9432 123.299 61.2739 123.645 61.6245 123.939C62.6619 124.813 63.8312 125.458 65.1245 125.877C66.8765 126.445 68.6659 126.539 70.4792 126.301C71.8752 126.117 73.1085 125.573 74.2045 124.673C75.9699 123.221 77.7672 121.807 79.5485 120.374C79.7725 120.194 79.9952 120.009 80.1939 119.803C80.4525 119.535 80.4432 119.363 80.1472 119.125C79.8872 118.915 79.6019 118.735 79.3205 118.553C77.6045 117.439 75.8845 116.334 74.1699 115.219C73.3965 114.717 72.7685 114.055 72.2019 113.338C71.8112 112.845 71.8779 112.407 72.3685 112.006C72.4552 111.935 72.5485 111.873 72.6405 111.811C73.3339 111.353 74.0232 110.889 74.7219 110.438C76.0259 109.599 77.3565 108.803 78.7752 108.171C79.0659 108.043 79.3712 107.934 79.6792 107.866C80.2045 107.749 80.6419 107.947 80.8792 108.431C81.0245 108.727 81.1299 109.055 81.1859 109.382C81.3365 110.247 81.4539 111.118 81.5792 111.987C81.7565 113.205 81.9205 114.425 82.2552 115.613C82.5245 116.57 82.8965 117.485 83.4552 118.315C83.8312 118.874 84.3312 119.118 85.0179 118.967C85.7205 118.814 86.4259 118.655 87.1379 118.577C89.0592 118.361 90.9845 118.183 92.9099 117.997C94.6272 117.83 96.3459 117.677 98.0632 117.503C98.3285 117.477 98.5992 117.403 98.8459 117.299C99.2405 117.133 99.4005 116.821 99.3032 116.406C99.2392 116.129 99.1299 115.857 98.9992 115.603C98.7285 115.078 98.4445 114.559 98.1432 114.051C96.7365 111.683 95.5312 109.223 94.6739 106.601C94.5699 106.282 94.4605 105.962 94.3965 105.635C94.3019 105.147 94.5192 104.739 94.9752 104.546C95.1925 104.455 95.4339 104.401 95.6685 104.378C96.2245 104.322 96.7845 104.294 97.3419 104.254C98.4899 104.174 99.6379 104.087 100.786 104.014C102.242 103.921 103.694 103.918 105.127 104.254C105.981 104.455 106.303 104.934 106.142 105.791C106.125 105.886 106.103 105.979 106.071 106.07C105.763 106.942 105.482 107.825 105.135 108.682C104.363 110.594 103.649 112.523 103.217 114.545C103.106 115.059 103.017 115.581 102.966 116.103C102.927 116.493 103.075 116.651 103.455 116.753C103.609 116.794 103.77 116.821 103.927 116.826C104.422 116.839 104.919 116.862 105.414 116.841C106.925 116.777 108.311 116.317 109.486 115.357C110.375 114.63 111.206 113.829 112.047 113.046C112.255 112.853 112.429 112.613 112.577 112.37C112.762 112.069 112.731 111.827 112.465 111.598C112.225 111.393 111.953 111.215 111.675 111.062C110.99 110.683 110.286 110.339 109.605 109.955C109.105 109.674 108.611 109.374 108.143 109.042C107.685 108.717 107.357 108.263 107.346 107.683C107.341 107.326 107.403 106.943 107.537 106.613C107.727 106.143 107.973 105.685 108.263 105.269C109.653 103.278 111.063 101.302 112.47 99.3233C112.553 99.2073 112.654 99.098 112.767 99.014C113.095 98.7713 113.438 98.8353 113.599 99.2073C113.717 99.4806 113.759 99.7886 113.814 100.085C113.867 100.366 113.882 100.654 113.934 100.937C114.049 101.565 114.191 102.187 114.298 102.817C114.59 104.533 114.869 106.251 115.153 107.969C115.161 108.017 115.151 108.081 115.179 108.106C115.206 108.133 115.301 108.139 115.313 108.121C115.402 107.987 115.479 107.849 115.554 107.707C115.927 107.002 116.294 106.293 116.67 105.589C117.755 103.561 118.771 101.499 119.541 99.3273C120.063 97.8526 120.569 96.3726 121.067 94.89C121.347 94.0593 121.106 93.5433 120.287 93.214C119.979 93.09 119.65 92.998 119.322 92.942C118.505 92.7993 117.678 92.7033 116.862 92.554C116.521 92.4913 116.179 92.374 115.867 92.222C115.306 91.9486 115.086 91.494 115.185 90.878C115.229 90.6126 115.305 90.3473 115.402 90.0953C116.186 88.0713 116.947 86.038 117.785 84.0353C118.197 83.0526 118.747 82.1273 119.251 81.186C119.443 80.8273 119.622 80.8126 119.865 81.11C120.298 81.642 120.695 82.1873 120.931 82.8553C121.537 84.57 122.185 86.2713 122.817 87.9766C122.862 88.0966 122.894 88.226 122.962 88.33C123.031 88.4353 123.146 88.4793 123.221 88.326C123.515 87.7246 123.861 87.1446 123.989 86.4753C124.262 85.0473 124.555 83.6233 124.805 82.1913C125.205 79.8953 125.683 77.6086 125.851 75.2766C125.953 73.8686 125.961 72.4646 125.706 71.07C125.302 68.8566 124.25 67.0313 122.429 65.678C121.882 65.2713 121.746 65.3166 121.662 65.9913C121.526 67.0846 121.437 68.1846 121.293 69.2766C121.199 69.9886 121.078 70.6993 120.911 71.3966C120.719 72.1953 120.105 72.566 119.283 72.4486C118.982 72.4046 118.683 72.3553 118.382 72.3113C116.911 72.0966 115.45 71.8353 114.014 71.4446C113.722 71.366 113.429 71.2726 113.161 71.1366C112.725 70.918 112.598 70.5273 112.809 70.0886C112.905 69.89 113.035 69.6966 113.191 69.5433C113.497 69.2406 113.819 68.95 114.157 68.6833C115.786 67.3926 117.423 66.1126 119.055 64.8273C119.218 64.698 119.381 64.5646 119.515 64.4086C119.678 64.2206 119.645 64.0793 119.438 63.93C119.373 63.8846 119.302 63.8406 119.227 63.8166C118.47 63.5686 117.726 63.242 116.949 63.0993C115.395 62.8126 113.825 62.6113 112.257 62.4046C110.655 62.1913 109.045 62.0766 107.426 62.158C106.435 62.2073 105.451 62.3366 104.501 62.6353C103.618 62.9126 103.351 63.3526 103.511 64.2646C103.618 64.878 103.761 65.4846 103.882 66.0953C104.078 67.082 104.313 68.0633 104.451 69.0593C104.603 70.1566 104.022 70.826 103.162 71.0753C103.01 71.1193 102.854 71.1593 102.695 71.178C101.109 71.3633 99.5219 71.546 97.9352 71.726C97.6179 71.762 97.2979 71.774 96.9805 71.8126C96.3072 71.894 96.2419 71.534 96.4299 71.0886C96.9339 69.894 97.5139 68.7446 98.2632 67.6806C98.9352 66.7273 99.5885 65.7606 100.233 64.7873C100.433 64.4846 100.573 64.1433 100.741 63.8193C100.398 63.9233 100.054 64.0273 99.7112 64.1326C99.6512 64.1513 99.5925 64.182 99.5339 64.206C96.3472 65.5673 93.1605 66.9286 89.9725 68.29C89.0325 68.6913 88.0872 69.0806 87.1565 69.502C86.0939 69.9833 85.7805 70.5793 85.9525 71.7206C86.0432 72.3206 86.1592 72.918 86.2445 73.518C86.3419 74.198 86.4512 74.878 86.4965 75.562C86.5405 76.21 86.3019 76.5366 85.6965 76.774C85.2032 76.966 84.6965 77.1006 84.1579 77.094C83.3739 77.0833 82.5912 77.0913 81.8072 77.0913ZM83.4965 131.226C83.4699 131.191 83.4499 131.143 83.4139 131.123C82.9259 130.847 82.7139 130.398 82.6299 129.871C82.4045 128.451 82.1872 127.03 81.9605 125.61C81.8405 124.869 81.7205 124.127 81.5752 123.391C81.4125 122.566 81.1472 122.443 80.4312 122.903C79.2485 123.663 78.0859 124.455 76.9179 125.238C75.9352 125.897 74.9512 126.551 73.9765 127.222C72.9232 127.946 71.7565 128.359 70.4912 128.445C69.5205 128.511 68.5432 128.523 67.5699 128.506C66.4699 128.486 65.4219 128.183 64.4272 127.729C63.6139 127.358 62.8125 126.958 62.0232 126.538C61.0205 126.002 60.1925 125.238 59.5285 124.329C58.5312 122.962 57.5912 121.553 56.6285 120.159C56.5005 119.975 56.3925 119.778 56.2592 119.599C56.0352 119.298 55.8845 119.314 55.7019 119.654C55.6192 119.809 55.5552 119.973 55.4805 120.131C54.6219 121.986 53.7672 123.841 52.9005 125.69C52.6699 126.182 52.4299 126.673 52.1379 127.127C51.8739 127.541 51.5632 127.937 51.2179 128.285C50.8045 128.702 50.3485 128.635 49.9965 128.158C49.8845 128.006 49.7965 127.833 49.7112 127.662C48.2419 124.721 46.7739 121.778 45.3072 118.835C45.0645 118.347 44.8579 117.845 44.8152 117.294C44.7339 116.253 45.1699 115.613 46.1725 115.333C47.1765 115.054 48.2005 114.858 49.2392 114.821C50.6125 114.771 51.9885 114.779 53.3619 114.761C53.5379 114.758 53.7139 114.762 53.8885 114.739C54.0645 114.717 54.1405 114.61 54.0605 114.434C53.9952 114.289 53.9245 114.146 53.8459 114.007C53.1312 112.761 52.4032 111.521 51.7059 110.265C51.3419 109.61 51.0085 108.935 50.7059 108.25C50.3045 107.339 49.8445 106.461 49.2445 105.671C47.7525 103.711 46.4419 101.627 45.0392 99.606C42.3805 95.7726 39.7245 91.9366 37.0685 88.1006C36.5739 87.3886 36.5739 87.386 35.7605 87.746C34.6512 88.238 33.5405 88.7273 32.4352 89.2286C32.1752 89.3473 31.9192 89.4886 31.6885 89.654C31.4085 89.8566 31.3965 90.0553 31.6405 90.29C31.8125 90.454 32.0099 90.5966 32.2139 90.7193C32.7752 91.0566 33.3565 91.362 33.9099 91.7113C34.5032 92.086 35.0819 92.4833 35.6485 92.898C35.8645 93.0553 36.0472 93.27 36.2085 93.486C36.5499 93.9446 36.5085 94.4166 36.1152 94.8286C36.0165 94.9326 35.9045 95.026 35.7912 95.1126C34.3805 96.1886 32.9845 97.2846 31.5472 98.326C31.0765 98.666 30.5059 98.874 29.9699 99.1153C29.7312 99.2233 29.5659 99.114 29.5179 98.8566C29.4912 98.7166 29.4979 98.57 29.4965 98.4273C29.4859 96.2846 29.4765 94.142 29.4645 91.9993C29.4632 91.8393 29.4632 91.6766 29.4272 91.5233C29.3805 91.326 29.2565 91.2646 29.0632 91.3406C28.8859 91.4113 28.7192 91.5086 28.5539 91.6046C26.6832 92.694 25.0939 94.118 23.6392 95.7073C22.1685 97.314 20.8752 99.0606 19.5859 100.813C19.3112 101.186 19.0219 101.547 18.7512 101.925C18.4072 102.403 18.4672 102.689 18.9859 102.969C19.4072 103.195 19.8512 103.379 20.2779 103.597C20.8885 103.91 21.4979 104.227 22.0992 104.558C22.3499 104.697 22.5885 104.862 22.8139 105.039C23.4032 105.502 23.4579 106.034 22.9619 106.603C21.7765 107.966 20.5832 109.322 19.3899 110.678C18.9565 111.17 18.5179 111.658 18.0779 112.143C17.9299 112.306 17.7819 112.522 17.5259 112.442C17.2579 112.359 17.2845 112.094 17.2699 111.875C17.1272 109.898 16.9725 107.922 16.9952 105.937C16.9965 105.745 17.0072 105.553 16.9925 105.362C16.9859 105.281 16.9379 105.155 16.8832 105.141C16.8152 105.122 16.7005 105.175 16.6432 105.234C16.5312 105.346 16.4352 105.478 16.3485 105.611C13.6819 109.746 11.0179 113.882 8.35388 118.018C8.28455 118.126 8.21655 118.235 8.16588 118.351C8.00188 118.729 8.05788 119.027 8.35255 119.309C8.47921 119.43 8.62321 119.533 8.76454 119.638C9.45254 120.158 10.1472 120.673 10.8312 121.198C11.0459 121.363 11.2512 121.545 11.4339 121.745C11.9765 122.337 11.9739 122.878 11.4445 123.49C11.3605 123.586 11.2725 123.681 11.1752 123.763C9.92855 124.814 8.68188 125.866 7.43121 126.911C7.18321 127.119 6.90055 127.269 6.57121 127.301C6.24455 127.333 6.16588 127.302 6.07655 126.991C5.99788 126.719 5.93121 126.429 5.94321 126.15C6.00321 124.761 6.09255 123.373 6.16721 121.985C6.17388 121.861 6.15521 121.734 6.14721 121.609C6.05521 121.686 5.95255 121.753 5.86988 121.841C4.40988 123.407 2.95121 124.977 1.49388 126.549C1.34188 126.713 1.22722 126.913 1.06188 127.059C0.875215 127.227 0.667211 127.385 0.440544 127.487C0.236544 127.579 0.0912139 127.451 0.111214 127.229C0.123214 127.089 0.169878 126.947 0.227211 126.818C0.605878 125.949 1.08321 125.134 1.69388 124.413C2.37521 123.607 3.10055 122.839 3.80322 122.053C4.30322 121.493 4.81254 120.939 5.29121 120.361C5.87521 119.657 5.82055 119.263 5.06721 118.749C4.35521 118.261 3.62188 117.807 2.90055 117.333C2.47255 117.051 2.05788 116.75 1.74855 116.331C1.65388 116.203 1.55521 116.074 1.48455 115.933C1.26455 115.49 1.34588 115.047 1.72455 114.723C3.38721 113.298 5.05655 111.881 6.72455 110.461C6.76188 110.43 6.79921 110.399 6.83788 110.371C7.24321 110.085 7.52188 110.147 7.68455 110.626C7.82721 111.045 7.95521 111.489 7.97521 111.927C8.00988 112.675 7.97388 113.429 7.93255 114.177C7.89121 114.91 7.80455 115.641 7.74055 116.373C7.73788 116.402 7.74855 116.433 7.75255 116.463C7.79255 116.453 7.84855 116.454 7.86855 116.427C7.99655 116.265 8.12855 116.102 8.23921 115.927C10.6819 112.085 13.1219 108.242 15.5592 104.398C15.8805 103.891 15.7859 103.51 15.2459 103.221C14.7952 102.979 14.3245 102.777 13.8659 102.551C13.4072 102.327 12.9405 102.115 12.4992 101.861C12.1979 101.686 11.9072 101.474 11.6592 101.231C11.1685 100.75 11.0872 100.177 11.3845 99.562C11.4672 99.3913 11.5685 99.2246 11.6819 99.0713C12.7339 97.6446 13.7965 96.2233 14.8445 94.7926C15.1619 94.3593 15.6219 94.138 16.0659 93.89C16.1099 93.866 16.2272 93.89 16.2552 93.93C16.5379 94.334 16.8499 94.7166 16.9325 95.2326C17.1699 96.6993 17.4272 98.162 17.6779 99.626C17.7312 99.9406 17.7859 100.255 17.8445 100.57C17.8525 100.613 17.8859 100.65 17.9072 100.691C17.9445 100.662 17.9899 100.639 18.0179 100.603C18.1432 100.438 18.2659 100.27 18.3859 100.101C19.8045 98.086 21.2845 96.1206 22.9699 94.318C24.3485 92.8433 25.8125 91.4633 27.4859 90.3206C27.5512 90.2753 27.6165 90.2273 27.6725 90.1713C27.9099 89.938 27.9112 89.742 27.6512 89.5246C27.4805 89.3833 27.2819 89.274 27.0899 89.1593C26.2939 88.6846 25.4845 88.2313 24.7045 87.7326C24.2619 87.45 23.8405 87.1233 23.4552 86.7673C22.6672 86.042 22.7099 85.3846 23.5659 84.7446C24.5912 83.9793 25.6099 83.2046 26.6659 82.4846C27.2819 82.0633 27.9645 81.738 28.6192 81.374C28.7165 81.3206 28.8245 81.282 28.9299 81.2473C29.6179 81.014 30.1525 81.326 30.2512 82.0486C30.3605 82.8553 30.4472 83.666 30.5272 84.4766C30.6072 85.2886 30.6605 86.102 30.7392 86.9126C30.7605 87.134 30.8072 87.358 30.8819 87.5646C30.9912 87.8686 31.2099 87.9873 31.5259 87.9206C31.7579 87.8713 31.9939 87.8033 32.2072 87.7006C33.0725 87.2873 33.9325 86.8673 34.7859 86.4313C35.3072 86.166 35.3645 85.926 35.0432 85.4473C33.2419 82.75 31.4712 80.0313 29.6285 77.3633C22.6525 67.2686 15.6539 57.1886 8.66188 47.1046C6.94988 44.6353 5.22721 42.1753 3.50988 39.71C3.30988 39.422 3.11521 39.1286 2.92721 38.8313C2.73655 38.5286 2.76055 38.3206 3.01255 38.0633C3.13521 37.938 3.27521 37.8286 3.40988 37.7166C8.52721 33.4686 13.6445 29.2193 18.7632 24.9726C28.1032 17.2273 37.4459 9.48196 46.7872 1.73796C46.9965 1.56463 47.2045 1.38863 47.4179 1.22063C47.9205 0.823296 48.0712 0.816618 48.6019 1.20462C49.3125 1.72328 50.0152 2.2513 50.7192 2.77796C63.1685 12.0726 75.6179 21.37 88.0685 30.6646C90.1565 32.2233 92.2499 33.7726 94.3419 35.3273C94.4699 35.422 94.6019 35.514 94.7245 35.6166C95.0352 35.878 95.0632 36.0433 94.8499 36.398C94.0579 37.7113 93.2672 39.0246 92.4685 40.3326C86.0179 50.9153 79.5645 61.4966 73.1152 72.0793C72.9845 72.2953 72.8832 72.53 72.7685 72.7566C73.0139 72.7366 73.2605 72.73 73.5032 72.694C74.8672 72.4846 76.1645 72.0233 77.4752 71.6153C79.1672 71.0873 80.8539 70.5406 82.5405 69.9953C82.8285 69.902 83.1125 69.79 83.3832 69.658C83.8139 69.4486 84.0432 69.0886 83.9845 68.6086C83.9299 68.1513 83.8365 67.6966 83.7259 67.2486C83.4832 66.2726 83.1939 65.3073 82.9725 64.326C82.8352 63.722 82.7459 63.0993 82.7112 62.4806C82.6619 61.5966 83.0605 61.1406 83.9325 61.0046C84.6432 60.894 85.3565 60.8086 86.0685 60.7113C86.9392 60.5913 87.8099 60.4673 88.6805 60.3553C88.9819 60.3166 89.2859 60.2966 89.5885 60.2886C89.7632 60.2833 89.9432 60.298 90.1125 60.3353C90.7205 60.4713 91.0085 60.9326 90.7992 61.5193C90.5845 62.1193 90.3485 62.7206 90.0392 63.274C89.5419 64.1646 88.9832 65.0206 88.4365 65.8833C88.0859 66.4366 87.7099 66.974 87.3499 67.5206C87.3205 67.5646 87.3165 67.626 87.3019 67.6806C87.3605 67.6713 87.4245 67.6726 87.4792 67.6513C88.2925 67.3206 89.1112 66.9993 89.9165 66.6513C93.2752 65.202 96.6285 63.7433 99.9832 62.2873C100.057 62.2553 100.131 62.2273 100.203 62.1913C100.811 61.894 100.982 61.542 100.741 60.9126C100.273 59.6913 99.7725 58.4806 99.2872 57.266C99.1565 56.9406 99.0205 56.6166 98.9032 56.2846C98.8352 56.0913 98.7765 55.8873 98.7539 55.6833C98.6685 54.922 98.9805 54.406 99.7179 54.1846C100.189 54.0433 100.682 53.9593 101.173 53.9033C102.617 53.7366 104.063 53.5846 105.511 53.454C105.887 53.4206 106.282 53.4353 106.651 53.5126C107.235 53.634 107.518 54.0633 107.41 54.6486C107.339 55.0366 107.219 55.4286 107.047 55.782C106.634 56.6286 106.191 57.4606 105.735 58.2833C105.386 58.9113 104.995 59.5153 104.627 60.1326C104.522 60.31 104.427 60.4966 104.341 60.6846C104.306 60.7633 104.306 60.858 104.29 60.9446C104.367 60.9406 104.445 60.9446 104.519 60.9313C105.918 60.6726 107.321 60.4553 108.745 60.3726C110.01 60.3006 111.27 60.342 112.529 60.4633C114.83 60.686 117.061 61.2273 119.239 61.994C119.419 62.0566 119.606 62.1126 119.794 62.1393C120.145 62.1886 120.302 62.0606 120.329 61.7006C120.346 61.4633 120.337 61.2206 120.317 60.9833C120.213 59.7566 120.082 58.5326 120.001 57.3046C119.977 56.9313 120.033 56.5366 120.133 56.1726C120.343 55.4126 120.882 55.15 121.611 55.446C122.379 55.7593 123.133 56.1126 123.889 56.4553C125.722 57.286 127.553 58.1193 129.385 58.954C129.53 59.0193 129.679 59.0833 129.809 59.1753C130.169 59.4313 130.193 59.7553 129.873 60.0553C129.745 60.174 129.594 60.27 129.45 60.37C128.366 61.1166 127.183 61.6793 125.991 62.2246C125.425 62.4846 124.857 62.7393 124.291 62.9993C124.146 63.066 123.998 63.134 123.871 63.2286C123.586 63.4433 123.53 63.706 123.682 64.0326C123.723 64.1193 123.77 64.2046 123.83 64.278C124.415 64.9966 124.957 65.7593 125.603 66.418C126.633 67.4673 127.209 68.714 127.427 70.1393C127.785 72.4873 127.815 74.85 127.67 77.218C127.422 81.2433 126.541 85.1486 125.483 89.0246C125.311 89.6553 125.161 90.2926 125.027 90.934C124.885 91.6193 125.133 92.018 125.809 92.1753C126.835 92.4153 127.869 92.6246 128.899 92.846C129.025 92.874 129.149 92.9046 129.274 92.9233C130.262 93.074 130.803 93.7126 131.114 94.6033C131.23 94.938 131.191 95.2673 131.066 95.5873C130.609 96.762 130.142 97.9326 129.685 99.1073C129.011 100.835 128.163 102.482 127.33 104.135C127.273 104.249 127.203 104.358 127.123 104.457C126.839 104.807 126.605 104.838 126.275 104.537C126.139 104.413 126.039 104.238 125.954 104.071C125.25 102.713 124.855 101.249 124.474 99.7793C124.146 98.5113 123.83 97.2406 123.494 95.9753C123.418 95.6846 123.285 95.41 123.178 95.1273C123.031 95.3833 122.863 95.6286 122.742 95.8953C120.713 100.338 118.689 104.782 116.663 109.227C116.617 109.329 116.565 109.427 116.523 109.531C116.305 110.083 116.371 110.593 116.749 111.059C117.094 111.485 117.485 111.857 117.962 112.134C118.902 112.679 119.841 113.227 120.775 113.781C121.091 113.969 121.407 114.159 121.699 114.379C121.965 114.581 122.222 114.806 122.439 115.057C122.794 115.469 122.942 115.963 122.749 116.487C122.578 116.947 122.387 117.413 122.123 117.823C120.959 119.639 119.766 121.435 118.582 123.238C118.398 123.518 118.222 123.805 118.018 124.071C117.874 124.258 117.711 124.446 117.519 124.578C117.053 124.901 116.698 124.767 116.531 124.231C116.483 124.079 116.449 123.922 116.423 123.765C116.179 122.299 115.942 120.834 115.699 119.369C115.393 117.509 115.085 115.649 114.777 113.789C114.762 113.694 114.751 113.598 114.73 113.506C114.675 113.269 114.639 113.255 114.471 113.417C114.333 113.55 114.207 113.695 114.079 113.838C112.015 116.127 109.57 117.846 106.614 118.781C105.794 119.041 104.947 119.217 104.109 119.413C103.367 119.586 103.253 119.749 103.577 120.427C104.278 121.895 105.018 123.346 105.725 124.813C106.093 125.574 106.45 126.342 106.758 127.127C106.911 127.522 107.001 127.961 107.019 128.385C107.063 129.415 106.403 130.186 105.381 130.365C105.146 130.406 104.906 130.433 104.667 130.438C102.157 130.486 99.6472 130.533 97.1365 130.567C96.8205 130.571 96.4939 130.55 96.1899 130.47C95.5259 130.298 95.2165 129.806 95.3379 129.131C95.3965 128.803 95.5032 128.481 95.6192 128.169C96.3912 126.089 97.1752 124.013 97.9499 121.934C98.1685 121.346 98.3099 120.741 98.2832 120.107C98.2592 119.559 98.0899 119.367 97.5472 119.407C96.7992 119.463 96.0552 119.571 95.3085 119.655C94.0072 119.799 92.7059 119.958 91.4019 120.083C89.8752 120.23 88.3445 120.337 86.8179 120.483C86.4392 120.519 86.0699 120.645 85.6979 120.734C85.6392 120.747 85.5845 120.785 85.5299 120.81C85.5699 120.857 85.6045 120.914 85.6539 120.949C86.4819 121.521 87.3165 122.085 88.1405 122.662C88.9005 123.194 89.6565 123.729 90.3992 124.283C90.6525 124.473 90.8872 124.701 91.0845 124.949C91.6285 125.633 91.6085 126.445 91.0139 127.085C90.7685 127.349 90.4619 127.573 90.1472 127.753C88.2499 128.843 86.3419 129.915 84.4379 130.995C84.3125 131.066 84.1939 131.149 84.0725 131.226H83.4965Z" fill="#F17171"/>
</svg>
