<svg width="135" height="136" viewBox="0 0 135 136" fill="none" xmlns="http://www.w3.org/2000/svg">
<path d="M70.289 135.417C66.1343 135.417 61.9783 135.419 57.8236 135.412C57.621 135.412 57.4196 135.336 57.217 135.295C57.3143 135.091 57.3663 134.847 57.513 134.691C60.2756 131.727 62.529 128.381 64.6636 124.965C66.8703 121.433 68.0543 117.5 68.6836 113.401C69.1423 110.411 69.273 107.391 69.1236 104.375C69.0356 102.58 68.7876 100.785 68.4823 99.0133C68.2703 97.7933 67.5903 96.7773 66.5863 95.9946C65.8276 95.4026 65.0343 95.22 64.0996 95.5173C61.6516 96.296 59.4263 97.5213 57.4023 99.0573C54.9756 100.899 52.6343 102.855 50.3076 104.821C47.5796 107.128 44.7796 109.321 41.577 110.943C39.7383 111.872 37.809 112.576 35.8143 113.088C33.885 113.584 31.945 114.035 30.0196 114.543C28.5516 114.931 27.1303 114.705 25.6836 114.408C20.9263 113.435 16.5063 111.665 12.5303 108.861C6.36763 104.515 2.36363 98.7293 0.842299 91.2786C0.338299 88.812 0.120966 86.336 0.267632 83.832C0.306299 83.1786 0.56363 82.5386 0.70763 81.8906C1.1783 79.7666 1.48496 77.5906 2.14363 75.528C3.28363 71.9586 5.09297 68.7106 7.5183 65.8293C10.6903 62.0613 14.513 59.1413 19.057 57.2466C21.089 56.4 23.2476 55.8626 25.3183 55.1026C26.413 54.7 27.4623 54.7493 28.565 54.9733C32.2996 55.7293 35.8996 56.9386 39.445 58.296C43.761 59.948 48.0263 61.728 52.3343 63.4C53.8103 63.9733 55.3623 64.3506 56.8543 64.8893C58.0116 65.308 58.709 65.0146 59.5623 64.032C60.9783 62.4013 61.1236 59.3933 58.9303 57.6546C57.3823 56.428 55.6676 55.492 53.9476 54.548C51.0863 52.976 48.1303 51.5386 45.4103 49.7466C40.3903 46.4413 36.4623 42.0666 33.949 36.5666C31.2583 30.6773 31.0636 24.6946 33.7476 18.716C35.0023 15.92 36.8596 13.5613 39.0996 11.4906C42.7276 8.13464 47.0303 5.94797 51.6103 4.2213C54.6556 3.07463 57.817 2.3893 61.001 1.81197C63.1703 1.41997 65.361 1.09597 67.557 0.905302C69.553 0.731968 71.565 0.798644 73.5583 1.13064C76.1196 1.55731 78.713 1.82931 81.2463 2.37731C87.0916 3.64264 92.5276 5.91464 97.3236 9.54131C100.525 11.964 103.198 14.8666 104.894 18.5706C105.968 20.9133 106.622 23.3573 106.788 25.9386C107.185 32.1853 105.089 37.6186 101.389 42.5146C98.409 46.46 94.657 49.528 90.3263 51.8893C87.1716 53.6093 83.9783 55.26 80.8223 56.98C78.309 58.3493 77.5023 61.3266 79.0396 63.6C79.401 64.1346 79.9503 64.5813 80.4983 64.936C80.7943 65.1266 81.2903 65.1266 81.6636 65.0533C82.5303 64.88 83.381 64.6253 84.2316 64.3773C88.741 63.064 93.0156 61.1426 97.3303 59.3226C101.328 57.636 105.477 56.4413 109.688 55.412C110.917 55.112 112.004 55.228 113.148 55.5653C116.532 56.5666 119.728 57.9626 122.544 60.124C127.005 63.548 130.024 68.02 131.98 73.248C133.009 75.9973 133.746 78.8253 134.089 81.7453C134.742 87.3226 134.156 92.728 131.846 97.904C130.264 101.453 128.061 104.547 125.18 107.147C122.4 109.656 119.253 111.581 115.726 112.851C114.353 113.345 112.936 113.721 111.536 114.143C110.865 114.345 110.194 114.319 109.51 114.148C104.07 112.791 99.009 110.568 94.305 107.52C90.7076 105.188 87.429 102.432 84.0303 99.8346C82.377 98.572 80.6743 97.368 78.961 96.1866C78.485 95.8573 77.9036 95.6546 77.3436 95.4733C75.641 94.924 74.1876 95.5346 73.137 97.18C72.269 98.5386 71.8276 100.061 71.7076 101.629C71.517 104.107 71.369 106.6 71.4223 109.081C71.5863 116.916 74.1463 123.927 79.0023 130.077C80.1556 131.54 81.4356 132.903 82.6476 134.32C82.905 134.621 83.1183 134.959 83.3516 135.28C82.981 135.325 82.6103 135.411 82.241 135.412C78.257 135.421 74.273 135.417 70.289 135.417Z" fill="#EAEB81"/>
</svg>
