<svg width="134" height="132" viewBox="0 0 134 132" fill="none" xmlns="http://www.w3.org/2000/svg">
<path d="M26.9828 129.602C26.9681 128.554 27.2148 127.668 27.4001 126.774C28.3681 122.105 29.3615 117.442 30.3188 112.772C30.9001 109.937 31.4468 107.096 31.9788 104.252C32.2468 102.821 32.5428 101.4 32.9361 99.9969C33.3868 98.3903 33.6041 96.737 33.8201 95.0876C33.9588 94.041 34.1948 93.0223 34.5175 92.0236C34.8828 90.8903 35.0815 89.7223 35.2601 88.5516C35.5215 86.8316 35.8148 85.1223 36.2375 83.4303C36.5828 82.0503 36.8161 80.6423 37.1161 79.2503C37.4961 77.4769 37.9001 75.7089 38.2815 73.9356C38.4255 73.2609 38.5441 72.5809 38.6535 71.9009C38.8161 70.8916 38.5015 70.1156 37.6375 69.4943C35.6535 68.0663 33.7161 66.5769 31.7561 65.1156C29.3041 63.2863 26.8468 61.4663 24.3988 59.6303C22.3468 58.0929 20.3135 56.5303 18.2601 54.997C16.6628 53.8036 15.0361 52.6476 13.4388 51.4543C10.9988 49.6343 8.56814 47.8036 6.14547 45.9623C5.07214 45.1449 4.01081 44.3103 2.97481 43.4463C2.03347 42.6636 1.37747 41.6663 0.984141 40.5023C0.861474 40.141 0.890808 39.8036 1.07614 39.4623C1.49081 38.7009 2.08947 38.2289 2.96947 38.1076C4.54281 37.8889 6.11214 37.641 7.68281 37.4103C9.46281 37.149 11.2415 36.8849 13.0228 36.6396C14.3281 36.4583 15.6375 36.3023 16.9455 36.1396C18.2548 35.9769 19.5641 35.8249 20.8721 35.6623C22.1801 35.4996 23.4895 35.3383 24.7948 35.1583C26.3535 34.9449 27.9095 34.7103 29.4668 34.4863C31.2615 34.2276 33.0561 33.9703 34.8508 33.7156C36.6468 33.4609 38.4415 33.2063 40.2375 32.9609C41.7668 32.7516 43.3001 32.5689 44.8268 32.3503C46.4588 32.1169 48.0855 31.8556 49.7148 31.6063C50.7361 31.4503 51.7548 31.2596 52.7815 31.1449C53.8335 31.0249 54.4868 30.4383 54.9521 29.5396C55.3655 28.7423 55.8148 27.9609 56.2615 27.1796C57.5681 24.8889 58.8761 22.5956 60.1975 20.3116C60.6775 19.4809 61.2135 18.6836 61.6908 17.8516C62.7295 16.0436 63.7401 14.221 64.7735 12.4116C66.0748 10.133 67.3921 7.86362 68.6908 5.58228C69.4108 4.31962 70.1135 3.04628 70.8095 1.76895C71.1655 1.11695 71.6881 0.771614 72.4375 0.768948C72.8041 0.766281 73.0895 0.922284 73.2615 1.22628C74.0268 2.57695 75.0415 3.74628 75.9735 4.97561C77.8468 7.44895 79.7641 9.89028 81.6228 12.3756C84.0108 15.5703 86.3535 18.7983 88.7241 22.0063C90.1681 23.9596 91.6295 25.8996 93.0788 27.8489C93.5161 28.4396 93.9361 29.0423 94.3748 29.633C95.1041 30.6156 96.0908 31.0703 97.3135 31.1076C98.2241 31.1343 99.1348 31.2396 100.044 31.321C101.177 31.4236 102.309 31.5396 103.443 31.6463C104.337 31.7303 105.233 31.8009 106.127 31.8889C107.707 32.0449 109.284 32.2316 110.865 32.3649C111.984 32.4596 113.109 32.4783 114.229 32.5503C115.007 32.5996 115.781 32.6836 116.557 32.7516C117.437 32.8303 118.317 32.9049 119.197 32.9889C120.256 33.0903 121.313 33.1983 122.372 33.3049C123.4 33.4103 124.425 33.5383 125.456 33.6183C126.545 33.7049 127.64 33.7276 128.729 33.8156C129.655 33.889 130.576 34.0169 131.499 34.1209C131.856 34.1596 132.213 34.1876 132.569 34.2343C133.244 34.3236 133.621 34.7449 133.84 35.3596C133.939 35.6396 133.927 35.869 133.74 36.113C133.403 36.5543 133.089 37.0116 132.773 37.4676C131.721 38.9836 130.692 40.5143 129.613 42.0103C129.055 42.7876 128.409 43.5036 127.805 44.2476C127.692 44.3876 127.58 44.5303 127.483 44.6796C125.756 47.3343 123.861 49.8689 121.979 52.4116C120.784 54.0263 119.529 55.5956 118.301 57.1863C118.247 57.2569 118.183 57.325 118.144 57.4036C117.459 58.769 116.428 59.8956 115.584 61.1516C115.183 61.7476 114.755 62.3289 114.316 62.8983C113.977 63.3396 113.941 63.7676 114.167 64.2796C114.961 66.0929 115.671 67.9383 116.303 69.8183C116.721 71.0649 117.292 72.2623 117.795 73.4823C118.388 74.9236 119.029 76.3476 119.56 77.8116C120.313 79.885 121.123 81.933 121.94 83.981C122.68 85.8316 123.339 87.7156 124.043 89.5809C124.583 91.0129 125.16 92.4276 125.86 93.7929C126.205 94.4676 126.469 95.1956 126.687 95.925C127.188 97.5956 127.84 99.2063 128.493 100.818C129.236 102.653 130.011 104.476 130.733 106.318C131.148 107.378 131.487 108.469 131.861 109.545C132.015 109.984 132.047 110.421 131.887 110.866C131.752 111.24 131.629 111.345 131.233 111.366C130.32 111.414 129.449 111.277 128.619 110.854C128.14 110.612 127.628 110.417 127.111 110.276C125.619 109.864 124.185 109.288 122.735 108.758C120.128 107.809 117.52 106.866 114.908 105.932C114.387 105.745 113.848 105.602 113.313 105.454C111.676 105.001 110.127 104.306 108.537 103.721C106.723 103.054 104.879 102.464 103.053 101.824C99.6161 100.617 96.1801 99.4023 92.7468 98.1823C90.2748 97.3036 87.8068 96.4116 85.3361 95.5263C84.2068 95.121 83.0735 94.729 81.9495 94.309C81.5801 94.1703 81.2508 94.1663 80.9268 94.3903C80.0295 95.0156 79.1175 95.6223 78.2361 96.2703C74.6988 98.8743 71.1655 101.485 67.6415 104.109C66.8001 104.734 66.0108 105.43 65.1828 106.073C64.3775 106.697 63.5601 107.309 62.7321 107.902C59.7708 110.024 56.7881 112.118 53.8388 114.257C51.1441 116.212 48.4828 118.212 45.8041 120.188C43.3295 122.012 40.8575 123.838 38.3748 125.649C36.2188 127.221 34.0455 128.772 31.8855 130.338C31.2788 130.778 30.6868 131.24 30.0961 131.7C29.8481 131.893 29.5868 131.993 29.2668 131.98C28.8481 131.962 28.4255 131.957 28.0081 131.981C27.6641 132 27.4935 131.854 27.3815 131.541C27.1415 130.873 26.9428 130.201 26.9828 129.602Z" fill="#EAEB81"/>
</svg>
