<svg width="134" height="132" viewBox="0 0 134 132" fill="none" xmlns="http://www.w3.org/2000/svg">
<path d="M31.1492 118.769C30.8266 118.515 30.6612 118.509 30.3626 118.757C26.8599 121.675 23.3839 124.627 19.8239 127.473C17.6372 129.221 15.2706 130.762 12.4679 131.307C9.93856 131.799 7.38256 131.73 4.90789 130.885C1.83723 129.837 1.14256 128.239 2.08789 124.69C2.46389 123.273 3.63456 122.39 5.05056 121.994C6.64389 121.547 8.25589 121.158 9.87589 120.813C13.3239 120.077 16.3212 118.614 18.4292 115.667C19.3226 114.418 20.1946 113.154 21.0972 111.913C21.4066 111.487 21.3412 111.213 20.9679 110.849C17.6266 107.59 14.8572 103.873 12.5426 99.8408C9.82256 95.1048 8.01322 90.0208 7.08122 84.6194C6.40256 80.6794 6.27989 76.7528 6.65589 72.7701C6.97989 69.3314 7.72656 66.0061 8.77589 62.7448C10.6719 56.8474 13.8106 51.6381 17.7252 46.8648C21.9852 41.6714 27.1879 37.6288 32.9159 34.2008C39.1066 30.4941 45.8266 28.1888 52.8372 26.6568C56.7079 25.8114 60.6466 25.4674 64.5852 25.1381C65.0266 25.1008 65.1959 24.9634 65.1919 24.5154C65.1666 21.7074 65.1532 18.8994 65.1506 16.0914C65.1506 15.5888 64.9586 15.4021 64.4492 15.4074C62.5319 15.4288 60.6146 15.4194 58.6972 15.4168C57.0532 15.4141 55.3866 13.7781 55.1746 12.1448C54.8679 9.77009 56.4212 8.9701 58.1279 8.99143C61.3879 9.0341 64.6506 9.03277 67.9106 8.98344C70.5039 8.9461 73.0959 8.77143 75.6892 8.73809C76.7986 8.72343 77.9159 8.87676 79.0212 9.01676C80.0879 9.15143 80.5066 9.6981 80.4812 10.7688C80.4652 11.4168 80.5306 12.0808 80.4092 12.7088C80.1426 14.0808 79.1986 14.9194 77.6519 15.0448C75.3719 15.2301 73.0826 15.3154 70.7959 15.4021C70.2866 15.4221 70.1252 15.5568 70.1306 16.0781C70.1559 18.8701 70.1519 21.6634 70.1359 24.4568C70.1332 24.9621 70.3039 25.0901 70.8092 25.1474C74.2959 25.5461 77.7999 25.8674 81.2572 26.4568C85.9652 27.2594 90.5705 28.4954 94.9292 30.5181C95.2985 30.6901 95.6719 30.8594 96.0532 30.9994C103.699 33.8101 110.127 38.4954 115.816 44.1874C121.837 50.2128 126.228 57.3034 128.496 65.5728C130.313 72.2021 130.561 78.9181 129.359 85.7114C128.721 89.3141 127.647 92.7608 126.121 96.0501C123.555 101.587 120.073 106.517 115.76 110.85C115.123 111.49 114.509 112.155 113.911 112.833C113.833 112.921 113.849 113.199 113.931 113.305C114.391 113.902 114.932 114.442 115.357 115.062C116.7 117.018 118.503 118.406 120.58 119.497C122.311 120.405 124.193 120.703 126.077 121.073C127.415 121.334 128.744 121.722 130.013 122.219C131.939 122.973 132.92 125.117 132.736 127.466C132.621 128.934 131.901 129.818 130.629 130.405C128.677 131.305 126.627 131.51 124.5 131.553C120.517 131.631 117.381 129.747 114.424 127.423C111.944 125.475 109.533 123.437 107.083 121.45C106.509 120.985 105.891 120.575 105.307 120.121C104.707 119.653 104.155 119.618 103.571 120.163C103.297 120.417 101.813 121.305 101.551 121.441C94.0306 125.343 86.0212 127.722 77.6546 128.781C70.9199 129.633 64.1639 129.591 57.4052 128.575C51.4972 127.687 45.8186 126.098 40.3199 123.821C38.5519 123.087 36.8572 122.178 35.1172 121.374C34.9039 121.275 32.0799 119.499 31.1492 118.769Z" fill="#DB4C97"/>
<path d="M71.3475 4.83482C68.3155 4.83482 65.2835 4.83615 62.2515 4.83348C60.9102 4.83348 59.5622 4.73882 58.2288 4.83348C54.5315 5.09748 50.8248 5.31349 47.1528 5.78149C43.1342 6.29349 39.1115 6.90015 35.1595 7.77615C31.6888 8.54415 28.2928 9.69615 25.4928 12.0748C25.2408 12.2895 24.9742 12.4988 24.7715 12.7562C24.6568 12.9002 24.5702 13.2628 24.6328 13.3095C24.8182 13.4482 25.1168 13.5895 25.3142 13.5335C27.3568 12.9415 29.3595 12.1695 31.4342 11.7348C33.1728 11.3708 34.9902 11.3108 36.7755 11.2522C40.1582 11.1428 43.3288 12.1228 46.4328 13.3442C46.8902 13.5242 47.3288 13.7922 47.7168 14.0962C48.9782 15.0842 49.3208 16.4535 48.4088 17.7562C47.6142 18.8908 46.5808 19.8682 45.5968 20.8588C40.8555 25.6322 35.3395 29.4708 30.0982 33.6401C25.6808 37.1521 21.3048 40.7188 16.8208 44.1468C14.3328 46.0495 11.6635 47.7161 9.07018 49.4828C8.83418 49.6441 8.56751 49.7588 8.31018 49.8855C5.99551 51.0268 4.74085 50.8935 2.85951 49.1362C2.41285 48.7188 2.13285 48.0535 1.93418 47.4508C0.90218 44.3081 0.544846 41.0535 1.06485 37.8041C1.35951 35.9601 2.01152 34.1108 2.83685 32.4281C3.78752 30.4908 5.17952 28.7762 6.24352 26.8882C7.03818 25.4762 8.20485 24.4642 9.34352 23.3908C9.49018 23.2522 9.59552 22.8322 9.50218 22.7135C6.39685 18.7322 7.71551 13.3908 12.9622 11.0188C14.8328 10.1735 16.7955 10.0362 18.8168 10.2802C19.1982 10.3255 19.7408 10.1908 19.9968 9.93082C23.1808 6.68282 27.2795 5.28015 31.5222 4.19615C33.5502 3.67748 35.6062 3.23482 37.6742 2.91748C40.5262 2.48015 43.3968 2.15215 46.2688 1.85482C50.3888 1.42682 54.5115 1.02682 58.6635 1.01215C60.3795 1.00548 62.0955 0.742819 63.8088 0.765486C69.5662 0.842819 75.3222 0.99482 81.0782 1.12415C82.5422 1.15615 84.0288 1.05615 85.4635 1.28282C90.7595 2.12149 96.0382 3.06682 101.322 3.98282C104.624 4.55482 107.848 5.41082 110.806 7.02149C112.044 7.69482 113.228 8.50815 114.317 9.40148C115.101 10.0455 115.864 10.2988 116.865 10.2482C119.188 10.1295 121.314 10.7628 123.169 12.2081C126.348 14.6841 127.104 18.3001 125.212 21.8468C125.124 22.0095 125.166 22.3721 125.292 22.4988C127.748 24.9801 129.624 27.8841 131.228 30.9428C132.92 34.1681 133.549 37.6495 132.994 41.2881C132.77 42.7588 132.546 44.2388 132.18 45.6775C131.869 46.8908 131.272 47.9028 130.076 48.6295C128.566 49.5455 127.173 49.3681 125.86 48.5521C123.146 46.8668 120.458 45.1268 117.87 43.2561C114.946 41.1455 112.125 38.8908 109.293 36.6548C104.638 32.9788 99.9662 29.3242 95.3888 25.5535C92.4342 23.1188 89.6155 20.5161 86.7862 17.9348C86.1875 17.3881 85.7462 16.6401 85.3355 15.9255C84.7862 14.9668 85.2195 13.3148 86.2648 12.7908C87.7515 12.0455 89.2822 11.2855 90.8822 10.8895C93.1128 10.3375 95.4155 9.93615 97.7048 9.81215C99.3755 9.72015 101.128 9.99215 102.752 10.4375C105.04 11.0628 107.234 12.0242 109.493 12.7682C109.766 12.8575 110.193 12.4828 110.549 12.3228C110.37 12.0922 110.237 11.7935 110.006 11.6428C107.62 10.0868 105.134 8.75348 102.321 8.09215C98.3208 7.15215 94.2542 6.65082 90.1942 6.05748C83.9395 5.14282 77.6408 5.02415 71.3475 4.83482Z" fill="#DB4C97"/>
</svg>
