<svg width="140" height="139" viewBox="0 0 140 139" fill="none" xmlns="http://www.w3.org/2000/svg">
<path d="M88.7871 108.456C88.7791 106.258 89.0698 104.09 89.4765 101.942C89.7658 100.411 90.1285 98.891 90.5178 97.383C90.9458 95.731 91.3218 94.071 91.6325 92.395C91.7471 91.779 91.8791 91.1603 92.0845 90.571C92.4445 89.5417 92.2071 88.6777 91.4978 87.9017C91.4871 87.8897 91.4765 87.8777 91.4658 87.8657C90.3765 86.7057 89.2898 85.543 88.1965 84.387C88.0551 84.2377 87.8871 84.103 87.7085 84.003C87.5005 83.8857 87.3698 83.9363 87.2965 84.1643C87.2298 84.375 87.1951 84.603 87.1885 84.8243C87.1005 87.7043 86.6218 90.5163 85.7231 93.2523C84.9405 95.635 83.8205 97.855 82.4045 99.9243C81.9205 100.631 81.4538 100.767 80.6671 100.428C79.9151 100.106 79.1658 99.7697 78.4111 99.4497C77.4058 99.0217 76.5631 98.3443 75.7271 97.667C74.6778 96.819 73.6485 95.943 72.6378 95.0497C72.2671 94.723 71.9738 94.3097 71.6445 93.9363C71.5165 93.7923 71.3978 93.6363 71.2525 93.5137C71.0538 93.3443 70.8778 93.3963 70.8245 93.6483C70.7551 93.9777 70.7271 94.3163 70.6858 94.651C70.5311 95.943 70.3791 97.235 70.2258 98.527C70.1578 99.1017 70.0911 99.675 70.0218 100.25C69.9551 100.804 70.1871 101.226 70.6245 101.532C71.0058 101.8 71.4098 102.035 71.8031 102.286C73.6458 103.463 75.4951 104.63 77.3285 105.823C78.8711 106.827 80.2645 108.016 81.5031 109.378C82.3498 110.307 83.0991 111.314 83.7111 112.415C84.5098 113.851 85.2125 115.332 85.6831 116.912C85.8485 117.467 85.9698 118.034 86.1311 118.59C86.2818 119.108 86.0951 119.512 85.7205 119.839C85.2471 120.252 84.6925 120.464 84.0511 120.5C82.0658 120.611 80.1871 120.171 78.3578 119.447C75.6738 118.384 73.2245 116.927 71.0231 115.059C70.4965 114.611 70.0031 114.124 69.4925 113.659C69.3511 113.53 69.2085 113.395 69.0485 113.292C68.8231 113.15 68.6485 113.206 68.5378 113.44C68.4911 113.54 68.4698 113.655 68.4485 113.764C68.2551 114.743 68.0698 115.722 67.8725 116.699C67.8125 116.998 67.7271 117.291 67.6458 117.586C67.5565 117.914 67.6325 118.2 67.8831 118.419C68.1738 118.671 68.4751 118.914 68.7925 119.131C69.5338 119.64 70.2938 120.126 71.0378 120.632C72.2951 121.491 73.3498 122.578 74.3711 123.692C75.1538 124.546 75.8431 125.475 76.4325 126.479C77.1631 127.719 77.6858 129.051 78.1765 130.395C78.7778 132.043 79.2751 133.724 79.6351 135.443C79.6818 135.663 79.7365 135.882 79.7938 136.099C79.9205 136.58 79.9111 136.603 79.4645 136.85C78.6845 137.279 77.8431 137.394 76.9871 137.223C76.3285 137.092 75.6765 136.892 75.0498 136.65C74.1525 136.302 73.2671 135.914 72.4018 135.492C71.2765 134.946 70.3578 134.104 69.4418 133.271C68.8698 132.752 68.3085 132.223 67.7631 131.678C67.4578 131.372 67.1965 131.022 66.9098 130.696C66.7725 130.539 66.6378 130.376 66.4778 130.244C66.3258 130.119 66.1671 130.154 66.0765 130.331C66.0058 130.471 65.9671 130.631 65.9378 130.787C65.5991 132.555 65.2538 134.323 64.9338 136.095C64.8311 136.666 64.5618 137.123 64.1378 137.487C63.4698 138.06 62.7178 138.482 61.8458 138.668C61.1871 138.81 60.5898 138.691 60.1005 138.219C59.4085 137.55 58.7378 136.858 58.0565 136.178C57.8831 136.006 57.8458 135.823 57.9791 135.615C58.5125 134.786 58.6058 133.838 58.7165 132.895C58.7711 132.432 58.8018 131.967 58.8471 131.504C58.8631 131.342 58.9018 131.168 58.7338 131.068C58.5525 130.96 58.3885 131.06 58.2471 131.17C58.0311 131.336 57.8125 131.503 57.6165 131.692C56.2285 133.022 54.6938 134.16 53.0738 135.186C51.8418 135.966 50.5285 136.556 49.0885 136.844C47.8671 137.088 46.6898 137 45.5751 136.403C45.4338 136.328 45.2951 136.244 45.1618 136.155C44.3645 135.615 44.1485 134.967 44.4778 134.066C44.7751 133.251 45.0738 132.435 45.3965 131.628C45.8191 130.568 46.2245 129.499 46.7071 128.466C47.9685 125.763 49.7098 123.438 52.2831 121.848C53.1405 121.32 54.0791 120.914 55.0045 120.507C56.5498 119.827 58.1111 119.183 59.6738 118.544C60.0765 118.379 60.2965 118.11 60.3685 117.698C60.5618 116.59 60.7551 115.482 60.9445 114.372C61.0338 113.85 61.1298 113.327 61.1911 112.8C61.2151 112.586 61.1738 112.356 61.1258 112.142C61.0845 111.951 60.9325 111.894 60.7498 111.967C60.5711 112.039 60.3951 112.119 60.2231 112.206C58.5898 113.038 56.9631 113.884 55.3218 114.7C53.8231 115.447 52.2618 116.048 50.6578 116.531C49.3058 116.939 47.9191 117.098 46.5098 117C46.0311 116.968 45.5498 116.891 45.0831 116.779C44.1285 116.551 43.4911 115.915 43.0338 115.075C42.9431 114.908 42.9351 114.746 43.0165 114.568C43.8805 112.702 44.6085 110.77 45.6618 108.994C46.4578 107.651 47.4738 106.5 48.6978 105.534C50.4085 104.183 52.3218 103.208 54.3751 102.507C55.4551 102.139 56.5525 101.818 57.6378 101.466C59.1071 100.988 60.5565 100.463 61.9658 99.8243C62.4671 99.5977 62.7671 99.2457 62.8658 98.719C63.0365 97.819 63.2018 96.9177 63.3551 96.0163C63.4098 95.7003 63.4391 95.379 63.4565 95.0577C63.4645 94.919 63.4311 94.771 63.3885 94.6363C63.3431 94.495 63.2231 94.4363 63.0791 94.491C62.9298 94.5483 62.7818 94.6137 62.6405 94.6883C61.4311 95.3257 60.2271 95.9723 59.0138 96.6017C57.8485 97.2057 56.6191 97.6363 55.3071 97.7603C54.6365 97.823 53.9551 97.831 53.2845 97.787C52.6138 97.7443 51.9431 97.631 51.2805 97.5043C49.9791 97.2577 49.0871 96.5057 48.5911 95.2683C48.1458 94.1563 47.8978 92.9923 47.6471 91.831C47.4191 90.779 47.2445 89.715 47.0885 88.6497C46.9671 87.8177 47.0565 86.983 47.1858 86.1523C47.3191 85.295 47.4325 84.435 47.5551 83.5763C47.5658 83.4963 47.5858 83.4163 47.5858 83.3377C47.5858 83.055 47.4445 82.923 47.1578 82.9577C47.0338 82.9737 46.9058 83.015 46.7938 83.0737C45.3125 83.8483 43.8325 84.627 42.3525 85.4043C41.9205 85.631 41.6805 85.9923 41.6045 86.467C41.5738 86.6563 41.5551 86.8497 41.5485 87.0417C41.5378 87.363 41.5431 87.6843 41.5378 88.0057C41.5031 89.999 41.5138 91.9937 41.4218 93.9843C41.2925 96.8177 40.9298 99.6203 40.0431 102.332C39.2738 104.682 38.1485 106.834 36.4871 108.683C35.8938 109.343 35.2351 109.935 34.5085 110.443C33.2311 111.338 31.7671 111.012 31.0191 109.646C30.7351 109.127 30.5111 108.566 30.3391 108C29.8725 106.472 29.5991 104.907 29.5738 103.304C29.5671 102.903 29.4858 102.5 29.5058 102.102C29.5698 100.819 29.6591 99.5377 29.7525 98.2563C29.8125 97.4403 29.8858 96.623 29.9765 95.8097C30.0751 94.915 30.2045 94.0257 30.3111 93.1323C30.3445 92.8617 30.3658 92.5857 30.3525 92.315C30.3378 92.0057 30.1765 91.8843 29.8698 91.9377C29.7151 91.9643 29.5605 92.027 29.4205 92.1017C27.4698 93.1243 25.5205 94.151 23.5711 95.1763C23.1591 95.3937 22.9165 95.7363 22.8218 96.1857C22.7818 96.375 22.7458 96.5657 22.7365 96.7577C22.6938 97.6723 22.6565 98.5883 22.6258 99.503C22.5845 100.724 22.5925 101.947 22.5098 103.166C22.2685 106.706 21.4058 110.08 19.6951 113.211C18.9378 114.596 18.0645 115.911 17.0071 117.087C16.2658 117.911 15.4738 118.69 14.7045 119.487C14.6485 119.546 14.5871 119.598 14.5231 119.647C13.6111 120.367 12.6445 120.223 11.9965 119.262C11.5711 118.628 11.3138 117.914 11.0698 117.199C10.5218 115.592 10.3645 113.928 10.5031 112.25C10.5938 111.163 10.7951 110.084 10.9765 109.007C11.2618 107.311 11.5551 105.615 11.8778 103.927C12.0085 103.25 12.2311 102.591 12.4018 101.922C12.4458 101.754 12.4831 101.572 12.4671 101.403C12.4445 101.159 12.2925 101.074 12.0551 101.147C11.9018 101.195 11.7578 101.27 11.6151 101.343C9.2738 102.556 6.9338 103.774 4.59247 104.986C4.36447 105.104 4.1258 105.202 3.89113 105.308C3.37246 105.543 2.9138 105.432 2.52314 105.043C2.30714 104.83 2.09646 104.602 1.92313 104.352C1.4578 103.679 1.01113 102.991 0.561801 102.306C0.317801 101.931 0.289801 101.523 0.413801 101.1C0.664468 100.246 1.13513 99.5843 1.9578 99.1683C4.18313 98.0457 6.39513 96.895 8.61113 95.755C8.71113 95.703 8.80846 95.6483 8.9018 95.5843C9.27913 95.3283 9.3258 95.0563 9.0258 94.7017C8.81913 94.4577 8.5818 94.2363 8.34847 94.0163C6.9858 92.7283 5.79246 91.3003 4.79113 89.715C3.1898 87.1803 1.97913 84.4763 1.36979 81.5257C1.28579 81.119 1.22446 80.699 1.22046 80.2857C1.21513 79.4897 1.71514 78.8523 2.48314 78.6643C3.45914 78.4243 4.45513 78.3563 5.4538 78.459C7.93113 78.7137 10.1831 79.6377 12.3258 80.8537C12.7685 81.1043 13.1818 81.431 13.5551 81.779C14.8271 82.967 16.0151 84.2297 16.9645 85.7003C17.7578 86.9297 18.5551 88.1563 19.3525 89.3843C19.4311 89.5057 19.5085 89.6297 19.5991 89.7417C19.8791 90.0883 20.2685 90.1843 20.6778 90.0177C20.7365 89.9937 20.7938 89.9643 20.8511 89.935C22.9378 88.8577 25.0231 87.7817 27.1098 86.703C27.1951 86.659 27.2805 86.611 27.3551 86.551C27.6178 86.339 27.6631 86.1243 27.4951 85.8323C27.4245 85.7083 27.3285 85.5963 27.2325 85.4897C25.6858 83.775 24.3711 81.8923 23.2258 79.891C21.9751 77.707 20.9805 75.4097 20.2005 73.015C19.7778 71.715 19.3165 70.4283 18.8618 69.139C18.4951 68.1003 18.9245 67.119 19.9485 66.6963C20.4925 66.4737 21.0711 66.415 21.6471 66.3723C23.1245 66.263 24.5245 66.5737 25.8578 67.207C28.0325 68.239 29.8378 69.7257 31.3405 71.6017C32.7445 73.3523 33.8858 75.2737 35.0418 77.1857C36.1071 78.947 37.1685 80.7097 38.2538 82.4577C38.7618 83.275 38.8845 83.291 39.7271 82.8617C41.2325 82.095 42.7338 81.3243 44.2378 80.555C44.3085 80.5177 44.3818 80.483 44.4498 80.4403C44.8965 80.155 44.9418 79.839 44.5711 79.4603C44.1205 79.0003 43.6565 78.5563 43.1991 78.103C41.6671 76.587 40.4365 74.8483 39.3911 72.9683C38.3538 71.1017 37.6471 69.103 36.9858 67.0843C36.8725 66.7403 36.8978 66.4323 37.1245 66.1297C38.0578 64.8817 38.9045 63.559 39.9258 62.387C41.6938 60.3577 43.7658 58.6857 46.2725 57.6137C46.3898 57.5643 46.5071 57.5083 46.6151 57.439C47.0098 57.1857 47.0591 56.887 46.7711 56.507C46.7138 56.431 46.6431 56.363 46.5778 56.2923C46.1965 55.8803 45.8125 55.4683 45.4325 55.0537C44.7258 54.2843 44.0218 53.5137 43.3138 52.7443C42.8831 52.279 42.5725 52.2363 42.0578 52.6297C40.9578 53.4683 39.8751 54.3283 38.7818 55.175C37.5231 56.1483 36.2725 57.1323 34.9965 58.0843C33.5885 59.1337 32.0965 60.055 30.4911 60.7763C29.2911 61.3163 28.0298 61.6043 26.7071 61.6297C25.5231 61.6523 24.3645 61.5243 23.2405 61.1363C21.7311 60.615 20.4578 59.7363 19.4125 58.5377C18.8511 57.8937 18.6511 57.143 18.8725 56.2897C19.0698 55.5323 19.4325 54.8523 19.8058 54.1777C20.5898 52.7603 21.5911 51.5017 22.7578 50.3843C23.6751 49.5057 24.6698 48.7097 25.7258 48.0017C27.3551 46.911 29.0005 45.8403 30.6471 44.775C31.0791 44.4963 31.5445 44.2723 31.9938 44.0217C32.1485 43.9363 32.3071 43.8563 32.4551 43.759C32.8125 43.5203 32.8778 43.255 32.6098 42.9083C32.2671 42.4643 31.9005 42.035 31.5178 41.6243C30.4031 40.423 29.2738 39.2337 28.1525 38.0377C27.9658 37.839 27.8031 37.615 27.6085 37.4243C27.1058 36.931 26.7271 36.9003 26.1551 37.319C25.1311 38.0697 24.1218 38.8403 23.0925 39.5857C22.0645 40.3323 21.0311 41.071 19.8805 41.6283C18.6391 42.231 17.3405 42.6043 15.9591 42.7297C14.2391 42.883 12.5965 42.591 10.9938 42.0083C9.72046 41.5457 8.5338 40.9003 7.34713 40.2523C5.98313 39.5083 5.48313 38.1857 5.91913 36.6843C6.3658 35.1497 7.15513 33.7937 8.19913 32.5843C9.37513 31.2243 10.8218 30.231 12.4231 29.4377C13.8378 28.7363 15.2671 28.0803 16.8071 27.6963C17.0405 27.639 17.2818 27.6043 17.5125 27.539C17.8978 27.4297 17.9965 27.191 17.8045 26.8457C17.7418 26.7337 17.6645 26.6283 17.5778 26.5337C16.8551 25.7363 16.1285 24.9417 15.4018 24.1457C14.4605 23.1137 13.5205 22.0777 12.5751 21.0483C12.2698 20.7163 11.9631 20.3857 11.6338 20.0803C11.0751 19.5617 10.9618 18.9737 11.1711 18.243C11.7045 16.375 12.8258 15.0377 14.6098 14.2643C14.8271 14.171 15.0631 14.1003 15.2991 14.063C15.7378 13.995 16.1191 14.1177 16.4298 14.4577C17.1231 15.2177 17.8271 15.9683 18.5245 16.7243C18.9271 17.1617 19.3245 17.6043 19.7258 18.043C20.4658 18.8483 21.2031 19.6537 21.9485 20.4537C22.0898 20.6043 22.2511 20.743 22.4231 20.8577C22.6511 21.011 22.7765 20.9763 22.8551 20.7097C22.9418 20.4203 22.9965 20.115 23.0125 19.8137C23.2311 15.8843 24.0658 12.1123 25.8511 8.58034C26.4938 7.30967 27.3378 6.175 28.2085 5.05766C28.3365 4.89366 28.4631 4.72433 28.6058 4.57367C29.1898 3.95633 30.0218 4.02967 30.4925 4.739C30.5711 4.85767 30.6365 4.991 30.6885 5.12433C31.4525 7.10433 32.2578 9.06967 32.8831 11.1017C33.3911 12.751 33.7418 14.4337 33.8951 16.1523C34.0885 18.3257 33.9418 20.4857 33.4885 22.6217C33.0778 24.555 32.6645 26.4897 32.2471 28.423C32.2058 28.6097 32.1285 28.7897 32.0565 28.967C31.6725 29.903 31.7351 30.791 32.3378 31.6177C32.5738 31.9417 32.8178 32.263 33.0885 32.559C33.7085 33.2337 34.3511 33.8857 34.9778 34.555C35.7351 35.3657 36.4805 36.187 37.2405 36.9937C37.4151 37.179 37.6218 37.3363 37.8245 37.4923C37.9485 37.587 38.0898 37.5497 38.1485 37.4123C38.2671 37.1337 38.3925 36.851 38.4525 36.5577C38.6125 35.7697 38.7445 34.9763 38.8791 34.1843C39.0911 32.943 39.4618 31.743 39.8698 30.5577C40.6231 28.3683 41.4138 26.1923 42.1965 24.0137C42.7271 22.539 43.4431 21.1537 44.3165 19.855C44.7471 19.2163 45.2098 18.595 45.7018 18.0017C45.9631 17.6843 46.2911 17.403 46.6378 17.1817C47.2045 16.819 47.7765 16.9097 48.2738 17.3643C48.7711 17.8177 49.0845 18.403 49.3978 18.9817C50.3058 20.6537 50.8538 22.4457 51.0885 24.331C51.2218 25.399 51.3685 26.467 51.4431 27.5403C51.4925 28.2577 51.4485 28.9843 51.4058 29.7057C51.3618 30.459 51.2765 31.2097 51.1965 31.9603C51.0138 33.6737 50.6951 35.3657 50.2618 37.031C49.5218 39.8777 48.7378 42.715 47.9658 45.5537C47.8565 45.9563 47.7098 46.3497 47.5751 46.7457C47.3645 47.3643 47.4831 47.9217 47.8898 48.4177C48.1445 48.7283 48.4165 49.0243 48.6871 49.3217C49.6831 50.4137 50.6818 51.5043 51.6818 52.5937C51.8765 52.807 52.0751 53.0203 52.2898 53.2123C52.4551 53.3617 52.5871 53.3217 52.6405 53.103C52.6965 52.871 52.7258 52.6297 52.7365 52.3897C52.8751 49.111 53.4071 45.9017 54.4471 42.7857C54.8191 41.671 55.2951 40.599 55.8071 39.5403C56.3551 38.407 57.3645 37.975 58.4991 38.1163C61.2071 38.455 63.5831 39.5537 65.7005 41.2537C67.0125 42.3057 68.1431 43.531 69.2191 44.8137C69.3298 44.9457 69.4631 45.0723 69.6111 45.159C69.7818 45.2603 69.9191 45.199 69.9978 45.0137C70.0485 44.8963 70.0818 44.7683 70.0951 44.6417C70.2031 43.603 70.3045 42.5643 70.4071 41.5257C70.4951 40.6457 70.5658 39.7657 70.6738 38.8883C70.7578 38.2123 70.5338 37.7163 69.9818 37.3123C67.6485 35.599 65.3205 33.8803 63.0085 32.139C61.7351 31.1803 60.5551 30.1097 59.4791 28.931C58.1885 27.5177 57.1551 25.9337 56.4538 24.147C55.9365 22.8297 55.4458 21.5017 54.9391 20.1803C54.8245 19.8803 54.8498 19.6177 55.0831 19.383C55.3751 19.087 55.6325 18.7457 55.9591 18.4977C56.5338 18.0617 57.2178 18.0643 57.9031 18.1497C58.6605 18.243 59.3778 18.475 60.0685 18.791C61.8471 19.603 63.4898 20.6377 65.0191 21.855C66.1885 22.787 67.3138 23.7697 68.3831 24.8177C69.0605 25.4817 69.7538 26.1297 70.4271 26.7963C70.7471 27.1123 71.0378 27.4577 71.3458 27.7843C71.5471 27.9963 71.7925 28.2603 72.0738 28.1843C72.3831 28.103 72.3711 27.7177 72.4165 27.443C72.6698 25.8723 72.9098 24.299 73.1511 22.727C73.2311 22.2083 73.0591 21.7603 72.6685 21.4323C71.5965 20.5337 70.4978 19.6683 69.4285 18.767C68.5551 18.0337 67.6778 17.299 66.8618 16.5043C66.3231 15.9817 65.8605 15.3723 65.4151 14.7643C63.5631 12.2363 62.3298 9.42967 61.6951 6.359C61.5205 5.50967 61.3485 4.659 61.1858 3.80567C61.0725 3.207 61.1471 2.65367 61.6285 2.21234C61.8631 1.99634 62.1418 1.887 62.4445 1.82167C63.6071 1.56834 64.7151 1.76034 65.7805 2.24967C66.7405 2.68967 67.5551 3.34834 68.3378 4.04301C70.1311 5.62967 71.6098 7.48967 72.9765 9.443C73.3258 9.94433 73.6431 10.467 73.9818 10.9763C74.0938 11.1443 74.1938 11.4003 74.4258 11.359C74.6858 11.3137 74.7018 11.0337 74.7351 10.8137C75.0538 8.70033 75.3725 6.587 75.6831 4.47234C75.7431 4.059 75.7485 3.63901 75.8111 3.22567C75.9245 2.48834 76.2885 1.89367 76.9298 1.50301C77.6058 1.09234 78.3165 0.767003 79.1085 0.621669C79.6498 0.521669 80.1285 0.632333 80.5845 0.904333C81.2018 1.27233 81.6538 1.82434 82.1365 2.34034C82.1911 2.399 82.2285 2.475 82.2885 2.527C82.7498 2.931 82.8205 3.423 82.6098 3.97234C82.2045 5.02567 82.1605 6.13766 82.0658 7.24166C82.0485 7.43366 82.0125 7.62433 82.0058 7.81633C81.9898 8.20433 82.2271 8.351 82.5591 8.163C82.6565 8.10833 82.7418 8.03367 82.8325 7.96701C84.3485 6.85634 85.9671 5.94567 87.7818 5.415C88.6938 5.147 89.6205 4.95633 90.5711 4.88567C90.9711 4.85633 91.3711 4.81367 91.7725 4.80167C92.7618 4.76834 93.7245 4.94966 94.6711 5.223C94.9018 5.28966 95.1205 5.39634 95.3431 5.48967C96.2271 5.86567 96.5591 6.69367 96.2591 7.60434C95.9511 8.535 95.6231 9.463 95.2311 10.3603C94.4671 12.1017 93.5578 13.7657 92.4071 15.2883C91.5498 16.4217 90.6071 17.4763 89.4991 18.3657C88.1058 19.4817 86.5418 20.303 84.8591 20.8883C83.8578 21.2377 82.8391 21.539 81.8285 21.8643C81.6765 21.9137 81.5231 21.9657 81.3738 22.0257C80.8725 22.2243 80.5685 22.5923 80.4551 23.1203C80.1765 24.4257 79.8965 25.7297 79.6205 27.035C79.5911 27.175 79.5645 27.3217 79.5698 27.463C79.5791 27.7497 79.7098 27.8843 79.9978 27.855C80.2338 27.831 80.4698 27.7577 80.6938 27.6763C82.2471 27.103 83.7925 26.5057 85.3525 25.9497C86.4925 25.543 87.6751 25.3003 88.8871 25.2483C89.8498 25.207 90.8151 25.1457 91.7765 25.1763C93.1445 25.2177 94.5045 25.3643 95.7751 25.9443C96.3378 26.2017 96.8511 26.5217 97.2591 26.995C97.6698 27.4723 97.7031 27.7683 97.3445 28.291C97.0111 28.775 96.7991 29.3123 96.6151 29.8603C96.1951 31.1163 95.4765 32.2003 94.6725 33.2297C92.4365 36.091 89.5125 37.9377 86.0485 38.931C83.9485 39.5323 81.8165 40.031 79.6991 40.5777C79.4351 40.6457 79.1671 40.7097 78.9098 40.799C78.3885 40.979 78.0338 41.3123 77.9285 41.883C77.7125 43.0523 77.4751 44.219 77.2671 45.3897C77.2338 45.583 77.2298 45.863 77.3418 45.9803C77.5178 46.1643 77.7711 45.9883 77.9565 45.8817C78.6951 45.4577 79.4205 45.011 80.1551 44.5777C81.7631 43.6283 83.4831 42.9697 85.3285 42.663C86.3818 42.487 87.4378 42.4857 88.4925 42.695C88.8525 42.767 89.2245 42.803 89.5911 42.815C90.3031 42.8363 90.8045 43.1337 91.1151 43.7937C91.7191 45.0857 92.1285 46.4363 92.3791 47.8337C92.5698 48.8923 92.7151 49.9603 92.8565 51.027C92.9311 51.5883 92.8618 52.147 92.7471 52.7043C92.5898 53.459 92.4511 54.2177 92.3285 54.979C92.1965 55.7937 92.5138 56.0457 93.2738 55.7163C93.7751 55.499 94.2498 55.2243 94.7351 54.9723C95.7058 54.4683 96.6685 53.9497 97.6471 53.4643C98.1765 53.2017 98.4138 52.7963 98.3898 52.2283C98.3405 51.0737 98.2725 49.919 98.2245 48.763C98.1791 47.639 98.0591 46.5097 98.1298 45.3923C98.2911 42.8243 98.5991 40.2683 99.2685 37.7763C99.7805 35.8723 100.52 34.0603 101.62 32.4083C102.248 31.463 103.008 30.6363 103.85 29.8857C104.094 29.6683 104.411 29.5123 104.72 29.3937C105.208 29.207 105.654 29.367 105.986 29.743C106.216 30.003 106.412 30.311 106.562 30.6257C107.452 32.5097 108.099 34.4737 108.506 36.5203C108.899 38.5083 109.196 40.511 109.438 42.5217C109.475 42.8377 109.451 43.163 109.442 43.4843C109.422 44.1257 109.391 44.7683 109.368 45.4097C109.366 45.5057 109.374 45.6043 109.394 45.6977C109.443 45.9337 109.535 45.9963 109.77 45.9403C109.908 45.907 110.048 45.8577 110.176 45.7923C112.259 44.711 114.339 43.6217 116.424 42.543C116.895 42.299 117.155 41.923 117.222 41.411C117.32 40.647 117.424 39.8817 117.49 39.115C117.654 37.1723 117.898 35.2457 118.506 33.383C119.111 31.5257 119.924 29.7643 120.936 28.091C121.788 26.683 122.799 25.395 123.871 24.151C124.147 23.8297 124.474 23.5697 124.862 23.3963C125.362 23.1737 125.802 23.2563 126.076 23.731C126.42 24.327 126.731 24.951 126.967 25.5963C127.464 26.9563 127.814 28.363 128.122 29.779C128.178 30.0323 128.14 30.2603 128.028 30.4777C127.756 31.0097 127.712 31.587 127.682 32.1657C127.664 32.4803 127.87 32.639 128.179 32.559C128.316 32.523 128.448 32.4523 128.575 32.3857C129.974 31.659 131.372 30.9323 132.767 30.2003C133.336 29.9017 133.894 29.579 134.466 29.2857C134.91 29.059 135.367 28.8617 135.819 28.6523C136.052 28.543 136.296 28.5337 136.518 28.6577C136.823 28.831 137.148 28.995 137.402 29.231C138.436 30.1963 139.21 31.339 139.419 32.7643C139.512 33.3923 139.474 34.047 139.432 34.6843C139.4 35.195 139.27 35.699 139.192 36.2083C139.064 37.051 138.616 37.6417 137.854 38.0297C135.604 39.1763 133.364 40.3403 131.122 41.5003C130.851 41.6403 130.579 41.783 130.322 41.947C129.975 42.1683 129.934 42.4403 130.206 42.751C130.375 42.943 130.566 43.119 130.763 43.283C131.915 44.2363 133.084 45.1683 134.224 46.135C135.992 47.635 137.522 49.3377 138.546 51.4443C138.996 52.3737 139.375 53.3283 139.512 54.363C139.539 54.5683 139.582 54.787 139.682 54.963C139.939 55.4163 139.863 55.899 139.863 56.3763C139.863 56.4243 139.859 56.4777 139.838 56.5177C139.399 57.355 138.939 58.147 137.882 58.3457C136.434 58.6177 134.983 58.7083 133.516 58.571C132.632 58.4883 131.766 58.3377 130.914 58.0857C129.299 57.6083 127.879 56.7857 126.586 55.719C125.106 54.4977 123.975 52.9763 122.88 51.423C122.242 50.5163 121.611 49.6043 120.964 48.703C120.655 48.2723 120.319 47.8603 119.995 47.4417C119.796 47.183 119.527 47.0977 119.223 47.179C119.007 47.235 118.796 47.3257 118.598 47.4283C116.94 48.283 115.284 49.143 113.63 50.003C113.287 50.1817 112.946 50.3617 112.611 50.5523C112.084 50.8497 112.02 51.2243 112.427 51.6883C112.787 52.099 113.163 52.4963 113.538 52.8937C115.088 54.5297 116.522 56.2643 117.84 58.0897C119.264 60.059 120.611 62.079 121.662 64.2803C122.224 65.4603 122.659 66.6843 122.934 67.9657C123.058 68.547 122.976 69.0857 122.658 69.5843C122.243 70.2337 121.723 70.7443 120.982 71.043C118.838 71.911 116.714 71.855 114.596 70.9803C112.955 70.303 111.532 69.3043 110.259 68.0683C108.912 66.759 107.787 65.279 106.74 63.731C105.272 61.5603 103.815 59.3803 102.351 57.207C102.019 56.7123 101.68 56.223 101.34 55.735C100.984 55.2243 100.654 55.1257 100.104 55.4057C99.2445 55.843 98.3965 56.3043 97.5418 56.7523C97.0298 57.0217 96.5151 57.2857 96.0018 57.5537C95.8445 57.635 95.6845 57.711 95.5325 57.8017C94.9391 58.1563 94.9058 58.3937 95.3831 58.8803C95.6991 59.2017 96.0205 59.5163 96.3431 59.8297C97.1765 60.6377 97.9218 61.5203 98.6311 62.4377C99.8498 64.0163 100.768 65.7603 101.536 67.5923C101.934 68.5417 102.318 69.4963 102.734 70.4377C102.908 70.831 102.899 71.139 102.62 71.495C101.878 72.4443 101.215 73.4577 100.444 74.3803C99.8911 75.043 99.2405 75.6323 98.5845 76.1963C97.7685 76.8963 96.8978 77.535 96.0538 78.2043C95.3671 78.7483 94.5911 79.135 93.7911 79.4777C93.4058 79.6417 93.0151 79.7923 92.6351 79.9657C92.1285 80.195 92.0618 80.4777 92.4271 80.899C92.9311 81.483 93.4471 82.0577 93.9658 82.627C94.7671 83.507 95.5751 84.379 96.3805 85.2537C96.4791 85.3603 96.5818 85.463 96.6885 85.5603C97.0911 85.927 97.3751 85.9483 97.7965 85.6097C98.2471 85.2457 98.6885 84.8723 99.1205 84.487C100.916 82.879 102.684 81.239 104.615 79.7883C106.23 78.575 107.928 77.511 109.883 76.9177C111.219 76.511 112.584 76.3003 113.976 76.415C115.507 76.5403 116.946 76.9963 118.196 77.9123C118.578 78.1923 118.888 78.5777 119.206 78.9363C119.44 79.203 119.436 79.5097 119.287 79.8377C118.23 82.1617 116.932 84.331 115.286 86.2937C114.207 87.579 113.039 88.7737 111.81 89.907C110.378 91.227 108.804 92.3737 107.132 93.3817C106.338 93.8617 106.307 94.151 106.931 94.8403C108.311 96.367 109.682 97.9003 111.056 99.4297C111.432 99.8483 111.804 100.272 112.194 100.678C112.651 101.152 112.968 101.178 113.496 100.767C114.079 100.312 114.64 99.831 115.218 99.3697C116.412 98.4163 117.603 97.459 118.932 96.695C120.203 95.9657 121.56 95.4977 123.015 95.303C124.434 95.1137 125.835 95.211 127.232 95.4937C128.69 95.7897 130.102 96.2123 131.4 96.9577C131.666 97.1097 131.926 97.2697 132.174 97.4483C132.78 97.8843 132.995 98.4257 132.742 99.135C132.455 99.935 132.142 100.735 131.742 101.483C130.635 103.551 129.08 105.258 127.311 106.78C125.92 107.978 124.354 108.88 122.664 109.583C122.442 109.675 122.218 109.768 122.01 109.89C121.695 110.074 121.662 110.279 121.888 110.56C122.07 110.786 122.262 111.003 122.456 111.216C123.236 112.072 124.022 112.92 124.799 113.778C125.9 114.992 126.991 116.215 128.094 117.428C128.571 117.954 128.68 118.556 128.515 119.223C128.395 119.706 128.28 120.192 128.123 120.663C127.87 121.426 127.364 122.011 126.684 122.418C126.107 122.763 125.495 123.054 124.891 123.354C124.378 123.608 123.922 123.474 123.524 123.094C123.315 122.894 123.111 122.687 122.916 122.474C121.582 121.015 120.25 119.555 118.92 118.092C118.379 117.498 117.847 116.895 117.311 116.298C117.256 116.238 117.202 116.179 117.143 116.124C117.003 115.998 116.872 115.783 116.664 115.862C116.416 115.956 116.427 116.224 116.436 116.447C116.452 116.832 116.523 117.218 116.511 117.6C116.47 118.934 116.404 120.264 116.343 121.596C116.31 122.319 116.278 123.04 116.228 123.762C116.102 125.672 115.931 127.574 115.379 129.422C114.926 130.942 114.167 132.29 113.184 133.519C113.054 133.682 112.902 133.83 112.743 133.964C112.151 134.463 111.266 134.511 110.631 134.074C110.503 133.986 110.39 133.858 110.311 133.723C109.032 131.54 107.847 129.315 107.151 126.863C106.667 125.159 106.232 123.446 106.096 121.674C106.019 120.666 105.912 119.651 105.944 118.644C105.994 117.039 106.14 115.439 106.475 113.86C106.856 112.067 107.203 110.268 107.572 108.472C107.65 108.095 107.763 107.726 107.855 107.351C108.055 106.543 107.831 105.823 107.383 105.158C107.223 104.919 107.03 104.698 106.831 104.488C105.958 103.567 105.071 102.658 104.2 101.734C103.594 101.091 103.006 100.431 102.407 99.7803C102.32 99.6857 102.234 99.5883 102.134 99.507C101.858 99.2843 101.61 99.3483 101.511 99.6937C101.438 99.955 101.395 100.231 101.383 100.502C101.33 101.676 101.174 102.838 100.979 103.995C100.57 106.419 100.175 108.847 99.7205 111.263C99.3351 113.304 98.7765 115.302 97.9991 117.234C97.4871 118.508 96.8458 119.711 95.9671 120.776C95.7938 120.986 95.6125 121.194 95.4098 121.375C94.7845 121.934 94.0618 121.988 93.3765 121.515C93.1271 121.343 92.8951 121.134 92.6978 120.904C91.5978 119.622 90.7858 118.164 90.1911 116.588C89.4938 114.742 89.0885 112.826 88.9258 110.86C88.8591 110.062 88.8325 109.258 88.7871 108.456Z" fill="#56A7DA"/>
</svg>
