<svg width="126" height="126" viewBox="0 0 126 126" fill="none" xmlns="http://www.w3.org/2000/svg">
<path d="M82.6592 12.8C82.6552 12.7507 82.6578 12.7347 82.6538 12.7213C82.5872 12.4907 82.0685 12.196 81.8352 12.2573C81.7098 12.2893 81.6432 12.4627 81.7472 12.5227C81.9925 12.6653 82.2578 12.7787 82.5205 12.888C82.5525 12.9013 82.6218 12.8253 82.6592 12.8ZM96.0312 33.4627C95.8645 33.456 95.7885 33.5347 95.7578 33.6613C95.7098 33.864 95.7658 34.056 95.9058 34.1893C96.2005 34.4707 96.5085 34.7413 96.8325 34.988C97.0098 35.124 97.2272 34.9947 97.2325 34.7693C97.2352 34.672 97.2152 34.5587 97.1658 34.4773C96.9218 34.068 96.5885 33.7453 96.1712 33.512C96.1218 33.484 96.0632 33.4733 96.0312 33.4627ZM90.1645 71.1453C93.0432 71.0987 95.7885 71.512 98.4565 72.3973C100.758 73.1627 102.886 74.2667 104.806 75.7587C104.853 75.7947 104.897 75.8347 104.947 75.864C105.058 75.9307 105.153 75.912 105.185 75.78C105.245 75.5387 105.297 75.2947 105.339 75.0493C105.511 74.0827 105.365 73.1187 105.306 72.1547C105.251 71.232 105.191 70.316 105.451 69.4027C105.541 69.0907 105.522 68.732 105.479 68.404C105.43 68.016 105.441 67.6507 105.55 67.2747C105.631 66.996 105.67 66.7027 105.706 66.4133C105.733 66.1987 105.638 66.0187 105.491 65.8573C105.126 65.4533 104.671 65.252 104.131 65.2333C103.706 65.2187 103.269 65.2627 102.859 65.176C102.305 65.0587 101.766 64.8533 101.227 64.6613C100.827 64.5187 100.431 64.3573 100.051 64.1693C99.7378 64.0147 99.4218 63.844 99.1552 63.6227C98.3872 62.988 97.6045 62.3653 96.9285 61.6267C96.7405 61.4213 96.5578 61.2107 96.3912 60.988C96.2965 60.8613 96.2112 60.712 96.1738 60.5613C95.9778 59.7787 95.5818 59.096 95.1392 58.4347C94.7632 57.8747 94.3552 57.3307 94.1165 56.6933C94.0152 56.4227 93.9178 56.1293 93.9165 55.8453C93.9138 55.2067 93.7378 54.6227 93.4485 54.0747C92.7912 52.832 91.8778 51.8147 90.6805 51.064C90.2418 50.788 89.7685 50.6027 89.2539 50.5093C88.7499 50.4187 88.2925 50.5173 87.8685 50.7893C87.6698 50.916 87.4792 51.0533 87.2845 51.1827C86.8298 51.484 86.3845 51.4853 85.9352 51.16C85.5992 50.916 85.3085 50.6347 85.0685 50.2933C84.7098 49.7853 84.7138 48.9907 85.2365 48.4813C85.6232 48.104 86.0658 47.8307 86.5658 47.6453C87.8045 47.1853 89.0712 47.0267 90.3645 47.3773C90.6845 47.4653 90.9952 47.6147 91.2832 47.7827C91.5285 47.9253 91.7739 48.0373 92.0499 48.0973C92.5965 48.216 93.1205 48.3973 93.6285 48.6373C94.5578 49.076 95.2352 49.768 95.6698 50.6827C95.9338 51.2373 96.1378 51.8227 96.3405 52.4027C96.6418 53.2613 96.8778 54.1467 97.3218 54.9467C98.0832 56.3173 98.7698 57.7333 99.7632 58.964C100.513 59.8907 101.339 60.7413 102.249 61.512C102.327 61.5773 102.407 61.6493 102.499 61.688C103.174 61.9813 103.861 62.2467 104.595 62.332C105.769 62.4693 106.233 61.804 106.213 60.8307C106.201 60.2427 106.077 59.664 105.891 59.1053C105.847 58.972 105.759 58.8413 105.659 58.7413C105.318 58.4027 105.091 57.9973 104.913 57.5587C104.731 57.1107 104.569 56.652 104.354 56.22C104.218 55.9507 104.019 55.7053 103.815 55.4773C103.113 54.6907 102.391 53.92 101.686 53.1347C101.137 52.524 100.607 51.896 100.058 51.2853C99.2352 50.3693 98.4205 49.444 97.5672 48.5547C96.7658 47.72 95.9338 46.9107 95.0872 46.12C94.3378 45.42 93.5658 44.74 92.7725 44.0907C92.0685 43.5147 91.3272 42.9867 90.5912 42.452C90.4298 42.3333 90.2272 42.2667 90.0365 42.1907C89.1912 41.8547 88.3405 41.532 87.4992 41.188C86.7898 40.8987 86.1245 40.5253 85.4938 40.092C84.7952 39.6107 84.6285 38.96 85.0432 38.2187C85.3605 37.652 85.8405 37.2813 86.5045 37.2067C86.8712 37.1653 87.2192 37.2707 87.4845 37.5173C88.0245 38.0213 88.6859 38.1533 89.3832 38.2227C89.7472 38.26 90.1098 38.3187 90.4672 38.3973C90.8165 38.4747 91.1125 38.66 91.3765 38.9093C91.5765 39.1 91.7938 39.28 92.0245 39.432C93.5685 40.4507 95.1272 41.4453 96.6618 42.476C97.8445 43.2707 98.9538 44.16 99.9498 45.1867C100.474 45.7253 100.942 46.3067 101.378 46.9147C101.489 47.068 101.55 47.2533 101.641 47.42C101.881 47.856 102.101 48.3053 102.375 48.7187C102.517 48.9293 102.735 49.1107 102.957 49.24C103.254 49.4147 103.481 49.2747 103.497 48.932C103.505 48.7293 103.487 48.5187 103.437 48.324C103.358 48.0267 103.263 47.7293 103.134 47.452C102.51 46.124 101.89 44.7933 101.233 43.4827C100.958 42.9347 100.611 42.4187 100.262 41.912C99.7205 41.124 98.9765 40.564 98.1632 40.0707C96.0992 38.8173 94.5205 37.1293 93.6312 34.852C93.5565 34.6627 93.4965 34.4627 93.4685 34.2613C93.4392 34.0533 93.3525 33.896 93.1778 33.796C92.8845 33.6293 92.5952 33.4493 92.2845 33.3253C91.6018 33.0533 90.9058 32.82 90.1778 32.6973C90.0778 32.68 89.9752 32.66 89.8738 32.656C89.1272 32.6227 88.3792 32.604 87.6325 32.5613C87.2538 32.5387 86.8725 32.496 86.4978 32.4333C85.4592 32.2587 84.7445 31.5987 84.1258 30.8067C83.9992 30.6453 83.8992 30.464 83.7752 30.3C83.2445 29.5987 83.4885 28.884 84.2205 28.4493C84.5858 28.232 84.9698 28.1907 85.3432 28.436C85.5378 28.564 85.7285 28.7027 85.9032 28.8573C86.2432 29.1587 86.5792 29.4653 86.8992 29.788C87.2125 30.104 87.5885 30.1973 87.9898 30.0773C88.4765 29.932 88.9418 29.9667 89.4192 30.0893C89.9072 30.2147 90.3898 30.2613 90.8872 30.068C91.1925 29.9493 91.5298 29.9947 91.8192 30.1787C92.0298 30.3107 92.2325 30.4573 92.4245 30.616C92.9312 31.0347 93.5152 31.2373 94.1672 31.2547C94.4752 31.264 94.7832 31.264 95.0912 31.248C95.3338 31.2347 95.3898 31.16 95.4072 30.916C95.4272 30.624 95.3338 30.3613 95.1672 30.132C94.9338 29.812 94.6858 29.504 94.4365 29.196C94.2498 28.9653 94.0832 28.7387 94.0618 28.4213C94.0405 28.128 93.8618 27.94 93.5632 27.884C93.4045 27.8547 93.2458 27.8267 93.0872 27.7987C92.8685 27.7613 92.7258 27.6453 92.6312 27.4347C92.3432 26.7947 92.0485 26.6347 91.3498 26.7307C90.8125 26.8053 90.2778 26.8973 89.7418 26.98C89.2285 27.06 88.7605 26.9507 88.3032 26.7027C87.5792 26.3107 86.8605 25.912 86.2498 25.3533C85.7845 24.928 85.3378 24.4813 84.8898 24.0387C84.8085 23.9573 84.7525 23.8493 84.6938 23.748C84.1672 22.8507 83.3832 22.2973 82.3805 22.06C81.6658 21.8907 81.0525 22.0573 80.5765 22.6613C80.2152 23.1213 79.5645 23.06 79.2485 22.56C78.8978 22.0053 78.9938 21.4333 79.5365 21.056C79.7858 20.8827 80.0658 20.7333 80.3538 20.636C81.4565 20.2613 82.5805 20.152 83.7312 20.412C84.1512 20.5067 84.4885 20.704 84.7618 21.036C85.1245 21.4787 85.5112 21.9 85.8738 22.3427C86.7632 23.4293 87.8352 24.2813 89.1165 24.8507C89.5698 25.052 90.0525 25.1987 90.5338 25.3133C90.7632 25.368 91.0365 25.336 91.2658 25.2653C91.7205 25.1267 91.9645 24.6147 91.8112 24.1653C91.6218 23.6067 91.3338 23.1253 90.7312 22.9147C90.6112 22.872 90.5032 22.7813 90.4072 22.6933C89.3005 21.6933 88.0632 20.884 86.7458 20.1933C85.1698 19.3667 83.5192 18.716 81.8458 18.1173C81.5978 18.028 81.3525 17.9213 81.0978 17.856C80.8018 17.78 80.4992 17.708 80.1952 17.692C79.6978 17.664 79.1978 17.696 78.6992 17.676C78.4232 17.6653 78.1472 17.6107 77.8752 17.5547C77.6538 17.5093 77.4752 17.3787 77.3365 17.1973C77.1272 16.9213 77.1178 16.6333 77.3072 16.3413C77.5018 16.0413 77.7898 15.8813 78.1218 15.78C78.7378 15.5907 79.3472 15.7013 79.9498 15.828C80.7965 16.0053 81.6338 16.2227 82.4805 16.4027C82.7938 16.4693 83.1218 16.468 83.4392 16.516C84.4498 16.6653 85.3338 17.1173 86.1778 17.664C86.7325 18.0227 87.2845 18.3867 87.8432 18.7373C87.9445 18.8 88.0792 18.8107 88.1978 18.8467C88.1818 18.7227 88.1952 18.584 88.1445 18.4773C87.8938 17.9493 87.5045 17.5293 87.0485 17.1747C86.5165 16.7613 85.9485 16.3893 85.4352 15.9533C84.9685 15.5573 84.4858 15.276 83.8658 15.1627C83.1685 15.0347 82.5685 14.6293 81.9605 14.2707C81.4645 13.9787 80.9952 13.66 80.6658 13.1707C80.5258 12.9627 80.3205 12.856 80.0685 12.8533C79.6565 12.8507 79.2432 12.8213 78.8365 12.8587C78.5338 12.8867 78.2365 12.9893 77.9445 13.0813C77.6925 13.16 77.4538 13.276 77.2045 13.3653C76.3538 13.6707 75.5272 13.2747 75.0698 12.72C75.0338 12.6747 75.0005 12.6253 74.9738 12.5733C74.8685 12.368 74.8138 12.1453 74.9378 11.9427C75.0685 11.732 75.3072 11.7 75.5285 11.7373C75.7858 11.7827 76.0485 11.8467 76.2885 11.9493C76.6365 12.0973 76.9872 12.1253 77.3112 11.9573C78.1885 11.5053 79.1165 11.3853 80.0858 11.44C80.2818 11.4507 80.4965 11.392 80.6792 11.312C80.9818 11.1773 81.0232 10.96 80.7992 10.7213C80.5685 10.476 80.3152 10.252 80.0658 10.0253C79.3805 9.40534 78.6805 8.80133 78.0125 8.164C77.7178 7.88267 77.4725 7.54534 77.2338 7.21334C77.1085 7.03867 77.0192 6.82667 76.9605 6.61734C76.8405 6.19067 77.1352 5.81734 77.5832 5.82134C77.7405 5.82267 77.9018 5.86534 78.0538 5.91467C78.7058 6.12534 79.2712 6.504 79.8018 6.91867C80.8765 7.75733 81.9245 8.63067 82.9938 9.47866C83.5672 9.93466 84.1552 10.3747 84.7485 10.8027C84.9232 10.9293 85.1338 11.02 85.3418 11.0787C85.5912 11.148 85.7445 11.0493 85.7872 10.7907C85.8992 10.1213 86.2552 9.56133 86.5578 8.97733C86.7125 8.67867 86.8685 8.37734 86.9898 8.064C87.2018 7.51734 87.1805 6.96666 86.9072 6.444C86.6952 6.04266 86.4618 5.652 86.2285 5.26266C85.9792 4.84666 85.7178 4.43867 85.4618 4.028C85.2258 3.65067 85.0818 3.236 84.9818 2.80534C84.8338 2.17334 85.0045 1.61334 85.3658 1.1C85.5325 0.865337 85.7512 0.698662 86.0645 0.707995C86.4525 0.719995 86.7592 0.987996 86.7312 1.37333C86.6592 2.36933 86.9885 3.24933 87.4352 4.10533C87.7618 4.73067 88.0952 5.352 88.3858 5.99333C88.5592 6.37733 88.6858 6.78933 88.7792 7.2C88.9645 8.02 88.7312 8.76266 88.1618 9.352C87.3072 10.2387 87.1285 11.2893 87.2992 12.4427C87.3698 12.9253 87.6072 13.3253 88.0365 13.5907C88.4792 13.864 88.9125 13.776 89.1618 13.3253C89.4245 12.8467 89.5952 12.352 89.5192 11.7733C89.3592 10.5747 89.7165 9.476 90.3005 8.44666C90.6192 7.88666 90.9845 7.35334 91.3272 6.80534C91.5472 6.45467 91.8578 6.23734 92.2485 6.09867C92.9672 5.84267 93.7032 5.75867 94.4578 5.808C94.6605 5.82133 94.8658 5.86533 95.0605 5.928C95.6338 6.10933 95.9365 6.70533 95.7738 7.29999C95.5978 7.93999 95.0525 8.284 94.4338 8.13066C94.2072 8.07466 93.9898 7.97866 93.7658 7.91066C92.9432 7.66266 92.3258 7.90933 92.0112 8.704C91.8085 9.216 91.7058 9.77333 91.6005 10.3173C91.4605 11.052 91.3685 11.7947 91.2432 12.532C91.1752 12.9253 91.0218 13.2853 90.8232 13.636C90.6445 13.9533 90.5138 14.2987 90.3712 14.636C90.2392 14.9493 90.2952 15.2507 90.5005 15.5067C90.7112 15.7693 90.9272 16.036 91.1845 16.2493C91.7992 16.7613 92.2778 17.392 92.7778 18.004C93.0098 18.288 93.2472 18.568 93.4992 18.8347C93.6445 18.9893 93.7325 18.9893 93.8618 18.82C94.0112 18.6253 94.1685 18.4133 94.2365 18.184C94.3845 17.6787 94.5285 17.164 94.5805 16.6427C94.6298 16.1533 94.7125 15.6613 94.6378 15.1547C94.5778 14.7453 94.7938 14.3853 95.0792 14.0907C95.3645 13.7947 95.6672 13.516 95.9552 13.224C96.4672 12.7053 96.4618 12.44 95.9285 11.944C95.6498 11.6853 95.3512 11.4467 95.0818 11.176C94.6912 10.7827 94.7552 10.5453 95.2778 10.348C95.4885 10.268 95.6952 10.244 95.9218 10.2987C96.6005 10.464 97.1778 10.788 97.6138 11.3387C98.0378 11.8733 98.1298 12.4813 97.9432 13.1267C97.8018 13.6173 97.5178 14.0307 97.1338 14.3613C96.9472 14.5213 96.8205 14.704 96.7352 14.928C96.2458 16.204 95.8085 17.4933 95.5965 18.8507C95.4525 19.772 95.4032 20.688 95.6525 21.6C95.7778 22.06 95.9805 22.48 96.2805 22.8493C96.5232 23.1467 96.5938 23.1373 96.7618 22.8053C96.9352 22.4653 97.0885 22.1147 97.2752 21.7827C97.5792 21.2453 97.8938 20.7093 98.4138 20.3467C98.6285 20.1973 98.8578 20.0587 99.0978 19.9547C99.4325 19.8107 99.7765 19.676 100.13 19.5907C100.365 19.5333 100.63 19.5267 100.869 19.5693C101.301 19.648 101.486 20.1347 101.234 20.4933C101.038 20.7733 100.779 20.9907 100.465 21.1333C100.13 21.2853 99.7925 21.4293 99.4632 21.592C99.2938 21.6747 99.1285 21.776 98.9792 21.892C98.6698 22.1307 98.5045 22.448 98.5432 22.848C98.6125 23.5507 98.4698 24.216 98.2365 24.876C98.0018 25.5413 98.0498 26.2 98.3632 26.84C98.7165 27.564 99.2472 28.152 99.7845 28.7347C100.293 29.2867 100.79 29.848 101.117 30.5293C101.358 31.0307 101.563 31.5493 101.773 32.0667C102.001 32.6253 102.238 33.1773 102.623 33.6493C102.734 33.7853 102.854 33.9187 102.991 34.024C103.245 34.2173 103.441 34.1867 103.638 33.9427C103.713 33.852 103.771 33.7493 103.835 33.6507C104.451 32.7107 105.222 31.9093 106.055 31.1613C106.382 30.868 106.694 30.556 107.015 30.2547C107.261 30.024 107.513 29.8 107.758 29.5693C108.405 28.9613 108.825 28.2467 108.786 27.3253C108.771 26.9733 108.745 26.6227 108.73 26.272C108.726 26.156 108.73 26.0373 108.753 25.924C108.835 25.5067 108.798 25.1067 108.615 24.7213C108.541 24.5627 108.475 24.3987 108.398 24.24C108.239 23.9187 108.186 23.5813 108.15 23.224C108.087 22.6133 107.974 22.0067 107.854 21.4027C107.718 20.7253 107.569 20.048 107.638 19.3547C107.69 18.8453 107.739 18.3267 107.883 17.84C108.115 17.0573 108.673 16.516 109.374 16.12C109.79 15.8853 110.229 15.736 110.715 15.7587C111.234 15.784 111.574 16.0253 111.73 16.5173C111.871 16.9613 111.898 17.3987 111.707 17.8493C111.478 18.388 111.263 18.9373 111.095 19.4987C110.958 19.96 110.854 20.44 110.821 20.9187C110.794 21.2907 110.865 21.68 110.95 22.048C111.234 23.2787 111.45 24.5187 111.599 25.772C111.693 26.564 111.694 27.3547 111.665 28.1453C111.63 29.0307 111.451 29.888 111.043 30.6907C110.786 31.1987 110.433 31.6213 110.005 31.9853C109.883 32.088 109.741 32.176 109.594 32.2347C108.522 32.6613 107.698 33.3933 107.026 34.3093C106.242 35.38 105.694 36.5533 105.553 37.8893C105.527 38.1213 105.514 38.3587 105.53 38.5907C105.539 38.7307 105.583 38.8907 105.667 38.9987C106.011 39.4347 106.351 39.88 106.742 40.2747C107.225 40.7653 107.782 40.7053 108.225 40.1853C108.558 39.7933 108.899 39.412 109.243 39.0307C109.583 38.652 109.827 38.248 109.857 37.708C109.897 36.9547 110.249 36.2973 110.65 35.6787C110.985 35.1627 111.374 34.6813 111.715 34.1693C112.538 32.9387 113.593 31.9187 114.647 30.9C115.339 30.2307 116.155 29.7427 117.057 29.392C117.697 29.1427 118.334 29.0947 118.994 29.2947C119.345 29.4 119.701 29.496 120.061 29.5667C120.361 29.6253 120.671 29.688 120.973 29.6693C121.794 29.6187 122.482 29.9093 123.045 30.4667C123.47 30.888 123.845 31.3627 124.21 31.8387C124.453 32.156 124.402 32.5413 124.283 32.896C123.973 33.8307 122.746 34.6907 121.767 34.6853C121.447 34.684 121.17 34.596 120.921 34.3827C120.454 33.9813 119.981 33.5853 119.491 33.2107C119.25 33.0253 118.979 32.8653 118.699 32.7427C118.314 32.5733 117.926 32.612 117.571 32.8627C117.523 32.896 117.47 32.924 117.429 32.9653C116.786 33.5867 116.127 34.192 115.509 34.8373C115.114 35.248 114.761 35.7027 114.423 36.1627C114.101 36.604 113.889 37.092 113.854 37.6627C113.825 38.1493 113.633 38.6107 113.358 39.0133C113.062 39.448 112.749 39.8773 112.389 40.26C111.727 40.9667 111.021 41.632 110.346 42.3253C110.122 42.556 109.913 42.8067 109.739 43.076C109.351 43.6747 109.315 44.344 109.418 45.0293C109.501 45.5853 109.701 46.108 109.942 46.612C110.202 47.1533 110.501 47.6773 110.763 48.2187C111.077 48.864 111.405 49.508 111.657 50.1773C111.815 50.596 111.881 51.0573 111.923 51.5067C111.965 51.9493 112.091 52.344 112.381 52.6707C112.501 52.8067 112.673 52.9213 112.843 52.9827C113.106 53.076 113.335 52.952 113.462 52.7013C113.494 52.636 113.518 52.5653 113.539 52.4947C113.745 51.82 114.138 51.2573 114.606 50.7427C114.93 50.384 115.263 50.032 115.585 49.6707C115.991 49.2147 116.257 48.676 116.471 48.1107C116.697 47.5213 116.906 46.9253 117.154 46.3453C117.411 45.7453 117.771 45.2147 118.321 44.8307C118.542 44.676 118.777 44.5947 119.047 44.5507C119.553 44.4693 120.051 44.348 120.547 44.2213C120.714 44.18 120.873 44.0867 121.019 43.992C121.474 43.7013 121.658 43.26 121.505 42.7387C121.419 42.4467 121.293 42.156 121.126 41.9027C120.861 41.4987 120.555 41.1213 120.253 40.744C120.069 40.5147 119.885 40.2933 119.791 40.004C119.501 39.0907 120.446 38.2293 121.247 38.4707C121.427 38.5253 121.626 38.5813 121.767 38.696C122.749 39.4973 123.653 40.368 124.291 41.4853C124.766 42.3133 124.882 43.1973 124.777 44.1213C124.723 44.588 124.469 44.9707 124.158 45.3147C123.729 45.7907 123.197 46.1293 122.634 46.42C122.099 46.696 121.558 46.9587 121.015 47.2187C120.771 47.336 120.562 47.488 120.417 47.7187C120.181 48.0907 119.927 48.452 119.717 48.836C119.139 49.8853 118.403 50.8133 117.602 51.6947C117.217 52.1187 116.845 52.556 116.607 53.084C116.51 53.2973 116.414 53.516 116.362 53.7427C116.135 54.7507 115.665 55.6373 115.051 56.4573C114.911 56.644 114.775 56.8373 114.655 57.0387C114.435 57.4107 114.311 57.8107 114.299 58.2493C114.286 58.8107 114.322 59.3653 114.481 59.9053C114.659 60.5093 114.842 61.1133 115.042 61.712C115.138 61.9987 115.251 62.0307 115.502 61.868C115.862 61.636 116.171 61.348 116.443 61.0147C116.943 60.4013 117.439 59.7827 117.967 59.1947C118.326 58.7933 118.794 58.5413 119.327 58.4293C119.414 58.4107 119.503 58.3853 119.589 58.392C120.29 58.448 120.951 58.2253 121.63 58.1093C122.135 58.0227 122.642 57.9067 123.151 57.8907C124.098 57.86 124.963 58.076 125.51 58.96C125.774 59.3867 125.747 59.8 125.418 60.172C125.262 60.3467 125.094 60.5133 124.922 60.672C124.646 60.9253 124.322 61.048 123.95 60.948C123.277 60.7667 122.618 60.828 121.953 61.0067C121.587 61.1053 121.201 61.1213 120.829 61.1973C120.499 61.2653 120.166 61.3333 119.857 61.4573C119.182 61.7253 118.818 62.268 118.722 62.9653C118.615 63.7453 118.317 64.4293 117.835 65.0427C117.574 65.3773 117.326 65.724 117.055 66.052C116.467 66.7613 116.125 67.572 115.997 68.4813C115.895 69.208 115.809 69.9333 115.802 70.6693C115.795 71.5787 115.775 72.4893 115.709 73.3947C115.634 74.3933 115.453 75.3747 115.006 76.2867C114.843 76.616 114.658 76.924 114.406 77.2013C113.727 77.948 113.275 78.8373 112.843 79.74C112.427 80.6133 111.966 81.4653 111.523 82.3253C111.443 82.4813 111.35 82.632 111.277 82.792C111.114 83.1427 111.106 83.488 111.274 83.8507C111.782 84.9493 112.127 86.1 112.322 87.2947C112.539 88.6307 112.597 89.9693 112.493 91.3253C112.289 94.0027 111.427 96.4853 110.343 98.9067C109.305 101.224 107.929 103.335 106.326 105.297C105.23 106.641 104.017 107.872 102.73 109.036C100.617 110.945 98.2992 112.561 95.8085 113.927C93.4472 115.221 90.9832 116.281 88.3992 117.052C86.9765 117.476 85.5418 117.839 84.0685 118.031C83.3285 118.128 82.5832 118.201 81.8365 118.245C80.9592 118.296 80.0792 118.32 79.2005 118.328C78.0538 118.339 76.9178 118.189 75.7845 118.041C75.3805 117.988 74.9885 117.84 74.5952 117.725C73.9618 117.54 73.3392 117.309 72.6965 117.165C71.9218 116.993 71.1498 117.039 70.4312 117.437C70.0978 117.621 69.7605 117.801 69.4272 117.985C68.0645 118.741 66.6485 119.383 65.2178 119.995C61.8485 121.433 58.3672 122.531 54.8045 123.369C52.4605 123.92 50.0965 124.36 47.7112 124.683C46.4178 124.857 45.1245 125.028 43.8285 125.177C43.0285 125.269 42.2232 125.319 41.4192 125.384C40.4258 125.465 39.4338 125.548 38.4392 125.621C37.8698 125.663 37.2978 125.695 36.7272 125.717C35.7458 125.757 34.7632 125.781 33.7818 125.82C30.6872 125.937 27.5912 125.932 24.4952 125.896C23.6472 125.887 22.7978 125.813 21.9498 125.745C21.0005 125.669 20.0525 125.58 19.1072 125.469C17.1512 125.239 15.2232 124.868 13.3312 124.317C11.7472 123.857 10.2192 123.263 8.76185 122.488C5.71652 120.867 3.37518 118.559 1.87918 115.428C1.13252 113.868 0.675183 112.219 0.38185 110.519C0.0525166 108.601 -0.0301508 106.668 0.0498492 104.731C0.115183 103.135 0.248519 101.54 0.525852 99.964C0.752519 98.664 0.979182 97.3627 1.24452 96.0707C1.58052 94.4293 2.08718 92.8347 2.64052 91.2547C3.27252 89.4533 3.99785 87.6893 4.81385 85.964C5.61652 84.2667 6.43251 82.5747 7.27385 80.896C8.25918 78.928 9.25119 76.9613 10.2939 75.024C10.9539 73.7987 11.7072 72.6227 12.4312 71.432C13.3525 69.9147 14.3192 68.424 15.2072 66.8867C16.2512 65.0773 17.1085 63.1787 17.6085 61.1373C17.7032 60.7533 17.7805 60.364 17.8538 59.976C18.1085 58.632 18.5032 57.3267 18.9325 56.0307C19.4179 54.568 19.9058 53.1067 20.3672 51.636C20.6978 50.5853 20.9125 49.504 21.0605 48.412C21.2245 47.196 21.1632 45.9867 20.9752 44.776C20.8165 43.7627 20.6898 42.744 20.5565 41.7267C20.3965 40.5053 20.2565 39.2813 20.0819 38.0627C19.8725 36.596 19.6498 35.132 19.4045 33.672C18.8405 30.3267 18.1112 27.02 17.1085 23.776C16.3045 21.1747 15.2978 18.6573 14.0152 16.256C12.9618 14.2827 11.7178 12.4387 10.2365 10.7533C8.58451 8.87467 6.68318 7.30533 4.54318 6.016C4.25651 5.844 3.97785 5.64266 3.74185 5.408C3.41785 5.08666 3.46985 4.68133 3.85919 4.444C4.11919 4.28533 4.40852 4.15866 4.70185 4.07466C5.59119 3.81733 6.50318 3.66133 7.42852 3.60933C8.26185 3.56133 9.09518 3.52667 9.92985 3.512C11.5752 3.484 13.1698 3.79067 14.7352 4.27067C17.1392 5.00933 19.2712 6.24533 21.2072 7.83866C23.1485 9.43599 24.7685 11.324 26.1978 13.38C27.9738 15.9333 29.3765 18.688 30.5578 21.56C31.2512 23.244 31.8565 24.9587 32.3885 26.7C32.5752 27.3107 32.5885 27.3 33.0752 26.8733C34.1485 25.9333 35.3005 25.1013 36.5245 24.3667C39.4552 22.6053 42.6232 21.504 45.9872 20.948C47.0725 20.7693 48.1632 20.6293 49.2645 20.5947C49.8352 20.5773 50.4058 20.532 50.9778 20.5213C52.4752 20.492 53.9645 20.604 55.4538 20.764C57.2658 20.9587 59.0525 21.2933 60.8152 21.7427C63.4232 22.408 65.9578 23.2867 68.3912 24.444C68.9072 24.6907 69.4192 24.9453 69.9392 25.184C70.1378 25.276 70.3512 25.3347 70.5605 25.4027C70.9085 25.5173 71.0632 25.676 71.0672 25.9307C71.0725 26.2133 70.8805 26.488 70.5685 26.5827C70.3898 26.6373 70.1872 26.68 70.0085 26.6493C69.0485 26.4893 68.1058 26.6267 67.1645 26.7747C65.3672 27.0573 63.5738 27.3507 61.7765 27.632C57.8765 28.24 53.9978 28.96 50.1805 29.9813C46.3552 31.0067 42.6485 32.3427 39.1565 34.2293C37.3192 35.2213 35.5738 36.3547 33.9578 37.684C33.6525 37.9347 33.3539 38.1947 33.0459 38.4427C32.7952 38.644 32.6565 38.8893 32.5778 39.2093C31.8898 42.016 31.2578 44.8387 30.2898 47.5693C29.8872 48.704 29.4339 49.8173 28.8992 50.8987C28.6072 51.4893 28.3298 52.0893 28.0512 52.688C27.3312 54.236 26.4152 55.6693 25.4765 57.092C24.5552 58.488 23.6445 59.8907 22.7552 61.3067C22.4045 61.864 22.1205 62.464 21.8165 63.0493C21.7299 63.2173 21.6672 63.4013 21.6138 63.5827C21.1645 65.1227 20.5765 66.608 19.8858 68.0533C18.6352 70.6693 17.1152 73.1253 15.4605 75.5C14.4885 76.8973 13.4925 78.2787 12.5352 79.6853C12.0819 80.3507 11.6592 81.0413 11.2792 81.752C9.42852 85.2173 7.93518 88.8347 6.74585 92.5787C5.94985 95.084 5.29918 97.628 4.88852 100.227C4.68318 101.529 4.51252 102.839 4.49385 104.163C4.48718 104.645 4.41918 105.129 4.43518 105.612C4.50052 107.523 4.67252 109.419 5.32452 111.237C5.86452 112.748 6.62052 114.128 7.79918 115.244C8.81385 116.207 9.96185 116.953 11.3165 117.345C13.0498 117.848 14.7778 118.367 16.5218 118.828C18.3378 119.309 20.1845 119.659 22.0459 119.911C23.0912 120.052 24.1458 120.116 25.1965 120.207C25.6192 120.244 26.0458 120.289 26.4685 120.277C27.1125 120.259 27.7552 120.196 28.3965 120.147C28.8059 120.116 29.2138 120.065 29.6232 120.04C30.2965 119.997 30.9698 119.957 31.6432 119.935C32.7858 119.893 33.9312 119.891 35.0725 119.828C37.3752 119.701 39.6792 119.764 41.9818 119.768C43.1858 119.771 44.3458 119.576 45.4952 119.257C47.5192 118.696 49.3898 117.796 51.1565 116.667C52.7418 115.652 54.2125 114.487 55.6285 113.249C57.6192 111.509 59.4432 109.597 61.3205 107.74C61.5178 107.544 61.7405 107.373 61.9352 107.175C62.1805 106.925 62.4352 106.677 62.6392 106.393C63.0645 105.801 63.1285 105.136 62.8592 104.468C62.6738 104.008 62.4338 103.565 62.1845 103.136C61.6392 102.197 61.0498 101.283 60.6445 100.269C60.1885 99.132 59.9045 97.9587 59.8085 96.7307C59.6165 94.312 60.0898 91.9947 60.8725 89.7373C61.4765 87.996 62.3925 86.4013 63.4325 84.8827C64.4298 83.4253 65.5658 82.0827 66.8192 80.84C68.0712 79.5973 69.4285 78.4773 70.8685 77.4613C72.4072 76.376 74.0205 75.4187 75.7165 74.6C78.7072 73.156 81.8312 72.124 85.1098 71.5733C86.8058 71.288 88.5085 71.1107 90.1645 71.1453Z" fill="#F17171"/>
</svg>
