<svg width="128" height="130" viewBox="0 0 128 130" fill="none" xmlns="http://www.w3.org/2000/svg">
<path d="M28.7714 56.1599C28.7687 52.6372 29.3834 49.2079 30.2781 45.8199C30.8474 43.6705 31.5634 41.5692 32.4167 39.5172C32.5674 39.1532 32.5207 38.8865 32.2847 38.5839C30.7194 36.5745 29.0861 34.6239 27.3141 32.7945C24.9154 30.3172 22.4954 27.8599 20.0847 25.3959C18.5221 23.7972 16.9527 22.2065 15.3994 20.5999C14.7514 19.9305 14.1434 19.2225 13.5074 18.5412C13.0447 18.0452 12.6474 18.0519 12.2207 18.5852C11.9541 18.9199 11.7381 19.2945 11.5101 19.6572C11.3354 19.9319 11.2087 20.2412 11.0061 20.4919C10.6874 20.8865 10.6221 21.3252 10.7221 21.7879C10.8194 22.2345 10.7114 22.6092 10.4354 22.9465C10.0327 23.4385 9.64208 23.9439 9.20341 24.4012C8.97408 24.6399 8.67008 24.8252 8.36741 24.9692C7.90074 25.1919 7.53541 25.0572 7.29141 24.5932C7.16207 24.3479 7.03808 24.0745 7.01141 23.8052C6.85674 22.2332 7.40341 20.7332 9.21141 20.2305C9.38208 20.1825 9.56208 20.0692 9.67408 19.9332C10.0701 19.4545 10.4474 18.9612 10.8101 18.4572C11.0434 18.1345 11.2714 17.8012 11.4434 17.4452C11.7074 16.8999 11.6287 16.3639 11.2061 15.9239C10.8381 15.5425 10.4581 15.1599 10.0301 14.8505C9.47674 14.4519 8.89941 14.5199 8.41541 14.9959C7.71141 15.6919 7.21807 16.5385 6.83274 17.4385C6.72607 17.6905 6.72741 18.0252 6.78341 18.3012C6.87941 18.7732 6.80874 19.2025 6.53141 19.5652C6.11008 20.1159 5.67274 20.6639 5.18074 21.1479C4.59141 21.7279 3.74074 21.4999 3.47541 20.7092C3.15674 19.7545 3.29274 18.8105 3.65008 17.8892C3.86474 17.3319 4.21674 16.9239 4.77408 16.6399C6.11541 15.9559 7.03008 14.8492 7.69141 13.5145C7.83274 13.2292 7.83674 12.9545 7.73808 12.6572C7.34208 11.4772 5.78341 10.2639 4.54207 10.2119C4.31941 10.2025 4.08341 10.2999 3.86874 10.3865C3.54074 10.5185 3.23674 10.7119 2.90474 10.8319C2.45941 10.9919 2.04074 10.9065 1.75674 10.5039C1.45808 10.0825 1.19141 9.63721 0.920741 9.19721C0.778075 8.96655 0.832741 8.73188 0.976741 8.52921C1.26341 8.12788 1.32607 7.70787 1.22207 7.22521C1.11807 6.73454 1.22607 6.25454 1.47274 5.81054C1.79541 5.22921 1.77007 5.04921 1.30607 4.55854C0.598074 3.80654 0.586076 3.62121 1.22474 2.83587C1.54208 2.44521 1.86874 2.06254 2.19941 1.68388C2.29541 1.57454 2.41274 1.47721 2.53274 1.39187C2.81541 1.19187 2.91674 1.20388 3.21674 1.38521C3.46741 1.53588 3.72208 1.69054 3.99408 1.79454C4.26874 1.89988 4.54607 1.85054 4.78741 1.65454C4.89007 1.57054 5.00474 1.49988 5.11941 1.43321C5.38874 1.27855 5.66741 1.26388 5.90741 1.47055C6.18074 1.70655 6.44208 1.66921 6.72341 1.51188C6.91674 1.40388 7.11941 1.30787 7.30341 1.18654C7.78474 0.870541 8.22874 0.963879 8.65541 1.28921C9.09941 1.62655 9.35141 2.05187 9.24341 2.63187C9.14608 3.15587 9.00474 3.67588 8.96208 4.20254C8.92608 4.63721 8.95008 5.09321 9.04474 5.51854C9.18874 6.17054 9.66474 6.39588 10.2954 6.16254C10.9647 5.91588 11.4834 5.44921 11.9594 4.93721C12.2714 4.60255 12.5581 4.24254 12.8527 3.89054C13.1834 3.49587 13.1847 3.3172 12.9461 2.85854C12.8807 2.7332 12.8634 2.53587 12.9154 2.40921C13.0141 2.16521 13.1447 1.91854 13.3194 1.72787C14.1301 0.843872 15.1234 0.345209 16.3474 0.425209C17.0727 0.471876 17.5434 0.950548 17.5207 1.67455C17.4807 2.93455 16.8901 3.90921 15.8247 4.56921C15.6021 4.70788 15.2874 4.76121 15.0181 4.75055C14.0381 4.71588 13.3421 5.13988 12.8701 5.97455C12.5941 6.46388 12.3261 6.95854 12.0447 7.44521C11.9194 7.66121 11.9101 7.87721 12.0367 8.07587C12.2021 8.33587 12.3834 8.59054 12.5887 8.81987C12.7861 9.03721 13.0207 9.22388 13.2447 9.41588C13.5914 9.71055 14.0167 9.76788 14.3941 9.51188C14.6847 9.31588 14.9487 9.06788 15.1834 8.80655C15.5594 8.38921 15.9261 7.95987 16.2487 7.50121C16.4767 7.17854 16.6421 6.80787 16.8074 6.44654C17.0407 5.93454 17.2287 5.40255 17.4714 4.89721C17.8461 4.11588 18.4674 3.61188 19.3194 3.43988C19.7794 3.34788 20.2581 3.26521 20.7234 3.28788C21.5941 3.33055 21.9487 3.88787 21.7034 4.72654C21.4594 5.55854 20.9981 6.26788 20.3567 6.83054C20.0687 7.08254 19.6701 7.24921 19.2941 7.34788C17.8114 7.73188 16.9047 8.7812 16.1994 10.0252C15.6767 10.9479 15.9154 11.7799 16.7247 12.4772C18.1834 13.7305 19.6261 15.0025 21.0794 16.2625C22.6901 17.6572 24.3074 19.0439 25.9194 20.4359C27.1394 21.4905 28.3567 22.5479 29.5741 23.6052C30.8474 24.7119 32.1221 25.8159 33.3914 26.9265C34.5047 27.9012 35.6114 28.8839 36.7181 29.8652C37.3261 30.4052 37.9274 30.9532 38.5354 31.4945C38.9141 31.8319 39.1501 31.8572 39.5634 31.5572C40.1367 31.1399 40.6874 30.6879 41.2634 30.2732C44.3514 28.0559 47.6847 26.3172 51.3087 25.1505C52.9887 24.6092 54.7074 24.2105 56.4687 24.0679C58.4101 23.9105 60.3407 23.9919 62.2221 24.5799C64.2807 25.2252 66.0074 26.3639 67.4087 28.0092C68.4781 29.2665 69.2167 30.7025 69.8367 32.2199C70.1381 32.9572 70.5021 33.6719 70.8727 34.3785C71.7194 35.9852 73.0501 37.0479 74.7221 37.6959C75.3554 37.9425 76.0074 38.1425 76.6527 38.3559C77.0701 38.4932 77.0834 38.5425 76.8101 38.8852C76.0087 39.8905 75.1981 40.8905 74.4261 41.9185C74.1727 42.2559 73.9927 42.6599 73.8327 43.0545C73.3941 44.1359 73.4087 45.2359 73.8861 46.2919C74.1594 46.8945 74.5301 47.4545 74.8887 48.0132C75.0941 48.3332 75.1821 48.3185 75.4767 48.0412C76.3821 47.1892 77.2914 46.3412 78.1887 45.4825C79.3221 44.3985 80.4447 43.3025 81.5754 42.2145C83.0687 40.7785 84.5647 39.3452 86.0607 37.9132C87.3434 36.6852 88.6274 35.4585 89.9114 34.2319C91.9434 32.2892 93.9754 30.3465 96.0114 28.4065C97.0927 27.3759 98.1781 26.3479 99.2647 25.3239C101.29 23.4159 103.314 21.5079 105.343 19.6052C106.585 18.4412 107.829 17.2812 109.082 16.1305C110.969 14.4012 112.862 12.6799 114.757 10.9572C116.081 9.75321 117.403 8.54787 118.741 7.35721C120.154 6.09721 121.571 4.83987 123.015 3.61587C123.415 3.27721 123.891 3.00388 124.374 2.79321C125.499 2.30254 126.553 2.64387 127.247 3.65454C127.609 4.17987 127.802 4.76921 127.882 5.39054C128.058 6.76521 127.835 8.04654 126.931 9.15054C126.445 9.74521 125.782 10.0812 125.082 10.3292C124.662 10.4772 124.259 10.3465 123.97 9.98121C123.749 9.70254 123.535 9.41854 123.325 9.13321C122.737 8.33987 121.919 8.3612 121.274 8.9692C119.618 10.5332 117.919 12.0519 116.239 13.5919C115.411 14.3519 114.586 15.1159 113.761 15.8785C111.89 17.6052 110.019 19.3292 108.151 21.0572C107.239 21.9012 106.329 22.7465 105.423 23.5985C103.161 25.7292 100.902 27.8625 98.6434 29.9959C97.5474 31.0319 96.4488 32.0679 95.3594 33.1132C93.5874 34.8145 91.8234 36.5225 90.0554 38.2279C89.4687 38.7932 88.8741 39.3479 88.2954 39.9212C85.1407 43.0452 81.9887 46.1719 78.8394 49.3025C78.4821 49.6559 78.1434 50.0292 77.8021 50.3972C77.5874 50.6279 77.5861 50.6705 77.8474 50.8372C80.1674 52.3079 82.5434 53.6572 85.2514 54.2999C86.2714 54.5412 87.3034 54.5985 88.3367 54.4532C89.7221 54.2585 90.8567 53.5505 91.9007 52.6639C92.4527 52.1959 93.0061 51.7252 93.5887 51.2959C94.5421 50.5919 95.5594 50.5812 96.6021 51.1039C97.2501 51.4292 97.7621 51.8532 98.1008 52.5412C98.7168 53.7905 99.4781 54.9599 100.442 55.9799C101.237 56.8199 102.161 57.4959 103.27 57.8359C104.429 58.1919 105.606 58.4959 106.79 58.7559C109.515 59.3545 112.082 60.3479 114.525 61.6892C116.347 62.6905 118.073 63.8292 119.665 65.1652C121.747 66.9132 123.481 68.9545 124.838 71.3159C126.091 73.4972 126.917 75.8332 127.335 78.3039C127.514 79.3652 127.606 80.4465 127.662 81.5225C127.899 86.0665 126.919 90.4012 125.329 94.6199C123.655 99.0559 121.31 103.123 118.518 106.939C116.873 109.187 115.074 111.304 113.15 113.32C109.742 116.893 105.971 120.023 101.814 122.681C98.3954 124.868 94.7807 126.653 90.9127 127.908C88.5967 128.659 86.2314 129.203 83.8087 129.436C81.3567 129.672 78.9021 129.667 76.4674 129.213C76.1954 129.163 75.9207 129.072 75.6741 128.947C73.8047 127.996 72.0914 126.82 70.5287 125.416C68.0674 123.201 66.1381 120.583 64.5407 117.703C62.5367 114.089 61.1954 110.228 60.2554 106.216C60.1314 105.684 59.9927 105.152 59.8047 104.64C59.4741 103.745 58.9061 103.013 58.1581 102.421C57.5767 101.963 56.9861 101.516 56.4301 101.029C56.1007 100.739 55.7927 100.407 55.5421 100.047C55.0701 99.3665 55.1381 98.7545 55.7261 98.1705C56.5834 97.3172 57.3047 96.3705 57.8207 95.2719C58.4034 94.0345 58.7007 92.7359 58.7527 91.3705C58.8461 88.9479 58.2407 86.6759 57.2567 84.4919C56.1327 81.9985 54.5847 79.7892 52.6474 77.8559C52.5741 77.7825 52.5021 77.7079 52.4354 77.6292C52.0741 77.1999 51.7674 77.0945 51.2727 77.3479C50.8154 77.5825 50.3474 77.8412 49.9727 78.1839C48.9674 79.1025 47.9714 80.0345 47.0447 81.0292C45.9074 82.2519 44.8367 83.5385 43.7514 84.8092C42.5701 86.1932 41.4101 87.5959 40.2301 88.9825C39.3687 89.9959 38.5221 91.0239 37.5074 91.8985C37.2207 92.1452 37.0354 92.5065 36.7687 92.7812C35.7754 93.7959 34.7727 94.8012 33.7634 95.7999C33.3007 96.2572 32.8087 96.6852 32.3381 97.1345C30.9354 98.4719 29.5101 99.7865 28.1447 101.163C26.8847 102.433 25.6687 103.752 24.6927 105.267C24.2007 106.028 23.7661 106.817 23.6087 107.728C23.5367 108.143 23.5247 108.565 23.6914 108.953C23.9207 109.483 23.8074 109.963 23.5807 110.447C23.1754 111.313 22.6127 112.079 21.9807 112.784C21.0914 113.776 20.2007 114.771 19.2407 115.689C17.5954 117.264 15.8981 118.787 14.2167 120.323C12.8834 121.539 11.5381 122.741 10.2021 123.956C9.53408 124.563 8.85274 125.157 8.21941 125.799C7.55408 126.471 6.91141 127.168 6.30874 127.897C5.45408 128.932 4.39674 129.573 3.05674 129.68C1.79941 129.779 0.948743 129.068 0.672743 127.997C0.532743 127.451 0.558075 126.921 0.726075 126.381C1.22607 124.781 2.11674 123.42 3.20341 122.164C4.40207 120.78 5.83541 119.656 7.21274 118.467C8.32074 117.511 9.43408 116.557 10.5154 115.569C12.4794 113.772 14.4394 111.968 16.3674 110.132C17.7714 108.796 19.1367 107.416 20.4941 106.032C22.4421 104.045 24.3794 102.048 26.2981 100.035C27.9714 98.2772 29.6181 96.4945 31.2674 94.7159C33.0074 92.8385 34.7367 90.9505 36.4701 89.0692C37.8647 87.5559 39.2514 86.0385 40.6554 84.5359C42.5541 82.5025 44.4634 80.4799 46.3727 78.4572C47.0327 77.7572 47.7034 77.0679 48.3701 76.3745C48.4314 76.3105 48.4994 76.2505 48.5514 76.1812C48.6727 76.0199 48.6434 75.9385 48.4461 75.9185C47.9887 75.8732 47.5687 75.9959 47.1714 76.2199C46.6127 76.5359 46.2354 77.0292 45.8727 77.5372C45.4781 78.0919 45.1061 78.6625 44.6941 79.2039C44.4807 79.4839 44.2167 79.7305 43.9501 79.9612C43.7234 80.1559 43.6527 80.1212 43.5474 79.8319C43.2847 79.1092 43.0567 78.3719 42.7607 77.6625C42.0501 75.9612 40.9167 74.6519 39.1887 73.8959C37.6634 73.2279 36.2514 72.3625 34.9714 71.2919C33.0061 69.6479 31.5167 67.6492 30.4994 65.2985C29.5741 63.1572 29.0594 60.9172 28.8954 58.5959C28.8394 57.7852 28.8114 56.9719 28.7714 56.1599Z" fill="#56A7DA"/>
</svg>
