<svg width="134" height="135" viewBox="0 0 134 135" fill="none" xmlns="http://www.w3.org/2000/svg">
<path d="M42.0567 134.33C31.5007 134.33 20.9447 134.324 10.3873 134.34C9.34867 134.342 8.34601 134.209 7.35267 133.937C5.96734 133.557 4.62734 133.057 3.35667 132.382C2.76467 132.069 2.22067 131.689 1.71801 131.242C1.10334 130.694 0.847339 130.008 0.808672 129.212C0.787339 128.801 0.854008 128.409 0.952674 128.009C1.39001 126.244 2.36201 124.738 3.22067 123.17C4.72201 120.428 6.68067 118.01 8.56201 115.536C9.45934 114.357 10.3607 113.18 11.2713 112.01C12.8313 110.006 14.4087 108.016 15.9593 106.004C16.5047 105.296 16.9953 104.544 17.5087 103.81C17.9753 103.144 18.4713 102.496 18.8967 101.804C19.502 100.82 20.0607 99.8078 20.6273 98.8024C20.8913 98.3344 21.1233 97.8491 21.3807 97.3771C22.166 95.9398 21.7993 94.3091 20.466 93.3504C18.7847 92.1424 17.0793 90.9758 15.1673 90.1491C14.8713 90.0211 14.5953 89.8384 14.3207 89.6651C13.778 89.3238 13.7807 88.9624 14.2847 88.5651C14.7473 88.2024 15.2753 88.0198 15.838 87.8971C16.974 87.6464 18.1287 87.6104 19.2847 87.5824C20.3593 87.5571 21.4327 87.5158 22.5073 87.4878C24.8033 87.4264 27.098 87.3531 29.3953 87.3144C32.7007 87.2598 36.0073 87.2318 39.314 87.1878C39.542 87.1851 39.77 87.1638 39.994 87.1238C40.4273 87.0478 40.6873 86.7758 40.7633 86.3478C40.8033 86.1238 40.8153 85.8944 40.818 85.6664C40.8567 82.2744 41.118 78.8984 41.6687 75.5504C41.8687 74.3304 42.158 73.1264 42.3873 71.9104C42.6047 70.7598 42.7433 69.5918 43.0113 68.4531C43.358 66.9811 43.7873 65.5278 44.2033 64.0744C44.7873 62.0278 45.4047 59.9904 45.9873 57.9424C46.5433 55.9824 47.298 54.0984 48.1087 52.2331C48.7767 50.6958 49.3953 49.1371 50.09 47.6118C50.522 46.6651 51.054 45.7651 51.5433 44.8451C51.7567 44.4424 51.9727 44.0411 52.194 43.6424C52.29 43.4691 52.4087 43.2838 52.6433 43.3518C52.8633 43.4158 52.9233 43.6118 52.902 43.8238C52.8287 44.5678 52.738 45.3118 52.6767 46.0558C52.6313 46.5904 52.5967 47.1264 52.606 47.6611C52.6153 48.0971 52.886 48.2984 53.326 48.2478C53.8087 48.1918 54.1673 47.9184 54.4513 47.5424C57.3153 43.7438 60.038 39.8478 62.5513 35.8064C63.5313 34.2304 64.6087 32.7171 65.622 31.1611C66.1447 30.3571 66.618 29.5198 67.1233 28.7038C68.1593 27.0291 69.198 25.3558 70.2447 23.6878C70.686 22.9851 71.142 22.2918 71.6033 21.6024C71.7287 21.4158 71.882 21.2344 72.0593 21.0984C72.17 21.0118 72.37 20.9518 72.4927 20.9918C72.6713 21.0504 72.65 21.2518 72.6007 21.4158C72.5633 21.5398 72.5273 21.6651 72.4807 21.7851C71.6633 23.8771 70.842 25.9678 70.0287 28.0611C69.9233 28.3331 69.8487 28.6171 69.77 28.8984C69.7287 29.0464 69.7233 29.2184 69.898 29.2691C70.0247 29.3064 70.1833 29.2904 70.31 29.2478C70.4087 29.2144 70.4873 29.1078 70.5607 29.0224C71.086 28.4224 71.6473 27.8478 72.1233 27.2104C73.4273 25.4611 74.682 23.6758 75.978 21.9211C76.926 20.6371 77.8887 19.3638 78.878 18.1131C80.2687 16.3558 81.882 14.8184 83.614 13.3998C85.0273 12.2424 86.5033 11.1784 88.1153 10.3144C90.2367 9.17577 92.35 8.01844 94.5073 6.95044C95.918 6.25177 97.414 5.72778 98.846 5.07044C100.891 4.13311 103.021 3.42511 105.145 2.70511C106.855 2.12377 108.621 1.73977 110.394 1.38911C112.142 1.04377 113.897 0.849113 115.682 0.878446C116.821 0.898446 117.961 0.81311 119.101 0.791776C120.81 0.76111 122.521 0.730439 124.23 0.725106C125.585 0.721106 126.93 0.835773 128.259 1.11311C128.466 1.15711 128.677 1.18244 128.887 1.20511C130.333 1.36244 131.661 1.88378 132.953 2.51578C133.069 2.57178 133.177 2.65044 133.279 2.72777C133.825 3.1411 133.905 3.67444 133.474 4.20377C133.229 4.50644 132.959 4.79444 132.669 5.05178C131.655 5.94778 130.635 6.83445 129.605 7.71045C128.661 8.51311 127.642 9.21578 126.582 9.85978C124.075 11.3798 121.563 12.8878 119.073 14.4331C117.879 15.1744 116.601 15.7424 115.359 16.3864C114.782 16.6864 114.207 16.9931 113.637 17.3051C109.649 19.4758 105.646 21.6198 101.682 23.8331C98.7567 25.4664 95.8313 27.1104 93.1073 29.0771C92.646 29.4104 92.1673 29.7184 91.7033 30.0478C91.5873 30.1304 91.4727 30.2384 91.406 30.3611C91.3513 30.4611 91.3207 30.6331 91.3713 30.7144C91.4247 30.7984 91.606 30.8664 91.7047 30.8411C92.018 30.7611 92.342 30.6771 92.6193 30.5198C94.0153 29.7251 95.5367 29.2464 97.0407 28.7224C97.7473 28.4771 98.438 28.1891 99.1433 27.9451C99.3993 27.8558 99.678 27.8078 99.95 27.7958C100.183 27.7864 100.282 27.9464 100.185 28.1558C100.105 28.3291 99.9873 28.4971 99.85 28.6278C98.5433 29.8544 97.2287 31.0704 95.9167 32.2918C95.1753 32.9838 94.3807 33.6024 93.502 34.1104C92.9633 34.4211 92.474 34.7958 92.0353 35.2384C91.8407 35.4344 91.6207 35.6064 91.4047 35.7784C89.2887 37.4624 87.1487 39.1158 85.0633 40.8358C83.67 41.9851 82.358 43.2331 81.0007 44.4291C80.342 45.0091 79.6593 45.5624 79.002 46.1438C78.8367 46.2904 78.698 46.4864 78.602 46.6864C78.49 46.9198 78.6113 47.1118 78.8687 47.1438C79.026 47.1624 79.198 47.1491 79.35 47.1038C79.6287 47.0198 79.9087 46.9224 80.1687 46.7931C81.3353 46.2131 82.4887 45.6078 83.658 45.0358C84.0927 44.8224 84.5527 44.6518 85.0167 44.5091C85.2007 44.4518 85.5327 44.4491 85.6087 44.5558C85.7567 44.7678 85.5153 44.9611 85.374 45.1331C83.1113 47.8598 80.5513 50.2944 77.9593 52.6998C75.2967 55.1691 72.6247 57.6318 70.014 60.1571C68.7407 61.3891 67.6007 62.7584 66.4007 64.0664C66.3673 64.1024 66.3393 64.1424 66.3047 64.1784C66.1233 64.3651 65.9647 64.6144 66.1473 64.8211C66.2687 64.9584 66.5553 64.9864 66.77 64.9944C66.918 64.9998 67.078 64.8998 67.2207 64.8251C68.2153 64.3038 69.2407 63.8424 70.162 63.1878C70.3713 63.0398 70.618 62.9291 70.8633 62.8504C71.058 62.7891 71.282 62.7638 71.4847 62.7891C71.818 62.8331 71.942 63.1184 71.7633 63.4051C71.6607 63.5678 71.5113 63.7011 71.3833 63.8478C71.1487 64.1171 70.8887 64.3691 70.6847 64.6598C69.0687 66.9718 67.3353 69.1904 65.4793 71.3158C64.7087 72.1971 64.0153 73.1464 63.2673 74.0504C62.718 74.7144 62.1713 75.3851 61.5673 75.9984C58.366 79.2504 55.2873 82.6144 52.338 86.0958C52.1473 86.3211 51.9127 86.5704 52.046 86.8758C52.1913 87.2051 52.5513 87.1904 52.8593 87.1918C55.4167 87.2038 57.9753 87.2038 60.5327 87.2198C62.0793 87.2291 63.6273 87.2651 65.174 87.2798C66.514 87.2931 67.8273 87.5171 69.142 87.7424C69.742 87.8438 70.318 88.0051 70.8567 88.2824C71.1153 88.4144 71.3687 88.5704 71.5953 88.7518C71.9047 88.9998 71.9393 89.2704 71.6513 89.5411C71.2993 89.8731 70.914 90.1811 70.502 90.4344C70.1447 90.6531 69.7367 90.7904 69.3447 90.9491C68.1127 91.4438 66.9593 92.0784 65.914 92.8918C65.57 93.1598 65.25 93.4758 64.9833 93.8198C64.3753 94.6038 64.2167 95.4918 64.5047 96.4504C65.0607 98.3024 65.818 100.049 67.0007 101.609C69.6953 105.166 72.334 108.765 75.042 112.313C76.0807 113.672 77.1393 115.012 78.0727 116.448C78.2927 116.786 78.5927 117.073 78.8193 117.408C80.3953 119.724 81.962 122.045 83.53 124.365C83.9673 125.012 84.4353 125.642 84.83 126.314C85.514 127.476 85.818 129.273 84.8993 130.468C84.566 130.902 84.1967 131.288 83.69 131.505C81.6993 132.356 79.71 133.205 77.6273 133.817C76.1753 134.244 74.6913 134.374 73.186 134.373C65.1713 134.37 57.1553 134.373 49.1407 134.372C47.414 134.372 45.6873 134.369 43.9607 134.369C43.326 134.368 42.6913 134.369 42.0567 134.369C42.0567 134.356 42.0567 134.344 42.0567 134.33Z" fill="#BC9AC8"/>
</svg>
