<svg width="132" height="135" viewBox="0 0 132 135" fill="none" xmlns="http://www.w3.org/2000/svg">
<path d="M105.425 56.0372C105.39 55.9465 105.353 55.8519 105.315 55.7572C105.226 55.8159 105.134 55.8719 105.046 55.9345C103.859 56.7919 102.735 57.7612 101.467 58.4732C100.367 59.0905 99.1234 59.4772 97.9087 59.8519C96.6714 60.2345 95.4074 60.5919 94.1287 60.7519C92.6847 60.9345 91.2114 60.9319 89.7514 60.9252C87.2514 60.9132 84.75 60.8479 82.25 60.7799C80.9754 60.7452 79.7007 60.6519 78.426 60.5932C78.2874 60.5865 78.1474 60.6305 78.0074 60.6505C78.082 60.7732 78.142 60.9092 78.2327 61.0172C79.1034 62.0399 79.9874 63.0505 80.8514 64.0785C81.9434 65.3785 83.0007 66.7092 84.11 67.9945C85.466 69.5639 86.8607 71.0999 88.2354 72.6532C89.802 74.4225 91.3634 76.1972 92.9354 77.9612C93.13 78.1785 93.382 78.3452 93.6087 78.5345C93.594 78.2905 93.5914 78.0439 93.5634 77.8012C93.3447 75.9759 93.822 74.2452 94.5167 72.6185C95.0807 71.2985 95.8647 70.0385 96.7327 68.8879C98.2607 66.8599 99.998 64.9892 101.511 62.9519C102.698 61.3559 103.709 59.6252 104.733 57.9159C105.066 57.3599 105.195 56.6812 105.425 56.0372ZM79.3847 41.0132C79.3834 40.9959 79.382 40.9785 79.3794 40.9612C76.958 41.1159 74.5354 41.2692 72.114 41.4305C71.99 41.4385 71.8687 41.5105 71.746 41.5532C71.8274 41.6372 71.894 41.7505 71.9927 41.7999C73.6794 42.6385 75.4074 43.4012 77.0474 44.3212C78.5514 45.1652 80.0447 46.0719 81.386 47.1479C82.3487 47.9199 83.182 48.8332 84.3767 49.2692C84.6887 49.3825 84.9874 49.5332 85.302 49.6385C86.2247 49.9465 87.1487 50.4759 88.0767 50.4839C89.506 50.4972 90.9474 50.1985 92.3674 49.9412C94.0474 49.6359 95.71 49.2318 97.3807 48.8758C97.8074 48.7838 98.2487 48.7452 98.666 48.6225C99.7394 48.3092 100.797 47.9305 101.875 47.6358C103.558 47.1745 104.773 45.4985 104.486 43.8105C104.314 42.7999 103.879 41.8319 103.729 40.8199C103.609 40.0119 103.153 40.0092 102.575 40.0452C99.7794 40.2145 96.982 40.3959 94.1847 40.5545C92.7287 40.6372 91.2727 40.6985 89.8154 40.7412C86.3394 40.8412 82.862 40.9239 79.3847 41.0132ZM104.358 34.9292C104.203 33.9519 104.135 33.2039 103.958 32.4812C103.726 31.5305 103.497 30.5625 103.105 29.6745C102.549 28.4145 101.915 27.1772 101.189 26.0092C100.249 24.4999 99.162 23.0839 98.178 21.5999C96.866 19.6199 95.4887 17.6705 94.3314 15.6012C93.158 13.5012 92.5367 11.1972 92.6674 8.74385C92.674 8.62385 92.6047 8.49853 92.5714 8.37586C92.4674 8.4612 92.3394 8.52785 92.2634 8.63319C91.326 9.93985 90.418 11.2679 89.4594 12.5572C88.606 13.7039 87.6927 14.8052 86.818 15.9345C85.1914 18.0385 83.5674 20.1439 81.9687 22.2692C81.838 22.4425 81.802 22.8572 81.9194 23.0145C82.2967 23.5239 82.7394 23.9932 83.2034 24.4279C83.9407 25.1172 83.9314 25.6212 83.0914 26.1905C82.662 26.4812 82.2167 26.7545 81.7594 26.9999C81.05 27.3812 80.8567 27.8985 81.1194 28.6759C81.4127 29.5412 81.218 29.8092 80.3754 30.1225C80.246 30.1705 80.094 30.5692 80.158 30.6585C80.6114 31.2905 80.4527 31.7652 79.99 32.3372C79.6354 32.7759 79.3327 33.3652 79.2767 33.9159C79.166 35.0052 78.7034 35.8999 77.7314 36.2159C76.582 36.5892 75.334 36.7439 74.1194 36.8079C72.3087 36.9025 71.4074 37.6425 71.1794 39.4652C71.1287 39.8719 71.2114 40.0278 71.6874 39.9892C74.898 39.7345 78.11 39.4719 81.3274 39.2972C83.4967 39.1785 85.6767 39.2319 87.85 39.1492C89.394 39.0919 90.934 38.9092 92.478 38.8332C94.3607 38.7399 96.2474 38.7092 98.1314 38.6372C99.406 38.5878 100.679 38.5252 101.953 38.4465C102.433 38.4172 102.91 38.3439 103.383 38.2572C103.49 38.2372 103.63 38.0919 103.657 37.9799C103.917 36.9065 104.155 35.8279 104.358 34.9292ZM119.681 38.6079C120.782 38.6079 121.883 38.5959 122.983 38.6145C123.394 38.6225 123.537 38.5172 123.601 38.0652C123.693 37.4265 123.846 36.7385 124.183 36.2039C124.785 35.2492 125.862 35.2772 126.783 35.4692C128.597 35.8478 130.026 37.0012 131.446 38.1265C132.043 38.5999 131.654 38.9692 131.295 39.2852C130.329 40.1358 129.406 41.0665 128.331 41.7559C127.402 42.3519 126.311 43.0185 125.147 42.5252C124.641 42.3105 124.302 41.6372 123.962 41.1225C123.801 40.8772 123.849 40.5012 123.729 40.2159C123.671 40.0812 123.441 39.9372 123.291 39.9385C121.247 39.9585 119.203 40.0252 117.158 40.0319C116.597 40.0332 116.499 40.1292 116.63 40.7079C117.17 43.1092 117.182 45.4665 115.429 47.4465C114.918 48.0239 114.179 48.3959 113.566 48.8892C113.415 49.0092 113.253 49.2319 113.255 49.4065C113.274 51.0199 113.442 52.6399 113.329 54.2425C113.265 55.1559 112.867 56.0945 112.431 56.9225C111.539 58.6132 110.587 60.2825 109.53 61.8732C108.733 63.0732 107.762 64.1639 106.813 65.2559C105.593 66.6599 104.271 67.9758 103.078 69.4012C101.855 70.8612 100.755 72.4225 99.5647 73.9105C98.0474 75.8052 97.0927 77.9772 96.478 80.2865C96.186 81.3785 96.1834 82.5492 96.0714 83.6852C96.054 83.8692 96.142 84.0679 96.198 84.2545C96.242 84.3959 96.3127 84.5292 96.3714 84.6652C96.2114 84.5719 96.0034 84.5145 95.8967 84.3772C94.9314 83.1305 94.0114 81.8479 93.022 80.6212C91.8994 79.2292 90.706 77.8932 89.5674 76.5145C87.8634 74.4519 86.186 72.3665 84.486 70.3012C83.2914 68.8505 82.0967 67.3999 80.8674 65.9799C79.4474 64.3412 77.99 62.7345 76.5447 61.1172C76.4474 61.0092 76.31 60.9372 76.1914 60.8479C76.138 60.9852 76.0794 61.1199 76.0327 61.2585C75.7834 62.0079 75.4954 62.7479 75.3007 63.5119C75.1607 64.0559 75.05 64.6412 75.0914 65.1945C75.23 67.0465 75.1034 68.8572 74.5314 70.6305C74.414 70.9972 74.2594 71.3572 74.1954 71.7332C74.1687 71.8985 74.2834 72.1332 74.4074 72.2705C77.902 76.1158 81.422 79.9372 84.9007 83.7959C87.1634 86.3039 89.3914 88.8532 90.8594 91.9412C92.226 94.8172 92.8727 97.8292 91.994 100.961C91.314 103.384 89.79 105.344 88.0287 107.091C84.9914 110.103 81.2954 111.932 77.2007 113.069C74.142 113.919 71.1154 114.884 68.074 115.799C64.522 116.868 60.9527 117.884 57.4327 119.051C56.5767 119.335 55.7087 119.98 55.1487 120.696C52.714 123.809 50.3594 126.988 48.0514 130.197C47.57 130.867 47.4114 131.765 47.0927 132.555C46.894 133.045 46.766 133.609 46.434 133.989C46.1394 134.327 45.578 134.671 45.1874 134.617C44.7954 134.565 44.286 134.092 44.142 133.691C43.286 131.305 42.9887 128.815 43.0954 126.292C43.206 123.709 42.5434 121.332 41.3834 119.064C40.7314 117.791 40.1314 116.509 40.142 115.032C40.1527 113.572 41.0407 112.315 42.442 111.9C43.5687 111.568 44.7234 111.333 45.8554 111.019C48.09 110.4 49.9154 109.052 51.7874 107.751C54.4794 105.88 57.146 103.919 60.0407 102.415C62.1847 101.3 64.674 100.843 67.014 100.108C67.6247 99.9159 68.2554 99.7865 68.87 99.6079C68.998 99.5705 69.1007 99.4439 69.214 99.3585C69.1234 99.2612 69.05 99.1332 68.9407 99.0705C65.2914 96.9919 61.6407 94.9185 57.9874 92.8478C57.2434 92.4252 56.4687 92.0545 55.75 91.5945C55.3167 91.3185 55.0234 91.3652 54.6807 91.7038C53.4754 92.8958 52.306 94.1319 51.03 95.2439C49.2927 96.7585 47.4767 98.1812 45.6834 99.6292C42.2154 102.429 38.5727 104.965 34.5114 106.844C32.8807 107.599 31.2594 108.411 29.5567 108.959C28.594 109.269 27.4754 109.084 26.4287 109.147C23.8274 109.305 21.2247 109.448 18.6274 109.655C16.7874 109.801 14.958 110.087 13.118 110.227C11.9047 110.319 11.0634 110.949 10.366 111.836C8.76872 113.867 6.89405 115.596 4.86472 117.185C4.22472 117.688 3.78205 118.445 3.25138 119.088C3.07672 119.299 2.95138 119.584 2.73138 119.717C2.30072 119.98 1.73938 120.416 1.38338 120.301C1.03938 120.192 0.63671 119.449 0.691376 119.043C0.94071 117.213 0.412718 115.479 0.231385 113.704C0.0607181 112.033 0.73805 110.637 1.75272 109.412C3.05005 107.844 3.83138 106.096 4.02738 104.071C4.06472 103.683 4.22071 103.301 4.35404 102.928C4.97004 101.192 5.95272 100.579 7.77272 100.885C9.80338 101.227 11.5447 100.828 13.0527 99.3145C14.9527 97.4092 17.1594 95.8772 19.63 94.8132C21.3594 94.0692 23.1634 93.4318 25.1034 93.4932C25.8807 93.5185 26.3247 93.1625 26.7647 92.5278C29.03 89.2705 31.2127 85.9372 33.7234 82.8772C34.9647 81.3652 36.794 80.2945 38.4714 79.1985C39.4594 78.5532 40.3327 78.0879 40.7247 76.7825C41.7367 73.4172 44.278 71.2585 47.174 69.5212C48.4314 68.7665 49.0714 67.8732 48.9047 66.3612C48.7887 65.3052 48.8727 64.2252 48.9047 63.1572C48.9234 62.5799 48.6727 62.3692 48.1234 62.3412C45.6847 62.2159 43.2687 61.8839 40.9967 60.9679C39.878 60.5172 38.754 59.9265 37.846 59.1492C36.066 57.6279 35.2207 55.5145 37.322 53.0039C38.542 51.5465 39.3834 49.9092 39.8474 48.0759C39.8767 47.9599 39.678 47.6625 39.5634 47.6519C38.1074 47.4999 36.6487 47.3825 35.19 47.2665C34.886 47.2412 34.5767 47.2772 34.2727 47.2519C32.8927 47.1359 32.4127 46.3345 32.9634 45.0785C33.3447 44.2079 33.178 43.7652 32.2394 43.7692C31.3594 43.7732 30.426 43.9732 29.6154 44.3185C28.2554 44.8999 26.9887 45.6932 25.654 46.3372C25.2007 46.5559 24.6674 46.6572 24.1607 46.6985C23.6087 46.7425 23.21 46.4172 23.146 45.8492C23.058 45.0785 22.5607 44.9905 22.038 45.2478C21.1514 45.6865 20.3234 46.2398 19.47 46.7465C18.8527 47.1132 18.2514 47.5132 17.614 47.8398C16.47 48.4292 15.678 47.9279 15.6167 46.6519C15.6127 46.5532 15.182 46.3399 15.0714 46.4012C14.1087 46.9265 13.1154 47.4265 12.242 48.0798C8.89271 50.5878 5.81805 53.4025 3.08871 56.5825C2.56338 57.1959 2.13405 57.8892 1.62072 58.5132C1.47672 58.6878 1.19272 58.7465 0.972718 58.8585C0.934051 58.6185 0.79938 58.3452 0.870046 58.1425C1.52205 56.2852 2.13538 54.4092 2.90072 52.5972C5.65005 46.1012 9.09404 39.9732 13.0074 34.1159C16.366 29.0879 19.9847 24.2599 24.61 20.2839C28.442 16.9892 32.714 16.2439 37.2514 18.4665C40.4314 20.0252 41.906 22.8625 42.0994 26.3945C42.266 29.4585 42.4434 32.5252 42.7474 35.5772C42.918 37.2865 43.9994 38.5425 45.4154 39.4532C45.6927 39.6319 46.1994 39.6158 46.5394 39.5065C48.09 39.0052 49.658 38.5252 51.1474 37.8745C53.1687 36.9919 54.7234 35.5452 55.3714 33.3785C55.5794 32.6879 55.4327 31.8692 55.3287 31.1252C55.3074 30.9732 54.7514 30.7985 54.4474 30.8079C54.05 30.8199 53.662 31.0719 53.262 31.1025C51.8354 31.2105 51.0807 31.2959 50.4154 29.5865C50.0274 28.5892 49.3874 27.7492 48.126 27.6799C47.606 27.6505 47.374 27.0452 47.6114 26.5439C48.39 24.8972 48.186 24.1159 46.6954 23.0439C46.3967 22.8292 46.0914 22.6239 45.8047 22.3959C45.106 21.8425 44.81 20.8519 45.0967 20.0119C45.226 19.6372 45.4647 19.2852 45.522 18.9025C45.6154 18.2679 46.5407 17.7372 45.774 16.9865C45.2727 16.4945 44.7754 15.9959 44.306 15.4732C43.8594 14.9759 43.3514 14.4905 43.0727 13.9052C42.9407 13.6252 43.1674 13.0025 43.4354 12.7599C43.6687 12.5465 44.2767 12.4839 44.5674 12.6399C46.8127 13.8439 48.502 12.2465 48.5607 10.0292C48.5834 9.21986 48.2394 8.39586 48.0327 7.58652C47.738 6.44119 47.574 5.21719 48.6194 4.46519C49.334 3.95052 50.3394 3.72519 51.2447 3.61986C52.1994 3.50919 53.1874 3.71185 54.162 3.74519C55.222 3.77985 56.1287 3.5372 56.854 2.6172C57.8047 1.41453 59.2874 1.07986 60.6767 0.678526C62.5727 0.131859 64.5114 -0.146808 66.4714 0.290525C67.178 0.447859 67.8314 0.913195 68.5354 0.987862C69.7607 1.11586 71.0847 1.32786 72.23 1.01186C75.346 0.150526 79.158 1.70252 80.758 4.33452C81.378 5.35452 81.4807 6.44786 80.9154 7.52786C80.526 8.27186 80.5887 8.82252 81.1034 9.55985C81.5474 10.1959 81.6634 11.1212 81.7474 11.9372C81.922 13.6292 82.0394 15.3319 82.0554 17.0319C82.062 17.6505 81.686 18.2652 81.538 18.8932C81.3994 19.4839 81.3314 20.0892 81.2327 20.6892C81.6394 20.2759 82.114 19.9092 82.4394 19.4385C83.2927 18.2065 84.0514 16.9092 84.9034 15.6759C85.678 14.5545 86.5194 13.4799 87.342 12.3919C88.422 10.9652 89.4914 9.52919 90.6047 8.12786C91.9674 6.41186 93.3687 4.72652 94.7567 3.03186C94.8407 2.93052 94.954 2.85319 95.054 2.76385C95.0847 2.90385 95.134 3.04385 95.142 3.18652C95.2087 4.36652 95.162 5.56519 95.3647 6.72119C95.5367 7.69586 95.9207 8.65585 96.3487 9.55719C96.9967 10.9212 97.6727 12.2892 98.5047 13.5439C99.506 15.0545 100.657 16.4679 101.789 17.8865C103.475 20.0025 105.253 22.0452 106.894 24.1945C108.261 25.9839 109.585 27.8479 110.285 30.0105C110.817 31.6559 111.071 33.3892 111.47 35.0785C111.499 35.2025 111.689 35.3719 111.813 35.3799C113.647 35.5012 114.798 36.5305 115.589 38.1079C115.705 38.3412 116.071 38.5732 116.331 38.5852C117.446 38.6385 118.563 38.6079 119.681 38.6079Z" fill="#DB4C97"/>
<path d="M113.78 18.1005C113.78 18.0859 113.781 18.0699 113.78 18.0552C113.547 15.9112 114.705 14.5605 116.523 13.8845C117.345 13.5792 118.424 13.8619 119.364 14.0125C119.867 14.0939 120.471 14.3472 120.769 14.7272C121.389 15.5125 121.875 16.4165 122.34 17.3099C122.592 17.7939 122.744 17.6525 123.083 17.4192C123.876 16.8752 124.655 16.1952 125.547 15.9379C126.577 15.6392 127.681 15.9085 128.64 16.5232C130.035 17.4165 130.865 18.6605 130.691 20.3325C130.609 21.1112 130.301 21.9565 129.84 22.5819C129.032 23.6765 128.121 24.7392 127.079 25.6045C125.992 26.5059 124.705 27.1699 123.495 27.9179C122.68 28.4192 121.856 28.9072 121.015 29.3605C120.54 29.6165 120.023 29.9432 119.521 29.9485C119.165 29.9525 118.709 29.5432 118.461 29.2005C117.863 28.3685 117.327 27.4872 116.831 26.5899C116.369 25.7552 115.995 24.8739 115.58 24.0125C115.495 23.8365 115.395 23.6685 115.319 23.4885C114.884 22.4539 114.392 21.4379 114.045 20.3752C113.812 19.6579 113.787 18.8725 113.668 18.1179C113.705 18.1112 113.743 18.1059 113.78 18.1005Z" fill="#DB4C97"/>
<path d="M110.972 8.16705C110.64 9.12838 110.304 10.0964 109.866 11.011C109.365 12.0577 108.7 13.0244 108.202 14.0724C107.842 14.8337 107.381 14.643 106.844 14.4044C105.989 14.027 105.096 13.715 104.289 13.255C103.198 12.6337 102.22 11.8097 101.109 11.2324C99.8478 10.5777 99.2811 9.37505 98.5185 8.32838C97.8905 7.46838 98.5865 4.92838 99.5945 4.42838C100.302 4.07905 101.104 3.67771 101.848 3.70705C102.56 3.73371 103.282 4.23505 103.945 4.62305C104.622 5.02038 104.704 4.97638 104.873 4.22171C105.086 3.27771 106.192 1.69371 107.54 1.74171C107.982 1.75771 108.432 1.74438 108.869 1.68438C109.672 1.57505 110.152 2.12971 110.65 2.56571C110.97 2.84571 111.169 3.29238 111.354 3.69638C111.561 4.14838 111.309 7.18971 110.972 8.16705Z" fill="#DB4C97"/>
</svg>
