<svg width="141" height="138" viewBox="0 0 141 138" fill="none" xmlns="http://www.w3.org/2000/svg">
<path d="M117.615 7.16708C117.189 7.21241 116.761 7.23774 116.34 7.30441C115.027 7.51508 113.909 8.09641 113.037 9.11641C112.333 9.93774 112.085 10.9004 112.283 11.9457C112.635 13.8177 113.583 15.2978 115.241 16.3071C117.373 17.6031 119.68 18.4231 122.109 18.9231C122.712 19.0484 123.317 19.1724 123.928 19.2338C124.599 19.3004 125.052 18.9737 125.221 18.3204C125.311 17.9791 125.332 17.6097 125.313 17.2564C125.292 16.8484 125.192 16.4457 125.131 16.0404C124.664 12.9617 123.199 10.4431 120.847 8.42708C119.92 7.63375 118.865 7.15508 117.615 7.16708ZM116.161 0.61108H118.631C118.741 0.64308 118.851 0.695079 118.963 0.705745C120.159 0.821745 121.339 1.02308 122.497 1.34308C126.507 2.44975 129.523 4.79908 131.448 8.50975C132.812 11.1404 133.339 13.9204 132.955 16.8671C132.875 17.4777 132.82 18.0938 132.921 18.7124C133.009 19.2524 133.229 19.4844 133.773 19.4577C135.137 19.3924 136.403 19.0098 137.507 18.1791C137.988 17.8164 138.304 17.3417 138.399 16.7297C138.429 16.5297 138.495 16.3257 138.585 16.1457C138.835 15.6577 139.247 15.6071 139.613 16.0151C140.1 16.5564 140.247 17.1844 140.004 17.8737C139.717 18.6871 139.324 19.4484 138.715 20.0724C137.296 21.5271 135.676 22.6777 133.732 23.3311C133.359 23.4551 132.987 23.5817 132.611 23.7031C132.195 23.8364 131.915 24.0951 131.74 24.5071C131.432 25.2311 131.089 25.9404 130.759 26.6551C129.703 28.9297 128.309 30.9724 126.563 32.7724C125.521 33.8484 124.379 34.8017 123.143 35.6444C122.817 35.8657 122.491 36.0911 122.193 36.3471C121.664 36.8044 121.596 37.1738 121.881 37.8071C121.952 37.9631 122.033 38.1137 122.112 38.2657C123.429 40.8031 124.749 43.3404 126.064 45.8791C126.221 46.1831 126.372 46.4911 126.497 46.8084C127.259 48.7378 127.903 50.7044 128.409 52.7151C129.272 56.1271 129.808 59.5897 130.071 63.1004C130.22 65.0844 130.321 67.0644 130.177 69.0564C130.02 71.2444 129.799 73.4244 129.457 75.5924C128.867 79.3404 127.937 83.0004 126.641 86.5657C125.396 89.9897 123.869 93.2591 121.715 96.2351C119.808 98.8698 117.757 101.358 115.365 103.564C114.016 104.808 112.716 106.103 111.399 107.38C109.751 108.982 108.485 110.839 107.749 113.024C107.169 114.744 106.723 116.504 106.392 118.291C105.984 120.496 105.58 122.702 105.192 124.911C104.704 127.696 104.277 130.488 104.204 133.324C104.183 134.13 104.076 134.93 103.819 135.7C103.531 136.567 102.939 137.158 102.043 137.307C100.693 137.532 99.332 137.74 97.968 137.822C96.448 137.914 94.9173 137.854 93.392 137.86C92.9213 137.863 92.5146 137.702 92.1906 137.367C91.8613 137.028 91.6227 136.627 91.5733 136.151C91.4907 135.351 91.444 134.547 91.3707 133.746C91.32 133.2 91.2973 132.648 91.1827 132.115C90.6853 129.784 90.0093 127.503 89.056 125.316C88.7147 124.535 88.3147 123.77 87.8533 123.054C87.1707 121.991 86.1987 121.26 84.9347 121.034C84.2827 120.915 83.6053 120.874 82.9413 120.887C81.0907 120.923 79.24 121.007 77.3907 121.072C75.54 121.138 73.6893 121.2 71.84 121.268C68.6666 121.387 65.4973 121.287 62.3333 121.05C60.6053 120.92 58.8786 120.823 57.1466 120.984C55.9133 121.098 54.8227 121.522 53.9013 122.368C52.9587 123.235 52.2 124.244 51.5373 125.332C50.4373 127.138 49.5907 129.066 48.7747 131.007C48.2427 132.276 47.8773 133.591 47.7227 134.963C47.6373 135.718 47.4587 136.447 46.9813 137.07C46.5373 137.65 45.9733 137.974 45.224 137.96C44.1093 137.94 42.9947 137.944 41.88 137.927C40.1973 137.902 38.5347 137.69 36.8827 137.367C36.2027 137.234 35.7533 136.863 35.56 136.227C35.4227 135.772 35.324 135.291 35.3107 134.819C35.284 133.912 35.3333 133.003 35.3427 132.094C35.3533 130.928 35.4093 129.76 35.3507 128.598C35.236 126.322 35.0427 124.05 34.904 121.775C34.7587 119.379 34.532 116.995 34.1747 114.62C33.8 112.131 32.7547 110.007 30.8107 108.391C29.4947 107.296 28.1213 106.267 26.7467 105.244C25.02 103.96 23.408 102.558 22.052 100.879C20.5733 99.0484 19.272 97.0977 18.1213 95.0457C17.2227 93.4457 16.4227 91.8084 15.9227 90.0271C15.5507 88.7004 14.9373 87.4724 14.0187 86.4191C13.6 85.9404 13.1147 85.5778 12.492 85.4311C12.076 85.3324 11.656 85.2284 11.232 85.1844C8.81332 84.9324 6.39065 84.7004 3.97065 84.4564C3.13865 84.3724 2.35865 84.1377 1.69465 83.6017C1.12932 83.1444 0.81466 82.5618 0.83066 81.8218C0.839993 81.4098 0.845325 80.9978 0.870658 80.5884C0.990658 78.7231 1.11599 76.8604 1.23999 74.9964C1.31999 73.8164 1.39866 72.6364 1.48266 71.4564C1.60666 69.7311 1.73599 68.0044 1.85865 66.2777C1.93999 65.1497 2.01332 64.0217 2.09466 62.8937C2.21732 61.2177 2.35066 59.5444 2.46532 57.8684C2.58666 56.1244 2.67599 54.3791 2.81199 52.6364C2.84933 52.1644 2.96265 51.6857 3.11999 51.2377C3.37599 50.5057 3.92533 50.0631 4.68399 49.8937C4.89999 49.8457 5.12132 49.8177 5.34132 49.7817C6.37065 49.6164 7.39599 49.7658 8.41732 49.8471C10.1787 49.9884 11.932 50.1684 13.7027 50.0138C14.2533 49.9658 14.6867 49.7591 15.0493 49.3631C15.452 48.9218 15.6867 48.3938 15.8453 47.8258C16.0533 47.0844 16.244 46.3378 16.4693 45.6018C17.2773 42.9498 18.7253 40.7444 21.0013 39.1097C21.892 38.4697 22.74 37.7724 23.6067 37.1004C24.6453 36.2964 25.1093 35.2204 25.0987 33.9231C25.0827 31.7804 25.0733 29.6378 25.0507 27.4951C25.0187 24.6484 24.9773 21.8031 24.94 18.9577C24.9027 16.0777 24.864 13.1977 24.832 10.3177C24.828 10.0444 24.8453 9.76841 24.8893 9.49908C25.0053 8.77908 25.396 8.40708 26.124 8.35508C26.5493 8.32308 26.9907 8.29375 27.4053 8.36975C28.9707 8.65641 30.5347 8.95375 32.0853 9.31108C33.6493 9.67242 35.0573 10.4324 36.4667 11.1778C38.4573 12.2324 40.3507 13.4204 42.0147 14.9591C42.4773 15.3857 43.0093 15.7458 43.532 16.1018C44.236 16.5804 45.0307 16.7937 45.876 16.6671C46.3453 16.5964 46.8133 16.4631 47.256 16.2911C54.588 13.4244 62.1786 11.7337 70.044 11.3404C74.0226 11.1417 77.9906 11.3191 81.94 11.9044C85.5413 12.4391 89.0666 13.2671 92.5053 14.4577C100.484 17.2204 107.473 21.5897 113.547 27.4417C114.028 27.9057 114.485 28.3964 114.973 28.8524C115.805 29.6271 116.657 29.7671 117.667 29.2831C118.672 28.8017 119.636 28.2458 120.513 27.5498C121.623 26.6698 122.457 25.5764 123.043 24.2911C123.168 24.0151 123.12 23.9551 122.824 23.9684C122.739 23.9724 122.653 23.9937 122.568 23.9964C121.748 24.0124 120.92 24.0964 120.107 24.0257C117.861 23.8271 115.685 23.2898 113.571 22.5124C111.139 21.6178 108.987 20.2884 107.219 18.3684C105.951 16.9924 105.007 15.4644 104.773 13.5524C104.6 12.1391 104.616 10.7297 105 9.37108C105.485 7.65908 106.337 6.10842 107.527 4.76842C109.512 2.53242 112.064 1.34975 114.957 0.81508C115.357 0.741746 115.76 0.67908 116.161 0.61108Z" fill="#DB4C97"/>
</svg>
