<svg width="111" height="146" viewBox="0 0 111 146" fill="none" xmlns="http://www.w3.org/2000/svg">
<path d="M47.2411 61.0158C46.9758 59.6491 46.2198 58.6878 45.4624 57.7278C44.2784 56.2291 43.0931 54.7318 41.9051 53.2384C40.1851 51.0744 38.4518 48.9211 36.7411 46.7504C34.9371 44.4624 33.1678 42.1478 31.3558 39.8678C29.7251 37.8171 28.0451 35.8064 26.4104 33.7584C25.5251 32.6504 24.6971 31.4944 23.8224 30.3744C22.1358 28.2144 20.4304 26.0691 18.7424 23.9104C16.9624 21.6344 15.2171 19.3318 13.4158 17.0731C11.6758 14.8931 9.85577 12.7758 8.12644 10.5878C6.97577 9.1331 5.80644 7.66909 4.85977 6.08109C4.13044 4.85576 4.15711 3.4131 4.93977 2.15176C5.43844 1.35043 6.31044 0.977101 7.22111 0.809101C9.87844 0.321101 12.5584 0.131759 15.2584 0.306425C18.1278 0.491759 20.9118 1.12643 23.6904 1.8331C26.3904 2.51843 28.9624 3.5571 31.4424 4.75577C34.5878 6.2771 37.5678 8.12109 40.5331 9.98909C43.3544 11.7664 45.8198 13.9518 48.2158 16.2171C49.4144 17.3504 50.3851 18.7384 51.3651 20.0811C52.4464 21.5638 53.4304 23.1184 54.4358 24.6558C55.0078 25.5291 55.3998 26.4771 55.3798 27.5464C55.3771 27.7251 55.2718 27.9011 55.2144 28.0784C55.0251 28.0038 54.7771 27.9811 54.6544 27.8451C53.8171 26.9198 53.0451 25.9358 52.1798 25.0398C50.4664 23.2624 48.7944 21.4331 46.9424 19.8104C45.3864 18.4464 43.6518 17.2651 41.9024 16.1491C39.4131 14.5611 36.7038 13.4131 33.8171 12.7664C31.8891 12.3344 29.9304 12.0371 27.9811 11.7038C27.5758 11.6344 27.1504 11.6704 26.7344 11.6611C24.4598 11.6091 22.1851 11.5438 19.9104 11.5238C19.5251 11.5211 19.1371 11.7184 18.7504 11.8238C18.9558 12.1878 19.1104 12.5944 19.3744 12.9104C20.2344 13.9451 21.1198 14.9611 22.0238 15.9584C24.2104 18.3718 26.4158 20.7664 28.6091 23.1744C30.7504 25.5264 32.8878 27.8811 35.0198 30.2411C37.2344 32.6918 39.4291 35.1624 41.6544 37.6024C43.2691 39.3731 44.9318 41.0984 46.5504 42.8651C48.2704 44.7424 49.9678 46.6398 51.6678 48.5358C52.7944 49.7931 53.9064 51.0638 55.0318 52.3224C57.2824 54.8384 59.5224 57.3638 61.7944 59.8584C64.2184 62.5198 66.6931 65.1331 69.1091 67.7984C70.6051 69.4491 72.0038 71.1878 73.5011 72.8358C75.6584 75.2104 77.8664 77.5384 80.0544 79.8864C82.8758 82.9131 85.7091 85.9304 88.5144 88.9731C89.2118 89.7278 89.8011 90.5784 90.4811 91.3504C91.8571 92.9104 93.2371 94.4691 94.6611 95.9864C96.5624 98.0131 98.1971 100.221 99.6131 102.617C100.469 104.065 101.564 105.37 102.525 106.758C103.109 107.6 103.704 108.444 104.185 109.345C105.581 111.956 106.953 114.58 108.269 117.232C108.678 118.057 108.842 118.998 109.177 119.865C109.932 121.817 109.892 123.897 110.201 125.921C110.392 127.177 110.497 128.446 110.686 129.702C111.017 131.886 110.656 133.949 109.625 135.885C108.718 137.59 107.693 139.228 106.337 140.621C105.296 141.69 103.998 142.392 102.657 143.006C101.678 143.456 100.704 143.93 99.6851 144.266C98.8864 144.529 98.0238 144.597 97.1878 144.746C96.4184 144.884 95.6451 144.996 94.8798 145.148C92.5944 145.598 90.3038 145.446 88.0091 145.254C87.1824 145.185 86.3504 145.145 85.5198 145.138C82.9624 145.116 80.5758 144.222 78.1118 143.724C74.8771 143.069 71.8504 141.8 68.7984 140.616C65.9718 139.518 63.1291 138.43 60.3971 137.124C56.9544 135.477 53.5624 133.709 50.2491 131.818C46.2931 129.562 42.5451 126.973 38.9478 124.172C35.9544 121.841 32.8931 119.592 29.9878 117.156C27.8918 115.4 25.9904 113.408 24.0238 111.498C22.6184 110.134 21.2358 108.745 19.8704 107.342C18.8971 106.342 17.9304 105.333 17.0278 104.272C15.5704 102.56 14.1358 100.825 12.7544 99.0518C11.8531 97.8931 11.0451 96.6611 10.2278 95.4398C9.28911 94.0398 8.32377 92.6531 7.48511 91.1958C6.32777 89.1851 5.27844 87.1118 4.18111 85.0678C2.87578 82.6358 2.13711 79.9731 1.44511 77.3491C0.793107 74.8704 0.375775 72.2584 0.626442 69.6531C0.847775 67.3611 1.28644 65.0878 2.47577 63.0638C3.34644 61.5824 4.41844 60.2478 5.77044 59.1651C8.86377 56.6878 12.4398 55.3864 16.3411 55.0438C18.5531 54.8491 20.7918 54.8251 23.0118 54.9051C25.7464 55.0038 28.4664 55.3451 31.1238 56.0504C34.2678 56.8838 37.4358 57.6224 40.4878 58.7864C42.5411 59.5704 44.6504 60.2104 46.7371 60.9118C46.8678 60.9544 47.0078 60.9691 47.2411 61.0158Z" fill="#F26C6D"/>
</svg>
