<svg width="133" height="134" viewBox="0 0 133 134" fill="none" xmlns="http://www.w3.org/2000/svg">
<path d="M55.1778 0.591459C55.3191 0.616792 55.4591 0.655459 55.6005 0.666125C56.6738 0.742125 57.7511 0.774124 58.8191 0.891457C61.0058 1.13279 63.1111 1.68613 65.0738 2.70213C65.5631 2.95679 66.0405 3.25013 66.4765 3.58746C68.0871 4.83546 68.6405 6.50879 68.3405 8.48612C68.2805 8.88479 68.1471 9.27546 68.0151 9.65813C67.7271 10.4968 67.5911 11.3635 67.5111 12.2421C67.3805 13.6541 67.2458 15.0648 66.8338 16.4315C66.4591 17.6768 65.9085 18.8301 65.0818 19.8435C64.5858 20.4515 63.9671 20.8795 63.2298 21.1541C62.5138 21.4221 61.8085 21.7221 61.1031 22.0168C60.1271 22.4261 59.5951 23.1715 59.4765 24.2168C59.3911 24.9781 59.3151 25.7408 59.2258 26.5008C59.1911 26.7941 59.2898 27.0475 59.4231 27.2928C59.8658 28.1155 60.5005 28.7581 61.2698 29.2795C62.2365 29.9341 63.3005 30.3875 64.4045 30.7395C66.1885 31.3088 67.9858 31.8355 69.7671 32.4101C70.6645 32.7008 71.5538 33.0261 72.4231 33.3941C73.6378 33.9088 74.7045 34.6475 75.5551 35.6755C76.1778 36.4275 76.5978 37.2808 76.9111 38.2008C77.7951 40.7981 78.3818 43.4688 78.9605 46.1435C79.8031 50.0435 80.6445 53.9435 81.4738 57.8461C82.0885 60.7315 82.7658 63.5981 83.6565 66.4115C83.8845 67.1288 84.1458 67.8275 84.5351 68.4741C84.5765 68.5448 84.6125 68.6181 84.6578 68.6861C84.9538 69.1195 85.3138 69.1861 85.6698 68.7981C86.0991 68.3328 86.5165 67.8448 86.8578 67.3128C88.4378 64.8568 89.8058 62.2795 91.1071 59.6688C93.5258 54.8128 95.9231 49.9475 98.3498 45.0955C98.8951 44.0035 99.5071 42.9435 100.114 41.8835C100.626 40.9861 101.339 40.2888 102.262 39.8008C102.591 39.6275 102.894 39.3968 103.186 39.1621C104.47 38.1341 105.952 37.6741 107.575 37.5955C108.704 37.5395 109.822 37.6675 110.936 37.8248C112.023 37.9795 113.108 38.0421 114.203 37.9088C114.978 37.8155 115.44 37.2675 115.311 36.4981C115.266 36.2195 115.134 35.9381 114.976 35.7021C114.623 35.1728 114.222 34.6781 113.855 34.1581C112.852 32.7341 112.199 31.1661 111.987 29.4341C111.854 28.3448 111.895 27.2515 112.088 26.1688C112.372 24.5821 112.346 22.9875 112.196 21.3915C112.054 19.8675 111.795 18.3515 111.868 16.8101C112.022 13.5301 113.17 10.6848 115.564 8.39146C116.156 7.82479 116.804 7.32746 117.55 6.97813C119.408 6.11013 121.134 6.34613 122.699 7.66079C123.664 8.47279 124.34 9.51012 124.887 10.6341C125.518 11.9355 125.879 13.3208 126.131 14.7355C126.515 16.8835 126.574 19.0515 126.418 21.2208C126.207 24.1381 125.654 26.9995 124.847 29.8101C124.271 31.8155 123.572 33.7781 122.767 35.7035C122.38 36.6288 122.142 37.5848 122.123 38.5955C122.099 39.8781 122.363 41.1048 122.944 42.2315C124.502 45.2541 125.524 48.4621 126.224 51.7688C127.038 55.6075 127.762 59.4661 128.507 63.3195C129.127 66.5181 129.723 69.7208 130.326 72.9221C130.963 76.3155 131.576 79.7141 132.239 83.1035C132.622 85.0595 132.823 87.0341 132.984 89.0168C133.046 89.7621 132.94 90.4808 132.706 91.1821C132.495 91.8088 132.072 92.0261 131.447 91.8221C130.66 91.5648 130.086 91.0621 129.786 90.2795C129.402 89.2835 129.136 88.2541 129.16 87.1835C129.208 85.0195 128.747 82.9501 128.13 80.8941C127.023 77.2141 125.964 73.5195 124.882 69.8328C124.69 69.1768 124.504 68.5168 124.275 67.8728C124.174 67.5901 123.975 67.3408 123.811 67.0821C123.739 66.9675 123.666 66.9901 123.592 67.0995C123.416 67.3581 123.268 67.6301 123.238 67.9475C123.094 69.4555 122.916 70.9621 122.818 72.4741C122.668 74.7195 122.567 76.9688 122.462 79.2168C122.331 81.9875 122.252 84.7608 122.362 87.5341C122.462 90.0755 122.604 92.6168 122.748 95.1568C122.859 97.1261 122.992 99.0954 123.131 101.063C123.272 103.047 123.442 105.03 123.579 107.014C123.672 108.365 123.736 109.717 123.802 111.069C123.878 112.633 123.94 114.197 124.011 115.761C124.04 116.41 124.308 116.898 124.898 117.231C126.114 117.922 126.403 118.595 126.079 119.955C125.543 122.206 124.662 124.321 123.472 126.303C123.3 126.591 123.055 126.851 122.796 127.065C122.394 127.397 122.014 127.337 121.696 126.921C121.348 126.462 121.103 125.943 120.96 125.387C120.478 123.493 120.062 121.583 119.784 119.646C119.518 117.791 119.228 115.941 118.94 114.089C118.642 112.173 118.359 110.255 118.024 108.346C117.538 105.57 117.012 102.802 116.502 100.031C116.262 98.7315 115.882 97.4675 115.496 96.2061C115.407 95.9128 115.252 95.6795 115.047 95.4635C114.948 95.3595 114.89 95.3901 114.823 95.4874C114.655 95.7301 114.527 95.9795 114.491 96.2875C114.363 97.4208 114.199 98.5501 114.072 99.6835C114.003 100.299 113.967 100.918 113.939 101.538C113.856 103.411 113.784 105.286 113.71 107.159C113.59 110.191 113.471 113.223 113.354 116.254C113.315 117.249 113.282 118.243 113.246 119.237C113.167 121.422 113.09 123.606 113.011 125.79C112.951 127.405 112.82 129.011 112.467 130.593C112.33 131.207 112.071 131.767 111.724 132.283C111.19 133.075 110.388 133.341 109.503 132.99C109.115 132.835 108.724 132.631 108.404 132.365C106.618 130.879 105.504 128.99 105.167 126.681C105.108 126.273 105.155 125.829 105.248 125.423C105.434 124.634 105.97 124.167 106.772 124.03C107.028 123.986 107.291 123.974 107.55 123.955C107.972 123.923 108.07 123.841 108.052 123.411C108.014 122.401 107.972 121.39 107.899 120.382C107.798 118.967 107.667 117.554 107.546 116.141C107.431 114.793 107.303 113.446 107.195 112.097C107.108 111.009 107.038 109.918 106.967 108.827C106.843 106.923 106.719 105.019 106.603 103.115C106.522 101.781 106.455 100.445 106.379 99.1101C106.014 92.7368 106.09 86.3581 106.066 79.9795C106.055 77.2715 106.079 74.5635 106.095 71.8555C106.104 70.1741 106.251 68.5021 106.447 66.8328C106.696 64.7115 106.939 62.5915 107.171 60.4688C107.355 58.7835 107.515 57.0955 107.955 55.4515C108.15 54.7275 108 54.0621 107.611 53.4408C107.143 52.6955 106.516 52.4288 105.65 52.6008C105.139 52.7021 104.71 52.9368 104.351 53.3261C103.326 54.4395 102.488 55.6768 101.858 57.0501C101.327 58.2035 100.775 59.3528 100.332 60.5408C99.6818 62.2901 98.6258 63.7288 97.2071 64.9008C95.6058 66.2235 94.1218 67.6648 92.6591 69.1341C92.2005 69.5955 91.7071 70.0261 91.2031 70.4395C89.9725 71.4461 88.9778 72.6528 88.2791 74.0715C87.7058 75.2368 86.7885 76.0301 85.7525 76.7288C85.4685 76.9195 85.1631 77.0781 84.8685 77.2515C84.1711 77.6635 83.4418 77.6781 82.7058 77.3861C81.8965 77.0661 81.3005 76.4941 80.9431 75.7075C80.7285 75.2368 80.5618 74.7368 80.4378 74.2328C80.1711 73.1568 79.6685 72.2328 78.8365 71.4915C78.0325 70.7755 77.2378 70.0488 76.4378 69.3275C75.0151 68.0475 73.7045 66.6661 72.5565 65.1315C71.3218 63.4821 70.4098 61.6821 69.8565 59.6928C69.5458 58.5795 69.1645 57.4861 68.7951 56.3915C68.7031 56.1181 68.5618 55.8528 68.3978 55.6141C68.1751 55.2875 67.9231 55.3048 67.7978 55.6688C67.6605 56.0648 67.5871 56.4861 67.5165 56.9008C67.2911 58.2421 67.3058 59.5968 67.2951 60.9501C67.2805 62.9568 67.2471 64.9635 67.2565 66.9701C67.2671 69.5635 67.3258 72.1568 67.3351 74.7501C67.3405 75.8421 67.2805 76.9341 67.2365 78.0248C67.2111 78.6581 66.8645 79.0595 66.2591 79.2128C65.5805 79.3848 64.8938 79.5208 64.2138 79.6875C63.9471 79.7528 63.6818 79.8421 63.4311 79.9528C63.0711 80.1141 62.8738 80.4048 62.8991 80.8075C62.9351 81.3768 62.9791 81.9461 63.0365 82.5141C63.1885 84.0381 63.3538 85.5608 63.5071 87.0861C63.6618 88.6101 63.8218 90.1341 63.9525 91.6608C64.0245 92.4888 64.0431 93.3221 64.0778 94.1528C64.1058 94.7888 64.1365 95.4248 64.1378 96.0608C64.1378 96.3501 64.1005 96.6475 64.0298 96.9288C62.6631 102.378 61.2885 107.825 59.9151 113.273C59.9031 113.319 59.8925 113.367 59.8805 113.414C59.7538 113.906 59.6938 114.129 60.4711 114.238C61.2298 114.346 61.9925 114.422 62.7485 114.542C63.0658 114.593 63.3818 114.697 63.6791 114.823C64.2058 115.051 64.4765 115.475 64.4951 116.051C64.5191 116.822 64.3111 117.533 63.7391 118.05C60.8605 120.651 57.8125 123.015 54.2338 124.597C53.2031 125.053 52.1231 125.363 50.9818 125.418C49.1178 125.507 48.0031 124.541 47.3951 123.158C47.1098 122.51 46.9151 121.833 46.9525 121.121C47.0111 120.015 47.0938 118.91 47.1938 117.807C47.2938 116.703 47.4271 115.602 47.5431 114.501C47.6605 113.398 47.7938 112.297 47.8831 111.193C48.0098 109.617 48.1538 108.039 48.1938 106.461C48.2191 105.487 48.0858 104.509 47.9871 103.537C47.8578 102.255 47.6951 100.978 47.5418 99.7008C47.3631 98.2115 47.2005 96.7208 46.9938 95.2355C46.7751 93.6715 46.5405 92.1075 46.2645 90.5528C45.9511 88.7888 45.5991 87.0301 44.9898 85.3381C44.7298 84.6168 44.4271 83.9128 43.9778 83.2835C43.7551 82.9715 43.4818 82.7208 43.1431 82.5461C42.7325 82.3328 42.5325 82.4288 42.4645 82.8875C42.3858 83.4181 42.3298 83.9541 42.2645 84.4875C42.0738 86.0408 41.8831 87.5928 41.6951 89.1461C41.4858 90.8781 41.2831 92.6101 41.0711 94.3408C40.8618 96.0381 40.6418 97.7355 40.4285 99.4341C40.2511 100.841 40.0791 102.247 39.9018 103.654C39.7218 105.077 39.5351 106.498 39.3565 107.922C39.1751 109.377 39.0018 110.834 38.8258 112.29C38.6751 113.535 38.5271 114.782 38.3791 116.027C38.2431 117.177 38.1098 118.326 37.9751 119.475C37.8071 120.899 37.6311 122.323 37.4711 123.749C37.3351 124.966 37.1231 126.167 36.7725 127.341C36.4458 128.437 36.0258 129.494 35.4125 130.467C34.3925 132.083 32.9178 133.014 31.0525 133.313C30.5271 133.397 29.9751 133.303 29.4391 133.339C28.4111 133.409 27.5058 133.079 26.6845 132.511C24.1431 130.751 21.9098 128.669 20.1165 126.138C19.6431 125.469 19.2418 124.757 19.0191 123.966C18.9138 123.594 18.8538 123.199 18.8445 122.814C18.8258 122.038 19.2151 121.483 19.8871 121.121C20.3405 120.877 20.8365 120.774 21.3391 120.714C21.8405 120.654 22.3458 120.631 22.8498 120.594C22.9791 120.585 23.1098 120.587 23.2405 120.578C24.0378 120.523 24.0551 120.441 24.2151 119.695C24.2458 119.554 24.2338 119.403 24.2365 119.257C24.2658 117.477 24.1458 115.705 23.9791 113.933C23.8005 112.018 23.5831 110.106 23.5751 108.177C23.5711 107.481 23.4205 106.786 23.3498 106.09C23.2565 105.182 23.1565 104.274 23.0965 103.365C23.0325 102.405 23.0045 101.442 22.9751 100.479C22.8978 97.9195 22.8445 95.3595 22.7498 92.8008C22.6578 90.3075 22.4885 87.8181 22.2111 85.3368C22.0991 84.3328 22.0165 83.3248 21.8925 82.3221C21.7618 81.2635 21.4565 80.2528 20.9698 79.2995C20.9098 79.1835 20.8458 79.0701 20.7725 78.9621C20.5351 78.6141 20.2418 78.3595 19.7978 78.2928C19.4365 78.2381 19.3818 78.1568 19.3405 77.8275C19.1271 76.1701 19.1271 74.5141 19.3058 72.8515C19.5458 70.6101 20.0538 68.4181 20.4805 66.2128C21.0711 63.1581 21.6858 60.1088 22.2858 57.0555C22.4711 56.1128 22.6551 55.1701 22.8191 54.2235C22.8978 53.7741 22.9431 53.3181 22.9725 52.8635C22.9818 52.7181 22.8898 52.5661 22.8431 52.4168C22.7098 52.4968 22.5711 52.5701 22.4471 52.6621C22.3831 52.7088 22.3445 52.7875 22.2978 52.8541C20.8938 54.8768 19.4885 56.8995 18.0885 58.9235C15.6445 62.4568 13.5031 66.1621 11.7045 70.0661C10.9471 71.7075 10.1218 73.3168 9.52845 75.0301C9.34445 75.5635 9.28045 76.0941 9.32845 76.6608C9.46045 78.1781 9.27512 79.6555 8.63779 81.0555C7.80312 82.8861 6.41112 83.9328 4.38445 84.1235C3.84178 84.1741 3.30712 84.1701 2.78045 84.0568C1.78045 83.8435 1.05245 83.2515 0.540451 82.3781C0.379118 82.1035 0.22312 81.8248 0.0644531 81.5488V79.3955C0.0977865 79.3248 0.145783 79.2595 0.163116 79.1861C0.403116 78.1541 0.673784 77.1341 1.03112 76.1341C1.21645 75.6168 1.32979 75.0688 1.43512 74.5261C1.73912 72.9768 1.99112 71.4155 2.32179 69.8715C3.06845 66.3755 4.12979 62.9768 5.60979 59.7155C6.30979 58.1741 7.04712 56.6488 7.71645 55.0941C9.19112 51.6688 10.6205 48.2248 12.0951 44.8008C12.9911 42.7181 14.0245 40.7048 15.3005 38.8221C16.6658 36.8061 18.2698 35.0235 20.3045 33.6528C22.0685 32.4648 24.0125 31.6955 26.0498 31.1355C28.4418 30.4781 30.8898 30.1061 33.3258 29.6688C34.8978 29.3861 36.4591 29.0608 37.9578 28.4928C38.9378 28.1208 39.8751 27.6715 40.6898 26.9981C41.8271 26.0595 42.3965 24.8355 42.4405 23.3741C42.4871 21.8581 42.0605 20.4981 41.1151 19.2808C39.5805 17.3035 38.6751 15.0688 38.5058 12.5488C38.3445 10.1341 38.9565 7.94745 40.4645 6.06079C42.8898 3.02479 46.1111 1.36746 49.9205 0.788796C50.3991 0.715462 50.8805 0.656792 51.3605 0.591459H55.1778Z" fill="#F17171"/>
</svg>
