<svg width="134" height="138" viewBox="0 0 134 138" fill="none" xmlns="http://www.w3.org/2000/svg">
<path d="M133.788 130.6V133.817C133.718 134.002 133.642 134.185 133.578 134.373C133.275 135.249 132.796 135.997 132.035 136.55C131.698 136.797 131.335 136.922 130.915 136.926C129.24 136.942 127.564 136.981 125.888 136.988C122.135 137.001 118.382 137.004 114.627 137.006C106.583 137.01 98.5392 137.012 90.4952 137.013C82.5352 137.016 74.5752 137.017 66.6152 137.02C58.0512 137.022 49.4872 137.026 40.9232 137.028C28.9245 137.032 16.9258 137.033 4.92716 137.036C4.74183 137.036 4.55784 137.038 4.37384 137.032C3.7525 137.006 3.19117 136.809 2.70717 136.416C2.26184 136.053 1.87383 135.632 1.6085 135.121C1.4565 134.828 1.3125 134.508 1.26583 134.186C1.10183 133.056 1.0565 131.916 1.1605 130.777C1.26183 129.666 1.7685 128.773 2.67117 128.109C3.42717 127.553 4.28583 127.321 5.21117 127.294C6.7365 127.253 8.2605 127.21 9.7845 127.161C10.0512 127.153 10.3218 127.136 10.5832 127.084C11.0432 126.993 11.2098 126.706 11.0418 126.274C10.9405 126.012 10.7925 125.765 10.6432 125.524C10.1525 124.725 9.63783 123.94 9.1565 123.136C8.24183 121.612 7.42983 120.036 6.88849 118.334C6.08049 115.796 5.88184 113.196 6.03917 110.542C6.2285 107.325 7.04983 104.276 8.31516 101.332C9.41249 98.7783 10.5792 96.2583 11.9032 93.8143C13.3272 91.1863 14.9312 88.6769 16.8685 86.3943C18.6378 84.3089 20.5365 82.3476 22.5632 80.5089C25.2778 78.0476 28.2112 75.8863 31.3978 74.0716C35.0352 71.9996 38.6578 69.9063 42.2978 67.8409C44.8832 66.3729 47.2352 64.6263 49.1578 62.3343C50.2738 61.0049 51.2525 59.5956 51.8832 57.9663C52.3298 56.8129 52.4725 55.6316 52.1925 54.4183C51.8952 53.1316 51.2085 52.0876 50.1978 51.2449C48.4365 49.7769 46.4938 48.6089 44.4232 47.6329C41.9138 46.4503 39.2872 45.6236 36.6152 44.9143C32.4605 43.8103 28.3178 42.6756 24.3018 41.1076C21.4445 39.9903 18.6138 38.8396 15.9725 37.2649C14.5912 36.4423 13.1872 35.6516 11.9698 34.5863C8.47383 31.5303 5.95117 27.7783 4.13917 23.5316C3.4005 21.7996 3.21916 19.9743 3.40583 18.1116C3.5765 16.4129 4.08183 14.8009 4.79516 13.2583C5.36183 12.0303 5.90183 10.7783 6.83383 9.75828C6.91116 9.67294 6.97516 9.57161 7.03116 9.46894C7.2725 9.02227 7.14316 8.75961 6.64583 8.70494C6.3965 8.67828 6.14317 8.67694 5.8925 8.6796C5.4405 8.68494 4.9885 8.70494 4.53516 8.7156C3.92716 8.72894 3.37383 8.55027 2.89517 8.18093C0.857835 6.61027 0.523161 4.13294 1.07516 2.31561C1.27383 1.66494 1.72449 1.2356 2.38983 1.04627C2.58049 0.992937 2.76983 0.93294 2.9605 0.875606H16.3352C16.4805 0.89694 16.6258 0.936936 16.7712 0.938269C25.3338 0.978269 33.8965 1.01694 42.4605 1.05561C48.8445 1.08361 55.2285 1.1116 61.6125 1.14094C69.8738 1.1796 78.1352 1.21294 86.3965 1.25828C91.5232 1.28628 96.6512 1.33427 101.778 1.36227C102.514 1.36627 103.158 1.58894 103.744 2.01294C104.763 2.7516 105.406 3.7436 105.706 4.9596C105.89 5.71027 105.854 6.45694 105.604 7.18894C105.1 8.67561 103.791 9.58627 102.138 9.60094C101.384 9.60627 100.63 9.59027 99.8765 9.6076C99.5778 9.6156 99.2805 9.68761 98.9832 9.72894C98.8312 9.75027 98.8258 9.84094 98.9018 9.93427C99.0912 10.1663 99.2618 10.4289 99.4938 10.6089C101.171 11.9049 102.414 13.5423 103.37 15.4209C104.31 17.2703 104.892 19.2036 104.856 21.2983C104.84 22.2863 104.854 23.2756 104.823 24.2623C104.768 26.0049 104.392 27.6783 103.688 29.2756C102.884 31.0969 101.683 32.6369 100.276 34.0209C96.3405 37.8956 91.8898 40.9836 86.6725 42.9089C82.3872 44.4903 78.1552 46.2063 73.9752 48.0476C71.9872 48.9223 70.2512 50.1649 68.6992 51.6663C67.5485 52.7796 67.0325 54.1529 67.2165 55.7623C67.2978 56.4703 67.5472 57.1236 67.8952 57.7423C69.1525 59.9716 70.7845 61.8876 72.7445 63.5249C74.4632 64.9596 76.3818 66.0876 78.3352 67.1623C81.0778 68.6729 83.8778 70.0876 86.5378 71.7303C95.1418 77.0449 103.695 82.4409 112.262 87.8169C112.827 88.1716 113.371 88.5756 113.866 89.0236C115.591 90.5863 117.308 92.1609 118.995 93.7663C120.323 95.0316 121.474 96.4556 122.34 98.0783C123.642 100.516 124.823 103.01 125.698 105.638C126.592 108.33 127.066 111.092 126.943 113.936C126.911 114.688 126.835 115.44 126.74 116.186C126.566 117.57 126.234 118.916 125.626 120.181C124.732 122.04 123.759 123.852 122.55 125.529C122.366 125.785 122.208 126.068 122.088 126.36C121.923 126.758 122.074 127.018 122.496 127.086C122.81 127.136 123.13 127.149 123.448 127.156C125.559 127.206 127.67 127.253 129.78 127.296C130.718 127.313 131.56 127.578 132.264 128.217C132.858 128.754 133.304 129.394 133.594 130.142C133.654 130.297 133.723 130.448 133.788 130.6Z" fill="#EAEB81"/>
</svg>
