<svg width="139" height="141" viewBox="0 0 139 141" fill="none" xmlns="http://www.w3.org/2000/svg">
<path d="M138.502 128.643C138.502 129.037 138.505 129.43 138.501 129.822C138.499 130.134 138.519 130.435 138.637 130.737C138.711 130.926 138.703 135.426 138.702 137.458C138.702 137.965 138.705 138.473 138.706 138.981C138.707 139.095 138.71 139.21 138.703 139.325C138.685 139.607 138.595 139.701 138.338 139.639C137.909 139.538 137.475 139.435 137.065 139.281C135.809 138.807 134.563 138.305 133.313 137.821C131.938 137.289 130.563 136.761 129.186 136.238C128.191 135.861 127.19 135.499 126.195 135.121C125.415 134.823 124.641 134.514 123.865 134.206C122.917 133.831 121.945 133.577 120.927 133.451C120.141 133.355 119.357 133.359 118.575 133.397C117.991 133.425 117.411 133.565 116.834 133.674C114.761 134.069 112.687 134.465 110.617 134.873C108.29 135.331 105.967 135.813 103.638 136.265C101.759 136.631 99.8739 136.959 97.9952 137.321C95.6179 137.779 93.2459 138.262 90.8685 138.722C88.8445 139.113 86.8165 139.479 84.7925 139.866C83.9565 140.025 83.1285 140.223 82.2912 140.374C81.3419 140.545 80.3872 140.683 79.4352 140.83C79.2899 140.853 79.1405 140.846 78.9925 140.846C77.5352 140.847 76.0779 140.854 74.6205 140.841C74.2459 140.838 73.8699 140.789 73.4992 140.727C71.6445 140.421 69.7925 140.099 67.9379 139.791C66.8579 139.613 65.7725 139.459 64.6925 139.281C63.6592 139.11 62.6299 138.919 61.5979 138.745C60.6472 138.586 59.6939 138.438 58.7419 138.283C57.6605 138.109 56.5779 137.943 55.4979 137.755C54.4512 137.573 53.4099 137.359 52.3632 137.174C51.6392 137.046 50.9099 136.95 50.1845 136.829C49.3299 136.686 48.4779 136.526 47.6232 136.379C46.1565 136.129 44.6885 135.883 43.2219 135.633C41.9965 135.423 40.7725 135.209 39.5472 135.001C38.2738 134.785 37.0005 134.571 35.7259 134.362C34.7419 134.202 33.7552 134.057 32.7712 133.894C31.8352 133.741 30.9032 133.567 29.9672 133.421C29.5325 133.351 29.0912 133.318 28.6525 133.278C27.9685 133.215 27.2858 133.153 26.6018 133.105C26.3098 133.085 26.0139 133.095 25.7192 133.109C25.3939 133.123 25.0672 133.153 24.7419 133.179C24.2219 133.223 23.7005 133.259 23.1805 133.318C22.4992 133.395 21.8192 133.49 21.1392 133.581C20.5405 133.661 19.9418 133.75 19.3432 133.83C18.7272 133.911 18.1112 133.986 17.4952 134.065C16.5552 134.186 15.6165 134.314 14.6765 134.429C13.9792 134.513 13.2805 134.581 12.5818 134.658C12.2405 134.695 11.8992 134.733 11.5592 134.775C10.6192 134.895 9.68052 135.021 8.74052 135.137C7.57252 135.279 6.40319 135.411 5.23652 135.554C4.91119 135.594 4.59118 135.662 4.26718 135.703C4.07251 135.729 1.88985 135.726 1.65518 135.529C1.13918 135.094 0.845846 134.542 0.825846 133.867C0.812513 133.394 0.808519 132.921 0.888519 132.447C0.964519 131.998 0.963188 131.535 1.01385 131.082C1.08985 130.399 1.17385 129.718 1.26718 129.039C1.40985 127.986 1.56185 126.935 1.70985 125.883C1.73785 125.689 1.76452 125.494 1.80185 125.302C1.92718 124.67 1.90718 124.031 1.89918 123.393C1.88451 122.394 1.96985 121.402 2.08052 120.41C2.12585 120.005 2.14851 119.597 2.19251 119.19C2.26451 118.507 2.33652 117.826 2.42452 117.145C2.53919 116.254 2.67252 115.365 2.78986 114.474C2.88586 113.745 2.98052 113.015 3.05918 112.285C3.11385 111.782 3.13519 111.275 3.18185 110.771C3.22985 110.251 3.29252 109.731 3.34586 109.213C3.38319 108.838 3.41785 108.465 3.44985 108.09C3.49252 107.585 3.52719 107.079 3.57252 106.575C3.62185 106.022 3.67785 105.47 3.73118 104.918C3.77251 104.495 3.81918 104.073 3.85518 103.65C3.89652 103.161 3.92318 102.671 3.96985 102.183C4.01385 101.713 4.07652 101.243 4.12852 100.773C4.16852 100.415 4.20852 100.058 4.24185 99.7007C4.28452 99.2287 4.31518 98.7554 4.36185 98.2834C4.40718 97.8127 4.46585 97.342 4.51652 96.8714C4.56452 96.4167 4.60051 95.9607 4.65518 95.506C4.71918 94.9714 4.79519 94.4367 4.86985 93.9034C4.95785 93.2714 5.05785 92.642 5.13785 92.01C5.27651 90.9234 5.44452 89.8407 5.68585 88.77C6.16452 86.6474 6.63785 84.5234 7.13518 82.4034C7.30185 81.6874 7.51652 80.9807 7.73386 80.278C8.39252 78.1487 8.89118 75.978 9.44852 73.8234C9.82185 72.3807 10.2219 70.946 10.5939 69.5034C10.9779 68.014 11.3499 66.5207 11.7152 65.026C12.1979 63.0554 12.6739 61.082 13.1419 59.1074C13.6112 57.1327 14.0619 55.154 14.5312 53.1794C14.8792 51.714 15.2485 50.254 15.6018 48.79C15.7965 47.978 15.9659 47.1607 16.1672 46.35C16.4619 45.1594 16.7925 43.9754 17.0752 42.7807C17.5032 40.978 18.0472 39.2114 18.6632 37.466C18.9952 36.526 19.3819 35.6034 19.7605 34.6807C20.2205 33.558 20.7352 32.462 21.3018 31.39C21.9925 30.086 22.7699 28.8354 23.7192 27.7007C24.3699 26.9207 25.0779 26.1954 25.9045 25.5967C26.8899 24.8847 27.9699 24.4367 29.1885 24.2674C30.1365 24.1367 31.0432 24.2794 31.9632 24.4327C33.1539 24.6314 34.2112 25.13 35.1419 25.8847C35.7539 26.3794 36.3032 26.9434 36.7605 27.5887C37.2912 28.338 37.7712 29.1154 38.1205 29.97C38.3672 30.5767 38.6592 31.1634 38.9112 31.7674C39.1432 32.326 39.3618 32.8914 39.5645 33.462C40.2232 35.3127 40.9579 37.134 41.7259 38.9434C41.7445 38.9887 41.7659 39.0327 41.7912 39.074C41.8512 39.178 41.9592 39.1807 42.0192 39.0687C42.1059 38.9114 42.1939 38.7514 42.2552 38.5834C42.9099 36.7834 43.5685 34.9847 44.1112 33.146C44.2832 32.566 44.4685 31.9887 44.6539 31.4114C45.2699 29.494 45.8712 27.5727 46.5112 25.6634C47.0099 24.1727 47.5405 22.6927 48.0885 21.2207C48.3512 20.5167 48.6752 19.834 48.9912 19.1514C49.3832 18.3047 49.7872 17.4634 50.2045 16.6287C50.5659 15.906 51.0525 15.2674 51.6352 14.7087C52.1032 14.2594 52.6339 13.894 53.2925 13.8114C53.7112 13.7594 54.1512 13.7327 54.5645 13.798C55.6992 13.978 56.7205 14.4087 57.5725 15.2287C58.5899 16.2074 59.2619 17.3887 59.7352 18.694C60.4019 20.5314 60.8499 22.4234 61.1899 24.346C61.4512 25.8274 61.7672 27.3007 62.0872 28.7727C62.5632 30.962 63.0552 33.15 63.5592 35.334C63.9405 36.9927 64.3459 38.6474 64.7485 40.3007C65.0352 41.478 65.3219 42.654 65.6312 43.8247C65.9125 44.8847 66.2125 45.9394 66.5245 46.9914C66.8312 48.0274 67.1619 49.0567 67.4845 50.0874C67.5285 50.2274 67.5819 50.366 67.6419 50.4994C67.6899 50.6074 67.7699 50.718 67.8979 50.682C67.9752 50.6594 68.0312 50.5567 68.0925 50.486C68.1112 50.4634 68.1139 50.4247 68.1219 50.394C68.3979 49.4167 68.6765 48.4407 68.9499 47.4647C69.1445 46.77 69.3432 46.078 69.5192 45.3794C69.7805 44.3487 70.0419 43.318 70.2685 42.278C70.6005 40.7607 70.9139 39.2367 71.2139 37.7127C71.4125 36.702 71.5699 35.682 71.7552 34.6687C71.9939 33.366 72.2512 32.066 72.4872 30.762C72.7152 29.5074 72.9179 28.2474 73.1472 26.9927C73.3099 26.1087 73.4965 25.2274 73.6752 24.346C73.9872 22.8234 74.2992 21.3007 74.6152 19.778C74.8312 18.7367 75.0765 17.7007 75.2725 16.6567C75.6112 14.854 76.0205 13.0674 76.4752 11.2914C76.9272 9.53004 77.4712 7.79804 78.1432 6.10604C78.5805 5.0047 79.1312 3.96737 79.8125 2.99937C80.6245 1.8447 81.6752 0.983365 82.9925 0.467365C83.5565 0.246031 84.1499 0.111365 84.7645 0.115365C85.1232 0.118032 85.4899 0.0967067 85.8419 0.155373C86.6885 0.296707 87.4019 0.708705 88.0352 1.28737C88.9752 2.14604 89.5859 3.22337 90.1005 4.36337C90.3619 4.9447 90.6152 5.5327 90.8272 6.13403C91.0832 6.85803 91.3165 7.5927 91.5165 8.33403C91.8952 9.7407 92.2685 11.15 92.5965 12.5687C92.8952 13.8594 93.1299 15.1647 93.3952 16.462C93.5939 17.4407 93.8018 18.4167 93.9952 19.3967C94.2592 20.7447 94.5032 22.0967 94.7738 23.4434C94.9645 24.39 95.1779 25.3327 95.3925 26.274C95.6325 27.326 95.8712 28.3807 96.1365 29.4274C96.5725 31.158 97.0605 32.8754 97.6565 34.558C98.0005 35.53 98.3645 36.4954 98.7232 37.462C98.7739 37.598 98.8112 37.7767 98.9792 37.7914C99.1925 37.8114 99.2885 37.626 99.3618 37.4634C99.6058 36.9274 99.8379 36.386 100.075 35.846C100.397 35.1114 100.67 34.358 100.898 33.5874C101.046 33.086 101.261 32.6047 101.415 32.1047C101.765 30.9794 102.079 29.8434 102.438 28.7207C102.946 27.13 103.447 25.5354 104.015 23.9674C104.371 22.9847 104.779 22.0154 105.345 21.1247C105.75 20.4887 106.163 19.8514 106.693 19.318C107.843 18.1594 109.222 17.4314 110.859 17.1967C111.53 17.1007 112.198 17.1047 112.866 17.1287C113.221 17.1407 113.579 17.2327 113.923 17.3314C114.865 17.6034 115.683 18.1087 116.453 18.706C117.366 19.414 118.142 20.254 118.807 21.1927C119.537 22.2207 120.173 23.3074 120.789 24.41C121.742 26.118 122.442 27.9354 123.167 29.742C123.834 31.398 124.389 33.0954 124.891 34.8087C125.353 36.378 125.795 37.9554 126.219 39.5354C127.082 42.762 127.829 46.0154 128.498 49.2874C128.695 50.2487 128.958 51.1967 129.177 52.154C129.445 53.3354 129.701 54.518 129.957 55.702C130.329 57.43 130.705 59.1567 131.061 60.8874C131.259 61.8487 131.415 62.8167 131.597 63.782C131.777 64.746 131.969 65.7087 132.146 66.674C132.471 68.4434 132.801 70.2127 133.11 71.9847C133.405 73.6767 133.683 75.37 133.954 77.066C134.177 78.47 134.375 79.8794 134.585 81.2847C134.703 82.078 134.833 82.8674 134.938 83.662C135.059 84.5847 135.161 85.5114 135.267 86.4354C135.361 87.2314 135.453 88.026 135.537 88.8207C135.585 89.2594 135.613 89.7007 135.657 90.1394C135.707 90.626 135.767 91.1127 135.821 91.5994C135.865 92.006 135.905 92.4127 135.946 92.818C136.007 93.4194 136.075 94.0207 136.126 94.622C136.175 95.2087 136.203 95.7954 136.245 96.3834C136.301 97.1647 136.361 97.946 136.419 98.7274C136.421 98.7607 136.427 98.7927 136.43 98.8247C136.467 99.494 136.497 100.163 136.543 100.833C136.59 101.533 136.654 102.231 136.71 102.931C136.714 102.981 136.727 103.03 136.726 103.078C136.717 103.831 136.782 104.581 136.829 105.331C136.887 106.293 136.91 107.258 137.015 108.217C137.019 108.249 137.022 108.282 137.023 108.314C137.059 109.098 137.086 109.882 137.134 110.665C137.177 111.333 137.245 111.999 137.301 112.666C137.306 112.731 137.315 112.797 137.319 112.862C137.355 113.466 137.381 114.07 137.431 114.673C137.47 115.145 137.542 115.613 137.591 116.083C137.638 116.522 137.673 116.962 137.715 117.401C137.775 118.035 137.843 118.669 137.897 119.303C137.945 119.873 137.971 120.445 138.014 121.015C138.066 121.698 138.126 122.382 138.182 123.065C138.189 123.147 138.198 123.229 138.205 123.31C138.267 124.042 138.329 124.774 138.391 125.506C138.394 125.539 138.398 125.571 138.399 125.605C138.443 126.617 138.487 127.63 138.531 128.642C138.522 128.642 138.511 128.643 138.502 128.643Z" fill="#BC9AC8"/>
</svg>
