<svg width="136" height="141" viewBox="0 0 136 141" fill="none" xmlns="http://www.w3.org/2000/svg">
<path d="M37.68 31.5396C37.68 31.521 37.68 31.501 37.6813 31.4823C39.2507 31.5236 40.8213 31.5756 42.3907 31.6023C43.9613 31.6289 45.5307 31.6796 47.092 31.8489C48.0853 31.9556 49.0813 32.0583 50.0653 32.225C51.168 32.4116 52.2613 32.6543 53.3533 32.8983C54.5973 33.1769 55.8427 33.4503 57.0347 33.9143C58.0947 34.3276 59.152 34.7463 60.2133 35.1556C60.3547 35.2103 60.5147 35.277 60.6573 35.2623C61.0867 35.217 61.176 35.1609 60.9307 34.7729C60.8853 34.6996 60.8293 34.6343 60.78 34.5636C60.2307 33.7809 59.588 33.0943 58.844 32.4889C57.7467 31.5956 56.684 30.6543 55.4733 29.913C53.884 28.9383 52.2333 28.0783 50.5267 27.3236C48.2693 26.3263 45.9133 25.8156 43.4493 25.8236C42.3973 25.8276 41.344 25.849 40.2947 25.9276C39.3693 25.997 38.4413 26.1103 37.5293 26.2823C34.6387 26.829 31.9507 27.9303 29.3987 29.3689C27.9707 30.1743 26.564 31.0129 25.1533 31.8476C24.964 31.9583 24.804 32.1223 24.6427 32.2756C24.5773 32.3369 24.552 32.4423 24.6987 32.4409C25.0253 32.4396 25.3533 32.4476 25.676 32.4103C26.5827 32.3023 27.484 32.1609 28.3907 32.0543C29.212 31.9583 30.036 31.8836 30.86 31.8089C31.8893 31.7143 32.9187 31.5876 33.9493 31.5503C35.192 31.5049 36.436 31.5396 37.68 31.5396ZM113.293 28.633C113.293 28.637 113.293 28.6409 113.293 28.6436C114.295 28.6436 115.297 28.6423 116.299 28.6449C116.56 28.6463 116.929 28.6996 117.004 28.4636C117.089 28.197 116.767 28.0183 116.529 27.8703C116.164 27.6423 115.793 27.4183 115.447 27.1649C114.132 26.2049 112.739 25.385 111.259 24.7063C108.744 23.5556 106.103 22.9889 103.345 22.9343C101.825 22.9036 100.312 22.9983 98.8067 23.225C97.2507 23.4583 95.7293 23.8303 94.26 24.3903C91.588 25.4076 89.1133 26.8049 86.716 28.3516C84.3147 29.9009 82.356 31.9516 80.3507 33.9476C80.2573 34.0396 80.2027 34.177 80.1533 34.3023C80.0867 34.4676 80.1413 34.5503 80.3013 34.5156C80.5173 34.4663 80.732 34.3969 80.9333 34.3049C81.3413 34.1209 81.7307 33.8916 82.1453 33.7236C83.2467 33.2783 84.36 32.8596 85.4667 32.4223C87.1187 31.7703 88.788 31.1689 90.5107 30.7356C91.8467 30.3996 93.196 30.1143 94.536 29.7956C96.6027 29.3036 98.6893 28.9503 100.813 28.857C102.176 28.797 103.539 28.7636 104.903 28.7409C107.596 28.6969 110.289 28.669 112.983 28.6343C113.087 28.633 113.189 28.633 113.293 28.633ZM67.7093 107.458C67.7093 107.464 67.7093 107.469 67.7093 107.474C68.244 107.454 68.78 107.45 69.312 107.41C69.896 107.366 70.4813 107.316 71.0573 107.22C72.06 107.052 73.0587 106.864 74.052 106.652C74.9267 106.465 75.8107 106.301 76.6453 105.961C79.0107 104.997 81.34 103.957 83.568 102.705C84.6227 102.113 85.664 101.492 86.576 100.694C87.6427 99.7636 88.6733 98.7929 89.7147 97.8343C90.1587 97.4249 90.5733 96.9823 91.0307 96.5889C92.9 94.9743 94.512 93.1383 95.8253 91.0489C97.412 88.5209 98.9173 85.9463 100.109 83.2049C100.756 81.7209 101.412 80.2383 101.965 78.7183C103.063 75.7049 103.824 72.593 104.573 69.4783C104.827 68.421 104.512 67.5396 103.849 66.7463C103.467 66.2903 102.956 66.1196 102.367 66.1796C102.177 66.1996 101.989 66.2223 101.801 66.2396C100.963 66.3156 100.193 66.5596 99.488 67.045C97.3453 68.513 95.396 70.2156 93.452 71.925C92.336 72.905 91.248 73.9183 90.0947 74.8503C88.7267 75.957 87.3253 77.0263 85.8947 78.0503C84.1213 79.3196 82.1787 80.3023 80.1787 81.1623C78.9933 81.6729 77.7987 82.1796 76.576 82.5916C74.3267 83.3476 71.9853 83.6823 69.6267 83.8436C67.992 83.9556 66.3507 83.9489 64.712 83.7916C63.2147 83.6489 61.7387 83.4023 60.2947 82.9916C56.6867 81.9649 53.3013 80.4516 50.2147 78.3009C47.5453 76.4409 45.024 74.4063 42.7347 72.089C41.8107 71.1556 40.88 70.2303 39.944 69.3103C38.9827 68.3649 37.8947 67.6276 36.576 67.2636C36.0013 67.1049 35.452 67.1423 34.912 67.3836C33.9387 67.8183 33.252 68.537 32.8053 69.4983C32.5667 70.0103 32.4227 70.5303 32.5853 71.0996C32.6187 71.213 32.608 71.3396 32.624 71.4583C32.7787 72.6543 32.9053 73.8529 33.2253 75.0223C33.4973 76.0183 33.7227 77.0263 33.9733 78.0289C34.472 80.0183 34.976 82.0076 35.84 83.8769C36.5707 85.4556 37.3267 87.0236 38.104 88.5809C38.5027 89.3823 38.9333 90.1729 39.4133 90.9276C41.676 94.4756 44.4627 97.5756 47.6213 100.341C49.292 101.802 51.1293 103.024 53.1613 103.934C53.964 104.294 54.768 104.649 55.5787 104.988C57.28 105.698 58.992 106.382 60.784 106.836C61.7533 107.08 62.72 107.354 63.724 107.39C65.052 107.437 66.3813 107.438 67.7093 107.458ZM33.344 6.19561C34.8107 6.24895 36.2787 6.28628 37.744 6.35962C39.5173 6.44762 41.2907 6.57162 43.064 6.66762C44.4933 6.74495 45.924 6.80228 47.3533 6.87428C50.8227 7.04762 54.2947 6.95295 57.764 6.93162C59.3347 6.92228 60.9067 6.88094 62.476 6.83028C64.0627 6.77961 65.6493 6.71561 67.2333 6.62628C68.6107 6.54761 69.9867 6.44229 71.36 6.31562C72.3707 6.22229 73.3773 6.07561 74.3867 5.95295C74.4547 5.94495 74.524 5.94228 74.5933 5.93961C75.7653 5.89295 76.9387 5.85162 78.1107 5.80228C79.6453 5.73695 81.1827 5.69961 82.7133 5.58495C84.2413 5.47161 85.764 5.28095 87.288 5.11828C88.3173 5.00895 89.3453 4.89828 90.3707 4.77428C91.4827 4.63828 92.5933 4.49562 93.7013 4.33695C94.9813 4.15295 96.2587 3.96095 97.5333 3.75028C99.1987 3.47561 100.863 3.19294 102.523 2.88894C104.284 2.56761 106.04 2.21561 107.799 1.88095C109.575 1.54361 111.349 1.19294 113.131 0.886277C114.437 0.662277 115.753 0.496943 117.067 0.314276C117.425 0.263609 117.787 0.230279 118.148 0.215613C120.107 0.134279 121.853 0.722283 123.4 1.91295C125.099 3.22228 126.315 4.88628 127.025 6.91162C127.569 8.45962 127.915 10.057 128.201 11.6703C128.448 13.0636 128.589 14.4703 128.672 15.8796C128.727 16.8076 128.655 17.7423 128.637 18.6729C128.635 18.8463 128.625 19.0183 128.619 19.1903C128.572 20.3636 128.545 21.537 128.472 22.709C128.369 24.3276 128.244 25.9463 128.308 27.5703C128.381 29.4129 128.467 31.2583 128.828 33.0743C129.145 34.6569 129.671 36.1503 130.643 37.4809C131.559 38.7356 132.311 40.0903 132.824 41.5729C133.24 42.7769 133.728 43.9556 134.183 45.1463C134.737 46.5996 135.113 48.0983 135.357 49.6356C135.595 51.1236 135.685 52.6169 135.673 54.1209C135.668 54.9329 135.651 55.7449 135.675 56.5556C135.717 58.0156 135.52 59.4476 135.219 60.8676C134.732 63.1463 134.075 65.3716 133.175 67.525C132.548 69.0263 131.757 70.4383 130.921 71.8263C128.281 76.2156 125.621 80.5929 122.993 84.9876C121.78 87.0143 120.623 89.0729 119.437 91.1169C118.148 93.3396 116.844 95.5529 115.572 97.7849C114.709 99.2969 113.891 100.834 113.051 102.36C111.987 104.292 110.909 106.218 109.859 108.158C109.179 109.417 108.549 110.704 107.869 111.962C106.715 114.1 105.617 116.27 104.332 118.337C101.988 122.106 99.3267 125.62 96.0227 128.612C93.38 131.005 90.5707 133.177 87.5173 135.022C85.74 136.096 83.844 136.928 81.8627 137.549C81.0373 137.808 80.2307 138.104 79.4533 138.477C78.7813 138.802 78.084 139.025 77.348 139.16C75.8907 139.428 74.4493 139.768 73.0213 140.165C71.9907 140.453 70.9347 140.628 69.8667 140.692C68.7133 140.76 67.5587 140.856 66.4053 140.845C64.836 140.832 63.2653 140.756 61.7 140.654C60.5973 140.582 59.5213 140.325 58.456 140.036C56.4773 139.5 54.5013 138.954 52.5227 138.418C51.404 138.116 50.3293 137.702 49.288 137.197C47.1893 136.178 45.1653 135.024 43.1813 133.805C42.2 133.202 41.2773 132.49 40.3827 131.762C39.0307 130.661 37.7253 129.504 36.4013 128.368C35.2693 127.397 34.2973 126.274 33.3453 125.133C31.9813 123.497 30.8907 121.674 29.7893 119.861C27.604 116.265 25.5907 112.572 23.6747 108.825C22.2453 106.032 20.8227 103.236 19.34 100.47C18.1187 98.1916 16.8253 95.9516 15.5413 93.7063C14.0453 91.0863 12.528 88.4783 11.0133 85.8676C9.516 83.2876 8.00533 80.7156 6.51066 78.1343C5.25866 75.9703 3.99866 73.8116 2.78666 71.6249C2.29466 70.7383 1.876 69.8036 1.508 68.8583C1.26666 68.2396 1.14933 67.5663 1.02266 66.9089C0.887998 66.2169 0.790664 65.5169 0.707998 64.8169C0.523998 63.2556 0.435998 61.6889 0.490664 60.1156C0.533331 58.9103 0.618664 57.7143 0.861331 56.525C1.07066 55.4943 1.26 54.4583 1.62533 53.4769C2.35466 51.5209 3.19467 49.6143 4.43733 47.9103C4.80133 47.4103 5.12666 46.8756 5.42133 46.3316C6.08933 45.0916 6.95333 43.997 7.88266 42.949C9.08933 41.589 10.1573 40.1303 10.9947 38.5116C11.6773 37.1903 12.1573 35.7876 12.604 34.3743C12.8627 33.5543 13.1267 32.7316 13.32 31.8943C13.564 30.8383 13.7773 29.7716 13.9307 28.6996C14.1107 27.4343 14.384 26.1916 14.6973 24.9569C15.0733 23.4703 15.46 21.9889 15.9853 20.5463C16.596 18.8689 17.4213 17.3023 18.376 15.801C19.0053 14.8116 19.6187 13.8103 20.2653 12.8329C21.188 11.4369 22.3387 10.2543 23.7067 9.28628C24.7787 8.52628 25.8787 7.81295 27.084 7.28362C28.5827 6.62628 30.136 6.20229 31.7893 6.22362C32.3067 6.23029 32.8253 6.22362 33.344 6.22362C33.344 6.21429 33.344 6.20495 33.344 6.19561Z" fill="#5EC0AF"/>
</svg>
