<svg width="139" height="142" viewBox="0 0 139 142" fill="none" xmlns="http://www.w3.org/2000/svg">
<path d="M138.428 129.041C138.428 129.434 138.43 129.827 138.426 130.219C138.425 130.531 138.445 130.833 138.562 131.134C138.637 131.323 138.629 135.823 138.628 137.855C138.628 138.362 138.63 138.87 138.632 139.378C138.633 139.493 138.636 139.607 138.629 139.722C138.61 140.005 138.521 140.098 138.264 140.037C137.834 139.935 137.401 139.833 136.99 139.678C135.734 139.205 134.489 138.702 133.238 138.218C131.864 137.686 130.489 137.158 129.112 136.635C128.117 136.258 127.116 135.897 126.121 135.518C125.341 135.221 124.566 134.911 123.79 134.603C122.842 134.229 121.87 133.974 120.853 133.849C120.066 133.753 119.282 133.757 118.501 133.794C117.917 133.822 117.337 133.962 116.76 134.071C114.686 134.466 112.613 134.862 110.544 135.27C108.216 135.729 105.893 136.21 103.564 136.662C101.685 137.027 99.7996 137.357 97.921 137.718C95.5436 138.177 93.1716 138.659 90.7943 139.118C88.7703 139.509 86.7423 139.877 84.7183 140.263C83.8823 140.422 83.0543 140.621 82.217 140.771C81.2676 140.942 80.313 141.081 79.361 141.227C79.2156 141.25 79.0663 141.243 78.9183 141.243C77.461 141.245 76.0036 141.251 74.5463 141.238C74.1716 141.235 73.7956 141.186 73.425 141.125C71.5703 140.818 69.7183 140.497 67.8636 140.189C66.7836 140.01 65.6983 139.857 64.6183 139.678C63.585 139.507 62.5556 139.317 61.5236 139.142C60.573 138.983 59.6196 138.835 58.6676 138.681C57.5863 138.506 56.5036 138.341 55.4236 138.153C54.377 137.97 53.3356 137.757 52.289 137.571C51.565 137.443 50.8356 137.347 50.1103 137.226C49.2556 137.083 48.4036 136.923 47.549 136.777C46.0823 136.526 44.6143 136.281 43.1476 136.03C41.9223 135.821 40.6983 135.606 39.473 135.398C38.1996 135.182 36.9263 134.969 35.6516 134.759C34.6676 134.599 33.681 134.453 32.697 134.291C31.761 134.138 30.829 133.965 29.893 133.818C29.4583 133.749 29.017 133.715 28.5783 133.675C27.8956 133.613 27.2116 133.55 26.5276 133.502C26.2356 133.482 25.9396 133.493 25.645 133.506C25.3196 133.521 24.9943 133.55 24.6676 133.577C24.1476 133.621 23.6263 133.657 23.1063 133.715C22.425 133.793 21.745 133.887 21.065 133.978C20.4663 134.058 19.8676 134.147 19.269 134.227C18.653 134.309 18.037 134.383 17.421 134.462C16.481 134.583 15.5423 134.711 14.6023 134.825C13.905 134.91 13.2063 134.978 12.5076 135.055C12.1663 135.093 11.825 135.13 11.485 135.173C10.545 135.293 9.6063 135.418 8.6663 135.534C7.4983 135.677 6.32897 135.809 5.1623 135.951C4.83697 135.991 4.51696 136.059 4.19296 136.101C3.9983 136.126 1.81563 136.123 1.58096 135.926C1.06496 135.491 0.771627 134.939 0.751627 134.265C0.738294 133.791 0.7343 133.318 0.8143 132.845C0.8903 132.395 0.890302 131.933 0.939636 131.478C1.01564 130.797 1.09963 130.115 1.19296 129.437C1.33563 128.383 1.48763 127.333 1.63563 126.281C1.66363 126.086 1.6903 125.891 1.72763 125.699C1.85296 125.067 1.83296 124.429 1.82496 123.79C1.81029 122.791 1.89563 121.799 2.0063 120.807C2.05163 120.402 2.0743 119.994 2.1183 119.587C2.1903 118.905 2.2623 118.223 2.3503 117.542C2.46497 116.651 2.5983 115.762 2.71564 114.871C2.81164 114.142 2.9063 113.413 2.98496 112.682C3.03963 112.179 3.06097 111.673 3.10764 111.169C3.15564 110.649 3.2183 110.129 3.27164 109.61C3.30897 109.235 3.34363 108.862 3.37563 108.487C3.4183 107.982 3.45297 107.477 3.4983 106.973C3.54763 106.419 3.60363 105.867 3.65696 105.315C3.69829 104.893 3.74496 104.47 3.78096 104.047C3.8223 103.558 3.84896 103.069 3.89563 102.581C3.93963 102.11 4.0023 101.641 4.0543 101.17C4.0943 100.813 4.1343 100.455 4.16763 100.098C4.2103 99.626 4.24096 99.1526 4.28763 98.6806C4.33296 98.21 4.39163 97.7393 4.4423 97.2686C4.4903 96.814 4.5263 96.358 4.58096 95.9033C4.64496 95.3686 4.72097 94.834 4.79563 94.3006C4.88363 93.6686 4.98363 93.0393 5.06363 92.4073C5.2023 91.3193 5.3703 90.238 5.61163 89.1673C6.0903 87.0446 6.56363 84.9206 7.06096 82.8006C7.22763 82.0846 7.4423 81.378 7.65964 80.6753C8.3183 78.546 8.81696 76.3753 9.3743 74.2206C9.74763 72.778 10.1476 71.3433 10.5196 69.9006C10.9036 68.4113 11.2756 66.918 11.641 65.4233C12.1236 63.4526 12.5996 61.4793 13.069 59.5046C13.537 57.53 13.9876 55.5513 14.457 53.5766C14.805 52.1113 15.1743 50.6513 15.5276 49.1873C15.7223 48.3753 15.8916 47.558 16.093 46.7473C16.3876 45.5566 16.7183 44.3726 17.001 43.178C17.429 41.3753 17.973 39.6086 18.589 37.8633C18.921 36.9233 19.3076 36.0006 19.6863 35.078C20.1463 33.9553 20.661 32.8593 21.2276 31.7873C21.9183 30.4833 22.6956 29.2326 23.645 28.098C24.2956 27.318 25.0036 26.5926 25.8303 25.994C26.8156 25.282 27.8956 24.834 29.1143 24.6646C30.0623 24.534 30.969 24.6767 31.889 24.83C33.0796 25.0286 34.137 25.5273 35.0676 26.282C35.6796 26.7766 36.229 27.3406 36.6863 27.986C37.217 28.7353 37.697 29.5126 38.0463 30.3673C38.293 30.974 38.585 31.5606 38.837 32.1646C39.069 32.7233 39.2876 33.2886 39.4903 33.8593C40.149 35.71 40.8836 37.5313 41.6516 39.3406C41.6703 39.386 41.6916 39.43 41.717 39.4713C41.777 39.5753 41.885 39.578 41.945 39.466C42.0316 39.3086 42.1196 39.1486 42.181 38.9806C42.8356 37.1806 43.4943 35.382 44.037 33.5433C44.209 32.9633 44.3943 32.386 44.5796 31.8086C45.1956 29.8913 45.797 27.97 46.437 26.0606C46.9356 24.57 47.4663 23.09 48.0143 21.618C48.277 20.914 48.601 20.2313 48.917 19.5486C49.309 18.702 49.713 17.8606 50.1303 17.026C50.4916 16.3033 50.9783 15.6647 51.561 15.106C52.029 14.6567 52.5596 14.2913 53.2183 14.2086C53.637 14.1566 54.077 14.13 54.4903 14.1953C55.6263 14.3753 56.6463 14.806 57.4983 15.626C58.5156 16.6047 59.1876 17.786 59.661 19.0913C60.3276 20.9286 60.7756 22.8206 61.1156 24.7433C61.377 26.2246 61.693 27.698 62.013 29.17C62.489 31.3593 62.981 33.5473 63.485 35.7313C63.8663 37.39 64.2716 39.0446 64.6743 40.698C64.961 41.8753 65.2476 43.0513 65.557 44.222C65.8383 45.282 66.1396 46.3366 66.4503 47.3886C66.757 48.4246 67.0876 49.454 67.4103 50.4846C67.4543 50.6246 67.5076 50.7633 67.5676 50.8966C67.6156 51.0046 67.6956 51.1153 67.8236 51.0793C67.901 51.0566 67.957 50.954 68.0183 50.8833C68.037 50.8606 68.0396 50.822 68.0476 50.7913C68.3236 49.814 68.6023 48.838 68.8756 47.862C69.0703 47.1673 69.269 46.4753 69.445 45.7766C69.7063 44.746 69.9676 43.7153 70.1943 42.6753C70.5263 41.158 70.8396 39.634 71.1396 38.11C71.3383 37.0993 71.4956 36.0793 71.681 35.066C71.9196 33.7633 72.177 32.4633 72.413 31.1593C72.641 29.9046 72.8436 28.6446 73.073 27.39C73.2356 26.506 73.4223 25.6246 73.601 24.7433C73.913 23.2206 74.225 21.698 74.541 20.1753C74.757 19.134 75.0036 18.098 75.1983 17.054C75.537 15.2513 75.9463 13.4646 76.401 11.6886C76.853 9.92731 77.397 8.19531 78.069 6.50331C78.5063 5.40198 79.057 4.36465 79.7383 3.39665C80.5503 2.24198 81.601 1.38064 82.9183 0.864643C83.4823 0.643309 84.0756 0.508643 84.6903 0.512643C85.049 0.515309 85.4156 0.493985 85.7676 0.552651C86.6143 0.693985 87.3276 1.10598 87.961 1.68465C88.901 2.54332 89.5116 3.62065 90.0263 4.76065C90.2876 5.34198 90.541 5.92998 90.753 6.53131C91.009 7.25531 91.2423 7.98998 91.4423 8.73131C91.821 10.138 92.1943 11.5473 92.5223 12.966C92.821 14.2566 93.0556 15.562 93.321 16.8593C93.5196 17.838 93.7276 18.814 93.921 19.794C94.185 21.142 94.429 22.494 94.6996 23.8406C94.8903 24.7873 95.1036 25.73 95.3183 26.6713C95.5583 27.7233 95.797 28.778 96.0623 29.8246C96.4983 31.5553 96.9863 33.2726 97.5823 34.9553C97.9263 35.9273 98.2903 36.8926 98.649 37.8593C98.6996 37.9953 98.737 38.174 98.905 38.1886C99.1183 38.2086 99.2143 38.0233 99.2876 37.8606C99.5316 37.3246 99.7636 36.7833 100.001 36.2433C100.322 35.5086 100.596 34.7553 100.824 33.9846C100.972 33.4833 101.186 33.002 101.342 32.502C101.69 31.3766 102.005 30.2406 102.364 29.118C102.872 27.5273 103.373 25.9326 103.941 24.3646C104.297 23.382 104.705 22.4126 105.27 21.522C105.676 20.886 106.089 20.2486 106.618 19.7153C107.769 18.5566 109.148 17.8286 110.785 17.594C111.456 17.498 112.124 17.502 112.792 17.526C113.146 17.538 113.505 17.63 113.849 17.7286C114.79 18.0006 115.609 18.506 116.378 19.1033C117.292 19.8113 118.068 20.6513 118.733 21.59C119.462 22.618 120.098 23.7046 120.714 24.8073C121.668 26.5153 122.368 28.3326 123.093 30.1393C123.76 31.7953 124.314 33.4926 124.817 35.206C125.278 36.7753 125.721 38.3526 126.145 39.9326C127.009 43.1593 127.754 46.4126 128.425 49.6846C128.621 50.646 128.884 51.594 129.102 52.5513C129.37 53.7326 129.626 54.9153 129.882 56.0993C130.254 57.8273 130.63 59.554 130.988 61.2846C131.185 62.246 131.341 63.214 131.522 64.1793C131.702 65.1433 131.894 66.106 132.072 67.0713C132.397 68.8406 132.726 70.61 133.036 72.382C133.33 74.074 133.61 75.7673 133.88 77.4633C134.102 78.8673 134.301 80.2766 134.51 81.682C134.629 82.474 134.758 83.2646 134.864 84.0593C134.985 84.982 135.086 85.9086 135.193 86.8326C135.286 87.6273 135.378 88.4233 135.462 89.218C135.51 89.6566 135.538 90.098 135.582 90.5366C135.633 91.0233 135.693 91.51 135.746 91.9966C135.79 92.4033 135.83 92.81 135.872 93.2153C135.933 93.8166 136.001 94.418 136.052 95.0193C136.101 95.606 136.129 96.1926 136.17 96.7806C136.226 97.562 136.286 98.3433 136.345 99.1246C136.346 99.158 136.353 99.19 136.356 99.222C136.393 99.8913 136.422 100.561 136.469 101.23C136.516 101.93 136.58 102.629 136.636 103.329C136.64 103.378 136.653 103.427 136.652 103.475C136.642 104.229 136.708 104.978 136.754 105.729C136.813 106.69 136.836 107.655 136.941 108.614C136.945 108.646 136.948 108.679 136.949 108.711C136.985 109.495 137.012 110.279 137.06 111.062C137.102 111.73 137.17 112.397 137.226 113.063C137.232 113.129 137.241 113.194 137.245 113.259C137.281 113.863 137.306 114.467 137.357 115.07C137.396 115.542 137.468 116.01 137.517 116.481C137.564 116.919 137.598 117.359 137.641 117.798C137.701 118.433 137.769 119.066 137.822 119.701C137.87 120.27 137.897 120.842 137.94 121.413C137.992 122.095 138.052 122.779 138.108 123.462C138.114 123.545 138.124 123.626 138.13 123.707C138.193 124.439 138.256 125.171 138.317 125.903C138.32 125.937 138.324 125.969 138.325 126.002C138.369 127.014 138.413 128.027 138.457 129.039C138.448 129.039 138.437 129.041 138.428 129.041Z" fill="#BC9AC8"/>
</svg>
