<svg width="127" height="128" viewBox="0 0 127 128" fill="none" xmlns="http://www.w3.org/2000/svg">
<path d="M63.5346 55.5607C63.5346 55.4007 63.5359 55.242 63.5346 55.082C63.5252 54.514 63.6892 53.998 64.0106 53.5327C64.2652 53.162 64.5306 52.7993 64.7772 52.4247C65.0972 51.938 65.4572 51.49 65.8812 51.0873C66.6012 50.3993 67.0599 49.558 67.2719 48.582C67.3986 48.0007 67.5946 47.4407 67.8332 46.8967C67.9332 46.6713 68.0626 46.4633 68.2306 46.278C68.4359 46.0513 68.6946 45.9847 69.0212 46.126C69.1786 46.194 69.3292 46.2887 69.4652 46.3927C69.7759 46.63 70.0759 46.882 70.3812 47.126C70.8119 47.47 71.2386 47.8207 71.7252 48.0833C72.1972 48.3367 72.6692 48.5887 73.1506 48.822C74.2119 49.3367 75.3439 49.538 76.5146 49.5393C76.7439 49.5407 76.9746 49.4833 77.2052 49.4767C77.7426 49.4607 78.2652 49.354 78.7892 49.2407C79.9932 48.9807 81.1506 48.5713 82.3012 48.1407C82.6532 48.0087 83.0066 47.8873 83.3666 47.778C84.6226 47.4007 85.7359 46.7767 86.6479 45.8193C86.7479 45.714 86.8492 45.61 86.9559 45.5113C87.3479 45.1487 87.4866 44.682 87.4479 44.1727C87.3959 43.4967 87.1199 43.2087 86.5972 43.0487C86.3652 42.978 86.1092 42.954 85.8666 42.9647C85.4786 42.9807 85.0879 43.0233 84.7346 43.2193C84.6212 43.2833 84.4959 43.3233 84.3799 43.3807C84.1319 43.502 83.8892 43.63 83.6719 43.8033C83.3106 44.094 82.9426 44.3753 82.5719 44.6553C82.2839 44.874 81.9892 45.0847 81.6546 45.2313C81.5092 45.294 81.3639 45.3487 81.1972 45.3327C80.9519 45.31 80.7052 45.2887 80.4599 45.2927C79.8226 45.3033 79.1866 45.298 78.5479 45.3447C78.1026 45.3767 77.6519 45.3727 77.2026 45.3127C76.8599 45.2673 76.5119 45.2753 76.1679 45.2033C75.7679 45.1193 75.3839 44.9993 75.0426 44.7687C74.6452 44.5007 74.4252 44.13 74.3959 43.646C74.3892 43.53 74.4359 43.4513 74.5399 43.406C74.6986 43.3367 74.8612 43.2753 75.0186 43.202C75.8959 42.7833 76.4546 42.094 76.7159 41.1673C76.8466 40.7073 76.9066 40.2313 76.9266 39.754C76.9452 39.3193 76.9399 38.8847 76.9439 38.4487C76.9452 38.3327 76.9426 38.2167 76.9479 38.1007C76.9586 37.8567 77.0026 37.7993 77.2239 37.718C77.3732 37.6647 77.5252 37.618 77.6706 37.5527C78.0732 37.3713 78.3066 37.0673 78.3386 36.6153C78.3532 36.3993 78.3759 36.1833 78.4146 35.97C78.4692 35.6567 78.6092 35.3953 78.9132 35.25C79.0039 35.206 79.0946 35.1607 79.1826 35.1127C79.5426 34.9127 79.7492 34.6207 79.7306 34.198C79.7172 33.9087 79.7159 33.6167 79.6666 33.3327C79.6199 33.0727 79.6799 32.886 79.8812 32.7207C80.2012 32.4607 80.4359 32.126 80.6306 31.7687C80.7612 31.5287 80.8692 31.2727 80.9679 31.0167C81.1772 30.474 81.2746 29.9047 81.3306 29.3273C81.3319 29.3167 81.2772 29.2833 81.2652 29.29C81.1906 29.3327 81.1199 29.3807 81.0506 29.4327C80.2039 30.07 79.2972 30.6113 78.3492 31.086C77.5332 31.4953 76.7186 31.9047 75.8999 32.3087C74.8999 32.802 73.9079 33.31 72.9626 33.9047C72.0626 34.47 71.2346 35.1247 70.4972 35.8913C70.1892 36.2127 69.9732 36.5753 69.8599 37.01C69.7732 37.3447 69.6626 37.6753 69.5372 37.998C69.3599 38.4527 69.0519 38.7927 68.5639 38.9167C68.1586 39.0193 67.7479 39.1007 67.3359 39.178C67.1199 39.2193 66.9026 39.2073 66.7079 39.078C66.5972 39.0033 66.5519 38.8953 66.6106 38.778C66.6759 38.65 66.7519 38.526 66.8386 38.4113C66.9306 38.2913 67.0612 38.234 67.2186 38.2393C67.4066 38.246 67.5959 38.254 67.7839 38.242C68.1132 38.2233 68.4092 38.106 68.6359 37.8633C68.7732 37.7167 68.9026 37.5553 69.0012 37.3807C69.3066 36.838 69.5906 36.2833 69.7386 35.6713C69.7612 35.5727 69.7946 35.4767 69.8279 35.3807C69.8679 35.2673 69.9439 35.1807 70.0546 35.13C70.1479 35.0887 70.2412 35.05 70.3332 35.0087C70.5706 34.9007 70.8092 34.7953 71.0426 34.6807C71.3306 34.538 71.5999 34.366 71.8039 34.1127C72.0812 33.7687 72.2119 33.3887 72.0879 32.9407C72.0452 32.786 71.9986 32.6367 71.9306 32.4927C71.7639 32.1393 71.7266 31.7753 71.8239 31.3953C71.9266 30.9967 71.8892 30.5887 71.8932 30.1833C71.8946 30.0313 71.8306 29.902 71.7372 29.7873C71.6826 29.7193 71.6199 29.658 71.5559 29.5993C71.4052 29.4633 71.2546 29.3273 71.0986 29.198C70.9772 29.098 70.9212 28.978 70.9319 28.8193C70.9426 28.6593 70.9359 28.4993 70.9372 28.3407C70.9372 28.206 70.8946 28.0887 70.8239 27.9727C70.6666 27.7127 70.4359 27.5447 70.1679 27.4233C70.0119 27.354 69.9199 27.254 69.8719 27.0807C69.7759 26.7393 69.5746 26.4567 69.3212 26.2087C68.9439 25.8367 68.5052 25.5593 68.0199 25.3567C67.2972 25.0567 66.5492 24.8527 65.7746 24.7207C65.1292 24.6113 64.4839 24.5553 63.8319 24.5553C63.5679 24.5553 63.3106 24.5873 63.0586 24.658C62.5012 24.814 62.0106 25.0873 61.6612 25.5593C61.5399 25.7233 61.3959 25.814 61.2119 25.8727C60.8679 25.982 60.5239 26.0953 60.1852 26.2193C59.6572 26.4127 59.2679 26.762 59.0279 27.274C58.9852 27.366 58.9492 27.4607 58.9066 27.5527C58.7812 27.8287 58.6586 28.1073 58.5252 28.3807C58.3412 28.758 58.1372 29.126 57.9599 29.506C57.7412 29.9767 57.6506 30.4673 57.7906 30.9807C57.8012 31.0233 57.8146 31.0647 57.8319 31.1047C57.9092 31.2687 57.8612 31.4127 57.7666 31.5527C57.6132 31.7807 57.4612 32.01 57.3132 32.242C57.1599 32.478 57.0759 32.7367 57.0786 33.0207C57.0799 33.122 57.0799 33.2233 57.0732 33.3247C57.0506 33.7087 57.1972 34.0393 57.4199 34.3313C57.7466 34.7593 58.1306 35.134 58.5692 35.4487C58.7452 35.5767 58.9186 35.7073 59.0972 35.83C59.4799 36.0927 59.8586 36.3593 60.2679 36.5793C60.4599 36.6807 60.6412 36.8033 60.8172 36.9287C61.0799 37.1153 61.1799 37.4473 61.0666 37.7353C61.0466 37.7873 61.0106 37.8407 60.9666 37.874C60.7812 38.018 60.5746 38.126 60.3372 38.1433C60.1492 38.1567 59.9599 38.154 59.7719 38.1553C59.5039 38.1567 59.2519 38.0727 59.0332 37.9313C58.6812 37.7033 58.3319 37.466 58.0079 37.1993C57.2346 36.5607 56.5532 35.826 55.8612 35.1033C55.5386 34.7647 55.1932 34.4633 54.7999 34.2113C53.9799 33.6873 53.1092 33.2607 52.2252 32.8607C50.9346 32.2753 49.6012 31.794 48.2546 31.35C46.4292 30.75 44.6079 30.138 42.7852 29.526C42.2786 29.3567 41.7759 29.1753 41.3226 28.878C41.1186 28.7433 40.8839 28.6567 40.6639 28.546C40.5306 28.478 40.3866 28.4673 40.2412 28.47C40.1066 28.474 40.0399 28.5753 40.0826 28.7087C40.1946 29.058 40.3679 29.3767 40.5799 29.67C40.9866 30.234 41.4026 30.7927 41.8199 31.3487C41.9426 31.5113 42.0959 31.6473 42.2746 31.7487C42.4772 31.862 42.6826 31.97 42.8786 32.0927C43.0132 32.1753 43.1452 32.2673 43.2626 32.374C43.4692 32.5607 43.4866 32.718 43.3426 32.9487C43.2746 33.0593 43.1919 33.162 43.1306 33.2767C43.0492 33.43 42.9906 33.6007 43.0172 33.774C43.0466 33.9753 43.1226 34.1687 43.2759 34.314C43.4132 34.442 43.5546 34.5673 43.7066 34.678C44.0452 34.9247 44.3892 35.1687 44.7386 35.402C44.9012 35.51 45.0159 35.654 45.1146 35.8153C45.1786 35.9207 45.1799 36.0327 45.1266 36.1473C45.0652 36.278 45.0039 36.4087 44.9506 36.542C44.8479 36.7953 44.9146 37.0273 45.0666 37.238C45.1252 37.3193 45.1972 37.3953 45.2746 37.458C45.4879 37.6327 45.7039 37.8033 45.9252 37.966C46.1132 38.102 46.3132 38.2193 46.5026 38.3527C46.6586 38.4633 46.7826 38.6033 46.8572 38.7847C46.8986 38.8833 46.9039 38.982 46.8612 39.0793C46.8212 39.1713 46.7732 39.262 46.7266 39.3513C46.6252 39.5447 46.5546 39.75 46.5066 39.962C46.4012 40.434 46.4492 40.8833 46.7039 41.302C46.8706 41.5753 47.0639 41.83 47.3146 42.0313C47.7786 42.402 48.2426 42.774 48.7226 43.1233C49.1319 43.4233 49.5799 43.6593 50.0786 43.79C50.1892 43.818 50.2986 43.8593 50.4066 43.8993C50.4586 43.9193 50.4799 43.998 50.4439 44.046C50.2692 44.278 50.0959 44.51 49.9159 44.7367C49.1866 45.6567 48.4412 46.5633 47.7306 47.498C47.3492 47.998 46.8986 48.426 46.4279 48.8287C46.1186 49.0927 45.8226 49.3687 45.5266 49.646C45.1186 50.0287 44.8079 50.4727 44.6359 51.014C44.5639 51.2407 44.5026 51.466 44.5932 51.6913C44.7132 51.986 44.8439 52.2807 45.1146 52.478C45.1719 52.5193 45.2386 52.5553 45.3066 52.578C45.5132 52.6487 45.7226 52.702 45.9452 52.662C46.0439 52.6447 46.1452 52.626 46.2452 52.622C46.5559 52.6113 46.8439 52.5193 47.1146 52.3753C48.3692 51.7087 49.3346 50.7633 49.9226 49.4553C50.0172 49.2433 50.1066 49.03 50.1919 48.8153C50.2386 48.7007 50.3066 48.6167 50.4292 48.5807C50.4986 48.5607 50.5652 48.5313 50.6332 48.5073C51.2052 48.306 51.7799 48.11 52.3492 47.9007C53.1572 47.6033 53.9052 47.1967 54.5559 46.626C54.5786 46.6073 54.5999 46.5873 54.6226 46.57C54.7519 46.4687 54.8519 46.4967 54.9372 46.6447C55.0332 46.8113 55.0212 46.9833 54.9586 47.1487C54.9026 47.2953 54.8266 47.4393 54.7399 47.5713C54.5172 47.9113 54.2652 48.23 53.9786 48.5193C53.2946 49.21 52.6079 49.898 51.9252 50.59C51.4546 51.066 51.0226 51.57 50.7199 52.174C50.6999 52.2127 50.6759 52.2487 50.6519 52.286C50.2239 52.9407 50.0066 53.6727 49.8666 54.4313C49.7372 55.1273 49.6306 55.8273 49.5052 56.5233C49.4199 56.9953 49.2892 57.454 49.0786 57.886C48.8572 58.338 48.5559 58.722 48.1172 58.9793C47.9559 59.074 47.7812 59.15 47.6079 59.2193C46.9412 59.482 46.4106 59.9113 45.9892 60.4873C45.5999 61.0193 45.3306 61.6113 45.0772 62.2127C44.8572 62.7313 44.6546 63.258 44.4319 63.7767C44.2479 64.2033 44.0199 64.6073 43.7519 64.9873C43.5986 65.2047 43.4132 65.378 43.1559 65.474C42.7466 65.6287 42.3866 65.8727 42.0292 66.1207C41.7639 66.3047 41.5332 66.522 41.3212 66.762C41.0772 67.0367 40.8906 67.3553 40.8159 67.7113C40.6986 68.2807 40.8279 68.8047 41.2146 69.254C41.6292 69.7353 42.1386 70.0873 42.7092 70.354C43.1052 70.5393 43.3932 70.4633 43.6746 70.13C43.7119 70.086 43.7452 70.038 43.7759 69.9887C43.9172 69.77 44.0679 69.5553 44.1932 69.3273C44.3852 68.982 44.6066 68.6647 44.9079 68.4047C45.0172 68.31 45.1172 68.2033 45.2146 68.0953C46.0279 67.1833 46.9452 66.3833 47.8919 65.614C48.5892 65.0473 49.2959 64.4927 49.9586 63.8847C50.0226 63.826 50.0946 63.7767 50.1639 63.7247C50.2186 63.6847 50.2692 63.6927 50.3172 63.7407C50.5212 63.9473 50.7266 64.1513 50.9306 64.358C51.2132 64.6433 51.5559 64.818 51.9426 64.9193C52.3239 65.0193 52.6626 64.938 52.9639 64.702C53.1812 64.53 53.3599 64.3207 53.4812 64.066C53.6252 63.7633 53.7226 63.4447 53.7732 63.1153C53.8159 62.8447 53.8386 62.57 53.8626 62.2967C53.8746 62.1527 53.9292 62.0593 54.0719 62.0033C54.3252 61.906 54.5839 61.8873 54.8412 61.9393C55.1239 61.9967 55.4039 62.0713 55.6772 62.1633C56.1159 62.3113 56.5492 62.474 56.9799 62.6407C57.6132 62.886 58.2426 63.1447 58.8932 63.3407C59.5466 63.538 60.2052 63.6847 60.8959 63.6633C61.7452 63.6367 62.3946 63.2607 62.8732 62.5793C63.0306 62.3553 63.1599 62.1113 63.1959 61.8273C63.2412 61.47 63.3066 61.114 63.3532 60.7567C63.3972 60.4113 63.4172 60.0647 63.4692 59.7207C63.5412 59.234 63.5732 58.7433 63.6012 58.2527C63.6279 57.7753 63.6066 57.2967 63.6039 56.8167C63.6039 56.73 63.6106 56.6407 63.5906 56.5567C63.5146 56.2273 63.5426 55.8927 63.5346 55.5607ZM126.472 22.13C126.445 22.178 126.399 22.226 126.399 22.2753C126.395 22.4553 126.325 22.6127 126.251 22.77C125.964 23.3793 125.597 23.934 125.123 24.41C124.785 24.7473 124.425 25.0647 124.071 25.3847C123.823 25.6087 123.559 25.814 123.317 26.0433C122.556 26.7633 121.712 27.3753 120.839 27.95C119.773 28.65 118.679 29.3007 117.552 29.8967C116.119 30.6553 114.684 31.4113 113.26 32.1847C112.496 32.5993 111.747 33.0393 111.001 33.486C109.521 34.3767 107.968 35.1127 106.348 35.7087C104.992 36.2073 103.615 36.638 102.204 36.9527C101.556 37.098 100.907 37.2313 100.256 37.362C99.8452 37.4447 99.4319 37.5127 99.0199 37.5873C98.9626 37.598 98.9052 37.6127 98.8492 37.6127C98.2532 37.61 97.6666 37.734 97.0706 37.7087C96.5572 37.6873 96.0639 37.81 95.5852 37.9793C95.0692 38.1633 94.6799 38.4913 94.4812 39.0153C94.4306 39.1487 94.3919 39.2913 94.3692 39.4327C94.2212 40.3513 93.9306 41.23 93.6186 42.1007C93.0746 43.6207 92.3279 45.042 91.4066 46.37C90.8692 47.1447 90.2746 47.8727 89.6452 48.5767C89.1119 49.174 88.5306 49.718 87.9346 50.2473C87.3052 50.8047 86.6492 51.33 85.9692 51.826C84.5972 52.8247 83.1666 53.7313 81.6972 54.5767C80.4919 55.2687 79.2799 55.9513 78.0772 56.646C77.2226 57.138 76.3972 57.6753 75.6092 58.2687C75.1332 58.6273 74.6892 59.022 74.2932 59.4687C73.8559 59.9607 73.5132 60.514 73.3119 61.1433C73.1306 61.714 73.0346 62.2953 73.1666 62.8967C73.2066 63.0793 73.1986 63.2713 73.2266 63.458C73.3319 64.1847 73.5999 64.8487 74.0092 65.4607C74.3319 65.9433 74.6706 66.4087 75.0719 66.8327C75.8172 67.6233 76.5599 68.418 77.2186 69.286C77.8412 70.1073 78.4212 70.9567 78.8906 71.8753C79.2399 72.558 79.5119 73.278 79.7079 74.0207C79.8706 74.6353 79.9946 75.2593 80.0772 75.8913C80.1186 76.2207 80.1786 76.5473 80.2186 76.878C80.2412 77.0647 80.2426 77.254 80.2439 77.442C80.2466 78.1527 80.2439 78.8647 80.2466 79.5753C80.2479 80.17 80.1679 80.758 80.0892 81.346C80.0159 81.89 79.9572 82.4367 79.8799 82.9807C79.7892 83.6113 79.6746 84.2313 79.3946 84.8167C79.1012 85.43 78.8786 86.0767 78.5906 86.6913C78.1212 87.694 77.4946 88.598 76.7799 89.442C76.5746 89.6847 76.3839 89.942 76.1986 90.2007C75.8106 90.7447 75.3959 91.266 74.9532 91.7647C74.8092 91.9247 74.6346 92.0607 74.4626 92.194C74.1346 92.4473 73.8999 92.7713 73.7012 93.13C73.2559 93.9313 72.9186 94.7767 72.6692 95.6567C72.4506 96.4207 72.2559 97.1913 72.0586 97.9607C71.8172 98.898 71.6039 99.8433 71.2799 100.757C70.9492 101.687 70.5626 102.593 69.9879 103.402C69.7626 103.721 69.5119 104.023 69.2666 104.326C68.3732 105.43 67.4759 106.533 66.5812 107.635C65.9239 108.445 65.2572 109.249 64.6106 110.067C63.9359 110.921 63.3106 111.807 62.7719 112.755C62.4399 113.338 62.1772 113.947 62.0066 114.594C61.8839 115.057 61.8346 115.526 61.9186 116.01C62.0346 116.678 62.4092 117.175 62.8892 117.613C63.2799 117.969 63.7519 118.197 64.2306 118.406C64.9999 118.743 65.8092 118.958 66.6332 119.117C67.0719 119.202 67.5119 119.285 67.9546 119.355C68.2532 119.403 68.5599 119.414 68.8572 119.47C69.3599 119.567 69.8679 119.529 70.3719 119.571C71.0332 119.629 71.6999 119.677 72.3479 119.825C72.8412 119.938 73.3226 120.093 73.7772 120.322C74.2386 120.554 74.6226 120.881 74.9639 121.259C75.3066 121.638 75.3532 122.091 75.2532 122.565C75.1839 122.897 74.9546 123.121 74.6719 123.289C74.3426 123.485 73.9772 123.577 73.6052 123.634C73.2052 123.697 72.8039 123.763 72.4012 123.786C71.9826 123.81 71.5612 123.787 71.1412 123.777C70.9532 123.773 70.7666 123.738 70.5786 123.735C70.0132 123.725 69.4532 123.659 68.8959 123.573C68.5386 123.517 68.1759 123.502 67.8172 123.459C67.4732 123.418 67.1292 123.369 66.7879 123.317C66.3879 123.255 65.9892 123.189 65.5906 123.123C65.1772 123.054 64.7652 122.983 64.3519 122.915C64.2092 122.891 64.0666 122.871 63.9239 122.853C63.3639 122.778 62.7999 122.774 62.2386 122.703C61.6639 122.63 61.0799 122.657 60.5012 122.723C60.3866 122.737 60.2719 122.75 60.1559 122.755C59.8386 122.769 59.5226 122.783 59.2052 122.833C58.7639 122.902 58.3119 122.909 57.8652 122.947C57.3906 122.989 56.9146 123.037 56.4399 123.081C56.3252 123.091 56.2092 123.101 56.0932 123.102C55.7599 123.106 55.4252 123.115 55.0919 123.103C54.3532 123.074 53.6266 122.974 52.9292 122.706C52.5732 122.57 52.2359 122.405 51.9479 122.158C51.4732 121.753 51.2599 121.25 51.4079 120.615C51.6946 119.389 52.0679 118.187 52.5172 117.013C52.9252 115.945 53.3546 114.886 53.7692 113.822C54.3279 112.394 54.8972 110.97 55.3906 109.518C55.7399 108.49 56.0026 107.438 56.1932 106.37C56.3279 105.615 56.4279 104.854 56.3852 104.082C56.3786 103.951 56.3786 103.821 56.3852 103.69C56.4306 102.857 56.2999 102.043 56.0999 101.241C55.9972 100.831 55.9652 100.414 55.8892 100.002C55.8652 99.8767 55.8746 99.7407 55.8866 99.6113C55.9679 98.6887 56.2359 97.83 56.7319 97.0407C57.0799 96.4887 57.4106 95.9287 57.8159 95.414C58.2319 94.8873 58.7052 94.4193 59.2159 93.9887C59.5372 93.718 59.8746 93.4673 60.2026 93.2047C60.3146 93.114 60.4226 93.0153 60.5266 92.9153C61.0026 92.4553 61.1599 91.902 61.0439 91.2513C60.9052 90.4767 60.6399 89.7447 60.3546 89.018C60.2226 88.6807 60.0946 88.3407 59.9359 88.0167C59.7652 87.666 59.5839 87.3167 59.3692 86.9913C58.8732 86.2407 58.4386 85.4553 57.9826 84.6807C57.4759 83.8193 56.9826 82.95 56.4879 82.082C56.2652 81.6927 56.0452 81.3007 55.8372 80.9033C55.3866 80.0433 54.9346 79.1847 54.5012 78.3167C54.2039 77.7207 53.9452 77.106 53.6559 76.5073C53.4479 76.078 53.2212 75.6567 52.9932 75.2367C52.9386 75.1367 52.8559 75.0487 52.7746 74.97C52.6519 74.85 52.4319 74.8393 52.2932 74.942C52.2119 75.002 52.1386 75.074 52.0692 75.1473C51.8972 75.3247 51.7252 75.502 51.5626 75.6873C50.3932 77.0313 49.0346 78.1553 47.5532 79.1367C46.0879 80.106 44.5372 80.9153 42.9332 81.6273C41.9946 82.0433 41.0439 82.4313 40.0759 82.7727C39.4092 83.0073 38.7266 83.1953 38.0572 83.4247C37.3599 83.6633 36.6732 83.9313 36.0199 84.2807C35.5039 84.5553 35.0519 84.91 34.6492 85.3353C34.1332 85.8793 34.0186 86.526 34.1426 87.23C34.2226 87.6727 34.3946 88.09 34.5932 88.494C34.8506 89.0127 35.1186 89.526 35.3799 90.0433C35.6932 90.6633 36.0066 91.2833 36.2292 91.9447C36.4479 92.594 36.5839 93.2567 36.5572 93.946C36.5546 94.0047 36.5519 94.062 36.5546 94.1207C36.5999 95.214 36.2492 96.2007 35.7212 97.1353C35.4439 97.6273 35.1292 98.098 34.7626 98.53C34.5946 98.7273 34.4106 98.9207 34.2052 99.0767C33.5732 99.5567 33.1359 100.177 32.8759 100.917C32.7146 101.379 32.5852 101.855 32.4652 102.331C32.2959 103.003 32.1479 103.681 31.9906 104.357C31.8812 104.821 31.7972 105.29 31.7399 105.765C31.7012 106.094 31.6452 106.422 31.5972 106.75C31.5946 106.765 31.5932 106.779 31.5932 106.794C31.5532 107.531 31.4386 108.267 31.5106 109.006C31.5492 109.409 31.5799 109.811 31.6426 110.213C31.7066 110.629 31.7946 111.035 31.9012 111.442C32.1026 112.206 32.4279 112.911 32.8626 113.569C33.1172 113.955 33.3879 114.331 33.6519 114.713C33.8279 114.967 33.9626 115.231 33.9479 115.557C33.9386 115.77 33.8786 115.958 33.7319 116.11C33.6026 116.246 33.4652 116.377 33.3199 116.495C32.8359 116.893 32.2999 117.21 31.7426 117.489C30.9132 117.903 30.0892 118.329 29.2492 118.717C28.7119 118.965 28.1492 119.157 27.5986 119.374C27.4639 119.426 27.3279 119.475 27.1932 119.527C26.8812 119.649 26.6639 119.861 26.5199 120.169C26.2679 120.706 25.9986 121.235 25.7319 121.766C25.3292 122.569 24.8972 123.358 24.3506 124.074C24.0599 124.453 23.7679 124.837 23.4346 125.178C22.4812 126.154 21.3346 126.803 19.9986 127.098C19.7172 127.159 19.4252 127.174 19.1386 127.211C19.0679 127.221 18.9919 127.221 18.9532 127.298H17.0372C16.8679 127.174 16.6639 127.154 16.4679 127.129C16.1066 127.082 15.7599 126.989 15.4239 126.855C15.2639 126.793 15.1092 126.705 14.9692 126.606C14.6146 126.354 14.4492 125.998 14.4306 125.567C14.4186 125.315 14.4919 125.081 14.5612 124.845C14.7506 124.199 15.0559 123.609 15.4306 123.055C15.7239 122.623 16.0306 122.201 16.3412 121.782C17.4572 120.282 18.5826 118.79 19.6932 117.286C20.3319 116.422 20.8719 115.497 21.3266 114.522C21.5359 114.074 21.6946 113.61 21.8052 113.13C21.8679 112.862 21.9239 112.594 21.9786 112.325C22.1052 111.699 22.2146 111.073 22.1799 110.43C22.1679 110.198 22.1759 109.966 22.1812 109.734C22.1839 109.618 22.1879 109.499 22.2146 109.389C22.2719 109.158 22.2506 108.929 22.2252 108.698C22.2106 108.569 22.1866 108.439 22.1839 108.31C22.1732 107.949 22.1532 107.589 22.0959 107.23C22.0052 106.658 21.9066 106.089 21.7772 105.526C21.5266 104.441 21.1972 103.378 20.9052 102.303C20.5906 101.147 20.2479 99.9967 20.0519 98.81C19.9319 98.0807 19.8146 97.354 19.8172 96.6127C19.8199 95.974 19.8092 95.3353 19.8279 94.698C19.8439 94.1767 19.8892 93.6567 19.9306 93.1367C19.9519 92.8487 19.9852 92.5607 20.0266 92.2753C20.0892 91.846 20.1372 91.4153 20.1812 90.9833C20.2306 90.5073 20.2732 90.0327 20.2679 89.5527C20.2679 89.4953 20.2839 89.438 20.2892 89.3807C20.3066 89.2087 20.3346 89.0367 20.3386 88.8633C20.3546 88.1527 20.2799 87.4487 20.1906 86.7433C20.1186 86.1673 20.0106 85.6007 19.8332 85.0487C19.6199 84.3833 19.5186 83.694 19.4906 83.002C19.4519 82.0473 19.4412 81.09 19.5412 80.1353C19.5906 79.6727 19.6679 79.2167 19.7692 78.7673C20.1186 77.214 20.7439 75.7727 21.5639 74.4113C22.3372 73.1247 23.2746 71.966 24.3212 70.8953C25.3372 69.8567 26.4306 68.9073 27.5826 68.022C28.4559 67.35 29.3506 66.7087 30.2719 66.106C31.5199 65.2887 32.7932 64.51 34.0932 63.778C35.1399 63.1873 36.1812 62.5887 37.2652 62.0673C37.9719 61.73 38.6532 61.346 39.2932 60.8927C40.0452 60.362 40.7252 59.7647 41.2546 59.002C41.8786 58.1047 42.1186 57.1113 42.0052 56.0367C41.9266 55.2993 41.7079 54.594 41.3892 53.922C40.8826 52.8567 40.2332 51.882 39.5306 50.938C38.8466 50.0193 38.1026 49.1473 37.3692 48.2687C36.4506 47.1673 35.5226 46.0727 34.6079 44.966C34.0532 44.2953 33.5332 43.598 33.0506 42.874C32.3492 41.8247 31.7026 40.7447 31.2986 39.538C31.2066 39.266 31.0306 39.058 30.7932 38.9033C30.2959 38.578 29.7839 38.2833 29.2372 38.0433C28.3599 37.658 27.4399 37.4127 26.5132 37.1873C25.5319 36.95 24.5386 36.762 23.5639 36.4967C22.8666 36.3073 22.1692 36.114 21.5119 35.81C19.8026 35.0207 18.1132 34.1953 16.4759 33.2647C14.5866 32.1913 12.7279 31.0687 10.8732 29.9367C9.45058 29.07 8.00925 28.2367 6.51325 27.5007C5.87591 27.1873 5.26658 26.8233 4.66925 26.4407C4.13191 26.0953 3.63458 25.6967 3.13991 25.294C2.41324 24.7033 1.77991 24.0313 1.29458 23.2287C1.18258 23.0447 1.09325 22.8447 1.00658 22.6473C0.858579 22.314 0.787913 21.9607 0.709246 21.606C0.65458 21.3593 0.622577 21.1247 0.713244 20.882C0.738577 20.8153 0.74258 20.7407 0.75458 20.67C0.859914 20.0767 1.07191 19.522 1.41191 19.0287C1.81591 18.4433 2.28258 17.9033 2.82125 17.4353C3.87591 16.5207 5.02658 15.7447 6.25058 15.074C7.24124 14.5313 8.24524 14.018 9.27591 13.554C10.3839 13.0567 11.4999 12.578 12.6292 12.13C14.6439 11.33 16.6892 10.6153 18.7319 9.89134C20.1892 9.37534 21.6532 8.88068 23.1132 8.37268C24.4919 7.89401 25.8626 7.39534 27.1986 6.80334C27.7946 6.53934 28.3772 6.24868 28.9026 5.85401C29.6212 5.31534 30.3372 4.77134 31.0572 4.23401C31.6266 3.81001 32.2159 3.41668 32.8599 3.10868C33.3906 2.85535 33.9532 2.72467 34.5386 2.73401C34.9319 2.73934 35.3172 2.81134 35.6119 3.12201C35.6799 3.19401 35.7759 3.24067 35.8492 3.31134C35.9532 3.41267 36.0759 3.43267 36.2106 3.41667C36.2812 3.40867 36.3519 3.39134 36.4226 3.37401C36.8039 3.28468 37.1879 3.22868 37.5812 3.23268C37.9906 3.23535 38.3479 3.37001 38.6746 3.59801C38.8399 3.71401 38.9879 3.85534 39.1359 3.99267C39.2972 4.14334 39.4706 4.26868 39.6679 4.36468C39.8732 4.46468 40.0799 4.49534 40.2986 4.41801C40.5359 4.33134 40.7826 4.33134 41.0279 4.366C41.4786 4.43134 41.8612 4.60867 42.0706 5.04734C42.1199 5.15134 42.1706 5.25534 42.2186 5.35934C42.2932 5.51667 42.4132 5.60734 42.5892 5.61934C42.6466 5.62334 42.7039 5.62734 42.7599 5.61934C43.0226 5.57934 43.2786 5.62868 43.5359 5.67001C43.7452 5.70334 43.9186 5.79267 44.0772 5.926C44.3439 6.15 44.4826 6.44602 44.5786 6.77268C44.6586 7.04602 44.6626 7.30734 44.5692 7.58068C44.4986 7.79001 44.3946 7.97801 44.2652 8.15268C43.8586 8.69801 43.4439 9.23001 42.9359 9.69667C42.3799 10.206 41.8346 10.726 41.2332 11.1833C40.7572 11.5447 40.4239 12.006 40.1826 12.5433C40.0999 12.7273 40.0146 12.9127 39.9172 13.09C39.6679 13.542 39.2986 13.8513 38.7986 13.994C38.2706 14.1447 37.7439 14.15 37.2172 13.9807C36.5239 13.7567 35.9332 13.3873 35.4999 12.7873C35.4239 12.682 35.3466 12.5767 35.2732 12.4687C35.1839 12.3393 35.0679 12.2767 34.9066 12.2793C34.4279 12.2887 33.9492 12.2887 33.4706 12.2927C33.4119 12.294 33.3532 12.2953 33.2972 12.306C32.5986 12.422 31.9092 12.5767 31.2292 12.7753C30.2279 13.07 29.2706 13.4753 28.3319 13.9273C26.9212 14.6073 25.5746 15.4033 24.2292 16.1993C23.4732 16.646 22.8292 17.2273 22.1852 17.814C22.0119 17.9713 21.8786 18.162 21.7679 18.366C21.6746 18.5353 21.7466 18.7313 21.9266 18.794C22.1039 18.8553 22.2826 18.9113 22.4746 18.9167C22.8226 18.9287 23.1692 18.9567 23.5159 18.97C23.6466 18.9753 23.7759 18.958 23.9066 18.954C24.1386 18.9473 24.3732 18.914 24.5999 18.942C25.0479 18.9967 25.4959 19.0047 25.9452 19.01C26.0759 19.0113 26.2079 19.01 26.3372 19.0193C26.6119 19.0393 26.8852 19.0647 27.1599 19.0873C27.2319 19.0927 27.3052 19.0913 27.3759 19.102C27.7052 19.1513 28.0319 19.2073 28.3612 19.2527C29.1506 19.3607 29.9252 19.53 30.6786 19.7873C31.9052 20.2073 33.0599 20.7673 34.0586 21.6127C34.1452 21.6873 34.2439 21.754 34.3479 21.8007C34.7599 21.9847 35.1866 22.11 35.6399 22.138C36.2799 22.1767 36.9132 22.1193 37.5452 22.026C37.8306 21.9833 38.1146 21.9247 38.3999 21.89C38.7306 21.85 39.0626 21.822 39.3946 21.802C39.5239 21.794 39.6546 21.8167 39.7826 21.834C40.0839 21.874 40.3826 21.942 40.6839 21.9553C41.2786 21.9833 41.8679 22.0567 42.4506 22.154C43.1906 22.2767 43.9199 22.4633 44.6306 22.71C45.4892 23.0087 46.3452 23.318 47.2012 23.6273C47.9479 23.898 48.6892 24.186 49.4399 24.4433C50.0306 24.646 50.6332 24.7847 51.2679 24.7567C51.7399 24.7353 52.1786 24.6207 52.6052 24.4287C52.8906 24.2993 53.1186 24.102 53.3079 23.8593C53.7572 23.2807 53.7092 22.4167 53.1172 21.9487C52.9932 21.85 52.8546 21.7687 52.7146 21.6927C52.1319 21.378 51.4892 21.27 50.8452 21.1767C50.2012 21.0847 49.5466 21.0887 48.8999 21.0127C48.5986 20.978 48.2946 20.9607 47.9959 20.9073C47.9106 20.8913 47.8279 20.8647 47.7439 20.846C46.9679 20.6793 46.7186 19.9793 46.8466 19.3913C46.9252 19.0233 46.9066 18.69 46.7879 18.3313C46.6426 17.8927 46.6426 17.442 46.9839 17.0633C47.0772 16.9607 47.0892 16.87 47.0066 16.7553C46.9559 16.686 46.9239 16.6033 46.8799 16.5287C46.7946 16.3807 46.7892 16.2207 46.8386 16.066C46.8772 15.9433 46.9399 15.8273 46.9999 15.7113C47.1039 15.5113 47.2919 15.394 47.4626 15.2607C47.5652 15.1807 47.6719 15.1073 47.7719 15.0247C47.8252 14.9807 47.8199 14.8767 47.7612 14.834C47.6932 14.782 47.6212 14.7327 47.5426 14.6993C47.4106 14.6433 47.2706 14.6033 47.1359 14.5513C46.9292 14.4713 46.7586 14.3407 46.6226 14.1633C46.4132 13.89 46.3719 13.4407 46.6159 13.154C46.9079 12.8127 47.1852 12.458 47.5439 12.1793C47.9439 11.8673 48.3412 11.5527 48.7372 11.2367C48.8626 11.1367 48.9879 11.0367 49.0959 10.9207C49.3586 10.638 49.4146 10.3087 49.2559 9.95668C49.1719 9.77268 49.0666 9.598 48.9652 9.42334C48.6292 8.84734 48.4239 8.23268 48.4812 7.56201C48.5119 7.20468 48.5652 6.83668 48.6839 6.50068C49.0786 5.38601 49.7572 4.48601 50.8079 3.90067C51.1746 3.69667 51.5479 3.50334 51.9212 3.31134C53.1959 2.65534 54.5252 2.12602 55.8866 1.68068C56.7239 1.40735 57.5732 1.17268 58.4479 1.04468C58.8039 0.991342 59.1626 0.939346 59.5159 0.870013C59.9586 0.784679 60.4052 0.735344 60.8519 0.726011C62.0412 0.702011 63.2306 0.703343 64.4199 0.69001C65.0159 0.68201 65.6079 0.747341 66.1959 0.823341C66.8092 0.902008 67.4226 1.00734 68.0306 1.13668C69.1052 1.36601 70.1679 1.63935 71.1932 2.03668C72.0839 2.38201 72.9506 2.78067 73.7612 3.294C74.5972 3.826 75.3452 4.46467 76.0666 5.13801C76.1719 5.23667 76.2626 5.35134 76.3572 5.46067C76.7652 5.934 77.0879 6.46867 77.4479 6.978C77.5812 7.166 77.6879 7.37401 77.7946 7.57934C78.3079 8.56068 78.5026 9.62467 78.5746 10.714C78.6079 11.2047 78.5906 11.7007 78.5786 12.194C78.5692 12.5407 78.5186 12.8873 78.4066 13.2167C78.2119 13.7927 78.0239 14.3713 77.7919 14.9327C77.3746 15.9393 76.8239 16.8753 76.1999 17.7687C76.0012 18.054 75.7892 18.33 75.6066 18.6247C75.2319 19.2287 74.8812 19.846 74.4666 20.4233C74.2946 20.6647 74.2026 20.9327 74.1399 21.2193C74.0532 21.622 74.0612 22.0167 74.1319 22.4247C74.3012 23.4033 74.6746 24.2833 75.3146 25.0433C75.6732 25.4687 76.0879 25.826 76.6359 25.9953C77.0986 26.138 77.5426 26.1367 77.9652 25.862C78.1959 25.7127 78.4439 25.5887 78.6706 25.434C78.9586 25.2367 79.2706 25.0833 79.5839 24.9353C80.1079 24.6887 80.6572 24.5047 81.2119 24.3447C81.9612 24.1287 82.7212 23.9633 83.4959 23.858C83.8132 23.814 84.1306 23.7993 84.4466 23.766C85.1959 23.6873 85.9452 23.6287 86.6999 23.6287C87.9186 23.6287 89.1372 23.6287 90.3559 23.6207C90.6452 23.6193 90.9346 23.5833 91.2239 23.566C91.3679 23.558 91.5159 23.5313 91.6559 23.5553C92.0506 23.622 92.4332 23.5033 92.8226 23.4993C94.0106 23.2567 95.1839 22.954 96.3386 22.5793C97.3812 22.2407 98.4279 21.9087 99.4946 21.65C99.8866 21.5553 100.277 21.442 100.675 21.3727C101.029 21.3113 101.393 21.2927 101.753 21.266C102.013 21.2473 102.273 21.2393 102.532 21.206C102.817 21.1687 103.113 21.1807 103.401 21.202C103.833 21.2353 104.264 21.2913 104.693 21.3473C104.995 21.3847 105.296 21.426 105.592 21.4847C105.988 21.5647 106.38 21.6633 106.775 21.75C106.796 21.7553 106.832 21.738 106.847 21.718C106.861 21.6993 106.868 21.6593 106.857 21.6407C106.807 21.5527 106.753 21.466 106.693 21.386C106.623 21.2927 106.543 21.2087 106.469 21.1193C105.871 20.3713 105.251 19.6433 104.556 18.9807C104.304 18.7407 104.041 18.5127 103.787 18.2753C102.969 17.5113 102.083 16.8353 101.156 16.2113C99.2199 14.9073 97.1279 13.942 94.8866 13.294C94.2732 13.1167 93.6519 13.1047 93.0346 13.186C92.4052 13.27 91.7959 13.462 91.2239 13.754C90.9012 13.918 90.5706 14.0647 90.2426 14.2193C89.7332 14.4607 89.2612 14.3927 88.8226 14.0473C88.4106 13.7233 88.0306 13.3673 87.7106 12.9513C87.3652 12.5033 87.0266 12.0513 86.6892 11.5967C86.5666 11.4327 86.4306 11.286 86.2599 11.1713C86.0066 11.0033 85.7479 10.8407 85.5039 10.6607C85.0839 10.3513 84.6692 10.034 84.2599 9.71267C84.0519 9.54867 83.9012 9.33268 83.7866 9.09534C83.5372 8.57534 83.5906 8.08734 83.9546 7.63401C84.0759 7.48334 84.2292 7.37667 84.3972 7.29134C84.6172 7.17934 84.8399 7.07401 85.0612 6.96734C85.3012 6.85268 85.5052 6.68867 85.6599 6.47534C85.7439 6.35934 85.8052 6.22467 85.8639 6.09267C85.9626 5.86867 86.1279 5.71534 86.3479 5.61801C86.4546 5.57268 86.5639 5.53401 86.6746 5.50201C86.9372 5.42334 87.1999 5.34068 87.4666 5.27934C87.7079 5.22334 87.8799 5.08201 88.0279 4.89534C88.2066 4.66734 88.3812 4.43668 88.5692 4.21535C88.9159 3.80468 89.3572 3.59135 89.9012 3.60335C90.1186 3.60868 90.3372 3.59268 90.5546 3.61135C90.9119 3.64201 91.2146 3.56201 91.4266 3.25134C91.4332 3.23934 91.4466 3.23001 91.4572 3.22068C91.6772 3.01801 91.9292 2.89401 92.2359 2.88735C92.4092 2.88335 92.5812 2.84735 92.7532 2.83268C92.8692 2.82201 92.9879 2.80867 93.0999 2.82601C93.3999 2.87401 93.6959 2.93534 93.9679 3.08467C94.4639 3.35534 94.9879 3.56467 95.5066 3.78601C95.9466 3.97267 96.3772 4.18067 96.7719 4.45534C97.2479 4.78601 97.7132 5.13001 98.1532 5.50867C98.6146 5.90601 99.0852 6.29268 99.5639 6.67001C100.601 7.49001 101.713 8.19134 102.919 8.74201C103.248 8.89268 103.579 9.03934 103.903 9.19934C105.021 9.74734 106.175 10.2087 107.351 10.6153C107.815 10.7753 108.279 10.9393 108.755 11.058C109.593 11.2687 110.444 11.4367 111.285 11.638C111.861 11.7753 112.428 11.9433 113.001 12.0927C113.629 12.2567 114.248 12.4527 114.888 12.5767C115.425 12.682 115.959 12.8153 116.485 12.9647C117.807 13.3393 119.109 13.766 120.369 14.3207C120.807 14.5127 121.241 14.7087 121.644 14.97C121.777 15.0567 121.915 15.138 122.051 15.2207C122.485 15.4847 122.884 15.7967 123.255 16.1447C123.541 16.4127 123.848 16.6567 124.136 16.922C124.327 17.098 124.513 17.282 124.681 17.4807C124.981 17.834 125.265 18.2007 125.557 18.5607C125.831 18.9007 126.068 19.2633 126.249 19.662C126.328 19.834 126.397 20.006 126.395 20.2007C126.395 20.27 126.391 20.3487 126.472 20.3887V22.13Z" fill="#56A7DA"/>
</svg>
