<svg width="145" height="145" viewBox="0 0 145 145" fill="none" xmlns="http://www.w3.org/2000/svg">
<path d="M1.77131 25.3159C1.87931 25.3666 1.99665 25.4039 2.09265 25.4706C4.30998 27.0319 6.68198 28.3212 9.14465 29.4452C12.4233 30.9426 15.8313 32.0866 19.2673 33.1599C20.342 33.4959 21.382 33.9439 22.4393 34.3372C27.3793 36.1799 32.3806 37.8492 37.3713 39.5439C41.562 40.9679 45.7553 42.3826 49.878 43.9932C52.03 44.8332 54.1513 45.7506 56.306 46.5852C57.466 47.0346 58.5193 47.6772 59.6113 48.2519C60.1406 48.5306 60.6953 48.7612 61.2406 49.0079C61.3353 49.0506 61.4393 49.0812 61.542 49.0959C62.0486 49.1639 62.1726 49.0532 62.2046 48.5506C62.446 44.7719 61.2166 41.4612 58.966 38.4932C57.222 36.1932 54.9953 34.5106 52.346 33.3399C49.5086 32.0866 46.57 31.1786 43.5526 30.5066C40.3193 29.7866 37.0753 29.1092 33.8446 28.3799C30.5766 27.6426 27.3353 26.8026 24.2286 25.5226C21.914 24.5692 19.7246 23.3986 17.7886 21.7906C16.5433 20.7546 15.458 19.5732 14.546 18.2332C14.486 18.1466 14.4273 18.0572 14.3753 17.9652C14.3526 17.9239 14.3473 17.8719 14.3353 17.8252C14.382 17.8172 14.434 17.7932 14.4766 17.8052C14.6113 17.8452 14.7433 17.8986 14.8753 17.9452C17.65 18.9332 20.418 19.9346 23.198 20.9066C26.11 21.9239 29.0513 22.8506 32.058 23.5546C34.4073 24.1039 36.7553 24.6652 39.118 25.1559C40.5153 25.4466 41.9366 25.6279 43.3513 25.8186C43.8566 25.8866 44.3766 25.8372 44.89 25.8399C44.942 25.8399 44.998 25.8386 45.0473 25.8239C45.262 25.7559 45.534 25.7399 45.6006 25.4759C45.6593 25.2466 45.4846 25.0732 45.3273 24.9372C45.0086 24.6586 44.6926 24.3666 44.3366 24.1439C43.5126 23.6292 42.6766 23.1332 41.8246 22.6666C41.1726 22.3092 40.5206 21.9599 39.9646 21.4586C39.362 20.9132 38.754 20.3719 38.1726 19.8039C37.9633 19.5986 37.7993 19.3332 37.6673 19.0679C37.5366 18.8092 37.6433 18.6052 37.93 18.5612C38.1873 18.5226 38.4593 18.5319 38.718 18.5719C39.8886 18.7559 41.0073 19.1386 42.118 19.5386C44.4433 20.3759 46.7193 21.3346 48.938 22.4252C51.786 23.8239 54.4753 25.4786 56.946 27.4759C57.1926 27.6746 57.402 27.9199 57.6353 28.1372C57.8286 28.3172 58.0206 28.5052 58.234 28.6572C58.7193 29.0039 59.0393 28.8639 59.1113 28.2866C59.15 27.9719 59.1886 27.6559 59.2126 27.3399C59.2913 26.2839 59.494 25.2479 59.7046 24.2132C60.2726 21.4239 61.3166 18.8119 62.5673 16.2652C64.0126 13.3212 65.8873 10.6826 68.0486 8.23457C70.522 5.4319 73.3526 3.0439 76.4793 1.00256C76.6473 0.893229 76.8406 0.825232 77.0206 0.737232C77.0046 0.927899 76.9886 1.11857 76.9726 1.31057C76.7246 4.30123 75.8366 7.11589 74.6593 9.85723C73.8153 11.8239 72.806 13.7079 71.8086 15.5986C71.554 16.0826 71.278 16.5559 71.01 17.0346C70.3633 18.1906 69.9966 19.4332 69.8286 20.7439C69.6646 22.0146 69.7326 23.2879 69.746 24.5599C69.7473 24.6119 69.7633 24.6639 69.7726 24.7146C69.818 24.6959 69.87 24.6852 69.9073 24.6559C71.202 23.6626 72.7046 23.0919 74.218 22.5572C74.914 22.3119 75.6393 22.1466 76.3553 21.9626C76.5406 21.9159 76.7433 21.9119 76.934 21.9266C77.2553 21.9506 77.3406 22.1252 77.1633 22.3866C77.0353 22.5759 76.8846 22.7519 76.7353 22.9266C75.5353 24.3439 74.322 25.7506 73.1326 27.1772C72.1246 28.3879 71.198 29.6586 70.414 31.0292C69.534 32.5626 68.9273 34.1946 68.6993 35.9492C68.5686 36.9492 68.5806 37.9546 68.7313 38.9612C69.318 42.8852 70.478 46.6612 71.6806 50.4266C72.538 53.1146 73.3846 55.8066 74.2233 58.4999C74.438 59.1906 74.6033 59.8946 74.798 60.5919C74.99 61.2799 75.306 61.4106 75.922 61.0386C76.178 60.8839 76.422 60.7012 76.6406 60.4972C77.054 60.1106 77.466 59.7186 77.8406 59.2959C78.6753 58.3559 79.594 57.5039 80.5193 56.6546C82.2513 55.0626 83.942 53.4252 85.6633 51.8199C87.306 50.2879 88.962 48.7692 90.618 47.2506C91.23 46.6892 91.6433 45.9919 92.0113 45.2652C92.6193 44.0572 92.99 42.7666 93.1873 41.4372C93.4073 39.9532 93.5553 38.4586 93.7473 36.9706C93.9767 35.1852 94.2087 33.3986 94.802 31.6852C95.2833 30.2986 95.9793 29.0399 97.0126 27.9826C97.0753 27.9199 97.1353 27.8546 97.206 27.8039C97.2233 27.7906 97.306 27.8239 97.3126 27.8479C97.3313 27.9146 97.3273 27.9879 97.3273 28.0572C97.3326 28.4826 97.334 28.9066 97.342 29.3319C97.3846 31.6346 97.622 33.9106 98.2406 36.1372C98.358 36.5599 98.4127 37.0012 98.5247 37.4252C98.5913 37.6772 98.674 37.9399 98.8166 38.1532C99.0726 38.5332 99.3153 38.5999 99.7287 38.3932C100.089 38.2119 100.415 37.9652 100.754 37.7426C100.827 37.6946 100.886 37.6239 100.949 37.5626C102.069 36.4812 103.201 35.4119 104.299 34.3106C104.67 33.9386 104.998 33.5092 105.27 33.0586C105.825 32.1426 106.527 31.3466 107.254 30.5772C108.165 29.6132 109.102 28.6692 110.078 27.7732C111.434 26.5279 112.946 25.4772 114.463 24.4359C118.561 21.6239 122.994 19.4652 127.618 17.6746C131.517 16.1626 135.522 14.9879 139.577 13.9852C141.234 13.5746 142.915 13.2612 144.586 12.9066C144.649 12.8932 144.719 12.9239 144.786 12.9332C144.766 12.9959 144.757 13.0652 144.722 13.1186C144.054 14.1946 143.221 15.1252 142.27 15.9599C140.345 17.6492 138.115 18.8199 135.765 19.7732C133.51 20.6866 131.226 21.5266 128.977 22.4492C127.754 22.9506 126.557 23.5212 125.381 24.1239C124.182 24.7386 123.141 25.6026 122.091 26.4399C120.721 27.5332 119.457 28.7492 118.269 30.0386C117.019 31.3959 115.963 32.8946 115.003 34.4706C114.177 35.8266 114.955 36.9466 116.191 37.2986C117.075 37.5519 117.923 37.4786 118.73 36.9679C119.909 36.2212 121.21 35.7986 122.587 35.5919C123.339 35.4799 124.091 35.4039 124.854 35.3999C125.517 35.3946 126.145 35.1799 126.745 34.9346C127.707 34.5412 128.643 34.0866 129.59 33.6559C130.505 33.2399 131.418 32.8199 132.333 32.4039C132.477 32.3386 132.625 32.2799 132.775 32.2306C133.097 32.1252 133.094 32.1292 133.05 32.4466C132.898 33.5146 132.277 34.2959 131.473 34.9372C130.782 35.4866 130.047 35.9826 129.331 36.4986C128.686 36.9652 128.041 37.4279 127.507 38.0306C127.37 38.1839 127.177 38.2932 126.999 38.4066C125.749 39.1999 124.365 39.6772 122.945 40.0439C121.373 40.4492 119.767 40.6799 118.165 40.9266C115.622 41.3199 113.067 41.6559 110.623 42.5132C109.175 43.0212 107.829 43.7039 106.702 44.7679C105.921 45.5039 105.309 46.3599 104.865 47.3386C104.067 49.0932 102.971 50.6466 101.658 52.0519C100.166 53.6492 98.4606 54.9959 96.7206 56.3066C94.942 57.6466 93.142 58.9626 91.41 60.3612C90.2566 61.2919 89.1727 62.3186 88.118 63.3626C87.1393 64.3292 86.4286 65.4852 86.066 66.8332C85.8166 67.7586 85.8126 68.6826 86.03 69.6119C86.038 69.6452 86.0553 69.6772 86.0633 69.7119C86.2793 70.6826 86.694 71.0266 87.7033 71.0826C88.734 71.1399 89.75 71.0252 90.7566 70.8146C93.4046 70.2599 95.954 69.3839 98.4753 68.4199C101.247 67.3599 103.937 66.1199 106.511 64.6372C108.675 63.3892 110.727 61.9759 112.649 60.3826C114.39 58.9386 116.083 57.4346 117.798 55.9559C117.891 55.8746 117.978 55.7839 118.074 55.7079C118.121 55.6706 118.185 55.6546 118.241 55.6292C118.246 55.6972 118.273 55.7719 118.253 55.8319C118.007 56.6039 117.809 57.3972 117.493 58.1412C116.719 59.9599 115.631 61.5852 114.33 63.0746C112.951 64.6506 111.403 66.0492 109.841 67.4346C109.761 67.5052 109.677 67.5706 109.605 67.6479C109.559 67.6946 109.534 67.7599 109.499 67.8159C109.565 67.8346 109.63 67.8719 109.695 67.8706C110.542 67.8519 111.391 67.8519 112.237 67.7986C114.051 67.6839 115.767 67.1652 117.435 66.4639C119.334 65.6666 121.07 64.5812 122.77 63.4359C124.795 62.0706 126.701 60.5452 128.633 59.0572C130.565 57.5679 132.478 56.0546 134.589 54.8159C136.497 53.6972 138.469 52.7252 140.615 52.1452C140.955 52.0532 141.297 51.9652 141.638 51.8786C141.77 51.8466 141.855 51.9092 141.831 52.0412C141.795 52.2279 141.773 52.4399 141.667 52.5866C141.474 52.8559 141.257 53.1292 140.993 53.3239C140.366 53.7826 139.705 54.1932 139.062 54.6292C138.711 54.8679 138.361 55.1066 138.023 55.3626C137.554 55.7186 137.202 56.1692 136.875 56.6652C136.158 57.7572 135.401 58.8252 134.61 59.8666C133.302 61.5906 131.819 63.1586 130.198 64.5932C128.673 65.9426 127.029 67.1346 125.326 68.2519C122.093 70.3719 118.635 72.0386 115.029 73.4119C111.515 74.7492 107.926 75.8426 104.266 76.6932C101.487 77.3399 98.6927 77.9239 95.8953 78.4866C94.03 78.8612 92.1553 79.2052 90.2713 79.4639C87.7713 79.8079 85.658 80.9639 83.698 82.4466C80.6406 84.7599 78.458 87.7732 76.8393 91.2199C75.814 93.4052 75.1113 95.6959 74.654 98.0599C74.246 100.167 74.1273 102.3 74.17 104.447C74.2113 106.515 74.6446 108.505 75.2006 110.483C75.6446 112.061 76.086 113.643 76.4553 115.24C76.6606 116.129 76.706 117.056 76.8433 117.963C77.2633 120.735 77.6113 123.523 78.5366 126.191C79.0033 127.537 79.626 128.797 80.5553 129.891C81.714 131.256 83.1966 132.031 84.9446 132.349C85.6193 132.472 86.278 132.675 86.95 132.812C88.3313 133.092 89.714 133.367 91.102 133.617C93.6006 134.068 96.1126 134.457 98.5193 135.311C99.6726 135.72 100.775 136.228 101.791 136.915C101.922 137.003 102.043 137.105 102.163 137.209C102.177 137.22 102.157 137.303 102.133 137.315C102.089 137.337 102.03 137.335 101.977 137.34C100.906 137.452 99.8367 137.593 98.7633 137.669C97.4767 137.76 96.186 137.852 94.898 137.837C93.15 137.817 91.3993 137.761 89.658 137.571C88.482 137.441 87.2993 137.365 86.1273 137.213C84.5713 137.011 83.0206 136.763 81.4713 136.52C81.1606 136.471 80.882 136.5 80.5953 136.621C78.222 137.621 75.8446 138.608 73.474 139.615C70.8433 140.729 68.2086 141.831 65.4833 142.703C63.618 143.3 61.7233 143.785 59.7913 144.107C58.3273 144.349 56.85 144.505 55.3593 144.475C55.254 144.473 55.1473 144.473 55.0406 144.475C54.8633 144.476 54.758 144.403 54.8233 144.216C54.9206 143.935 54.994 143.631 55.1566 143.391C55.4326 142.983 55.7473 142.593 56.0873 142.237C56.786 141.509 57.5206 140.817 58.2246 140.096C58.57 139.743 58.902 139.371 59.2046 138.981C59.3753 138.763 59.5126 138.501 59.5993 138.239C59.7646 137.737 59.4113 137.303 58.882 137.349C58.126 137.415 57.3713 137.505 56.6166 137.593C55.8646 137.68 55.114 137.773 54.3633 137.869C53.4353 137.987 52.5086 138.111 51.582 138.232C50.8806 138.324 50.1806 138.416 49.4806 138.507C48.694 138.608 47.9086 138.712 47.1206 138.805C46.438 138.885 45.7526 138.957 45.0673 139.02C43.8713 139.128 42.6753 139.251 41.4766 139.324C40.2766 139.397 39.074 139.42 37.8713 139.461C37.8206 139.464 37.7686 139.444 37.7166 139.435C37.7593 139.392 37.794 139.336 37.8446 139.311C38.8913 138.791 39.9833 138.385 41.1086 138.081C42.8593 137.609 44.618 137.165 46.3713 136.7C47.6353 136.364 48.862 135.928 50.046 135.363C50.9006 134.955 51.6606 134.431 52.3206 133.747C53.7086 132.307 55.0553 130.832 56.206 129.189C57.942 126.712 59.1246 124.009 59.6673 121.023C60.0686 118.815 60.1086 116.596 60.054 114.367C60.0166 112.864 59.9833 111.361 59.9673 109.859C59.9526 108.567 59.9833 107.275 59.9646 105.983C59.9446 104.604 59.9273 103.223 59.8406 101.847C59.65 98.8292 59.2193 95.8506 58.218 92.9799C57.366 90.5359 56.0993 88.3359 54.4726 86.3159C52.342 83.6719 49.854 81.4439 47.0033 79.6146C43.282 77.2292 39.2393 75.6066 34.9406 74.6092C34.4246 74.4906 33.9206 74.6519 33.4206 74.7412C31.838 75.0226 30.318 75.5426 28.778 75.9852C26.27 76.7052 23.7446 77.3612 21.1806 77.8399C19.8806 78.0826 18.566 78.2692 17.238 78.3106C16.5846 78.3306 15.9313 78.3999 15.2793 78.3946C12.1726 78.3692 9.17265 77.8306 6.34065 76.5039C6.02065 76.3532 5.69131 76.2239 5.36998 76.0772C5.20998 76.0039 5.05265 75.9212 4.90198 75.8306C4.84998 75.7972 4.82065 75.7266 4.77931 75.6732C4.84998 75.6279 4.91398 75.5679 4.98998 75.5439C5.07265 75.5186 5.16598 75.5292 5.25398 75.5226C6.08198 75.4612 6.91131 75.4106 7.73798 75.3359C9.35931 75.1879 10.942 74.8319 12.5126 74.4146C14.6446 73.8492 16.7166 73.0999 18.7673 72.2932C20.0313 71.7959 21.3086 71.3239 22.546 70.7679C23.882 70.1692 25.3046 69.9252 26.7073 69.5892C27.6833 69.3546 28.6553 69.1039 29.6233 68.8412C29.8926 68.7679 30.158 68.6519 30.3993 68.5119C30.782 68.2879 30.786 68.0652 30.4033 67.8599C29.8593 67.5679 29.3086 67.2839 28.738 67.0532C27.2766 66.4612 25.7553 66.0706 24.1926 65.8706C22.6166 65.6692 21.0353 65.5226 19.4593 65.3239C17.9366 65.1332 16.414 64.9399 14.902 64.6812C14.1246 64.5492 13.37 64.2772 12.6073 64.0626C10.722 63.5359 8.84065 62.9946 7.02331 62.2572C5.26465 61.5439 3.58598 60.6839 2.09798 59.4919C1.64331 59.1279 1.22331 58.7199 0.791312 58.3279C0.745979 58.2866 0.725979 58.2172 0.695312 58.1612C0.744646 58.1466 0.793979 58.1252 0.845979 58.1199C1.38865 58.0532 1.93131 57.9746 2.47665 57.9292C4.50998 57.7626 6.53531 57.8172 8.55931 58.1012C10.2913 58.3426 11.9873 58.7492 13.6913 59.1252C15.738 59.5759 17.7873 60.0226 19.842 60.4319C20.5326 60.5692 21.25 60.5666 21.9486 60.6639C23.206 60.8386 24.466 60.9999 25.7113 61.2399C28.8513 61.8479 31.898 62.7839 34.8793 63.9399C38.094 65.1866 41.2033 66.6586 44.214 68.3319C46.1286 69.3959 47.9953 70.5439 49.906 71.6146C50.7193 72.0692 51.5833 72.4359 52.4353 72.8212C54.1886 73.6119 55.9673 74.3386 57.8273 74.8452C58.75 75.0959 59.6833 75.2906 60.65 75.2266C60.7726 75.2186 60.8993 75.2252 61.0206 75.2039C62.3153 74.9746 62.6246 74.0852 62.478 73.0359C62.3793 72.3306 62.1246 71.6706 61.8486 71.0199C61.1726 69.4266 60.5166 67.8252 59.806 66.2479C59.466 65.4919 59.334 64.7039 59.2246 63.8999C59.0686 62.7639 58.8886 61.6319 58.582 60.5239C58.166 59.0266 57.3313 57.7679 56.3606 56.5826C54.0486 53.7626 51.0766 51.9359 47.646 50.8052C45.9526 50.2479 44.2206 49.8346 42.4486 49.6146C41.17 49.4559 39.89 49.3026 38.6073 49.1959C37.358 49.0906 36.1033 49.0359 34.8513 48.9812C32.926 48.8959 30.9993 48.8386 29.074 48.7532C27.998 48.7052 26.9193 48.6559 25.8473 48.5492C24.67 48.4332 23.518 48.1666 22.374 47.8639C20.3593 47.3279 18.4153 46.5919 16.4673 45.8626C14.5846 45.1572 12.698 44.4666 10.8126 43.7692C10.7633 43.7506 10.7126 43.7332 10.666 43.7092C10.6193 43.6866 10.5766 43.6559 10.534 43.6292C10.5753 43.6106 10.6153 43.5826 10.6593 43.5759C11.0593 43.5079 11.458 43.4186 11.8606 43.3826C13.1113 43.2692 14.3633 43.2119 15.6206 43.3319C16.746 43.4412 17.8793 43.4719 19.002 43.6066C21.0246 43.8479 23.05 43.9626 25.086 43.8839C25.2606 43.8772 25.442 43.8652 25.6086 43.8159C26.1646 43.6506 26.3326 43.1559 25.9646 42.7146C25.786 42.5026 25.55 42.3319 25.3166 42.1746C24.522 41.6399 23.6326 41.2892 22.7513 40.9279C22.114 40.6679 21.4606 40.4466 20.8286 40.1772C18.0713 38.9986 15.2646 37.9386 12.5926 36.5652C10.5913 35.5372 8.67265 34.3812 6.94198 32.9346C4.86331 31.1959 3.17398 29.1586 2.16998 26.6106C2.00465 26.1906 1.90865 25.7412 1.78198 25.3052L1.77131 25.3159Z" fill="#56A7DA"/>
</svg>
