<svg width="125" height="131" viewBox="0 0 125 131" fill="none" xmlns="http://www.w3.org/2000/svg">
<path d="M95.3361 130.333C95.2748 130.301 95.2134 130.239 95.1534 130.241C94.7214 130.259 94.3107 130.153 93.9014 130.035C92.4814 129.627 91.0854 129.155 89.7788 128.45C89.0401 128.051 88.3521 127.577 87.7188 127.033C87.1428 126.538 86.5854 126.019 86.0627 125.47C85.4321 124.806 84.8428 124.103 84.2454 123.409C83.7308 122.809 83.2321 122.195 82.7228 121.591C82.3428 121.142 82.0508 120.637 81.8148 120.102C81.1774 118.654 80.5401 117.206 79.9254 115.747C79.5721 114.909 79.2441 114.057 78.9401 113.198C78.6214 112.294 78.3988 111.361 78.2254 110.419C78.0988 109.726 78.0454 109.018 77.9214 108.323C77.7654 107.442 77.6641 106.553 77.4854 105.673C77.1668 104.101 76.7494 102.558 76.2667 101.031C75.8787 99.8059 75.4748 98.5832 75.0668 97.3632C74.6748 96.1872 74.2627 95.0179 73.8707 93.8419C73.4894 92.6979 73.1294 91.5459 72.7441 90.4019C72.3748 89.3019 71.9841 88.2085 71.6028 87.1112C71.3961 86.5179 71.2081 85.9179 70.9774 85.3339C70.5974 84.3699 70.1961 83.4152 69.7947 82.4605C69.4361 81.6059 69.0588 80.7579 68.7001 79.9019C68.4081 79.2072 68.1534 78.4979 67.8441 77.8125C67.5841 77.2379 67.2787 76.6845 66.9801 76.1285C66.2174 74.7139 65.4588 73.2992 64.7881 71.8365C64.2748 70.7205 63.7374 69.6152 63.1934 68.5139C62.2774 66.6659 61.3348 64.8312 60.4268 62.9779C59.8668 61.8325 59.3548 60.6632 58.8134 59.5085C58.3854 58.5965 57.9414 57.6912 57.5094 56.7805C57.0507 55.8112 56.5934 54.8419 56.1441 53.8685C56.0468 53.6565 55.9814 53.4285 55.9188 53.2032C55.7534 52.6219 55.4601 52.0992 55.1947 51.5645C54.6547 50.4765 54.0854 49.4032 53.5748 48.3019C52.8521 46.7459 52.1588 45.1752 51.4774 43.6005C51.1468 42.8365 50.8334 42.0605 50.5801 41.2685C50.1454 39.9099 49.7801 38.5285 49.3521 37.1672C49.1174 36.4192 48.8134 35.6912 48.5441 34.9539C48.1494 33.8752 47.7641 32.7939 47.3654 31.7179C47.1628 31.1739 46.9508 30.6312 46.7201 30.0979C46.5121 29.6152 46.2308 29.1832 45.7868 28.8685C45.4361 28.6192 45.2374 28.7432 45.1041 29.0925C44.6281 30.3392 44.2081 31.6059 43.8828 32.9019C43.6454 33.8472 43.3894 34.7912 43.2334 35.7512C43.0774 36.7125 42.8334 37.6512 42.6241 38.5979C42.4308 39.4685 42.2054 40.3312 42.0094 41.2005C41.8894 41.7352 41.8081 42.2779 41.6894 42.8125C41.5241 43.5619 41.3521 44.3112 41.1628 45.0539C40.9188 46.0099 40.6281 46.9552 40.4041 47.9152C40.1054 49.1979 39.8548 50.4925 39.5734 51.7792C39.3841 52.6525 39.1721 53.5205 38.9801 54.3925C38.7614 55.3859 38.5574 56.3832 38.3374 57.3765C38.1788 58.0952 37.9961 58.8085 37.8348 59.5272C37.5854 60.6419 37.3494 61.7592 37.1001 62.8739C36.9774 63.4245 36.8428 63.9725 36.7054 64.5192C36.4081 65.7032 36.1041 66.8859 35.8054 68.0685C35.3521 69.8592 34.9094 71.6539 34.4454 73.4419C34.0668 74.8965 33.6654 76.3459 33.2681 77.7952C33.0281 78.6712 32.7841 79.5472 32.5308 80.4192C32.2774 81.2925 31.9921 82.1552 31.7574 83.0325C31.5761 83.7125 31.4521 84.4085 31.2961 85.0965C31.0468 86.2032 31.1081 87.3285 31.1054 88.4485C31.1028 89.6219 31.1134 90.7965 31.1081 91.9699C31.1054 92.8232 31.2254 93.6685 31.3268 94.5112C31.3948 95.0832 31.5934 95.6379 31.7268 96.2019C31.8428 96.6912 31.9521 97.1805 32.0534 97.6712C32.2361 98.5459 32.4081 99.4219 32.5868 100.298C32.7574 101.126 32.9294 101.954 33.1054 102.782C33.1734 103.103 33.2574 103.423 33.3348 103.743C33.5068 104.459 33.6881 105.174 33.8481 105.893C33.9081 106.167 33.9281 106.453 33.9494 106.735C33.9934 107.317 34.0161 107.899 34.0641 108.479C34.1081 109.011 34.1748 109.542 34.2294 110.073C34.2348 110.119 34.2348 110.167 34.2374 110.214C34.2734 110.845 34.2801 111.479 34.3534 112.105C34.5108 113.447 34.4308 114.793 34.4214 116.135C34.4161 116.855 34.3121 117.575 34.2548 118.294C34.2481 118.389 34.2508 118.485 34.2508 118.579C34.2548 119.165 34.1788 119.741 34.0761 120.317C34.0068 120.702 34.0121 121.099 33.9601 121.489C33.8588 122.25 33.7628 123.013 33.6214 123.766C33.4654 124.598 33.0641 125.325 32.5534 125.997C31.8388 126.937 30.9441 127.635 29.8348 128.046C29.6028 128.131 29.3534 128.214 29.1108 128.221C28.4961 128.239 27.8921 128.322 27.2841 128.394C26.9481 128.434 26.5961 128.362 26.2534 128.319C25.5854 128.237 24.9174 128.142 24.2508 128.047C23.3841 127.923 22.5201 127.786 21.6521 127.671C21.0161 127.587 20.3734 127.539 19.7361 127.459C19.3321 127.41 18.9321 127.334 18.5308 127.265C18.2388 127.214 17.9508 127.141 17.6574 127.101C16.8828 126.994 16.1041 126.917 15.3308 126.798C14.4494 126.663 13.5734 126.493 12.6934 126.349C11.9974 126.235 11.2988 126.151 10.6041 126.035C10.0961 125.949 9.58943 125.845 9.08809 125.726C8.23609 125.522 7.37876 125.329 6.53876 125.081C5.51476 124.778 4.50142 124.418 3.59609 123.837C2.51075 123.141 1.64808 122.227 1.16008 121.017C0.885417 120.333 0.697418 119.618 0.677418 118.869C0.656085 118.11 0.732094 117.359 0.845427 116.61C0.904094 116.222 0.909424 115.826 0.962757 115.438C1.04276 114.849 1.13876 114.262 1.23476 113.675C1.36143 112.901 1.48009 112.125 1.62543 111.354C1.80009 110.414 2.00542 109.481 2.18409 108.542C2.30676 107.901 2.57209 107.313 2.86543 106.742C3.43076 105.638 3.97075 104.523 4.45209 103.381C4.86809 102.395 5.29609 101.417 5.71743 100.434C6.20009 99.3085 6.62675 98.1605 7.00542 96.9952C7.56809 95.2659 8.14409 93.5392 8.69075 91.8045C9.15075 90.3405 9.57609 88.8645 10.0188 87.3952C10.3134 86.4205 10.6308 85.4525 10.9014 84.4725C11.2148 83.3405 11.4961 82.1992 11.7761 81.0579C11.9788 80.2352 12.1681 79.4099 12.3481 78.5819C12.5601 77.5992 12.7508 76.6125 12.9614 75.6312C13.0548 75.2019 13.1801 74.7792 13.2788 74.3499C13.3641 73.9832 13.4321 73.6125 13.5094 73.2445C13.6054 72.7845 13.7028 72.3245 13.8001 71.8645C13.9601 71.1139 14.1161 70.3605 14.2828 69.6112C14.4308 68.9539 14.5988 68.3019 14.7454 67.6445C14.9774 66.6045 15.1974 65.5619 15.4241 64.5205C15.7401 63.0672 16.0534 61.6139 16.3761 60.1619C16.5654 59.3045 16.7748 58.4525 16.9681 57.5979C17.2201 56.4819 17.4574 55.3645 17.7148 54.2499C17.9494 53.2285 18.2054 52.2112 18.4468 51.1912C18.7001 50.1259 18.9334 49.0552 19.1988 47.9925C19.5134 46.7312 19.8428 45.4725 20.1828 44.2179C20.6414 42.5219 21.1268 40.8339 21.6921 39.1699C22.3441 37.2512 23.0174 35.3379 23.6708 33.4192C24.1734 31.9472 24.6588 30.4699 25.1521 28.9952C25.6801 27.4165 26.2121 25.8405 26.7361 24.2619C26.9308 23.6712 27.2454 23.1432 27.5721 22.6232C28.3921 21.3205 29.3254 20.1045 30.4561 19.0512C31.3388 18.2285 32.1068 17.3019 32.8681 16.3712C33.0681 16.1259 33.2894 15.8965 33.4774 15.6432C33.7934 15.2179 34.0334 14.7552 33.9668 14.2005C33.9428 14.0005 33.9081 13.7872 33.8174 13.6112C33.6174 13.2192 33.4028 12.8299 33.1494 12.4712C32.8894 12.1019 32.4708 11.9072 32.0814 11.7059C31.9294 11.6272 31.7081 11.6459 31.5374 11.7699C31.3214 11.9272 31.0828 12.0592 30.8908 12.2405C30.0054 13.0792 29.1388 13.9379 28.2508 14.7739C27.9188 15.0872 27.5414 15.3539 27.1894 15.6459C26.6654 16.0792 26.1534 16.5272 25.6214 16.9499C24.9921 17.4525 24.3454 17.9339 23.7081 18.4259C22.2601 19.5459 20.8041 20.6565 19.3668 21.7912C18.7081 22.3099 18.0761 22.8619 17.4508 23.4179C16.6908 24.0939 16.1894 24.9472 15.8014 25.8779C15.6201 26.3125 15.4014 26.7325 15.1788 27.1485C15.1068 27.2819 14.9841 27.4059 14.8548 27.4899C14.3174 27.8379 13.7214 28.0299 13.0814 28.0459C12.6294 28.0565 12.4308 27.8645 12.3614 27.4032C12.3308 27.2019 12.3148 26.9979 12.2974 26.7952C12.2761 26.5512 12.1908 26.4592 11.9654 26.5392C11.7654 26.6099 11.5721 26.7365 11.4108 26.8779C10.5494 27.6312 9.63209 28.2992 8.57742 28.7512C8.18809 28.9179 7.78142 29.0605 7.37076 29.1539C6.82542 29.2765 6.38009 29.0205 6.01609 28.6445C5.78276 28.4059 5.82543 28.1005 5.94009 27.8072C6.07209 27.4712 6.18275 27.1245 6.33875 26.7992C6.46675 26.5325 6.63476 26.2805 6.81209 26.0432C6.97209 25.8285 7.17476 25.6459 7.34809 25.4392C8.00676 24.6512 8.83209 24.0752 9.69209 23.5299C10.6108 22.9445 11.5348 22.3579 12.4014 21.7005C13.0148 21.2339 13.5574 20.6685 14.0921 20.1099C14.7921 19.3779 15.4694 18.6219 16.1254 17.8499C16.8654 16.9792 17.6388 16.1432 18.4721 15.3619C19.2561 14.6245 20.0561 13.9059 20.9054 13.2432C21.3548 12.8939 21.7574 12.4859 22.1948 12.1205C23.2254 11.2579 24.2681 10.4072 25.3001 9.54586C25.7521 9.16853 26.2441 8.86319 26.7841 8.62719C28.0588 8.06853 29.3854 7.67386 30.7494 7.40453C31.4748 7.26186 32.2081 7.17253 32.9468 7.1032C33.7174 7.0312 34.4828 6.93386 35.2574 6.91786C35.8414 6.90586 36.4254 6.86853 37.0081 6.8272C37.6854 6.77786 38.3601 6.71119 39.0361 6.65252C39.4268 6.61786 39.8188 6.59119 40.2081 6.54052C40.3601 6.52186 40.5121 6.46319 40.6494 6.39386C40.9708 6.23119 41.0494 5.86319 40.7881 5.61919C40.5481 5.39652 40.2761 5.19252 39.9868 5.04052C39.5161 4.79252 39.0254 4.57652 38.5308 4.37786C37.9388 4.14052 37.4094 3.80453 36.9054 3.42319C36.8308 3.36586 36.7641 3.29653 36.6948 3.2312C36.2468 2.80587 36.3228 2.1872 36.7854 1.84453C37.3308 1.44186 37.9534 1.22186 38.6161 1.12186C39.3001 1.02053 39.9894 0.94319 40.6761 0.857857C40.7708 0.845857 40.8668 0.843198 40.9614 0.843198C42.0548 0.845865 43.1508 0.811197 44.2428 0.86453C45.5988 0.929863 46.9321 1.16986 48.2321 1.58986C48.7628 1.76053 49.1854 2.0672 49.5508 2.47253C49.9774 2.9472 49.9188 3.66719 49.4161 4.06052C49.0548 4.34452 48.6521 4.55786 48.2361 4.7512C47.9374 4.88986 47.6521 5.05519 47.3681 5.22319C47.2614 5.28586 47.1681 5.3792 47.0841 5.47253C46.8361 5.75253 46.7854 6.21119 47.2108 6.49919C47.5241 6.71253 47.8721 6.87386 48.2494 6.9192C48.8414 6.98853 49.4254 7.09786 50.0254 7.12986C50.6948 7.16586 51.3574 7.30452 52.0241 7.39652C52.2881 7.43252 52.5534 7.45386 52.8174 7.49253C53.6534 7.6152 54.4894 7.73519 55.3241 7.86719C56.0827 7.98853 56.8401 8.11519 57.5961 8.25786C59.1654 8.55253 60.6654 9.0792 62.1254 9.71253C62.6694 9.94853 63.1641 10.3032 63.6734 10.6179C64.3214 11.0179 64.8548 11.5605 65.4294 12.0525C66.5028 12.9725 67.5001 13.9672 68.5094 14.9499C68.8614 15.2925 69.2107 15.6352 69.4707 16.0592C69.5441 16.1779 69.6414 16.2859 69.7428 16.3859C70.5948 17.2179 71.2548 18.2085 72.0228 19.1112C72.5961 19.7832 73.1347 20.4859 73.7294 21.1379C74.4841 21.9672 75.3134 22.7299 76.0521 23.5725C77.1161 24.7859 78.4227 25.6365 79.8494 26.3405C80.3574 26.5912 80.8441 26.8885 81.3294 27.1819C81.7788 27.4539 82.0348 27.8512 82.0148 28.3952C82.0014 28.7365 81.7907 29.0112 81.3787 29.0045C80.9627 28.9979 80.5747 28.8725 80.1827 28.7645C79.9867 28.7112 79.7894 28.6459 79.5894 28.6259C79.3734 28.6045 79.2788 28.7792 79.3988 28.9659C79.4748 29.0832 79.5894 29.1765 79.6801 29.2859C80.1121 29.8099 80.5628 30.3219 80.9668 30.8672C81.2774 31.2859 81.4961 31.7592 81.5721 32.2885C81.6214 32.6299 81.5441 32.8472 81.2534 32.9925C81.0868 33.0752 80.9041 33.1592 80.7228 33.1765C80.1854 33.2299 79.6561 33.2112 79.1561 32.9459C78.6427 32.6725 78.1041 32.4485 77.5974 32.1645C77.2148 31.9499 76.8548 31.6899 76.5041 31.4245C76.1521 31.1565 75.8268 30.8552 75.4841 30.5739C75.0121 30.1885 74.6574 29.7045 74.3121 29.2125C73.7228 28.3725 73.1707 27.5045 72.5374 26.7005C72.0894 26.1325 71.5588 25.6192 71.0161 25.1379C70.1881 24.4032 69.3188 23.7165 68.4641 23.0125C67.9268 22.5712 67.3788 22.1432 66.8441 21.6979C66.4188 21.3432 66.0068 20.9739 65.5894 20.6112C65.0161 20.1125 64.4454 19.6125 63.8694 19.1179C63.3414 18.6659 62.8054 18.2205 62.2748 17.7699C61.7681 17.3392 61.2668 16.9032 60.7548 16.4779C59.9268 15.7872 59.1321 15.0619 58.3961 14.2725C58.2254 14.0872 58.0721 13.8845 57.9121 13.6885C57.4854 13.1645 56.8721 12.9352 56.2868 12.6645C56.1108 12.5845 55.9027 12.6725 55.8241 12.8832C55.6081 13.4512 55.2868 13.9712 55.1654 14.5872C55.0388 15.2325 55.0774 15.8392 55.3014 16.4392C55.4841 16.9299 55.7628 17.3712 56.0961 17.7752C56.8214 18.6539 57.5348 19.5405 58.2748 20.4072C59.0148 21.2725 59.7574 22.1405 60.5428 22.9645C61.1361 23.5859 61.6628 24.2552 62.1814 24.9339C63.1601 26.2139 64.1321 27.4979 65.1028 28.7845C65.7001 29.5792 66.2268 30.4112 66.6708 31.3112C67.3174 32.6259 68.0387 33.9072 68.8694 35.1205C69.0827 35.4339 69.3041 35.7472 69.4707 36.0859C70.0974 37.3632 70.8801 38.5485 71.6481 39.7405C72.5027 41.0672 73.2908 42.4299 74.0601 43.8072C74.7068 44.9632 75.4174 46.0845 76.1068 47.2165C77.4614 49.4419 78.8454 51.6499 80.1668 53.8952C80.7574 54.8979 81.2574 55.9592 81.7428 57.0179C82.3054 58.2459 82.8068 59.5019 83.3374 60.7445C83.7628 61.7419 84.1921 62.7392 84.6214 63.7352C85.1441 64.9472 85.6707 66.1579 86.1947 67.3685C86.8934 68.9832 87.5881 70.5992 88.2934 72.2112C89.0894 74.0272 89.8947 75.8392 90.6961 77.6539C91.0694 78.5005 91.4428 79.3499 91.8148 80.1979C92.1734 81.0165 92.6961 81.7312 93.2481 82.4205C94.3374 83.7765 95.3921 85.1579 96.4014 86.5739C97.3467 87.8979 98.3147 89.2045 99.4161 90.4112C100.535 91.6392 101.633 92.8859 102.708 94.1512C103.788 95.4219 104.992 96.5672 106.201 97.7072C107.159 98.6085 108.065 99.5592 108.924 100.554C109.783 101.549 110.651 102.534 111.496 103.539C112.228 104.41 112.947 105.293 113.651 106.186C114.481 107.242 115.311 108.301 116.104 109.383C117.101 110.743 118.072 112.123 119.036 113.509C119.648 114.387 120.224 115.293 120.821 116.182C121.612 117.359 122.313 118.587 122.975 119.842C123.371 120.591 123.807 121.321 124.196 122.074C124.353 122.375 124.433 122.718 124.552 123.041C124.572 123.095 124.611 123.145 124.64 123.197V124.434C124.617 124.454 124.583 124.47 124.573 124.495C124.377 125.023 124.211 125.566 123.979 126.078C123.82 126.431 123.611 126.782 123.349 127.066C122.94 127.514 122.379 127.753 121.808 127.937C121.273 128.109 120.727 128.243 120.189 128.41C119.556 128.606 118.915 128.717 118.247 128.719C117.489 128.722 116.732 128.777 115.975 128.809C115.959 128.81 115.943 128.809 115.927 128.811C115.167 128.903 114.407 129.001 113.645 129.085C112.991 129.157 112.335 129.215 111.679 129.277C110.975 129.342 110.271 129.409 109.567 129.465C109.001 129.509 108.436 129.535 107.871 129.57C107.824 129.573 107.773 129.562 107.729 129.575C107.131 129.754 106.508 129.626 105.9 129.737C105.425 129.825 104.931 129.761 104.443 129.83C103.885 129.91 103.315 129.855 102.748 129.93C102.188 130.003 101.619 129.942 101.052 130.025C100.525 130.102 99.9867 130.061 99.4507 130.115C98.5734 130.205 97.6881 130.201 96.8054 130.238C96.7427 130.241 96.6787 130.245 96.6187 130.261C96.5987 130.266 96.5881 130.307 96.5734 130.333H95.3361Z" fill="#DB4D97"/>
</svg>
