<svg width="134" height="134" viewBox="0 0 134 134" fill="none" xmlns="http://www.w3.org/2000/svg">
<path d="M0.904297 123.632V123.34C0.928297 123.182 0.970964 123.024 0.974964 122.866C1.0083 121.664 1.02563 120.462 1.06563 119.26C1.10963 117.96 1.1483 116.66 1.22963 115.363C1.4003 112.623 1.62163 109.886 1.77896 107.144C1.99763 103.348 2.17896 99.5512 2.36963 95.7538C2.44963 94.1632 2.4843 92.5698 2.59763 90.9818C2.77763 88.4511 2.90696 85.9205 2.9123 83.3845C2.93763 72.5778 3.12296 61.7685 2.5723 50.9672C2.4923 49.3938 2.41763 47.8192 2.33096 46.2445C2.2203 44.2338 2.09096 42.2231 1.9883 40.2098C1.89763 38.4578 1.83896 36.7031 1.75496 34.9498C1.5963 31.6885 1.42696 28.4272 1.26696 25.1645C1.21096 24.0285 1.1603 22.8925 1.12296 21.7552C1.0683 20.0832 0.980297 18.4058 1.29763 16.7485C1.7883 14.1831 2.84696 11.9472 4.96696 10.2952C6.67096 8.96582 8.33363 7.58582 10.2363 6.53649C12.4563 5.31382 14.719 4.18049 17.075 3.23782C18.743 2.57115 20.467 2.12982 22.2456 1.89248C23.8403 1.68048 25.4296 1.43382 27.0256 1.24182C27.927 1.13382 28.8376 1.09515 29.7443 1.04982C30.1403 1.02982 30.1643 1.07115 30.2736 1.46582C30.4723 2.18582 30.6616 2.90715 30.8643 3.62582C30.9123 3.79515 30.9856 3.96048 31.0683 4.11515C31.1296 4.22715 31.239 4.22448 31.2776 4.09782C31.323 3.94715 31.3536 3.78449 31.3536 3.62582C31.3563 2.84582 31.3416 2.06581 31.3416 1.28581C31.3416 0.97248 31.3643 0.948482 31.6643 0.929816C31.891 0.916482 32.1203 0.904484 32.3456 0.927151C32.9416 0.987151 33.535 1.07381 34.1296 1.13781C34.8883 1.22048 35.651 1.27382 36.407 1.37115C38.3083 1.61248 40.2083 1.86049 42.1056 2.12582C43.3443 2.29782 44.579 2.49649 45.8123 2.70049C46.443 2.80449 46.6523 3.12849 46.483 3.73649C46.3056 4.37782 46.091 5.00715 45.899 5.64315C45.8096 5.93782 45.7163 6.23382 45.6603 6.53515C45.475 7.53515 45.719 8.47115 46.139 9.36849C46.5603 10.2698 46.5816 11.1751 46.2976 12.1178C46.1296 12.6751 46.0003 13.2498 45.9123 13.8245C45.791 14.6191 45.851 15.4138 46.0936 16.1858C46.1163 16.2552 46.1723 16.3138 46.2123 16.3778C46.235 16.3178 46.2696 16.2592 46.2776 16.1978C46.3336 15.7312 46.4096 15.2672 46.431 14.7992C46.459 14.1832 46.4376 13.5658 46.5976 12.9605C46.9896 11.4738 47.015 9.97248 46.7163 8.46848C46.5816 7.78715 46.595 7.11514 46.731 6.43781C46.895 5.61781 47.147 4.83781 47.6216 4.13915C47.8563 3.79515 48.007 3.73649 48.4016 3.88449C48.659 3.98049 48.9136 4.08982 49.163 4.20715C50.0216 4.60582 50.911 4.89915 51.839 5.09382C52.4576 5.22448 53.075 5.37648 53.675 5.57382C54.5163 5.84982 55.371 6.01782 56.255 6.03382C57.0176 6.04715 57.7816 6.03781 58.5456 6.04581C59.1776 6.05248 59.3536 6.22182 59.415 6.83782C59.4816 7.50048 59.5496 8.16315 59.631 8.82448C59.6496 8.98181 59.7096 9.13648 59.7683 9.28448C59.8216 9.42181 59.927 9.44982 60.0256 9.32982C60.1176 9.21782 60.203 9.09648 60.267 8.96715C60.619 8.25515 60.9656 7.53915 61.3123 6.82448C61.3416 6.76581 61.3683 6.70715 61.3896 6.64582C61.4976 6.34849 61.4523 6.22982 61.1696 6.11115C61.0496 6.06048 60.9176 6.04315 60.7963 5.99782C60.447 5.86849 60.0803 5.76982 59.7563 5.59248C59.155 5.26582 59.0136 4.72048 59.403 4.15515C60.0163 3.26581 60.7563 2.48981 61.6963 1.93381C62.331 1.55781 63.0083 1.51115 63.7176 1.70981C64.591 1.95515 65.4696 2.18315 66.3496 2.40715C66.5683 2.46182 66.7976 2.48048 67.0243 2.50581C68.5696 2.68048 70.111 2.58048 71.6416 2.37648C73.9603 2.06981 76.271 1.70449 78.5883 1.38715C79.3923 1.27649 80.2043 1.21648 81.0136 1.16982C81.5643 1.13915 82.0936 1.26315 82.467 1.71381C82.7043 2.00048 82.9083 2.31648 83.1043 2.63382C83.2976 2.94715 83.3056 3.28714 83.1136 3.60448C82.971 3.83914 82.7976 4.05381 82.6296 4.27114C82.3323 4.65248 81.959 4.99648 81.9376 5.52315C81.8856 6.84448 81.983 8.15381 82.3336 9.43515C82.3736 9.57648 82.4883 9.69782 82.5683 9.82849C82.6203 9.68582 82.6723 9.54181 82.7216 9.39781C82.727 9.38315 82.7243 9.36582 82.723 9.34982C82.631 8.40982 82.9363 7.55515 83.2883 6.71248C83.539 6.10981 83.7803 5.97115 84.4176 6.07249C84.979 6.16182 85.543 6.24315 86.0963 6.36982C87.0563 6.58849 87.9936 6.53915 88.9336 6.25782C90.3803 5.82449 91.8323 5.41382 93.2843 4.99782C93.5016 4.93649 93.727 4.86048 93.9483 4.85915C95.347 4.84715 96.7443 4.84581 98.1416 4.85781C98.551 4.86048 98.7723 5.04981 98.8843 5.43781C98.943 5.64048 98.9696 5.85115 99.0136 6.05782C99.2416 7.13782 99.459 8.22048 99.7083 9.29648C99.751 9.48048 99.9283 9.63248 100.044 9.79915C100.099 9.63115 100.167 9.46582 100.206 9.29382C100.243 9.12049 100.254 8.94048 100.271 8.76315C100.339 8.06715 100.387 7.36981 100.48 6.67781C100.516 6.41248 100.614 6.14048 100.747 5.90715C101.06 5.36182 101.346 5.25648 101.964 5.38048C102.807 5.55115 103.651 5.72315 104.496 5.88582C104.702 5.92449 104.916 5.94848 105.124 5.93781C105.488 5.91914 105.684 5.67249 105.631 5.31249C105.608 5.15515 105.543 5.00182 105.492 4.84849C105.224 4.04449 105.147 3.22714 105.358 2.40048C105.502 1.83114 105.886 1.27915 106.736 1.24182C107.32 1.21515 107.88 1.31248 108.383 1.59248C108.948 1.90715 109.506 2.24982 110.018 2.64182C114.264 5.89382 118.391 9.29248 122.423 12.8045C123.892 14.0845 125.319 15.4165 126.758 16.7311C127.327 17.2511 127.791 17.8552 128.122 18.5538C128.636 19.6432 128.679 20.7378 128.17 21.8472C128.008 22.2005 127.875 22.5671 127.751 22.9365C127.466 23.7805 127.018 24.5271 126.406 25.1711C126.059 25.5365 125.695 25.8858 125.319 26.2205C124.724 26.7498 124.11 27.2565 123.51 27.7818C123.379 27.8965 123.267 28.0378 123.168 28.1832C123.058 28.3458 123.171 28.4551 123.316 28.4298C123.514 28.3951 123.727 28.3271 123.884 28.2085C124.702 27.5938 125.627 27.2111 126.582 26.8765C127.118 26.6898 127.636 26.7098 128.143 26.9485C128.495 27.1138 128.839 27.2978 129.18 27.4858C130.652 28.2978 131.8 29.4485 132.662 30.8832C133.266 31.8885 133.556 32.9911 133.666 34.1591C133.818 35.7831 133.871 37.4005 133.648 39.0218C133.398 40.8392 133.171 42.6605 132.922 44.4778C132.734 45.8471 132.502 47.2085 132.035 48.5151C131.594 49.7525 131.124 50.9792 130.675 52.2138C130.359 53.0818 129.988 53.9378 129.758 54.8285C129.208 56.9498 128.695 59.0805 128.226 61.2205C127.639 63.9005 127.072 66.5845 126.574 69.2818C126.275 70.8925 126.11 72.5285 125.914 74.1565C125.803 75.0752 125.747 76.0005 125.671 76.9231C125.546 78.4298 125.407 79.9325 125.423 81.4485C125.462 84.9578 125.471 88.4685 125.499 91.9792C125.53 95.6845 125.562 99.3898 125.604 103.095C125.643 106.427 125.68 109.759 125.748 113.09C125.782 114.714 125.846 116.339 125.96 117.959C126.199 121.35 126.287 124.743 126.234 128.142C126.218 129.222 126.004 130.242 125.571 131.211C125.067 132.335 124.166 132.96 122.934 133.091C122.663 133.119 122.392 133.156 122.123 133.19H121.732C121.511 133.163 121.288 133.118 121.066 133.115C119.44 133.096 117.816 133.087 116.191 133.072C115.259 133.064 114.335 132.962 113.456 132.652C110.64 131.66 107.776 130.808 105.026 129.627C103.626 129.026 102.178 128.535 100.742 128.02C99.8603 127.704 98.9416 127.598 98.0056 127.683C96.8896 127.786 95.7736 127.896 94.659 128.003C93.927 128.074 93.8456 127.994 93.8323 127.258C93.8096 126.154 93.811 125.048 93.739 123.947C93.6376 122.406 93.3803 120.887 92.9176 119.404C92.7163 118.758 92.6203 118.078 92.4696 117.414C92.439 117.275 92.391 117.136 92.331 117.006C92.2776 116.891 92.167 116.871 92.1256 116.999C92.063 117.195 92.007 117.406 92.0136 117.607C92.0576 118.858 92.1083 120.108 92.179 121.358C92.2883 123.271 92.4203 125.184 92.535 127.098C92.5616 127.551 92.599 128.011 92.551 128.459C92.4936 128.991 92.139 129.114 91.6816 128.839C91.4203 128.683 91.1403 128.547 90.8536 128.45C90.1003 128.195 89.3363 127.97 88.5803 127.727C87.4963 127.378 86.3923 127.255 85.2616 127.407C84.4563 127.514 83.6536 127.634 82.847 127.734C81.1443 127.944 79.4936 128.322 77.963 129.143C77.5096 129.387 77.015 129.572 76.5203 129.722C75.1416 130.139 73.883 129.896 72.7936 128.93C72.491 128.66 72.1976 128.376 71.9283 128.075C71.3403 127.42 71.1203 126.647 71.2376 125.774C71.291 125.371 71.3403 124.967 71.3683 124.563C71.431 123.64 71.3203 122.746 70.8683 121.92C70.743 121.691 70.575 121.403 70.315 121.451C70.0923 121.491 70.0043 121.798 69.963 122.047C69.8963 122.448 69.8296 122.848 69.7536 123.247C69.627 123.9 69.5056 124.555 69.355 125.203C69.219 125.786 68.9016 126.276 68.327 126.479C67.5643 126.747 66.7803 126.964 65.9923 127.147C65.6536 127.227 65.279 127.203 64.9283 127.163C64.4296 127.108 63.9336 127.011 63.443 126.903C62.363 126.667 61.2803 126.619 60.207 126.89C59.4043 127.092 58.615 127.346 57.8256 127.594C57.3616 127.739 56.907 127.915 56.451 128.086C55.763 128.343 55.1723 128.207 54.6936 127.647C54.4416 127.351 54.1936 127.05 53.975 126.728C53.7776 126.44 53.5456 126.276 53.1843 126.242C51.795 126.106 50.4096 125.91 49.0176 125.804C46.307 125.602 43.5963 125.574 40.887 125.863C38.5336 126.114 36.235 126.579 34.0656 127.566C33.947 127.619 33.8283 127.674 33.7056 127.715C33.335 127.842 33.2216 127.779 33.1016 127.392C33.0923 127.362 33.0896 127.328 33.0803 127.298C32.6936 125.907 32.303 124.516 31.9203 123.124C31.8643 122.922 31.8216 122.712 31.8083 122.503C31.703 120.85 31.607 119.195 31.507 117.542C31.5016 117.444 31.5096 117.343 31.4843 117.252C31.4643 117.183 31.4016 117.126 31.3576 117.064C31.2976 117.114 31.2003 117.152 31.183 117.214C31.0936 117.542 30.9976 117.872 30.9536 118.207C30.6483 120.542 30.3643 122.879 30.0563 125.214C29.9403 126.099 29.787 126.979 29.635 127.859C29.5403 128.41 29.395 128.527 28.8603 128.512C26.9123 128.46 24.9616 128.435 23.0203 128.216C21.8376 128.083 20.699 127.814 19.5896 127.347C18.531 126.9 17.4216 126.571 16.3203 126.232C15.6283 126.019 14.991 126.15 14.4176 126.652C13.6456 127.332 12.9336 128.06 12.315 128.883C11.6176 129.812 10.7123 130.446 9.57496 130.707C9.11763 130.812 8.64696 130.87 8.17763 130.91C6.4443 131.059 4.8883 130.655 3.6163 129.4C3.3963 129.183 3.16563 128.976 2.9603 128.747C1.73496 127.383 0.99763 125.818 0.982964 123.952C0.982964 123.846 0.932297 123.739 0.904297 123.632Z" fill="#FDD7A7"/>
</svg>
