<svg width="131" height="140" viewBox="0 0 131 140" fill="none" xmlns="http://www.w3.org/2000/svg">
<path d="M106.67 0.417489C107.514 23.6308 106.44 47.5135 107.059 70.8601C112.855 67.3201 118.607 63.4175 124.602 62.8228C125.479 62.9788 126.37 63.4855 127.274 63.2335C128.368 63.4228 129.514 64.4441 130.336 66.1561C127.23 77.7428 107.476 85.5575 101.92 81.7881C101.323 81.4681 100.878 80.4855 100.826 79.1148C100.718 76.2455 100.075 73.7935 99.8149 71.0495C98.5816 61.2868 97.8083 51.1775 96.2069 41.8588C95.3256 40.7908 94.3003 42.4988 93.3523 42.1295C91.7736 42.5321 90.2149 42.8868 88.6509 43.3148C87.9243 43.3401 87.1989 43.2695 86.4869 43.8161C85.4896 44.2001 84.4216 43.5588 83.4283 44.4135C82.5149 44.7895 81.5349 44.1975 80.6256 45.0068C79.7989 45.3882 78.9043 44.8295 78.0803 45.5975C66.5309 47.9041 54.8763 50.7895 43.3296 53.2001C43.2389 53.6948 43.3936 53.8881 43.5309 54.0975C45.5056 56.5228 47.4869 58.9201 49.4523 61.3815C57.2603 71.2375 65.0656 81.1081 72.9256 90.7375C83.1123 103.84 93.2416 116.639 103.76 128.333C108.278 124.2 113.127 122.732 117.943 121.841C121.526 121.74 125.331 121.227 128.227 127.001C126.427 137.781 110.184 140.708 105.619 139.723C103.238 140.648 99.7989 133.811 97.4243 131.861C93.2083 126.901 88.9989 121.876 84.7243 117.227C67.0536 95.8561 48.9843 76.4815 31.1456 55.7775C21.0936 44.3015 11.0989 32.5228 0.978948 21.3855C0.661615 21.0242 0.11095 20.8175 0.253617 19.6775C0.36295 18.8028 0.84961 19.1935 1.17361 19.1602C1.77228 19.0975 2.36961 19.1988 2.95228 18.6788C3.99494 18.2815 5.09227 18.8642 6.13894 18.0495C15.3109 16.7188 24.5189 15.0881 33.6883 13.1121C42.2576 11.6268 50.8789 10.4042 59.4589 8.48148C68.7816 6.73082 78.1856 5.36682 87.5243 3.46015C93.6469 2.73615 100.567 0.416155 106.67 0.417489Z" fill="#DB4D97"/>
</svg>
