<svg width="132" height="133" viewBox="0 0 132 133" fill="none" xmlns="http://www.w3.org/2000/svg">
<path d="M0.0136719 36.9852C0.0390052 36.9306 0.0830052 36.8772 0.0870052 36.8212C0.160339 35.8386 0.216339 34.8546 0.300339 33.8746C0.353672 33.2479 0.437672 32.6226 0.523005 31.9999C0.668338 30.9452 0.837672 29.8932 0.972338 28.8372C1.38167 25.6212 2.48701 22.6493 4.09234 19.8479C5.36434 17.6293 6.84834 15.5559 8.39767 13.5279C9.04434 12.6812 9.68567 11.8252 10.4043 11.0399C11.9763 9.32125 13.8617 7.98391 15.8337 6.76924C19.4377 4.54791 23.3323 3.02525 27.423 1.97992C29.6457 1.41192 31.8923 0.971915 34.171 0.703915C34.907 0.618581 35.6497 0.562578 36.3897 0.543911C37.423 0.518578 38.459 0.514585 39.4923 0.549252C40.7177 0.591918 41.9363 0.71325 43.1563 0.847917C44.871 1.03725 46.5003 1.55324 48.1457 2.01058C49.5283 2.39458 50.911 2.79324 52.2577 3.28791C54.6723 4.17324 56.847 5.50392 58.843 7.12259C62.6857 10.2399 65.599 14.0772 67.6737 18.5612C68.931 21.2786 69.859 24.1092 70.6137 27.0012C70.6457 27.1252 70.6777 27.2506 70.699 27.3772C70.7523 27.7026 70.675 27.9972 70.4257 28.2146C70.1697 28.4372 69.9057 28.6519 69.6243 28.8372C66.775 30.7079 63.919 32.5653 61.0723 34.4373C59.2777 35.6186 57.5017 36.8266 55.707 38.0066C55.1003 38.4052 54.4617 38.7546 53.8377 39.1279C53.6617 39.2346 53.4177 39.3132 53.4417 39.5652C53.4683 39.8199 53.7217 39.8546 53.9217 39.9013C54.6123 40.0626 55.307 40.2039 55.9977 40.3692C57.9577 40.8372 59.9137 41.3279 61.8777 41.7826C62.7883 41.9932 63.7163 42.1292 64.6323 42.3199C65.3897 42.4786 66.1443 42.6506 66.891 42.8532C67.163 42.9266 67.4377 43.0652 67.6563 43.2426C68.099 43.6012 68.1657 44.1732 67.8123 44.6239C67.1857 45.4252 66.555 46.2266 65.875 46.9812C64.6657 48.3279 63.415 49.6359 62.1883 50.9666C60.6657 52.6186 59.151 54.2759 57.635 55.9333C57.5057 56.0759 57.383 56.2306 57.2857 56.3973C57.119 56.6839 57.155 56.9092 57.399 57.1332C57.5283 57.2519 57.679 57.3533 57.831 57.4426C58.9723 58.1133 60.115 58.7812 61.2603 59.4452C62.2097 59.9946 63.1883 60.5012 64.1097 61.0959C64.9497 61.6372 65.7323 62.2652 66.535 62.8639C66.8137 63.0719 66.867 63.3306 66.7457 63.6746C66.2003 65.2093 65.671 66.7493 65.1523 68.2933C64.511 70.2026 63.8843 72.1186 63.2523 74.0319C63.2323 74.0932 63.2043 74.1519 63.1883 74.2146C63.139 74.4026 63.203 74.5253 63.391 74.5826C63.483 74.6106 63.5817 74.6186 63.679 74.6226C66.1497 74.7399 68.5803 75.1799 71.019 75.5519C71.4817 75.6226 71.943 75.7039 72.407 75.7639C72.6457 75.7959 72.8363 75.8999 72.9937 76.0706C73.239 76.3346 73.279 76.5959 73.1083 76.9132C72.987 77.1399 72.835 77.3519 72.7057 77.5746C71.6857 79.3239 70.427 80.9026 69.235 82.5306C67.7443 84.5666 66.1137 86.4866 64.5017 88.4239C63.943 89.0932 63.4083 89.7826 62.8723 90.4706C62.5297 90.9106 62.5657 91.1866 63.0123 91.5279C64.4123 92.5973 65.815 93.6612 67.2217 94.7212C67.483 94.9186 67.7323 95.1146 67.839 95.4426C67.9537 95.7986 67.963 96.1279 67.719 96.4492C67.1417 97.2079 66.5817 97.9786 66.0137 98.7439C64.2043 101.183 62.4057 103.628 60.5803 106.055C59.8537 107.02 60.099 107.733 60.8683 108.404C62.247 109.601 63.5857 110.844 64.9417 112.065C65.1577 112.26 65.3897 112.439 65.6003 112.637C66.067 113.079 66.0643 113.545 65.5883 113.969C64.6697 114.785 63.743 115.591 62.8217 116.403C62.6043 116.595 62.383 116.784 62.1803 116.992C61.8683 117.313 61.7937 117.689 61.979 118.107C62.0443 118.253 62.111 118.4 62.1803 118.545C62.5283 119.272 62.8697 120.003 63.2297 120.724C63.683 121.632 64.1523 122.533 64.6163 123.437C65.007 124.197 65.3883 124.963 65.7923 125.716C66.2883 126.64 66.8097 127.549 67.3057 128.472C67.4337 128.711 67.5243 128.971 67.6043 129.231C67.6483 129.372 67.5417 129.456 67.4123 129.392C67.2563 129.312 67.1043 129.216 66.9683 129.105C64.2363 126.883 61.487 124.679 58.7803 122.427C54.4443 118.82 50.2083 115.096 46.0537 111.283C41.2177 106.845 36.531 102.255 31.955 97.5506C27.4883 92.9599 23.299 88.1293 19.355 83.0839C17.375 80.5519 15.4323 77.9919 13.6337 75.3252C11.6723 72.4199 9.85367 69.4306 8.25767 66.3079C6.163 62.2092 4.351 57.9919 2.90701 53.6172C1.98567 50.8266 1.24301 47.9892 0.720338 45.0972C0.436338 43.5252 0.199005 41.9453 0.0883385 40.3493C0.0843385 40.2933 0.0390052 40.2399 0.0136719 40.1852V36.9852Z" fill="#DB4C97"/>
<path d="M75.4046 72.6285C73.45 72.6485 71.4953 72.6685 69.5393 72.6872C69.3793 72.6885 69.2126 72.6952 69.058 72.6618C68.7046 72.5872 68.574 72.3485 68.7086 72.0165C68.7726 71.8552 68.8806 71.7058 68.99 71.5685C69.598 70.8138 70.2113 70.0632 70.8233 69.3112C73.314 66.2552 75.8033 63.2005 78.2926 60.1432C78.6086 59.7552 78.9366 59.3752 79.2273 58.9685C79.554 58.5112 79.4673 58.2832 78.922 58.1418C76.9553 57.6298 74.9993 57.0645 73.014 56.6405C70.39 56.0805 67.834 55.2885 65.2673 54.5285C65.098 54.4778 64.9286 54.4125 64.7793 54.3218C64.5166 54.1605 64.4713 53.9605 64.642 53.7072C64.7286 53.5765 64.8553 53.4645 64.9806 53.3658C66.4046 52.2498 67.8566 51.1818 69.4113 50.2418C71.0686 49.2405 72.6513 48.1152 74.2633 47.0405C77.65 44.7818 81.034 42.5218 84.418 40.2605C84.6326 40.1165 84.8446 39.9672 85.0393 39.7992C85.218 39.6418 85.1833 39.5298 84.938 39.4818C84.75 39.4445 84.554 39.4378 84.3606 39.4365C80.6766 39.4258 76.9913 39.4285 73.306 39.4032C71.4486 39.3912 69.5913 39.3285 67.7326 39.2845C67.5566 39.2805 67.378 39.2592 67.2046 39.2258C66.9833 39.1832 66.942 39.1125 66.9646 38.8872C67.002 38.5232 67.194 38.2672 67.4926 38.0618C68.4766 37.3832 69.4553 36.6965 70.43 36.0058C72.4206 34.5952 74.4073 33.1818 76.394 31.7645C76.6033 31.6152 76.8046 31.4498 76.994 31.2752C77.318 30.9752 77.6046 30.6338 77.686 30.1898C77.838 29.3672 78.3633 28.8539 79.042 28.4579C79.6566 28.1005 80.2726 27.7485 80.8966 27.4072C82.5806 26.4845 84.266 25.5618 85.958 24.6512C87.2553 23.9525 88.622 23.4138 90.026 22.9752C91.4886 22.5192 92.9486 22.0512 94.426 21.6485C95.97 21.2285 97.55 21.0005 99.146 20.8632C100.697 20.7298 102.249 20.7058 103.795 20.8192C108.859 21.1898 113.469 22.8205 117.55 25.8805C121.629 28.9378 124.903 32.7018 127.447 37.1085C128.694 39.2672 129.726 41.5258 130.365 43.9418C130.709 45.2485 130.955 46.5845 131.211 47.9138C131.382 48.8005 131.498 49.6978 131.629 50.5912C131.801 51.7618 131.823 52.9338 131.737 54.1165C131.637 55.4552 131.469 56.7818 131.206 58.0965C130.679 60.7325 129.83 63.2658 128.699 65.7058C126.947 69.4872 124.643 72.9005 121.805 75.9485C120.573 77.2725 119.301 78.5618 118.017 79.8365C117.33 80.5178 116.587 81.1458 115.854 81.7792C114.693 82.7832 113.511 83.7632 112.349 84.7658C110.889 86.0245 109.27 87.0658 107.695 88.1672C103.381 91.1858 99.046 94.1752 94.7313 97.1952C92.0033 99.1045 89.3633 101.133 86.9153 103.395C85.026 105.141 83.2433 106.991 81.5673 108.943C80.4526 110.243 79.3793 111.575 78.4593 113.026C76.8873 115.507 75.7033 118.171 74.7966 120.955C74.2873 122.518 73.8233 124.099 73.4273 125.694C73.1553 126.786 73.018 127.913 72.8526 129.029C72.7233 129.89 72.6433 130.759 72.542 131.625C72.534 131.689 72.5246 131.753 72.5073 131.814C72.434 132.067 72.302 132.111 72.1446 131.911C71.8633 131.558 71.5553 131.213 71.3473 130.818C70.7953 129.771 70.098 128.821 69.4833 127.817C68.3393 125.943 67.1953 124.07 66.0806 122.181C65.3433 120.93 64.6566 119.65 63.9486 118.383C63.894 118.285 63.846 118.182 63.802 118.078C63.6486 117.709 63.702 117.465 64.0393 117.245C64.7966 116.751 65.5566 116.259 66.334 115.799C67.862 114.894 69.4033 114.011 70.9393 113.121C71.2473 112.942 71.5686 112.787 71.8673 112.597C72.2033 112.381 72.2126 112.206 71.8886 111.967C71.3286 111.557 70.758 111.161 70.1833 110.771C67.9086 109.229 65.698 107.601 63.5926 105.833C63.3833 105.657 63.17 105.478 62.9953 105.27C62.782 105.017 62.7793 104.786 62.978 104.518C63.1206 104.325 63.294 104.149 63.4753 103.991C65.7953 101.981 68.118 99.9725 70.442 97.9672C71.1393 97.3658 71.8473 96.7752 72.55 96.1792C72.562 96.1685 72.574 96.1592 72.586 96.1485C73.0006 95.7845 73.0046 95.6205 72.5713 95.2712C70.4713 93.5778 68.366 91.8912 66.262 90.2018C66.2113 90.1618 66.1566 90.1272 66.106 90.0858C65.6833 89.7432 65.63 89.3338 65.9566 88.9032C66.0246 88.8138 66.1046 88.7298 66.1886 88.6565C67.798 87.2498 69.2526 85.6898 70.7366 84.1565C72.03 82.8218 73.3713 81.5338 74.6566 80.1912C76.1086 78.6738 77.5166 77.1138 78.954 75.5818C79.7726 74.7112 80.6166 73.8618 81.4446 72.9992C81.5726 72.8672 81.7553 72.7618 81.7393 72.5352C81.566 72.5192 81.3926 72.4885 81.2206 72.4912C79.282 72.5245 77.3433 72.5645 75.4046 72.6018C75.4046 72.6112 75.4046 72.6192 75.4046 72.6285Z" fill="#DB4C97"/>
</svg>
