<svg width="139" height="138" viewBox="0 0 139 138" fill="none" xmlns="http://www.w3.org/2000/svg">
<path d="M56.2487 0.275631H67.3994C68.134 0.516964 68.8714 0.750307 69.6034 0.99964C70.182 1.19831 70.714 1.49431 71.198 1.86897C71.5874 2.17164 71.6354 2.48364 71.3407 2.87297C71.21 3.04364 71.046 3.2063 70.8647 3.31964C70.3074 3.6663 69.746 4.01431 69.162 4.31564C68.2167 4.80231 67.254 5.2543 66.2954 5.71563C65.7114 5.99563 65.1754 6.3423 64.718 6.8023C64.0087 7.51697 63.9594 8.26097 64.658 8.98497C65.0874 9.4303 65.574 9.84897 66.1074 10.157C67.2167 10.797 68.346 11.4156 69.5154 11.9343C72.338 13.1876 75.194 14.365 78.026 15.597C80.6434 16.7343 83.218 17.9596 85.6447 19.477C87.0394 20.3503 88.3234 21.3556 89.466 22.545C91.2034 24.3516 91.818 26.5663 91.79 28.989C91.7794 29.8783 91.6207 30.7703 91.4607 31.649C91.0687 33.817 90.35 35.8903 89.538 37.9303C88.3594 40.8956 87.262 43.8863 86.4274 46.969C85.5674 50.145 85.0874 53.3783 85.0167 56.6676C84.9914 57.8156 84.9807 58.9703 85.0767 60.1116C85.2047 61.657 85.3567 63.201 85.7354 64.717C86.098 66.173 86.35 67.657 86.6714 69.125C86.8874 70.113 87.1194 71.0983 87.3807 72.0756C87.5474 72.6943 87.794 73.289 87.9794 73.9023C88.6447 76.1023 89.5274 78.221 90.4394 80.3236C91.35 82.4276 92.326 84.5063 93.35 86.557C96.4447 92.753 100.063 98.649 103.781 104.485C103.89 104.656 104.011 104.818 104.125 104.986C104.965 106.232 105.803 107.477 106.643 108.722C107.965 110.68 109.286 112.638 110.61 114.594C110.705 114.734 110.815 114.862 110.915 114.998C111.499 115.804 112.091 116.602 112.665 117.416C113.489 118.588 114.282 119.782 115.121 120.944C116.147 122.368 117.206 123.769 118.254 125.177C120.422 128.089 122.587 131.002 124.762 133.91C125.418 134.789 126.098 135.652 126.767 136.521C126.953 136.761 127.15 136.993 127.326 137.24C127.453 137.418 127.613 137.642 127.473 137.837C127.398 137.94 127.139 137.91 126.963 137.94C126.947 137.942 126.93 137.94 126.913 137.94C86.8207 137.94 46.7274 137.94 6.63404 137.94C6.51671 137.94 6.39804 137.936 6.27937 137.94C6.04204 137.946 5.94204 137.821 5.94337 137.597C5.94337 137.445 5.94604 137.293 5.95137 137.141C6.02604 135.369 6.08604 133.596 6.18071 131.825C6.33271 129.009 6.49937 126.194 6.67804 123.38C6.79004 121.628 6.92604 119.877 7.07004 118.128C7.15004 117.169 7.26871 116.213 7.37537 115.257C7.56604 113.529 7.73804 111.798 7.96204 110.074C8.18604 108.352 8.43271 106.629 8.72604 104.917C9.19804 102.172 9.67137 99.425 10.2287 96.697C10.662 94.5823 11.1887 92.4836 11.7407 90.3956C12.6287 87.0356 13.594 83.6996 14.8727 80.4583C15.9567 77.7103 17.0474 74.9663 18.378 72.3303C19.9754 69.165 21.746 66.093 23.7367 63.157C26.49 59.0956 29.518 55.2516 32.9354 51.7223C33.4447 51.197 33.9567 50.673 34.478 50.1596C36.2327 48.4276 37.962 46.661 39.8114 45.033C43.1954 42.0516 46.654 39.1556 50.0874 36.233C52.698 34.0103 55.314 31.7956 57.6154 29.2396C58.7807 27.945 59.742 26.5316 60.358 24.901C60.966 23.2943 60.8167 21.749 59.898 20.2943C59.6287 19.869 59.3274 19.457 58.9994 19.073C58.182 18.117 57.2274 17.305 56.194 16.5983C54.982 15.769 53.7407 14.9836 52.494 14.2076C51.09 13.333 49.6554 12.509 48.2554 11.6276C47.6434 11.2423 47.07 10.789 46.5074 10.3316C45.966 9.89163 45.53 9.35164 45.2127 8.72497C45.0127 8.33164 45.0274 7.9583 45.278 7.57697C45.582 7.11564 45.9607 6.73831 46.4354 6.46364C46.8287 6.23431 47.2327 6.0223 47.6447 5.8303C48.994 5.19696 50.4207 4.7783 51.8354 4.32897C53.3954 3.83297 54.9727 3.38631 56.466 2.70364C56.814 2.54364 57.1474 2.3303 57.4447 2.08763C57.818 1.7823 57.822 1.47963 57.4647 1.14496C57.234 0.930298 56.9394 0.784967 56.6767 0.603634C56.53 0.500967 56.3914 0.384964 56.2487 0.275631Z" fill="#BC9AC8"/>
<path d="M138.971 54.7128C138.313 55.2395 137.539 55.2555 136.763 55.1782C133.668 54.8728 130.612 54.3142 127.581 53.6288C126.052 53.2835 124.529 52.8995 123.016 52.4888C122.301 52.2942 121.608 52.0155 120.92 51.7382C120.264 51.4728 119.591 51.3635 118.892 51.3742C118.063 51.3862 117.444 51.9915 117.463 52.8222C117.481 53.6835 117.513 54.5475 117.605 55.4022C117.848 57.6888 118.228 59.9515 119 62.1288C119.185 62.6528 119.409 63.1635 119.609 63.6822C119.752 64.0528 119.709 64.1315 119.332 64.1862C119.183 64.2088 119.029 64.2115 118.877 64.2128C115.432 64.2448 111.985 64.2768 108.539 64.3048C108.371 64.3062 108.201 64.2955 108.036 64.2702C107.912 64.2515 107.868 64.1688 107.943 64.0515C107.979 63.9955 108.017 63.9395 108.061 63.8888C109.168 62.6075 109.781 61.0782 110.279 59.4902C110.765 57.9395 111.043 56.3435 111.292 54.7422C111.347 54.3915 111.403 54.0408 111.448 53.6902C111.473 53.4888 111.497 53.2862 111.491 53.0848C111.456 52.0422 110.555 51.2848 109.555 51.5728C108.161 51.9742 106.733 52.2328 105.357 52.7195C103.977 53.2075 102.547 53.5595 101.131 53.9448C98.5721 54.6395 95.9934 55.2435 93.3748 55.6688C92.4414 55.8195 91.5041 55.9648 90.5534 55.9128C90.2881 55.8982 90.0134 55.8515 89.7668 55.7582C89.3921 55.6168 89.3321 55.4302 89.5254 55.0902C89.6494 54.8715 89.7908 54.6515 89.9694 54.4782C90.3801 54.0795 90.7961 53.6795 91.2508 53.3315C93.4241 51.6648 95.7654 50.2475 98.0828 48.7942C100.657 47.1795 103.225 45.5555 105.781 43.9115C106.519 43.4382 107.207 42.8862 107.915 42.3675C107.996 42.3088 108.077 42.2435 108.143 42.1688C108.18 42.1262 108.185 42.0568 108.204 41.9995C108.143 41.9955 108.073 41.9728 108.02 41.9915C107.064 42.3248 106.111 42.6648 105.156 43.0022C102.452 43.9608 99.7654 44.9702 96.9974 45.7368C95.6974 46.0982 94.4041 46.5008 93.0561 46.6475C92.6374 46.6928 92.2134 46.7008 91.7921 46.6982C91.5934 46.6968 91.3868 46.6555 91.1974 46.5928C90.7494 46.4448 90.5734 46.0982 90.7948 45.6795C91.0601 45.1742 91.3534 44.6728 91.7108 44.2302C92.6574 43.0555 93.7748 42.0435 94.9094 41.0568C97.6241 38.6968 100.364 36.3635 103.091 34.0168C104.308 32.9688 105.501 31.8968 106.573 30.6982C106.664 30.5968 106.761 30.5008 106.835 30.3888C106.876 30.3262 106.876 30.2355 106.895 30.1582C106.801 30.1502 106.699 30.1142 106.617 30.1408C106.425 30.2022 106.243 30.2928 106.056 30.3728C103.904 31.3062 101.748 32.2342 99.5161 32.9635C98.5548 33.2768 97.5788 33.5502 96.5934 33.7728C96.1081 33.8835 95.5854 33.8768 95.0828 33.8515C94.5468 33.8248 94.3401 33.4862 94.5041 32.9755C94.6948 32.3742 95.0188 31.8422 95.4014 31.3422C96.3161 30.1448 97.3561 29.0582 98.4134 27.9888C100.397 25.9835 102.404 23.9995 104.368 21.9755C105.343 20.9702 106.247 19.8942 107.181 18.8502C107.225 18.8008 107.28 18.7502 107.301 18.6902C107.32 18.6355 107.324 18.5488 107.293 18.5088C107.26 18.4662 107.171 18.4328 107.12 18.4462C107.024 18.4715 106.94 18.5355 106.849 18.5795C105.052 19.4768 103.239 20.3435 101.344 21.0182C100.536 21.3048 99.6948 21.5022 98.8574 21.6955C98.5734 21.7608 98.2508 21.7275 97.9601 21.6688C97.5108 21.5768 97.2894 21.2688 97.3614 20.8168C97.4214 20.4382 97.5281 20.0555 97.6881 19.7088C98.1214 18.7702 98.7068 17.9235 99.3561 17.1182C101.427 14.5515 103.655 12.1275 105.973 9.78482C106.103 9.65282 106.227 9.51282 106.332 9.36216C106.417 9.24216 106.345 9.17016 106.216 9.18349C106.083 9.19682 105.952 9.23416 105.821 9.26616C104.739 9.52616 103.661 9.80749 102.573 10.0382C102.255 10.1062 101.899 10.0768 101.575 10.0168C101.244 9.95549 101.139 9.71682 101.263 9.40215C101.349 9.18482 101.46 8.96349 101.612 8.79015C102.135 8.19549 102.631 7.56215 103.228 7.04882C105.044 5.48349 106.901 3.96482 108.748 2.43282C109.345 1.93682 109.949 1.44882 110.565 0.974155C111.065 0.586155 111.135 0.586156 111.631 0.944823C114.065 2.70882 116.501 4.47016 118.923 6.25016C119.863 6.94216 120.749 7.70082 121.497 8.60615C121.635 8.77282 121.761 8.95816 121.848 9.15549C121.983 9.46216 121.892 9.67016 121.568 9.71416C121.172 9.76749 120.753 9.80882 120.364 9.74216C119.401 9.57549 118.449 9.34482 117.493 9.13816C117.296 9.09549 117.1 9.04215 116.901 9.00349C116.861 8.99682 116.789 9.02216 116.773 9.05416C116.756 9.08882 116.769 9.16482 116.797 9.19416C116.948 9.35282 117.101 9.51016 117.267 9.65416C119.588 11.6995 121.847 13.8088 123.971 16.0582C124.643 16.7702 125.279 17.5182 125.895 18.2782C126.223 18.6822 126.497 19.1342 126.747 19.5928C126.896 19.8675 126.984 20.1888 127.037 20.4995C127.115 20.9528 126.895 21.2142 126.439 21.2515C125.812 21.3035 125.193 21.2595 124.577 21.1142C122.944 20.7275 121.392 20.1142 119.855 19.4542C118.971 19.0755 118.087 18.6982 117.201 18.3195C117.14 18.2942 117.08 18.2448 117.017 18.2435C116.961 18.2422 116.893 18.2808 116.852 18.3222C116.829 18.3435 116.835 18.4222 116.857 18.4542C116.916 18.5355 116.992 18.6048 117.06 18.6782C118.488 20.2422 120.097 21.6115 121.672 23.0182C124.027 25.1222 126.387 27.2222 128.736 29.3342C129.212 29.7622 129.673 30.2142 130.095 30.6968C130.469 31.1262 130.837 31.5822 131.104 32.0822C131.563 32.9368 131.324 33.3702 130.288 33.3902C129.791 33.3995 129.287 33.2608 128.791 33.1635C126.645 32.7408 124.599 31.9982 122.555 31.2448C121.431 30.8302 120.307 30.4155 119.181 30.0022C119.071 29.9608 118.961 29.9128 118.847 29.8875C118.788 29.8742 118.72 29.9048 118.656 29.9155C118.667 29.9755 118.661 30.0448 118.692 30.0915C118.747 30.1755 118.817 30.2502 118.892 30.3182C119.3 30.6982 119.695 31.0928 120.123 31.4488C122.955 33.8048 125.937 35.9648 128.869 38.1915C130.645 39.5395 132.396 40.9208 134.121 42.3315C134.956 43.0142 135.771 43.7342 136.431 44.6008C136.584 44.8008 136.732 45.0088 136.852 45.2302C137.133 45.7515 136.951 46.1648 136.38 46.3128C135.809 46.4622 135.236 46.4022 134.676 46.2648C133.447 45.9662 132.228 45.6262 130.996 45.3422C127.587 44.5528 124.265 43.4715 120.941 42.4008C120.379 42.2195 119.817 42.0355 119.256 41.8515C119.192 41.8315 119.128 41.7955 119.063 41.7942C119.003 41.7928 118.916 41.8115 118.891 41.8528C118.867 41.8888 118.891 41.9915 118.928 42.0248C119.028 42.1128 119.147 42.1808 119.259 42.2555C121.992 44.0715 124.896 45.5848 127.796 47.1062C128.857 47.6622 129.936 48.1902 130.967 48.7995C132.885 49.9315 134.785 51.0955 136.667 52.2875C137.276 52.6728 137.812 53.1768 138.364 53.6462C138.591 53.8382 138.769 54.0848 138.971 54.3075V54.7128Z" fill="#BC9AC8"/>
<path d="M17.9291 47.3155H14.3811C14.3478 47.3155 14.3131 47.3195 14.2798 47.3155C14.1225 47.2928 13.9131 47.3928 13.8238 47.1968C13.7305 46.9928 13.9371 46.9035 14.0505 46.7968C14.6718 46.2115 15.1705 45.5315 15.5598 44.7768C15.8291 44.2528 16.0785 43.7168 16.3011 43.1702C16.5505 42.5622 16.7598 41.9382 16.9838 41.3195C17.0118 41.2408 17.0305 41.1582 17.0505 41.0755C17.2398 40.2982 16.7145 39.7062 15.9291 39.8555C15.0171 40.0275 14.1171 40.2555 13.2078 40.4395C10.8771 40.9128 8.5478 41.3848 6.21313 41.8355C5.13713 42.0435 4.0558 42.2302 2.96913 42.3715C2.3358 42.4542 1.68913 42.4275 1.04913 42.4475C0.849132 42.4528 0.667798 42.3995 0.611798 42.1835C0.562465 41.9875 0.699798 41.8608 0.845132 41.7728C1.59447 41.3168 2.32513 40.8195 3.1078 40.4302C4.93446 39.5222 6.78913 38.6702 8.63046 37.7902C10.6238 36.8395 12.6171 35.8848 14.6078 34.9262C14.8491 34.8088 15.0731 34.6542 15.2998 34.5088C15.3345 34.4875 15.3425 34.4235 15.3625 34.3795C15.3185 34.3622 15.2705 34.3262 15.2305 34.3328C15.1145 34.3502 14.9998 34.3822 14.8865 34.4128C12.6545 35.0088 10.4265 35.6182 8.1918 36.1995C6.65446 36.5982 5.09313 36.8768 3.51446 37.0422C3.2358 37.0715 2.93847 37.0395 2.66647 36.9702C2.38247 36.8968 2.3118 36.6088 2.48113 36.3635C2.53846 36.2808 2.6198 36.2168 2.68913 36.1435C3.32246 35.4768 4.05046 34.9315 4.8238 34.4422C7.99046 32.4395 11.1598 30.4408 14.3251 28.4355C14.6811 28.2102 15.0171 27.9528 15.3545 27.7008C15.4131 27.6568 15.4358 27.5648 15.4758 27.4955C15.3851 27.4742 15.2905 27.4248 15.2065 27.4395C15.0078 27.4742 14.8145 27.5382 14.6211 27.5955C12.7918 28.1315 10.9638 28.6662 9.13713 29.2062C8.41713 29.4182 7.68513 29.5088 6.9358 29.4742C6.8678 29.4715 6.7918 29.4875 6.73446 29.4622C6.5878 29.3968 6.40246 29.3448 6.31713 29.2262C6.1958 29.0568 6.36246 28.9102 6.48513 28.8008C7.1758 28.1795 7.8318 27.5142 8.57313 26.9608C10.8305 25.2715 13.1225 23.6288 15.3971 21.9635C15.8331 21.6435 16.2558 21.3062 16.6758 20.9675C16.7451 20.9115 16.7731 20.8062 16.8211 20.7235C16.7171 20.7062 16.6011 20.6502 16.5118 20.6768C15.9798 20.8435 15.4545 21.0262 14.9291 21.2075C13.5251 21.6915 12.1091 22.1355 10.6478 22.4115C10.4345 22.4528 10.2105 22.4915 9.99713 22.4728C9.58913 22.4368 9.39313 22.0555 9.58646 21.6928C9.6638 21.5462 9.7838 21.4208 9.89313 21.2928C10.8385 20.1782 11.9518 19.2488 13.1118 18.3688C14.2691 17.4915 15.4198 16.6062 16.5731 15.7235C16.6545 15.6622 16.7465 15.6102 16.8105 15.5355C16.8598 15.4795 16.8731 15.3928 16.9025 15.3208C16.8385 15.3048 16.7705 15.2662 16.7105 15.2768C16.2451 15.3555 15.7811 15.4422 15.3171 15.5288C14.9691 15.5928 14.6211 15.6608 14.2731 15.7248C14.1905 15.7408 14.0971 15.7808 14.0251 15.7568C13.8238 15.6928 13.6318 15.6008 13.4358 15.5208C13.5318 15.3488 13.5851 15.1248 13.7278 15.0155C14.3425 14.5422 14.9571 14.0608 15.6185 13.6582C17.3638 12.5982 19.1345 11.5822 20.8891 10.5382C21.1411 10.3875 21.3518 10.3848 21.5931 10.5315C23.4531 11.6622 25.3625 12.7155 27.1251 14.0008C27.4385 14.2288 27.7385 14.4768 28.0371 14.7248C28.1385 14.8102 28.2305 14.9155 28.2998 15.0288C28.4158 15.2195 28.3718 15.3502 28.1598 15.4208C28.0198 15.4675 27.8638 15.4768 27.7131 15.4848C26.9971 15.5222 26.3065 15.3488 25.6078 15.2355C25.3651 15.1955 25.1131 15.2115 24.8665 15.2022C24.8731 15.5102 25.1598 15.5835 25.3358 15.7342C26.6971 16.8968 28.0931 18.0195 29.4305 19.2102C30.0438 19.7555 30.5558 20.4168 31.0971 21.0408C31.2891 21.2622 31.4118 21.5315 31.2345 21.8315C31.0558 22.1368 30.7598 22.2142 30.4465 22.1635C29.8478 22.0675 29.2425 21.9768 28.6611 21.8115C27.4291 21.4635 26.2091 21.0702 24.9851 20.6968C24.8078 20.6422 24.6318 20.5835 24.4505 20.5502C24.3825 20.5382 24.3011 20.5902 24.2265 20.6128C24.2518 20.6902 24.2611 20.7822 24.3078 20.8422C24.3798 20.9328 24.4745 21.0088 24.5678 21.0808C26.2425 22.3928 27.9185 23.7022 29.5945 25.0142C30.3785 25.6275 31.1798 26.2222 31.9398 26.8662C32.3998 27.2568 32.7971 27.7222 33.2145 28.1635C33.3038 28.2595 33.3771 28.3848 33.4171 28.5088C33.5211 28.8248 33.3825 29.0702 33.0491 29.0742C32.5118 29.0808 31.9531 29.1128 31.4398 28.9862C29.3945 28.4822 27.3625 27.9222 25.3251 27.3835C25.1465 27.3355 24.9705 27.2755 24.7878 27.2408C24.7171 27.2275 24.6358 27.2715 24.5598 27.2888C24.5918 27.3648 24.6091 27.4542 24.6611 27.5128C24.7371 27.6008 24.8331 27.6755 24.9291 27.7435C25.9505 28.4622 26.9571 29.2022 27.9971 29.8902C30.7291 31.6968 33.5051 33.4368 36.1411 35.3848C36.3158 35.5142 36.4998 35.6448 36.6345 35.8128C36.8651 36.0982 36.7958 36.3408 36.4625 36.5048C36.0838 36.6915 35.6771 36.6955 35.2718 36.6408C32.6611 36.2875 30.0865 35.7502 27.5358 35.0968C26.4731 34.8248 25.4118 34.5542 24.3505 34.2822C24.3171 34.2742 24.2851 34.2555 24.2531 34.2555C24.0891 34.2582 23.9265 34.2662 23.7625 34.2715C23.8838 34.3768 23.9905 34.5155 24.1305 34.5822C26.3838 35.6542 28.6438 36.7128 30.8985 37.7835C32.1478 38.3768 33.3998 38.9648 34.6265 39.6022C35.3878 39.9968 36.1038 40.4808 36.8398 40.9248C36.8825 40.9515 36.9225 40.9835 36.9638 41.0115C37.1638 41.1488 37.3838 41.3102 37.3305 41.5702C37.2691 41.8635 36.9691 41.8088 36.7451 41.8568C36.0011 42.0195 35.2625 41.9022 34.5278 41.8062C32.6545 41.5608 30.7825 41.3022 28.9118 41.0288C27.4425 40.8142 25.9945 40.4928 24.5718 40.0568C24.1225 39.9195 23.6585 39.8142 23.1931 39.7422C22.1998 39.5888 21.5358 40.1662 21.4718 41.1755C21.3571 42.9955 21.4918 44.7848 22.0398 46.5328C22.0745 46.6448 22.0985 46.7622 22.1211 46.8768C22.1905 47.2208 22.1358 47.2915 21.7811 47.3102C21.6798 47.3168 21.5785 47.3115 21.4771 47.3115C20.2945 47.3128 19.1118 47.3128 17.9291 47.3128V47.3155Z" fill="#BC9AC8"/>
</svg>
