<svg width="134" height="132" viewBox="0 0 134 132" fill="none" xmlns="http://www.w3.org/2000/svg">
<path d="M76.72 26.9826C76.6787 28.3879 76.648 29.7946 76.5907 31.1999C76.576 31.5786 76.4907 31.9559 76.4227 32.3319C76.3014 33.0066 76.1774 33.6812 76.0374 34.3532C75.9067 34.9812 75.764 35.6079 75.608 36.2306C75.172 37.9826 74.6707 39.7132 73.9507 41.3759C73.8174 41.6826 73.744 42.0132 73.6427 42.3332C73.596 42.4786 73.5614 42.6306 73.4974 42.7679C73.0507 43.7386 72.604 44.7106 72.144 45.6746C72.0267 45.9212 71.868 46.1479 71.712 46.3732C71.54 46.6212 71.4934 46.8986 71.6174 47.0986C71.7427 47.3039 71.9814 47.3799 72.3147 47.2519C72.5507 47.1612 72.7987 47.0372 72.972 46.8599C74.3534 45.4452 75.8707 44.1879 77.3894 42.9306C79.6174 41.0866 81.9387 39.3639 84.3774 37.8106C86.052 36.7439 87.7854 35.7666 89.5054 34.7706C91.6374 33.5332 93.8854 32.5226 96.1294 31.5106C97.1587 31.0466 98.2307 30.6732 99.2867 30.2652C100.127 29.9399 100.968 29.6159 101.815 29.3066C104.072 28.4852 106.341 27.6986 108.696 27.2052C110.045 26.9226 111.395 26.8879 112.705 27.4479C113.788 27.9106 114.928 28.2572 115.957 28.8146C117.449 29.6212 118.855 30.5732 119.995 31.8732C120.553 32.5079 121.067 33.1639 121.507 33.8853C122.247 35.1013 122.645 36.4199 122.665 37.8359C122.68 38.8892 122.628 39.9439 122.587 40.9973C122.555 41.7599 122.296 42.4652 121.949 43.1359C121.632 43.7466 121.353 44.3919 120.941 44.9346C120.428 45.6119 119.821 46.2252 119.208 46.8172C118.4 47.5959 117.48 48.2252 116.436 48.6639C116.201 48.7626 115.983 48.9239 115.791 49.0946C115.597 49.2652 115.627 49.4599 115.861 49.5692C116.035 49.6506 116.239 49.6893 116.433 49.7026C116.981 49.7413 117.533 49.7399 118.08 49.7839C121.389 50.0519 124.579 50.7892 127.524 52.3652C129.069 53.1919 130.503 54.2212 131.603 55.5919C132.541 56.7599 133.276 58.0799 133.501 59.6132C133.525 59.7772 133.549 59.9653 133.643 60.0919C133.863 60.3879 133.873 60.7146 133.864 61.0519C133.84 61.8612 133.824 62.6706 133.776 63.4786C133.761 63.7292 133.644 63.9732 133.587 64.2239C133.521 64.5052 133.48 64.7919 133.411 65.0719C133.331 65.3959 133.279 65.7386 133.131 66.0306C132.66 66.9586 132.065 67.8092 131.416 68.6252C130.955 69.2052 130.408 69.6946 129.816 70.1266C128.655 70.9733 127.516 71.8572 126.297 72.6132C124.016 74.0292 121.564 75.0839 119.016 75.9479C115.748 77.0546 112.417 77.8892 109.025 78.4839C107.883 78.6839 106.725 78.7999 105.575 78.9546C105.105 79.0172 104.633 79.0639 104.167 79.1439C103.152 79.3159 102.152 79.1639 101.156 79.0132C98.0587 78.5452 94.9614 78.0746 91.8694 77.5653C90.7094 77.3746 89.5667 77.0719 88.416 76.8266C88.1027 76.7599 87.7814 76.7266 87.4694 76.6532C87.1294 76.5732 86.78 76.4999 86.464 76.3586C86.1107 76.2013 85.7587 76.1799 85.3894 76.2066C85.192 76.2199 85.0294 76.2986 84.98 76.5093C84.936 76.7053 85.056 76.8319 85.2027 76.9239C85.3574 77.0226 85.524 77.1026 85.6867 77.1866C87.748 78.2612 89.8374 79.2839 91.8627 80.4212C93.6067 81.4026 95.268 82.5306 96.9867 83.5599C98.2374 84.3092 99.3507 85.2452 100.532 86.0879C103.128 87.9412 105.52 90.0279 107.717 92.3386C109.152 93.8466 110.496 95.4319 111.787 97.0639C113.176 98.8226 114.363 100.715 115.272 102.757C115.772 103.88 116.189 105.055 116.383 106.291C116.481 106.923 116.719 107.536 116.791 108.168C116.985 109.863 117.005 111.556 116.519 113.216C116.317 113.907 116.111 114.595 115.905 115.283C115.403 116.968 114.435 118.396 113.221 119.609C111.192 121.639 108.777 123.088 105.999 123.889C105.484 124.037 104.975 124.203 104.463 124.356C103.967 124.505 103.492 124.501 102.988 124.305C102.02 123.929 101.017 123.643 100.048 123.269C99.408 123.024 98.8 122.693 98.1814 122.395C97.2867 121.961 96.5814 121.277 95.8454 120.633C95.776 120.573 95.716 120.503 95.6427 120.448C95.1907 120.107 94.6094 120.329 94.5334 120.889C94.4947 121.176 94.508 121.469 94.5147 121.76C94.528 122.256 94.4654 122.736 94.276 123.197C94.224 123.324 94.1734 123.453 94.1414 123.587C93.7787 125.107 92.8974 126.329 91.908 127.492C90.4574 129.197 88.596 130.316 86.5774 131.209C86.48 131.253 86.372 131.276 86.2787 131.327C85.0307 132.015 83.7654 131.889 82.4627 131.48C81.1 131.051 79.9174 130.295 78.7094 129.577C77.2307 128.7 75.8534 127.679 74.5694 126.545C73.7134 125.791 72.94 124.933 72.1787 124.079C71.612 123.44 71.0947 122.752 70.6054 122.051C70.1867 121.451 69.848 120.795 69.4574 120.173C68.6387 118.873 68.124 117.428 67.5147 116.031C67.1867 115.28 67.028 114.455 66.8027 113.661C66.356 112.1 66.116 110.496 65.84 108.9C65.8094 108.72 65.8027 108.535 65.8014 108.351C65.7974 107.036 65.7747 105.72 65.8054 104.405C65.8294 103.337 65.8894 102.268 65.996 101.205C66.056 100.601 66.2947 100.015 66.3627 99.4106C66.5254 97.9572 67 96.5786 67.3094 95.1612C67.3627 94.9199 67.5187 94.6906 67.6667 94.4826C67.8614 94.2106 67.9867 93.9226 67.972 93.5906C67.9587 93.3066 67.8814 93.0346 67.58 92.9199C67.2707 92.8026 67.004 92.9079 66.7934 93.1412C66.6627 93.2879 66.5534 93.4572 66.444 93.6226C65.6867 94.7679 64.904 95.8972 64.1827 97.0652C63.4934 98.1826 62.872 99.3412 62.212 100.477C61.9974 100.847 61.772 101.211 61.5294 101.563C60.972 102.365 60.404 103.16 59.8374 103.956C59.3494 104.641 58.888 105.348 58.36 106C57.4387 107.141 56.4947 108.264 55.5227 109.363C54.6627 110.336 53.7854 111.3 52.8547 112.204C51.704 113.321 50.492 114.375 49.3027 115.452C47.9627 116.667 46.488 117.712 45.0014 118.732C43.704 119.621 42.3347 120.405 40.9934 121.231C38.744 122.616 36.3374 123.675 33.872 124.603C32.3867 125.163 30.892 125.713 29.3707 126.165C27.216 126.805 25.0347 127.347 22.8067 127.684C19.604 128.169 16.416 128.743 13.2427 129.395C10.0227 130.057 6.79337 130.669 3.5707 131.311C3.2307 131.379 2.9267 131.333 2.65737 131.131C1.86803 130.535 1.31337 129.817 1.3547 128.749C1.4147 127.237 1.42936 125.723 1.47336 124.211C1.52803 122.347 1.59337 120.483 1.65337 118.62C1.71603 116.664 1.77737 114.708 1.84003 112.753C1.86937 111.821 1.90003 110.889 1.9307 109.957C1.93337 109.865 1.93337 109.773 1.94403 109.683C1.99203 109.295 2.08136 109.235 2.4547 109.376C3.05603 109.603 3.64937 109.849 4.24803 110.081C5.28803 110.485 6.3387 110.864 7.3707 111.291C8.14537 111.611 8.89337 112.001 9.66137 112.34C10.8134 112.849 12.0307 113.157 13.256 113.427C15.428 113.903 17.5 114.696 19.6067 115.384C20.8427 115.788 22.0814 116.189 23.3747 116.367C23.8094 116.425 24.2547 116.415 24.6947 116.436C24.816 116.441 24.9454 116.425 25.0587 116.457C25.3574 116.543 25.6214 116.457 25.9054 116.373C26.268 116.267 26.6507 116.216 27.0294 116.177C29.032 115.968 30.9627 115.427 32.888 114.879C35.024 114.271 37.0734 113.425 39.0947 112.508C42.156 111.12 45.0254 109.405 47.756 107.452C49.672 106.081 51.512 104.619 53.308 103.092C54.9894 101.664 56.576 100.141 58.128 98.5812C58.9667 97.7399 59.7134 96.8066 60.4947 95.9092C61.328 94.9519 62.1507 93.9866 62.9787 93.0266C63.0294 92.9679 63.0854 92.9172 63.1374 92.8599C63.2614 92.7226 63.4107 92.5786 63.316 92.3786C63.2094 92.1559 62.9774 92.0999 62.7654 92.1359C62.5787 92.1679 62.3867 92.2572 62.2307 92.3692C61.3054 93.0426 60.3987 93.7439 59.4667 94.4092C57.7587 95.6266 55.936 96.6626 54.1134 97.6946C53.5667 98.0039 53.0107 98.2932 52.4694 98.6092C50.1907 99.9399 47.7574 100.944 45.332 101.96C43.444 102.752 41.5387 103.516 39.5987 104.168C37.3107 104.937 34.996 105.632 32.6267 106.135C30.62 106.559 28.592 106.831 26.5654 107.109C25.9454 107.195 25.324 107.275 24.7027 107.347C24.5854 107.36 24.4534 107.352 24.344 107.312C23.7894 107.107 23.2107 107.083 22.6307 107.036C22.236 107.005 21.836 106.968 21.4507 106.88C20.14 106.583 18.8214 106.311 17.5334 105.932C16.5547 105.645 15.612 105.231 14.6667 104.839C13.6907 104.433 12.7934 103.881 11.8907 103.332C10.568 102.527 9.5387 101.443 8.60537 100.24C7.99204 99.4479 7.51603 98.5719 7.15603 97.6506C6.93603 97.0919 6.88403 96.4639 6.79337 95.8612C6.72937 95.4399 6.71737 95.0092 6.70137 94.5826C6.63203 92.7852 6.8507 91.0479 7.70003 89.4226C8.50137 87.8906 9.57737 86.6106 10.9947 85.6132C11.7454 85.0826 12.4907 84.5506 13.3467 84.1959C13.4307 84.1612 13.512 84.1106 13.5774 84.0506C13.8174 83.8292 13.776 83.5493 13.4707 83.4413C13.3027 83.3813 13.1107 83.3612 12.9307 83.3639C12.0214 83.3786 11.136 83.2372 10.26 83.0012C9.5667 82.8146 8.85737 82.6853 8.16004 82.5159C7.82004 82.4319 7.4827 82.3279 7.2227 82.0626C7.1507 81.9879 7.0467 81.9386 6.94804 81.8999C5.6867 81.3986 4.68137 80.5253 3.67337 79.6546C2.64803 78.7679 1.86003 77.6972 1.34137 76.4586C0.953366 75.5359 0.548032 74.5986 0.528032 73.5612C0.525366 73.3666 0.484036 73.1586 0.401369 72.9839C0.269369 72.7039 0.282698 72.4239 0.288032 72.1319C0.298698 71.5692 0.293367 71.0053 0.284034 70.4413C0.276034 69.8933 0.194699 69.3426 0.425366 68.8132C0.485366 68.6759 0.504036 68.5146 0.512036 68.3639C0.568036 67.1959 1.10137 66.1959 1.6187 65.1879C2.15603 64.1399 2.96137 63.3106 3.7507 62.4519C4.66937 61.4559 5.68937 60.5906 6.75337 59.7666C7.18804 59.4292 7.62137 59.0919 8.06537 58.7692C8.22403 58.6546 8.4067 58.5652 8.58937 58.4892C10.6107 57.6519 12.6587 56.8892 14.7614 56.2812C15.364 56.1066 15.9574 55.8946 16.5694 55.7666C18.8134 55.2986 21.0587 54.8399 23.312 54.4159C24.3014 54.2293 25.3187 54.1906 26.3027 53.9812C26.8814 53.8586 27.4067 53.9186 27.9694 54.0026C29.1467 54.1799 30.3387 54.2666 31.516 54.4412C33.1187 54.6786 34.7174 54.9452 36.3107 55.2332C38.5067 55.6319 40.6974 56.0599 42.8894 56.4812C43.0654 56.5146 43.2574 56.5599 43.4027 56.6586C43.764 56.9012 44.1574 56.8772 44.5547 56.8532C44.7467 56.8412 44.956 56.7732 44.964 56.5626C44.9694 56.4252 44.8627 56.2412 44.748 56.1519C44.5107 55.9639 44.244 55.8066 43.9734 55.6679C42.6534 54.9946 41.3294 54.3279 40.0027 53.6639C37.604 52.4626 35.3854 50.9612 33.112 49.5506C30.5094 47.9359 28.108 46.0426 25.7814 44.0559C24.9454 43.3412 24.1014 42.6279 23.328 41.8479C21.368 39.8706 19.5187 37.7906 17.852 35.5599C16.9734 34.3852 16.196 33.1426 15.5107 31.8386C14.9027 30.6839 14.344 29.5119 13.984 28.2599C13.536 26.7052 13.1507 25.1399 13.1027 23.4986C13.0547 21.8999 13.2934 20.3572 13.7427 18.8399C13.9334 18.1986 14.2107 17.5799 14.4707 16.9599C14.6587 16.5106 14.8267 16.0373 15.1027 15.6439C15.5747 14.9719 16.0987 14.3293 16.6494 13.7186C17.1387 13.1746 17.6574 12.6426 18.2307 12.1906C19.372 11.2892 20.6027 10.5332 21.9574 9.96525C23.4174 9.35191 24.9134 8.88658 26.456 8.55325C26.516 8.53992 26.5787 8.53592 26.636 8.51725C27.4574 8.25325 28.2547 8.40924 29.0667 8.60391C30.7507 9.01058 32.424 9.44925 33.972 10.2426C35.048 10.7932 36.0774 11.4266 36.952 12.2799C37.136 12.4586 37.3454 12.6332 37.5747 12.7359C38.084 12.9626 38.416 12.7399 38.4427 12.1879C38.4534 11.9746 38.4534 11.7586 38.4427 11.5452C38.4147 11.0346 38.496 10.5386 38.648 10.0532C38.8627 9.36792 39.0827 8.68391 39.3067 8.00125C39.344 7.88525 39.3907 7.76525 39.4627 7.67058C40.088 6.86125 40.696 6.03725 41.3574 5.25858C42.2187 4.23992 43.3654 3.57324 44.4694 2.85991C45.98 1.88658 47.6507 1.32658 49.38 0.879909C50.748 0.525243 52.1427 0.366583 53.532 0.163916C53.6974 0.139916 53.8707 0.137251 54.0347 0.161251C55.484 0.373251 56.9414 0.559918 58.3454 0.994584C59.672 1.40658 60.9934 1.83591 62.2 2.56258C63.7454 3.49324 65.3027 4.39724 66.7214 5.52791C68.5787 7.00791 70.168 8.73058 71.5294 10.6639C72.2147 11.6372 72.856 12.6466 73.448 13.6786C73.8334 14.3519 74.0667 15.1092 74.4187 15.8039C75.1227 17.1946 75.404 18.7239 75.8947 20.1839C75.9574 20.3706 75.98 20.5719 76.02 20.7666C76.152 21.4092 76.304 22.0479 76.4107 22.6946C76.5254 23.3866 76.636 24.0812 76.68 24.7799C76.7267 25.5106 76.6907 26.2479 76.6907 26.9812C76.7 26.9826 76.7107 26.9826 76.72 26.9826Z" fill="#5EC0AF"/>
</svg>
