<svg width="135" height="132" viewBox="0 0 135 132" fill="none" xmlns="http://www.w3.org/2000/svg">
<path d="M77.0306 26.9993C76.9892 28.4046 76.9586 29.8113 76.9012 31.2166C76.8866 31.5953 76.8012 31.9726 76.7332 32.3486C76.6119 33.0233 76.4879 33.698 76.3479 34.37C76.2172 34.998 76.0746 35.6246 75.9186 36.2473C75.4826 37.9993 74.9812 39.73 74.2612 41.3926C74.1279 41.6993 74.0546 42.03 73.9532 42.35C73.9066 42.4953 73.8719 42.6473 73.8079 42.7846C73.3612 43.7553 72.9146 44.7273 72.4546 45.6913C72.3372 45.938 72.1786 46.1646 72.0226 46.39C71.8506 46.638 71.8039 46.9153 71.9279 47.1153C72.0532 47.3206 72.2919 47.3966 72.6252 47.2686C72.8612 47.178 73.1092 47.054 73.2826 46.8766C74.6639 45.462 76.1812 44.2046 77.6999 42.9473C79.9279 41.1033 82.2492 39.3806 84.6879 37.8273C86.3626 36.7606 88.0959 35.7833 89.8159 34.7873C91.9479 33.55 94.1959 32.5393 96.4399 31.5273C97.4692 31.0633 98.5412 30.69 99.5972 30.282C100.437 29.9566 101.279 29.6326 102.125 29.3233C104.383 28.502 106.652 27.7153 109.007 27.222C110.356 26.9393 111.705 26.9046 113.016 27.4646C114.099 27.9273 115.239 28.274 116.268 28.8313C117.76 29.638 119.165 30.59 120.305 31.89C120.864 32.5246 121.377 33.1806 121.817 33.902C122.557 35.118 122.956 36.4366 122.976 37.8526C122.991 38.906 122.939 39.9606 122.897 41.014C122.865 41.7766 122.607 42.482 122.259 43.1526C121.943 43.7633 121.664 44.4086 121.252 44.9513C120.739 45.6286 120.132 46.242 119.519 46.834C118.711 47.6126 117.791 48.242 116.747 48.6806C116.512 48.7793 116.293 48.9406 116.101 49.1113C115.908 49.282 115.937 49.4766 116.172 49.586C116.345 49.6673 116.549 49.706 116.744 49.7193C117.292 49.758 117.844 49.7566 118.391 49.8006C121.7 50.0686 124.889 50.806 127.835 52.382C129.38 53.2086 130.813 54.238 131.913 55.6086C132.852 56.7766 133.587 58.0966 133.812 59.63C133.836 59.794 133.86 59.982 133.953 60.1086C134.173 60.4046 134.184 60.7313 134.175 61.0686C134.151 61.878 134.135 62.6873 134.087 63.4953C134.072 63.746 133.955 63.99 133.897 64.2406C133.832 64.522 133.791 64.8086 133.721 65.0886C133.641 65.4126 133.589 65.7553 133.441 66.0473C132.971 66.9753 132.376 67.826 131.727 68.642C131.265 69.222 130.719 69.7113 130.127 70.1433C128.965 70.99 127.827 71.874 126.608 72.63C124.327 74.046 121.875 75.1006 119.327 75.9646C116.059 77.0713 112.728 77.906 109.336 78.5006C108.193 78.7006 107.036 78.8166 105.885 78.9713C105.416 79.034 104.944 79.0806 104.477 79.1606C103.463 79.3326 102.463 79.1806 101.467 79.03C98.3692 78.5606 95.2719 78.0913 92.1799 77.582C91.0199 77.3913 89.8772 77.0886 88.7266 76.8433C88.4132 76.7766 88.0919 76.7433 87.7799 76.67C87.4399 76.59 87.0919 76.5166 86.7746 76.3753C86.4212 76.218 86.0692 76.1966 85.6999 76.2233C85.5026 76.2366 85.3399 76.3153 85.2906 76.526C85.2466 76.722 85.3666 76.8486 85.5132 76.9406C85.6679 77.0393 85.8346 77.1193 85.9972 77.2033C88.0586 78.278 90.1479 79.3006 92.1732 80.438C93.9172 81.4193 95.5786 82.5473 97.2972 83.5766C98.5479 84.326 99.6612 85.262 100.843 86.1046C103.439 87.958 105.831 90.0446 108.028 92.3553C109.463 93.8633 110.807 95.4486 112.097 97.0806C113.487 98.8393 114.673 100.731 115.583 102.774C116.083 103.897 116.5 105.071 116.693 106.307C116.792 106.939 117.029 107.553 117.101 108.185C117.296 109.879 117.316 111.573 116.829 113.233C116.628 113.923 116.421 114.611 116.216 115.299C115.713 116.985 114.745 118.413 113.532 119.626C111.503 121.655 109.088 123.105 106.309 123.906C105.795 124.054 105.285 124.219 104.773 124.373C104.277 124.522 103.803 124.518 103.299 124.322C102.331 123.946 101.328 123.659 100.359 123.286C99.7186 123.041 99.1106 122.71 98.4919 122.411C97.5972 121.978 96.8919 121.294 96.1559 120.65C96.0866 120.59 96.0266 120.519 95.9532 120.465C95.5012 120.123 94.9199 120.346 94.8439 120.906C94.8052 121.193 94.8186 121.486 94.8252 121.777C94.8386 122.273 94.7759 122.753 94.5866 123.214C94.5346 123.341 94.4839 123.47 94.4519 123.603C94.0892 125.123 93.2079 126.346 92.2186 127.509C90.7679 129.214 88.9066 130.333 86.8879 131.226C86.7906 131.27 86.6812 131.293 86.5892 131.343C85.3412 132.031 84.0759 131.906 82.7732 131.497C81.4106 131.067 80.2279 130.311 79.0186 129.594C77.5412 128.717 76.1639 127.695 74.8799 126.562C74.0239 125.807 73.2506 124.95 72.4892 124.095C71.9226 123.457 71.4052 122.769 70.9159 122.067C70.4972 121.467 70.1586 120.811 69.7679 120.19C68.9492 118.89 68.4346 117.445 67.8252 116.047C67.4972 115.297 67.3386 114.471 67.1132 113.678C66.6666 112.117 66.4266 110.513 66.1506 108.917C66.1199 108.737 66.1132 108.551 66.1119 108.367C66.1079 107.053 66.0852 105.737 66.1159 104.422C66.1399 103.354 66.1999 102.285 66.3066 101.222C66.3666 100.618 66.6052 100.031 66.6732 99.4273C66.8359 97.974 67.3106 96.5953 67.6199 95.178C67.6732 94.9366 67.8292 94.7073 67.9772 94.4993C68.1719 94.2273 68.2972 93.9393 68.2826 93.6073C68.2692 93.3233 68.1919 93.0513 67.8906 92.9366C67.5812 92.8193 67.3146 92.9246 67.1039 93.158C66.9732 93.3046 66.8639 93.474 66.7546 93.6393C65.9972 94.7846 65.2146 95.914 64.4932 97.082C63.8039 98.1993 63.1826 99.358 62.5226 100.494C62.3079 100.863 62.0826 101.227 61.8399 101.579C61.2826 102.382 60.7146 103.177 60.1479 103.973C59.6599 104.658 59.1986 105.365 58.6706 106.017C57.7492 107.158 56.8052 108.281 55.8332 109.379C54.9732 110.353 54.0959 111.317 53.1652 112.221C52.0146 113.338 50.8026 114.391 49.6132 115.469C48.2732 116.683 46.7986 117.729 45.3119 118.749C44.0146 119.638 42.6452 120.422 41.3039 121.247C39.0546 122.633 36.6479 123.691 34.1826 124.619C32.6972 125.179 31.2026 125.73 29.6812 126.182C27.5266 126.822 25.3452 127.363 23.1172 127.701C19.9146 128.186 16.7266 128.759 13.5532 129.411C10.3332 130.074 7.10391 130.686 3.88125 131.327C3.54125 131.395 3.23725 131.35 2.96791 131.147C2.17858 130.551 1.62392 129.834 1.66525 128.766C1.72525 127.254 1.73991 125.739 1.78391 124.227C1.83858 122.363 1.90391 120.499 1.96391 118.637C2.02658 116.681 2.08791 114.725 2.15058 112.77C2.17991 111.838 2.21058 110.906 2.24125 109.974C2.24391 109.882 2.24391 109.79 2.25458 109.699C2.30258 109.311 2.39191 109.251 2.76525 109.393C3.36658 109.619 3.95991 109.866 4.55858 110.098C5.59858 110.502 6.64925 110.881 7.68125 111.307C8.45591 111.627 9.20392 112.018 9.97192 112.357C11.1239 112.866 12.3412 113.174 13.5666 113.443C15.7386 113.919 17.8106 114.713 19.9172 115.401C21.1532 115.805 22.3919 116.206 23.6852 116.383C24.1199 116.442 24.5652 116.431 25.0052 116.453C25.1266 116.458 25.2559 116.442 25.3692 116.474C25.6679 116.559 25.9319 116.474 26.2159 116.39C26.5786 116.283 26.9612 116.233 27.3399 116.194C29.3426 115.985 31.2732 115.443 33.1986 114.895C35.3346 114.287 37.3839 113.442 39.4052 112.525C42.4666 111.137 45.3359 109.422 48.0666 107.469C49.9826 106.098 51.8226 104.635 53.6186 103.109C55.2999 101.681 56.8866 100.158 58.4386 98.598C59.2772 97.7566 60.0239 96.8233 60.8052 95.926C61.6386 94.9686 62.4612 94.0033 63.2892 93.0433C63.3399 92.9846 63.3959 92.934 63.4479 92.8766C63.5719 92.7393 63.7212 92.5953 63.6266 92.3953C63.5199 92.1726 63.2879 92.1166 63.0759 92.1526C62.8892 92.1846 62.6972 92.274 62.5412 92.386C61.6159 93.0593 60.7092 93.7606 59.7772 94.426C58.0692 95.6433 56.2466 96.6793 54.4239 97.7113C53.8772 98.0206 53.3212 98.31 52.7799 98.626C50.5012 99.9566 48.0666 100.961 45.6426 101.977C43.7546 102.769 41.8479 103.533 39.9092 104.185C37.6212 104.954 35.3066 105.649 32.9372 106.151C30.9306 106.575 28.9026 106.847 26.8759 107.126C26.2559 107.211 25.6346 107.291 25.0132 107.363C24.8959 107.377 24.7639 107.369 24.6546 107.329C24.0999 107.123 23.5212 107.099 22.9412 107.053C22.5466 107.022 22.1466 106.985 21.7612 106.897C20.4506 106.599 19.1319 106.327 17.8439 105.949C16.8652 105.662 15.9226 105.247 14.9772 104.855C14.0012 104.45 13.1039 103.898 12.2012 103.349C10.8799 102.543 9.84925 101.459 8.91592 100.257C8.30258 99.4646 7.82658 98.5886 7.46658 97.6673C7.24658 97.1086 7.19458 96.4806 7.10391 95.878C7.03991 95.4566 7.02791 95.026 7.01191 94.5993C6.94258 92.802 7.16125 91.0646 8.01058 89.4393C8.81191 87.9073 9.88791 86.6273 11.3052 85.63C12.0559 85.0993 12.8012 84.5673 13.6572 84.2126C13.7412 84.178 13.8226 84.1273 13.8879 84.0673C14.1279 83.846 14.0866 83.566 13.7812 83.458C13.6132 83.398 13.4212 83.378 13.2412 83.3806C12.3319 83.3953 11.4466 83.254 10.5706 83.018C9.87725 82.8313 9.16792 82.702 8.47058 82.5326C8.13058 82.4486 7.79325 82.3446 7.53325 82.0793C7.46125 82.0046 7.35725 81.9553 7.25858 81.9166C5.99725 81.4153 4.99191 80.542 3.98391 79.6713C2.95858 78.7846 2.17058 77.714 1.65191 76.4753C1.26391 75.5526 0.858579 74.6153 0.838579 73.578C0.835912 73.3833 0.794583 73.1753 0.711916 73.0006C0.579916 72.7206 0.593245 72.4406 0.598579 72.1486C0.609245 71.586 0.603914 71.022 0.594581 70.458C0.586581 69.91 0.505246 69.3593 0.735913 68.83C0.795913 68.6926 0.814583 68.5313 0.822583 68.3806C0.878583 67.2126 1.41191 66.2126 1.92925 65.2046C2.46658 64.1566 3.27191 63.3273 4.06258 62.4686C4.97991 61.4726 5.99992 60.6073 7.06392 59.7833C7.49858 59.446 7.93191 59.1086 8.37591 58.786C8.53458 58.6713 8.71725 58.582 8.89991 58.506C10.9212 57.6686 12.9692 56.906 15.0719 56.298C15.6746 56.1233 16.2679 55.9113 16.8799 55.7833C19.1239 55.3153 21.3692 54.8566 23.6226 54.4326C24.6119 54.246 25.6292 54.2073 26.6132 53.998C27.1919 53.8753 27.7172 53.9353 28.2799 54.0193C29.4572 54.1966 30.6492 54.2833 31.8266 54.458C33.4292 54.6953 35.0279 54.962 36.6212 55.25C38.8172 55.6486 41.0079 56.0766 43.1999 56.498C43.3759 56.5313 43.5679 56.5766 43.7132 56.6753C44.0746 56.918 44.4679 56.894 44.8652 56.87C45.0572 56.858 45.2666 56.79 45.2746 56.5793C45.2786 56.442 45.1732 56.258 45.0586 56.1686C44.8212 55.9806 44.5546 55.8233 44.2839 55.6846C42.9639 55.0113 41.6399 54.3446 40.3132 53.6806C37.9146 52.4793 35.6959 50.978 33.4226 49.5673C30.8199 47.9526 28.4186 46.0593 26.0919 44.0726C25.2559 43.358 24.4119 42.6446 23.6386 41.8646C21.6786 39.8873 19.8292 37.8073 18.1626 35.5766C17.2839 34.402 16.5066 33.1593 15.8212 31.8553C15.2132 30.6993 14.6546 29.5286 14.2946 28.2766C13.8466 26.722 13.4612 25.1566 13.4132 23.5153C13.3652 21.9166 13.6039 20.374 14.0532 18.8566C14.2439 18.2153 14.5212 17.5966 14.7812 16.9766C14.9692 16.5273 15.1372 16.054 15.4132 15.6606C15.8852 14.9886 16.4092 14.346 16.9599 13.7353C17.4492 13.1913 17.9679 12.6593 18.5412 12.2073C19.6826 11.306 20.9132 10.55 22.2679 9.98197C23.7279 9.36864 25.2239 8.90331 26.7666 8.56997C26.8266 8.55664 26.8892 8.55264 26.9466 8.53397C27.7679 8.26997 28.5652 8.42597 29.3772 8.62063C31.0612 9.0273 32.7346 9.46597 34.2826 10.2593C35.3586 10.81 36.3879 11.4433 37.2626 12.2966C37.4466 12.4753 37.6559 12.65 37.8852 12.7526C38.3946 12.9793 38.7266 12.7566 38.7532 12.2046C38.7639 11.9913 38.7639 11.7753 38.7532 11.562C38.7252 11.0513 38.8066 10.5553 38.9586 10.07C39.1732 9.38464 39.3932 8.70064 39.6172 8.01797C39.6546 7.90197 39.7012 7.78197 39.7732 7.6873C40.3986 6.87797 41.0066 6.05397 41.6679 5.27531C42.5292 4.25664 43.6759 3.58997 44.7799 2.87663C46.2906 1.9033 47.9612 1.3433 49.6906 0.896633C51.0586 0.541966 52.4532 0.383306 53.8426 0.18064C54.0079 0.15664 54.1812 0.153975 54.3452 0.177975C55.7946 0.389975 57.2519 0.576641 58.6546 1.01131C59.9826 1.42331 61.3039 1.85263 62.5106 2.5793C64.0559 3.50997 65.6132 4.41397 67.0319 5.54463C68.8892 7.02463 70.4786 8.74731 71.8399 10.6806C72.5252 11.654 73.1666 12.6633 73.7586 13.6953C74.1439 14.3686 74.3772 15.126 74.7292 15.8206C75.4332 17.2113 75.7146 18.7406 76.2052 20.2006C76.2679 20.3873 76.2906 20.5886 76.3306 20.7833C76.4626 21.426 76.6146 22.0646 76.7212 22.7113C76.8359 23.4033 76.9466 24.098 76.9906 24.7966C77.0372 25.5273 77.0012 26.2646 77.0012 26.998C77.0106 26.9993 77.0212 26.9993 77.0306 26.9993Z" fill="#5EC0AF"/>
</svg>
