<svg width="113" height="150" viewBox="0 0 113 150" fill="none" xmlns="http://www.w3.org/2000/svg">
<path d="M42.6214 111.984C42.5894 109.726 41.7 108.298 40.4307 107.506C39.316 106.812 38.2747 107.033 37.5987 108.125C37.124 108.893 36.6507 109.676 36.3 110.505C36.096 110.99 36.0454 111.585 36.08 112.12C36.1774 113.633 36.992 114.748 38.148 115.686C39.1627 116.509 40.304 116.434 41.0614 115.242C41.5467 114.48 41.9627 113.672 42.3627 112.861C42.532 112.52 42.5827 112.121 42.6214 111.984ZM64.5854 133.292C64.5 132.422 64.4414 131.238 64.256 130.074C64.0227 128.616 63.384 127.346 61.9814 126.685C60.772 126.114 59.096 126.414 59.2974 128.317C59.452 129.768 59.436 131.236 59.5827 132.686C59.764 134.474 60.5627 135.91 62.204 136.788C63.192 137.316 63.5294 137.285 64.248 136.456C64.4334 136.241 64.5507 135.906 64.5707 135.618C64.6174 134.95 64.5854 134.277 64.5854 133.292ZM21.9267 79.4984C21.2254 79.597 20.5254 79.709 19.8227 79.793C18.708 79.9264 18.0907 80.5904 18.0587 81.721C18.004 83.6424 18.92 85.009 20.4654 86.0557C21.1147 86.4957 21.824 86.6104 22.4814 86.349C23.1254 86.093 23.7547 86.0077 24.424 85.961C25.384 85.893 25.988 85.3837 26.104 84.4397C26.1734 83.873 26.1427 83.2237 25.9307 82.705C25.1214 80.721 24.0054 79.265 21.9267 79.4984ZM86.2254 140.408C86.156 140.036 86.144 139.672 86.0187 139.352C85.2867 137.486 84.5494 135.624 83.7734 133.776C83.348 132.764 82.6174 131.978 81.656 131.456C80.536 130.848 78.9067 131.277 79.028 132.921C79.0974 133.845 79.3014 134.705 79.644 135.544C80.1947 136.888 80.78 138.218 81.3334 139.562C81.7747 140.632 82.528 141.437 83.516 141.97C84.252 142.368 85.5907 142.388 85.9827 141.417C86.112 141.097 86.148 140.741 86.2254 140.408ZM93.1067 123.63C92.972 124.329 93.2787 124.941 93.6787 125.557C95.0374 127.65 96.5654 129.602 98.3454 131.354C99.004 132.002 99.9 132.124 100.704 131.685C101.113 131.461 101.367 131.133 101.411 130.661C101.528 129.405 101.335 128.218 100.551 127.189C99.7387 126.122 98.94 125.041 98.0774 124.016C97.4187 123.236 96.7147 122.481 95.9467 121.812C95.2854 121.233 94.4 121.394 93.696 121.897C93.0614 122.35 93.0747 122.937 93.1067 123.63ZM106.648 103.974C106.824 102.814 106.217 101.808 105.268 100.926C103.799 99.5623 102.079 98.561 100.267 97.801C98.8507 97.2077 97.76 97.8904 97.6827 99.281C97.5947 100.845 98.1107 102.388 99.4894 103.337C100.916 104.318 102.437 105.172 103.956 106.012C104.637 106.389 105.325 106.302 106.048 105.83C106.753 105.37 106.609 104.777 106.648 103.974ZM9.03338 49.333C8.98138 51.2837 10.0547 52.673 11.5894 53.6957C12.896 54.5677 14.3174 55.273 15.7107 56.0064C16.6507 56.501 17.712 55.973 17.864 54.9397C18.0854 53.4237 17.8094 52.0037 16.688 50.8904C16.0787 50.2837 15.384 49.7424 14.6614 49.2757C13.736 48.6784 12.7267 48.2157 11.788 47.6384C11.148 47.245 10.4534 46.9344 9.79471 47.2957C9.06804 47.6917 9.00671 48.5144 9.03338 49.333ZM99.2614 71.4557C99.32 69.7157 98.4707 68.493 97.2587 67.433C96.3254 66.617 95.3067 66.5237 94.176 66.897C93.7734 67.0304 93.3494 67.1357 92.928 67.1677C91.5534 67.2704 90.5574 68.333 90.7427 69.6997C90.8454 70.4637 91.0787 71.253 91.4387 71.9344C92.3747 73.705 93.7347 74.277 95.6654 73.8784C96.2427 73.7597 96.8294 73.681 97.4134 73.5904C98.5187 73.417 99.2627 72.541 99.2614 71.4557ZM81.1974 39.0744C81.1627 37.281 80.2494 35.9304 78.92 34.8517C78.0587 34.153 76.6 34.473 76.044 35.4117C75.4627 36.3944 74.8827 37.3837 74.3947 38.4144C74.168 38.8917 74.064 39.4744 74.0734 40.0064C74.1027 41.645 74.9014 42.965 76.0907 44.005C77.464 45.2064 78.3707 45.0237 79.3454 43.4837C79.5987 43.085 79.808 42.6584 80.0307 42.2424C80.2534 41.825 80.4294 41.377 80.6974 40.993C81.1067 40.4077 81.2334 39.7744 81.1974 39.0744ZM13.952 19.0197C13.3307 18.965 12.932 19.241 12.6654 19.7437C12.0587 20.8904 12.172 22.057 12.7467 23.1464C13.956 25.4384 15.648 27.389 17.3507 29.3157C17.8067 29.833 18.48 30.1623 19.0707 30.553C19.2214 30.653 19.4494 30.721 19.6214 30.689C20.8187 30.469 21.4987 29.3277 21.212 28.1104C20.8094 26.409 19.8667 25.0117 18.7907 23.681C18.0707 22.7917 17.408 21.8517 16.6494 20.997C16.1027 20.3824 15.46 19.8477 14.8187 19.3277C14.5934 19.1464 14.244 19.1184 13.952 19.0197ZM56.14 20.2117C56.188 20.2064 56.2347 20.1997 56.2814 20.1944C56.088 18.4744 55.9694 16.741 55.6774 15.037C55.388 13.353 54.4787 12.0637 52.808 11.413C51.8734 11.049 51.4787 11.1437 50.876 11.9197C50.4094 12.5197 50.2307 13.177 50.3867 13.9184C50.6734 15.277 50.7654 16.649 50.7854 18.0344C50.7947 18.6597 50.852 19.3024 51.0094 19.905C51.3774 21.321 52.1054 22.5037 53.3907 23.305C54.028 23.7024 54.7 23.733 55.2947 23.4304C55.856 23.145 56.232 22.617 56.152 21.8704C56.0934 21.3237 56.14 20.765 56.14 20.2117ZM33.708 18.801C34.3174 19.0624 34.6134 18.5944 34.9174 18.0917C35.3427 17.389 35.3307 16.6344 35.108 15.9117C34.832 15.0117 34.444 14.145 34.0907 13.2704C33.528 11.8824 32.9667 10.4944 32.3814 9.11702C31.9414 8.07836 31.3187 7.18236 30.2974 6.61702C28.9507 5.87169 28.0894 6.22902 27.5667 7.70902C27.3307 8.37836 27.2974 9.01036 27.568 9.66503C28.4427 11.777 29.288 13.8997 30.1947 15.997C30.4574 16.6037 30.8227 17.1984 31.2614 17.6904C31.8667 18.3717 32.572 18.981 33.708 18.801ZM60.6014 85.349C61.0547 85.253 61.568 85.2637 61.9494 85.045C63.4494 84.1877 64.1334 82.849 64.1454 81.117C64.1574 79.4757 64.016 77.8704 63.2907 76.377C62.968 75.7117 63.0227 75.129 63.3227 74.469C65.9027 68.7904 68.4 63.0744 71.048 57.429C71.9654 55.4757 71.4654 52.5784 69.304 51.1384C68.0787 50.3237 66.8947 50.6117 66.304 51.929C63.9347 57.2237 61.5707 62.5197 59.1974 67.813C58.9734 68.313 58.7014 68.7904 58.452 69.2784C57.9147 69.0664 57.332 68.9277 56.8494 68.6277C55.7147 67.9237 54.6014 68.037 53.4587 68.545C53.3854 68.577 53.2974 68.5877 53.2414 68.637C52.8107 69.009 52.4787 68.8384 52.108 68.505C51.1334 67.6317 50.1134 66.8117 49.1454 65.933C45.3294 62.4664 41.5294 58.985 37.7187 55.513C36.868 54.7397 36.004 53.9823 35.144 53.2183C33.1 51.405 31.008 49.641 29.036 47.7517C28.3547 47.0984 27.7014 46.861 26.8294 46.941C26.1094 47.0077 25.5467 47.4637 25.492 48.185C25.408 49.265 25.496 50.345 26.1654 51.2477C26.704 51.9757 27.2774 52.6997 27.9414 53.3077C30.3387 55.5037 32.784 57.6464 35.2054 59.817C36.5627 61.033 37.9027 62.2704 39.2627 63.4864C40.9174 64.965 42.5947 66.4197 44.2427 67.9064C45.98 69.4717 47.6214 71.157 49.4454 72.6117C50.8734 73.7517 51.7067 75.0917 52.2107 76.8397C52.932 79.3437 54.3214 81.5184 56.2707 83.2904C57.4947 84.4037 58.8547 85.2477 60.6014 85.349ZM28.3507 0.499694H37.8694C38.0467 0.571694 38.22 0.694359 38.4014 0.706359C40.3894 0.846359 42.3014 1.35836 44.152 2.04102C45.6294 2.58636 47.0134 3.38102 48.476 3.97036C53.6507 6.05302 58.3814 8.90635 62.8747 12.1757C66.2094 14.5997 69.572 17.005 72.456 19.9717C75.1627 22.757 77.7987 25.617 80.376 28.5237C83.136 31.6357 85.7894 34.8397 88.092 38.3184C88.856 39.473 89.768 40.5357 90.48 41.721C94.7587 48.8424 99.0374 55.9557 102.484 63.5477C104.481 67.9464 106.26 72.405 107.707 77.005C107.955 77.793 108.132 78.6037 108.329 79.4077C108.629 80.6317 108.889 81.8664 109.219 83.0824C110.036 86.0944 110.731 89.1317 111.177 92.2237C111.427 93.9437 111.681 95.6637 111.955 97.381C112.059 98.0317 112.223 98.6717 112.36 99.317V116.224C112.303 116.325 112.208 116.422 112.196 116.529C112.08 117.59 111.964 118.653 111.875 119.717C111.699 121.806 111.589 123.916 110.799 125.885C109.488 129.148 108.151 132.401 106.752 135.626C105.992 137.382 104.897 138.949 103.533 140.302C102.548 141.278 101.533 142.228 100.509 143.164C95.6547 147.597 89.9814 149.934 83.364 149.796C81.108 149.749 78.8507 149.688 76.6014 149.524C75.108 149.414 73.6094 149.197 72.148 148.872C70.5374 148.512 68.9787 147.914 67.372 147.526C63.8307 146.672 60.5987 145.15 57.5694 143.156C57.008 142.786 56.4174 142.461 55.8547 142.092C52.9787 140.202 49.872 138.66 47.2694 136.36C45.0734 134.418 42.8507 132.504 40.6974 130.514C39.1854 129.116 37.768 127.613 36.3147 126.152C35.532 125.364 34.7094 124.609 33.9987 123.76C31.9894 121.36 29.988 118.95 28.056 116.488C24.5067 111.965 21.2414 107.236 18.3654 102.258C16.9414 99.7943 15.7454 97.1997 14.4214 94.677C11.884 89.8424 9.54538 84.9144 7.74404 79.7544C6.44271 76.0264 5.30004 72.2437 3.98271 68.521C2.57604 64.5477 1.67604 60.4664 1.28004 56.289C0.977376 53.0957 0.878711 49.881 0.772045 46.673C0.692045 44.2544 0.70671 41.8317 0.75071 39.413C0.789377 37.3144 0.917377 35.217 1.02938 33.1197C1.07738 32.2117 1.09204 31.285 1.28404 30.401C1.90271 27.5477 2.43604 24.661 3.30138 21.8797C4.46938 18.1264 6.36671 14.6824 8.53871 11.4104C9.66538 9.71302 11.1147 8.30103 12.752 7.08636C13.2934 6.68503 13.8374 6.28503 14.3467 5.84503C15.4707 4.8757 16.7454 4.1717 18.1134 3.62503C18.8467 3.33303 19.5774 3.02369 20.3294 2.78636C22.4334 2.12236 24.544 1.47969 26.66 0.853026C27.2094 0.690359 27.7854 0.615694 28.3507 0.499694Z" fill="#F9F7EC"/>
</svg>
