<svg width="134" height="132" viewBox="0 0 134 132" fill="none" xmlns="http://www.w3.org/2000/svg">
<path d="M31.1258 118.683C30.8031 118.43 30.6378 118.423 30.3391 118.671C26.8365 121.59 23.3605 124.542 19.8005 127.387C17.6138 129.135 15.2471 130.677 12.4445 131.222C9.91512 131.714 7.35912 131.645 4.88445 130.799C1.81379 129.751 1.11912 128.154 2.06446 124.605C2.44046 123.187 3.61246 122.305 5.02712 121.909C6.62046 121.462 8.23245 121.073 9.85245 120.727C13.3005 119.991 16.2978 118.529 18.4058 115.582C19.2991 114.333 20.1711 113.069 21.0738 111.827C21.3831 111.402 21.3178 111.127 20.9445 110.763C17.6031 107.505 14.8338 103.787 12.5191 99.7554C9.79912 95.0194 7.98979 89.9354 7.05779 84.5341C6.37912 80.5941 6.25645 76.6674 6.63245 72.6834C6.95645 69.2461 7.70312 65.9208 8.75245 62.6594C10.6485 56.7621 13.7871 51.5528 17.7018 46.7794C21.9618 41.5861 27.1645 37.5434 32.8925 34.1154C39.0831 30.4088 45.8031 28.1034 52.8138 26.5714C56.6845 25.7261 60.6231 25.3821 64.5618 25.0528C65.0031 25.0154 65.1724 24.8781 65.1684 24.4301C65.1431 21.6221 65.1298 18.8141 65.1271 16.0061C65.1271 15.5034 64.9351 15.3168 64.4258 15.3221C62.5084 15.3434 60.5911 15.3341 58.6738 15.3314C57.0298 15.3288 55.3631 13.6928 55.1511 12.0594C54.8444 9.68477 56.3978 8.88477 58.1044 8.9061C61.3644 8.94877 64.6271 8.94611 67.8871 8.89811C70.4804 8.86077 73.0724 8.6861 75.6658 8.65277C76.7751 8.6381 77.8924 8.79143 78.9978 8.93143C80.0644 9.0661 80.4831 9.61277 80.4578 10.6834C80.4418 11.3314 80.5071 11.9954 80.3858 12.6234C80.1191 13.9954 79.1751 14.8341 77.6284 14.9594C75.3484 15.1448 73.0591 15.2301 70.7725 15.3168C70.2631 15.3368 70.1018 15.4714 70.1071 15.9928C70.1325 18.7848 70.1284 21.5781 70.1124 24.3714C70.1098 24.8768 70.2804 25.0048 70.7858 25.0621C74.2724 25.4608 77.7765 25.7821 81.2338 26.3714C85.9418 27.1741 90.5471 28.4101 94.9058 30.4328C95.2751 30.6048 95.6484 30.7741 96.0298 30.9141C103.675 33.7248 110.103 38.4101 115.792 44.1021C121.814 50.1274 126.204 57.2181 128.472 65.4874C130.29 72.1168 130.538 78.8314 129.335 85.6261C128.698 89.2288 127.623 92.6754 126.098 95.9648C123.531 101.502 120.05 106.431 115.736 110.765C115.099 111.405 114.486 112.07 113.887 112.747C113.81 112.835 113.826 113.114 113.907 113.219C114.367 113.817 114.908 114.357 115.334 114.977C116.676 116.933 118.479 118.321 120.556 119.411C122.287 120.319 124.17 120.618 126.054 120.987C127.391 121.249 128.72 121.637 129.99 122.134C131.915 122.887 132.896 125.031 132.712 127.381C132.598 128.849 131.878 129.733 130.606 130.319C128.654 131.219 126.603 131.425 124.476 131.467C120.494 131.546 117.358 129.662 114.4 127.338C111.92 125.39 109.51 123.351 107.059 121.365C106.486 120.899 105.867 120.49 105.283 120.035C104.683 119.567 104.131 119.533 103.547 120.078C103.275 120.331 101.79 121.219 101.527 121.355C94.0071 125.258 85.9978 127.637 77.6311 128.695C70.8965 129.547 64.1404 129.506 57.3818 128.49C51.4738 127.602 45.7951 126.013 40.2965 123.735C38.5285 123.002 36.8338 122.093 35.0938 121.289C34.8805 121.19 32.0565 119.414 31.1258 118.683Z" fill="#DB4C97"/>
<path d="M71.3241 4.74949C68.2921 4.74949 65.2601 4.75082 62.2281 4.74816C60.8867 4.74816 59.5387 4.65349 58.2054 4.74816C54.5081 5.01216 50.8014 5.22816 47.1294 5.69616C43.1107 6.20816 39.0881 6.81482 35.1361 7.69082C31.6654 8.45882 28.2694 9.61082 25.4707 11.9895C25.2174 12.2042 24.9507 12.4135 24.7481 12.6708C24.6334 12.8148 24.5467 13.1775 24.6094 13.2242C24.7947 13.3628 25.0934 13.5042 25.2907 13.4482C27.3334 12.8562 29.3361 12.0842 31.4107 11.6495C33.1494 11.2855 34.9667 11.2255 36.7521 11.1668C40.1347 11.0575 43.3054 12.0375 46.4094 13.2588C46.8667 13.4388 47.3054 13.7068 47.6934 14.0108C48.9547 14.9988 49.2974 16.3682 48.3854 17.6708C47.5907 18.8055 46.5574 19.7828 45.5734 20.7735C40.8321 25.5482 35.3161 29.3855 30.0747 33.5548C25.6574 37.0668 21.2814 40.6335 16.7974 44.0615C14.3094 45.9642 11.6401 47.6308 9.04674 49.3975C8.81074 49.5588 8.54408 49.6735 8.28674 49.8002C5.97208 50.9415 4.71741 50.8082 2.83608 49.0508C2.38941 48.6335 2.10941 47.9682 1.91074 47.3655C0.878742 44.2228 0.521408 40.9682 1.04141 37.7188C1.33607 35.8748 1.98808 34.0255 2.81341 32.3428C3.76408 30.4055 5.15608 28.6908 6.22008 26.8028C7.01474 25.3908 8.18141 24.3788 9.32008 23.3055C9.46675 23.1668 9.57208 22.7468 9.47874 22.6282C6.37341 18.6468 7.69208 13.3055 12.9387 10.9335C14.8094 10.0882 16.7721 9.95082 18.7934 10.1948C19.1747 10.2402 19.7174 10.1055 19.9734 9.84549C23.1574 6.59749 27.2561 5.19482 31.4987 4.11082C33.5267 3.59216 35.5827 3.14949 37.6507 2.83216C40.5027 2.39482 43.3734 2.06683 46.2454 1.76949C50.3654 1.34149 54.4881 0.941488 58.6414 0.926822C60.3561 0.920155 62.0721 0.657492 63.7854 0.680158C69.5427 0.757492 75.2987 0.909493 81.0547 1.03883C82.5187 1.07083 84.0054 0.970826 85.4401 1.19749C90.7361 2.03616 96.0147 2.98149 101.299 3.89749C104.6 4.46949 107.824 5.32549 110.783 6.93616C112.02 7.60949 113.204 8.42282 114.293 9.31616C115.077 9.96016 115.84 10.2135 116.841 10.1628C119.164 10.0442 121.291 10.6775 123.145 12.1228C126.324 14.5988 127.08 18.2148 125.188 21.7615C125.1 21.9242 125.143 22.2868 125.268 22.4135C127.724 24.8948 129.6 27.7988 131.204 30.8575C132.896 34.0828 133.525 37.5642 132.971 41.2028C132.747 42.6735 132.523 44.1535 132.156 45.5922C131.845 46.8055 131.248 47.8175 130.052 48.5442C128.543 49.4602 127.149 49.2828 125.836 48.4668C123.123 46.7815 120.435 45.0415 117.847 43.1708C114.923 41.0602 112.101 38.8055 109.269 36.5695C104.615 32.8935 99.9427 29.2388 95.3654 25.4682C92.4107 23.0335 89.5921 20.4308 86.7627 17.8495C86.1641 17.3028 85.7227 16.5548 85.3121 15.8402C84.7641 14.8815 85.1961 13.2295 86.2414 12.7055C87.7281 11.9602 89.2587 11.2002 90.8587 10.8042C93.0894 10.2522 95.3921 9.85082 97.6814 9.72682C99.3521 9.63482 101.104 9.90682 102.728 10.3522C105.016 10.9775 107.211 11.9388 109.469 12.6828C109.743 12.7722 110.169 12.3975 110.525 12.2375C110.347 12.0068 110.213 11.7082 109.983 11.5575C107.596 10.0015 105.111 8.66816 102.297 8.00682C98.2974 7.06682 94.2307 6.56549 90.1707 5.97216C83.9161 5.05882 77.6174 4.94016 71.3241 4.74949Z" fill="#DB4C97"/>
</svg>
