<svg width="140" height="133" viewBox="0 0 140 133" fill="none" xmlns="http://www.w3.org/2000/svg">
<path d="M118.366 132.167C118.033 132.119 117.702 132.051 117.368 132.027C115.704 131.913 114.261 131.195 112.862 130.375C109.7 128.519 107.762 125.747 106.836 122.234C106.404 120.599 106.212 118.929 106.108 117.245C105.921 114.23 106.108 111.223 106.288 108.217C106.448 105.547 106.517 102.875 106.393 100.203C106.244 96.99 105.584 93.9007 103.936 91.086C103.326 90.0433 102.73 88.9927 102.093 87.9687C100.393 85.2353 98.4462 82.674 96.5529 80.0753C94.8409 77.7233 93.1129 75.382 91.4502 72.994C90.1969 71.194 89.0529 69.3207 88.2049 67.2833C87.3089 65.1287 86.7822 62.89 86.6902 60.554C86.6502 59.534 86.6262 58.514 86.6036 57.4927C86.5742 56.1967 86.4916 54.9087 86.0622 53.67C85.4022 51.766 84.1529 50.322 82.5422 49.1567C80.8622 47.942 79.0116 47.0513 77.0982 46.2833C76.2156 45.9287 75.3236 45.594 74.4222 45.2927C71.7609 44.406 70.1369 42.538 69.5609 39.8593C68.7756 36.21 69.7022 32.9433 72.2049 30.1673C73.2796 28.974 74.6316 28.1967 76.2409 27.9447C77.4196 27.7607 78.5796 27.882 79.7129 28.262C81.8049 28.962 83.6622 30.082 85.3422 31.4927C87.0102 32.894 88.6502 34.33 90.3102 35.7393C90.7769 36.1353 91.2756 36.494 91.7609 36.8673C91.8689 36.95 91.9822 37.026 92.0942 37.102C92.4156 37.3193 92.6182 37.3327 92.8316 37.1393C93.0556 36.9353 92.9662 36.6967 92.8622 36.4833C92.6769 36.1033 92.5129 35.6993 92.2582 35.37C91.2769 34.1073 90.2662 32.8673 89.2596 31.6247C88.7236 30.9647 88.1569 30.3273 87.6302 29.6593C87.3382 29.286 87.0809 28.882 86.8422 28.4713C86.5609 27.9847 86.5516 27.4247 86.5196 26.8847C86.4316 25.446 86.8302 24.1433 87.7862 23.062C89.9196 20.6473 92.5916 19.7633 95.7382 20.4393C97.1756 20.7487 98.2489 21.6927 99.2196 22.7393C99.5756 23.1233 99.8756 23.5647 100.165 24.0047C100.864 25.0713 101.534 26.1567 102.232 27.2247C102.633 27.8407 103.109 28.3967 103.678 28.866C103.748 28.9233 103.849 28.9433 103.937 28.9807C103.949 28.898 103.972 28.8153 103.972 28.7327C103.966 27.7207 103.734 26.7447 103.505 25.7673C103.264 24.742 103.002 23.7193 102.804 22.686C102.588 21.5607 102.493 20.414 102.822 19.2967C103.6 16.662 105.317 15.0233 108.048 14.5193C109.668 14.2193 111.232 14.4287 112.724 15.13C114.629 16.026 115.713 17.5287 116.021 19.606C116.18 20.6873 116.236 21.7713 116.232 22.862C116.226 23.9367 116.3 25.0047 116.526 26.058C116.664 26.6953 116.9 27.294 117.273 27.8313C117.344 27.9327 117.465 27.998 117.562 28.0793C117.597 27.9727 117.648 27.8673 117.661 27.758C117.837 26.3913 118.072 25.0367 118.472 23.714C118.938 22.174 119.582 20.7193 120.534 19.4113C120.968 18.8167 121.472 18.2913 122.078 17.8673C123.388 16.954 124.798 16.754 126.297 17.286C127.786 17.814 129.02 18.7393 130.114 19.8593C130.418 20.1713 130.476 20.5793 130.51 20.99C130.569 21.6793 130.417 22.3447 130.268 23.0087C129.909 24.5887 129.304 26.0873 128.742 27.6007C128.269 28.874 127.784 30.1433 127.312 31.418C127.104 31.9767 126.916 32.542 126.942 33.1527C126.957 33.478 127.044 33.6313 127.245 33.674C127.436 33.7153 127.732 33.5767 127.841 33.3633C127.934 33.1833 127.994 32.986 128.064 32.7953C128.704 31.0207 129.678 29.4633 131.084 28.1927C131.933 27.426 132.906 26.886 134.036 26.6607C136.193 26.23 137.945 27.3927 138.384 29.5473C138.645 30.83 138.458 32.086 138.13 33.33C137.888 34.254 137.54 35.1407 137.101 35.9873C135.989 38.1327 135.209 40.3873 134.874 42.7847C134.749 43.6753 134.677 44.5753 134.608 45.474C134.489 47.0047 134.536 48.538 134.7 50.0593C134.886 51.7833 135.098 53.5073 135.385 55.2153C135.9 58.266 136.513 61.2993 137.017 64.3513C137.366 66.4633 137.621 68.5927 137.88 70.7193C138.133 72.7953 138.346 74.8767 138.558 76.958C138.654 77.906 138.71 78.858 138.777 79.8087C138.88 81.25 139.006 82.6927 139.068 84.1367C139.141 85.8713 139.153 87.6073 139.204 89.342C139.218 89.8647 139.269 90.3847 139.304 90.906V94.6847C139.269 94.9153 139.212 95.1447 139.205 95.3767C139.162 96.8207 139.162 98.2673 139.09 99.7087C139.017 101.169 138.908 102.627 138.757 104.081C138.605 105.533 138.377 106.977 138.192 108.426C137.745 111.907 136.93 115.302 135.773 118.614C134.814 121.357 133.542 123.939 131.746 126.239C129.281 129.399 126.132 131.426 122.114 131.998C121.784 132.045 121.454 132.11 121.124 132.167H118.366Z" fill="#FDD7A7"/>
<path d="M20.8031 16.2164C20.7711 14.7004 20.3777 13.2524 20.0711 11.7884C19.8097 10.5417 19.5657 9.29107 19.3551 8.03507C19.2217 7.24174 19.2604 6.43774 19.4417 5.65107C19.7497 4.31774 20.5377 3.3324 21.6871 2.61907C22.8137 1.9204 24.0417 1.45508 25.3417 1.25108C27.6231 0.893743 29.4991 1.63374 30.8551 3.53507C31.6084 4.58974 32.0004 5.81108 32.2577 7.06574C32.5671 8.58041 32.8057 10.1084 33.0897 11.6297C33.2244 12.3471 33.3911 13.0577 33.5511 13.7697C33.5671 13.8417 33.6324 13.9044 33.6751 13.9697C33.7337 13.9151 33.8151 13.8697 33.8497 13.8017C34.1991 13.1124 34.3951 12.3777 34.5151 11.6164C34.7431 10.1551 34.9084 8.67907 35.2364 7.2404C35.9257 4.22707 37.7564 2.25774 40.8044 1.5044C41.7484 1.26974 42.6951 1.2924 43.6324 1.54174C44.9924 1.9044 46.1911 2.55507 47.1551 3.59374C48.2271 4.7484 48.6244 6.12707 48.4604 7.6844C48.3311 8.89774 47.9257 10.0324 47.5311 11.1737C47.1137 12.3764 46.6937 13.5804 46.3164 14.7964C46.0577 15.6284 45.9684 16.4951 46.0311 17.3684C46.0444 17.5511 46.0804 17.7457 46.1631 17.9057C46.3471 18.2631 46.6444 18.2817 46.8791 17.9577C46.9964 17.7937 47.0751 17.6017 47.1684 17.4204C48.2297 15.3484 49.2537 13.2564 50.3617 11.2097C51.4404 9.2164 52.7071 7.3404 54.2164 5.63907C55.5577 4.1284 57.0444 2.78841 58.8751 1.88174C60.5097 1.07374 62.2417 0.701733 64.0644 0.841733C65.5031 0.951067 66.8617 1.37774 68.1617 2.00174C69.2084 2.50574 70.1737 3.13774 71.0911 3.84707C71.3604 4.05507 71.6177 4.27907 71.8897 4.48307C73.9911 6.06574 74.8177 8.2924 75.0337 10.8031C75.1831 12.5444 74.7097 14.1697 73.9724 15.7311C72.9884 17.8151 71.6297 19.6337 70.0444 21.2911C69.5391 21.8204 69.0324 22.3524 68.4817 22.8324C67.8031 23.4231 67.1084 24.0057 66.3671 24.5111C65.1017 25.3711 63.8084 26.1924 62.4991 26.9844C61.6191 27.5177 60.9164 28.2124 60.3457 29.0511C60.0684 29.4591 59.8244 29.8884 59.5577 30.3031C59.2217 30.8271 59.1391 31.4084 59.1631 32.0137C59.2057 33.0964 59.4457 34.1311 59.8911 35.1217C60.3777 36.2071 60.8444 37.3017 61.3151 38.3937C61.9404 39.8417 62.2764 41.3697 62.4871 42.9204C62.6831 44.3684 62.8257 45.8257 62.9591 47.2804C63.0871 48.6804 62.9337 50.0697 62.6884 51.4457C62.2831 53.7204 61.8724 55.9951 61.2644 58.2284C60.7777 60.0151 60.2777 61.7991 59.8151 63.5911C59.1697 66.0937 58.8977 68.6391 59.0164 71.2244C59.1057 73.1831 58.9671 75.1364 58.8511 77.0897C58.7537 78.7391 58.7457 80.3844 58.8697 82.0364C59.2097 86.5871 60.5617 90.8591 62.3284 95.0311C63.3817 97.5177 64.4084 100.018 65.3764 102.539C66.3231 105.007 66.8924 107.576 67.2137 110.204C67.5297 112.783 67.5551 115.363 67.3151 117.946C67.2124 119.046 67.1471 120.158 66.9337 121.238C66.5777 123.052 65.7124 124.659 64.6017 126.122C62.5577 128.812 59.8284 130.488 56.5897 131.339C52.2297 132.484 47.9924 131.975 43.8604 130.284C41.8711 129.47 40.1311 128.259 38.4884 126.895C35.2631 124.218 32.6324 121.023 30.3364 117.539C27.8377 113.748 25.8377 109.699 24.1137 105.508C22.0631 100.52 20.4217 95.3964 18.9991 90.1951C17.4217 84.4231 16.0671 78.5991 14.7951 72.7551C14.3097 70.5311 13.7791 68.3151 13.3431 66.0804C12.9604 64.1297 12.6604 62.1631 12.3604 60.1977C11.9391 57.4417 11.5497 54.6804 11.1484 51.9217C10.7911 49.4644 10.3137 47.0311 9.69641 44.6244C9.06708 42.1671 8.23774 39.7791 7.20174 37.4617C6.73108 36.4111 6.05908 35.4951 5.33508 34.6124C4.41774 33.4937 3.49108 32.3817 2.59241 31.2497C1.82708 30.2871 1.17241 29.2524 0.752411 28.0884C0.112412 26.3164 0.292411 24.6457 1.41508 23.1071C1.52441 22.9591 1.64975 22.8044 1.80441 22.7124C2.68575 22.1871 3.61508 21.7937 4.64574 21.6404C5.71241 21.4831 6.70841 21.6791 7.66441 22.1404C8.62308 22.6017 9.45108 23.2537 10.2751 23.9151C11.2684 24.7137 12.2697 25.5044 13.2777 26.2857C13.4257 26.4017 13.6271 26.4484 13.8031 26.5271C13.7551 26.3377 13.7311 26.1391 13.6564 25.9604C13.2911 25.0751 12.8031 24.2604 12.2057 23.5111C11.2524 22.3124 10.2857 21.1244 9.34174 19.9191C8.56174 18.9231 7.90574 17.8524 7.49241 16.6484C7.11241 15.5471 6.98041 14.4204 7.28974 13.2857C7.84708 11.2377 9.28441 10.1097 11.2777 9.62174C12.1337 9.41241 13.0031 9.46307 13.8604 9.6524C15.1631 9.93907 16.1871 10.6537 16.9924 11.7057C17.2084 11.9871 17.4431 12.2564 17.6857 12.5164C18.1471 13.0124 18.4444 13.6004 18.6857 14.2217C19.0191 15.0764 19.3511 15.9324 19.6791 16.7884C19.8351 17.1937 20.0764 17.5391 20.3964 17.8297C20.5551 17.9751 20.6137 17.9591 20.6431 17.7364C20.7071 17.2311 20.7511 16.7231 20.8031 16.2164Z" fill="#FDD7A7"/>
</svg>
