<svg width="136" height="115" viewBox="0 0 136 115" fill="none" xmlns="http://www.w3.org/2000/svg">
<path d="M0.404297 15.5627C18.1376 7.65866 36.9696 4.14666 55.2603 2.55333C66.4976 1.68266 77.9923 -0.39334 89.2016 1.48799C100.403 1.40133 142.304 7.40399 134.188 41.4613C133.503 43.0893 129.131 56.0013 126.416 58.9027C125.77 60.56 123.492 61.1467 123.284 58.616C123.326 56.2547 122.546 55.0493 121.631 53.6027C106.799 30.148 82.711 36.048 65.9363 43.3227C64.4843 44.1547 70.9523 48.4573 71.4336 49.4813C77.399 54.6813 83.2123 61.044 89.2216 65.6307C100.407 76.3253 111.751 86.8293 123.166 97.0293C134.258 112.211 54.795 124.455 62.4803 103.531C73.0496 92.7253 86.2376 94.8747 97.6283 92.0147C77.6483 76.768 58.031 61.404 38.2176 45.8173C29.7976 39.4747 21.2816 32.9773 12.859 26.1853C8.91363 22.4547 3.7603 20.8613 0.404297 15.5627Z" fill="#EBEA76"/>
</svg>
