<svg width="133" height="134" viewBox="0 0 133 134" fill="none" xmlns="http://www.w3.org/2000/svg">
<path d="M79.6457 59.497C79.6204 59.497 79.4897 59.485 79.3617 59.4996C79.1764 59.521 78.9937 59.561 78.8097 59.593C78.907 59.7543 78.9817 59.9356 79.103 60.0756C80.4097 61.5863 81.7137 63.0983 83.0377 64.5943C84.2964 66.017 85.583 67.4143 86.8457 68.833C88.659 70.8716 90.4577 72.9223 92.2724 74.9583C92.867 75.625 93.4924 76.265 94.1097 76.909C94.1684 76.9716 94.275 76.9863 94.359 77.0236C94.391 76.941 94.447 76.8596 94.451 76.7756C94.4604 76.6143 94.4537 76.4503 94.4324 76.289C94.339 75.577 94.335 74.8663 94.4577 74.157C94.587 73.405 94.7577 72.6636 95.0657 71.961C95.2737 71.4863 95.4844 71.0116 95.7164 70.5476C95.9257 70.129 96.1297 69.6983 96.3977 69.317C97.0684 68.361 97.7524 67.4116 98.4737 66.493C99.6284 65.0263 100.78 63.5543 102.002 62.1436C103.607 60.289 104.983 58.3036 105.891 56.013C105.98 55.7876 106.09 55.5663 106.144 55.3316C106.179 55.189 106.126 55.0263 106.111 54.8716C105.988 54.945 105.864 55.0156 105.744 55.093C105.69 55.129 105.644 55.177 105.596 55.2196C103.542 57.0196 101.155 58.181 98.5337 58.881C97.767 59.085 96.9777 59.205 96.2124 59.4156C95.3137 59.665 94.4004 59.773 93.4737 59.7983C92.6804 59.8196 91.8844 59.8316 91.0897 59.8183C88.5404 59.7783 85.9924 59.725 83.443 59.6756C83.3137 59.673 83.1844 59.6596 83.055 59.653C81.9537 59.6023 80.8524 59.5516 79.6457 59.497ZM89.4417 49.601C90.575 49.5876 91.591 49.3863 92.595 49.1156C93.8164 48.7876 95.0404 48.481 96.2884 48.2636C97.6417 48.029 99.027 47.9383 100.324 47.433C100.354 47.421 100.388 47.4236 100.42 47.417C100.674 47.361 100.924 47.2916 101.18 47.2516C102.146 47.0996 102.974 46.597 103.823 46.1716C104.427 45.8676 104.846 45.313 105.071 44.665C105.378 43.7863 105.404 42.8863 105.136 41.9863C105.002 41.5356 104.858 41.0876 104.732 40.6343C104.659 40.369 104.618 40.0956 104.551 39.8276C104.484 39.5543 104.439 39.5236 104.148 39.5196C104.083 39.5183 104.018 39.521 103.954 39.5236C102.688 39.581 101.424 39.6423 100.159 39.6943C98.911 39.745 97.6617 39.7823 96.4124 39.8303C95.5204 39.865 94.6284 39.9023 93.7364 39.9423C91.9364 40.025 90.1377 40.1156 88.3377 40.193C87.1377 40.245 85.9377 40.277 84.7364 40.3236C83.8937 40.3556 83.0497 40.393 82.207 40.4303C80.2457 40.5183 78.283 40.609 76.3217 40.693C75.251 40.7383 74.1804 40.7743 73.1097 40.817C72.9804 40.821 72.851 40.8383 72.723 40.8583C72.679 40.865 72.6404 40.8996 72.5977 40.921C72.627 40.9556 72.6497 41.0023 72.687 41.025C73.3177 41.3916 73.927 41.801 74.5857 42.1076C75.6137 42.5863 76.6697 43.0023 77.7204 43.4303C78.4897 43.7436 79.231 44.1036 79.9257 44.5596C80.999 45.2663 82.0217 46.0396 82.9124 46.9716C83.3804 47.4623 83.9204 47.8236 84.5577 48.0623C85.407 48.3823 86.2524 48.7183 87.0764 49.0956C87.8617 49.4543 88.6697 49.6356 89.4417 49.601ZM72.6897 39.0583C72.6897 39.0503 72.6897 39.0436 72.6897 39.0356C74.1164 38.965 75.5417 38.897 76.9684 38.825C77.535 38.797 78.1017 38.7623 78.6684 38.729C80.1244 38.6436 81.5817 38.5543 83.039 38.4743C84.303 38.405 85.567 38.3476 86.831 38.2823C88.759 38.1836 90.687 38.0796 92.615 37.9836C94.203 37.9036 95.791 37.8316 97.3804 37.7543C98.0444 37.7223 98.7084 37.6876 99.3724 37.6503C100.847 37.5663 102.32 37.4756 103.794 37.397C104.452 37.3623 104.45 37.3703 104.636 36.7636C104.694 36.5783 104.779 36.401 104.838 36.217C104.898 36.033 104.983 35.8436 104.986 35.6556C104.999 34.5543 105.051 33.4476 104.976 32.3516C104.899 31.213 104.488 30.1436 104.024 29.1036C103.035 26.8823 101.679 24.885 100.239 22.9383C99.043 21.321 97.8337 19.713 96.6657 18.0756C96.1404 17.3383 95.6177 16.5756 95.2457 15.757C94.7244 14.609 94.2924 13.413 93.9217 12.2076C93.5924 11.141 93.3897 10.037 93.4444 8.90231C93.4524 8.72364 93.359 8.54097 93.3124 8.35963C93.1844 8.47297 93.0297 8.56763 92.9297 8.70229C92.2644 9.60096 91.635 10.5303 90.9457 11.4116C89.0204 13.881 87.071 16.3343 85.1297 18.7916C84.3444 19.785 83.5497 20.7703 82.7617 21.761C82.395 22.2236 82.395 22.2983 82.8084 22.749C83.203 23.181 83.6097 23.5996 84.0097 24.025C84.1204 24.1436 84.2364 24.261 84.3257 24.3943C84.5617 24.7463 84.5457 25.0543 84.2604 25.3663C84.119 25.521 83.947 25.6503 83.771 25.765C83.459 25.9676 83.1297 26.1463 82.8137 26.3423C82.5524 26.505 82.291 26.6703 82.0444 26.853C81.7884 27.0423 81.683 27.2996 81.7617 27.6236C81.835 27.9223 81.9084 28.2223 81.9617 28.525C82.0364 28.9503 81.9044 29.2036 81.5164 29.3956C81.3577 29.4743 81.183 29.5223 81.0204 29.5956C80.7804 29.7036 80.7364 29.8196 80.8484 30.0583C80.9177 30.2036 81.0084 30.3396 81.0857 30.4823C81.2724 30.8223 81.2204 31.137 80.9764 31.4276C80.9244 31.4903 80.8697 31.5516 80.8124 31.609C80.2697 32.1463 80.007 32.805 79.9257 33.5596C79.8937 33.8583 79.8244 34.181 79.675 34.437C79.2244 35.2103 78.567 35.757 77.6684 35.9263C77.1444 36.0263 76.6084 36.0663 76.0764 36.1063C75.3964 36.157 74.715 36.181 74.0337 36.2183C73.375 36.2543 72.8577 36.5316 72.4937 37.0956C72.1617 37.6103 71.9697 38.173 71.8604 38.7663C71.8164 39.0063 71.8657 39.053 72.1057 39.057C72.3004 39.061 72.495 39.0583 72.6897 39.0583ZM93.4844 133.669H90.0737C89.9204 133.638 89.7657 133.59 89.611 133.582C88.8084 133.541 88.0404 133.369 87.303 133.048C86.1724 132.554 85.0564 132.053 84.0297 131.345C83.3404 130.869 82.703 130.362 82.175 129.716C82.1444 129.677 82.115 129.64 82.0817 129.604C81.8324 129.334 81.8137 129.336 81.5284 129.553C81.3484 129.69 81.171 129.836 80.9764 129.95C79.7577 130.66 78.4457 130.881 77.083 130.534C75.3884 130.104 73.927 129.326 73.2444 127.565C73.2337 127.536 73.2217 127.504 73.2057 127.476C72.9964 127.118 72.7017 126.89 72.2737 126.86C72.095 126.848 71.919 126.821 71.743 126.793C70.5404 126.604 69.427 126.16 68.371 125.576C67.1737 124.914 66.1244 124.084 65.4724 122.841C65.1857 122.294 64.8897 121.752 64.639 121.189C64.2404 120.298 64.0857 119.362 64.2164 118.386C64.2377 118.226 64.2537 118.062 64.2524 117.901C64.247 117.06 64.4484 116.265 64.767 115.492C64.8364 115.322 65.0337 115.129 64.8777 114.961C64.7297 114.801 64.5057 114.949 64.327 115.001C62.163 115.63 60.0017 116.261 57.843 116.908C57.5377 116.998 57.2177 117.128 56.9764 117.326C56.4657 117.749 55.959 118.193 55.5257 118.694C54.4017 119.997 53.303 121.322 52.223 122.662C51.0417 124.129 49.9257 125.646 48.9084 127.233C48.2737 128.222 47.7537 129.264 47.5297 130.43C47.431 130.941 47.159 131.362 46.8284 131.746C46.1697 132.508 45.227 132.429 44.739 131.552C44.5364 131.188 44.3844 130.784 44.2804 130.38C43.9964 129.28 43.7844 128.166 43.6524 127.036C43.535 126.034 43.4244 125.028 43.5284 124.025C43.6457 122.889 43.4737 121.792 43.2364 120.697C42.9257 119.261 42.367 117.916 41.6884 116.617C41.2057 115.693 40.8044 114.737 40.6217 113.705C40.343 112.134 40.919 110.889 42.2377 110.166C42.507 110.02 42.787 109.877 43.079 109.79C43.699 109.608 44.3297 109.452 44.9604 109.306C45.8444 109.101 46.7417 108.946 47.5684 108.548C48.1524 108.266 48.7404 107.992 49.3177 107.697C49.6497 107.528 49.9764 107.344 50.283 107.132C52.1377 105.848 54.007 104.584 55.831 103.257C58.5804 101.258 61.5844 99.809 64.8617 98.9316C66.239 98.5636 67.6297 98.2436 69.0137 97.901C69.155 97.8663 69.303 97.8423 69.435 97.785C69.5497 97.7356 69.647 97.645 69.7537 97.573C69.6764 97.4743 69.6164 97.3516 69.519 97.2823C69.3364 97.149 69.135 97.0396 68.9364 96.9303C64.7337 94.609 60.531 92.2876 56.327 89.969C55.8164 89.6876 55.627 89.7116 55.2017 90.1156C53.987 91.265 52.779 92.4223 51.563 93.5703C51.2097 93.905 50.851 94.2383 50.467 94.5356C48.531 96.0396 46.595 97.5436 44.6417 99.025C42.663 100.528 40.635 101.969 38.4284 103.118C36.199 104.278 33.927 105.354 31.6724 106.466C31.5417 106.53 31.4044 106.581 31.2684 106.633C30.1657 107.056 29.0284 107.286 27.843 107.238C27.4217 107.221 27.0004 107.178 26.579 107.162C24.251 107.074 21.943 107.338 19.635 107.576C17.6017 107.785 15.5724 108.026 13.5377 108.228C12.4164 108.338 11.475 108.75 10.7817 109.665C10.6044 109.898 10.4057 110.113 10.215 110.334C8.98437 111.768 7.67638 113.122 6.14438 114.237C5.08438 115.009 4.14437 115.876 3.41771 116.985C3.14037 117.408 2.73238 117.769 2.32038 118.073C1.81238 118.449 1.23104 118.248 1.02971 117.657C0.844374 117.118 0.749711 116.56 0.856377 115.981C0.973711 115.353 0.993709 114.714 0.821709 114.097C0.524376 113.028 0.352377 111.954 0.403044 110.837C0.42571 110.321 0.513711 109.842 0.725711 109.382C0.833711 109.146 0.943045 108.908 1.08571 108.693C1.48838 108.085 1.87904 107.465 2.32971 106.892C3.31638 105.64 3.95238 104.261 4.13504 102.657C4.23638 101.773 4.54304 100.921 4.98704 100.137C5.37504 99.453 5.98438 99.0783 6.75504 98.9903C7.08971 98.953 7.44038 98.9583 7.77371 99.0076C8.48438 99.1116 9.19371 99.1343 9.90837 99.0903C11.0337 99.0196 12.0204 98.6276 12.867 97.8783C13.3417 97.4583 13.827 97.0516 14.307 96.6383C16.2964 94.9303 18.5044 93.5956 20.9737 92.697C22.415 92.1743 23.887 91.7796 25.427 91.7703C26.235 91.765 26.7564 91.4463 27.1524 90.7476C27.6564 89.8596 28.2137 88.9996 28.803 88.165C29.7484 86.825 30.7377 85.5183 31.707 84.1956C31.8217 84.0383 31.935 83.8796 32.0297 83.7103C32.063 83.6516 32.0657 83.5423 32.0324 83.4876C31.8044 83.109 31.287 83.0903 31.0284 83.4436C30.8377 83.705 30.6657 83.985 30.455 84.229C29.359 85.4983 28.011 86.1236 26.3097 85.8236C25.6924 85.7143 25.1337 85.4703 24.611 85.1303C24.067 84.777 24.011 84.7836 23.5137 85.2116C23.4884 85.233 23.4644 85.2556 23.4404 85.277C21.4937 86.9943 19.2337 87.5783 16.7017 87.0836C14.8737 86.7276 13.3217 85.8756 12.1537 84.3916C12.123 84.353 12.0924 84.3156 12.0617 84.2783C11.935 84.1236 11.7897 84.1196 11.6337 84.2303C11.5537 84.2863 11.4777 84.3463 11.3964 84.401C10.8177 84.789 10.187 85.0436 9.48438 85.0263C8.08038 84.993 7.06037 84.3036 6.35237 83.1183C6.25237 82.9516 6.16437 82.7783 6.06437 82.6103C5.91237 82.3543 5.68971 82.233 5.38438 82.2156C3.76038 82.121 2.43504 81.3956 1.32971 80.2396C0.87371 79.7623 0.568378 79.1823 0.439044 78.5316C0.224378 77.4543 0.245711 76.3623 0.373711 75.2823C0.540378 73.8876 1.23771 72.7556 2.26304 71.8103C3.09371 71.0436 4.03771 70.509 5.15504 70.301C5.42571 70.2503 5.70038 70.2156 5.96838 70.1556C6.26171 70.0903 6.31238 70.025 6.34838 69.737C6.35904 69.6556 6.35638 69.5743 6.35904 69.493C6.44304 67.0903 7.50704 65.209 9.40704 63.777C10.3564 63.061 11.4337 62.6343 12.6004 62.417C13.2084 62.3036 13.2817 62.2423 13.3617 61.7076C13.6817 59.585 14.7617 57.9063 16.4537 56.6503C19.1937 54.6156 22.2497 54.0623 25.5364 54.9863C28.0684 55.6983 30.0684 57.121 31.2617 59.537C31.431 59.8783 31.7137 60.0276 32.071 60.081C33.6137 60.3063 34.947 60.9636 36.0537 62.0583C36.4297 62.4303 36.8404 62.577 37.367 62.545C38.0137 62.505 38.675 62.4703 39.3124 62.5556C41.771 62.8863 43.615 64.177 44.891 66.289C45.383 67.1036 45.6457 68.005 45.8244 68.9356C45.8777 69.2156 45.9484 69.2543 46.171 69.1196C46.9217 68.6676 47.679 68.225 48.4084 67.741C49.1084 67.2756 49.431 66.5943 49.4217 65.749C49.4097 64.5956 49.4164 63.4436 49.4097 62.2903C49.4084 62.0956 49.3764 61.9023 49.363 61.709C49.3444 61.4556 49.1817 61.3383 48.9604 61.2863C48.851 61.261 48.735 61.261 48.6217 61.253C46.987 61.1236 45.359 60.9503 43.759 60.573C42.3684 60.2436 41.003 59.8343 39.7404 59.1423C38.7737 58.613 37.9217 57.945 37.2817 57.0396C36.291 55.637 36.215 53.9756 37.339 52.5823C37.847 51.9516 38.3097 51.2823 38.7857 50.625C39.5337 49.5956 39.907 48.4023 40.2617 47.2036C40.347 46.9156 40.2777 46.8383 39.9724 46.7703C39.9097 46.7556 39.8444 46.7516 39.7804 46.7436C38.2964 46.5716 36.811 46.421 35.315 46.4236C34.9764 46.4236 34.6337 46.3876 34.2977 46.3343C33.299 46.1743 32.8977 45.4756 33.2444 44.5223C33.311 44.3396 33.395 44.1636 33.4604 43.981C33.647 43.4556 33.5084 43.1756 32.9697 43.037C32.1404 42.8236 31.339 42.873 30.5577 43.2703C29.3297 43.8956 28.0977 44.5143 26.8497 45.0996C26.2657 45.373 25.6537 45.5983 25.035 45.785C24.0924 46.0703 23.6644 45.7516 23.4297 44.9023C23.2884 44.3903 23.123 44.2863 22.6164 44.3996C22.3204 44.465 22.0284 44.5836 21.7564 44.7236C21.411 44.8996 21.0897 45.1236 20.755 45.3236C19.919 45.821 19.0857 46.325 18.2417 46.809C17.9764 46.961 17.6884 47.0876 17.3964 47.173C16.6444 47.393 15.9844 46.925 15.9057 46.1423C15.895 46.029 15.9004 45.9143 15.8817 45.8023C15.8244 45.4756 15.7177 45.4183 15.4164 45.541C15.3724 45.5596 15.327 45.5783 15.2844 45.6023C14.1337 46.237 12.9817 46.8716 11.9257 47.661C8.72837 50.053 5.78038 52.7103 3.24571 55.8103C2.78438 56.3756 2.29904 56.9223 1.82038 57.4743C1.65238 57.6663 1.39904 57.8396 1.18704 57.709C0.993707 57.589 0.977709 57.2983 1.06304 57.041C1.32838 56.2423 1.54571 55.4263 1.84437 54.641C3.26837 50.9063 5.02171 47.3263 6.94038 43.825C10.2804 37.7343 14.0324 31.9196 18.455 26.5516C20.1297 24.5196 21.8764 22.553 23.8617 20.8143C24.9257 19.8836 26.019 18.989 27.2564 18.2916C28.9737 17.3223 30.8164 16.797 32.791 16.853C34.7724 16.909 36.6284 17.4623 38.3497 18.4436C40.3404 19.5783 41.6164 21.273 42.1937 23.4876C42.4577 24.4956 42.539 25.533 42.6097 26.569C42.663 27.3463 42.6884 28.125 42.7404 28.9023C42.8524 30.5863 42.995 32.269 43.0884 33.9543C43.2004 35.9876 44.143 37.5223 45.7964 38.661C46.1897 38.9316 46.583 38.977 47.0364 38.805C47.7324 38.541 48.4444 38.3156 49.1524 38.0836C49.599 37.937 50.055 37.8196 50.499 37.6663C52.171 37.0876 53.6377 36.1956 54.7817 34.8183C55.2724 34.2263 55.679 33.5903 55.8977 32.8423C56.095 32.1703 56.1017 31.497 55.947 30.8223C55.831 30.313 55.5817 30.157 55.063 30.2436C54.919 30.2663 54.779 30.309 54.6337 30.329C53.9764 30.417 53.319 30.517 52.6577 30.5783C52.0657 30.6343 51.627 30.3463 51.3217 29.8543C51.1937 29.649 51.103 29.4196 50.9844 29.2076C50.8044 28.8823 50.6337 28.5476 50.4244 28.241C50.0337 27.665 49.519 27.2716 48.7924 27.2263C48.7124 27.221 48.6324 27.1956 48.555 27.173C48.1137 27.0383 47.9057 26.673 48.043 26.2303C48.1057 26.0316 48.2044 25.841 48.3124 25.6623C48.515 25.3276 48.6004 24.969 48.539 24.589C48.431 23.9263 48.1524 23.3543 47.587 22.9516C47.2177 22.6876 46.847 22.4236 46.4804 22.1556C45.9817 21.789 45.6124 21.3343 45.487 20.7063C45.387 20.205 45.5057 19.741 45.6924 19.285C45.9324 18.6996 46.1764 18.117 46.4284 17.537C46.571 17.2076 46.5457 16.9103 46.3164 16.629C45.8937 16.1116 45.451 15.6183 44.875 15.2623C44.6404 15.1183 44.399 14.977 44.1897 14.8023C43.671 14.369 43.4057 13.817 43.479 13.129C43.5284 12.6623 43.839 12.3343 44.303 12.3276C44.6044 12.3236 44.9097 12.3943 45.207 12.461C45.411 12.5063 45.5977 12.625 45.8017 12.6703C47.023 12.941 47.927 12.617 48.527 11.6143C49.0737 10.697 49.2137 9.7383 48.9057 8.71696C48.779 8.29696 48.6457 7.88097 48.519 7.4623C48.3644 6.94364 48.307 6.41297 48.3444 5.8743C48.4057 4.96897 48.835 4.3063 49.6684 3.9343C49.9324 3.81563 50.2137 3.71964 50.4977 3.6663C51.379 3.50364 52.271 3.48363 53.1644 3.52763C53.7964 3.5583 54.427 3.64097 55.059 3.64097C56.0137 3.64097 56.835 3.32496 57.4244 2.51563C57.7257 2.10096 58.167 1.84763 58.6244 1.62496C60.3924 0.760962 62.2564 0.235629 64.2177 0.087629C65.571 -0.0137043 66.9084 0.038297 68.1777 0.622297C69.711 1.3263 71.295 1.43296 72.927 0.992963C73.3777 0.87163 73.8484 0.786305 74.3137 0.755638C76.247 0.634305 78.015 1.16629 79.595 2.25963C80.7857 3.08229 81.7017 4.13164 81.939 5.64097C82.011 6.10231 82.0084 6.5463 81.8377 6.97964C81.719 7.28097 81.587 7.57829 81.4497 7.87163C81.255 8.28363 81.3164 8.6583 81.5897 9.00896C81.6804 9.12363 81.7884 9.22497 81.867 9.34764C81.9617 9.49564 82.0684 9.6503 82.1084 9.81564C82.339 10.7783 82.551 11.7436 82.575 12.7396C82.5817 13.0316 82.6057 13.3236 82.6404 13.613C82.7564 14.5463 82.8697 15.4796 82.8724 16.425C82.8737 17.1423 82.703 17.8036 82.367 18.429C82.2817 18.5863 82.1764 18.7396 82.1324 18.909C82.0377 19.2836 81.971 19.6663 81.9044 20.0476C81.8964 20.0956 81.9457 20.1796 81.991 20.2023C82.0337 20.2236 82.1257 20.209 82.163 20.1743C82.3057 20.0423 82.4484 19.9063 82.5697 19.7556C82.9737 19.2476 83.371 18.7343 83.767 18.2196C86.7697 14.3236 89.7724 10.425 92.7764 6.52896C93.699 5.33296 94.627 4.1423 95.5577 2.95296C95.6337 2.85696 95.7524 2.7943 95.851 2.71696C95.8977 2.84763 95.9577 2.97563 95.9897 3.11029C96.011 3.20229 95.9924 3.30363 95.9937 3.40096C95.999 3.9703 96.007 4.53831 96.011 5.10631C96.0164 5.86231 96.1337 6.59163 96.4844 7.27163C96.543 7.38496 96.5617 7.51964 96.6057 7.64097C96.931 8.53964 97.175 9.47963 97.6044 10.3236C98.303 11.6956 99.079 13.0356 100.022 14.2596C100.784 15.2503 101.586 16.2103 102.374 17.1796C102.834 17.7463 103.295 18.313 103.767 18.869C104.378 19.5863 105.024 20.273 105.61 21.009C107.408 23.2703 109.203 25.5343 110.594 28.085C111.408 29.5823 111.946 31.169 112.207 32.849C112.282 33.329 112.32 33.8156 112.384 34.2983C112.426 34.6103 112.502 34.6796 112.811 34.7263C112.875 34.737 112.942 34.7356 113.006 34.7396C113.691 34.7743 114.302 35.013 114.858 35.405C115.422 35.8023 115.875 36.309 116.284 36.8583C116.36 36.961 116.416 37.0823 116.466 37.201C116.702 37.777 116.824 37.8663 117.444 37.8663C119.555 37.8676 121.667 37.8663 123.779 37.8636C124.375 37.8623 124.467 37.773 124.583 37.1876C124.664 36.7756 124.738 36.357 124.87 35.9596C125.042 35.4383 125.411 35.0943 125.947 34.9223C126.919 34.6103 127.876 34.6543 128.798 35.0636C130.216 35.6956 131.502 36.541 132.646 37.593C132.682 37.6263 132.716 37.661 132.75 37.6956C132.871 37.821 132.876 37.9516 132.76 38.0836C132.706 38.145 132.648 38.201 132.591 38.2596C131.667 39.197 130.706 40.0863 129.606 40.825C129.006 41.229 128.362 41.517 127.698 41.773C127.278 41.9356 126.831 41.9156 126.399 41.833C125.955 41.7463 125.594 41.521 125.335 41.1263C125.058 40.6996 124.822 40.269 124.743 39.7556C124.668 39.269 124.539 39.201 124.047 39.2476C123.612 39.289 123.175 39.3276 122.739 39.3303C121.212 39.341 119.686 39.333 118.159 39.3356C117.496 39.337 117.474 39.3796 117.608 40.041C117.824 41.0916 117.966 42.1463 117.866 43.229C117.675 45.2903 116.623 46.7636 114.848 47.7556C114.486 47.9583 114.288 48.2356 114.26 48.6396C114.248 48.801 114.262 48.9636 114.27 49.1263C114.288 49.4983 114.32 49.8703 114.327 50.2423C114.339 50.941 114.34 51.6396 114.336 52.337C114.335 52.5796 114.326 52.8263 114.283 53.0636C114.083 54.1716 113.747 55.2463 113.219 56.233C112.14 58.2516 110.978 60.213 109.472 61.9636C107.724 63.9956 105.99 66.0356 104.171 68.005C103.323 68.9236 102.488 69.8556 101.68 70.809C99.955 72.845 98.631 75.1276 97.647 77.6023C97.2964 78.4876 96.919 79.3756 96.8457 80.3463C96.7804 81.221 96.695 82.0983 97.1297 82.9183C97.1484 82.9543 97.139 83.005 97.1417 83.0476C97.0977 83.0503 97.0417 83.0703 97.0124 83.0503C96.8684 82.9503 96.7124 82.857 96.595 82.729C96.3884 82.501 96.207 82.2503 96.0137 82.009C94.979 80.717 93.9564 79.4143 92.907 78.1343C92.2697 77.3556 91.5817 76.6183 90.9324 75.849C89.6644 74.349 88.4204 72.8276 87.1404 71.337C85.3337 69.229 83.511 67.1343 81.6804 65.045C80.2577 63.421 78.8137 61.8143 77.3777 60.2023C77.2817 60.0943 77.1684 59.997 77.0524 59.913C76.9604 59.8463 76.8657 59.8676 76.819 59.985C76.7764 60.0903 76.735 60.1956 76.6977 60.3023C76.4457 61.021 76.2084 61.7463 75.9377 62.457C75.727 63.0063 75.6964 63.5623 75.7737 64.133C75.9204 65.221 75.875 66.305 75.691 67.381C75.5737 68.0676 75.4177 68.7476 75.263 69.4276C75.207 69.6756 75.139 69.933 75.0177 70.1543C74.8524 70.457 74.8737 70.7063 75.099 70.9516C75.1657 71.0236 75.2297 71.097 75.2964 71.1676C77.8657 73.901 80.4324 76.6383 83.007 79.3676C85.0697 81.553 87.0377 83.821 88.9324 86.1543C89.271 86.5703 89.6124 86.9823 89.9564 87.3943C90.095 87.5596 90.2444 87.6996 90.495 87.641C91.235 87.4636 91.9817 87.3103 92.7177 87.1183C93.8564 86.821 95.0124 86.6823 96.187 86.7116C96.6897 86.725 97.1924 86.7583 97.6937 86.793C98.975 86.8823 100.238 87.069 101.474 87.4356C102.602 87.7703 103.616 88.3503 104.663 88.8676C106.103 89.581 107.367 90.5303 108.523 91.637C109.174 92.2583 109.73 92.9503 110.16 93.7423C110.244 93.8983 110.339 94.0516 110.434 94.2023C110.679 94.5903 111.026 94.7876 111.494 94.7636C112.167 94.729 112.818 94.8516 113.455 95.0596C113.995 95.2356 114.535 95.409 115.07 95.5956C115.934 95.897 116.739 96.317 117.466 96.8716C117.864 97.177 118.243 97.5103 118.614 97.8503C119 98.2036 119.416 98.3863 119.946 98.2236C120.146 98.1623 120.356 98.1143 120.566 98.1063C121.619 98.0623 122.672 98.0196 123.727 98.0076C124.114 98.0036 124.504 98.065 124.886 98.1356C126.988 98.5263 128.699 99.6316 130.21 101.092C130.268 101.146 130.314 101.216 130.359 101.282C130.64 101.7 130.931 102.112 131.199 102.536C131.843 103.554 132.396 104.612 132.636 105.813C132.795 106.609 132.98 107.397 132.955 108.217C132.935 108.817 132.944 109.418 132.927 110.018C132.899 111.081 132.746 112.12 132.27 113.086C131.954 113.726 131.646 114.37 131.32 115.005C130.93 115.765 130.402 116.417 129.747 116.968C129.387 117.27 129.018 117.564 128.66 117.87C128.374 118.118 128.151 118.416 128.076 118.8C127.93 119.548 127.784 120.296 127.639 121.042C127.606 121.218 127.591 121.398 127.539 121.568C127.175 122.77 126.746 123.941 125.847 124.87C125.791 124.928 125.747 124.998 125.698 125.062C125.164 125.746 124.544 126.337 123.807 126.801C123.615 126.922 123.424 127.046 123.239 127.177C121.364 128.51 119.236 129.058 116.978 129.177C115.099 129.277 113.296 128.936 111.568 128.197C111.148 128.018 111.055 128.054 110.792 128.41C110.532 128.762 110.282 129.125 109.988 129.448C108.664 130.905 107.003 131.736 105.048 131.88C103.624 131.985 102.28 131.616 101.059 130.854C100.894 130.752 100.73 130.648 100.566 130.542C100.332 130.39 100.106 130.405 99.887 130.568C99.6924 130.713 99.4977 130.86 99.3084 131.012C97.7604 132.25 96.0057 133.054 94.087 133.518C93.8857 133.566 93.6857 133.618 93.4844 133.669Z" fill="#F17171"/>
<path d="M20.2024 11.1958C20.1851 12.0265 20.0198 12.6145 19.7624 13.1798C19.4171 13.9385 18.9518 14.6212 18.3998 15.2425C17.4451 16.3172 16.3678 17.2492 15.1238 17.9732C13.5838 18.8705 12.0344 19.7545 10.4798 20.6252C10.0718 20.8545 9.63575 21.0385 9.19842 21.2038C8.58642 21.4332 8.31175 21.3572 7.94242 20.8265C7.12775 19.6572 6.33442 18.4705 5.68642 17.1972C5.19442 16.2318 4.66509 15.2812 4.23842 14.2865C3.77175 13.2025 3.36108 12.0905 3.01042 10.9652C2.70775 9.99718 2.84375 8.99718 3.10775 8.03585C3.35442 7.13718 3.97842 6.50118 4.72108 5.96918C5.33175 5.53051 5.99842 5.33718 6.75442 5.27851C7.67442 5.20651 8.52642 5.34785 9.35709 5.71318C9.74775 5.88518 10.0984 6.11985 10.3798 6.44118C10.9278 7.06518 11.4024 7.73451 11.6598 8.53985C11.8611 9.17051 11.9944 9.19985 12.5264 8.76518C12.7518 8.58118 12.9824 8.40118 13.2078 8.21585C14.2504 7.35718 15.4358 7.16385 16.7251 7.46651C18.2518 7.82651 19.3304 8.72918 19.9278 10.1772C20.0851 10.5598 20.1464 10.9812 20.2024 11.1958Z" fill="#F17171"/>
<path d="M37.0078 3.68401C36.9705 4.69201 36.6838 5.63735 36.3278 6.56135C36.1238 7.08935 35.8918 7.60935 35.6358 8.11335C34.9078 9.54268 34.1638 10.9627 33.4211 12.384C33.1331 12.936 32.8065 13.0573 32.2265 12.8213C31.8665 12.6747 31.5225 12.4933 31.1678 12.336C29.3998 11.5533 27.7691 10.524 26.1105 9.54535C24.9531 8.86135 24.1505 7.82401 23.5905 6.64668C23.0078 5.41868 23.2238 4.22668 24.2758 3.17201C24.8105 2.63601 25.4865 2.31068 26.2158 2.10801C26.9851 1.89468 27.6878 2.04401 28.3385 2.49868C28.6705 2.72935 29.0078 2.95735 29.3585 3.15735C29.7025 3.35335 29.8585 3.27601 29.9398 2.88668C30.2131 1.57601 31.0211 0.769347 32.2518 0.29868C33.2171 -0.0706532 34.1478 -0.0599865 35.0798 0.35868C35.5491 0.569347 35.9265 0.885346 36.1945 1.33735C36.4758 1.81068 36.8051 2.25868 36.8931 2.82135C36.9385 3.10801 36.9705 3.39601 37.0078 3.68401Z" fill="#F17171"/>
</svg>
