<svg width="174" height="150" viewBox="0 0 174 150" fill="none" xmlns="http://www.w3.org/2000/svg">
<path d="M172.872 0.705715C174.068 3.10171 168.008 10.323 167.623 11.1057C159.931 24.5697 154.32 31.5417 145.508 45.3657C126.212 74.3884 105.945 106.868 85.6241 134.082C81.8241 139.039 78.6468 146.756 73.4948 147.03C65.7921 150.156 55.7721 149.103 49.6708 139.431C45.3548 126.071 60.3188 123.376 65.0801 123.235C70.1028 123.01 74.9121 124.27 79.4734 127.899C81.2121 123.728 104.019 79.4284 104.276 76.603C88.1921 78.1257 55.0321 81.4057 39.5814 83.1924C38.8388 100.962 37.7974 126.006 36.5974 143.846C32.0308 151.659 25.3014 148.495 19.5601 149.1C13.5361 148.204 7.77876 145.114 2.70276 139.302C2.56143 139.335 2.3201 139.394 2.0801 139.451C-6.05056 120.906 20.6628 124.691 25.3588 128.902C26.1894 128.987 26.9614 129.923 27.9094 129.438C27.4321 97.7537 25.1268 50.9657 23.9321 19.723" fill="#A979B5"/>
</svg>
