<svg width="136" height="136" viewBox="0 0 136 136" fill="none" xmlns="http://www.w3.org/2000/svg">
<path d="M83.7711 135.714C66.8898 135.714 50.0085 135.714 33.1271 135.714C32.9551 135.714 32.7818 135.719 32.6098 135.71C32.3405 135.694 32.2845 135.655 32.2258 135.388C32.1872 135.207 32.1725 135.016 32.1712 134.828C32.1645 133.982 32.1578 133.135 32.1698 132.287C32.1765 131.883 32.0885 131.514 31.9032 131.156C31.6725 130.711 31.4418 130.264 31.2352 129.807C31.0512 129.402 30.7538 129.142 30.3232 129.074C29.7525 128.983 29.1752 128.872 28.6005 128.867C25.9965 128.844 23.3925 128.867 20.7885 128.851C20.0058 128.846 19.2245 128.77 18.4418 128.727C18.0352 128.704 17.6285 128.671 17.2218 128.664C14.4338 128.619 11.6885 128.248 9.00315 127.499C7.20982 126.998 5.50982 126.27 4.03782 125.095C3.22582 124.448 2.47515 123.735 1.92849 122.84C1.31782 121.842 1.15515 120.762 1.43915 119.628C1.62982 118.864 2.12715 118.295 2.71915 117.812C2.97249 117.607 3.25916 117.434 3.54716 117.279C5.22716 116.38 7.04049 115.89 8.90849 115.606C10.8298 115.315 12.7592 115.084 14.6858 114.828C16.0832 114.642 17.4845 114.48 18.8778 114.263C20.0752 114.076 21.2325 113.734 22.3178 113.172C22.6458 113.003 22.9258 112.784 23.1245 112.472C23.4392 111.978 23.3912 111.512 22.9552 111.12C22.5312 110.74 22.0352 110.46 21.4938 110.287C20.5685 109.99 19.6392 109.699 18.7018 109.443C16.9472 108.963 15.1792 108.528 13.4272 108.04C11.3472 107.459 9.51515 106.431 8.02449 104.85C6.96049 103.724 6.36982 102.392 6.36316 100.82C6.36049 100.078 6.39916 99.3457 6.61116 98.6324C6.99649 97.3404 7.77116 96.3097 8.79649 95.463C10.0138 94.4577 11.4325 93.8417 12.9272 93.375C14.6072 92.8524 16.3365 92.535 18.0498 92.1484C19.0738 91.9177 20.1005 91.683 21.1098 91.3937C22.2125 91.079 23.1885 90.5257 23.9725 89.663C24.7245 88.835 25.0005 87.8844 24.7312 86.7924C24.4672 85.7284 23.9778 84.7684 23.3552 83.871C22.2938 82.339 20.8685 81.2337 19.2445 80.3617C19.0658 80.2657 18.8752 80.1844 18.6805 80.1297C18.2178 80.0004 17.8178 79.7697 17.4392 79.4777C17.1298 79.239 16.7938 79.035 16.4698 78.8137C16.0165 78.5057 15.5738 78.1777 15.1058 77.8924C14.4085 77.4644 13.9525 76.8577 13.6125 76.1257C13.0618 74.9404 12.5752 73.735 12.3698 72.4377C12.2885 71.9284 12.2178 71.411 12.2125 70.8964C12.1925 69.0924 12.1978 67.2884 12.2098 65.4844C12.2125 65.2084 12.3018 64.9324 12.3498 64.6564C12.3938 64.4124 12.4738 64.1684 12.4765 63.9244C12.4885 62.4497 12.5058 60.9737 12.4752 59.5004C12.4512 58.3564 12.3885 57.2137 12.2885 56.075C12.2085 55.1817 11.7725 54.4697 10.9738 54.0177C10.7565 53.895 10.5258 53.787 10.2885 53.7097C8.62182 53.1724 7.12982 52.3124 5.80049 51.1924C4.53649 50.1244 3.46182 48.8804 2.64582 47.423C1.95115 46.183 1.39382 44.8897 1.09382 43.5004C0.867156 42.4444 0.70049 41.3844 0.703157 40.2897C0.723157 31.8804 0.716486 23.471 0.70982 15.0617C0.70982 14.151 0.75382 13.2537 0.92182 12.3524C1.32182 10.2044 2.11249 8.23237 3.39649 6.45903C4.54049 4.8777 5.91515 3.54303 7.60582 2.55237C9.15115 1.64703 10.7992 1.01903 12.5805 0.772367C13.1698 0.691034 13.7685 0.580373 14.3552 0.613706C14.7512 0.637706 15.1125 0.691032 15.4672 0.480365C15.5138 0.453698 15.6005 0.457698 15.6498 0.481698C16.2032 0.751031 16.8138 0.704369 17.3965 0.805703C19.0072 1.08704 20.5045 1.67103 21.9258 2.4617C22.9472 3.0297 23.8845 3.72304 24.6952 4.55637C26.7085 6.62171 28.1285 9.01904 28.6645 11.895C28.8485 12.8844 28.9605 13.8737 28.9578 14.883C28.9472 19.4804 28.9592 24.0777 28.9552 28.6737C28.9552 29.1124 28.9045 29.5497 28.8845 29.987C28.8738 30.2057 28.8698 30.4257 28.8792 30.6457C28.9005 31.1777 28.9538 31.7084 28.9552 32.2404C28.9618 35.0644 28.9778 37.8884 28.9458 40.7124C28.9272 42.4697 28.5418 44.1604 27.8552 45.7844C27.3872 46.8897 26.8032 47.923 26.0765 48.8764C24.9792 50.3124 23.6698 51.5204 22.1098 52.435C21.4632 52.815 20.7658 53.107 20.0898 53.4364C19.9352 53.5124 19.7592 53.555 19.6192 53.651C19.0578 54.0404 18.4085 54.2337 17.7885 54.4924C17.4738 54.6244 17.1778 54.8097 16.8885 54.995C16.3552 55.3377 16.0912 55.8644 15.9552 56.4644C15.8792 56.8004 15.7938 57.1364 15.7432 57.4764C15.6765 57.9257 15.6032 58.3777 15.5978 58.8284C15.5805 60.507 15.5858 62.1857 15.5965 63.8644C15.5978 64.143 15.6458 64.4257 15.7138 64.6964C15.8458 65.2204 15.9058 65.743 15.8218 66.2804C15.7925 66.4657 15.7832 66.655 15.7832 66.8417C15.7792 67.7057 15.7485 68.5697 15.7898 69.431C15.8272 70.2417 15.8352 71.0617 16.0432 71.8577C16.1272 72.175 16.2045 72.4977 16.3298 72.8004C16.6818 73.6564 17.0565 74.5017 17.4205 75.3524C17.5365 75.6217 17.7245 75.8297 17.9738 75.9764C18.2712 76.1497 18.5765 76.311 18.8832 76.4697C19.2618 76.6657 19.6098 76.899 19.9125 77.2044C20.0525 77.3457 20.2232 77.471 20.4032 77.5604C22.1418 78.427 23.6072 79.6417 24.8952 81.0804C26.1512 82.4817 27.0992 84.055 27.4645 85.9257C27.7818 87.5537 27.6978 89.143 26.8858 90.635C26.3725 91.579 25.6232 92.3044 24.7605 92.927C23.7658 93.6457 22.6525 94.0964 21.4672 94.3817C19.5925 94.8324 17.7138 95.271 15.8352 95.7097C14.4738 96.0284 13.1152 96.347 11.8685 97.011C11.2565 97.3377 10.6832 97.7137 10.1978 98.219C9.58582 98.855 9.26849 99.6244 9.13649 100.48C9.11382 100.63 9.14316 100.794 9.17649 100.944C9.39382 101.915 9.90849 102.691 10.6832 103.316C11.8885 104.292 13.2605 104.924 14.7445 105.324C16.6525 105.839 18.5698 106.319 20.4765 106.836C21.2778 107.054 22.0725 107.302 22.8525 107.583C23.7965 107.924 24.6152 108.487 25.2765 109.24C25.8272 109.867 26.1912 110.59 26.1392 111.463C26.1272 111.667 26.1298 111.871 26.1325 112.075C26.1552 113.418 25.5632 114.448 24.5365 115.274C23.7498 115.906 22.8432 116.286 21.8965 116.583C20.7565 116.942 19.5805 117.131 18.3952 117.28C16.7938 117.48 15.1925 117.684 13.5938 117.906C12.0418 118.122 10.4898 118.342 8.94316 118.595C7.84182 118.775 6.76849 119.076 5.74715 119.538C5.36315 119.711 4.98716 119.912 4.62982 120.136C4.13916 120.446 4.09516 120.704 4.38982 121.194C4.71649 121.739 5.14715 122.188 5.64449 122.582C6.97649 123.631 8.51649 124.242 10.1205 124.714C11.8112 125.211 13.5392 125.511 15.2912 125.672C16.1178 125.748 16.9472 125.799 17.7752 125.855C18.2752 125.89 18.7765 125.943 19.2765 125.93C19.9952 125.908 20.7125 125.827 21.4325 125.787C21.8858 125.762 22.3418 125.76 22.7965 125.758C23.3432 125.755 23.8898 125.756 24.4365 125.764C26.1298 125.79 27.8232 125.819 29.5152 125.846C29.6725 125.848 29.8298 125.851 29.9858 125.846C30.5258 125.827 30.9578 125.599 31.2471 125.143C31.8285 124.223 32.1725 123.232 32.1712 122.127C32.1658 113.843 32.1685 105.56 32.1632 97.2764C32.1618 96.703 32.2165 96.1417 32.4445 95.619C32.6312 95.1897 32.8658 94.779 33.1085 94.3777C33.2538 94.1337 33.4858 93.963 33.7525 93.8457C34.6938 93.4297 35.6618 93.1777 36.7098 93.1817C41.4631 93.199 46.2165 93.1884 50.9712 93.1884C51.1112 93.1884 51.2538 93.1924 51.3938 93.183C51.7445 93.1604 51.8912 93.0484 51.9058 92.7004C51.9258 92.2644 51.8872 91.8244 51.8872 91.3857C51.8858 90.823 51.8845 90.259 51.9085 89.6977C51.9285 89.2444 52.2098 88.975 52.6352 88.8884C53.2338 88.7684 53.8365 88.6644 54.4418 88.5857C55.9645 88.3897 57.4898 88.211 59.0138 88.0284C60.4138 87.8604 61.8152 87.7017 63.2152 87.527C64.5525 87.3617 65.8872 87.1737 67.2245 87.011C68.0018 86.9177 68.7818 86.8377 69.5618 86.7844C70.3285 86.7324 71.0965 86.7204 71.8631 86.691C72.3125 86.6737 72.4018 86.603 72.4751 86.1524C72.5111 85.9364 72.5405 85.7164 72.5365 85.4977C72.5178 84.4804 72.4911 83.4617 72.4565 82.443C72.4418 81.9857 72.3738 81.9164 71.9058 81.8524C71.6125 81.8124 71.3138 81.783 71.0178 81.783C67.7232 81.7737 64.4285 81.779 61.1338 81.7644C59.1111 81.7564 57.0858 81.6524 55.0658 81.7124C51.8192 81.8084 48.5725 81.723 45.3272 81.771C43.8498 81.7924 42.4365 81.5417 41.0538 81.0017C39.1698 80.267 37.2565 79.6057 35.3565 78.911C35.1805 78.847 35.0072 78.771 34.8338 78.6977C34.3338 78.4844 34.0898 78.0857 34.0565 77.559C34.0098 76.8244 33.9592 76.0897 33.9485 75.3537C33.9138 73.143 33.8778 70.9324 33.8765 68.7204C33.8698 47.023 33.8712 25.3257 33.8752 3.62836C33.8752 3.20703 33.9032 2.7777 33.9872 2.3657C34.1818 1.4057 34.7752 0.776367 35.7112 0.495034C36.3565 0.300367 37.0125 0.177702 37.6992 0.177702C68.9365 0.184368 100.172 0.184368 131.408 0.177702C132.339 0.177702 133.167 0.47104 133.952 0.909707C134.596 1.26837 134.842 1.90704 134.93 2.5977C134.998 3.1417 135.034 3.69237 135.034 4.23903C135.038 27.835 135.038 51.431 135.03 75.027C135.03 75.8244 134.935 76.6217 134.875 77.4177C134.84 77.875 134.57 78.1497 134.147 78.3057C132.588 78.883 131.032 79.4684 129.475 80.0497C128.504 80.411 127.546 80.787 126.642 81.307C126.027 81.6604 125.31 81.7724 124.598 81.7777C124.035 81.7804 123.472 81.7004 122.908 81.7004C114.907 81.6937 106.906 81.695 98.9045 81.6964C98.7005 81.6964 98.4952 81.691 98.2938 81.7164C97.9458 81.759 97.8685 81.847 97.8591 82.203C97.8485 82.5644 97.8551 82.9244 97.8551 83.2857C97.8551 84.211 97.8525 85.1377 97.8618 86.063C97.8658 86.5004 97.9525 86.587 98.3898 86.5964C100.038 86.627 101.67 86.839 103.302 87.0457C104.7 87.223 106.103 87.3764 107.503 87.5444C108.996 87.7217 110.488 87.907 111.983 88.0817C113.446 88.2537 114.908 88.4137 116.371 88.5857C116.776 88.6324 117.178 88.7004 117.582 88.7564C118.032 88.819 118.279 89.0844 118.338 89.527C118.363 89.7137 118.376 89.9017 118.378 90.0897C118.383 90.827 118.38 91.5644 118.382 92.3017C118.383 92.411 118.379 92.5217 118.386 92.631C118.411 93.0484 118.519 93.1604 118.926 93.1844C119.082 93.1924 119.239 93.1884 119.396 93.1884C121.938 93.187 124.479 93.175 127.02 93.1897C128.415 93.1977 129.811 93.227 131.204 93.295C131.874 93.3284 132.547 93.4364 133.202 93.5844C133.588 93.671 133.97 93.863 134.308 94.0804C135.046 94.5537 135.412 95.263 135.418 96.1404C135.426 97.5217 135.419 98.9017 135.419 100.283C135.419 111.767 135.419 123.251 135.419 134.735C135.419 134.892 135.423 135.05 135.418 135.206C135.406 135.643 135.354 135.698 134.932 135.712C134.76 135.718 134.587 135.714 134.415 135.714C117.534 135.714 100.652 135.714 83.7711 135.714Z" fill="#EAEB81"/>
</svg>
