<svg width="135" height="136" viewBox="0 0 135 136" fill="none" xmlns="http://www.w3.org/2000/svg">
<path d="M83.0954 135.868C66.214 135.868 49.3327 135.868 32.4514 135.868C32.2794 135.868 32.106 135.874 31.934 135.864C31.6647 135.848 31.6087 135.81 31.55 135.543C31.5114 135.362 31.4967 135.171 31.4954 134.983C31.4887 134.136 31.482 133.29 31.494 132.442C31.5007 132.038 31.4127 131.668 31.2274 131.312C30.9967 130.866 30.766 130.419 30.5594 129.962C30.3754 129.556 30.078 129.296 29.6474 129.228C29.0767 129.138 28.4994 129.027 27.9247 129.022C25.3207 128.999 22.7167 129.022 20.1127 129.006C19.33 129 18.5487 128.924 17.766 128.882C17.3594 128.859 16.9527 128.826 16.546 128.819C13.758 128.774 11.0127 128.403 8.32737 127.654C6.53404 127.152 4.83404 126.424 3.36204 125.25C2.55004 124.603 1.79937 123.89 1.25271 122.995C0.64204 121.996 0.479373 120.916 0.763373 119.783C0.954039 119.019 1.45137 118.451 2.04337 117.967C2.2967 117.762 2.58337 117.588 2.87137 117.434C4.55137 116.535 6.36471 116.044 8.23271 115.76C10.154 115.47 12.0834 115.239 14.01 114.983C15.4074 114.796 16.8087 114.635 18.202 114.418C19.3994 114.231 20.5567 113.888 21.642 113.327C21.97 113.158 22.25 112.939 22.4487 112.627C22.7634 112.132 22.7154 111.667 22.2794 111.275C21.8554 110.895 21.3594 110.615 20.818 110.442C19.8927 110.144 18.9634 109.854 18.026 109.598C16.2714 109.118 14.5034 108.683 12.7514 108.195C10.6714 107.614 8.83937 106.586 7.3487 105.004C6.2847 103.879 5.69404 102.547 5.68737 100.975C5.68471 100.232 5.72337 99.5002 5.93671 98.7869C6.32071 97.4949 7.09537 96.4642 8.12071 95.6176C9.33804 94.6122 10.7567 93.9962 12.2514 93.5296C13.9314 93.0069 15.6607 92.6896 17.374 92.3029C18.398 92.0722 19.4247 91.8376 20.434 91.5482C21.5367 91.2336 22.5127 90.6802 23.2967 89.8176C24.0487 88.9896 24.3247 88.0389 24.0554 86.9469C23.7914 85.8829 23.302 84.9229 22.6794 84.0256C21.618 82.4936 20.1927 81.3882 18.5687 80.5162C18.39 80.4202 18.1994 80.3389 18.0047 80.2842C17.542 80.1549 17.142 79.9242 16.7634 79.6322C16.454 79.3936 16.118 79.1896 15.794 78.9682C15.3407 78.6602 14.898 78.3322 14.43 78.0469C13.7327 77.6189 13.2767 77.0122 12.9367 76.2802C12.386 75.0949 11.8994 73.8896 11.694 72.5922C11.6127 72.0829 11.542 71.5656 11.5367 71.0509C11.5167 69.2469 11.522 67.4429 11.534 65.6389C11.5367 65.3629 11.626 65.0869 11.674 64.8109C11.718 64.5669 11.798 64.3229 11.8007 64.0789C11.8127 62.6042 11.83 61.1282 11.7994 59.6549C11.7754 58.5122 11.7127 57.3682 11.6127 56.2296C11.5327 55.3362 11.0967 54.6242 10.298 54.1722C10.0807 54.0496 9.85004 53.9416 9.61271 53.8642C7.94604 53.3282 6.45404 52.4669 5.12471 51.3469C3.86071 50.2789 2.78604 49.0349 1.97004 47.5776C1.27537 46.3376 0.718041 45.0442 0.418041 43.6549C0.191374 42.6002 0.0247086 41.5389 0.0273753 40.4442C0.0473753 32.0349 0.040705 23.6256 0.0340383 15.2162C0.0340383 14.3056 0.0780388 13.4082 0.246039 12.5069C0.646039 10.3589 1.43671 8.38691 2.72071 6.61357C3.86471 5.03224 5.23937 3.69757 6.93004 2.70691C8.47537 1.80157 10.1234 1.17357 11.9047 0.926908C12.494 0.845575 13.0927 0.734914 13.6794 0.768247C14.0754 0.792247 14.4367 0.845573 14.7914 0.634906C14.838 0.608239 14.9247 0.612239 14.974 0.636239C15.5274 0.905572 16.138 0.85891 16.7207 0.960244C18.3314 1.24158 19.8287 1.82557 21.25 2.61624C22.2714 3.18424 23.2087 3.87758 24.0194 4.71091C26.0327 6.77625 27.4527 9.17358 27.9887 12.0496C28.1727 13.0389 28.2847 14.0282 28.282 15.0376C28.2714 19.6349 28.2834 24.2322 28.2794 28.8282C28.2794 29.2669 28.2287 29.7042 28.2087 30.1416C28.198 30.3602 28.194 30.5802 28.2034 30.8002C28.2247 31.3322 28.278 31.8629 28.2794 32.3949C28.286 35.2189 28.302 38.0429 28.27 40.8669C28.2514 42.6242 27.866 44.3149 27.1794 45.9389C26.7114 47.0442 26.1274 48.0776 25.4007 49.0309C24.3034 50.4669 22.994 51.6749 21.434 52.5896C20.7874 52.9696 20.09 53.2616 19.414 53.5909C19.2594 53.6669 19.0834 53.7096 18.9434 53.8056C18.382 54.1949 17.7327 54.3882 17.1127 54.6469C16.798 54.7789 16.502 54.9642 16.214 55.1496C15.6794 55.4922 15.4154 56.0189 15.2794 56.6189C15.2034 56.9549 15.118 57.2909 15.0674 57.6309C15.0007 58.0802 14.9274 58.5322 14.922 58.9829C14.9047 60.6616 14.91 62.3402 14.9207 64.0189C14.922 64.2976 14.97 64.5802 15.038 64.8509C15.17 65.3749 15.23 65.8976 15.146 66.4349C15.1167 66.6202 15.1074 66.8096 15.1074 66.9962C15.1034 67.8602 15.0727 68.7242 15.114 69.5856C15.1514 70.3962 15.1594 71.2162 15.3674 72.0122C15.4514 72.3296 15.5287 72.6522 15.654 72.9549C16.006 73.8109 16.3807 74.6562 16.7447 75.5069C16.8607 75.7762 17.0487 75.9842 17.298 76.1309C17.5954 76.3042 17.9007 76.4656 18.2074 76.6242C18.586 76.8202 18.934 77.0536 19.2367 77.3589C19.3767 77.5002 19.5474 77.6256 19.7274 77.7149C21.466 78.5816 22.9314 79.7962 24.2194 81.2349C25.4754 82.6362 26.4234 84.2096 26.7887 86.0802C27.106 87.7082 27.022 89.2976 26.21 90.7896C25.6967 91.7336 24.9474 92.4589 24.0847 93.0816C23.09 93.8002 21.9767 94.2509 20.7914 94.5362C18.9167 94.9869 17.038 95.4256 15.1594 95.8642C13.798 96.1829 12.4394 96.5016 11.1927 97.1656C10.5807 97.4922 10.0074 97.8682 9.52204 98.3736C8.91004 99.0096 8.5927 99.7789 8.4607 100.635C8.43804 100.784 8.46737 100.948 8.50071 101.099C8.71804 102.07 9.2327 102.846 10.0074 103.471C11.2127 104.447 12.5847 105.079 14.0687 105.479C15.9767 105.994 17.894 106.474 19.8007 106.991C20.602 107.208 21.3967 107.456 22.1767 107.738C23.1207 108.079 23.9394 108.642 24.6007 109.395C25.1514 110.022 25.5154 110.744 25.4634 111.618C25.4514 111.822 25.454 112.026 25.4567 112.23C25.4794 113.572 24.8874 114.603 23.8607 115.428C23.074 116.06 22.1674 116.442 21.2207 116.738C20.0807 117.096 18.9047 117.286 17.7194 117.435C16.118 117.635 14.5167 117.839 12.918 118.06C11.366 118.276 9.81404 118.496 8.26738 118.75C7.16604 118.93 6.0927 119.231 5.07137 119.692C4.68737 119.866 4.31137 120.067 3.95404 120.291C3.46337 120.6 3.41937 120.859 3.71404 121.348C4.04204 121.894 4.47137 122.343 4.9687 122.736C6.3007 123.786 7.84071 124.396 9.44471 124.868C11.1354 125.366 12.8634 125.666 14.6154 125.827C15.442 125.903 16.2714 125.954 17.0994 126.01C17.5994 126.044 18.1007 126.098 18.6007 126.084C19.3194 126.063 20.0367 125.982 20.7567 125.942C21.21 125.916 21.666 125.915 22.1207 125.912C22.6674 125.91 23.214 125.911 23.7607 125.919C25.454 125.944 27.1474 125.974 28.8407 126C28.9967 126.003 29.154 126.006 29.31 126C29.85 125.982 30.282 125.754 30.5714 125.298C31.1527 124.378 31.4967 123.387 31.4954 122.282C31.49 113.998 31.4927 105.715 31.4874 97.4309C31.486 96.8576 31.5407 96.2962 31.7687 95.7736C31.9554 95.3442 32.1914 94.9336 32.4327 94.5322C32.5794 94.2882 32.81 94.1176 33.0767 94.0002C34.018 93.5842 34.986 93.3322 36.034 93.3362C40.7874 93.3536 45.5407 93.3429 50.2954 93.3429C50.4354 93.3429 50.578 93.3469 50.718 93.3376C51.0687 93.3149 51.2154 93.2029 51.23 92.8549C51.25 92.4189 51.2114 91.9789 51.2114 91.5402C51.21 90.9776 51.2087 90.4136 51.2327 89.8522C51.2527 89.3989 51.534 89.1296 51.9594 89.0429C52.558 88.9229 53.1607 88.8189 53.766 88.7402C55.2887 88.5442 56.814 88.3656 58.338 88.1829C59.738 88.0149 61.1394 87.8562 62.5394 87.6816C63.8767 87.5162 65.2114 87.3282 66.5487 87.1669C67.326 87.0722 68.106 86.9922 68.8874 86.9389C69.6527 86.8869 70.4207 86.8749 71.1874 86.8456C71.6367 86.8282 71.726 86.7576 71.7994 86.3069C71.8354 86.0909 71.8647 85.8709 71.8607 85.6522C71.842 84.6349 71.8154 83.6162 71.7807 82.5976C71.766 82.1402 71.698 82.0709 71.2314 82.0069C70.9367 81.9669 70.638 81.9376 70.342 81.9376C67.0474 81.9282 63.7527 81.9336 60.458 81.9189C58.4354 81.9109 56.41 81.8069 54.39 81.8669C51.1434 81.9629 47.8967 81.8776 44.6514 81.9256C43.174 81.9482 41.7607 81.6962 40.378 81.1562C38.494 80.4216 36.5807 79.7602 34.6807 79.0656C34.5047 79.0016 34.3314 78.9256 34.158 78.8522C33.658 78.6389 33.414 78.2402 33.3807 77.7136C33.334 76.9789 33.2834 76.2442 33.2727 75.5082C33.238 73.2976 33.202 71.0869 33.2007 68.8749C33.194 47.1776 33.1954 25.4802 33.1994 3.78291C33.1994 3.36157 33.2274 2.93224 33.3114 2.52024C33.506 1.56024 34.0994 0.930908 35.0354 0.649575C35.6807 0.454908 36.3367 0.332243 37.0234 0.332243C68.2607 0.338909 99.4967 0.338909 130.733 0.332243C131.663 0.332243 132.491 0.625581 133.277 1.06425C133.921 1.42291 134.167 2.06158 134.254 2.75225C134.322 3.29625 134.358 3.84691 134.358 4.39357C134.362 27.9896 134.363 51.5856 134.354 75.1816C134.354 75.9789 134.259 76.7762 134.199 77.5722C134.165 78.0296 133.894 78.3042 133.471 78.4602C131.913 79.0376 130.357 79.6229 128.799 80.2042C127.829 80.5656 126.87 80.9416 125.966 81.4616C125.351 81.8149 124.634 81.9269 123.922 81.9322C123.359 81.9349 122.797 81.8549 122.233 81.8549C114.231 81.8482 106.23 81.8496 98.2287 81.8509C98.0247 81.8509 97.8194 81.8456 97.618 81.8709C97.27 81.9136 97.1927 82.0016 97.1834 82.3576C97.1727 82.7189 97.1794 83.0789 97.1794 83.4402C97.1794 84.3656 97.1767 85.2922 97.186 86.2176C97.19 86.6549 97.2767 86.7416 97.714 86.7509C99.362 86.7816 100.994 86.9936 102.626 87.2002C104.025 87.3776 105.427 87.5309 106.827 87.6989C108.321 87.8762 109.813 88.0616 111.307 88.2362C112.77 88.4082 114.233 88.5682 115.695 88.7402C116.101 88.7869 116.502 88.8549 116.906 88.9109C117.357 88.9736 117.603 89.2389 117.662 89.6816C117.687 89.8682 117.701 90.0562 117.702 90.2442C117.707 90.9816 117.705 91.7189 117.706 92.4562C117.707 92.5656 117.703 92.6762 117.71 92.7856C117.735 93.2029 117.843 93.3149 118.25 93.3389C118.406 93.3469 118.563 93.3429 118.721 93.3429C121.262 93.3416 123.803 93.3296 126.345 93.3442C127.739 93.3522 129.135 93.3816 130.529 93.4496C131.198 93.4829 131.871 93.5909 132.526 93.7389C132.913 93.8256 133.294 94.0176 133.633 94.2349C134.37 94.7082 134.737 95.4176 134.742 96.2949C134.75 97.6762 134.743 99.0562 134.743 100.438C134.743 111.922 134.743 123.406 134.743 134.891C134.743 135.047 134.747 135.204 134.742 135.36C134.73 135.798 134.678 135.852 134.257 135.867C134.085 135.872 133.911 135.868 133.739 135.868C116.858 135.868 99.9767 135.868 83.0954 135.868Z" fill="#EAEB81"/>
</svg>
