<svg width="135" height="137" viewBox="0 0 135 137" fill="none" xmlns="http://www.w3.org/2000/svg">
<path d="M71.5602 22.7783C71.5788 24.9729 71.0535 27.0409 70.1735 29.0316C69.9988 29.4249 69.8201 29.8156 69.6281 30.2009C69.5055 30.4463 69.4841 30.6876 69.5348 30.9583C69.8241 32.4809 70.1188 34.0036 70.3735 35.5329C70.5175 36.3943 70.5975 37.2663 70.6948 38.1356C70.7882 38.9729 70.8735 39.8116 70.9535 40.6516C70.9975 41.1249 71.0362 41.5983 71.0522 42.0729C71.0935 43.3623 71.1228 44.6503 71.1548 45.9396C71.1615 46.2316 71.1522 46.5236 71.1575 46.8156C71.1655 47.3889 71.5548 47.7836 72.1322 47.8183C72.5602 47.8449 72.9522 47.7276 73.3268 47.5329C73.9308 47.2183 74.4641 46.8009 74.9615 46.3436C75.7295 45.6369 76.4242 44.8569 77.1015 44.0609C78.1562 42.8196 79.1401 41.5236 80.0988 40.2089C80.8855 39.1289 81.6615 38.0409 82.4215 36.9423C83.8642 34.8596 85.2842 32.7596 86.7308 30.6796C87.5028 29.5703 88.2962 28.4756 89.1055 27.3943C89.7495 26.5343 90.4135 25.6863 91.2041 24.9529C91.5308 24.6503 91.8628 24.3543 92.1988 24.0623C93.1121 23.2649 94.0215 22.4636 94.9468 21.6809C95.9415 20.8396 96.9508 20.0129 97.9601 19.1863C99.1348 18.2249 100.316 17.2689 101.499 16.3156C102.813 15.2556 104.136 14.2063 105.451 13.1476C106.371 12.4063 107.285 11.6583 108.2 10.9103C108.996 10.2596 109.796 9.61293 110.584 8.95293C111.312 8.34226 112.029 7.71692 112.749 7.09559C113.4 6.53425 114.051 5.97292 114.695 5.40626C115.087 5.06092 115.476 4.71426 115.852 4.35159C117.045 3.19959 118.232 2.04226 119.419 0.883592C119.872 0.440925 119.875 0.438257 120.329 0.886257C121.267 1.80892 121.755 2.92492 121.872 4.23959C121.987 5.51292 121.78 6.74492 121.537 7.97826C121.295 9.21426 121.037 10.4463 120.801 11.6836C120.729 12.0596 120.703 12.4436 120.668 12.8249C120.641 13.1036 120.688 13.3689 120.792 13.6356C121.216 14.7156 121.48 15.8303 121.5 16.9983C121.504 17.2423 121.579 17.4863 121.571 17.7289C121.552 18.3423 121.527 18.9569 121.463 19.5663C121.367 20.4969 121.237 21.4236 121.119 22.3516C121.039 22.9743 120.939 23.5956 120.873 24.2209C120.793 24.9836 120.713 25.7489 120.749 26.5183C120.773 27.0423 120.696 27.5569 120.625 28.0756C120.579 28.4196 120.588 28.7796 120.624 29.1263C120.732 30.1729 121.095 31.1596 121.391 32.1596C121.612 32.9036 121.719 33.6569 121.675 34.4329C121.639 35.0636 121.401 35.6249 121.08 36.1569C121.035 36.2329 120.955 36.2903 120.889 36.3529C120.284 36.9423 119.636 37.4929 119.081 38.1263C118.176 39.1623 117.467 40.3263 117.013 41.6396C116.656 42.6743 116.427 43.7369 116.232 44.8116C116.023 45.9756 115.793 47.1383 115.368 48.2476C114.869 49.5503 114.195 50.7449 113.248 51.7796C112.667 52.4143 112.269 53.1623 112.091 54.0036C111.937 54.7236 111.823 55.4529 111.728 56.1823C111.54 57.6196 111.021 58.8996 110.089 60.0249C109.493 60.7423 108.792 61.3276 108.052 61.8769C107.743 62.1049 107.424 62.3196 107.125 62.5609C106.588 62.9943 106.183 63.5289 105.996 64.2023C105.841 64.7596 105.836 65.3369 105.989 65.8876C106.173 66.5516 106.425 67.1969 106.657 67.8476C106.913 68.5716 107.179 69.2916 107.305 70.0556C107.467 71.0343 107.453 72.0063 107.248 72.9796C107.009 74.1089 106.511 75.1263 105.919 76.1009C105.092 77.4596 104.08 78.6703 102.945 79.7823C102.54 80.1796 102.141 80.5863 101.736 80.9836C101.587 81.1303 101.496 81.2889 101.483 81.5063C101.413 82.6489 101.032 83.6916 100.455 84.6729C99.9562 85.5249 99.3415 86.2889 98.7201 87.0516C98.0041 87.9329 97.2521 88.7903 96.6628 89.7663C96.2668 90.4236 96.2668 90.2516 96.6068 90.8809C97.1868 91.9516 97.8921 92.9316 98.7428 93.8129C100.219 95.3436 101.977 96.4369 103.917 97.2676C106.016 98.1663 108.207 98.7649 110.427 99.2689C112.703 99.7849 114.985 100.276 117.256 100.818C118.824 101.194 120.364 101.68 121.861 102.289C123.463 102.941 124.971 103.758 126.332 104.83C127.611 105.837 128.695 107.029 129.545 108.414C130.573 110.084 130.452 112.209 129.284 113.742C129.056 114.041 128.787 114.281 128.495 114.508C128.257 114.69 128.245 114.732 128.359 115.01C128.48 115.31 128.637 115.585 128.867 115.825C129.327 116.304 129.832 116.722 130.384 117.092C131.073 117.552 131.755 118.025 132.425 118.513C132.875 118.84 133.251 119.244 133.559 119.712C133.871 120.188 134.029 120.698 134.037 121.272C134.047 121.878 133.989 122.465 133.773 123.036C133.619 123.445 133.388 123.797 133.1 124.125C132.353 124.974 131.395 125.518 130.423 126.053C129.616 126.497 128.809 126.944 128.027 127.428C127.383 127.826 126.831 128.341 126.436 129.001C126.293 129.237 126.173 129.486 126.043 129.729C125.504 130.73 124.645 131.361 123.601 131.721C122.833 131.985 122.035 132.16 121.247 132.361C120.473 132.558 119.685 132.7 118.943 133.008C118.241 133.298 117.608 133.688 117.029 134.182C116.095 134.981 115.124 135.736 114.072 136.377C113.6 136.664 113.109 136.937 112.521 136.88C112.324 136.861 112.121 136.841 111.935 136.78C111.037 136.478 110.129 136.449 109.209 136.653C109.06 136.685 108.908 136.709 108.757 136.744C108.224 136.862 107.724 136.78 107.247 136.512C106.952 136.346 106.653 136.189 106.347 136.045C105.743 135.761 105.159 135.801 104.6 136.181C104.259 136.414 103.923 136.654 103.515 136.776C102.943 136.945 102.392 136.929 101.859 136.654C101.419 136.426 101.043 136.129 100.715 135.746C100.031 134.946 99.5108 134.041 98.9801 133.144C98.8175 132.869 98.6948 132.564 98.6028 132.258C97.9828 130.217 97.1588 128.272 95.9468 126.508C95.0095 125.145 93.8935 123.946 92.5881 122.926C90.8161 121.541 88.8468 120.526 86.7335 119.774C84.4668 118.968 82.1375 118.43 79.7642 118.066C78.5655 117.884 77.3681 117.697 76.1655 117.544C75.1775 117.417 74.1828 117.341 73.1921 117.236C72.4748 117.16 71.7601 117.069 71.0441 116.993C70.3428 116.918 69.6402 116.858 68.9388 116.782C67.9788 116.677 67.0175 116.574 66.0602 116.452C65.0855 116.326 64.1122 116.194 63.1442 116.037C62.2495 115.892 61.3602 115.716 60.4722 115.537C59.1762 115.276 57.9015 114.924 56.6508 114.5C55.6188 114.15 54.5975 113.758 53.5962 113.329C52.1722 112.718 50.7482 112.096 49.3615 111.404C47.4362 110.444 45.5802 109.354 43.8775 108.028C43.3202 107.594 42.8108 107.102 42.2588 106.664C41.7135 106.23 41.2748 105.696 40.8095 105.189C40.1335 104.453 39.5455 103.644 39.0322 102.785C38.2202 101.42 37.5628 99.9809 37.0695 98.4729C36.4628 96.6183 35.8935 94.7529 35.2962 92.8956C34.7095 91.0769 33.9375 89.3356 33.0255 87.6596C32.2455 86.2276 31.3175 84.8889 30.2908 83.6223C29.9335 83.1809 29.5588 82.7543 29.1815 82.3303C29.0708 82.2063 28.9375 82.0876 28.7908 82.0129C27.7375 81.4769 26.6842 80.9396 25.6175 80.4316C25.2028 80.2343 24.7562 80.0983 24.2868 80.0903C23.7495 80.0809 23.5028 80.3436 23.6042 80.8663C23.6708 81.2089 23.7802 81.5516 23.9242 81.8716C24.5042 83.1636 25.2522 84.3636 26.0015 85.5636C27.2708 87.5943 28.5642 89.6116 29.8055 91.6609C30.6415 93.0396 31.3935 94.4676 31.9828 95.9756C32.3362 96.8809 32.6082 97.8103 32.6762 98.7796C32.7015 99.1529 32.6002 99.5396 32.5242 99.9129C32.4842 100.116 32.3775 100.15 32.1762 100.081C32.0615 100.04 31.9535 99.9783 31.8455 99.9196C30.7615 99.3236 29.9188 98.4583 29.1642 97.4983C28.2962 96.3943 27.5922 95.1876 26.9548 93.9423C26.4655 92.9849 25.9775 92.0276 25.5188 91.0556C24.8695 89.6809 24.2602 88.2876 23.6122 86.9129C22.9255 85.4529 22.2055 84.0063 21.3148 82.6596C20.8922 82.0209 20.4255 81.4036 19.9175 80.8329C19.3522 80.1996 18.6775 79.6796 17.8562 79.4049C17.3308 79.2289 16.7948 79.1076 16.2295 79.2223C15.8522 79.2983 15.7735 79.2276 15.6868 78.8543C15.5935 78.4449 15.7002 78.0529 15.8295 77.6796C16.0295 77.0996 16.2802 76.5369 16.5108 75.9689C16.6095 75.7263 16.7148 75.4876 16.8122 75.2449C17.0282 74.7049 17.0948 74.1383 17.0095 73.5703C16.9655 73.2769 16.8042 72.9996 16.6895 72.7169C16.6668 72.6623 16.6202 72.6156 16.5775 72.5716C16.2228 72.2063 16.0642 71.7569 15.9482 71.2676C15.6615 70.0529 15.2402 68.8823 14.6535 67.7769C14.0815 66.6983 13.3895 65.7049 12.4722 64.8876C11.7242 64.2196 10.9015 63.6516 10.0015 63.2116C9.07616 62.7609 8.13616 62.3436 7.19749 61.9223C5.97749 61.3729 4.77882 60.7889 3.69616 59.9903C2.45349 59.0729 1.47482 57.9249 0.684153 56.6076C0.541487 56.3703 0.405487 56.1303 0.276154 55.8849C-0.0558463 55.2529 -0.00917812 54.6103 0.264155 53.9756C0.465489 53.5063 0.848158 53.2823 1.35216 53.2543C1.91082 53.2249 2.45082 53.2996 2.98549 53.4716C3.95749 53.7836 4.86416 54.2383 5.75082 54.7303C6.56816 55.1836 7.35882 55.6903 8.14816 56.1929C8.43082 56.3729 8.67216 56.6156 8.93749 56.8236C9.11749 56.9636 9.29349 57.1183 9.49349 57.2223C9.75216 57.3569 9.90949 57.2596 9.92149 56.9609C9.93349 56.6556 9.93749 56.3423 9.88149 56.0436C9.75082 55.3343 9.57749 54.6329 9.43215 53.9263C9.28015 53.1903 9.13349 52.4529 9.00149 51.7129C8.96282 51.4969 8.85749 51.3489 8.69082 51.2263C8.26949 50.9183 7.84816 50.6089 7.42682 50.3009C6.78282 49.8289 6.12549 49.3743 5.49615 48.8823C4.92949 48.4383 4.36815 47.9809 3.84949 47.4823C3.06149 46.7223 2.40149 45.8543 1.88149 44.8863C1.79482 44.7249 1.72682 44.5516 1.66282 44.3783C1.40282 43.6903 1.11082 43.0103 0.900157 42.3063C0.56949 41.2089 0.944155 40.1143 1.85616 39.3823C2.34682 38.9876 2.91349 38.7569 3.56016 38.7836C4.30416 38.8129 4.92282 39.0929 5.40415 39.6783C5.60682 39.9263 5.84549 40.1463 6.08282 40.3623C6.42282 40.6716 6.75749 40.9929 7.13082 41.2596C7.45216 41.4889 7.81082 41.6783 8.17616 41.8289C8.57082 41.9916 8.93482 41.8263 9.15082 41.4516C9.41882 40.9876 9.50416 40.4689 9.55616 39.9503C9.66549 38.8516 9.72816 37.7489 9.85216 36.6529C9.94416 35.8303 10.0828 35.0116 10.2375 34.1983C10.3002 33.8716 10.4668 33.5649 10.5788 33.2463C10.6442 33.0583 10.7162 32.8689 10.7495 32.6743C10.8442 32.1209 10.6842 31.6409 10.2775 31.2516C10.1562 31.1356 10.0295 31.0209 9.89349 30.9236C9.04015 30.3143 8.36149 29.5516 7.86949 28.6289C7.46682 27.8743 7.23882 27.0596 7.17482 26.2089C7.09349 25.1396 7.22549 24.0943 7.61749 23.0876C7.82549 22.5529 8.10549 22.0596 8.45616 21.6103C8.76682 21.2129 9.17882 20.9303 9.65349 20.7796C10.2615 20.5876 10.8108 20.7703 11.2735 21.1849C11.8002 21.6569 12.1215 22.2703 12.4002 22.9076C12.7202 23.6449 12.9055 24.4209 13.0735 25.2036C13.1082 25.3689 13.1375 25.5356 13.1828 25.6983C13.2082 25.7929 13.2842 25.8209 13.3495 25.7343C13.4415 25.6116 13.5215 25.4809 13.5988 25.3476C14.2122 24.2956 14.9602 23.3436 15.7402 22.4116C16.8242 21.1183 17.9908 19.8956 18.9922 18.5316C19.5762 17.7356 20.0815 16.8969 20.4962 16.0009C20.6042 15.7663 20.6348 15.5423 20.5642 15.2889C20.4402 14.8463 20.3535 14.3996 20.3388 13.9316C20.3042 12.8583 20.5695 11.8596 21.0202 10.9036C21.5482 9.78759 22.3175 8.85959 23.3095 8.12093C23.6988 7.83159 24.1402 7.64093 24.6122 7.56093C25.2535 7.45293 25.7922 7.68493 26.1988 8.19426C26.4202 8.47293 26.5975 8.78493 26.6708 9.1356C26.7628 9.58493 26.8282 10.0396 26.9015 10.4929C26.9215 10.6143 26.9268 10.7383 26.9468 10.8583C27.0068 11.2289 27.0162 11.5836 26.8068 11.9276C26.6602 12.1663 26.7482 12.2969 27.0308 12.3209C27.5108 12.3609 27.9802 12.2849 28.4442 12.1649C29.7068 11.8356 30.9682 11.4969 32.2335 11.1769C32.6348 11.0756 33.0455 11.0049 33.4548 10.9503C33.6682 10.9223 33.8175 10.8489 33.9602 10.6836C34.5242 10.0289 35.1522 9.44359 35.8988 8.99692C36.8442 8.43159 37.8508 8.19826 38.9455 8.44359C39.6388 8.59826 39.9375 9.1116 40.1202 9.72893C40.1815 9.9356 40.1108 10.1263 40.0082 10.3009C39.8988 10.4863 39.7735 10.6609 39.6548 10.8409C39.2522 11.4516 39.2668 11.7649 39.6842 12.3503C40.0642 12.8849 40.5628 13.2903 41.0708 13.6876C41.3615 13.9143 41.6642 14.1249 41.9588 14.3463C42.4668 14.7263 42.4148 15.3809 41.8362 15.6329C41.5895 15.7409 41.3095 15.7996 41.0388 15.8223C40.3108 15.8823 39.5975 15.7529 38.8975 15.5716C37.9895 15.3369 37.0922 15.0556 36.2668 14.6023C35.7842 14.3383 35.3268 14.0223 34.8815 13.6969C34.5695 13.4676 34.3388 13.1543 34.2055 12.7823C34.0762 12.4236 34.0762 12.4316 33.6868 12.4129C32.7682 12.3689 31.8828 12.5369 31.0122 12.8103C29.9548 13.1436 28.9415 13.5863 27.9442 14.0636C27.3762 14.3356 26.8122 14.6183 26.2535 14.9076C26.0922 14.9916 25.9348 15.0969 25.8028 15.2209C25.5868 15.4276 25.6202 15.5689 25.8975 15.6396C26.1042 15.6916 26.3202 15.7223 26.5335 15.7289C26.9935 15.7423 27.4548 15.7409 27.9162 15.7343C28.6708 15.7223 29.4162 15.8103 30.1615 15.9103C30.9655 16.0169 31.6162 16.3716 32.0788 17.0489C32.2522 17.3023 32.4415 17.5436 32.6068 17.8023C33.0748 18.5316 33.0802 19.6516 32.0868 20.3156C31.6695 20.5943 31.2108 20.8409 30.7362 21.0009C29.6215 21.3756 28.4628 21.5156 27.2842 21.4463C26.1855 21.3809 25.1388 21.1383 24.1575 20.6009C23.3908 20.1809 22.5868 19.8289 21.7962 19.4529C21.6722 19.3943 21.5335 19.3676 21.4042 19.3196C21.0108 19.1769 20.7215 19.3196 20.4855 19.6396C19.9682 20.3449 19.4348 21.0396 18.9295 21.7543C18.2802 22.6689 17.6375 23.5876 17.0188 24.5223C16.2202 25.7329 15.5802 27.0236 15.1295 28.4063C15.1015 28.4929 15.0655 28.5796 15.0468 28.6689C15.0202 28.8009 15.0068 28.9356 14.9868 29.0689C15.1055 29.0156 15.2335 28.9743 15.3428 28.9063C16.6522 28.1036 17.9282 27.2436 19.3362 26.6129C20.2668 26.1956 21.2362 25.9049 22.2522 25.7943C23.1962 25.6903 24.0802 25.9369 24.9322 26.3223C25.3095 26.4929 25.6788 26.6796 25.9575 27.0076C26.3482 27.4703 26.5242 27.9809 26.3815 28.5863C26.2202 29.2796 25.8575 29.8623 25.3868 30.3796C23.9148 32.0009 22.1122 33.1449 20.1242 34.0249C19.3068 34.3876 18.4628 34.6623 17.6002 34.8903C16.7415 35.1169 15.8682 35.1369 14.9935 35.0849C14.7068 35.0689 14.4082 34.9969 14.1468 34.8796C13.5535 34.6143 13.1588 34.9156 12.8695 35.4343C12.7442 35.6583 12.6668 35.9156 12.5988 36.1663C12.4122 36.8489 12.2962 37.5423 12.2268 38.2489C12.1215 39.3036 12.0895 40.3596 12.0348 41.4156C11.9868 42.3676 11.9828 43.3183 11.9548 44.2689C11.9442 44.6209 11.8988 44.9716 11.8775 45.3236C11.8748 45.3729 11.9202 45.4249 11.9442 45.4756C11.9882 45.4396 12.0455 45.4129 12.0748 45.3663C12.9442 43.9716 14.0842 42.8063 15.2828 41.7049C16.4842 40.6009 17.7988 39.6396 19.2695 38.9129C19.5855 38.7569 19.9175 38.6329 20.2442 38.4969C20.8988 38.2236 21.5868 38.1783 22.2815 38.2343C22.9988 38.2916 23.5015 38.7103 23.8722 39.2903C24.1908 39.7903 24.3348 40.3569 24.4082 40.9423C24.4282 41.1103 24.4442 41.2783 24.4722 41.4436C24.5295 41.7729 24.4895 42.0876 24.3495 42.3889C23.8015 43.5623 23.1415 44.6689 22.3428 45.6876C22.0215 46.0983 21.6935 46.5089 21.3268 46.8769C20.4135 47.7943 19.4055 48.6036 18.2655 49.2223C17.1455 49.8316 15.9988 50.3889 14.8682 50.9783C14.5282 51.1556 14.2042 51.3609 13.8722 51.5543C13.4962 51.7743 13.1828 52.0663 12.8855 52.3796C12.3455 52.9463 12.0895 53.6369 11.9615 54.3969C11.8175 55.2476 11.9348 56.0823 12.0828 56.9103C12.3082 58.1836 12.7082 59.4116 13.1575 60.6236C13.1895 60.7103 13.2215 60.7969 13.2642 60.8783C13.2828 60.9143 13.3255 60.9369 13.3575 60.9649C13.3828 60.9316 13.4215 60.9009 13.4308 60.8636C13.5868 60.2383 13.7202 59.6063 13.8962 58.9876C14.3642 57.3409 15.1468 55.8503 16.2095 54.5129C17.1495 53.3289 18.3122 52.4089 19.6748 51.7543C20.7255 51.2489 21.8348 50.9516 23.0068 50.9583C23.6575 50.9623 24.3002 51.0809 24.8775 51.3876C25.7948 51.8756 26.3548 52.6063 26.3522 53.7023C26.3508 54.3343 26.1815 54.9156 25.9255 55.4783C25.5602 56.2823 25.0748 57.0089 24.4802 57.6596C23.9628 58.2249 23.4628 58.8156 22.8882 59.3183C22.0335 60.0649 21.1228 60.7463 20.2308 61.4489C19.9895 61.6383 19.7308 61.8049 19.4788 61.9823C18.8855 62.4009 18.2348 62.7089 17.5562 62.9649C17.1402 63.1209 16.7215 63.2769 16.3122 63.4516C16.1162 63.5343 15.9242 63.6423 15.7535 63.7689C15.3188 64.0903 15.1228 64.5303 15.2682 65.0583C15.3855 65.4836 15.5228 65.9196 15.7388 66.3009C15.9868 66.7356 16.1508 67.1903 16.2775 67.6649C16.5015 68.4996 16.8068 69.3036 17.2335 70.0543C17.3655 70.2903 17.5522 70.5076 17.7548 70.6876C18.0495 70.9503 18.3988 71.0129 18.7842 70.8543C19.1922 70.6876 19.5308 70.4276 19.8415 70.1289C20.3268 69.6596 20.7908 69.1649 21.2815 68.7009C21.9602 68.0569 22.6402 67.4143 23.3935 66.8529C24.3522 66.1409 25.3882 65.5849 26.5508 65.2849C27.5135 65.0369 28.4895 64.9756 29.4735 65.1236C30.1562 65.2276 30.8335 65.3556 31.5135 65.4743C32.5695 65.6583 33.4775 66.1476 34.3148 66.8009C35.2468 67.5276 35.9762 68.4396 36.6562 69.3863C37.3175 70.3089 37.9282 71.2689 38.5415 72.2263C39.3375 73.4663 40.1028 74.7276 41.0255 75.8823C41.6335 76.6436 42.3015 77.3356 43.1362 77.8503C44.4348 78.6489 45.7948 78.7169 47.2028 78.1863C47.4188 78.1049 47.4282 78.0489 47.2962 77.8489C46.7722 77.0543 46.2282 76.2716 45.7295 75.4623C44.7242 73.8303 44.0068 72.0703 43.4668 70.2343C43.1202 69.0503 42.8962 67.8423 42.7762 66.6209C42.6748 65.5983 42.6068 64.5689 42.6682 63.5396C42.8108 61.1556 43.2308 58.8196 43.8855 56.5223C44.5642 54.1383 45.4535 51.8329 46.4455 49.5663C47.0868 48.1036 47.7642 46.6569 48.4375 45.2089C49.0068 43.9836 49.6002 42.7689 50.1735 41.5449C51.4308 38.8609 52.6828 36.1729 53.7375 33.4009C54.6655 30.9556 55.4468 28.4649 55.9015 25.8836C56.0495 25.0396 56.1055 24.1783 56.2202 23.3276C56.3815 22.1489 56.3295 20.9636 56.2882 19.7849C56.2442 18.5289 56.0788 17.2743 55.7548 16.0543C55.4788 15.0156 55.1628 13.9876 54.8415 12.9623C54.4562 11.7303 54.0375 10.5103 53.6495 9.27959C53.3495 8.32492 53.1162 7.34892 53.0148 6.35559C52.9015 5.24225 52.8575 4.11559 53.3268 3.04893C53.5455 2.55426 53.8202 2.09293 54.2308 1.72893C54.3335 1.63693 54.4482 1.55959 54.5588 1.47559C54.6842 1.38226 54.8135 1.37959 54.9442 1.46226C55.0095 1.50359 55.0735 1.54492 55.1375 1.58759C56.8762 2.71826 58.5842 3.89425 60.2215 5.16892C61.0215 5.79025 61.7842 6.45826 62.5682 7.09826C63.6175 7.95293 64.5868 8.89559 65.5135 9.87826C66.9482 11.4023 68.2428 13.0356 69.2908 14.8569C69.8762 15.8729 70.3775 16.9263 70.7535 18.0329C71.0842 19.0063 71.3455 20.0036 71.4348 21.0356C71.4855 21.6156 71.5188 22.1969 71.5602 22.7783Z" fill="#56A7DA"/>
</svg>
