<svg width="135" height="138" viewBox="0 0 135 138" fill="none" xmlns="http://www.w3.org/2000/svg">
<path d="M71.8844 22.9324C71.9017 25.1271 71.3777 27.1951 70.4977 29.1858C70.323 29.5791 70.1444 29.9698 69.9524 30.3551C69.8297 30.6004 69.8084 30.8418 69.859 31.1124C70.1484 32.6351 70.443 34.1578 70.6977 35.6871C70.8417 36.5484 70.9217 37.4204 71.019 38.2898C71.1124 39.1271 71.1977 39.9658 71.2777 40.8058C71.3217 41.2791 71.3604 41.7524 71.3764 42.2271C71.4177 43.5164 71.447 44.8044 71.479 46.0938C71.4857 46.3858 71.4764 46.6778 71.4817 46.9698C71.4897 47.5431 71.879 47.9378 72.4564 47.9724C72.8844 47.9991 73.2764 47.8818 73.651 47.6871C74.255 47.3724 74.7884 46.9551 75.2857 46.4978C76.0537 45.7911 76.7484 45.0111 77.4257 44.2151C78.4804 42.9738 79.4644 41.6778 80.423 40.3631C81.2097 39.2831 81.9857 38.1951 82.7457 37.0964C84.1884 35.0138 85.6084 32.9138 87.055 30.8338C87.827 29.7244 88.6204 28.6298 89.4297 27.5484C90.0737 26.6884 90.7377 25.8404 91.5284 25.1071C91.855 24.8044 92.187 24.5084 92.523 24.2164C93.4364 23.4191 94.3457 22.6178 95.271 21.8351C96.2657 20.9938 97.275 20.1671 98.2844 19.3404C99.459 18.3791 100.64 17.4218 101.823 16.4698C103.138 15.4098 104.46 14.3604 105.775 13.3018C106.695 12.5604 107.61 11.8124 108.524 11.0644C109.32 10.4138 110.12 9.7671 110.908 9.1071C111.636 8.49644 112.354 7.8711 113.074 7.24976C113.724 6.68843 114.375 6.1271 115.019 5.56043C115.411 5.2151 115.8 4.86843 116.176 4.50576C117.37 3.35376 118.556 2.19643 119.743 1.03777C120.196 0.5951 120.199 0.592432 120.654 1.04043C121.591 1.9631 122.079 3.0791 122.196 4.39376C122.311 5.6671 122.104 6.8991 121.862 8.13243C121.619 9.36843 121.362 10.6004 121.126 11.8378C121.054 12.2138 121.027 12.5978 120.992 12.9791C120.966 13.2578 121.012 13.5231 121.116 13.7898C121.54 14.8698 121.804 15.9844 121.824 17.1524C121.828 17.3964 121.903 17.6404 121.895 17.8831C121.876 18.4964 121.851 19.1111 121.787 19.7204C121.691 20.6511 121.562 21.5778 121.443 22.5058C121.363 23.1284 121.263 23.7498 121.198 24.3751C121.118 25.1378 121.038 25.9031 121.074 26.6724C121.098 27.1964 121.02 27.7111 120.95 28.2298C120.903 28.5738 120.912 28.9338 120.948 29.2804C121.056 30.3271 121.419 31.3138 121.715 32.3138C121.936 33.0578 122.043 33.8111 121.999 34.5871C121.963 35.2178 121.726 35.7791 121.404 36.3111C121.359 36.3871 121.279 36.4444 121.214 36.5071C120.608 37.0964 119.96 37.6471 119.406 38.2804C118.5 39.3164 117.791 40.4804 117.338 41.7938C116.98 42.8284 116.751 43.8911 116.556 44.9658C116.347 46.1298 116.118 47.2924 115.692 48.4018C115.194 49.7044 114.519 50.8991 113.572 51.9338C112.991 52.5684 112.594 53.3164 112.415 54.1578C112.262 54.8778 112.147 55.6071 112.052 56.3364C111.864 57.7738 111.346 59.0538 110.414 60.1791C109.818 60.8964 109.116 61.4818 108.376 62.0311C108.067 62.2591 107.748 62.4738 107.45 62.7151C106.912 63.1484 106.507 63.6831 106.32 64.3564C106.166 64.9138 106.16 65.4911 106.314 66.0418C106.498 66.7058 106.75 67.3511 106.982 68.0018C107.238 68.7258 107.503 69.4458 107.63 70.2098C107.791 71.1884 107.778 72.1604 107.572 73.1338C107.334 74.2631 106.835 75.2804 106.243 76.2551C105.416 77.6138 104.404 78.8244 103.27 79.9364C102.864 80.3338 102.466 80.7404 102.06 81.1378C101.911 81.2844 101.82 81.4431 101.807 81.6604C101.738 82.8031 101.356 83.8458 100.78 84.8271C100.28 85.6791 99.6657 86.4431 99.0444 87.2058C98.3284 88.0871 97.5764 88.9444 96.987 89.9204C96.591 90.5778 96.591 90.4058 96.931 91.0351C97.511 92.1058 98.2164 93.0858 99.067 93.9671C100.543 95.4978 102.302 96.5911 104.242 97.4218C106.34 98.3204 108.531 98.9191 110.751 99.4231C113.027 99.9391 115.31 100.43 117.58 100.972C119.148 101.348 120.688 101.834 122.186 102.443C123.787 103.095 125.295 103.912 126.656 104.984C127.935 105.991 129.019 107.183 129.87 108.568C130.898 110.238 130.776 112.363 129.608 113.896C129.38 114.195 129.111 114.435 128.819 114.662C128.582 114.844 128.57 114.886 128.683 115.164C128.804 115.464 128.962 115.739 129.191 115.979C129.651 116.458 130.156 116.876 130.708 117.246C131.398 117.706 132.079 118.179 132.75 118.667C133.199 118.994 133.575 119.398 133.883 119.866C134.195 120.342 134.354 120.852 134.362 121.426C134.371 122.032 134.314 122.619 134.098 123.19C133.943 123.599 133.712 123.951 133.424 124.279C132.678 125.128 131.719 125.672 130.747 126.207C129.94 126.651 129.134 127.098 128.351 127.582C127.707 127.98 127.155 128.495 126.76 129.155C126.618 129.391 126.498 129.64 126.367 129.883C125.828 130.884 124.97 131.515 123.926 131.875C123.158 132.139 122.359 132.314 121.571 132.515C120.798 132.712 120.01 132.854 119.267 133.162C118.566 133.452 117.932 133.842 117.354 134.336C116.419 135.135 115.448 135.89 114.396 136.531C113.924 136.818 113.434 137.091 112.846 137.034C112.648 137.015 112.446 136.995 112.259 136.934C111.362 136.632 110.454 136.603 109.534 136.806C109.384 136.839 109.232 136.863 109.082 136.898C108.548 137.016 108.048 136.934 107.571 136.666C107.276 136.5 106.978 136.343 106.671 136.199C106.067 135.915 105.483 135.955 104.924 136.335C104.583 136.568 104.247 136.808 103.839 136.93C103.267 137.099 102.716 137.083 102.183 136.808C101.743 136.58 101.367 136.283 101.039 135.9C100.355 135.1 99.835 134.195 99.3044 133.298C99.1417 133.023 99.019 132.718 98.927 132.412C98.307 130.371 97.483 128.426 96.271 126.662C95.3337 125.299 94.2177 124.1 92.9137 123.08C91.1404 121.695 89.171 120.68 87.0577 119.928C84.7924 119.122 82.4617 118.584 80.0884 118.22C78.8897 118.038 77.6924 117.851 76.4897 117.698C75.5017 117.571 74.507 117.495 73.5164 117.39C72.799 117.314 72.0844 117.223 71.3684 117.147C70.667 117.072 69.9644 117.012 69.263 116.936C68.303 116.831 67.3417 116.728 66.3844 116.606C65.4097 116.48 64.4364 116.348 63.4684 116.191C62.5737 116.046 61.6844 115.87 60.7964 115.691C59.5004 115.43 58.2257 115.078 56.975 114.654C55.943 114.304 54.9217 113.912 53.9204 113.483C52.4964 112.872 51.0724 112.25 49.6857 111.558C47.7604 110.598 45.9044 109.508 44.2017 108.182C43.6444 107.748 43.135 107.256 42.583 106.818C42.0377 106.384 41.599 105.85 41.1337 105.343C40.4577 104.607 39.8697 103.798 39.3564 102.939C38.5444 101.574 37.887 100.135 37.3937 98.6271C36.787 96.7724 36.2177 94.9071 35.6204 93.0498C35.0337 91.2311 34.2617 89.4898 33.3497 87.8138C32.5697 86.3818 31.6417 85.0431 30.615 83.7764C30.2577 83.3351 29.883 82.9084 29.5057 82.4844C29.395 82.3604 29.2617 82.2418 29.115 82.1671C28.0617 81.6311 27.0084 81.0938 25.9417 80.5858C25.527 80.3884 25.0804 80.2524 24.611 80.2444C24.0737 80.2351 23.827 80.4978 23.9284 81.0204C23.995 81.3631 24.1044 81.7058 24.2484 82.0258C24.8284 83.3178 25.5764 84.5178 26.3257 85.7178C27.595 87.7484 28.8884 89.7658 30.1297 91.8151C30.9657 93.1938 31.7177 94.6218 32.307 96.1298C32.6604 97.0351 32.9324 97.9644 33.0004 98.9338C33.0257 99.3071 32.9244 99.6938 32.8484 100.067C32.8084 100.27 32.7017 100.304 32.5004 100.235C32.3857 100.194 32.2777 100.132 32.1697 100.074C31.0857 99.4778 30.243 98.6124 29.4884 97.6524C28.6204 96.5484 27.9164 95.3418 27.279 94.0964C26.7897 93.1391 26.3017 92.1818 25.843 91.2098C25.1937 89.8351 24.5844 88.4418 23.9364 87.0671C23.2497 85.6071 22.5297 84.1604 21.639 82.8138C21.2164 82.1751 20.7497 81.5578 20.2417 80.9871C19.6764 80.3538 19.0017 79.8338 18.1804 79.5591C17.655 79.3831 17.119 79.2618 16.5537 79.3764C16.1764 79.4524 16.0977 79.3818 16.0124 79.0084C15.9177 78.5991 16.0244 78.2071 16.1537 77.8338C16.3537 77.2538 16.6044 76.6911 16.835 76.1231C16.9337 75.8804 17.039 75.6418 17.1364 75.3991C17.3524 74.8591 17.419 74.2924 17.3337 73.7244C17.2897 73.4311 17.1284 73.1538 17.0137 72.8711C16.991 72.8164 16.9444 72.7698 16.9017 72.7258C16.547 72.3604 16.3884 71.9111 16.2724 71.4218C15.9857 70.2071 15.5644 69.0364 14.9777 67.9311C14.4057 66.8524 13.7137 65.8591 12.7964 65.0418C12.0484 64.3738 11.2257 63.8058 10.3257 63.3658C9.40038 62.9151 8.46037 62.4978 7.52171 62.0764C6.30171 61.5271 5.10304 60.9431 4.02038 60.1444C2.77771 59.2271 1.79904 58.0791 1.00837 56.7618C0.865705 56.5244 0.729706 56.2844 0.600372 56.0391C0.268372 55.4071 0.315041 54.7644 0.588374 54.1298C0.789707 53.6604 1.17238 53.4364 1.67638 53.4084C2.23504 53.3791 2.77504 53.4538 3.30971 53.6258C4.28171 53.9378 5.18838 54.3924 6.07504 54.8844C6.89238 55.3378 7.68304 55.8444 8.47238 56.3471C8.75504 56.5271 8.99637 56.7698 9.26171 56.9778C9.44171 57.1178 9.61771 57.2724 9.81771 57.3764C10.0764 57.5111 10.2337 57.4138 10.2457 57.1151C10.2577 56.8098 10.2617 56.4964 10.2057 56.1978C10.075 55.4884 9.90171 54.7871 9.75637 54.0804C9.60437 53.3444 9.45771 52.6071 9.32571 51.8671C9.28704 51.6511 9.18171 51.5031 9.01504 51.3804C8.59371 51.0724 8.17238 50.7631 7.75104 50.4551C7.10704 49.9831 6.44971 49.5284 5.82037 49.0364C5.25371 48.5924 4.69237 48.1351 4.17371 47.6364C3.38571 46.8764 2.72571 46.0084 2.20571 45.0404C2.11904 44.8791 2.05104 44.7058 1.98704 44.5324C1.72704 43.8444 1.43504 43.1644 1.22438 42.4604C0.893709 41.3631 1.26837 40.2684 2.18037 39.5364C2.67104 39.1418 3.23771 38.9111 3.88437 38.9378C4.62837 38.9671 5.24704 39.2471 5.72837 39.8324C5.93104 40.0804 6.1697 40.3004 6.40704 40.5164C6.74704 40.8258 7.08171 41.1471 7.45504 41.4138C7.77638 41.6431 8.13504 41.8324 8.50038 41.9831C8.89504 42.1458 9.25904 41.9804 9.47504 41.6058C9.74304 41.1418 9.82838 40.6231 9.88038 40.1044C9.98971 39.0058 10.0524 37.9031 10.1764 36.8071C10.2684 35.9844 10.407 35.1658 10.5617 34.3524C10.6244 34.0258 10.791 33.7191 10.903 33.4004C10.9684 33.2124 11.0404 33.0231 11.0737 32.8284C11.1684 32.2751 11.0084 31.7951 10.6017 31.4058C10.4804 31.2898 10.3537 31.1751 10.2177 31.0778C9.36437 30.4684 8.6857 29.7058 8.1937 28.7831C7.79104 28.0284 7.56304 27.2138 7.49904 26.3631C7.4177 25.2938 7.54971 24.2484 7.94171 23.2418C8.14971 22.7071 8.42971 22.2138 8.78037 21.7644C9.09104 21.3671 9.50304 21.0844 9.97771 20.9338C10.5857 20.7418 11.135 20.9244 11.5977 21.3391C12.1244 21.8111 12.4457 22.4244 12.7244 23.0618C13.0444 23.7991 13.2297 24.5751 13.3977 25.3578C13.4324 25.5231 13.4617 25.6898 13.507 25.8524C13.5324 25.9471 13.6084 25.9751 13.6737 25.8884C13.7657 25.7658 13.8457 25.6351 13.923 25.5018C14.5364 24.4498 15.2844 23.4978 16.0644 22.5658C17.1484 21.2724 18.315 20.0498 19.3164 18.6858C19.9004 17.8898 20.4057 17.0511 20.8204 16.1551C20.9284 15.9204 20.959 15.6964 20.8884 15.4431C20.7644 15.0004 20.6777 14.5538 20.663 14.0858C20.6284 13.0124 20.8937 12.0138 21.3444 11.0578C21.8724 9.94177 22.6417 9.01377 23.6337 8.2751C24.023 7.98577 24.4644 7.7951 24.9364 7.7151C25.5777 7.6071 26.1164 7.8391 26.523 8.34844C26.7444 8.6271 26.9217 8.9391 26.995 9.28977C27.087 9.7391 27.1524 10.1938 27.2257 10.6471C27.2457 10.7684 27.251 10.8924 27.271 11.0124C27.331 11.3831 27.3404 11.7378 27.131 12.0818C26.9844 12.3204 27.0724 12.4511 27.355 12.4751C27.835 12.5151 28.3044 12.4391 28.7684 12.3191C30.031 11.9898 31.2924 11.6511 32.5577 11.3311C32.959 11.2298 33.3697 11.1591 33.779 11.1044C33.9924 11.0764 34.1417 11.0031 34.2844 10.8378C34.8484 10.1831 35.4764 9.59777 36.223 9.1511C37.1684 8.58577 38.175 8.35243 39.2697 8.59776C39.963 8.75243 40.2617 9.26577 40.4444 9.8831C40.5057 10.0898 40.435 10.2804 40.3324 10.4551C40.223 10.6404 40.0977 10.8151 39.979 10.9951C39.5764 11.6058 39.591 11.9191 40.0084 12.5044C40.3884 13.0391 40.887 13.4444 41.395 13.8418C41.6857 14.0684 41.9884 14.2791 42.283 14.5004C42.791 14.8804 42.739 15.5351 42.1604 15.7871C41.9137 15.8951 41.6337 15.9538 41.363 15.9764C40.635 16.0364 39.9217 15.9071 39.2217 15.7258C38.3137 15.4911 37.4164 15.2098 36.591 14.7564C36.1084 14.4924 35.651 14.1764 35.2057 13.8511C34.8937 13.6218 34.663 13.3084 34.5297 12.9364C34.4004 12.5778 34.4004 12.5858 34.011 12.5671C33.0924 12.5231 32.207 12.6911 31.3364 12.9644C30.279 13.2978 29.2657 13.7404 28.2684 14.2178C27.7004 14.4898 27.1364 14.7724 26.5777 15.0618C26.4164 15.1458 26.259 15.2511 26.127 15.3751C25.911 15.5818 25.9444 15.7231 26.2217 15.7938C26.4284 15.8458 26.6444 15.8764 26.8577 15.8831C27.3177 15.8964 27.779 15.8951 28.2404 15.8884C28.995 15.8764 29.7404 15.9644 30.4857 16.0644C31.2897 16.1711 31.9404 16.5258 32.403 17.2031C32.5764 17.4564 32.7657 17.6978 32.931 17.9564C33.399 18.6858 33.4044 19.8058 32.411 20.4698C31.9937 20.7484 31.535 20.9951 31.0604 21.1551C29.9457 21.5298 28.787 21.6698 27.6084 21.6004C26.5097 21.5351 25.463 21.2924 24.4817 20.7551C23.715 20.3351 22.911 19.9831 22.1204 19.6071C21.9964 19.5484 21.8577 19.5218 21.7284 19.4738C21.335 19.3298 21.0457 19.4738 20.8097 19.7938C20.2924 20.4991 19.759 21.1938 19.2537 21.9084C18.6044 22.8231 17.9617 23.7418 17.343 24.6764C16.5444 25.8871 15.9044 27.1778 15.4537 28.5604C15.4257 28.6471 15.3897 28.7338 15.371 28.8231C15.3444 28.9551 15.331 29.0898 15.311 29.2231C15.4297 29.1698 15.5577 29.1284 15.667 29.0604C16.9764 28.2578 18.2524 27.3978 19.6604 26.7671C20.591 26.3498 21.5604 26.0591 22.5764 25.9484C23.5204 25.8444 24.4044 26.0911 25.2564 26.4764C25.6337 26.6471 26.003 26.8338 26.2817 27.1618C26.6724 27.6244 26.8484 28.1351 26.7057 28.7404C26.5444 29.4338 26.1817 30.0164 25.711 30.5338C24.239 32.1551 22.4364 33.2991 20.4484 34.1791C19.631 34.5418 18.787 34.8164 17.9244 35.0444C17.0657 35.2711 16.1924 35.2911 15.3177 35.2391C15.031 35.2231 14.7324 35.1511 14.471 35.0338C13.8777 34.7684 13.483 35.0698 13.1937 35.5884C13.0684 35.8124 12.991 36.0698 12.923 36.3204C12.7364 37.0031 12.6204 37.6964 12.551 38.4031C12.4457 39.4578 12.4137 40.5138 12.359 41.5698C12.311 42.5218 12.307 43.4724 12.279 44.4231C12.2684 44.7751 12.223 45.1258 12.2017 45.4778C12.199 45.5271 12.2444 45.5791 12.2684 45.6298C12.3124 45.5938 12.3697 45.5671 12.399 45.5204C13.2684 44.1258 14.4084 42.9604 15.607 41.8591C16.8084 40.7551 18.123 39.7938 19.5937 39.0671C19.9097 38.9111 20.2417 38.7871 20.5684 38.6511C21.223 38.3778 21.911 38.3324 22.6057 38.3884C23.323 38.4458 23.8257 38.8644 24.1964 39.4444C24.515 39.9444 24.659 40.5111 24.7324 41.0964C24.7524 41.2644 24.7684 41.4324 24.7964 41.5978C24.8537 41.9271 24.8137 42.2418 24.6737 42.5431C24.1257 43.7164 23.4657 44.8231 22.667 45.8418C22.3457 46.2524 22.0177 46.6631 21.651 47.0311C20.7377 47.9484 19.7297 48.7578 18.5897 49.3764C17.4697 49.9858 16.323 50.5431 15.1924 51.1324C14.8524 51.3098 14.5284 51.5151 14.1964 51.7084C13.8204 51.9284 13.507 52.2204 13.2097 52.5338C12.6697 53.1004 12.4137 53.7911 12.2857 54.5511C12.1417 55.4018 12.259 56.2364 12.407 57.0644C12.6324 58.3378 13.0324 59.5658 13.4817 60.7778C13.5137 60.8644 13.5457 60.9511 13.5884 61.0324C13.607 61.0684 13.6497 61.0911 13.6817 61.1191C13.707 61.0858 13.7457 61.0551 13.755 61.0178C13.911 60.3924 14.0444 59.7604 14.2204 59.1418C14.6884 57.4951 15.471 56.0044 16.5337 54.6671C17.4737 53.4831 18.6364 52.5631 19.999 51.9084C21.0497 51.4031 22.159 51.1058 23.331 51.1124C23.9817 51.1164 24.6244 51.2351 25.2017 51.5418C26.119 52.0298 26.679 52.7604 26.6764 53.8564C26.675 54.4884 26.5057 55.0698 26.2497 55.6324C25.8844 56.4364 25.399 57.1631 24.8044 57.8138C24.287 58.3791 23.787 58.9698 23.2124 59.4724C22.3577 60.2191 21.447 60.9004 20.555 61.6031C20.3137 61.7924 20.055 61.9591 19.803 62.1364C19.2097 62.5551 18.559 62.8631 17.8804 63.1191C17.4644 63.2751 17.0457 63.4311 16.6364 63.6058C16.4404 63.6884 16.2484 63.7964 16.0777 63.9231C15.643 64.2444 15.447 64.6844 15.5924 65.2124C15.7097 65.6378 15.847 66.0738 16.063 66.4551C16.311 66.8898 16.475 67.3444 16.6017 67.8191C16.8257 68.6538 17.131 69.4578 17.5577 70.2084C17.6897 70.4444 17.8764 70.6618 18.079 70.8418C18.3737 71.1044 18.723 71.1671 19.1084 71.0084C19.5164 70.8418 19.855 70.5818 20.1657 70.2831C20.651 69.8138 21.115 69.3191 21.6057 68.8551C22.2844 68.2111 22.9644 67.5684 23.7177 67.0071C24.6764 66.2951 25.7124 65.7391 26.875 65.4391C27.8377 65.1911 28.8137 65.1298 29.7977 65.2778C30.4804 65.3818 31.1577 65.5098 31.8377 65.6284C32.8937 65.8124 33.8017 66.3018 34.639 66.9551C35.571 67.6818 36.3004 68.5938 36.9804 69.5404C37.6417 70.4631 38.2524 71.4231 38.8657 72.3804C39.6617 73.6204 40.427 74.8818 41.3497 76.0364C41.9577 76.7978 42.6257 77.4898 43.4604 78.0044C44.759 78.8031 46.119 78.8711 47.527 78.3404C47.743 78.2591 47.7524 78.2031 47.6204 78.0031C47.0964 77.2084 46.5524 76.4258 46.0537 75.6164C45.0484 73.9844 44.331 72.2244 43.791 70.3884C43.4444 69.2044 43.2204 67.9964 43.1004 66.7751C42.999 65.7524 42.931 64.7231 42.9924 63.6938C43.135 61.3098 43.555 58.9738 44.2097 56.6764C44.8884 54.2924 45.7777 51.9871 46.7697 49.7204C47.411 48.2578 48.0884 46.8111 48.7617 45.3631C49.331 44.1378 49.9244 42.9231 50.4977 41.6991C51.755 39.0151 53.007 36.3271 54.0617 33.5551C54.9897 31.1098 55.771 28.6191 56.2257 26.0378C56.3737 25.1938 56.4297 24.3324 56.5444 23.4818C56.7057 22.3031 56.6537 21.1178 56.6124 19.9391C56.5684 18.6831 56.403 17.4284 56.079 16.2084C55.803 15.1698 55.487 14.1418 55.1657 13.1164C54.7804 11.8844 54.3617 10.6644 53.9737 9.43376C53.6737 8.4791 53.4404 7.5031 53.339 6.50976C53.2257 5.39643 53.1817 4.26977 53.651 3.2031C53.8697 2.70843 54.1444 2.2471 54.555 1.8831C54.6577 1.7911 54.7724 1.71377 54.883 1.62977C55.0084 1.53643 55.1377 1.53376 55.2684 1.61643C55.3337 1.65776 55.3977 1.6991 55.4617 1.74177C57.2004 2.87243 58.9084 4.04843 60.5457 5.3231C61.3457 5.94443 62.1084 6.61244 62.8924 7.25244C63.9417 8.1071 64.911 9.04977 65.8377 10.0324C67.2724 11.5564 68.567 13.1898 69.615 15.0111C70.2004 16.0271 70.7017 17.0804 71.0777 18.1871C71.4084 19.1604 71.6697 20.1578 71.759 21.1898C71.8097 21.7698 71.843 22.3511 71.8844 22.9324Z" fill="#56A7DA"/>
</svg>
