<svg width="130" height="131" viewBox="0 0 130 131" fill="none" xmlns="http://www.w3.org/2000/svg">
<path d="M26.1794 0.184405C26.73 0.184405 27.2807 0.161735 27.83 0.191068C28.406 0.220401 28.9847 0.252402 29.558 0.339068C29.8514 0.384402 30.146 0.411074 30.442 0.440407C31.1794 0.515074 31.9087 0.652405 32.6394 0.777738C34.118 1.03107 35.57 1.40174 37.0127 1.80841C38.0994 2.11374 39.17 2.47374 40.226 2.8724C40.31 2.90307 40.3914 2.94174 40.4714 2.98174C41.4154 3.4524 42.3674 3.90841 43.3007 4.40041C44.2207 4.88574 45.1127 5.42307 45.9927 5.97907C47.0994 6.67774 48.162 7.43907 49.1927 8.2444C49.6967 8.6364 50.166 9.07107 50.6594 9.47774C51.2807 9.98974 51.834 10.5711 52.3994 11.1404C53.3127 12.0604 54.1274 13.0617 54.8807 14.1151C55.5567 15.0604 56.1514 16.0524 56.67 17.0924C57.3247 18.4017 57.7994 19.7737 58.154 21.1911C58.2847 21.7084 58.4167 22.2271 58.538 22.7471C58.7394 23.6151 58.8927 24.4884 58.9847 25.3764C59.094 26.4417 59.1727 27.5071 59.134 28.5777C59.1074 29.3031 59.0807 30.0297 58.9847 30.7524C58.9367 31.1191 58.9194 31.4911 58.874 31.8591C58.8207 32.2857 58.7647 32.7124 58.6887 33.1351C58.4927 34.2457 58.2954 35.3564 58.0167 36.4497C57.6727 37.8017 57.318 39.1511 56.9647 40.5004C56.8594 40.9031 56.7394 41.3017 56.6274 41.7017C56.5954 41.8164 56.5647 41.9311 56.5407 42.0471C56.514 42.1697 56.534 42.1884 56.6634 42.2337C56.866 42.3071 57.066 42.3044 57.2754 42.2564C57.826 42.1297 58.2914 41.8377 58.7327 41.5071C59.1954 41.1591 59.638 40.7844 60.0474 40.3724C60.498 39.9177 60.9594 39.4751 61.3994 39.0111C61.9647 38.4151 62.602 37.9044 63.2447 37.4004C64.2954 36.5737 65.35 35.7511 66.402 34.9271C67.1274 34.3577 67.8567 33.7964 68.5727 33.2177C69.254 32.6671 69.9287 32.1071 70.5914 31.5337C71.1767 31.0271 71.7887 30.5564 72.414 30.1044C75.1367 28.1364 77.9087 26.2391 80.73 24.4164C82.1154 23.5204 83.5154 22.6484 84.9207 21.7844C86.1727 21.0124 87.438 20.2617 88.7034 19.5111C89.3807 19.1097 90.0674 18.7231 90.7527 18.3364C91.658 17.8231 92.566 17.3151 93.474 16.8084C93.8247 16.6124 94.178 16.4217 94.5314 16.2324C95.1487 15.9044 95.7647 15.5737 96.3847 15.2524C97.6114 14.6164 98.8394 13.9791 100.071 13.3551C101.225 12.7697 102.381 12.1897 103.546 11.6297C104.001 11.4124 104.487 11.2644 104.955 11.0737C106.055 10.6271 107.158 10.1831 108.253 9.72174C110.266 8.87507 112.262 7.98708 114.297 7.19508C116.167 6.46708 118.067 5.82974 120.03 5.39908C120.855 5.21774 121.685 5.0524 122.53 4.98973C123.047 4.95107 123.563 4.89107 124.079 4.8404C124.322 4.8164 124.543 4.85374 124.763 4.97907C125.309 5.28974 125.826 5.6404 126.275 6.07507C126.703 6.48974 127.067 6.9604 127.362 7.48174C127.777 8.2124 128.055 8.99507 128.191 9.82173C128.29 10.4231 128.347 11.0324 128.293 11.6417C128.162 13.0951 127.782 14.4724 127.017 15.7297C126.917 15.8937 126.845 16.0751 126.778 16.2564C126.222 17.7617 125.633 19.2524 125.002 20.7297C124.342 22.2751 123.618 23.7897 122.845 25.2817C122.201 26.5217 121.501 27.7297 120.758 28.9151C119.975 30.1617 119.149 31.3777 118.241 32.5377C117.765 33.1457 117.265 33.7351 116.782 34.3377C116.587 34.5817 116.406 34.8351 116.222 35.0871C115.406 36.2017 114.602 37.3257 113.771 38.4297C112.986 39.4751 112.174 40.5004 111.37 41.5297C110.849 42.1977 110.323 42.8617 109.789 43.5191C109.181 44.2684 108.562 45.0097 107.945 45.7524C107.394 46.4151 106.845 47.0791 106.289 47.7364C105.858 48.2471 105.415 48.7484 104.979 49.2564C104.535 49.7751 104.093 50.2951 103.647 50.8137C103.397 51.1071 103.143 51.3991 102.889 51.6897C102.367 52.2804 101.843 52.8684 101.322 53.4577C100.663 54.2044 99.994 54.9417 99.3527 55.7031C98.6634 56.5231 97.914 57.2857 97.162 58.0471C96.378 58.8391 95.6007 59.6404 94.8527 60.4657C93.8554 61.5671 92.9207 62.7231 92.0514 63.9284C91.1194 65.2204 90.2874 66.5737 89.5327 67.9764C88.5234 69.8524 87.7074 71.8124 86.954 73.8004C86.934 73.8537 86.918 73.9151 86.922 73.9711C86.9247 74.0017 86.9767 74.0551 87.002 74.0537C87.0887 74.0444 87.1754 74.0204 87.2594 73.9951C88.0114 73.7631 88.7607 73.5257 89.514 73.2991C90.3394 73.0511 91.186 72.8937 92.0314 72.7324C92.702 72.6044 93.3794 72.5231 94.0567 72.4471C94.8834 72.3537 95.71 72.2791 96.5434 72.2804C97.0034 72.2804 97.4647 72.2897 97.926 72.2764C98.73 72.2524 99.53 72.3311 100.329 72.3911C100.918 72.4364 101.503 72.5471 102.091 72.6231C103.566 72.8124 105.009 73.1564 106.443 73.5377C106.601 73.5791 106.755 73.6364 106.914 73.6724C107.13 73.7204 107.349 73.7671 107.569 73.7951C107.922 73.8391 108.279 73.8511 108.63 73.9057C109.526 74.0457 110.406 74.2577 111.262 74.5604C112.471 74.9871 113.617 75.5484 114.711 76.2164C115.907 76.9457 117.018 77.7884 118.089 78.6884C118.886 79.3577 119.669 80.0417 120.425 80.7577C121.061 81.3604 121.717 81.9417 122.357 82.5404C122.507 82.6817 122.63 82.8524 122.759 83.0137C123.081 83.4217 123.385 83.8457 123.722 84.2404C124.254 84.8604 124.811 85.4591 125.351 86.0724C126.263 87.1097 127.197 88.1297 128.006 89.2537C128.571 90.0391 129.086 90.8537 129.441 91.7617C129.642 92.2764 129.758 92.8071 129.846 93.3537C129.957 94.0364 129.834 94.6804 129.647 95.3257C129.623 95.4111 129.587 95.4937 129.546 95.5724C129.517 95.6284 129.459 95.6551 129.397 95.6151C129.059 95.3977 128.726 95.1751 128.385 94.9644C126.545 93.8324 124.573 93.0377 122.453 92.6044C121.783 92.4671 121.11 92.3511 120.433 92.2871C119.77 92.2244 119.103 92.1751 118.433 92.1724C117.629 92.1684 116.827 92.2151 116.03 92.2897C115.338 92.3551 114.65 92.4697 113.963 92.5897C112.258 92.8871 110.61 93.3791 108.993 93.9724C107.414 94.5511 105.894 95.2644 104.422 96.0791C103.327 96.6844 102.266 97.3391 101.235 98.0431C101.101 98.1351 100.97 98.2351 100.839 98.3324C100.779 98.3777 100.787 98.4311 100.83 98.4831C100.849 98.5071 100.87 98.5284 100.89 98.5497C101.37 99.0564 101.861 99.5551 102.329 100.072C102.926 100.734 103.51 101.408 104.093 102.083C104.831 102.938 105.525 103.828 106.194 104.738C107.013 105.852 107.785 106.998 108.505 108.179C109.163 109.258 109.785 110.358 110.335 111.496C111.086 113.05 111.746 114.642 112.255 116.292C112.61 117.443 112.898 118.61 113.114 119.794C113.21 120.318 113.259 120.851 113.321 121.38C113.378 121.867 113.425 122.354 113.473 122.84C113.483 122.944 113.483 123.048 113.483 123.152C113.486 123.643 113.485 124.134 113.489 124.624C113.494 125.3 113.291 125.919 112.929 126.476C112.614 126.959 112.175 127.316 111.621 127.506C111.282 127.622 110.938 127.712 110.575 127.706C110.218 127.698 109.861 127.712 109.505 127.694C108.954 127.663 108.421 127.53 107.889 127.394C106.763 127.104 105.681 126.694 104.611 126.244C103.201 125.652 101.821 124.99 100.433 124.344C99.706 124.007 98.9674 123.688 98.214 123.412C97.1807 123.035 96.1834 122.574 95.1727 122.143C93.93 121.612 92.698 121.056 91.462 120.507C90.3074 119.996 89.1567 119.475 87.9994 118.968C86.734 118.414 85.4647 117.868 84.1967 117.32C83.2554 116.912 82.3167 116.503 81.3727 116.102C80.4567 115.714 79.5394 115.328 78.6167 114.954C76.9927 114.295 75.3674 113.636 73.7367 112.995C72.6167 112.555 71.4847 112.146 70.3594 111.722C68.5087 111.026 66.6327 110.407 64.7514 109.804C63.2234 109.316 61.6754 108.896 60.114 108.532C59.378 108.36 58.634 108.22 57.8887 108.09C56.626 107.868 55.3487 107.819 54.07 107.896C53.7194 107.918 53.3727 108.028 53.026 108.106C52.7914 108.158 52.646 108.33 52.5167 108.515C52.2847 108.843 52.058 109.174 51.826 109.502C51.0634 110.582 50.25 111.624 49.414 112.648C48.982 113.178 48.518 113.68 48.0754 114.2C47.0114 115.446 45.8594 116.606 44.6834 117.742C44.1914 118.216 43.6754 118.664 43.162 119.118C42.65 119.57 42.1407 120.026 41.61 120.456C40.9527 120.99 40.2874 121.515 39.6034 122.014C38.7514 122.635 37.8847 123.238 37.0087 123.824C36.3407 124.27 35.65 124.678 34.9674 125.099C34.674 125.28 34.3567 125.392 34.022 125.478C33.5487 125.6 33.0834 125.759 32.6234 125.926C31.9527 126.168 31.2954 126.45 30.622 126.68C30.174 126.835 29.7114 126.97 29.2447 127.04C28.7634 127.115 28.27 127.134 27.786 126.991C27.1807 126.812 26.7527 126.419 26.438 125.892C26.2247 125.534 26.0767 125.143 25.9474 124.747C25.762 124.183 25.61 123.608 25.51 123.022C25.4274 122.54 25.3634 122.055 25.31 121.568C25.2714 121.214 25.274 120.855 25.2274 120.504C25.158 119.986 25.1914 119.463 25.1354 118.948C25.0674 118.316 25.0834 117.67 24.894 117.054C24.8234 116.828 24.7407 116.603 24.63 116.395C24.434 116.024 24.1114 115.842 23.6887 115.822C23.294 115.802 22.9207 115.892 22.5567 116.024C22.01 116.22 21.49 116.478 20.986 116.767C20.1474 117.247 19.3407 117.78 18.55 118.335C18.37 118.462 18.2007 118.616 18.0647 118.788C17.154 119.943 16.2634 121.114 15.346 122.263C14.706 123.064 14.0367 123.84 13.3794 124.627C12.4247 125.767 11.4234 126.866 10.3447 127.89C9.5807 128.616 8.8007 129.328 7.95937 129.968C7.77004 130.112 7.58204 130.256 7.4007 130.41C7.2807 130.512 7.1527 130.556 6.99404 130.556C5.59537 130.551 4.19803 130.558 2.8007 130.544C2.49137 130.542 2.18204 130.478 1.8727 130.439C1.81537 130.431 1.78604 130.343 1.82737 130.298C1.91804 130.199 2.01004 130.102 2.1047 130.007C3.2687 128.836 4.43804 127.671 5.59537 126.495C6.3247 125.752 7.04337 124.999 7.75537 124.242C8.3967 123.559 9.0327 122.871 9.6527 122.17C10.7047 120.978 11.7487 119.779 12.7007 118.504C13.4847 117.456 14.2234 116.376 14.7994 115.196C15.3047 114.162 15.634 113.071 15.7927 111.928C15.866 111.399 15.918 110.868 15.978 110.339C16.0807 109.44 16.1607 108.54 16.2994 107.644C16.5167 106.234 16.8314 104.847 17.2314 103.478C17.7354 101.751 18.35 100.062 19.0287 98.3964C19.2807 97.7764 19.562 97.1697 19.8354 96.5604C20.31 95.5017 20.758 94.4351 21.1594 93.3457C21.6234 92.0897 22.018 90.8151 22.3327 89.5137C22.542 88.6497 22.7274 87.7791 22.846 86.8951C22.9234 86.3071 23.026 85.7231 23.0847 85.1324C23.142 84.5577 23.1754 83.9777 23.1874 83.4004C23.2047 82.5977 23.194 81.7937 23.19 80.9911C23.186 80.3071 23.114 79.6284 23.03 78.9511C22.9647 78.4364 22.9154 77.9191 22.834 77.4071C22.7207 76.7044 22.6007 76.0017 22.4554 75.3044C22.0367 73.2964 21.4554 71.3311 20.7807 69.3951C20.202 67.7391 19.578 66.1017 18.8954 64.4857C18.3514 63.2004 17.8114 61.9124 17.2607 60.6284C16.9034 59.7951 16.5287 58.9697 16.1674 58.1391C15.7647 57.2124 15.3674 56.2831 14.9727 55.3537C14.5607 54.3817 14.158 53.4071 13.7474 52.4351C13.678 52.2724 13.5967 52.1111 13.502 51.9604C12.8354 50.9044 12.1767 49.8444 11.4927 48.8004C10.7287 47.6311 9.94737 46.4724 9.16337 45.3164C7.98737 43.5817 6.78737 41.8631 5.62737 40.1191C4.8047 38.8817 4.00737 37.6257 3.23804 36.3551C2.47537 35.0977 1.7487 33.8164 1.1007 32.4937C0.996702 32.2804 0.920702 32.0617 0.859369 31.8284C0.760702 31.4444 0.850036 31.0924 0.946036 30.7337C1.02337 30.4417 1.17137 30.1804 1.35804 29.9484C1.6647 29.5684 1.96737 29.1831 2.35404 28.8724C2.6207 28.6591 2.85804 28.4097 3.09937 28.1671C3.2207 28.0444 3.33537 28.0257 3.49804 28.0831C3.9047 28.2271 4.3167 28.3524 4.72737 28.4831C5.27803 28.6591 5.82604 28.8497 6.3847 29.0031C6.89937 29.1431 7.42604 29.2404 7.94603 29.3604C9.51137 29.7191 11.0474 30.1697 12.5274 30.8031C13.838 31.3644 15.0247 32.1204 16.098 33.0497C16.6807 33.5551 17.218 34.1111 17.7167 34.7057C18.358 35.4711 21.0714 38.1804 21.6567 38.6391C21.89 38.8231 22.1287 39.0017 22.3474 39.2031C23.034 39.8377 23.7314 40.4604 24.358 41.1617C24.8514 41.7151 25.358 42.2644 25.9594 42.7097C26.1167 42.8257 26.278 42.9257 26.482 42.9351C26.6407 42.9417 26.7847 42.9057 26.8767 42.7737C26.9687 42.6417 27.058 42.5004 27.1127 42.3511C27.2767 41.9017 27.3234 41.4271 27.3847 40.9564C27.47 40.3084 27.4514 39.6537 27.5447 39.0044C27.6127 38.5364 27.618 38.0591 27.6594 37.5857C27.7047 37.0391 27.7594 36.4924 27.81 35.9471C27.8127 35.9177 27.8167 35.8884 27.8194 35.8577C27.854 35.2511 27.87 34.6417 27.9274 34.0364C27.9954 33.3271 27.9767 32.6124 28.078 31.9057C28.082 31.8764 28.0847 31.8457 28.086 31.8164C28.1207 31.1351 28.1407 30.4511 28.194 29.7711C28.2487 29.0764 28.2474 28.3764 28.35 27.6857C28.3527 27.6711 28.3527 27.6564 28.3527 27.6404C28.3887 27.0777 28.4167 26.5151 28.462 25.9524C28.502 25.4497 28.5607 24.9497 28.6114 24.4484C28.646 24.0937 28.678 23.7391 28.718 23.3857C28.7994 22.6937 28.8834 22.0017 28.9714 21.3111C29.0354 20.7964 29.094 20.2804 29.1794 19.7684C29.2914 19.0964 29.386 18.4204 29.618 17.7711C29.8714 17.0564 30.0074 16.3137 30.0834 15.5564C30.126 15.1257 30.1447 14.6977 30.1474 14.2671C30.1514 13.5671 30.054 12.8751 29.9407 12.1884C29.7634 11.1164 29.466 10.0737 29.1034 9.05107C28.9887 8.72841 28.8634 8.41107 28.7474 8.08974C28.5687 7.59241 28.2607 7.17374 27.942 6.76174C27.3367 5.97774 26.574 5.35907 25.8074 4.74707C25.0994 4.18173 24.3687 3.64574 23.6674 3.07241C22.9194 2.45907 22.2234 1.79107 21.6914 0.969734C21.4087 0.533734 21.4687 0.529735 21.9207 0.468402C22.522 0.385735 23.126 0.309735 23.73 0.247068C24.5474 0.163068 25.3634 0.199072 26.1794 0.184405Z" fill="#F17171"/>
</svg>
