<svg width="130" height="131" viewBox="0 0 130 131" fill="none" xmlns="http://www.w3.org/2000/svg">
<path d="M26.1755 0.482013C26.7261 0.482013 27.2768 0.459342 27.8261 0.488676C28.4021 0.518009 28.9808 0.550009 29.5541 0.636676C29.8475 0.682009 30.1421 0.708681 30.4381 0.738014C31.1755 0.812681 31.9048 0.950012 32.6355 1.07535C34.1141 1.32868 35.5661 1.69935 37.0088 2.10602C38.0955 2.41135 39.1661 2.77134 40.2235 3.17001C40.3061 3.20068 40.3875 3.23935 40.4675 3.27935C41.4115 3.75001 42.3635 4.20602 43.2968 4.69802C44.2168 5.18335 45.1088 5.72068 45.9888 6.27668C47.0955 6.97535 48.1581 7.73668 49.1888 8.54201C49.6928 8.93401 50.1621 9.36868 50.6555 9.77535C51.2768 10.2873 51.8301 10.8687 52.3955 11.438C53.3088 12.358 54.1235 13.3593 54.8768 14.4127C55.5528 15.358 56.1475 16.35 56.6661 17.39C57.3208 18.6993 57.7955 20.0713 58.1501 21.4887C58.2808 22.006 58.4128 22.5247 58.5341 23.0447C58.7355 23.9127 58.8888 24.786 58.9808 25.674C59.0901 26.7393 59.1688 27.8047 59.1301 28.8753C59.1035 29.6007 59.0768 30.3273 58.9808 31.05C58.9328 31.4167 58.9155 31.7887 58.8701 32.1567C58.8168 32.5833 58.7608 33.01 58.6848 33.4327C58.4888 34.5433 58.2915 35.654 58.0128 36.7473C57.6688 38.0993 57.3141 39.4487 56.9608 40.798C56.8555 41.2007 56.7355 41.5993 56.6235 41.9993C56.5915 42.114 56.5608 42.2287 56.5368 42.3447C56.5101 42.4673 56.5301 42.486 56.6595 42.5313C56.8621 42.6047 57.0621 42.602 57.2715 42.554C57.8221 42.4273 58.2875 42.1353 58.7288 41.8047C59.1915 41.4567 59.6341 41.082 60.0435 40.67C60.4941 40.2153 60.9555 39.7727 61.3955 39.3087C61.9608 38.7127 62.5981 38.202 63.2408 37.698C64.2915 36.8713 65.3461 36.0487 66.3981 35.2247C67.1235 34.6553 67.8528 34.094 68.5688 33.5153C69.2515 32.9647 69.9248 32.4047 70.5875 31.8313C71.1728 31.3247 71.7848 30.854 72.4101 30.402C75.1341 28.434 77.9048 26.5367 80.7261 24.714C82.1115 23.818 83.5115 22.946 84.9168 22.082C86.1688 21.31 87.4341 20.5593 88.6995 19.8087C89.3768 19.4073 90.0635 19.0207 90.7488 18.634C91.6541 18.1207 92.5621 17.6127 93.4701 17.106C93.8208 16.91 94.1741 16.7193 94.5275 16.53C95.1448 16.202 95.7608 15.8713 96.3808 15.55C97.6075 14.914 98.8355 14.2767 100.067 13.6527C101.221 13.0673 102.377 12.4873 103.542 11.9273C103.997 11.71 104.483 11.562 104.951 11.3713C106.051 10.9247 107.154 10.4807 108.249 10.0193C110.262 9.17268 112.258 8.28468 114.293 7.49268C116.163 6.76468 118.063 6.12735 120.026 5.69668C120.851 5.51535 121.681 5.35001 122.526 5.28734C123.043 5.24867 123.559 5.18867 124.075 5.13801C124.318 5.11401 124.539 5.15135 124.759 5.27668C125.305 5.58735 125.822 5.93801 126.271 6.37268C126.699 6.78734 127.063 7.25801 127.358 7.77934C127.773 8.51134 128.051 9.29267 128.187 10.1193C128.286 10.7207 128.343 11.33 128.289 11.9393C128.158 13.3927 127.778 14.77 127.013 16.0274C126.913 16.1914 126.841 16.3727 126.774 16.554C126.218 18.0593 125.629 19.55 124.998 21.0274C124.338 22.5727 123.614 24.0873 122.841 25.5793C122.197 26.8193 121.497 28.0273 120.754 29.2127C119.971 30.4593 119.145 31.6753 118.237 32.8353C117.761 33.4433 117.262 34.0327 116.778 34.6353C116.583 34.8793 116.402 35.1327 116.218 35.3847C115.402 36.4993 114.598 37.6233 113.767 38.7273C112.982 39.7727 112.17 40.798 111.366 41.8273C110.845 42.4953 110.319 43.1593 109.785 43.8167C109.177 44.566 108.557 45.3073 107.941 46.05C107.39 46.7127 106.841 47.3767 106.285 48.034C105.854 48.5447 105.411 49.046 104.975 49.554C104.531 50.0727 104.089 50.5927 103.643 51.1113C103.393 51.4047 103.139 51.6967 102.885 51.9873C102.363 52.578 101.839 53.166 101.318 53.7553C100.661 54.502 99.9901 55.2393 99.3488 56.0007C98.6595 56.8207 97.9101 57.5833 97.1581 58.3447C96.3741 59.1367 95.5968 59.938 94.8488 60.7633C93.8515 61.8647 92.9168 63.0207 92.0475 64.226C91.1155 65.518 90.2835 66.8713 89.5288 68.274C88.5195 70.15 87.7035 72.11 86.9501 74.098C86.9301 74.1513 86.9141 74.2127 86.9181 74.2687C86.9208 74.2993 86.9728 74.3527 86.9981 74.3513C87.0848 74.342 87.1715 74.318 87.2555 74.2927C88.0075 74.0607 88.7568 73.8233 89.5101 73.5967C90.3355 73.3487 91.1821 73.1913 92.0275 73.03C92.6981 72.902 93.3755 72.8207 94.0528 72.7447C94.8795 72.6513 95.7061 72.5767 96.5395 72.578C96.9995 72.578 97.4608 72.5873 97.9221 72.574C98.7261 72.55 99.5261 72.6287 100.325 72.6887C100.914 72.734 101.499 72.8447 102.087 72.9207C103.562 73.11 105.005 73.454 106.439 73.8353C106.597 73.8767 106.751 73.934 106.91 73.97C107.126 74.018 107.345 74.0647 107.565 74.0927C107.918 74.1367 108.275 74.1487 108.626 74.2033C109.522 74.3433 110.402 74.5553 111.258 74.858C112.467 75.2847 113.613 75.846 114.707 76.514C115.903 77.2433 117.014 78.086 118.085 78.986C118.882 79.6553 119.665 80.3393 120.421 81.0553C121.057 81.658 121.713 82.2393 122.353 82.838C122.503 82.9793 122.626 83.15 122.755 83.3113C123.077 83.7193 123.381 84.1433 123.718 84.538C124.25 85.158 124.807 85.7567 125.347 86.37C126.259 87.4073 127.193 88.4273 128.002 89.5513C128.567 90.3367 129.082 91.1513 129.437 92.0593C129.638 92.574 129.754 93.1047 129.842 93.6513C129.953 94.334 129.83 94.978 129.643 95.6233C129.619 95.7087 129.583 95.7913 129.542 95.87C129.513 95.926 129.455 95.9527 129.393 95.9127C129.055 95.6953 128.722 95.4727 128.381 95.262C126.541 94.13 124.569 93.3353 122.449 92.902C121.779 92.7647 121.106 92.6487 120.429 92.5847C119.766 92.522 119.099 92.4727 118.429 92.47C117.625 92.466 116.823 92.5127 116.026 92.5873C115.334 92.6527 114.646 92.7673 113.959 92.8873C112.255 93.1847 110.606 93.6767 108.989 94.27C107.41 94.8487 105.89 95.562 104.418 96.3767C103.323 96.982 102.262 97.6367 101.231 98.3407C101.095 98.4327 100.966 98.5327 100.835 98.63C100.775 98.6753 100.783 98.7287 100.826 98.7807C100.845 98.8047 100.866 98.826 100.886 98.8473C101.366 99.354 101.857 99.8527 102.325 100.37C102.922 101.031 103.506 101.706 104.089 102.381C104.827 103.235 105.521 104.126 106.19 105.035C107.009 106.15 107.782 107.295 108.501 108.477C109.158 109.555 109.781 110.655 110.331 111.794C111.082 113.347 111.742 114.939 112.251 116.59C112.606 117.741 112.894 118.907 113.11 120.091C113.206 120.615 113.255 121.149 113.317 121.678C113.374 122.165 113.421 122.651 113.469 123.138C113.479 123.242 113.479 123.346 113.479 123.45C113.482 123.941 113.481 124.431 113.485 124.922C113.49 125.598 113.287 126.217 112.925 126.774C112.61 127.257 112.171 127.614 111.617 127.803C111.278 127.919 110.934 128.01 110.571 128.003C110.214 127.995 109.857 128.01 109.501 127.991C108.95 127.961 108.417 127.827 107.885 127.691C106.759 127.402 105.677 126.991 104.607 126.542C103.197 125.95 101.817 125.287 100.429 124.642C99.7021 124.305 98.9635 123.986 98.2101 123.71C97.1768 123.333 96.1795 122.871 95.1688 122.441C93.9261 121.91 92.6941 121.354 91.4581 120.805C90.3035 120.294 89.1528 119.773 87.9955 119.266C86.7301 118.711 85.4608 118.166 84.1928 117.618C83.2515 117.21 82.3128 116.801 81.3688 116.399C80.4528 116.011 79.5355 115.626 78.6128 115.251C76.9888 114.593 75.3635 113.934 73.7328 113.293C72.6128 112.853 71.4808 112.443 70.3555 112.019C68.5048 111.323 66.6288 110.705 64.7475 110.102C63.2195 109.614 61.6715 109.194 60.1101 108.83C59.3741 108.658 58.6301 108.518 57.8848 108.387C56.6221 108.166 55.3448 108.117 54.0661 108.194C53.7155 108.215 53.3688 108.326 53.0221 108.403C52.7875 108.455 52.6421 108.627 52.5128 108.813C52.2808 109.141 52.0541 109.471 51.8221 109.799C51.0595 110.879 50.2461 111.922 49.4101 112.946C48.9781 113.475 48.5141 113.978 48.0715 114.498C47.0075 115.743 45.8555 116.903 44.6795 118.039C44.1875 118.514 43.6715 118.962 43.1581 119.415C42.6461 119.867 42.1368 120.323 41.6061 120.754C40.9488 121.287 40.2835 121.813 39.5995 122.311C38.7475 122.933 37.8808 123.535 37.0048 124.122C36.3381 124.567 35.6461 124.975 34.9635 125.397C34.6701 125.578 34.3528 125.69 34.0181 125.775C33.5448 125.898 33.0795 126.057 32.6195 126.223C31.9488 126.466 31.2915 126.747 30.6181 126.978C30.1701 127.133 29.7075 127.267 29.2408 127.338C28.7595 127.413 28.2661 127.431 27.7821 127.289C27.1768 127.11 26.7488 126.717 26.4341 126.19C26.2208 125.831 26.0728 125.441 25.9435 125.045C25.7581 124.481 25.6061 123.906 25.5048 123.319C25.4235 122.838 25.3595 122.353 25.3061 121.866C25.2675 121.511 25.2701 121.153 25.2235 120.802C25.1541 120.283 25.1875 119.761 25.1315 119.246C25.0635 118.614 25.0795 117.967 24.8901 117.351C24.8195 117.126 24.7368 116.901 24.6261 116.693C24.4301 116.322 24.1075 116.139 23.6848 116.119C23.2901 116.099 22.9168 116.19 22.5528 116.322C22.0061 116.518 21.4861 116.775 20.9821 117.065C20.1435 117.545 19.3368 118.078 18.5461 118.633C18.3661 118.759 18.1968 118.914 18.0608 119.086C17.1501 120.241 16.2595 121.411 15.3421 122.561C14.7021 123.362 14.0328 124.138 13.3755 124.925C12.4208 126.065 11.4195 127.163 10.3408 128.187C9.57679 128.914 8.7968 129.626 7.95546 130.266C7.76613 130.41 7.57813 130.554 7.3968 130.707C7.2768 130.81 7.1488 130.854 6.99013 130.854C5.59146 130.849 4.19413 130.855 2.7968 130.842C2.48746 130.839 2.17813 130.775 1.8688 130.737C1.81146 130.729 1.78213 130.641 1.82346 130.595C1.91413 130.497 2.00613 130.399 2.1008 130.305C3.2648 129.134 4.43413 127.969 5.59146 126.793C6.3208 126.05 7.03946 125.297 7.75146 124.539C8.3928 123.857 9.0288 123.169 9.64746 122.467C10.7008 121.275 11.7448 120.077 12.6968 118.802C13.4808 117.754 14.2195 116.674 14.7955 115.494C15.3008 114.459 15.6301 113.369 15.7888 112.226C15.8621 111.697 15.9141 111.166 15.9741 110.637C16.0768 109.738 16.1568 108.838 16.2955 107.942C16.5128 106.531 16.8275 105.145 17.2275 103.775C17.7315 102.049 18.3461 100.359 19.0248 98.694C19.2768 98.074 19.5581 97.4673 19.8315 96.858C20.3061 95.7993 20.7541 94.7327 21.1555 93.6433C21.6195 92.3873 22.0141 91.1127 22.3288 89.8113C22.5381 88.9473 22.7235 88.0767 22.8421 87.1927C22.9195 86.6047 23.0221 86.0207 23.0808 85.43C23.1381 84.8553 23.1715 84.2753 23.1835 83.698C23.2008 82.8953 23.1901 82.0913 23.1861 81.2887C23.1821 80.6047 23.1101 79.926 23.0261 79.2487C22.9608 78.734 22.9115 78.2167 22.8301 77.7047C22.7168 77.002 22.5968 76.2993 22.4515 75.602C22.0328 73.594 21.4515 71.6287 20.7768 69.6927C20.1981 68.0367 19.5741 66.3993 18.8915 64.7833C18.3475 63.498 17.8075 62.21 17.2568 60.926C16.8995 60.0927 16.5248 59.2673 16.1635 58.4367C15.7608 57.51 15.3635 56.5807 14.9688 55.6513C14.5568 54.6793 14.1541 53.7047 13.7435 52.7327C13.6741 52.57 13.5928 52.4087 13.4981 52.258C12.8315 51.202 12.1728 50.142 11.4888 49.098C10.7248 47.9287 9.94346 46.77 9.15946 45.614C7.98346 43.8793 6.78346 42.1607 5.62346 40.4167C4.8008 39.1793 4.00346 37.9233 3.23413 36.6527C2.47146 35.3953 1.7448 34.114 1.0968 32.7913C0.992796 32.578 0.916796 32.3593 0.855463 32.126C0.756796 31.742 0.84613 31.39 0.94213 31.0313C1.01946 30.7393 1.16746 30.478 1.35413 30.246C1.6608 29.866 1.96346 29.4807 2.35013 29.17C2.6168 28.9567 2.85413 28.7073 3.09546 28.4647C3.2168 28.342 3.33146 28.3233 3.49413 28.3807C3.9008 28.5247 4.31279 28.65 4.72346 28.7807C5.27413 28.9567 5.82213 29.1473 6.3808 29.3007C6.89546 29.4407 7.42213 29.538 7.94213 29.658C9.50746 30.0167 11.0435 30.4673 12.5235 31.1007C13.8341 31.662 15.0208 32.418 16.0941 33.3473C16.6768 33.8527 17.2141 34.4087 17.7128 35.0033C18.3541 35.7687 21.0675 38.478 21.6528 38.9367C21.8875 39.1207 22.1248 39.2993 22.3435 39.5007C23.0301 40.1353 23.7275 40.758 24.3541 41.4593C24.8475 42.0127 25.3541 42.562 25.9555 43.0073C26.1128 43.1233 26.2741 43.2233 26.4781 43.2327C26.6368 43.2393 26.7808 43.2033 26.8728 43.0713C26.9648 42.9393 27.0541 42.798 27.1088 42.6487C27.2728 42.1993 27.3195 41.7247 27.3808 41.254C27.4661 40.606 27.4475 39.9513 27.5408 39.302C27.6088 38.834 27.6141 38.3567 27.6541 37.8833C27.7008 37.3367 27.7555 36.79 27.8061 36.2447C27.8088 36.2153 27.8128 36.186 27.8155 36.1553C27.8501 35.5487 27.8661 34.9393 27.9235 34.334C27.9915 33.6247 27.9728 32.91 28.0741 32.2033C28.0781 32.174 28.0808 32.1433 28.0821 32.114C28.1168 31.4327 28.1368 30.7487 28.1901 30.0687C28.2448 29.374 28.2435 28.674 28.3461 27.9833C28.3488 27.9687 28.3488 27.954 28.3488 27.938C28.3848 27.3753 28.4128 26.8127 28.4581 26.25C28.4981 25.7473 28.5568 25.2473 28.6075 24.746C28.6421 24.3913 28.6728 24.0367 28.7141 23.6833C28.7955 22.9913 28.8795 22.2993 28.9675 21.6087C29.0315 21.094 29.0901 20.578 29.1755 20.066C29.2875 19.394 29.3821 18.718 29.6141 18.0687C29.8675 17.354 30.0035 16.6113 30.0795 15.854C30.1221 15.4233 30.1408 14.9954 30.1435 14.5647C30.1475 13.8647 30.0501 13.1727 29.9368 12.486C29.7595 11.414 29.4621 10.3713 29.0995 9.34868C28.9848 9.02601 28.8595 8.70868 28.7435 8.38735C28.5648 7.89001 28.2568 7.47134 27.9381 7.05934C27.3328 6.27534 26.5701 5.65668 25.8035 5.04468C25.0955 4.47934 24.3648 3.94335 23.6635 3.37001C22.9155 2.75668 22.2195 2.08867 21.6875 1.26734C21.4048 0.831342 21.4648 0.827342 21.9168 0.766009C22.5181 0.683342 23.1221 0.607342 23.7261 0.544675C24.5435 0.460675 25.3595 0.496679 26.1755 0.482013Z" fill="#F17171"/>
</svg>
