<svg width="131" height="132" viewBox="0 0 131 132" fill="none" xmlns="http://www.w3.org/2000/svg">
<path d="M0.578846 45.7458C0.578846 43.6658 0.578846 41.5871 0.578846 39.5071C0.58018 38.8698 0.629513 38.8418 1.21085 38.5711C2.15218 38.1338 3.08018 37.6711 4.00418 37.1978C4.92818 36.7245 5.83885 36.2245 6.75751 35.7405C8.14551 35.0098 9.49751 34.2205 10.7628 33.2925C12.0988 32.3125 13.4388 31.3392 14.7548 30.3338C15.7135 29.6005 16.5575 28.7365 17.3642 27.8391C17.9282 27.2125 18.4855 26.5805 19.0308 25.9391C19.5188 25.3658 19.9975 24.7845 20.4575 24.1898C20.8015 23.7458 20.9282 23.2538 20.8415 22.6672C20.5922 20.9725 20.4015 19.2685 20.1748 17.5685C20.1042 17.0338 19.9802 16.5058 19.9042 15.9725C19.8562 15.6311 19.8535 15.2845 19.8268 14.9405C19.8002 14.5805 19.7335 14.2205 19.7468 13.8618C19.7908 12.5858 19.8655 11.3191 20.1842 10.0645C20.5402 8.65915 20.8962 7.25781 21.4522 5.92048C22.0388 4.50714 22.7882 3.18581 23.9415 2.13915C24.0962 1.99781 24.2655 1.86981 24.4228 1.72981C24.5495 1.61781 24.5735 1.50848 24.3935 1.41648C24.3002 1.36981 24.1855 1.33114 24.1282 1.25381C24.0655 1.16714 24.0082 1.02314 24.0402 0.937811C24.0682 0.863145 24.2295 0.78715 24.3215 0.797817C24.6642 0.837817 25.0055 0.907145 25.3442 0.975145C25.4668 1.00048 25.5535 1.06048 25.3922 1.16715C25.4402 1.22982 25.4735 1.32048 25.5362 1.34981C26.4228 1.76581 27.0895 2.44448 27.6468 3.21648C28.1842 3.95914 28.6375 4.75782 28.9535 5.63115C29.3482 6.72315 29.6695 7.83115 29.9122 8.96981C30.0148 9.44981 30.1455 9.92048 30.0135 10.3831C29.8588 10.9285 29.8628 11.4831 29.7802 12.0311C29.6415 12.9525 29.5748 13.8871 29.4068 14.8018C29.2255 15.7925 29.0402 16.7952 28.7148 17.7432C28.2815 19.0098 27.7335 20.2378 27.1962 21.4658C26.5882 22.8618 25.9988 24.2631 25.5455 25.7178C25.1282 27.0551 24.9802 28.4338 25.0882 29.8245C25.1988 31.2591 25.6668 32.6005 26.4375 33.8111C27.0348 34.7498 27.7055 35.6418 28.3615 36.5431C28.7775 37.1151 29.2082 37.6765 29.6615 38.2205C30.2388 38.9138 30.8295 39.5992 31.4428 40.2605C32.1788 41.0538 32.9242 41.8431 33.7068 42.5898C34.3815 43.2338 35.1055 43.8271 35.8228 44.4231C36.4948 44.9805 37.1775 45.5245 37.8735 46.0498C38.2455 46.3298 38.6508 46.5645 39.0482 46.8098C39.2655 46.9458 39.5015 47.0471 39.5602 47.3405C39.5908 47.4885 39.7242 47.5245 39.8468 47.4711C40.5655 47.1631 41.3175 46.9111 41.9895 46.5205C43.3335 45.7391 44.5148 44.7205 45.6975 43.7205C46.3375 43.1778 46.8882 42.5285 47.4695 41.9178C47.8122 41.5591 48.1362 41.1818 48.4708 40.8152C48.8655 40.3805 49.2762 39.9591 49.6548 39.5111C49.9548 39.1578 50.2748 38.8045 50.3455 38.3152C50.3615 38.1992 50.3762 38.0751 50.3575 37.9591C50.1042 36.3698 49.8535 34.7805 49.5842 33.1938C49.4802 32.5858 49.3295 31.9858 49.2082 31.3805C49.0948 30.8178 49.0242 30.2498 49.1428 29.6805C49.2588 29.1245 49.2215 28.5765 49.1375 28.0218C48.9588 26.8312 48.7895 25.6405 48.6348 24.4472C48.5682 23.9258 48.5442 23.3991 48.5015 22.8751C48.4788 22.5898 48.4575 22.3058 48.4348 22.0218C48.4268 21.9165 48.4095 21.8098 48.4162 21.7058C48.4668 21.0325 48.5095 20.3578 48.5788 19.6858C48.8242 17.2858 49.3682 14.9365 49.7908 12.5658C49.9575 11.6325 50.2015 10.7085 50.5935 9.84048C50.9268 9.09915 51.2815 8.35915 51.8548 7.76581C52.1122 7.50048 52.4215 7.27782 52.7322 7.07249C52.8402 7.00049 53.0255 7.00581 53.1668 7.02981C54.0482 7.17915 54.8282 7.53115 55.4882 8.15248C55.9922 8.62715 56.5122 9.08848 57.0588 9.51115C58.6828 10.7685 59.7615 12.3952 60.4468 14.3138C60.7722 15.2232 61.0668 16.1378 61.1895 17.0991C61.2068 17.2338 61.2335 17.3672 61.2402 17.5018C61.2762 18.1472 61.3028 18.7925 61.3402 19.4378C61.3615 19.7978 61.4188 20.1565 61.4242 20.5165C61.4415 21.4631 61.3162 22.4031 61.2722 23.3458C61.2215 24.3925 61.0055 25.4018 60.7975 26.4165C60.3308 28.6858 59.8775 30.9605 59.3602 33.2191C58.8362 35.5085 58.2428 37.7831 57.6788 40.0645C57.6575 40.1525 57.6442 40.2418 57.6122 40.3271C57.4775 40.6991 57.5548 41.0378 57.7615 41.3591C57.9655 41.6765 58.1735 41.9898 58.3735 42.3085C58.4602 42.4485 58.5428 42.5938 58.6028 42.7458C58.7228 43.0485 58.7375 43.0751 59.0535 42.9698C60.3415 42.5431 61.6002 42.0485 62.7962 41.3965C64.3028 40.5738 65.6242 39.5045 66.8708 38.3445C67.5628 37.7018 68.1482 36.9458 68.7922 36.2511C69.1682 35.8445 69.4735 35.3978 69.5775 34.8512C69.7108 34.1498 69.7762 33.4285 69.4268 32.7738C68.8108 31.6138 68.6615 30.3458 68.4802 29.0791C68.2468 27.4405 68.0362 25.7978 67.7522 24.1685C67.5722 23.1325 67.2748 22.1165 67.0322 21.0898C66.8548 20.3405 66.7455 19.5845 66.7642 18.8098C66.7802 18.1471 66.7855 17.4831 66.7628 16.8205C66.7135 15.3338 66.9348 13.8805 67.2588 12.4365C67.6002 10.9178 68.0135 9.41914 68.6842 8.01514C69.5215 6.26581 70.6055 4.70448 72.3482 3.71914C72.5748 3.58981 72.7122 3.43781 72.7362 3.16048C72.7602 2.87114 72.8268 2.83781 73.1268 2.90581C73.8455 3.06981 74.4695 3.43381 75.0575 3.86315C76.0535 4.58981 76.7548 5.56182 77.3308 6.63382C78.2335 8.31115 78.7615 10.1165 79.0508 11.9858C79.2268 13.1285 79.3215 14.2845 79.4228 15.4378C79.5055 16.3805 79.6002 17.3271 79.5882 18.2711C79.5748 19.2458 79.4602 20.2205 79.3562 21.1911C79.0788 23.7698 78.4428 26.2871 78.0148 28.8391C77.8242 29.9805 77.6948 31.1325 77.5095 32.2751C77.3242 33.4098 77.4428 34.5271 77.6388 35.6405C77.7522 36.2831 77.9895 36.8871 78.3162 37.4525C78.5562 37.8698 78.7762 38.3031 79.0575 38.6911C79.3668 39.1151 79.7055 39.5258 80.0855 39.8871C80.6495 40.4245 81.0802 41.0565 81.5028 41.6965C82.0842 42.5791 82.7388 43.4005 83.4455 44.1872C83.6988 44.4698 83.8708 44.8432 84.0135 45.2032C84.2802 45.8792 84.5935 46.5272 85.0068 47.1245C85.2428 47.4632 85.3842 47.8325 85.4948 48.2311C85.8308 49.4445 86.4962 50.4031 87.6695 50.9698C88.0482 51.1525 88.3642 51.1098 88.6895 50.9098C89.2655 50.5551 89.8508 50.2138 90.4015 49.8231C91.0375 49.3725 91.6535 48.8898 92.2522 48.3925C92.4668 48.2138 92.5935 47.9352 92.7855 47.7258C92.9975 47.4952 93.2135 47.2551 93.4695 47.0805C94.6868 46.2471 95.9255 45.4471 97.1375 44.6058C97.5282 44.3351 97.8602 43.9765 98.2188 43.6578C98.8695 43.0765 99.5642 42.5365 100.159 41.9031C100.866 41.1498 101.483 40.3112 102.15 39.5178C102.292 39.3485 102.466 39.1965 102.648 39.0698C103.328 38.5978 104.035 38.1618 104.702 37.6725C105.952 36.7565 107.198 35.8311 108.412 34.8685C109.059 34.3578 109.646 33.7671 110.246 33.1991C111.639 31.8805 112.754 30.3165 114.019 28.8858C114.415 28.4391 114.568 27.9231 114.494 27.3391C114.336 26.0858 114.184 24.8325 114.004 23.5818C113.836 22.4231 113.62 21.2725 113.454 20.1138C113.378 19.5938 113.364 19.0658 113.335 18.5405C113.299 17.8645 113.226 17.1858 113.254 16.5125C113.311 15.0858 113.375 13.6512 113.711 12.2578C113.995 11.0725 114.372 9.91114 114.691 8.73514C114.998 7.60048 115.575 6.59381 116.176 5.60448C116.599 4.90981 117.152 4.30715 117.766 3.76581C117.979 3.57648 118.198 3.40315 118.235 3.07782C118.262 2.85648 118.4 2.79514 118.644 2.90581C119.027 3.07914 119.41 3.26581 119.759 3.49514C120.49 3.97381 121.04 4.62714 121.502 5.36448C122.582 7.08714 123.211 8.96715 123.575 10.9618C123.695 11.6192 123.742 12.2778 123.782 12.9311C123.822 13.5818 123.684 14.2445 123.615 14.9005C123.576 15.2738 123.519 15.6445 123.472 16.0165C123.35 17.0018 123.214 17.9845 123.107 18.9711C122.96 20.3298 122.612 21.6351 122.102 22.8978C121.294 24.8938 120.472 26.8845 119.659 28.8791C119.307 29.7431 118.99 30.6098 118.843 31.5458C118.703 32.4445 118.698 33.3351 118.699 34.2351C118.7 35.1858 118.891 36.0978 119.28 36.9445C119.631 37.7072 120.055 38.4471 120.535 39.1351C121.371 40.3325 122.266 41.4872 123.151 42.6485C124.387 44.2685 125.811 45.7191 127.278 47.1258C128.048 47.8645 128.875 48.5458 129.686 49.2418C129.858 49.3885 129.968 49.5378 129.98 49.7698C129.991 49.9951 130.058 50.2178 130.052 50.4418C130.034 51.2045 130.187 51.9392 130.407 52.6618C130.532 53.0685 130.608 53.4778 130.595 53.9058C130.583 54.3418 130.603 54.7805 130.59 55.2165C130.571 55.9085 130.54 56.5992 130.507 57.2912C130.492 57.5965 130.404 57.6498 130.147 57.4885C129.206 56.8951 128.264 56.2978 127.335 55.6845C126.972 55.4445 126.627 55.1725 126.299 54.8858C125.646 54.3165 125.092 53.6631 124.763 52.8498C124.467 52.1231 123.979 51.5751 123.307 51.1791C122.643 50.7871 121.968 50.4111 121.198 50.2885C120.91 50.2431 120.598 50.2752 120.311 50.3365C119.959 50.4098 119.738 50.6671 119.676 51.0258C119.644 51.2111 119.538 51.3458 119.459 51.5018C119.286 51.8458 119.163 52.2205 119.056 52.5925C118.679 53.9191 118.306 55.2485 117.954 56.5818C117.75 57.3538 117.555 58.1298 117.411 58.9138C117.095 60.6298 116.799 62.3498 116.524 64.0738C116.412 64.7698 116.374 65.4778 116.312 66.1818C116.222 67.2298 116.14 68.2778 116.055 69.3258C116.052 69.3565 116.048 69.3858 116.048 69.4165C116.016 70.3938 116.006 71.3725 115.948 72.3472C115.826 74.3938 115.858 76.4418 115.87 78.4898C115.875 79.2098 115.968 79.9285 116.023 80.6471C116.056 81.0818 116.108 81.5152 116.124 81.9498C116.171 83.2005 116.383 84.4311 116.556 85.6671C116.62 86.1271 116.644 86.5952 116.675 87.0592C116.735 87.9898 116.788 88.9205 116.843 89.8498C116.879 90.4511 116.915 91.0511 116.946 91.6511C116.982 92.3431 116.991 93.0352 117.047 93.7245C117.176 95.3138 117.367 96.8965 117.719 98.4565C117.904 99.2765 118.086 100.1 118.238 100.927C118.322 101.384 118.339 101.852 118.387 102.316C118.447 102.914 118.488 103.515 118.574 104.11C118.698 104.971 118.786 105.843 119.078 106.671C119.43 107.664 119.791 108.654 120.164 109.638C120.318 110.046 120.51 110.439 120.687 110.838C120.892 111.296 120.794 111.695 120.376 111.98C119.838 112.35 119.232 112.442 118.604 112.3C118.239 112.219 117.88 112.09 117.535 111.946C116.535 111.527 115.54 111.095 114.55 110.658C114.15 110.482 113.762 110.284 113.372 110.087C112.936 109.864 112.484 109.707 111.988 109.73C111.292 109.763 110.99 109.326 110.978 108.73C110.97 108.294 110.984 107.856 110.972 107.419C110.947 106.472 110.923 105.524 110.876 104.578C110.832 103.707 110.783 102.836 110.695 101.97C110.49 99.9791 110.288 97.9898 109.8 96.0405C109.636 95.3845 109.578 94.7178 109.672 94.0271C109.734 93.5751 109.659 93.0965 109.59 92.6378C109.351 91.0458 109.082 89.4578 108.839 87.8672C108.794 87.5712 108.815 87.2658 108.804 86.9658C108.802 86.8445 108.806 86.7231 108.788 86.6045C108.78 86.5538 108.731 86.4712 108.695 86.4685C108.631 86.4618 108.538 86.4872 108.502 86.5338C108.339 86.7485 108.179 86.9698 108.04 87.2018C107.378 88.3165 106.764 89.4605 106.363 90.6965C106.098 91.5098 105.924 92.3551 105.736 93.1911C105.122 95.9218 104.532 98.6591 103.907 101.387C103.294 104.059 102.648 106.723 102.015 109.39C101.98 109.536 101.95 109.684 101.9 109.827C101.727 110.326 101.322 110.47 100.859 110.216C100.583 110.066 100.303 109.919 100.014 109.799C99.8655 109.736 99.6895 109.716 99.5282 109.72C99.4255 109.722 99.3215 109.795 99.2255 109.851C99.0868 109.931 98.9655 110.068 98.8188 110.103C98.3802 110.208 97.9348 110.298 97.4882 110.35C96.9882 110.41 96.8682 110.287 96.8735 109.78C96.8762 109.542 96.8962 109.296 96.9508 109.066C97.5162 106.66 98.1002 104.26 98.6588 101.855C99.0442 100.198 99.3988 98.5325 99.7655 96.8712C100.22 94.8125 100.67 92.7525 101.127 90.6952C101.495 89.0352 101.884 87.3805 102.236 85.7165C102.674 83.6405 103.108 81.5632 103.494 79.4778C103.858 77.5098 104.167 75.5325 104.48 73.5551C104.698 72.1885 104.892 70.8178 105.076 69.4458C105.254 68.1205 105.403 66.7898 105.566 65.4618C105.707 64.3125 105.86 63.1658 105.988 62.0151C106.102 60.9991 106.186 59.9805 106.284 58.9631C106.366 58.1111 106.456 57.2591 106.532 56.4058C106.579 55.8818 106.598 55.3565 106.646 54.8325C106.707 54.1445 106.786 53.4578 106.858 52.7711C106.866 52.6965 106.894 52.6231 106.895 52.5485C106.918 51.2711 107.103 49.9952 106.944 48.7165C106.923 48.5472 107.062 48.3365 106.862 48.2138C106.652 48.0858 106.455 48.2311 106.259 48.2951C105.672 48.4858 105.09 48.6898 104.5 48.8711C103.54 49.1658 102.696 49.7005 101.82 50.1631C101.075 50.5565 100.342 50.9765 99.6295 51.4285C98.9068 51.8885 98.2015 52.3805 97.5162 52.8951C96.8562 53.3925 96.2282 53.9338 95.5948 54.4645C95.3295 54.6858 95.1108 54.9405 94.9495 55.2632C94.3775 56.4125 93.7202 57.5152 92.7895 58.4125C91.9308 59.2405 90.9615 59.9285 89.8868 60.4645C89.4708 60.6711 89.0868 60.9431 88.6748 61.1605C88.3695 61.3205 88.0455 61.4471 87.7242 61.5738C87.5575 61.6391 87.4148 61.5858 87.3948 61.3885C87.3708 61.1658 87.2215 61.0591 87.0695 60.9285C86.7388 60.6471 86.4202 60.3498 86.1095 60.0445C85.6362 59.5805 85.1828 59.0938 84.7015 58.6391C84.5068 58.4565 84.2642 58.3205 84.0322 58.1818C83.3188 57.7565 82.7322 57.2231 82.3855 56.4431C81.9175 55.3871 81.2282 54.4711 80.4815 53.6005C80.0895 53.1431 79.9082 53.1831 79.6615 53.7431C79.2388 54.7031 79.0122 55.7151 78.8842 56.7498C78.6388 58.7285 78.6655 60.7178 78.7055 62.7045C78.8882 71.5631 78.7428 80.4218 78.7828 89.2805C78.7868 90.1285 78.8842 90.9618 79.0135 91.7938C79.1468 92.6565 79.3295 93.5112 79.4655 94.3725C79.5388 94.8325 79.5628 95.2991 79.6015 95.7631C79.6602 96.4525 79.7055 97.1418 79.7655 97.8298C79.8242 98.5191 79.8855 99.2071 79.9642 99.8938C80.0868 100.983 80.2282 102.07 80.3548 103.159C80.4402 103.891 80.5108 104.623 80.5908 105.355C80.6842 106.207 80.7722 107.06 80.8748 107.911C80.9788 108.776 81.0962 109.64 81.2082 110.504C81.4668 112.508 81.8322 114.492 82.3668 116.44C83.0802 119.039 83.8335 121.628 84.5748 124.22C84.7455 124.816 84.8468 125.416 84.8602 126.042C84.8695 126.534 84.9482 127.032 85.0682 127.51C85.3108 128.462 85.5282 129.411 85.4828 130.403C85.4588 130.914 85.3468 131.048 84.8428 131.066C84.6028 131.075 84.3588 131.078 84.1202 131.054C83.9975 131.04 83.8735 130.974 83.7655 130.907C83.5508 130.776 83.3642 130.588 83.1362 130.494C81.6655 129.879 80.5175 128.922 79.7868 127.48C79.4948 126.903 79.1415 126.358 78.8162 125.798C78.1762 124.698 77.6935 123.527 77.3428 122.31C77.1442 121.618 77.0468 120.896 76.9042 120.187C76.6682 119.022 76.3855 117.871 75.9802 116.747C75.5935 115.671 75.3135 114.556 74.9628 113.467C74.3895 111.69 73.8082 109.915 73.2095 108.146C72.4642 105.947 71.8362 103.718 71.3588 101.443C71.0522 99.9858 70.6442 98.5511 70.2935 97.1018C70.1442 96.4898 70.0322 95.8685 69.8908 95.2538C69.7175 94.4911 69.5402 93.7298 69.3402 92.9738C69.2988 92.8165 69.1548 92.6858 69.0575 92.5431C68.9482 92.6765 68.8082 92.7965 68.7335 92.9472C68.5628 93.2992 68.4295 93.6685 68.2722 94.0271C67.5415 95.7005 66.9442 97.4152 66.4508 99.1765C65.5895 102.255 64.9735 105.387 64.3548 108.519C63.7508 111.576 63.1842 114.64 62.6002 117.702C62.4868 118.295 62.3268 118.868 62.0202 119.403C61.7935 119.798 61.7002 120.244 61.7002 120.706C61.7002 122.363 61.6922 124.022 61.7042 125.679C61.7095 126.324 61.7615 126.971 61.7882 127.616C61.7935 127.752 61.7922 127.89 61.7708 128.023C61.7148 128.378 61.5322 128.583 61.1802 128.599C60.5935 128.626 60.0042 128.631 59.4175 128.6C58.9802 128.576 58.7348 128.342 58.6495 127.898C58.5068 127.159 58.3708 126.418 58.2708 125.672C58.1122 124.494 58.0602 123.307 58.0722 122.116C58.0842 121.026 58.2122 119.954 58.4802 118.9C58.7402 117.876 58.9015 116.84 58.9962 115.787C59.0882 114.755 59.2415 113.727 59.3775 112.699C59.5122 111.686 59.6522 110.672 59.8002 109.66C60.0215 108.142 60.2308 106.622 60.4815 105.108C61.0762 101.511 61.9068 97.9631 62.7242 94.4111C62.9242 93.5458 63.1188 92.6792 63.3335 91.8165C64.4015 87.5205 65.4922 83.2285 66.5442 78.9285C67.0775 76.7485 67.5482 74.5538 68.0415 72.3645C68.3495 70.9992 68.6068 69.6191 68.9642 68.2658C69.3402 66.8365 69.6175 65.3898 69.8588 63.9351C69.9522 63.3738 69.9748 62.8018 70.0188 62.2338C70.0828 61.4098 70.1588 60.5858 70.1882 59.7605C70.2255 58.7231 70.2762 57.6831 69.9442 56.6698C69.8202 56.2898 69.5642 56.0298 69.2695 55.7898C68.7828 55.3938 68.1815 55.2898 67.6028 55.1271C67.4442 55.0831 67.2788 55.0551 67.1148 55.0338C66.7202 54.9805 66.3175 54.8632 65.9695 55.1992C65.8922 55.2752 65.7455 55.2791 65.6308 55.3178C64.3602 55.7391 63.0895 56.1632 61.8162 56.5792C61.3268 56.7392 60.8282 56.8498 60.3082 56.8258C59.9735 56.8111 59.6615 56.8885 59.3375 56.9818C58.8495 57.1218 58.3348 57.1698 57.8335 57.2658C57.2002 57.3885 56.5642 57.5045 55.9362 57.6525C55.4082 57.7778 54.8948 57.9565 54.3708 58.0911C53.2415 58.3818 52.7228 58.9338 52.4868 60.2431C52.3442 61.0271 52.2455 61.8191 52.1402 62.6085C52.0855 63.0258 52.0415 63.4458 52.0242 63.8658C51.9815 64.8725 51.9375 65.8805 51.9322 66.8885C51.9268 67.7378 51.8335 68.5671 51.6162 69.3885C51.3722 70.3151 51.3175 71.2552 51.4468 72.2098C51.5135 72.7005 51.5042 73.2005 51.5615 73.6925C51.6535 74.4845 51.7802 75.2725 51.8748 76.0631C51.9375 76.5858 51.9802 77.1112 52.0148 77.6352C52.0788 78.6258 52.1295 79.6165 52.1868 80.6058C52.2188 81.1765 52.2495 81.7472 52.2868 82.3178C52.3508 83.2765 52.3908 84.2391 52.4948 85.1951C52.6255 86.3911 52.8215 87.5778 53.1015 88.7525C53.2682 89.4525 53.3455 90.1738 53.4562 90.8858C53.5975 91.7925 53.7362 92.6991 53.8668 93.6085C53.9015 93.8458 53.9188 94.0871 53.9215 94.3271C53.9282 95.0805 53.9188 95.8338 53.9242 96.5885C53.9348 97.8791 54.1322 99.1378 54.6362 100.334C54.7735 100.66 54.8295 100.988 54.8322 101.343C54.8548 104.732 54.8908 108.12 54.9175 111.51C54.9255 112.55 54.9308 113.59 54.9148 114.628C54.8975 115.802 54.8682 116.976 54.8202 118.148C54.7775 119.215 54.7148 120.28 54.6402 121.346C54.5682 122.395 54.4655 123.442 54.3868 124.491C54.3415 125.106 54.3282 125.722 54.2815 126.336C54.2348 126.951 54.2068 127.57 54.0935 128.172C53.9375 129 53.2228 129.392 52.4282 129.135C52.3068 129.096 52.1962 128.995 52.1068 128.9C51.9148 128.695 51.6842 128.574 51.4188 128.491C50.6562 128.256 49.9082 127.968 49.1348 127.776C48.2455 127.556 47.6988 127.051 47.5402 126.15C47.4522 125.648 47.3442 125.14 47.3362 124.635C47.3108 122.887 47.2508 121.135 47.3428 119.391C47.4508 117.327 47.3908 115.266 47.4122 113.203C47.4335 111.139 47.4215 109.074 47.4055 107.01C47.4042 106.699 47.3388 106.376 47.2348 106.083C46.8535 105 46.7428 103.9 46.7975 102.751C46.8442 101.75 46.7882 100.738 46.6335 99.7365C46.4575 98.5925 46.2988 97.4445 46.1562 96.2965C46.0922 95.7751 46.0842 95.2458 46.0522 94.7218C46.0495 94.6911 46.0588 94.6578 46.0482 94.6312C46.0002 94.5178 45.9455 94.4058 45.8948 94.2925C45.8295 94.3858 45.7375 94.4698 45.7028 94.5738C45.4788 95.2445 45.2628 95.9192 45.0495 96.5952C44.4642 98.4485 43.9135 100.311 43.4788 102.207C43.2295 103.292 42.9935 104.382 42.7535 105.47C42.3962 107.086 42.0322 108.699 41.6882 110.318C41.5348 111.039 41.4362 111.771 41.2908 112.494C41.1362 113.26 40.9495 114.02 40.7882 114.786C40.4615 116.332 40.1442 117.882 39.8188 119.43C39.6855 120.062 39.5388 120.676 39.1562 121.235C38.8642 121.663 38.7042 122.179 38.7295 122.732C38.7708 123.663 38.7882 124.596 38.8148 125.528C38.8175 125.648 38.8188 125.77 38.8095 125.89C38.7868 126.199 38.6548 126.383 38.3562 126.42C37.9428 126.472 37.5468 126.499 37.1628 126.191C36.8055 125.904 36.3615 125.716 35.9415 125.518C35.3428 125.236 34.7362 124.972 34.1228 124.724C33.5015 124.474 32.8415 124.4 32.1762 124.372C32.0562 124.368 31.9335 124.375 31.8148 124.362C31.2388 124.298 30.9642 123.971 31.0775 123.403C31.1788 122.89 31.3602 122.391 31.4828 121.88C31.7562 120.738 32.0135 119.591 32.2788 118.447C32.7188 116.556 33.1655 114.668 33.5975 112.775C34.0362 110.852 34.4922 108.932 34.8802 106.999C35.3575 104.623 35.7735 102.235 36.2162 99.8525C36.4508 98.5952 36.6988 97.3405 36.9228 96.0818C37.1468 94.8165 37.3455 93.5471 37.5602 92.2818C37.7708 91.0498 37.9455 89.8098 38.2108 88.5911C38.7148 86.2805 39.0482 83.9445 39.3695 81.6058C39.6242 79.7432 39.8482 77.8765 40.0948 76.0138C40.3508 74.0912 40.6228 72.1698 40.8802 70.2471C41.0708 68.8165 41.2522 67.3845 41.4348 65.9538C41.4535 65.8045 41.4482 65.6525 41.4482 65.5018C41.4495 64.6431 41.4602 63.7831 41.4468 62.9245C41.4255 61.6458 41.4335 60.3631 41.3402 59.0898C41.2722 58.1471 41.3188 57.1912 41.0708 56.2645C40.9175 55.6885 40.7202 55.1392 40.2775 54.7178C40.1482 54.5952 39.9935 54.4951 39.8375 54.4098C39.7695 54.3725 39.6402 54.3605 39.5882 54.4018C39.1962 54.7058 38.8255 54.5751 38.4535 54.3725C37.9255 54.0845 37.3895 53.8085 36.8735 53.4978C35.7122 52.7991 34.5455 52.1085 33.4148 51.3645C32.5615 50.8032 31.7388 50.1885 30.9455 49.5458C30.5908 49.2591 30.2922 48.8751 30.0522 48.4831C29.6975 47.9071 29.2108 47.6045 28.5588 47.5125C27.9922 47.4312 27.4242 47.3551 26.8655 47.2365C26.4415 47.1485 26.0242 47.0178 25.6175 46.8685C25.2428 46.7298 25.1055 46.7685 24.9842 47.1631C24.8575 47.5818 24.7562 48.0071 24.6282 48.4245C24.4615 48.9711 24.2455 49.5045 24.1082 50.0565C23.7562 51.4725 23.4695 52.9058 23.0948 54.3151C22.6855 55.8618 22.4482 57.4378 22.2188 59.0138C22.0682 60.0538 22.0028 61.1071 21.9148 62.1551C21.8188 63.3085 21.7402 64.4632 21.6535 65.6165C21.6522 65.6472 21.6482 65.6765 21.6482 65.7071C21.6162 66.7138 21.5788 67.7218 21.5548 68.7285C21.5188 70.2338 21.4708 71.7378 21.4722 73.2431C21.4722 73.9925 21.5682 74.7418 21.6242 75.4911C21.6548 75.8951 21.7095 76.2991 21.7255 76.7031C21.7895 78.3445 22.0415 79.9645 22.2575 81.5898C22.3202 82.0658 22.3348 82.5485 22.3588 83.0285C22.3975 83.8245 22.4162 84.6218 22.4602 85.4178C22.5028 86.1818 22.5682 86.9458 22.6202 87.7098C22.6602 88.2952 22.6815 88.8818 22.7308 89.4658C22.7868 90.1245 22.8255 90.7872 22.9402 91.4378C23.1228 92.4738 23.3762 93.4965 23.5708 94.5311C23.6868 95.1471 23.7375 95.7751 23.8335 96.3951C23.9375 97.0765 23.9722 97.7605 24.0108 98.4472C24.0828 99.7445 24.4495 100.99 24.8255 102.224C25.2228 103.536 25.6708 104.834 26.2588 106.075C26.6202 106.838 26.3615 107.304 25.5548 107.604C25.0348 107.799 24.4868 107.812 23.9588 107.616C23.2815 107.366 22.6055 107.108 21.9442 106.816C20.9122 106.36 19.9042 105.852 18.8655 105.41C18.4868 105.248 18.0588 105.166 17.6455 105.13C16.9588 105.071 16.7628 104.939 16.6602 104.268C16.6175 103.987 16.5948 103.702 16.5868 103.416C16.5748 102.98 16.5788 102.543 16.5842 102.106C16.5988 100.991 16.5215 99.8818 16.4162 98.7725C16.3628 98.2045 16.3575 97.6311 16.3082 97.0631C16.2482 96.3738 16.1962 95.6818 16.0815 95.0018C15.8588 93.6818 15.5935 92.3685 15.3508 91.0511C15.3215 90.8898 15.3028 90.7218 15.3122 90.5578C15.4228 88.6298 15.0682 86.7498 14.7295 84.8685C14.6202 84.2618 14.5402 83.6485 14.4575 83.0378C14.4415 82.9218 14.4722 82.7992 14.4735 82.6805C14.4775 82.4552 14.4842 82.2285 14.4708 82.0045C14.4682 81.9392 14.4028 81.8231 14.3682 81.8245C14.2908 81.8271 14.1828 81.8671 14.1442 81.9271C13.8362 82.4098 13.5282 82.8925 13.2455 83.3885C12.6295 84.4658 12.2188 85.6285 11.8068 86.7965C11.4228 87.8845 11.3175 89.0258 11.0615 90.1365C10.8615 91.0018 10.7122 91.8791 10.5135 92.7445C10.1788 94.1965 9.81885 95.6418 9.47751 97.0911C8.88551 99.6125 8.30018 102.136 7.70951 104.659C7.66551 104.848 7.59751 105.034 7.54151 105.22C7.37618 105.78 6.92951 105.831 6.50551 105.611C6.45218 105.583 6.40951 105.536 6.35485 105.512C6.08151 105.391 5.80951 105.266 5.52951 105.16C5.32285 105.082 5.15351 105.119 5.05885 105.362C5.02685 105.444 4.92018 105.535 4.83218 105.554C4.46551 105.632 4.09618 105.715 3.72285 105.74C3.38018 105.764 3.21218 105.6 3.20951 105.256C3.20818 104.988 3.25751 104.716 3.31885 104.455C4.00551 101.507 4.70018 98.5605 5.38951 95.6125C5.59885 94.7178 5.79351 93.8205 6.00018 92.9258C6.38951 91.2231 6.78685 89.5232 7.17351 87.8205C7.25218 87.4698 7.28818 87.1072 7.36418 86.7552C7.44818 86.3578 7.56685 85.9685 7.64951 85.5725C8.32551 82.3751 9.02151 79.1832 9.65751 75.9778C10.0562 73.9712 10.3735 71.9471 10.7028 69.9271C10.9575 68.3538 11.1788 66.7738 11.4068 65.1951C11.5135 64.4511 11.5962 63.7032 11.6988 62.9578C11.8282 62.0218 11.9828 61.0871 12.0988 60.1485C12.1868 59.4365 12.2215 58.7191 12.2962 58.0058C12.3348 57.6231 12.4215 57.2471 12.4588 56.8645C12.4962 56.5071 12.4842 56.1458 12.5162 55.7871C12.5895 54.9645 12.6762 54.1431 12.7575 53.3205C12.7935 52.9458 12.8362 52.5725 12.8642 52.1978C12.9042 51.6592 12.9188 51.1165 12.9708 50.5778C13.0295 49.9672 13.1188 49.3578 13.1895 48.7471C13.2922 47.8525 13.4548 46.9605 13.4082 46.0525C13.3855 45.6058 13.2695 45.5258 12.8415 45.6391C11.7468 45.9298 10.6722 46.2805 9.65751 46.7831C8.82151 47.1965 7.99485 47.6351 7.19485 48.1138C6.24018 48.6858 5.30018 49.2885 4.38818 49.9271C3.71085 50.4005 3.08551 50.9471 2.44551 51.4711C2.13085 51.7285 1.83751 52.0111 1.53351 52.2805C1.47751 52.3298 1.41618 52.3751 1.35485 52.4178C1.16551 52.5431 0.95618 52.7031 0.733513 52.6018C0.50018 52.4965 0.582846 52.2311 0.581513 52.0298C0.577513 49.9351 0.578846 47.8405 0.578846 45.7458Z" fill="#FDD7A7"/>
</svg>
