<svg width="131" height="131" viewBox="0 0 131 131" fill="none" xmlns="http://www.w3.org/2000/svg">
<path d="M0.426503 45.4503C0.426503 43.3703 0.425169 41.2916 0.426503 39.2116C0.426503 38.5743 0.477169 38.5463 1.0585 38.2756C1.99984 37.8383 2.92784 37.3756 3.85184 36.9023C4.77584 36.4289 5.6865 35.929 6.60517 35.445C7.99317 34.7143 9.34517 33.9249 10.6105 32.9969C11.9465 32.0169 13.2865 31.0436 14.6025 30.0383C15.5612 29.305 16.4052 28.441 17.2118 27.5436C17.7758 26.917 18.3332 26.2849 18.8785 25.6436C19.3665 25.0703 19.8452 24.489 20.3052 23.8943C20.6492 23.4503 20.7758 22.9583 20.6892 22.3716C20.4398 20.677 20.2492 18.9729 20.0225 17.2729C19.9518 16.7383 19.8278 16.2103 19.7518 15.6769C19.7038 15.3356 19.7012 14.9889 19.6745 14.6449C19.6478 14.2849 19.5812 13.9249 19.5945 13.5663C19.6385 12.2903 19.7132 11.0236 20.0318 9.76895C20.3878 8.36361 20.7438 6.96228 21.2998 5.62495C21.8865 4.21161 22.6358 2.89028 23.7892 1.84361C23.9438 1.70228 24.1132 1.57428 24.2705 1.43428C24.3972 1.32228 24.4212 1.21295 24.2412 1.12095C24.1478 1.07428 24.0332 1.03561 23.9758 0.958279C23.9132 0.871612 23.8558 0.727613 23.8878 0.642279C23.9158 0.567613 24.0772 0.492952 24.1692 0.502285C24.5118 0.542285 24.8532 0.611612 25.1918 0.679612C25.3145 0.704946 25.4012 0.764952 25.2398 0.871619C25.2878 0.934286 25.3212 1.02494 25.3838 1.05428C26.2705 1.47161 26.9372 2.14895 27.4945 2.92095C28.0318 3.66361 28.4852 4.46229 28.8012 5.33562C29.1958 6.42762 29.5172 7.53562 29.7598 8.67428C29.8612 9.15428 29.9932 9.62495 29.8612 10.0876C29.7065 10.6329 29.7105 11.1876 29.6278 11.7356C29.4892 12.6569 29.4225 13.5916 29.2545 14.5063C29.0732 15.4969 28.8878 16.4996 28.5625 17.4476C28.1292 18.7143 27.5798 19.9423 27.0438 21.1703C26.4358 22.5663 25.8465 23.9676 25.3932 25.4223C24.9758 26.7596 24.8265 28.1383 24.9358 29.5289C25.0465 30.9636 25.5145 32.3049 26.2852 33.5156C26.8825 34.4543 27.5532 35.3476 28.2092 36.2476C28.6252 36.8196 29.0558 37.3809 29.5092 37.9249C30.0865 38.6183 30.6758 39.3036 31.2905 39.965C32.0265 40.7583 32.7718 41.5476 33.5545 42.2943C34.2292 42.9383 34.9532 43.5316 35.6705 44.1276C36.3425 44.6849 37.0252 45.229 37.7212 45.7543C38.0932 46.0343 38.4985 46.269 38.8958 46.5143C39.1132 46.6503 39.3492 46.7516 39.4078 47.0449C39.4385 47.1929 39.5718 47.2289 39.6945 47.1756C40.4132 46.8676 41.1652 46.6156 41.8372 46.2249C43.1812 45.4436 44.3625 44.4249 45.5452 43.4249C46.1852 42.8823 46.7358 42.2329 47.3172 41.6223C47.6598 41.2636 47.9838 40.8863 48.3185 40.5196C48.7132 40.085 49.1238 39.6636 49.5025 39.2156C49.8025 38.8623 50.1225 38.509 50.1932 38.0196C50.2092 37.9036 50.2238 37.7796 50.2052 37.6636C49.9518 36.0743 49.7012 34.4849 49.4318 32.8983C49.3278 32.2903 49.1772 31.6903 49.0558 31.0849C48.9412 30.5223 48.8718 29.9543 48.9905 29.3849C49.1065 28.8289 49.0692 28.281 48.9852 27.7263C48.8065 26.5356 48.6372 25.345 48.4825 24.1516C48.4145 23.6303 48.3918 23.1036 48.3492 22.5796C48.3265 22.2943 48.3052 22.0103 48.2825 21.7263C48.2745 21.621 48.2572 21.5143 48.2638 21.4103C48.3145 20.737 48.3572 20.0623 48.4265 19.3903C48.6718 16.9903 49.2158 14.6409 49.6385 12.2703C49.8052 11.3369 50.0492 10.4129 50.4412 9.54495C50.7745 8.80362 51.1292 8.06362 51.7025 7.47028C51.9598 7.20495 52.2692 6.98229 52.5798 6.77695C52.6878 6.70495 52.8732 6.71028 53.0145 6.73428C53.8958 6.88361 54.6758 7.23562 55.3358 7.85695C55.8398 8.33162 56.3598 8.79295 56.9065 9.21561C58.5305 10.4729 59.6092 12.0996 60.2945 14.0183C60.6198 14.9276 60.9145 15.8423 61.0372 16.8036C61.0545 16.9383 61.0812 17.0716 61.0878 17.2063C61.1238 17.8516 61.1505 18.4969 61.1878 19.1423C61.2092 19.5023 61.2665 19.8609 61.2718 20.2209C61.2892 21.1676 61.1638 22.1076 61.1198 23.0503C61.0692 24.0969 60.8532 25.1063 60.6452 26.1209C60.1785 28.3903 59.7252 30.6649 59.2078 32.9236C58.6838 35.2129 58.0905 37.4876 57.5265 39.7689C57.5052 39.8569 57.4918 39.9463 57.4598 40.0316C57.3252 40.4036 57.4025 40.7423 57.6092 41.0636C57.8118 41.3809 58.0212 41.6943 58.2212 42.0129C58.3078 42.1529 58.3905 42.2983 58.4505 42.4503C58.5705 42.753 58.5852 42.7796 58.9012 42.6743C60.1892 42.2476 61.4478 41.7529 62.6438 41.1009C64.1505 40.2783 65.4718 39.2089 66.7185 38.0489C67.4105 37.4063 67.9958 36.6503 68.6398 35.9556C69.0158 35.5489 69.3212 35.1023 69.4252 34.5556C69.5585 33.8543 69.6238 33.1329 69.2745 32.4783C68.6585 31.3183 68.5092 30.0503 68.3278 28.7836C68.0945 27.145 67.8838 25.5023 67.5998 23.873C67.4198 22.837 67.1225 21.8209 66.8798 20.7943C66.7025 20.0449 66.5932 19.2889 66.6118 18.5143C66.6278 17.8516 66.6332 17.1876 66.6105 16.5249C66.5612 15.0383 66.7825 13.5849 67.1065 12.1409C67.4478 10.6223 67.8612 9.12361 68.5318 7.71961C69.3692 5.97028 70.4532 4.40894 72.1945 3.42361C72.4225 3.29428 72.5598 3.14228 72.5838 2.86495C72.6078 2.57561 72.6745 2.54228 72.9745 2.61028C73.6932 2.77428 74.3172 3.13828 74.9052 3.56761C75.9012 4.29428 76.6025 5.26628 77.1785 6.33828C78.0812 8.01562 78.6092 9.82095 78.8985 11.6903C79.0745 12.833 79.1692 13.9889 79.2705 15.1423C79.3532 16.0849 79.4478 17.0316 79.4358 17.9756C79.4225 18.9503 79.3078 19.9249 79.2038 20.8956C78.9265 23.4743 78.2905 25.9916 77.8625 28.5436C77.6718 29.685 77.5425 30.8369 77.3572 31.9796C77.1718 33.1143 77.2905 34.2316 77.4865 35.3449C77.5998 35.9876 77.8372 36.5916 78.1638 37.1569C78.4038 37.5743 78.6238 38.0076 78.9052 38.3956C79.2145 38.8196 79.5532 39.2303 79.9332 39.5916C80.4972 40.1289 80.9278 40.7609 81.3505 41.4009C81.9318 42.2836 82.5865 43.105 83.2932 43.8916C83.5465 44.1743 83.7185 44.5476 83.8612 44.9076C84.1278 45.5836 84.4412 46.2316 84.8545 46.829C85.0892 47.1676 85.2318 47.5369 85.3425 47.9356C85.6785 49.1489 86.3438 50.1076 87.5172 50.6743C87.8958 50.857 88.2118 50.8143 88.5372 50.6143C89.1132 50.2596 89.6985 49.9183 90.2492 49.5276C90.8852 49.0769 91.5012 48.5943 92.0998 48.097C92.3145 47.9183 92.4412 47.6396 92.6332 47.4303C92.8452 47.1996 93.0612 46.9596 93.3172 46.785C94.5345 45.9516 95.7732 45.1516 96.9852 44.3103C97.3758 44.0396 97.7078 43.6809 98.0652 43.3623C98.7172 42.7809 99.4118 42.2409 100.006 41.6076C100.713 40.8543 101.33 40.0156 101.997 39.2236C102.14 39.053 102.313 38.9009 102.496 38.7743C103.176 38.3023 103.883 37.8663 104.549 37.377C105.8 36.461 107.045 35.5356 108.26 34.5729C108.906 34.0623 109.493 33.4716 110.093 32.9036C111.486 31.5849 112.601 30.0209 113.866 28.5903C114.262 28.1436 114.414 27.6276 114.341 27.0436C114.184 25.7903 114.032 24.5369 113.852 23.2863C113.684 22.1276 113.468 20.977 113.301 19.8183C113.225 19.2983 113.212 18.7703 113.182 18.245C113.145 17.569 113.073 16.8903 113.101 16.2169C113.158 14.7903 113.222 13.3556 113.558 11.9623C113.842 10.777 114.22 9.61561 114.538 8.43961C114.845 7.30495 115.422 6.29828 116.024 5.30895C116.446 4.61428 117 4.01162 117.613 3.47028C117.826 3.28095 118.045 3.10762 118.082 2.78228C118.109 2.56095 118.248 2.49961 118.492 2.61028C118.875 2.78361 119.256 2.97028 119.606 3.20094C120.336 3.67828 120.888 4.33161 121.349 5.06895C122.429 6.79161 123.058 8.67162 123.422 10.6663C123.542 11.3236 123.589 11.9823 123.629 12.6356C123.669 13.2863 123.532 13.9489 123.462 14.6049C123.424 14.9783 123.366 15.3489 123.32 15.7209C123.196 16.7063 123.061 17.6889 122.955 18.6756C122.808 20.0343 122.46 21.3396 121.949 22.6023C121.141 24.5983 120.318 26.5889 119.506 28.5836C119.154 29.4476 118.837 30.3143 118.69 31.2503C118.55 32.1489 118.545 33.0396 118.546 33.9396C118.548 34.8903 118.738 35.8023 119.128 36.649C119.478 37.4116 119.903 38.1516 120.383 38.8396C121.219 40.037 122.113 41.1916 122.998 42.353C124.234 43.973 125.658 45.4236 127.125 46.8303C127.896 47.569 128.722 48.2503 129.533 48.9463C129.705 49.0929 129.816 49.2423 129.828 49.4743C129.838 49.6996 129.905 49.9223 129.9 50.1463C129.881 50.909 130.034 51.6436 130.254 52.3663C130.38 52.773 130.456 53.1823 130.442 53.6103C130.43 54.0463 130.451 54.485 130.437 54.921C130.419 55.613 130.388 56.3036 130.354 56.9956C130.34 57.301 130.252 57.3543 129.994 57.193C129.053 56.5996 128.112 56.0023 127.182 55.3889C126.82 55.1489 126.474 54.877 126.146 54.5903C125.493 54.021 124.94 53.3676 124.61 52.5543C124.314 51.8276 123.826 51.2796 123.154 50.8836C122.49 50.4916 121.816 50.1156 121.045 49.9929C120.757 49.9476 120.445 49.9796 120.159 50.041C119.807 50.1143 119.585 50.3716 119.524 50.7303C119.492 50.9156 119.385 51.0503 119.307 51.2063C119.133 51.5503 119.01 51.9249 118.904 52.2969C118.526 53.6236 118.153 54.9529 117.801 56.2863C117.597 57.0583 117.402 57.8343 117.258 58.6183C116.942 60.3343 116.645 62.0543 116.37 63.7783C116.26 64.4743 116.221 65.1823 116.16 65.8863C116.069 66.9343 115.988 67.9823 115.902 69.0303C115.9 69.0609 115.896 69.0903 115.896 69.1209C115.864 70.0983 115.853 71.077 115.796 72.0516C115.673 74.0983 115.705 76.1463 115.717 78.1943C115.722 78.9143 115.816 79.633 115.87 80.3516C115.904 80.7863 115.956 81.2196 115.972 81.6543C116.018 82.905 116.23 84.1356 116.404 85.3716C116.468 85.8329 116.492 86.2996 116.522 86.7636C116.582 87.6943 116.636 88.6249 116.69 89.5543C116.726 90.1556 116.762 90.7556 116.793 91.3556C116.829 92.0476 116.838 92.7396 116.894 93.429C117.024 95.0183 117.215 96.601 117.567 98.161C117.752 98.981 117.933 99.805 118.085 100.632C118.169 101.089 118.187 101.557 118.233 102.021C118.295 102.618 118.336 103.22 118.421 103.814C118.545 104.676 118.633 105.548 118.925 106.376C119.277 107.369 119.639 108.358 120.012 109.342C120.165 109.75 120.357 110.144 120.534 110.542C120.74 111.001 120.641 111.4 120.224 111.685C119.684 112.054 119.08 112.146 118.452 112.005C118.086 111.924 117.728 111.794 117.381 111.65C116.383 111.232 115.388 110.8 114.396 110.362C113.997 110.186 113.608 109.989 113.22 109.792C112.784 109.569 112.332 109.412 111.836 109.434C111.14 109.468 110.837 109.03 110.825 108.434C110.817 107.998 110.832 107.561 110.82 107.124C110.794 106.177 110.77 105.229 110.724 104.282C110.68 103.412 110.63 102.541 110.541 101.674C110.337 99.6836 110.136 97.6943 109.648 95.745C109.484 95.089 109.425 94.4223 109.52 93.7316C109.581 93.2796 109.507 92.8009 109.437 92.3423C109.199 90.7503 108.929 89.1623 108.686 87.5716C108.641 87.2756 108.662 86.9703 108.652 86.6703C108.649 86.549 108.653 86.4276 108.636 86.3089C108.628 86.2583 108.578 86.1756 108.542 86.173C108.478 86.1663 108.385 86.1916 108.349 86.2383C108.186 86.453 108.026 86.6743 107.888 86.9063C107.225 88.021 106.61 89.165 106.21 90.401C105.945 91.2143 105.772 92.0596 105.584 92.8956C104.969 95.6263 104.38 98.3636 103.755 101.092C103.141 103.764 102.496 106.428 101.863 109.094C101.828 109.241 101.797 109.389 101.748 109.532C101.574 110.03 101.169 110.174 100.705 109.921C100.43 109.77 100.15 109.624 99.8612 109.504C99.7132 109.441 99.5372 109.421 99.3745 109.425C99.2732 109.426 99.1692 109.5 99.0732 109.556C98.9345 109.636 98.8132 109.773 98.6665 109.808C98.2278 109.913 97.7825 110.002 97.3358 110.056C96.8358 110.114 96.7158 109.992 96.7212 109.485C96.7238 109.246 96.7438 109.001 96.7985 108.77C97.3638 106.365 97.9478 103.965 98.5065 101.56C98.8918 99.9023 99.2465 98.237 99.6132 96.5756C100.068 94.517 100.517 92.457 100.975 90.3996C101.343 88.7396 101.732 87.085 102.084 85.421C102.521 83.345 102.956 81.2676 103.341 79.1823C103.705 77.2143 104.015 75.2369 104.328 73.2596C104.545 71.8929 104.74 70.5223 104.924 69.1503C105.101 67.8249 105.25 66.4943 105.413 65.1663C105.554 64.0169 105.708 62.8703 105.836 61.7196C105.949 60.7036 106.033 59.6849 106.132 58.6676C106.213 57.8156 106.304 56.9636 106.38 56.1103C106.426 55.5863 106.445 55.0609 106.493 54.5369C106.555 53.8489 106.633 53.1623 106.705 52.4756C106.713 52.4009 106.741 52.3276 106.742 52.2529C106.765 50.9756 106.95 49.6996 106.792 48.421C106.77 48.2516 106.909 48.0409 106.708 47.9183C106.5 47.7903 106.303 47.9356 106.107 47.9996C105.52 48.1903 104.937 48.3943 104.348 48.5756C103.388 48.8716 102.544 49.405 101.668 49.8676C100.922 50.261 100.189 50.6809 99.4772 51.1329C98.7545 51.5929 98.0492 52.085 97.3638 52.5996C96.7038 53.097 96.0758 53.6383 95.4425 54.1689C95.1772 54.3903 94.9572 54.645 94.7972 54.969C94.2252 56.117 93.5678 57.2196 92.6372 58.117C91.7785 58.945 90.8092 59.6329 89.7345 60.1689C89.3185 60.3756 88.9345 60.6476 88.5225 60.8649C88.2172 61.0249 87.8932 61.1516 87.5718 61.2783C87.4052 61.3436 87.2625 61.2903 87.2425 61.0929C87.2185 60.8716 87.0692 60.7636 86.9172 60.6329C86.5865 60.3516 86.2665 60.0543 85.9572 59.749C85.4838 59.285 85.0305 58.7996 84.5492 58.3436C84.3545 58.1609 84.1118 58.025 83.8798 57.8863C83.1665 57.461 82.5798 56.9276 82.2332 56.1476C81.7638 55.0916 81.0758 54.1756 80.3292 53.3049C79.9372 52.8476 79.7558 52.8876 79.5092 53.4476C79.0865 54.4076 78.8598 55.4196 78.7318 56.4543C78.4865 58.4329 78.5132 60.4223 78.5532 62.4089C78.7358 71.2676 78.5892 80.1263 78.6305 88.985C78.6345 89.833 78.7318 90.6676 78.8612 91.4983C78.9945 92.3609 79.1772 93.2156 79.3132 94.077C79.3865 94.537 79.4105 95.0036 79.4492 95.4676C79.5078 96.157 79.5532 96.8463 79.6132 97.5343C79.6718 98.2236 79.7332 98.9116 79.8118 99.5983C79.9345 100.688 80.0758 101.774 80.2025 102.864C80.2878 103.596 80.3585 104.328 80.4385 105.06C80.5318 105.912 80.6198 106.765 80.7225 107.616C80.8252 108.481 80.9438 109.345 81.0558 110.209C81.3145 112.213 81.6798 114.197 82.2145 116.145C82.9278 118.744 83.6812 121.333 84.4225 123.925C84.5932 124.521 84.6945 125.121 84.7078 125.746C84.7172 126.238 84.7945 126.737 84.9158 127.214C85.1585 128.166 85.3758 129.116 85.3305 130.108C85.3065 130.618 85.1945 130.753 84.6905 130.77C84.4505 130.78 84.2065 130.782 83.9678 130.758C83.8452 130.745 83.7212 130.678 83.6132 130.612C83.3985 130.481 83.2118 130.293 82.9838 130.198C81.5132 129.584 80.3652 128.626 79.6345 127.185C79.3425 126.608 78.9892 126.062 78.6638 125.502C78.0238 124.402 77.5412 123.232 77.1905 122.014C76.9918 121.322 76.8945 120.601 76.7518 119.892C76.5158 118.726 76.2318 117.576 75.8278 116.452C75.4412 115.376 75.1612 114.261 74.8105 113.172C74.2372 111.394 73.6558 109.62 73.0572 107.85C72.3118 105.652 71.6838 103.422 71.2065 101.148C70.8998 99.6903 70.4918 98.2556 70.1412 96.8063C69.9918 96.1943 69.8798 95.573 69.7385 94.9583C69.5652 94.1956 69.3878 93.4343 69.1878 92.6783C69.1465 92.521 69.0025 92.3903 68.9052 92.2476C68.7958 92.3809 68.6558 92.501 68.5812 92.6516C68.4105 93.0036 68.2772 93.3729 68.1198 93.7316C67.3892 95.4049 66.7918 97.1196 66.2985 98.881C65.4372 101.96 64.8212 105.092 64.2025 108.224C63.5985 111.281 63.0318 114.345 62.4478 117.406C62.3345 118 62.1745 118.573 61.8678 119.108C61.6412 119.502 61.5465 119.949 61.5478 120.41C61.5478 122.069 61.5398 123.726 61.5518 125.384C61.5572 126.03 61.6092 126.676 61.6358 127.321C61.6412 127.457 61.6398 127.594 61.6185 127.728C61.5625 128.082 61.3798 128.288 61.0265 128.304C60.4412 128.33 59.8518 128.336 59.2652 128.305C58.8278 128.281 58.5825 128.046 58.4972 127.602C58.3545 126.864 58.2185 126.122 58.1185 125.377C57.9598 124.198 57.9078 123.012 57.9198 121.821C57.9318 120.73 58.0598 119.658 58.3278 118.605C58.5878 117.581 58.7492 116.545 58.8438 115.492C58.9358 114.46 59.0892 113.432 59.2252 112.404C59.3585 111.39 59.4998 110.377 59.6478 109.365C59.8692 107.846 60.0785 106.326 60.3292 104.813C60.9238 101.216 61.7545 97.6676 62.5718 94.1156C62.7718 93.2503 62.9665 92.3836 63.1798 91.521C64.2492 87.225 65.3398 82.9329 66.3918 78.6329C66.9252 76.4529 67.3958 74.2583 67.8892 72.069C68.1972 70.7036 68.4545 69.3236 68.8118 67.9703C69.1878 66.541 69.4652 65.0943 69.7065 63.6396C69.7998 63.0783 69.8225 62.5063 69.8665 61.9383C69.9305 61.1143 70.0065 60.2903 70.0358 59.4649C70.0732 58.4276 70.1238 57.3876 69.7918 56.3743C69.6678 55.9943 69.4118 55.7343 69.1172 55.4943C68.6305 55.0983 68.0292 54.9943 67.4505 54.8316C67.2918 54.7876 67.1265 54.7596 66.9625 54.7383C66.5678 54.685 66.1652 54.5676 65.8172 54.9036C65.7385 54.9796 65.5932 54.9836 65.4785 55.0223C64.2078 55.4436 62.9372 55.8676 61.6638 56.285C61.1745 56.4436 60.6758 56.5543 60.1558 56.5303C59.8198 56.5156 59.5092 56.5929 59.1852 56.6863C58.6972 56.8263 58.1825 56.8743 57.6812 56.9703C57.0478 57.093 56.4118 57.209 55.7838 57.357C55.2558 57.4823 54.7425 57.6609 54.2185 57.7956C53.0892 58.0863 52.5705 58.6383 52.3345 59.9476C52.1918 60.7316 52.0932 61.5236 51.9878 62.313C51.9332 62.7303 51.8892 63.1503 51.8718 63.5703C51.8292 64.577 51.7852 65.5849 51.7798 66.5929C51.7745 67.4423 51.6812 68.2716 51.4638 69.0929C51.2198 70.0196 51.1652 70.9596 51.2945 71.9143C51.3612 72.405 51.3518 72.905 51.4092 73.397C51.5012 74.189 51.6278 74.977 51.7225 75.7676C51.7852 76.2903 51.8278 76.8156 51.8625 77.3396C51.9265 78.3303 51.9772 79.321 52.0332 80.3103C52.0665 80.881 52.0972 81.4516 52.1345 82.0223C52.1985 82.981 52.2385 83.9436 52.3425 84.8996C52.4732 86.0956 52.6692 87.2823 52.9492 88.457C53.1158 89.157 53.1932 89.8783 53.3038 90.5903C53.4452 91.4969 53.5838 92.4036 53.7145 93.3129C53.7492 93.5503 53.7665 93.7916 53.7692 94.0316C53.7758 94.785 53.7665 95.5383 53.7718 96.2929C53.7825 97.5836 53.9798 98.8423 54.4838 100.038C54.6212 100.365 54.6772 100.693 54.6798 101.048C54.7025 104.437 54.7385 107.825 54.7652 111.214C54.7732 112.254 54.7785 113.294 54.7625 114.333C54.7452 115.508 54.7158 116.681 54.6678 117.853C54.6252 118.92 54.5625 119.985 54.4878 121.05C54.4158 122.1 54.3132 123.146 54.2345 124.196C54.1892 124.81 54.1758 125.426 54.1292 126.041C54.0825 126.656 54.0545 127.274 53.9412 127.877C53.7852 128.705 53.0705 129.097 52.2758 128.84C52.1545 128.801 52.0438 128.7 51.9545 128.605C51.7625 128.4 51.5318 128.278 51.2665 128.196C50.5038 127.961 49.7558 127.673 48.9825 127.481C48.0932 127.261 47.5465 126.756 47.3878 125.854C47.2998 125.353 47.1918 124.845 47.1838 124.34C47.1585 122.592 47.0985 120.84 47.1905 119.096C47.2985 117.032 47.2385 114.97 47.2598 112.908C47.2812 110.844 47.2692 108.778 47.2532 106.714C47.2518 106.404 47.1865 106.081 47.0825 105.788C46.7012 104.705 46.5905 103.605 46.6452 102.456C46.6918 101.454 46.6358 100.442 46.4812 99.441C46.3052 98.297 46.1465 97.1489 46.0038 96.0009C45.9398 95.4796 45.9318 94.9503 45.8985 94.4263C45.8972 94.3956 45.9065 94.3623 45.8958 94.3356C45.8478 94.2223 45.7932 94.1103 45.7425 93.9969C45.6772 94.0903 45.5852 94.1743 45.5505 94.2783C45.3265 94.9489 45.1105 95.6236 44.8972 96.2996C44.3118 98.153 43.7612 100.016 43.3265 101.912C43.0772 102.997 42.8412 104.086 42.6012 105.174C42.2438 106.79 41.8798 108.404 41.5358 110.022C41.3825 110.744 41.2838 111.476 41.1385 112.198C40.9838 112.965 40.7972 113.725 40.6358 114.49C40.3092 116.037 39.9918 117.586 39.6665 119.134C39.5332 119.766 39.3865 120.381 39.0038 120.94C38.7118 121.368 38.5518 121.884 38.5772 122.437C38.6185 123.368 38.6358 124.301 38.6625 125.233C38.6652 125.353 38.6665 125.474 38.6572 125.594C38.6345 125.904 38.5025 126.088 38.2038 126.125C37.7905 126.177 37.3945 126.204 37.0105 125.896C36.6532 125.609 36.2092 125.421 35.7892 125.222C35.1905 124.941 34.5838 124.677 33.9705 124.429C33.3492 124.178 32.6892 124.105 32.0238 124.077C31.9038 124.073 31.7812 124.08 31.6625 124.066C31.0865 124.002 30.8118 123.676 30.9252 123.108C31.0265 122.594 31.2078 122.096 31.3305 121.585C31.6038 120.442 31.8612 119.296 32.1265 118.152C32.5665 116.261 33.0132 114.373 33.4452 112.48C33.8838 110.557 34.3398 108.637 34.7278 106.704C35.2052 104.328 35.6212 101.94 36.0638 99.557C36.2985 98.2996 36.5465 97.0449 36.7705 95.7863C36.9945 94.5209 37.1932 93.2516 37.4078 91.9863C37.6185 90.7543 37.7932 89.5143 38.0585 88.2956C38.5625 85.9849 38.8958 83.649 39.2172 81.3103C39.4718 79.4476 39.6958 77.581 39.9425 75.7183C40.1985 73.7956 40.4692 71.8743 40.7278 69.9516C40.9185 68.521 41.0998 67.0889 41.2825 65.6583C41.3012 65.5089 41.2958 65.3569 41.2958 65.2063C41.2972 64.3476 41.3078 63.4876 41.2945 62.6289C41.2732 61.3503 41.2812 60.0676 41.1878 58.7943C41.1198 57.8516 41.1665 56.8956 40.9185 55.969C40.7652 55.393 40.5678 54.8436 40.1252 54.4223C39.9958 54.2996 39.8412 54.1996 39.6852 54.1143C39.6172 54.0769 39.4878 54.065 39.4358 54.1063C39.0438 54.4103 38.6732 54.2796 38.3012 54.0769C37.7732 53.7889 37.2358 53.513 36.7212 53.2023C35.5598 52.5036 34.3932 51.813 33.2625 51.069C32.4092 50.5076 31.5865 49.8929 30.7932 49.2503C30.4385 48.9636 30.1398 48.5796 29.8998 48.1876C29.5452 47.6116 29.0585 47.309 28.4065 47.217C27.8398 47.1356 27.2718 47.0596 26.7132 46.941C26.2892 46.853 25.8718 46.7223 25.4652 46.5729C25.0905 46.4343 24.9532 46.473 24.8318 46.8676C24.7052 47.2863 24.6038 47.7116 24.4758 48.1289C24.3092 48.6756 24.0932 49.2089 23.9558 49.7609C23.6038 51.1769 23.3172 52.6103 22.9425 54.0196C22.5332 55.5663 22.2958 57.1423 22.0665 58.7183C21.9158 59.7583 21.8505 60.8116 21.7625 61.8596C21.6665 63.013 21.5878 64.1676 21.5012 65.321C21.4998 65.3516 21.4958 65.3809 21.4958 65.4116C21.4638 66.4183 21.4265 67.4263 21.4025 68.433C21.3665 69.9383 21.3185 71.4436 21.3198 72.9476C21.3198 73.6969 21.4158 74.4463 21.4718 75.1956C21.5025 75.5996 21.5558 76.0036 21.5718 76.4076C21.6372 78.0489 21.8892 79.669 22.1052 81.2943C22.1678 81.7703 22.1825 82.2529 22.2065 82.7329C22.2452 83.5289 22.2638 84.3263 22.3078 85.1223C22.3492 85.8863 22.4158 86.6503 22.4678 87.4143C22.5078 87.9996 22.5292 88.5863 22.5785 89.1703C22.6345 89.829 22.6732 90.4916 22.7878 91.1423C22.9705 92.1783 23.2238 93.201 23.4185 94.2356C23.5345 94.8516 23.5852 95.4796 23.6798 96.0996C23.7852 96.7809 23.8198 97.465 23.8585 98.1516C23.9305 99.449 24.2972 100.694 24.6732 101.929C25.0705 103.241 25.5185 104.538 26.1065 105.78C26.4678 106.542 26.2092 107.009 25.4025 107.309C24.8825 107.504 24.3345 107.517 23.8065 107.321C23.1292 107.07 22.4532 106.813 21.7918 106.521C20.7598 106.065 19.7518 105.557 18.7132 105.114C18.3345 104.953 17.9052 104.87 17.4932 104.834C16.8065 104.776 16.6105 104.644 16.5078 103.973C16.4652 103.692 16.4425 103.406 16.4345 103.121C16.4225 102.685 16.4265 102.248 16.4318 101.81C16.4465 100.696 16.3692 99.5863 16.2638 98.477C16.2105 97.909 16.2052 97.3356 16.1558 96.7676C16.0958 96.0783 16.0438 95.3863 15.9292 94.7063C15.7065 93.3863 15.4412 92.0729 15.1985 90.7556C15.1692 90.5943 15.1505 90.4263 15.1598 90.2623C15.2705 88.3343 14.9158 86.4543 14.5772 84.573C14.4678 83.9663 14.3878 83.3529 14.3052 82.7423C14.2892 82.6263 14.3198 82.5036 14.3212 82.385C14.3252 82.1596 14.3318 81.933 14.3185 81.709C14.3158 81.6436 14.2505 81.5276 14.2158 81.5289C14.1385 81.5316 14.0305 81.5716 13.9918 81.6316C13.6838 82.1143 13.3758 82.597 13.0932 83.093C12.4772 84.1703 12.0665 85.3329 11.6545 86.5009C11.2705 87.5889 11.1652 88.7303 10.9092 89.8409C10.7092 90.7063 10.5598 91.5836 10.3612 92.449C10.0265 93.901 9.6665 95.3463 9.32517 96.7956C8.73317 99.3169 8.14784 101.841 7.55717 104.364C7.51317 104.553 7.44517 104.738 7.38917 104.925C7.22384 105.485 6.77717 105.536 6.35317 105.316C6.29984 105.288 6.25717 105.241 6.2025 105.217C5.92917 105.096 5.65717 104.97 5.37717 104.865C5.1705 104.786 5.00117 104.824 4.9065 105.066C4.8745 105.149 4.76784 105.24 4.67984 105.258C4.31317 105.337 3.94384 105.42 3.5705 105.445C3.22784 105.469 3.05984 105.305 3.05717 104.961C3.0545 104.693 3.10517 104.421 3.1665 104.16C3.85317 101.212 4.54784 98.265 5.23717 95.317C5.4465 94.4223 5.64117 93.5249 5.84784 92.6303C6.23717 90.9276 6.6345 89.2276 7.01984 87.525C7.09984 87.1743 7.13584 86.8116 7.21184 86.4596C7.29584 86.0623 7.4145 85.673 7.49717 85.277C8.17317 82.0796 8.86917 78.8876 9.50517 75.6823C9.90384 73.6756 10.2212 71.6516 10.5492 69.6316C10.8052 68.0583 11.0265 66.4783 11.2532 64.8996C11.3612 64.1556 11.4438 63.4076 11.5465 62.6623C11.6758 61.7263 11.8305 60.7916 11.9465 59.8529C12.0345 59.1409 12.0692 58.4236 12.1438 57.7103C12.1825 57.3276 12.2692 56.9516 12.3065 56.5689C12.3438 56.2116 12.3318 55.8503 12.3638 55.4916C12.4372 54.6689 12.5238 53.8476 12.6052 53.025C12.6412 52.6503 12.6838 52.277 12.7118 51.9023C12.7518 51.3636 12.7665 50.821 12.8185 50.2823C12.8772 49.6716 12.9665 49.0623 13.0372 48.4516C13.1398 47.557 13.3025 46.665 13.2558 45.757C13.2318 45.3103 13.1172 45.2303 12.6892 45.3436C11.5945 45.6343 10.5198 45.985 9.50517 46.4876C8.66917 46.901 7.8425 47.3396 7.0425 47.8183C6.0865 48.3903 5.14784 48.9929 4.23584 49.6316C3.5585 50.1049 2.93317 50.6516 2.29317 51.1756C1.9785 51.4329 1.68517 51.7156 1.38117 51.9849C1.32517 52.0343 1.26384 52.0796 1.2025 52.1223C1.01317 52.2476 0.803836 52.4076 0.581169 52.3063C0.347836 52.2009 0.430503 51.9356 0.429169 51.7343C0.425169 49.6396 0.426503 47.545 0.426503 45.4503Z" fill="#FDD7A7"/>
</svg>
