<svg width="130" height="130" viewBox="0 0 130 130" fill="none" xmlns="http://www.w3.org/2000/svg">
<path d="M37.7494 0.401821C40.6814 0.440488 43.5348 0.92449 46.3494 1.58316C49.5081 2.32316 52.5414 3.46582 55.2628 5.25782C56.7961 6.26849 58.2521 7.42449 59.6188 8.65249C61.9174 10.7192 63.8681 13.0952 65.2401 15.8872C66.1428 17.7232 67.0134 19.5792 67.7774 21.4752C68.3494 22.8925 68.8294 24.3645 69.1694 25.8525C69.6388 27.9138 69.9348 30.0152 70.3214 32.0952C70.3548 32.2778 70.4788 32.5552 70.6054 32.5818C70.8174 32.6272 71.1401 32.5845 71.2868 32.4445C73.3068 30.5205 75.5508 28.8805 77.9281 27.4538C80.3281 26.0138 82.7921 24.6592 85.3214 23.4645C87.0441 22.6512 88.9174 22.1458 90.7414 21.5578C93.3654 20.7138 96.0521 20.1992 98.8228 20.2218C99.1774 20.2245 99.5334 20.2392 99.8868 20.2205C102.924 20.0592 105.837 20.6285 108.683 21.6578C111.556 22.6978 114.159 24.1952 116.544 26.1032C119.161 28.1978 121.311 30.6992 123.257 33.4125C125.324 36.2925 126.928 39.3752 127.951 42.7818C128.489 44.5752 128.681 46.4125 129.056 48.2205C129.352 49.6552 129.379 51.0592 129.304 52.4605C129.224 53.9458 128.919 55.4298 128.591 56.8885C128.275 58.2925 127.813 59.6658 127.4 61.0485C126.793 63.0858 125.772 64.9325 124.717 66.7592C123.064 69.6205 121.091 72.2458 118.743 74.5725C116.923 76.3778 115.089 78.1725 113.199 79.9018C112.072 80.9325 110.849 81.8685 109.619 82.7778C107.333 84.4658 105.028 86.1258 102.701 87.7565C100.395 89.3738 98.0508 90.9378 95.7241 92.5272C94.4468 93.4005 93.1521 94.2538 91.9001 95.1632C90.6628 96.0605 89.4708 97.0178 88.2588 97.9498C87.6281 98.4338 86.9654 98.8832 86.3761 99.4125C85.2934 100.383 84.2294 101.378 83.2028 102.407C81.9988 103.615 80.7374 104.788 79.6921 106.127C78.4481 107.723 77.3308 109.432 76.3028 111.178C75.4094 112.696 74.5908 114.286 73.9694 115.931C73.1588 118.072 72.4441 120.27 71.9374 122.499C71.5254 124.308 71.4721 126.202 71.2788 128.059C71.2401 128.422 71.3054 128.794 71.2868 129.16C71.2681 129.524 71.0628 129.595 70.7841 129.382C69.8241 128.644 68.8654 127.908 67.9174 127.156C65.3628 125.128 62.7921 123.119 60.2694 121.051C57.3374 118.647 54.4321 116.21 51.5468 113.748C48.9774 111.555 46.4214 109.342 43.9161 107.076C42.1561 105.486 40.4841 103.796 38.7828 102.142C36.5708 99.9912 34.3268 97.8725 32.1721 95.6645C29.9254 93.3632 27.7014 91.0312 25.5868 88.6072C22.9201 85.5498 20.3388 82.4152 17.7908 79.2565C16.5228 77.6858 15.4188 75.9832 14.2308 74.3472C11.7188 70.8858 9.5281 67.2232 7.53343 63.4498C5.74543 60.0645 4.18544 56.5645 3.0761 52.8925C2.31477 50.3712 1.6801 47.8085 1.03877 45.2512C0.176099 41.8018 -0.0438986 38.2792 0.113435 34.7445C0.209435 32.5818 0.370767 30.4018 0.7681 28.2792C1.32943 25.2778 2.25343 22.3512 3.82943 19.7045C5.09343 17.5792 6.3961 15.4605 7.86277 13.4725C10.7721 9.52982 14.6428 6.72315 19.0601 4.69915C21.0361 3.79382 23.1161 3.08316 25.1988 2.45116C27.1081 1.87249 29.0681 1.40583 31.0388 1.09516C33.2561 0.744493 35.5108 0.623154 37.7494 0.401821Z" fill="#BC9AC8"/>
</svg>
