<svg width="130" height="130" viewBox="0 0 130 130" fill="none" xmlns="http://www.w3.org/2000/svg">
<path d="M38.1342 0.715969C41.0662 0.754636 43.9195 1.23864 46.7342 1.8973C49.8929 2.6373 52.9262 3.77997 55.6462 5.57197C57.1809 6.58263 58.6369 7.73864 60.0035 8.96664C62.3022 11.032 64.2529 13.4093 65.6249 16.2013C66.5262 18.0373 67.3982 19.8933 68.1622 21.7893C68.7342 23.2066 69.2142 24.6786 69.5542 26.1666C70.0235 28.228 70.3195 30.3293 70.7049 32.4093C70.7395 32.592 70.8635 32.8693 70.9902 32.896C71.2022 32.9413 71.5249 32.8986 71.6715 32.7586C73.6915 30.8346 75.9355 29.1946 78.3129 27.768C80.7129 26.328 83.1769 24.9733 85.7062 23.7786C87.4289 22.9653 89.3022 22.46 91.1262 21.872C93.7502 21.028 96.4369 20.5133 99.2075 20.536C99.5622 20.5386 99.9182 20.5533 100.272 20.5346C103.309 20.3733 106.222 20.9426 109.068 21.972C111.941 23.012 114.544 24.5093 116.929 26.4173C119.546 28.512 121.696 31.0133 123.642 33.7266C125.709 36.6066 127.313 39.6893 128.336 43.096C128.874 44.8893 129.066 46.7266 129.441 48.5346C129.737 49.9693 129.764 51.3733 129.689 52.7746C129.609 54.26 129.304 55.744 128.976 57.2026C128.66 58.6066 128.198 59.98 127.785 61.3626C127.178 63.4 126.157 65.2466 125.102 67.0733C123.449 69.9346 121.476 72.56 119.128 74.8866C117.308 76.692 115.474 78.4866 113.584 80.216C112.457 81.2466 111.234 82.1826 110.004 83.092C107.718 84.78 105.413 86.44 103.086 88.0706C100.78 89.688 98.4355 91.252 96.1089 92.8413C94.8315 93.7146 93.5369 94.568 92.2849 95.4773C91.0475 96.3746 89.8555 97.332 88.6435 98.264C88.0129 98.748 87.3502 99.1973 86.7609 99.7266C85.6782 100.697 84.6142 101.692 83.5875 102.721C82.3835 103.929 81.1222 105.103 80.0769 106.441C78.8329 108.037 77.7155 109.747 76.6875 111.492C75.7942 113.011 74.9755 114.6 74.3542 116.245C73.5435 118.387 72.8289 120.584 72.3222 122.813C71.9102 124.623 71.8569 126.516 71.6622 128.373C71.6249 128.736 71.6902 129.108 71.6715 129.475C71.6529 129.839 71.4475 129.909 71.1689 129.696C70.2089 128.959 69.2502 128.223 68.3022 127.471C65.7475 125.443 63.1769 123.433 60.6542 121.365C57.7222 118.961 54.8169 116.524 51.9315 114.063C49.3622 111.869 46.8062 109.656 44.3009 107.391C42.5409 105.8 40.8689 104.111 39.1675 102.456C36.9555 100.305 34.7115 98.1866 32.5569 95.9786C30.3102 93.6773 28.0862 91.3453 25.9715 88.9213C23.3049 85.864 20.7235 82.7293 18.1755 79.5706C16.9075 78 15.8035 76.2973 14.6155 74.6613C12.1035 71.2 9.91287 67.5373 7.9182 63.764C6.1302 60.3786 4.5702 56.8786 3.46087 53.2066C2.6982 50.6853 2.06353 48.1226 1.42353 45.5653C0.560865 42.116 0.340867 38.5933 0.4982 35.0586C0.5942 32.896 0.755533 30.716 1.15287 28.5933C1.7142 25.592 2.6382 22.6653 4.2142 20.0186C5.4782 17.8933 6.78086 15.7746 8.24753 13.7866C11.1569 9.84397 15.0275 7.0373 19.4449 5.0133C21.4209 4.10797 23.5009 3.39731 25.5835 2.76531C27.4929 2.18664 29.4529 1.71997 31.4235 1.40931C33.6409 1.05864 35.8955 0.937302 38.1342 0.715969Z" fill="#BC9AC8"/>
</svg>
