<svg width="132" height="132" viewBox="0 0 132 132" fill="none" xmlns="http://www.w3.org/2000/svg">
<path d="M56.8908 77.4669C56.9655 78.0749 57.0015 78.4829 57.0655 78.8869C57.4175 81.0722 58.9095 82.4616 60.5281 83.7282C63.4735 86.0336 67.0788 86.9216 70.4761 88.2482C70.7161 88.3416 71.1361 88.1016 71.4055 87.9162C71.4841 87.8616 71.4001 87.4149 71.2708 87.2363C70.7188 86.4776 70.0855 85.7749 69.5455 85.0082C66.8735 81.2082 64.2548 77.3709 61.5295 73.6109C61.0455 72.9429 60.1281 72.1509 59.4361 72.1763C58.4321 72.2109 57.8175 73.2736 57.4161 74.2509C57.3881 74.3216 57.3561 74.3936 57.3455 74.4669C57.1828 75.5296 57.0228 76.5923 56.8908 77.4669ZM85.4788 75.3576C84.7815 75.4029 84.0828 75.4282 83.3895 75.4976C80.6575 75.7696 78.1895 76.5683 76.4548 78.9003C75.3988 80.3189 75.3908 81.8189 76.4695 83.2069C77.8281 84.9563 79.1668 86.7229 80.5041 88.4896C80.9961 89.1416 81.6081 89.5189 82.4481 89.4523C82.8721 89.4189 83.2975 89.3963 83.7201 89.3576C87.4588 89.0149 90.9308 87.9722 93.8721 85.5162C95.3615 84.2722 95.7175 82.5109 95.7948 80.7603C95.8588 79.3016 94.8428 78.2842 93.6121 77.5616C91.1028 76.0882 88.3895 75.3709 85.4788 75.3576ZM48.8415 27.0882C48.7255 22.9896 46.8215 19.5216 44.3268 16.5629C40.1375 11.5949 34.6615 8.40291 28.4641 6.39358C25.2881 5.36291 22.0308 5.02825 18.7495 4.74691C18.4788 4.72425 18.0855 4.92558 17.9321 5.14825C17.8401 5.28292 18.0441 5.70424 18.2135 5.92024C18.6055 6.41891 19.0961 6.84291 19.4775 7.34824C21.4375 9.94024 23.3695 12.5536 25.3228 15.1509C29.1175 20.2002 32.9241 25.2416 36.7188 30.2922C37.9295 31.9042 39.1735 33.4962 40.2868 35.1736C40.8921 36.0856 41.7575 36.4362 42.6841 35.8069C43.5001 35.2536 44.3081 34.6842 45.0895 34.0816C47.3775 32.3162 48.8895 30.1256 48.8415 27.0882ZM85.9588 63.5736C84.2588 63.5736 82.5428 63.4256 80.8615 63.6016C75.7441 64.1336 70.7788 65.3469 65.9975 67.2776C65.1801 67.6069 65.0695 67.9229 65.5908 68.6282C66.8121 70.2776 68.0468 71.9149 69.2521 73.5749C70.0988 74.7403 70.6081 74.7736 71.8855 74.0709C73.3388 73.2696 74.8281 72.4456 76.4028 71.9709C79.8135 70.9442 83.3575 70.7896 86.8815 71.1442C92.0428 71.6642 96.8801 73.0856 100.879 76.6562C103.724 79.1989 104.311 82.9149 102.131 86.0336C99.7908 89.3802 96.6228 91.5989 92.6401 92.6176C90.5935 93.1402 88.5508 93.6776 86.5135 94.2296C85.4361 94.5216 85.3161 94.8083 85.9201 95.7176C86.8001 97.0456 87.6855 98.3763 88.6401 99.6509C89.2615 100.482 90.0695 101.215 91.2135 100.974C92.5028 100.702 93.8201 100.407 95.0188 99.8789C99.1321 98.0683 103.253 96.2562 107.272 94.2469C111.853 91.9549 115.755 88.9029 118.06 84.0829C118.953 82.2122 119.621 80.3123 119.125 78.3896C118.587 76.3029 117.403 74.3696 115.711 72.9456C112.631 70.3536 109.108 68.4069 105.429 66.8576C99.2268 64.2469 92.6908 63.2109 85.9588 63.5736ZM23.6601 74.6829C23.6601 74.9109 23.6508 75.1389 23.6628 75.3656C23.6748 75.5936 23.7148 75.8189 23.7295 76.0456C24.0508 81.2562 25.9215 85.8429 29.7828 89.3589C31.9521 91.3336 34.4841 92.9563 37.0015 94.4909C40.7815 96.7963 45.0281 98.0629 49.2641 99.1869C57.6588 101.414 66.1815 102.856 74.9228 102.59C76.9055 102.528 78.8935 102.608 80.8788 102.568C81.1588 102.563 81.5268 102.302 81.6735 102.052C81.7615 101.904 81.5415 101.515 81.3801 101.291C80.2548 99.7269 79.0228 98.2323 77.9975 96.6056C77.2161 95.3656 76.2641 94.6323 74.7975 94.5363C72.5721 94.3909 70.3281 94.3483 68.1295 94.0136C62.4148 93.1469 57.0028 91.3163 51.7735 88.8269C48.5295 87.2843 45.7361 85.2669 43.4908 82.5003C42.8828 81.7509 42.4508 80.8403 42.0335 79.9589C41.6068 79.0576 41.3188 78.0923 40.9348 77.1696C40.5561 76.2616 41.4028 72.6736 41.6095 71.7762C41.8521 70.7176 43.7735 68.3896 44.0468 68.0149C45.4388 66.1122 47.1801 64.6429 49.2935 63.5989C50.2468 63.1282 51.1855 62.6256 52.1188 62.1176C52.8695 61.7082 52.8881 61.4456 52.2895 60.8549C51.9561 60.5256 51.6161 60.1922 51.3455 59.8136C49.1361 56.7256 46.9441 53.6242 44.7428 50.5282C43.9041 49.3496 42.9588 49.2589 41.8655 50.2082C41.1081 50.8656 40.3655 51.5509 39.5415 52.1136C34.0988 55.8309 29.6881 60.5242 26.2481 66.1296C24.6441 68.7442 23.9748 71.6682 23.6601 74.6829ZM0.854807 76.6936C0.854807 76.2069 0.894806 75.7163 0.846806 75.2349C0.660139 73.3683 1.08947 71.6803 2.22414 70.1763C2.36014 69.9949 2.48948 69.7922 2.55481 69.5802C3.75081 65.7189 6.71614 63.1029 9.21747 60.1762C13.3655 55.3216 18.6015 51.7256 23.7441 48.0656C27.5521 45.3536 31.5815 42.9536 35.5108 40.4136C36.6961 39.6469 36.7521 39.2722 35.9055 38.1242C30.3508 30.5936 24.7895 23.0682 19.2535 15.5256C15.8908 10.9442 12.5655 6.33491 9.23614 1.73091C9.09747 1.54025 8.95747 1.21625 9.03081 1.04691C9.10147 0.884245 9.44414 0.768243 9.67481 0.754909C21.6001 0.077576 33.0868 1.86958 43.7201 7.47624C47.8508 9.65491 51.6748 12.4562 55.4641 15.2122C56.7788 16.1696 57.5695 17.8496 58.5975 19.1989C60.1721 21.2629 61.4041 23.5096 61.5761 26.1362C61.6881 27.8522 61.5361 29.5923 61.4108 31.3149C61.3388 32.2923 61.2455 33.3242 60.8775 34.2136C58.8535 39.0922 54.8121 41.9682 50.4401 44.4882C50.0988 44.6856 49.7521 44.8776 49.4201 45.0923C48.6001 45.6216 48.4908 46.1789 49.0975 46.9469C51.3001 49.7363 53.5268 52.5069 55.7241 55.3002C56.2308 55.9429 56.7055 56.6189 57.1148 57.3256C57.9468 58.7616 58.7441 59.1256 60.3641 58.7536C63.6495 57.9976 66.9255 57.1909 70.2308 56.5269C74.3815 55.6949 78.5761 55.3403 82.8241 55.5856C86.1121 55.7749 89.4415 55.5429 92.6975 55.9442C100.605 56.9189 108.384 58.5269 115.615 62.0856C118.067 63.2923 120.643 64.3416 122.875 65.8816C125.279 67.5389 127.459 69.5709 129.517 71.6576C131.004 73.1643 131.285 75.3923 131.515 77.3829C131.773 79.6349 131.544 81.9629 131.347 84.2429C131.148 86.5496 129.831 88.3496 128.373 90.0883C125.093 93.9989 120.733 96.3842 116.347 98.7109C111.336 101.368 106.212 103.796 100.733 105.367C98.9388 105.882 97.1121 106.29 95.3081 106.774C94.2281 107.063 94.2015 107.346 94.8348 108.234C96.2081 110.16 99.5881 119.611 99.6455 120.412C99.7215 121.498 99.3881 122.39 98.8601 123.362C97.7641 125.376 95.9108 126.338 94.1121 127.507C90.1721 130.066 85.7508 130.983 81.2241 131.552C72.5041 132.648 64.2255 130.882 56.2815 127.37C53.8495 126.296 51.5628 124.891 49.8308 122.786C48.2188 120.824 48.3801 118.306 50.0935 116.451C52.1775 114.195 54.9068 113.312 57.7441 112.486C61.1535 111.492 64.5735 111.576 68.0428 111.815C70.4348 111.979 72.7921 112.195 75.0295 113.15C76.2668 113.676 77.3801 114.34 78.2095 115.431C78.8908 116.326 78.7801 117.51 77.9748 118.304C75.2681 120.978 72.1295 121.671 68.5495 120.419C68.4628 120.39 68.3748 120.367 68.2868 120.343C66.5935 119.862 65.9028 120.067 65.3935 121.206C64.7721 122.594 65.1588 124.004 66.4175 124.798C68.4495 126.079 70.7268 126.655 73.0615 127.058C77.2561 127.782 81.3601 127.514 85.3295 125.912C87.6335 124.983 89.0881 123.291 89.4015 120.798C89.4948 120.05 89.3521 119.198 89.0708 118.491C88.2388 116.403 87.3348 114.342 86.3548 112.319C85.9095 111.402 85.2735 110.56 84.6268 109.763C83.8375 108.788 82.6855 108.875 81.5868 108.975C75.3895 109.535 69.1868 109.638 62.9721 109.34C54.3321 108.927 45.8001 107.736 37.3441 105.946C29.5668 104.299 22.0961 101.772 15.1561 97.8803C11.2841 95.7083 7.63081 93.1589 4.68547 89.7616C3.32147 88.1882 1.96947 84.0869 1.92147 83.9962C0.688139 81.6896 0.79214 79.1882 0.854807 76.6936Z" fill="#5EC0AF"/>
</svg>
