<svg width="135" height="137" viewBox="0 0 135 137" fill="none" xmlns="http://www.w3.org/2000/svg">
<path d="M103.479 66.2378C103.272 66.2978 103.056 66.3352 102.86 66.4205C100.402 67.4872 97.9417 68.5458 95.4937 69.6338C93.4417 70.5458 91.4097 71.5005 89.3617 72.4245C88.6337 72.7525 88.267 73.2978 88.2337 74.0872C88.2004 74.8725 88.3844 75.6258 88.571 76.3765C88.7697 77.1752 88.9231 77.9752 88.9284 78.8058C88.9311 79.2965 88.7484 79.6632 88.3337 79.8765C87.9951 80.0525 87.6231 80.2138 87.2497 80.2672C86.3631 80.3952 85.4684 80.4938 84.5737 80.5312C83.5844 80.5738 82.5911 80.5378 81.6004 80.5272C81.4537 80.5245 81.3084 80.4765 81.1631 80.4498C81.2271 80.3165 81.2724 80.1698 81.3591 80.0525C82.3511 78.7045 83.3497 77.3632 84.3457 76.0178C84.6964 75.5458 85.0457 75.0725 85.3924 74.5965C85.4244 74.5525 85.4284 74.4885 85.4444 74.4325C85.3857 74.4325 85.3217 74.4165 85.2697 74.4338C85.0191 74.5152 84.7724 74.6058 84.5244 74.6952C82.4151 75.4605 80.3364 76.3272 78.0991 76.6792C77.8657 76.7152 77.6977 76.8485 77.615 77.0672C77.5497 77.2392 77.4724 77.4218 77.4711 77.6005C77.4604 78.3898 77.4297 79.1818 77.4884 79.9672C77.5977 81.4178 77.7871 82.8618 77.9031 84.3125C78.0497 86.1485 78.1431 87.9885 78.2831 89.8245C78.4231 91.6618 78.571 93.4978 78.7524 95.3298C79.0044 97.8925 79.4577 100.421 80.1577 102.902C80.7324 104.935 81.4844 106.899 82.4884 108.762C82.5524 108.879 82.6484 108.978 82.7297 109.086C82.7857 108.967 82.8711 108.853 82.8924 108.729C83.2484 106.638 83.6324 104.551 83.9364 102.453C84.2337 100.399 84.4297 98.3325 84.7097 96.2778C84.7991 95.6232 84.9631 94.9672 85.1831 94.3445C85.4351 93.6272 85.9284 93.4672 86.5777 93.8538C86.9471 94.0725 87.3044 94.3392 87.6004 94.6485C88.4537 95.5445 89.3111 96.4432 90.0991 97.3965C91.7351 99.3792 93.3297 101.397 94.9337 103.406C95.2817 103.841 95.6417 104.275 95.9151 104.757C96.4911 105.769 96.3124 106.681 95.3857 107.386C94.8964 107.757 94.351 108.071 93.791 108.323C93.0444 108.661 92.2617 108.918 91.4911 109.199C90.3871 109.605 89.267 109.971 88.1777 110.415C87.6697 110.622 87.1777 110.921 86.7537 111.27C85.9897 111.899 85.9297 112.566 86.4711 113.403C87.0804 114.345 87.8084 115.174 88.6951 115.875C90.7657 117.515 92.9657 118.954 95.3071 120.175C96.3364 120.713 97.3884 121.214 98.5364 121.458C98.8497 121.525 99.1817 121.546 99.5031 121.531C99.9884 121.51 100.258 121.237 100.224 120.753C100.195 120.326 100.114 119.891 99.9804 119.483C99.5337 118.115 99.047 116.758 98.5884 115.394C98.0444 113.778 97.519 112.154 97.2937 110.458C97.223 109.925 97.2137 109.373 97.2644 108.838C97.3431 108.021 97.8204 107.678 98.6297 107.75C99.8164 107.857 101.007 107.925 102.191 108.059C103.635 108.226 105.076 108.423 106.512 108.65C107.168 108.753 107.815 108.942 108.395 109.29C109.088 109.706 109.303 110.221 109.028 110.979C108.844 111.486 108.599 111.977 108.326 112.442C107.659 113.577 106.946 114.683 106.276 115.818C105.338 117.41 104.583 119.09 103.987 120.841C103.803 121.382 103.954 121.686 104.494 121.887C104.61 121.93 104.728 121.963 104.847 121.998C106.484 122.473 108.1 122.366 109.68 121.77C112.298 120.781 114.291 118.975 116.026 116.842C116.183 116.649 116.134 116.486 115.976 116.359C115.58 116.041 115.192 115.702 114.758 115.445C114.199 115.115 113.583 114.882 113.019 114.559C112.443 114.23 111.878 113.873 111.348 113.475C110.618 112.927 110.39 112.175 110.61 111.286C110.796 110.534 111.195 109.893 111.636 109.27C111.995 108.766 112.359 108.263 112.706 107.75C113.286 106.89 113.838 106.01 114.434 105.161C114.912 104.477 115.428 103.818 115.948 103.163C116.163 102.893 116.243 102.911 116.438 103.189C116.535 103.327 116.619 103.477 116.7 103.626C117.104 104.367 117.38 105.161 117.514 105.989C117.727 107.318 117.88 108.657 118.084 109.987C118.203 110.767 118.367 111.539 118.516 112.314C118.53 112.383 118.584 112.445 118.62 112.51C118.682 112.451 118.764 112.403 118.8 112.333C119.166 111.614 119.522 110.893 119.883 110.173C120.947 108.055 122.047 105.954 122.958 103.763C123.666 102.058 124.254 100.314 124.618 98.4992C124.772 97.7232 124.554 97.2538 123.846 96.9032C123.599 96.7818 123.328 96.6845 123.058 96.6365C122.418 96.5245 121.772 96.4392 121.127 96.3632C120.476 96.2872 119.847 96.1458 119.254 95.8565C118.742 95.6072 118.436 95.2152 118.524 94.6378C118.591 94.1992 118.702 93.7552 118.875 93.3498C119.506 91.8832 120.136 90.4192 120.626 88.8978C120.9 88.0432 121.17 87.1818 121.526 86.3605C121.826 85.6685 122.22 85.0138 122.62 84.3725C122.928 83.8805 123.018 83.8992 123.391 84.3512C124.11 85.2205 124.663 86.1912 125.023 87.2538C125.495 88.6458 125.9 90.0605 126.335 91.4658C126.367 91.5698 126.392 91.6752 126.431 91.7765C126.478 91.8992 126.566 91.9005 126.64 91.8112C126.758 91.6685 126.87 91.5192 126.967 91.3618C127.294 90.8272 127.496 90.2418 127.626 89.6325C127.903 88.3312 128.175 87.0298 128.359 85.7085C128.634 83.7458 128.982 81.7938 129.259 79.8325C129.515 78.0352 129.619 76.2272 129.399 74.4138C129.214 72.8872 128.764 71.4498 127.902 70.1592C127.302 69.2605 126.55 68.5072 125.672 67.8792C125.344 67.6445 125.274 67.6592 125.182 68.0565C125.083 68.4778 125.002 68.9072 124.966 69.3365C124.883 70.3085 124.843 71.2832 124.763 72.2552C124.708 72.9352 124.595 73.6098 124.295 74.2338C123.924 75.0072 123.299 75.3005 122.462 75.1152C122.235 75.0645 122.008 75.0138 121.779 74.9792C120.707 74.8218 119.631 74.6858 118.563 74.5098C117.831 74.3898 117.092 74.2578 116.443 73.8618C115.867 73.5085 115.742 73.0325 116.135 72.4912C116.396 72.1338 116.719 71.8058 117.063 71.5258C118.795 70.1205 120.544 68.7365 122.286 67.3418C122.491 67.1778 122.699 67.0138 122.879 66.8232C123.128 66.5565 123.088 66.3845 122.767 66.1978C122.687 66.1525 122.599 66.1192 122.514 66.0818C121.59 65.6672 120.622 65.4018 119.628 65.2205C117.738 64.8752 115.834 64.6578 113.914 64.5472C112.194 64.4472 110.479 64.4272 108.768 64.6618C108.138 64.7485 107.515 64.8778 106.942 65.1698C106.375 65.4592 106.202 65.7805 106.258 66.4045C106.276 66.6045 106.296 66.8058 106.343 67.0005C106.574 67.9485 106.818 68.8938 107.048 69.8405C107.228 70.5805 107.344 71.3285 107.304 72.0952C107.251 73.1445 106.671 73.7885 105.634 73.9445C104.287 74.1485 102.943 74.3778 101.594 74.5552C100.906 74.6445 100.206 74.6725 99.5111 74.6752C98.9257 74.6765 98.891 74.5952 99.0497 74.0445C99.3097 73.1445 99.6937 72.2992 100.202 71.5152C100.891 70.4485 101.627 69.4125 102.304 68.3392C102.731 67.6605 103.087 66.9365 103.475 66.2338L103.479 66.2378ZM18.703 115.241C18.7337 114.095 18.7697 113.043 18.787 111.99C18.7924 111.666 18.755 111.342 18.723 111.018C18.711 110.903 18.655 110.793 18.619 110.681C18.531 110.757 18.4257 110.819 18.3577 110.911C17.9551 111.461 17.5457 112.007 17.167 112.573C15.611 114.887 14.0684 117.21 12.5177 119.527C11.6297 120.853 10.7364 122.175 9.84705 123.499C9.74305 123.654 9.63239 123.805 9.54572 123.969C9.32572 124.385 9.36038 124.694 9.70705 125.017C9.97905 125.267 10.2817 125.487 10.5817 125.705C11.1097 126.086 11.6604 126.435 12.1737 126.833C12.4377 127.038 12.6711 127.301 12.8644 127.575C13.1417 127.97 13.1177 128.397 12.8271 128.786C12.7071 128.945 12.5604 129.089 12.4044 129.213C11.1711 130.199 9.93639 131.185 8.69239 132.159C8.36439 132.417 8.02305 132.665 7.65905 132.866C7.20839 133.114 6.92038 132.977 6.88572 132.469C6.84705 131.902 6.86838 131.325 6.92838 130.758C7.04038 129.727 7.20038 128.702 7.33905 127.674C7.35771 127.535 7.37238 127.397 7.38572 127.258C7.38838 127.23 7.37638 127.199 7.37105 127.17C7.33105 127.179 7.28039 127.175 7.25239 127.199C7.16839 127.267 7.09372 127.346 7.01638 127.422C5.25772 129.147 3.49905 130.873 1.74038 132.597C1.67505 132.662 1.60304 132.723 1.54304 132.793C1.38571 132.974 1.23372 132.937 1.05505 132.817C0.861715 132.689 0.889718 132.545 0.976384 132.378C1.40038 131.563 1.90838 130.802 2.53638 130.134C3.34305 129.275 4.18038 128.447 4.99638 127.601C5.58838 126.987 6.16038 126.357 6.75638 125.749C7.04038 125.458 7.03638 125.151 6.75905 124.794C6.48572 124.442 6.11505 124.211 5.71772 124.031C4.99105 123.703 4.33772 123.263 3.73239 122.753C3.45105 122.515 3.17104 122.258 2.95104 121.965C2.57371 121.463 2.63638 120.978 3.10838 120.561C4.33638 119.473 5.55771 118.374 6.81905 117.325C7.38705 116.853 8.03505 116.473 8.66438 116.078C9.01638 115.857 9.08171 115.893 9.24171 116.286C9.56171 117.078 9.65239 117.906 9.56839 118.749C9.49239 119.519 9.37371 120.285 9.28171 121.054C9.24971 121.33 9.23238 121.609 9.22038 121.887C9.21772 121.967 9.26038 122.051 9.28305 122.133C9.34838 122.073 9.42705 122.022 9.47638 121.951C10.3084 120.757 11.159 119.574 11.9617 118.359C13.8324 115.529 15.6804 112.683 17.5364 109.843C17.8164 109.414 17.7551 109.142 17.2924 108.906C16.8924 108.702 16.4751 108.535 16.0631 108.357C15.6644 108.185 15.2537 108.038 14.8671 107.845C14.5084 107.666 14.1497 107.47 13.8311 107.229C13.019 106.613 12.8684 105.882 13.447 105.041C14.527 103.471 15.6497 101.931 16.7724 100.393C16.9884 100.095 17.2657 99.8352 17.5484 99.5952C17.9844 99.2245 18.3684 99.3058 18.5684 99.8392C18.7524 100.33 18.8937 100.843 18.9804 101.359C19.223 102.826 19.4284 104.298 19.6484 105.769C19.6617 105.861 19.6724 105.953 19.6937 106.043C19.7124 106.117 19.7444 106.187 19.7711 106.259C19.8391 106.206 19.9244 106.166 19.9737 106.099C20.7577 105.022 21.5297 103.937 22.3191 102.863C23.3657 101.439 24.4804 100.07 25.695 98.7858C26.847 97.5672 28.0751 96.4338 29.4244 95.4352C29.8777 95.0992 29.8764 94.8032 29.3844 94.5138C28.6911 94.1045 27.9644 93.7512 27.2711 93.3432C26.6844 92.9992 26.1017 92.6392 25.5617 92.2285C25.2764 92.0112 25.0417 91.6952 24.863 91.3778C24.607 90.9245 24.7417 90.3245 25.175 90.0512C26.4017 89.2778 27.4084 88.2325 28.5697 87.3818C29.0684 87.0165 29.5871 86.6725 30.1271 86.3738C30.4004 86.2218 30.7364 86.1552 31.0537 86.1152C31.4511 86.0645 31.7351 86.2792 31.8937 86.6432C31.9551 86.7832 32.0057 86.9352 32.0257 87.0858C32.1777 88.2365 32.3297 89.3872 32.4657 90.5392C32.5217 91.0152 32.5324 91.4978 32.583 91.9738C32.6057 92.1872 32.663 92.4005 32.7324 92.6045C32.8044 92.8165 32.9724 92.9298 33.2004 92.9085C33.3684 92.8912 33.5417 92.8658 33.695 92.8018C34.0817 92.6418 34.4604 92.4645 34.8377 92.2832C36.8351 91.3285 38.8311 90.3698 40.8284 89.4112C40.8697 89.3912 40.9177 89.3792 40.9537 89.3525C41.015 89.3098 41.0684 89.2578 41.1257 89.2085C41.0671 89.1458 41.0204 89.0592 40.9484 89.0232C40.4084 88.7525 39.8617 88.4925 39.3204 88.2272C35.1351 86.1725 30.9324 84.1512 26.7684 82.0538C18.591 77.9325 10.5444 73.5698 2.72438 68.7965C2.08971 68.4098 1.45505 68.0218 0.828384 67.6232C0.264384 67.2645 0.145715 66.9618 0.371048 66.3285C0.712381 65.3645 1.08038 64.4112 1.44571 63.4552C3.10571 59.0992 4.72438 54.7258 6.14838 50.2845C7.95238 44.6618 9.49772 38.9685 10.887 33.2298C12.395 26.9978 13.7711 20.7352 15.0671 14.4552C15.6084 11.8312 16.1617 9.20985 16.6831 6.58185C16.9484 5.24585 17.147 3.89785 17.3924 2.55785C17.459 2.19518 17.5497 1.82851 17.687 1.48718C17.9364 0.867181 18.3057 0.757842 18.899 1.07118C21.0617 2.21384 23.2057 3.39785 25.3951 4.48985C30.3897 6.98185 35.5324 9.13518 40.7631 11.0765C48.1764 13.8272 55.7351 16.1098 63.3657 18.1632C69.5884 19.8378 75.851 21.3458 82.123 22.8178C82.483 22.9018 82.8564 22.9272 83.2231 22.9885C83.3897 23.0152 83.5591 23.0485 83.7204 23.1005C84.5097 23.3552 84.8404 23.8685 84.7311 24.6925C84.6897 24.9978 84.6431 25.3125 84.5337 25.5978C83.8204 27.4578 83.4377 29.4058 83.0057 31.3378C82.2724 34.6178 81.535 37.8978 80.8737 41.1925C80.095 45.0632 79.3937 48.9512 78.883 52.8685C78.6097 54.9698 78.403 57.0818 78.1977 59.1925C78.027 60.9338 77.899 62.6778 77.7617 64.4218C77.691 65.3178 77.6257 66.2138 77.5911 67.1112C77.5564 68.0218 77.5684 68.9352 77.5497 69.8472C77.523 71.0858 77.4737 72.3245 77.4617 73.5618C77.4577 73.9778 77.5084 74.3978 77.5804 74.8085C77.6724 75.3405 77.823 75.4165 78.307 75.2152C80.183 74.4365 82.1124 73.8098 84.0577 73.2312C84.5324 73.0898 84.9977 72.9152 85.4537 72.7245C85.9844 72.5018 86.2417 72.0805 86.1777 71.5032C86.1377 71.1352 86.0777 70.7645 85.9777 70.4098C85.6657 69.3072 85.3151 68.2152 85.0084 67.1112C84.8551 66.5605 84.7417 65.9978 84.6484 65.4338C84.6071 65.1805 84.639 64.9085 84.679 64.6525C84.7537 64.1805 85.0484 63.8778 85.4937 63.7258C85.6537 63.6725 85.8231 63.6325 85.9911 63.6192C87.5084 63.5018 88.9937 63.1912 90.4884 62.9298C90.9444 62.8512 91.4097 62.7898 91.8697 62.7885C92.7964 62.7872 93.2004 63.3045 93.0137 64.2045C92.8484 65.0045 92.487 65.7285 92.0684 66.4165C91.4244 67.4752 90.7431 68.5112 90.0791 69.5565C89.9137 69.8178 89.7497 70.0818 89.5924 70.3485C89.5657 70.3938 89.5724 70.4605 89.5644 70.5178C89.6217 70.5125 89.6857 70.5218 89.7364 70.5005C90.251 70.2885 90.7711 70.0832 91.2791 69.8538C93.9751 68.6365 96.6684 67.4138 99.3617 66.1898C100.56 65.6458 101.75 65.0805 102.956 64.5512C103.366 64.3725 103.524 64.0965 103.472 63.6805C103.443 63.4352 103.416 63.1805 103.324 62.9565C103.032 62.2405 102.707 61.5378 102.398 60.8285C102.051 60.0338 101.707 59.2392 101.364 58.4432C101.334 58.3725 101.314 58.2965 101.292 58.2232C101.011 57.2512 101.307 56.5778 102.255 56.2112C102.74 56.0232 103.266 55.9058 103.783 55.8392C104.595 55.7352 105.418 55.7098 106.235 55.6338C106.851 55.5765 107.466 55.5085 108.076 55.4152C108.512 55.3498 108.939 55.3325 109.367 55.4378C110.015 55.5965 110.339 56.0365 110.247 56.7045C110.198 57.0525 110.116 57.4152 109.962 57.7285C109.515 58.6285 109.035 59.5125 108.547 60.3925C108.208 61.0018 107.832 61.5885 107.479 62.1898C107.354 62.4032 107.236 62.6232 107.14 62.8512C107.083 62.9845 107.074 63.1378 107.042 63.2832C107.176 63.2698 107.314 63.2725 107.443 63.2418C109.935 62.6512 112.463 62.4698 115.011 62.6285C117.591 62.7885 120.098 63.3432 122.528 64.2312C122.731 64.3045 122.935 64.3845 123.146 64.4325C123.506 64.5138 123.69 64.3912 123.708 64.0218C123.728 63.6365 123.714 63.2472 123.683 62.8618C123.583 61.6445 123.458 60.4285 123.367 59.2098C123.344 58.9218 123.395 58.6218 123.452 58.3352C123.638 57.4045 124.247 57.0672 125.138 57.4165C125.728 57.6485 126.304 57.9192 126.882 58.1832C128.967 59.1352 131.05 60.0912 133.134 61.0485C133.927 61.4125 133.987 61.8792 133.307 62.4325C132.578 63.0245 131.732 63.4152 130.887 63.8045C130.043 64.1925 129.188 64.5578 128.348 64.9552C128.014 65.1125 127.694 65.3085 127.392 65.5218C127.066 65.7525 127.002 65.9738 127.196 66.3258C127.436 66.7578 127.708 67.1765 128.014 67.5632C128.415 68.0738 128.87 68.5418 129.288 69.0392C129.587 69.3952 129.874 69.7605 130.148 70.1352C130.764 70.9778 130.963 71.9592 131.079 72.9712C131.255 74.5098 131.376 76.0512 131.38 77.6032C131.386 80.2138 131.119 82.7965 130.671 85.3645C130.239 87.8378 129.676 90.2818 128.988 92.6978C128.848 93.1885 128.703 93.6832 128.623 94.1858C128.439 95.3592 128.638 95.6312 129.712 95.8685C130.815 96.1125 131.922 96.3405 133.028 96.5658C134.131 96.7898 134.688 97.4418 134.71 98.5725C134.723 99.3258 134.568 100.058 134.311 100.755C133.931 101.786 133.524 102.81 133.072 103.811C132.467 105.151 131.807 106.467 131.174 107.795C131.082 107.991 131.01 108.197 130.932 108.399C130.828 108.675 130.671 108.913 130.359 108.942C130.064 108.969 129.858 108.771 129.727 108.537C129.502 108.133 129.258 107.726 129.114 107.29C128.75 106.189 128.411 105.077 128.11 103.955C127.768 102.685 127.482 101.399 127.163 100.121C127.082 99.7912 126.98 99.4645 126.874 99.1418C126.842 99.0458 126.763 98.9658 126.707 98.8792C126.64 98.9552 126.554 99.0232 126.512 99.1112C126.223 99.7112 125.932 100.311 125.663 100.919C123.734 105.283 121.812 109.65 119.882 114.013C119.703 114.417 119.739 114.795 119.908 115.179C120.114 115.645 120.434 116.031 120.847 116.311C121.564 116.795 122.304 117.249 123.043 117.701C123.716 118.111 124.406 118.498 125.079 118.909C125.275 119.029 125.451 119.187 125.619 119.347C126.38 120.073 126.55 120.783 126.098 121.739C125.775 122.423 125.386 123.081 124.976 123.718C124.28 124.798 123.538 125.849 122.831 126.923C122.508 127.414 122.246 127.946 121.918 128.433C121.678 128.789 121.407 129.139 121.091 129.426C120.61 129.862 120.152 129.727 119.97 129.098C119.738 128.295 119.514 127.485 119.375 126.663C119.12 125.153 118.938 123.63 118.714 122.113C118.528 120.858 118.327 119.605 118.131 118.35C118.124 118.305 118.118 118.257 118.099 118.214C118.052 118.107 117.999 118.003 117.95 117.898C117.868 117.965 117.778 118.023 117.707 118.101C117.528 118.294 117.36 118.497 117.184 118.693C114.292 121.898 110.719 123.839 106.436 124.441C105.718 124.542 104.988 124.573 104.264 124.621C103.826 124.65 103.743 124.701 103.766 125.147C103.784 125.515 103.826 125.893 103.924 126.246C104.308 127.634 104.734 129.01 105.118 130.399C105.38 131.353 105.618 132.315 105.823 133.283C105.892 133.605 105.86 133.962 105.811 134.294C105.606 135.653 104.528 136.234 103.36 136.087C101.58 135.863 99.8097 135.55 98.0364 135.269C97.0124 135.106 95.9937 134.881 94.9644 134.782C94.0444 134.694 93.5257 133.511 94.0244 132.718C94.9711 131.21 95.8591 129.665 96.7577 128.126C97.2191 127.338 97.659 126.537 98.087 125.73C98.247 125.431 98.3724 125.109 98.4684 124.785C98.6471 124.183 98.4977 123.759 97.9631 123.426C97.5977 123.198 97.2084 122.987 96.8017 122.851C93.3337 121.685 90.3644 119.693 87.6124 117.341C86.7404 116.597 85.8924 115.825 85.0337 115.065C84.9644 115.003 84.8964 114.941 84.8217 114.886C84.7111 114.805 84.6084 114.826 84.5591 114.953C84.4817 115.154 84.3977 115.359 84.3604 115.57C84.1884 116.546 84.0297 117.523 83.8711 118.501C83.5604 120.426 83.2657 122.354 82.9351 124.277C82.8497 124.777 82.6684 125.262 82.5124 125.749C82.4364 125.982 82.3297 126.21 82.2111 126.426C81.6897 127.371 81.0284 127.451 80.3057 126.642C79.1604 125.359 78.0297 124.065 76.8924 122.775C75.3857 121.067 73.8737 119.365 72.3777 117.649C72.0644 117.289 71.7684 116.901 71.5417 116.483C70.9417 115.381 71.1151 114.445 72.0364 113.595C72.7564 112.931 73.6297 112.517 74.5457 112.221C75.9591 111.763 77.3924 111.367 78.8177 110.949C79.3684 110.786 79.9204 110.633 80.4697 110.471C80.6031 110.431 80.7377 110.389 80.8604 110.326C81.1204 110.193 81.1644 110.061 81.0551 109.798C81.0311 109.741 81.0017 109.686 80.9684 109.633C80.2844 108.509 79.6124 107.377 78.9097 106.263C78.0697 104.931 76.8844 104.021 75.4004 103.499C74.771 103.279 74.1484 103.045 73.5137 102.841C70.515 101.882 67.6231 100.642 64.7111 99.4578C58.8564 97.0778 53.0604 94.5592 47.3111 91.9352C46.1137 91.3885 44.9164 90.8378 43.7244 90.2792C43.4737 90.1618 43.2377 90.1352 42.963 90.1938C42.1204 90.3725 41.3524 90.7365 40.5897 91.1192C39.2351 91.8018 37.8817 92.4872 36.519 93.1552C35.795 93.5085 35.0497 93.8165 34.3257 94.1672C34.0484 94.3005 33.7844 94.4725 33.5444 94.6658C33.2324 94.9178 33.2311 95.0872 33.5537 95.3298C33.9124 95.5978 34.2964 95.8352 34.6844 96.0578C35.3417 96.4365 36.0257 96.7712 36.6711 97.1685C37.1031 97.4352 37.5204 97.7445 37.8831 98.0978C38.5404 98.7392 38.4937 99.4618 37.7911 100.063C37.3684 100.426 36.9164 100.755 36.4844 101.107C35.6444 101.791 34.8284 102.51 33.963 103.159C33.459 103.538 32.8804 103.818 32.3297 104.133C32.1964 104.209 32.047 104.259 31.899 104.303C31.6377 104.382 31.5457 104.353 31.491 104.089C31.3884 103.59 31.2631 103.083 31.2631 102.579C31.2617 101.621 31.3377 100.662 31.391 99.7045C31.4457 98.7138 31.5084 97.7245 31.3551 96.7378C31.3431 96.6605 31.3337 96.5845 31.3177 96.5085C31.2844 96.3512 31.191 96.3005 31.047 96.3765C30.9097 96.4485 30.7764 96.5272 30.6444 96.6072C28.7097 97.7685 27.0964 99.3018 25.6097 100.977C23.7764 103.043 22.2017 105.311 20.5697 107.533C20.2857 107.918 20.3164 108.145 20.7084 108.431C20.9444 108.603 21.2057 108.749 21.4724 108.867C22.0097 109.106 22.5724 109.291 23.1017 109.546C23.6004 109.787 24.0924 110.057 24.5484 110.371C25.1617 110.795 25.2511 111.347 24.8764 111.99C24.8137 112.097 24.7417 112.198 24.6631 112.293C23.6204 113.541 22.5817 114.793 21.5297 116.031C20.9764 116.683 20.359 117.27 19.659 117.765C19.583 117.818 19.5084 117.875 19.4284 117.922C19.1511 118.085 19.0671 118.074 19.0057 117.767C18.8804 117.146 18.7911 116.518 18.7084 115.89C18.6764 115.647 18.703 115.395 18.703 115.241Z" fill="#F17171"/>
</svg>
